<?xml version="1.0" encoding="UTF-8" standalone="no"?>
<svg
   xmlns:dc="http://purl.org/dc/elements/1.1/"
   xmlns:cc="http://creativecommons.org/ns#"
   xmlns:rdf="http://www.w3.org/1999/02/22-rdf-syntax-ns#"
   xmlns:svg="http://www.w3.org/2000/svg"
   xmlns="http://www.w3.org/2000/svg"
   xmlns:sodipodi="http://sodipodi.sourceforge.net/DTD/sodipodi-0.dtd"
   xmlns:inkscape="http://www.inkscape.org/namespaces/inkscape"
   inkscape:version="1.0 (4035a4fb49, 2020-05-01)"
   sodipodi:docname="Akita.svg"
   id="svg30"
   version="1.1"
   height="613"
   width="385">
  <metadata
     id="metadata36">
    <rdf:RDF>
      <cc:Work
         rdf:about="">
        <dc:format>image/svg+xml</dc:format>
        <dc:type
           rdf:resource="http://purl.org/dc/dcmitype/StillImage" />
      </cc:Work>
    </rdf:RDF>
  </metadata>
  <defs
     id="defs34" />
  <sodipodi:namedview
     inkscape:current-layer="svg30"
     inkscape:window-maximized="1"
     inkscape:window-y="-8"
     inkscape:window-x="-8"
     inkscape:cy="322.26195"
     inkscape:cx="192.09583"
     inkscape:zoom="1.3996737"
     showgrid="false"
     id="namedview32"
     inkscape:window-height="1017"
     inkscape:window-width="1920"
     inkscape:pageshadow="2"
     inkscape:pageopacity="0"
     guidetolerance="10"
     gridtolerance="10"
     objecttolerance="10"
     borderopacity="1"
     bordercolor="#666666"
     pagecolor="#ffffff" />
  <title
     id="title2">衆議院小選挙区 秋田県</title>
  <desc
     id="desc4">Author: Lincun</desc>
  <rect
     id="rect6"
     height="613"
     width="385"
     y="0"
     x="0"
     fill="#eeeeee" />
  <path
     fill="#aaaaaa"
     d="m 81,-1 3,2 2,20 -3,24 6,-2 3,2 h 3 l 3,-2 7,5 -1,-2 3,-5 -2,-3 3,-2 2,-3 3,1 1,-3 h 4 l 7,3 4,8 h 11 l 1,1 9,-3 2,3 4,-1 3,2 8,-4 5,1 3,-2 h 5 l 4,3 6,-1 4,-10 3,-4 5,1 2,-4 4,5 5,-3 5,2 -1,2 2,8 5,-3 5,1 1,3 v 1 l 7,5 6,-1 -2,8 2,-1 3,3 h 2 l 3,2 2,-1 -4,-7 2,-2 7,-1 1,-3 6,5 h 4 l 3,5 -1,2 h 7 l 2,-3 h 2 l 3,-2 v -4 h 3 5 l 2,4 h 3 v -8 h 5 l 4,-5 1,1 4,-2 2,2 3,1 1,-14 3,-3 7,-4 9,-1 v 4 l 10,-2 1,4 6,5 1,5 -4,7 -4,-3 2,-2 -1,-2 h -4 l -1,3 3,4 -1,4 h -4 l -5,-6 1,5 3,2 v 3 l 8,-2 2,2 h 2 l 2,-3 3,1 5,-1 4,1 -2,4 1,1 1,6 v 3 l 2,4 -1,5 2,3 -4,4 h -3 l -1,-3 -1,1 1,5 -1,4 -2,-1 v 7 l -3,4 v 2 l 4,2 -4,9 3,4 3,3 1,4 h 2 l 1,3 3,-2 6,2 3,-1 4,-6 h 5 V -1 Z m 305,113 h -5 l -4,6 -3,1 -6,-2 -3,2 -1,-3 h -2 l -1,-4 -3,-3 h -3 l -1,2 v 5 l -9,2 -5,8 1,2 -9,8 3,4 4,1 -5,9 2,3 v 3 h 2 l -1,6 -9,8 3,11 -1,4 2,6 -2,3 v 17 l 2,2 -1,11 4,4 v 4 l 3,6 v 3 l -7,3 -2,-2 -3,-1 v -2 l -2,-2 -3,3 -5,-1 -4,5 2,6 -2,7 1,2 5,3 2,-1 3,1 1,2 4,2 2,4 -12,13 v 4 l -8,4 3,2 2,7 h 5 v 5 l 3,2 -1,3 1,11 -4,6 v 7 l -3,4 -4,-1 v 5 l -5,1 -2,6 -7,2 -1,3 4,4 v 3 l -1,5 -3,2 v 5 l -3,2 3,6 -7,5 -3,1 -3,5 2,6 -1,5 -2,1 h -4 l 1,4 -2,4 v 1 l 6,3 v 5 l 4,3 -1,4 4,2 1,3 1,1 -3,1 -1,3 v 7 l 2,-1 2,3 2,-1 v 9 l 7,4 2,-1 8,8 3,1 -1,4 -4,1 -1,2 v 3 l -1,4 7,3 h 2 l 3,4 -5,2 -2,3 -2,-1 -4,8 -3,2 6,5 -4,2 v 3 l 2,1 -3,8 5,2 2,-1 7,2 -1,6 3,1 -5,5 1,5 -3,3 -2,4 -4,3 1,2 v 4 l 2,5 v 4 l 6,-2 h 8 l 16,13 h 8 l 1,4 h 2 l 1,-2 9,5 4,4 v 3 l 5,4 2,-2 2,1 4,-3 1,2 2,-1 1,2 3,1 v -1 z m 0,482 v 1 l -3,-1 -1,-2 -2,1 -1,-2 -4,3 -2,-1 -2,2 -5,-4 v -3 l -4,-4 -9,-5 -1,2 h -2 l -1,-4 h -8 l -16,-13 h -8 l -6,2 h -5 l -7,4 -2,5 -4,5 -2,-2 -4,3 -4,7 -9,5 -7,-4 -2,3 h -2 l -2,-1 -2,3 -6,3 -2,-2 -2,-4 v 3 l -3,3 1,4 3,1 2,4 2,-1 7,5 2,3 v 1 h 123 z m -123,20 v -1 l -2,-3 -7,-5 -2,1 -2,-4 -3,-1 -1,-4 3,-3 v -3 l -3,-4 -3,1 -3,-1 -3,2 -3,-2 v -1 l -3,-5 -3,1 -3,-2 -3,-9 1,-3 -1,-7 -5,-6 -15,-1 -4,-6 v -6 h -5 l -4,-3 -3,2 -3,6 -4,-2 -2,-3 -7,-3 -2,3 -3,-1 -3,1 -9,-3 1,-6 -2,-3 -6,1 -1,2 -2,-1 -4,2 -3,-6 -3,1 -3,-2 -1,-3 -14,-5 1,-3 -1,-5 v -7 l -15,4 -3,2 -1,4 -12,-4 -1,1 -11,-2 H 62 l 3,8 -11,39 -3,5 -1,-1 -2,5 4,1 v -2 4 h -3 l -1,2 -2,-1 1,4 -13,41 z m -213,-54 -2,5 -5,4 5,-4 z"
     id="path8"
     style="stroke:#000000;stroke-width:0.2;stroke-linejoin:round" />
  <path
     fill="#f6bad3"
     d="m 90,240 11,11 7,15 2,8 v 6 l 1,-2 1,-1 1,1 -1,5 -2,-1 2,1 v 6 h 2 l 1,5 1,25 -1,21 -4,30 -9,45 -9,25 -4,7 -10,2 -4,5 -1,5 1,4 -3,8 -3,6 v 2 l 3,3 v 7 l -3,7 -3,4 v 4 l -2,4 -2,1 h 10 l 11,2 1,-1 12,4 1,-4 3,-2 15,-4 v 7 l 1,5 -1,3 14,5 1,3 3,2 3,-1 3,6 4,-2 2,1 1,-2 6,-1 2,3 -1,6 9,3 3,-1 3,1 2,-3 7,3 2,3 4,2 3,-6 3,-2 4,3 h 5 v 6 l 4,6 15,1 5,6 1,7 -1,3 3,9 3,2 3,-1 3,5 v 1 l 3,2 3,-2 3,1 3,-1 3,4 2,4 2,2 6,-3 2,-3 2,1 h 2 l 2,-3 7,4 9,-5 4,-7 4,-3 2,2 4,-5 2,-5 7,-4 -11,-12 1,-5 -5,-2 2,-12 -7,-7 1,-6 -1,-3 2,-7 -3,-6 2,-5 -6,-4 -5,3 -2,-2 1,-2 -2,-7 -5,-4 2,-3 3,1 1,-4 7,-2 9,8 5,-1 3,-3 3,1 4,-1 4,-4 v -3 l 1,-2 4,-1 1,-4 -3,-1 -8,-8 -2,1 -7,-4 v -9 l -2,1 -2,-3 -2,1 v -7 l 1,-3 3,-1 -1,-1 -1,-3 -4,-2 1,-4 -4,-3 v -5 l -6,-3 -6,4 -1,2 -3,1 1,-1 -3,-4 -4,2 -6,-1 -1,2 -6,1 v 6 l -3,-2 h -2 l 2,4 -7,-4 -7,-7 v -7 l 2,2 1,-3 3,3 v -3 l -2,-3 h 3 l 1,-1 1,-3 -3,-5 2,1 1,-1 5,-3 v -1 h 5 l -1,-5 1,-2 -3,-1 3,-1 v -3 l 3,-1 1,2 h 2 l 9,-5 9,-1 12,7 3,4 7,-5 -3,-6 3,-2 v -5 l 3,-2 1,-5 v -3 l -4,-4 1,-3 7,-2 2,-6 5,-1 v -5 l 4,1 3,-4 v -7 l 4,-6 -1,-11 1,-3 -3,-2 v -5 h -5 l -2,-7 -3,-2 8,-4 v -4 l 12,-13 -2,-4 -4,-2 -1,-2 -3,-1 -2,1 -5,-3 -1,-2 2,-7 -2,-6 4,-5 5,1 3,-3 2,2 v 2 l 3,1 2,2 7,-3 v -3 l -3,-6 v -4 l -4,-4 1,-11 -2,-2 v -17 l 2,-3 -2,-6 1,-4 -3,-11 9,-8 1,-6 h -2 v -3 l -2,-3 5,-9 -4,-1 -3,-4 9,-8 -1,-2 5,-8 9,-2 v -5 l 1,-2 h 3 l -3,-4 4,-9 -4,-2 v -2 l 3,-4 v -7 l 2,1 1,-4 -1,-5 1,-1 1,3 h 3 l 4,-4 -2,-3 1,-5 -2,-4 v -3 l -1,-6 -1,-1 2,-4 -4,-1 -5,1 -3,-1 -2,3 h -2 l -2,3 -6,-1 -2,3 -7,1 -3,-2 -3,-5 h -2 l -4,8 1,6 -3,7 -2,2 -6,2 v 2 h 3 l -2,6 2,3 -3,3 v -3 h -2 l -2,14 h -2 l -3,-3 1,3 -2,1 -5,-3 -4,-11 3,-3 -2,-1 1,-2 -2,-4 h -3 l 2,-2 -1,-2 -6,-4 -2,-14 h -2 l -2,3 h -7 l 1,-2 -3,-5 h -4 l -6,-5 -1,3 -7,1 -2,2 4,7 -2,1 -3,-2 h -2 l -3,-3 -2,1 2,-8 -6,1 -7,-5 v -1 l -1,-3 -5,-1 -5,3 -2,-8 1,-2 -5,-2 -5,3 -4,-5 -2,4 -5,-1 -3,4 -4,10 v 19 l 1,3 5,4 -1,4 -5,8 v 7 l -2,1 -1,14 -3,2 -1,5 -6,-1 -3,4 -1,-1 -5,2 -1,-2 -5,-1 -3,-2 1,-5 -3,-1 1,-2 1,-5 -2,1 v -5 l -2,2 -1,-6 -2,-2 1,-9 -5,-6 h -2 l -1,-3 -3,-2 -2,1 v 5 l -4,7 2,5 -2,7 2,4 -2,2 1,2 -1,7 -9,2 -1,3 -1,-3 -3,-1 -1,2 -1,-4 h -3 l 1,-2 -5,1 -2,-3 -3,5 -4,-1 -3,16 h -2 l 4,1 h -3 v 4 l -1,-2 -7,31 h 14 l 1,-3 4,-8 2,2 5,-3 4,3 h 3 l 1,2 h 3 l 3,5 4,-1 5,2 4,-2 5,1 -4,10 3,3 v 4 h 3 l -1,5 7,-1 v 4 l 5,4 2,-1 v -3 l 2,-1 1,-3 h 10 l 3,-4 4,-1 1,-2 2,3 3,-1 3,-2 h 7 l -1,4 2,5 -1,3 1,3 -7,10 5,7 1,4 -6,6 2,6 -1,4 1,2 v 3 l 3,2 v 3 l 2,3 -2,5 4,6 -1,2 2,3 v 5 l 3,5 -8,-1 -6,6 v 3 l -2,2 -6,3 h -2 l 1,-4 -2,-6 -3,-3 -3,1 -1,-1 -3,2 h -7 l -6,-10 v -2 h -2 l -4,-1 -1,2 -4,2 -4,-1 -4,-4 -1,1 -2,-1 -3,1 -1,-3 -4,-1 -6,-10 h -10 l -2,7 1,1 -2,1 1,1 -2,-1 -4,-5 -2,-6 -13,-4 -3,6 -1,-6 -2,-7 -7,-7 6,-16 -4,-6 1,-3 5,-2 3,-8 -3,-2 h 2 l -2,-1 h 2 v -1 l -4,-1 -15,25 -12,11 -12,5 -4,-1 -1,-3 -4,-2 -7,-2 -2,-2 -3,1 -6,-9 -1,4 h -1 l 1,4 -1,2 2,1 v 5 l 2,2 2,-1 1,3 -1,2 -2,-1 -2,2 1,5 1,1 2,6 5,1 1,12 4,3 1,2 1,-2 h 3 v 2 l 2,-3 2,2 1,-2 5,3 h 3 l 3,-4 2,1 v 1 h 2 l 1,-3 2,-1 h -2 l -1,-1 h 2 l -1,-1 h 1 v -2 l 2,-3 10,-3 7,1 z m 102,282 -3,-6 h -4 l -1,-6 -2,-2 -1,-4 -6,-6 v -4 l -6,-7 v -3 l -3,-2 h -3 l -4,-8 2,-4 1,2 h 4 l 6,-6 11,-2 h 5 l 2,-1 2,2 1,-2 5,-4 9,1 1,-2 3,4 -1,2 h 2 l 3,2 -1,4 2,2 h 4 l 1,3 -1,5 5,9 -4,5 -2,-2 -2,1 -2,9 -5,2 v 4 l -2,4 -3,3 -9,3 -1,4 z m 82,-221 -4,-6 1,-5 3,-5 5,1 7,2 3,6 -2,3 -2,6 -4,-1 -4,2 z"
     id="path10"
     style="stroke:#000000;stroke-width:0.2;stroke-linejoin:round" />
  <path
     fill="#f6bad3"
     d="m 106,82 -2,21 4,1 3,-5 2,3 5,-1 -1,2 h 3 l 1,4 1,-2 3,1 1,3 1,-3 9,-2 1,-7 -1,-2 2,-2 -2,-4 2,-7 -2,-5 4,-7 v -5 l 2,-1 3,2 1,3 h 2 l 5,6 -1,9 2,2 1,6 2,-2 v 5 l 2,-1 -1,5 -1,2 3,1 -1,5 3,2 5,1 1,2 5,-2 1,1 3,-4 6,1 1,-5 3,-2 1,-14 2,-1 v -7 l 5,-8 1,-4 -5,-4 -1,-3 V 41 l -6,1 -4,-3 h -5 l -3,2 -5,-1 -8,4 -3,-2 -4,1 -2,-3 -9,3 -1,-1 h -11 l -4,-8 -7,-3 h -4 l -1,3 -3,-1 -2,3 -3,2 2,3 -3,5 1,2 -7,-5 -3,2 h -3 l -3,-2 -6,2 2,6 9,5 1,5 8,4 3,7 z m 6,141 3,3 h -1 v 5 h 10 l 6,10 4,1 1,3 3,-1 2,1 1,-1 4,4 4,1 4,-2 1,-2 4,1 h 2 v 2 l 6,10 h 7 l 3,-2 1,1 3,-1 2,-5 v -4 l -2,-2 2,-5 -2,-3 1,-5 -2,-4 v -2 l -1,-3 h -4 l -4,-8 -4,-3 1,-9 -4,-3 v -6 l 2,-3 1,-4 -3,-7 -5,-4 v -4 l -7,1 1,-5 h -3 v -4 l -3,-3 4,-10 -5,-1 -4,2 -5,-2 -4,1 -3,-5 h -3 l -1,-2 h -3 l -4,-3 -5,3 -2,-2 -4,8 -1,3 H 92 l -8,18 4,1 v 1 h -2 l 2,1 h -2 l 3,2 5,-3 -1,-3 3,-6 h 3 l 1,2 12,7 2,1 5,9 -1,19 -2,8 -5,8 -1,2 z m 167,181 h 4 l 2,-1 1,-5 -2,-6 3,-5 3,-1 -3,-4 -12,-7 -9,1 -9,5 h -2 l -1,-2 -3,1 v 3 l -3,1 3,1 -1,2 1,5 h -5 v 1 l -5,3 -1,1 -2,-1 3,5 -1,3 -1,1 h -3 l 2,3 v 3 l -3,-3 -1,3 -2,-2 v 7 l 7,7 7,4 -2,-4 h 2 l 3,2 v -6 l 6,-1 1,-2 6,1 4,-2 3,4 -1,1 3,-1 1,-2 6,-4 v -1 l 2,-4 z m 3,-353 2,14 6,4 1,2 -2,2 h 3 l 2,4 -1,2 2,1 -3,3 4,11 5,3 2,-1 -1,-3 3,3 h 2 l 2,-14 h 2 v 3 l 3,-3 -2,-3 2,-6 h -3 v -2 l 6,-2 2,-2 3,-7 -1,-6 4,-8 h 2 l 3,5 3,2 7,-1 2,-3 6,1 2,-3 -2,-2 -8,2 -4,3 -4,-1 -1,-5 -5,-6 2,-3 -5,-7 2,-5 2,-2 10,-1 v -4 l -9,1 -7,4 -3,3 -1,14 -3,-1 -2,-2 -4,2 -1,-1 -4,5 h -5 v 8 h -3 l -2,-4 h -5 -3 v 4 z m -70,413 h -2 l 1,-2 -3,-4 -1,2 -9,-1 -5,4 -1,2 -2,-2 -2,1 h -5 l -11,2 -6,6 h -4 l -1,-2 -2,4 4,8 h 3 l 3,2 v 3 l 6,7 v 4 l 6,6 1,4 2,2 1,6 h 4 l 3,6 h 3 l 1,-4 9,-3 3,-3 2,-4 v -4 l 5,-2 2,-9 2,-1 2,2 4,-5 -5,-9 1,-5 -1,-3 h -4 l -2,-2 1,-4 z"
     id="path12"
     style="stroke:#000000;stroke-width:0.2;stroke-linejoin:round" />
  <path
     fill="#f6bad3"
     d="m 309,477 -4,4 -4,1 -3,-1 -3,3 -5,1 -9,-8 -7,2 -1,4 -3,-1 -2,3 5,4 2,7 -1,2 2,2 5,-3 6,4 -2,5 3,6 -2,7 1,3 -1,6 7,7 -2,12 5,2 -1,5 11,12 h 5 v -4 l -2,-5 v -4 l -1,-2 4,-3 2,-4 3,-3 -1,-5 5,-5 -3,-1 1,-6 -7,-2 -2,1 -5,-2 3,-8 -2,-1 v -3 l 4,-2 -6,-5 3,-2 4,-8 2,1 2,-3 5,-2 -3,-4 h -2 l -7,-3 z m -198,-259 5,-8 2,-8 1,-19 -5,-9 -2,-1 -12,-7 -1,-2 h -3 l -3,6 1,3 -5,3 -3,8 -5,2 -1,3 4,6 -6,16 7,7 18,5 7,-3 z m 91,-38 -1,-3 1,-3 -2,-5 1,-4 h -7 l -3,2 -3,1 -2,-3 -1,2 -4,1 -3,4 h -10 l -1,3 -2,1 v 3 l -2,1 3,7 -1,4 -2,3 v 6 l 4,3 -1,9 4,3 4,8 h 4 l 1,3 v 2 l 2,4 -1,5 2,3 -2,5 2,2 v 4 l -2,5 3,3 2,6 -1,4 h 2 l 6,-3 2,-2 v -3 l 6,-6 8,1 -3,-5 v -5 l -2,-3 1,-2 -4,-6 2,-5 -2,-3 v -3 l -3,-2 v -3 l -1,-2 1,-4 -2,-6 6,-6 -1,-4 -5,-7 z"
     id="path14"
     style="stroke:#000000;stroke-width:0.2;stroke-linejoin:round" />
  <path
     fill="none"
     stroke-linecap="round"
     d="m 174,111 v 2 l 2,5 -3,4 8,2 -1,2 -3,2 -3,-1 -1,4 -5,2 v 6 l 1,2 -4,16 3,6 -2,2 3,2 -1,5 m 27,-101 4,1 2,3 v 8 l 2,5 6,10 3,2 -2,5 1,-1 v 2 l 3,1 6,-1 2,4 5,2 -1,6 5,3 v 3 l -2,5 4,6 -1,3 4,1 -2,4 3,-1 3,3 5,-4 2,2 v 3 l 2,3 10,2 3,3 v 12 l 5,2 5,-3 1,2 2,-1 3,1 2,3 2,1 2,-2 2,3 v 4 l 2,4 6,-11 -1,-9 3,-5 -1,-3 4,-2 2,-7 -8,-1 -1,-2 h -2 l -1,-12 8,1 -2,-6 -3,-5 v -1 h 3 l 2,-2 -2,-8 1,-1 -1,-2 1,-3 -2,-3 2,-4 m -8,86 1,6 9,7 v 4 m -208,43 2,-2 -6,-5 2,-2 m 210,120 -1,-4 -8,-4 -3,4 -6,-2 -4,1 -4,4 -9,-6 -2,4 h -4 l -7,-4 v 5 l -4,3 -1,4 h -2 v -2 h -5 l -3,-4 v -6 l -2,-3 -5,-1 -3,-7 2,-7 3,-7 3,-3 1,-8 3,-2 -3,-5 v -6 m -2,121 -2,2 h -2 l -1,3 -2,1 1,-13 h -1 v -2 l -3,1 -3,-1 -5,3 h -3 -7 l 1,5 h -5 l -2,-4 -5,2 -2,5 h -3 l -2,-2 -5,2 v 1 l -2,-2 v 3 l -1,-2 -1,1 -7,-2 3,6 -1,2 8,1 1,3 5,-1 3,3 -1,5 h 4 v 3 2 l 4,5 -4,1 -3,11 4,5 m -7,-47 -1,-3 -8,-2 4,-3 1,-4 -8,-3 -2,-3 v -6 m 114,127 -9,-3 -2,-2 h -4 l -2,-5 -3,-2 2,-4 -2,-4 1,-3 -4,-10 -8,-3 -6,2 -1,-1 1,6 -2,-3 1,2 -1,-1 -1,2 -4,-3 v -4 l 1,-1 -1,-2 -4,-3 h -5 l -6,-3 -6,1 m -106,29 1,-10 -6,-5 3,-6 1,-12 -7,-8 2,-4 -10,-5 -3,-4 3,-3 -6,-7 m 99,82 v 3 l -3,6 3,4 -3,4 m -77,-316 4,-1 -1,-1 -4,-3 m 4,3 7,-3 1,-1 v 2 l 2,-2 h 4 l -1,-3 -1,2 h -3 v -2 l 2,-1 -2,-1 1,-4 5,3 2,-6 -9,1 -2,-4 h -3 m -3,19 16,3 1,1 3,2 1,4 4,1 v 4 l 7,-1 3,4 8,1 v 6 m 5,-52 -2,2 -8,-4 -6,4 -1,-3 h -4 l -4,4 -3,1 -1,3 -3,1 1,3 m -3,-163 -2,7 2,1 v 3 l 2,2 3,-2 8,2 -1,3 3,3 -2,3"
     id="path16"
     style="stroke:#000000;stroke-width:0.2;stroke-linejoin:round;stroke-miterlimit:4;stroke-dasharray:none" />
  <path
     fill="none"
     stroke-width="1.6"
     stroke-linecap="round"
     d="m 330,211 -10,-6 -9,5 h -6 l -2,-4 1,-4 -6,-5 -5,1 v 3 l -4,2 -2,5 -5,1 1,3 -2,1 -3,5 -2,2 h -4 l -2,3 2,3 v 6 l -7,7 -2,-2 -2,1 -5,-4 -8,5 -2,-1 -2,5 1,3 -7,8 2,7 -1,3 -7,2 -2,3 h -2 l -4,-9 -7,1 -1,-2 -7,-1 -1,-2 -8,-1 -6,6 v 3 l -2,2 -6,3 h -2 l 1,-4 -2,-6 -3,-3 -3,1 -1,-1 -3,2 h -7 l -6,-10 v -2 h -2 l -4,-1 -1,2 -2,4 -6,1 -4,-2 -2,2 h -4 l -3,-3 -7,6 -2,-3 -3,-1 v -3 l -3,-1 v 3 l -5,1 2,7 v 7 l -6,1 m 122,3 2,6 5,4 2,7 -2,7 -3,2 -14,7 -8,-4 -9,7 -9,2 -2,5 -4,-2 -5,4 v 8 h -4 l -1,-3 -7,1 2,5 h 3 v 5 h -2 v 3 l -2,2 -1,5 -3,3 1,4 -4,1 -1,4 -2,1 1,3 -2,1 v 2 l 5,1 1,9 4,1 3,8 -3,2 4,5 1,4 h -1 v 3 h -3 l -8,-2 -1,-2 1,-2 -2,-2 -2,2 -1,-7 4,-2 h -4 l -1,-2 h -5 l -5,-2 -1,-3 3,-8 -1,-1 -4,2 -4,-2 3,-4 -5,-8 h -7 v -2 h -3 l -1,-3 h -2 l -4,2 -3,-2 v -3 l -4,-1"
     id="path18"
     style="stroke:#000000;stroke-linejoin:round;stroke-width:0.2;stroke-miterlimit:4;stroke-dasharray:none" />
  <g
     id="g28">
    <rect
       id="rect22"
       height="36"
       width="167"
       y="573"
       x="4"
       opacity="0.75"
       fill="white" />
    <rect
       id="rect24"
       height="8"
       width="159"
       y="577"
       x="8"
       fill="black" />
    <text
       id="text26"
       y="605"
       x="87"
       font-family="sans-serif"
       font-size="24"
       text-anchor="middle"
       fill="black">50km</text>
  </g>
</svg>
