<?xml version="1.0" encoding="UTF-8"?>
<!DOCTYPE svg PUBLIC "-//W3C//DTD SVG 1.1//EN" "http://www.w3.org/Graphics/SVG/1.1/DTD/svg11.dtd">
<svg width="446" height="570" version="1.1" xmlns="http://www.w3.org/2000/svg">
	<title>千葉県行政区画地図 (2013年1月1日)</title>
	<desc>Author: Lincun / 更新：Knua</desc>
	<rect fill="#eeeeee" x="0" y="0" width="446" height="570"/>
	<g stroke="black" stroke-width="0.2" stroke-linejoin="round">
		<path fill="#cccccc" d="M6-1l2 2 6 13 1 9h6l7 3 3-4v-1l1-3 3-2 5 4 3 12 4 5 20 20 4 11 9 7 4 1 4 1 1 2-2 5 2 5 5 2 16 12 8-1 5 5 11 5 4 6 7-4 13 6 7 12 3 1 4-1 13-7 4-1 7 4 7-3 9-6 5 1 6 3h5l10-8 3-6 7-3h1l7-3 9 1 4-2 5-1 3-6 10 8 7 2-5-4-1-6 1-2h2l1-6 5-6 8 8 16 10 3 5 4 2 5 5 6 12 1 2 6 2 10 2 8 4 6 5 2 8 3 6 5 6 25 18 4 2 6 1 4-1 1-2-3-2v1l-5-4-9-13-22-34-1-6-12-21 1-8v-6v6l-1 6-1 2h-2v-1l-8 6v5l5 8-2 1-4-8-2-9-6-5h1l2 2v-2l2 1-1 1 4 3 7-5v-2l1-1 2-1-3-2-4-10 3-2 2 2-2-2-4 1v-2v1l-1 1 1-1-4-1-11-25-10-24-9-27zM-1 152h3l4 3h5l1 2h5v3l3-3h3l2-3-4-7 2-1 5-2 4 4 6 1 7-1 2-2v-1l1 1-1 5 2 3 4-3 3 2 3 3 2-2 5-1 1 2-2 2 2 3 6-1-2-5 1-11-1-5 4-16-3-12-5-9-5-8-5-3-5-10v-4l-3-1v-5l-4-6 1-3-1-9 1-4-4-5-6-8-5-13-3 4-7-3h-6l-1-9-6-13-2-2h-7zM-1 259l5 3-2 4 2 3 5-1 3-2 3 1 2-2 6 1 15 10 4-8-9-14-5 1-2 3-2-1h-2l-4-3v-2h-8l15-1 2-2v2h6l1-1-2-3-5 1 3-3-1-2-5-9v-6v-2l-2-1v-2l3 1-1-4 1-2h1l4 3 4 8 2-2 2 4 2-2-1-4 2-1v-1l10-2v4l-4 2 7-1v-9l1-1h2v6l4 2 5-1 3-2 1-12v-1v-2l8-3 4-6-1-4-5-6-2-3 2-6-4-4-4-8 1-2 4-3v-2l-6 1-2-3 2-2-1-2-5 1-2 2-3-3-3-2-4 3-2-3 1-5-1-1v1l-2 2-7 1-6-1-4-4-5 2-2 1 4 7-2 3h-3l-3 3v-3h-5l-1-2h-5l-4-3h-3zM23 253l3 3 3-4h-6zM19 254l2 1 2-1-2-2zM32 228l-1-3-3 1 2-1 1 2-4 2 1 3h1l5 8 2-4-4-6 1-1zM48 227l1 5 1-1 2 4 1-8zM33 230l4 5 1-2-3-5zM60 226l1-2 2 1v1v-1l-1-1zM46 223l1 3 1-1v-1l3-1h-3v-1zM57 225v-1l3 1v-1l-2-1zM-1 415l12-1-1-3h-3l1-1h-2v-1l2-3 4 2v-4h-2l-2-4v-2l3 3h3v-3l2-1 3-2-2-2-3-1-1-2-5 1-9-2zM-1 325l1 1-1 3 1-3-1-1zM-1 294l1-1-1-2zM-1 290l1-1v1l1-1-1 1 1 4 6 7 4-2 6-4-2-4 1-1-1-2 4 4 4-3 1-2 1 2 4-3 2-3h-5v-3l3-2 1 3 1-2 4 3 3-6-15-10-6-1-2 2-3-1-3 2-5 1-2-3 2-4-5-3zM-1 307l1 1 3-3-2-3-2 2zM-1 302l1-1-1-3z"/>
		<path fill="#dcb6f2" d="M210 289v-2l1-5 4-4 1-1 2 2 3-2-5-2 1-3-4-6 1-2h1h2l1-5-2-4v-2l-5-4v-2h2h-1l-6-6 1-2 1-1v-4v-5l-3 1h-3l-3-3-1 1-6-3v-5l-3-3-3 1 1 3-5 8h-3v-3l4-3-4-1v-2l-2 2 1-2-3-3-2 4 1-3-3 3-2-1-1-3-2-5 1-6-1 5-4-1h-1l2-1-2-3 1-4 3-2 2 2-2 2 2-2v2v-3l-6-3-5-1v-4l-4-3-7 10-4-1-6 8-1-1v1l-2-1-1 1-1-1-1 1-2-1-3 4-5 8 23 25 1-3-3-4 1-1 4 4 2-1-1 4-2 1 4 1 2-4v5l4-2v2l-3 1 1 8 5 2-13 1v1l9 5h2l4 3 1 1 1-4 2 1 2 2 4 4 1-1 6 2 5-2 1-2 2 1 4-2 1 2 1-3 4 3 1 2-1 3-3 2 2 1h-1l4 8 8 1v3h3l-1-3 4 1zM141 246l2 9 9-1-3-7z"/>
		<path fill="#f6bad3" d="M74 551l7-1 8-4v-4l2 1 5-7 2-6-2-7 4-9 2-8 6-7 16-13h1l7-4 6 2v-3h3v-1h-1l-1-1 2-1 1-2 5-1 1-1-2-2 1-3 3-1h-1l1-1-1-4 6-6 6-2 5 2 3-3 9 2 1-3 2-1 2 2-1 2 2 4 4-2 6-1h3l-1-2 4-2 2-1-1-3h3l1-1 3 1 2-1 1 3 7-4-1-3 2-2h4l2 3h-1v4l2-2h4l2-11 4-4 1-2h-5l-6 1-1-5-3-2 1-4h1l-1-4 4-3h1l1-2 1 1 2-3 3 4 4-2 2 2 2-1 1 4-2 3 3 1 2 2 1-1 3 2 4-5-1-3 3-7 2-11-2-2 1 1-1-1h2l-2-1-1-4 6-17v-3l-4-8-2-1-4-1-1 1-5 1 1-6-12-1-1 1-6-1-2 1-4 3h-3l-3 7-4 1-2 2 2 8-4 3v2l-4 1-1 1 2 3 7 3 3 5-2 2v4l-4 3-6 1 3 4-4 1v2l-2 1v9l-3 7-4-4-5 4-4-2-3 4h-1l-1 2-5 2-4-3v-4l-4-11-1-1-3-8v-2l4-8h2l-1-2 1 1v-1l4-1 2 2 1-4 1-7 4-1 5-4-2-10 5 4 1-2 1 2 3-3 2 1-2-5-2-5-3-3-1-13v-2l-2 1-2-2 1-4h2l-2-6h-2l-2-7-3-5v-1l-3-5 4-2-1-2h2v-3l-6-4 2-2-1-3h5v-3l3 2 2-2v-2h3l-1-2 3-1 8 3 4-1 2 6-3 4 1 1 1 8 3 3 1 3 1 1-1 5-5 3 1 1 2-1v3l2 1 6-3 1 3-2 3 2 4h9l1-1 2-4h3l-3-5v-1h2l2-1v-5h4l1-1-2-2 2 1-1-2h4l1-3-3-1v-2l1-2-1 1 1-4 2-1 1-3 3-2v-4h4v3h2l2-3-1-6-2-3-6 1-2-2-2 6-8-5 2-1-1-2-3 1-1-1-7 2-5-1-4 3v-3l-4-1 1 3h-3v-3l-8-1-4-8h1l-2-1 3-2 1-3-1-2-4-3-1 3-1-2-4 2-2-1-1 2-5 2-6-2-1 1-4-4-2-2-2-1-1 4-1-1-4-3h-2v1l-6-3-4 2v2l2-1-2 1 2-1 1 1-2 2 4 2-2 1-8-7-2 2v3l-2-2-3 4 2 2-1 2-3-2-4 6 3 3-1 1-3-2-4 5 4 3v1l-5-2-2 3 1 2-1-1-2 2 3 1 1 6-5-5-4 2 2 3-1 1-2-3-2 1 3 6-2 2v-2l-3-8-6 3 3 9-7 2-1-4 2 2 2-2v-3l-5 1-1 6h-3l-8 2v-1l-6 5v3l-1 2 2 2-2-2v2l1 1-1 1 3 8 4 1 1 1-1 2h-1l-6 3v1l2-1 1 2-1 1-1-1h-5l4 6-4-2-9-2-6-4-3 4 6 5 1 2-2 1-2 1-3-6-6 6 3 4h3v2l-6 4v-1l-2 1 1 3-2 1v-2l-3 2-8 1 18 6 7 6v4l-2-1v3l6 8 2 5v10l-5 3-9 5-3 4-2 7v4l2 2-2 4 4-1 10-3 7 4 5-2 4 2 5 8h7l-1 3v1l-1 1-1 3-2 3h-7l-7 2-4-1-7 2-1 3-3-1-1 1 2 7-1 3-7 2v2v1l2 2 2 7-2 4-3-1-1-2-2 3 6 3 3-1 3 4h3l3 6-1 7-1 3-4 1v-3h-2h-5l1 2-2 4-8 2-5 1-4-3-3 2h-2l-2-2-1 2 1 2-1 2 3 3 3 2 4-1 15 9 2 4-2 3h2l-1 4 2 1 3 3 9-1 8 1h1v2l2-3zM258 282l2-4-4-3-4-1 2-2 1 1v-3l2 3 3-1 2 2 2-6-1-5h3l1-3h2v-4l2-1 11 10 8-12 12-13-6-6-4 3-3-3 2-4h2v-3l-2-2-3 2-8-5 5-5-1-2-2 1-7-4-3 3-4-8-6-1-2 2-4-3 2-5h-4v2l-2-1-2-2-1 2-2-4-1 1 1-1-2-2h5l1-4-3-1v-4h-3l-1-1 1-2v-4h2l5 7 1-1-2-4v-3h-1l1-1 2 2 2-2 3 1-1-5-1-1-4-1h3l1-3-4-1 3-1 2-3v-4l2-1h2l2 5 7-3-2-2 4-1v-7l3-1 6 4-1 3h4h2l1-3 4-2 3 3-1 3h2l-1 2 8 1 4 4 2-1 3 6-5 2-2-2-1 3-2 1-3-4-4 1 1 3-1 8-6 4v2l3 4 3 3-2 3 2 6 4 1 1 2-2 1 2 1 3-3 2 5 4 1-4 5 7 9 3 4 24-20 14-9 15-5 5 1 3 4h3v-2v2l-2 1v2l3-3 5-1 3-2 17-6 8-1 3 1v3l1 2 1-1 1 2 7 2-1-4 3-2-2-3 2-2-1-4 1-3-3-5h-4l-1 2-4 1-6-1-4-2-25-18-5-6-3-6-10 5-1 3 4 1v3l2 1-2 4-4-4-3 1 1 2-3 2-1 3-7-11v2l-2-1-3 1-3-4-2 1-1-2 1-1 3-2v-2l3-1v-7l2 1 1-1v-4l-2-5 1-4-6-2-1-2-6-12-5-5-4-2-3-5-16-10-8-8-5 6-1 6h-2l-1 2 1 6 5 4-7-2-10-8-3 6-5 1 1 2-3 2-1 4-1 9 6 1v2l-1 2h-4l-1 1v-3h-2l-6 6h-3l2-1-2-1h2v-8l-3-5-2 1-4-6 1-2-7 3-3 6-10 8h-5l-7-3-3 5v4l-2 1v2l2-1 2 8-3 5-3-2-5 4-1 6-1-9h-2v1l-3-1 3-3-4-2v-4l-13 2-11-4-4 1-3-1-7-12-13-6-7 4-4-6-11-5-5-5-8 1-16-12-5-2-2-5 2-5-2-3h-3l-8-4-5-4-4-11-20-20-4-5-3-12-5-4-3 2-1 3v1l5 13 6 8 4 5-1 4 1 9-1 3 4 6v5l3 1v4l5 10 5 3 5 8 5 9 3 12-4 16 1 5-1 11 2 5v2l-4 3-1 2 4 8 4 4-2 6 2 3 5 6 1 4-4 6-8 3v2v1l-1 12-3 2 1 1-2 2v4l6 1 2-1 1 3 16-10-8-7 4-5 6-1v-2l-6 2 1-3 2 1 3-3 2 4 4-4 2-1 6 1v2l2 2h-2v4l6-1 1 2h-6v3l7-2 5 3 5-8 3-4 2 1 1-1 1 1 1-1 2 1v-1l1 1 6-8 4 1 7-10 4 3v4l5 1 6 3v3v-2l-2 2 2-2-2-2-3 2-1 4 2 3-2 1h1l4 1 1-5-1 6 2 5 1 3 2 1 3-3-1 3 2-4 3 3-1 2 2-2v2l4 1-4 3v3h3l5-8-1-3 3-1 3 3v5l6 3 1-1 3 3h3l3-1v5v4l-1 1-1 2 6 6h1h-2v2l5 4v2l2 4 3 3 5-2v1l3-1v3l4 5v3l1-1 2 1 1-3 3 2-1 1 3 1-1 5 1 2 8 2-1 5h2l2-5 4 2zM251 270l2 1-1 2zM98 205l-2 3h1l1 1h3l3 1-3-3h3l-1-1zM205 185l-1-2h2l-1-4 3-3-1-4 6-1 1 3h3v-3l3 2 1 2 1 4h2h-5l-3 4h2l1 5 2 2-4 4-2 1-3-2-1 2-3 2-2-7h-3v-2l-3-2 4 1zM346 153h1l2-2v-2l-1 3z"/>
		<path fill="#ece3b4" d="M51 464l1-1 3 1 1-3 7-2 4 1 7-2h7l2-3 1-3 1-1v-1l1-3h-7l-5-8-4-2-5 2-7-4-10 3-4 1 4 2 4 9h-2l1 2-5 6 2 1-1 1-1 4zM179 433l1-2h1l3-4 4 2 5-4 4 4 3-7v-9l2-1v-2l4-1-3-4 6-1 4-3v-4l2-2-3-5-7-3-2-3 1-1 4-1v-2l4-3-2-8 2-2 4-1 3-7h3l4-3 2-1 6 1 1-1 12 1-1 6 5-1 1-1 4 1-2-8v-15l-3-4-2 2-5-1-3 4h-2l-4-2v-3l-3 2-4-2h-3l-2 4-1 1h-9l-2-4 2-3-1-3-6 3-2-1v-3l-2 1-1-1 5-3 1-5-1-1-1-3-3-3-1-8-1-1 3-4-2-6-4 1-8-3-3 1 1 2h-3v2l-2 2-3-2v3h-5l1 3-2 2 6 4v3h-2l1 2-4 2 3 5v1l3 5 2 7h2l2 6h-2l-1 4 2 2 2-1v2l1 13 3 3 2 5 2 5-2-1-3 3-1-2-1 2-5-4 2 10-5 4-4 1-1 7-1 4-2-2-4 1v1l-1-1 1 2h-2l-4 8v2l3 8 1 1 4 11v4l4 3zM249 427l2-4-3-2-1 1-2-2-3-1 2-3-1-4-2 1-2-2-4 2-3-4-2 3-1-1-1 2h-1l-4 3 1 4h-1l-1 4 3 2 1 5 6-1h5l2-2 7 1zM256 322l2-8 4-15 6-12 6-12 6-6 2-4-11-10-2 1v4h-2l-1 3h-3l1 5-2 6-2-2-3 1-2-3v3l-1-1-2 2 4 1 4 3-2 4-1 1-4-2-2 5h-2l1-5-8-2-1-2 1-5-3-1 1-1-3-2-1 3-2-1-1 1v-3l-4-5v-3l-3 1v-1l-5 2-3-3-1 5h-2h-1l-1 2 4 6-1 3 5 2-3 2-2-2-1 1-4 4-1 5v2l4-3 5 1 7-2 1 1 3-1 1 2-2 1 8 5 2-6 2 2 6-1 2 3 1 6-2 3h-2v-3h-4v4l-3 2-1 3-2 1-1 4 1-1-1 2v2l3 1 9 2v3zM302 240l12-11-3-4-7-9 4-5-4-1-2-5-3 3-2-1 2-1-1-2-4-1-2-6 2-3-3-3-3-4v-2l6-4 1-8-1-3 4-1 3 4 2-1 1-3 2 2 5-2-3-6-2 1-4-4-8-1 1-2h-2l1-3-3-3-4 2-1 3h-2h-4l1-3-6-4-3 1v7l-4 1 2 2-7 3-2-5h-2l-2 1v4l-2 3-3 1 4 1-1 3h-3l4 1 1 1 1 5-3-1-2 2-2-2-1 1h1v3l2 4-1 1-5-7h-2v4l-1 2 1 1h3v4l3 1-1 4h-5l2 2-1 1 1-1 2 4 1-2 2 2 2 1v-2h4l-2 5 4 3 2-2 6 1 4 8 3-3 7 4 2-1 1 2-5 5 8 5 3-2 2 2v3h-2l-2 4 3 3 4-3zM221 190l-2-2-1-5h-2l3-4h5h-2l-1-4-1-2-3-2v3h-3l-1-3-6 1 1 4-3 3 1 4h-2l1 2-1 2-4-1 3 2v2h3l2 7 3-2 1-2 3 2 2-1zM365 163l2-4-2-1v-3l-4-1 1-3 10-5-2-8-6-5-8-4-10-2-1 4 2 5v4l-1 1-2-1v7l-3 1v2l-3 2-1 1 1 2 2-1 3 4 3-1 2 1v-2l7 11 1-3 3-2-1-2 3-1zM346 153l2-1 1-3v2l-2 2zM203 152l1-6 5-4 3 2 3-5-2-8-2 1v-2l2-1v-4l3-5-4-1-9 6-7 3-7-4-4 1-13 7 11 4 13-2v4l4 2-3 3 3 1v-1h2zM257 128l6-6h2v3l1-1h4l1-2v-2l-6-1 1-9 1-4 3-2-1-2-4 2-9-1-7 3h-1l-1 2 4 6 2-1 3 5v8h-2l2 1-2 1zM251 270l1 3 1-2zM227 328l3 1-1-2z"/>
		<path fill="#f6bad3" d="M262 299l6-12-3-2v-1l-7-2-1 1-4-2-2 5h-2l1-5-8-2-1-2 1-5-3-1 1-1-3-2-1 3-2-1-1 1v-3l-4-5v-3l-3 1v-1l-5 2-3-3-1 5h-2h-1l-1 2 4 6-1 3 5 2-3 2-2-2-1 1-4 4-1 5v2l4-3 5 1 7-2 1 1 3-1 1 2-2 1 8 5 2-6 2 2 6-1 2 3 1 6z"/><!--大網白里市の市制に伴う色修正（2013年1月1日）-->
		<path fill="#b6f2dc" d="M254 338v-6l2-10-9-2v-3l-9-2-1 3h-4l1 2-2-1 2 2-1 1h-4v5l1 2-3-1h-2v1l3 5 4 2 3-2v3l4 2h2l3-4 5 1 2-2z"/>
		<path fill="none" stroke-linecap="round" d="M94 91l-3 4-3 2-2 2-3 1v7l-3 1 2 2 4 5v-3l-3-4 3-1 3 5-2 1 4 1v6l3-1h-2l-2 3-2-2-3 3 1 2 1-2h4l2 3h-1h-3l-1 3 5-2 3 9-1 1v-2l-1 1-2-1-1 1 3 3 3 9h3v3l4 2 3-5 2 1-1 1 1 1 2-1v2l1-2 6 2 1 2h-1l4-2-4 7 4-7 2-7 6-8 2-1 7 2 4-1 2 3 6-3 1-6-17-4-3 2-5-4-4 2-2-2-6-1-6-4 1-2-2-2 2 1 3-3h2l3-3h-2l2-2 1 3 4-5M83 100l-3-2v2l-3-1-1 1-9 1M275 149v-2l6-4-5 1 1-4 5-4-3-3 2-2 1 1 1-3h-3l-5-8-2 2-2-1M165 132l-5 2-4-3-1 1-1-3-2 2M91 136h-2l-3-7-4 2-2 4-5 3 1 1-5-1M205 179l-18-12-7 9-7-2-6-4-4-3-9-6-7-1 2-4 3-4-9-7 2-5M207 172l-2-4 1-6-4-5 1-5M111 152l-1 1 2 2-2 2-2-1-6 1-2 1v3h2l4 1v2l-3-1-2 8 1 1v3l3-2v3h1l3 2 5-1 1 2h1h-1l-1-2 1-2 3-4-1-2 3 1 2-2-3-1-2-1 5-5-4-2M147 160l-3-1-6-7-2 2-2 9-8 4-3-2-4 2M387 197l-2-2-2 1-1-2v1h-2l-2-1 2-7h1l-1-1 2-1-1-6-1 2 2-5-3 5-3 2 1-2h-3v-6l1-3-1-2-6-1v-5l-3-1M338 155l1 2-4 3h-3l-2 4-2-4-3 4-5 3h-1l-3 5-2 1-2-2-1-2M104 172l1 1-1-1M103 163h-6l-1 2h-3l1 4-4 2h2l-1 3-1 1-4-2 1-2v-1l-4 1 1-2-6-3-2 6-4 2M167 170l-6 3 4 1-3 6 1 5-6 4 3 1-1 1 3 4-1 3M245 183l-2-1 1-4-3-1 4-2-4 2-5-7-5-3-3-5-3 7v3l-4 3M106 173l2 4h3v-3l-2-2-3 1M338 209l-1-3-4 1v-6l-3-1 1-4v-3h-2v-2l-3 2v-2l-4 2-1-2 4-3 4 1v-7l1-2-4-2v2l-2-1-1 1-3-1-3 1v-1l-1-1 3-2-3-4M256 205l-3 2-5-3-2 2 1-1-2-2-5 1-3 3-9-5-2-4 2-5-2 2v-1l-3 1v-4l-1 2-1-2v-1M144 159l-2 6 2 4h-6l2 3-5 4 2 3-2 1-1 7 3 2-2 3 1 1 6 2-3 1 1 3h1M98 205v-2l-1-8-5-3-3 3 2-7 2 1 3-1 1-7 4 1 2-1-1-6M217 194v2l1-1-1 1h2l2 1h-3v1l-2-1v4l-3 1 2 9-2-6-2 1 2 3-1 2v-4l-2-2-1 2 1 2-2 3-2-1-1 2 6 4 1-1v3l-5-4v2l-2-3-3 5v2h2l-1 1 2-1-1 2 1 7M136 193l-2 1-1 3h1v4l-3-3-2 2-2-2h-3l-2 3-7-3-4 8 2 4-1 2M189 217v-4l-2-4 1-2-3-2v-3l2-4-1-5-4 3-1-1-5 4-1-2-2 2-2-2-1 4 1-3-6-2v4l2 1M98 205v4M237 207l1 2-4 3 6 1v3l-3-2h-5l-1 2-1-1v4l-2 1 2 2-2 2 3 3 2 3-1 2 3 2-3 2h1l-2 2 3 1 2-1 2 1 1-2 3 4 4-3 1 2h4l1 1-1 4 3 3 3-2 1 1 2-2 2 2 1-4h3l3 13M82 216l-9-8-3 1M228 233h1h-1M228 236l3-1-3 1M216 253h2l8-5 8-1-1-2-3 1-1-5h-4l-3 3 2-4 4 1 3-2-2-1v-1v1M230 237l1 1v-2l-1 1M231 227l-1 3-4-3-3 3 3 3-3 2 1 2 1-1 1 2v1l3-2M204 288l-3 4v2M162 406l-2-3-5-5-1-11 1-4-2-3v-5l2-6-1-1-4 1-2-3h3l-1-2 5-4 3-6-4-6 1-2-6-9h-1l1 3-1 1-4-2 1-3v-1v-3l-2-1 2-4-1-6-3-5-8 3-10 1 3-3 1-3-7-13-1-1M145 336l-2 2-2-1-5 1-3 2-5-1-2 4h-2l-1 5h-3v3h-2l-2 4h-4l-1-2v-1l-2 1 2-2 1-3-2-3 3-8-5-4 3-1 3 1 1-5-10-2-3 1-1-1 1-3-3-2h-1v3l-3 2-6-5 3-3v-7M58 356h1h-1M151 366l-2-3-5-2v-1l-2-2v-4l-2 1h1h-4l-7-5-2 2 1 2h-2v4l-8 4v2l-3 5-5-9-1 9-3-4v2l-2-1-1 2-3-1-3-6-5 1-5-4h-5l-3-1-4 2-2-1v-4l-4-7M170 428l-6-2-3-2-3 1-3-1-2 4h-6l-1 4-2 2-6-3-9 6-6 1-2-2-5 4-8-1 3-7-2-4 1-3-1-4-3-3-1-5-2-1-1-13-2 3-3-2-2 1h-2l-1-4 3-1v-2l-4-3-3 1v-2l-7-2-2-5v-3l-4-1-1-4-4-1-2-8-6-5v-3l-5-5M227 413l-4-5-5-2 1-3h-2l-2-3-2 1M188 458v-5l2-4h-2l2-3-4-8-2-5h-5M108 439l-10 1h-7l-3 4-2-1v4M124 486l-2-2 2-3-2-1-2-7-2-1v-3l-5-3-4 1 2-3-2-2 1-5h-5l-1 5-3-2-1-2-4 1-4-6-5 1-2-3M46 548l10-1 3-4 2 1 6-1 5-5-1 3 1 2 3-3 6 1 1-2 1-5-7-3 1-2h-2v-3l3-8 7-2 1-4 3-5-1-1-1-6v-2l-2-1-4 4h-5l-1 4h-7l1-5h2v-2l-4 1 1-13-1-2v3l-7 5v1l-5 1h-5M288 187h-2v1l-5 12-3 1v-3l-2-1-2-6-6-3-1-2 2-3-4-11 1-7-4-1-3 1-1-2h-1M276 197l-4 1-8 5-2 3M268 287l-3-2v-1l-7-2M262 299l-12-2M206 319l-6-1-6 4h-4l-2 3v4l-2 1v-2l-3 3 1 3M239 339l-4 3 3 2-1 2-2 4 1 1-1 4M223 338l-1 2 2 5-1 2-11 2-2-1-1 2-4 8h-2l-1 6v1l1 2h1l3 2h3M202 364l-1-1-8 5"/>
		<path fill="#eeeeee" d="M230-1l3 3-1 3 2 2 8 3 8 6-3 3 7 4v1l-10 11-12 1-10-4-4 4-6-3-13-2-1-5-6-2-5 4 4-1 1 9 2 6 12 5h7l6 4 7-2 3 2 4-1h6l9 12-5 3-6 2v5l1 2 2-6 4 2h9l3-3h2l16 6v1h-2l1 2 9 5 4 1 3 2 3-2 2-4-2-4-4-4-5-1-3-11-1-1-3-8-12-16-2-9-5-3v-4l-2-1 1-4-6-11-3-2h-8v1h-3l-1-1zM151 70l1 1v7l2 6 2 2-1 1 5 4 1-5-4-4-2-1-2-11-2-1zM304 30l-1 2 7 4-2 3 5 3-2 3h-5l8 5-4 7h-4l3 3 5 2 10 9-3 2 3 7 6 1 3 5 1-1v-5l-4-4h-3l3-6-3-6 1-3-6-3-1-4 2-3-5-2 2-3-2-3v-4l-4-2-1-6-5-4v-6l-4-1 3-3-3-3 1-4-3-7-5-4 3 6-1 3 4 4-2 3 2 2-3 3 6 4v6zM326 93l-3 6 3 4-1 2 5 3 2-1 1-10zM187 165l-9 10-5-1-9-6 8 7h5l2 4 7-2-3-2 3-6h2l4 2 1-2zM119 126l4 2 4-2 5 5 3-2-1-2h-4l-3-3-4 1-14-4v1l5 4zM168 349h-4v2l4-2v3l-3 1 1 4 4-6zM185 296l-1 7h2l-1-3 4 3-2-1 1-2-3-1 1-2 2 2zM118 422l-2 2 2-1 1 2zM117 423h2v1zM122 413l-1-1 1 4 1-2v2l2-1-2-1v-3l-3-1 3 2v3zM146 408l-1-2h-2l-1 2v-2l-2 3h-1l-2 2 5-2 2-3v2l1-1 3 3-1-3v2z"/>
	</g>
	<g>
		<rect fill="white" opacity="0.75" x="234" y="530" width="208" height="36"/>
		<rect fill="black" x="238" y="534" width="200" height="8"/>
		<text fill="black" text-anchor="middle" font-size="24" font-family="sans-serif" x="338" y="562">50km</text>
	</g>
</svg>