<?xml version="1.0" encoding="UTF-8" standalone="no"?>
<svg
   xmlns:dc="http://purl.org/dc/elements/1.1/"
   xmlns:cc="http://creativecommons.org/ns#"
   xmlns:rdf="http://www.w3.org/1999/02/22-rdf-syntax-ns#"
   xmlns:svg="http://www.w3.org/2000/svg"
   xmlns="http://www.w3.org/2000/svg"
   xmlns:xlink="http://www.w3.org/1999/xlink"
   xmlns:sodipodi="http://sodipodi.sourceforge.net/DTD/sodipodi-0.dtd"
   xmlns:inkscape="http://www.inkscape.org/namespaces/inkscape"
   width="460"
   height="720"
   version="1.1"
   id="svg2"
   inkscape:version="0.48.4 r9939"
   sodipodi:docname="三重県区画図.svg">
  <metadata
     id="metadata205">
    <rdf:RDF>
      <cc:Work
         rdf:about="">
        <dc:format>image/svg+xml</dc:format>
        <dc:type
           rdf:resource="http://purl.org/dc/dcmitype/StillImage" />
      </cc:Work>
    </rdf:RDF>
  </metadata>
  <defs
     id="defs203" />
  <sodipodi:namedview
     pagecolor="#ffffff"
     bordercolor="#666666"
     borderopacity="1"
     objecttolerance="10"
     gridtolerance="10"
     guidetolerance="10"
     inkscape:pageopacity="0"
     inkscape:pageshadow="2"
     inkscape:window-width="1920"
     inkscape:window-height="1033"
     id="namedview201"
     showgrid="false"
     inkscape:zoom="1"
     inkscape:cx="230"
     inkscape:cy="401"
     inkscape:window-x="-4"
     inkscape:window-y="-4"
     inkscape:window-maximized="1"
     inkscape:current-layer="svg2" />
  <title
     id="title4">三重県行政区画地図</title>
  <g
     id="g6"
     transform="translate(3,-5)">
    <defs
       id="defs8">
      <path
         d="m 223,-4 v 2 l -4,5 2,4 v 9 l -7,7 14,11 6,-4 3,5 8,-9 h 7 l 1,-2 8,2 4,-8 4,-2 4,4 5,7 -1,6 h 3 l 1,4 9,9 4,5 11,16 3,-2 5,2 v -9 l 4,2 6,12 V 54 l 4,-18 -1,-7 -1,-5 10,-16 8,-12 z"
         id="21000"
         inkscape:connector-curvature="0" />
      <path
         d="m 448,282 1,-7 -4,7 z m 16,17 -12,24 8,1 4,-1 z M 343,-4 l -8,12 -10,16 1,5 1,7 -4,18 v 18 l 11,7 5,6 13,12 5,20 3,6 9,3 v -3 l -5,-6 7,3 -1,-11 -3,3 3,-5 3,2 1,-4 4,3 1,-4 v 5 h -4 l 7,1 1,-6 h 3 l 2,3 4,-1 -1,-8 2,-2 1,5 2,-11 2,3 h 6 l 2,5 -2,2 -2,2 -2,9 6,3 h -10 l -6,11 8,2 -1,2 -9,-1 4,2 -5,1 h 4 l -13,17 4,2 -1,7 -1,3 -1,16 1,11 3,3 2,-5 v 4 l 7,5 4,11 -2,12 -8,23 1,1 3,6 6,5 17,11 14,5 9,2 v -9 l -4,-2 2,-3 -10,-9 -10,-10 2,-20 3,-7 -1,-11 3,2 1,-2 -3,-5 4,1 2,-8 5,4 2,-2 -3,-2 7,-24 3,-10 -2,21 v 1 5 l 2,1 h -2 l -1,9 -2,-1 -5,15 -1,-3 3,9 -5,1 5,-1 4,4 7,2 4,1 v 4 l 9,12 h 9 V -4 z m 101,272 7,-3 -4,-1 z m 20,-13 -4,-2 -3,3 3,3 2,-2 2,3 z m -94,-66 4,16 h 5 -3 v -3 l 4,-1 -2,-8 -5,-5 z m 5,-36 3,3 2,-5 -2,-2 z m -1,-42 1,10 10,-2 -3,-9 h -6 l 1,5 z m 11,-2 3,8 3,-9 z m 10,1 4,-1 2,-9 -5,2 z"
         id="23000"
         inkscape:connector-curvature="0" />
      <path
         d="M 6,-4 11,7 22,3 v 1 l -6,12 -3,7 1,7 -3,3 5,24 5,4 -2,12 -7,18 v 16 l -7,5 7,14 -5,-1 v 2 l 6,5 -4,4 h 8 l 3,4 -2,6 5,5 5,5 1,6 -7,14 2,5 v 1 l 11,9 16,-10 1,7 -1,6 2,6 6,-1 4,4 -1,3 13,-1 v 7 l 7,1 2,2 -5,5 -2,5 4,2 7,-1 17,-7 3,-4 -1,-3 -2,-5 7,-2 1,-5 7,-4 -1,-5 -7,1 -6,-3 -1,-4 8,-7 3,1 4,5 8,3 12,-3 v 4 l 7,4 19,6 7,-5 3,-3 3,2 7,-2 4,-6 12,-3 7,-5 4,-17 7,-4 8,-15 -1,-5 3,-2 -1,-8 2,-5 -3,-6 5,-7 4,-3 -2,-8 3,-2 V 83 l -1,-1 3,-5 -5,-3 7,-14 v -2 l -17,-10 3,-12 v -2 l -14,-11 7,-7 V 7 l -2,-4 1,-3 3,-2 v -2 z"
         id="25000"
         inkscape:connector-curvature="0" />
      <path
         d="m -4,-4 v 262 h 3 l 4,4 19,4 5,-4 5,3 1,-5 1,-2 10,-14 2,-1 -1,7 h 7 l 4,-3 1,4 5,-1 5,3 1,9 7,-1 3,4 6,1 6,-14 4,-1 -10,-8 2,-10 -6,-3 1,-3 -4,-2 2,-5 5,-5 -2,-2 -7,-1 v -7 l -13,1 1,-3 -4,-4 -6,1 -2,-6 1,-6 -1,-7 -16,10 -11,-9 v -1 l -2,-5 7,-14 -1,-6 -5,-5 -5,-5 2,-6 -3,-4 H 9 l 4,-4 -6,-5 v -2 l 5,1 -7,-14 7,-5 V 91 L 19,73 21,61 16,57 11,33 14,30 13,23 16,16 22,4 V 3 L 11,7 6,-4 z"
         id="26000"
         inkscape:connector-curvature="0" />
      <path
         d="m -4,634 2,-1 v -3 l 4,-1 13,5 1,6 2,4 1,5 h 5 l -1,-3 4,-6 -4,-3 h -4 l -1,-4 3,-11 5,2 v 3 l 6,2 -1,-6 h 6 l -1,-2 -3,-1 -2,-9 9,-12 4,-4 5,2 10,-4 14,-11 6,-12 4,2 3,-3 6,2 8,1 10,3 v -6 l -4,-4 1,-17 9,1 -6,-6 1,-7 v -1 l -2,-2 3,-4 -2,-6 5,-9 -1,-3 -3,-3 2,-5 -6,-3 v -2 l 9,-9 -3,-6 8,-7 v -4 l -5,-4 1,-4 -8,-8 -1,-6 13,-7 -3,-4 -8,-5 -4,-12 -1,-8 -7,-6 8,-10 2,-9 13,-4 8,1 3,-3 h 18 l 3,-15 5,-4 -5,-4 1,-4 -2,-9 -11,5 -6,-1 2,-7 -5,-5 1,-1 -2,-5 -2,2 -5,-3 -7,7 -4,-5 -9,-1 -9,-5 -1,-3 -4,-4 2,-4 -2,-3 6,-9 3,-9 -2,-5 -8,-3 -2,-1 10,4 5,-3 3,-8 -4,-10 -8,-2 1,-2 5,-4 -5,-11 -4,1 -6,14 -6,-1 -3,-4 -7,1 -1,-9 -5,-3 -5,1 -1,-4 -4,3 h -7 l 1,-7 -2,1 -10,14 -1,2 -1,5 -5,-3 -5,4 -19,-4 -4,-4 h -3 z"
         id="29000"
         inkscape:connector-curvature="0" />
      <path
         d="m 62,734 5,-4 1,-8 7,-10 -12,-6 -3,2 2,4 h -5 l -8,-5 -1,-4 v -6 l -4,1 -4,-6 h -4 l -2,-6 -4,-9 -13,-8 2,-14 -3,-5 2,-6 -2,-4 -1,-6 -13,-5 -4,1 v 3 l -2,1 v 100 z m -44,-101 1,4 h 4 l 4,3 -4,6 1,3 2,-5 7,1 1,-5 -3,-6 v 6 l -3,-1 -2,-12 v -3 l -5,-2 z m 55,-48 v -3 l -14,11 -10,4 -5,-2 -4,4 -9,12 2,9 3,1 1,2 9,1 v -3 h -6 l 4,-5 1,-3 5,1 9,5 4,-18 h 4 l 5,5 5,-6 -7,-14 z"
         id="30000"
         inkscape:connector-curvature="0" />
      <path
         d="m 133,338 -1,1 5,5 -2,7 6,1 11,-5 2,9 -1,4 5,4 -5,4 -3,15 25,-1 14,-6 5,-11 4,-1 5,-8 -4,-10 5,-5 14,-24 1,-7 4,-2 10,-10 7,4 6,-10 24,1 7,6 v -3 l -1,-10 5,-4 -3,-4 v 4 l -3,-5 1,1 -3,1 -4,-2 -2,-6 7,-32 12,-17 -7,-5 -4,3 -11,-2 -6,5 h -3 l -10,-5 -4,1 -6,-5 -1,-9 h -11 l -10,10 -18,-1 -5,6 -1,1 2,8 6,1 3,5 v 3 l -15,12 -1,4 4,4 -9,10 -7,13 3,5 -8,9 -2,8 3,19 -11,2 -2,10 -4,-4 h -5 l -7,-1 z"
         id="24201"
         inkscape:connector-curvature="0" />
      <path
         d="m 228,140 10,-1 10,7 2,6 12,5 3,5 17,10 30,6 2,-2 -1,-13 9,-4 -8,-2 -2,4 -3,-5 3,-2 3,-17 1,7 6,1 3,-6 -6,-3 5,-4 -8,4 3,-4 5,-2 -1,-5 -4,3 -2,-3 1,-3 -5,-2 -1,-7 -11,-1 -5,-1 -10,-2 -3,-5 -9,-3 -2,15 9,2 -2,7 h -6 l -1,2 4,6 -32,4 -5,-4 h -9 l -3,2 z"
         id="24202"
         inkscape:connector-curvature="0" />
      <path
         d="m 311,393 2,13 11,3 6,-2 2,3 9,-1 10,3 3,-1 2,-11 11,-5 -2,-11 8,-10 v -5 l 4,-2 -1,-8 -1,-3 h -13 l -19,-15 -10,-2 -14,-9 v 2 l -5,11 5,4 v 4 -1 l -2,1 v 1 l -2,2 -3,-2 3,3 -4,5 8,-2 -5,9 4,-2 -1,3 6,3 -7,9 1,2 -8,9 z"
         id="24203"
         inkscape:connector-curvature="0" />
      <path
         d="m 225,397 6,-11 -1,-10 -6,-1 -2,-2 11,-6 7,4 3,-5 12,-1 2,-2 -6,-2 5,-5 4,4 9,-2 23,-9 6,-7 2,-10 h 3 l -3,-5 2,-9 -4,-4 -9,-2 -2,-2 2,2 -4,1 -2,-5 -13,3 v -4 h 3 v -4 l 3,2 1,-6 -7,-6 -24,-1 -6,10 -7,-4 -10,10 -4,2 -1,7 -14,24 -5,5 4,10 -5,8 -4,1 -5,11 -14,6 -25,1 h -18 l -3,3 -8,-1 -13,4 -2,9 -8,10 7,6 1,8 4,12 8,5 3,4 10,2 1,-4 11,-2 -1,-7 3,-2 18,-4 11,-6 -6,-8 9,-10 36,2 3,-2 z"
         id="24204"
         inkscape:connector-curvature="0" />
      <path
         d="m 327,115 7,9 17,-6 3,-3 -1,-2 -4,2 -5,-8 -5,-22 -5,-6 -11,-7 -6,-12 -4,-2 v 9 l -5,-2 -3,2 -11,-16 -7,6 1,13 6,11 10,9 -3,5 h -4 l 3,5 -4,11 5,1 11,1 7,1 4,-3 z"
         id="24205"
         inkscape:connector-curvature="0" />
      <path
         d="m 295,210 17,-32 -30,-6 -17,-10 -3,-5 -12,-5 -2,-6 -10,-7 -10,1 -8,15 9,3 5,11 9,8 11,-3 4,10 -2,14 -3,9 2,1 1,6 -1,9 h 3 l 6,-5 11,2 4,-3 7,5 z"
         id="24207"
         inkscape:connector-curvature="0" />
      <path
         d="m 146,330 -6,-13 v -15 l -10,-8 v -4 l -4,-8 -7,2 -1,-3 4,-4 -4,-3 -2,3 -1,6 -10,-3 -3,8 -5,3 -10,-4 2,1 8,3 2,5 -3,9 -6,9 2,3 -2,4 4,4 1,3 9,5 9,1 4,5 7,-7 5,3 2,-2 2,5 6,-9 z"
         id="24208"
         inkscape:connector-curvature="0" />
      <path
         d="m 123,595 1,7 4,4 h 7 l 3,-4 6,6 8,-1 7,4 -3,-7 v -2 l -3,1 2,-5 -7,5 -4,-3 h 4 l 5,-6 -2,-7 h 2 l 2,3 11,4 v 2 l -4,-1 -1,6 4,-2 1,3 7,-3 1,-7 -4,-2 -2,-2 4,2 2,-6 -7,-1 -4,-4 6,2 7,-3 -2,-4 -6,-3 -5,-2 v -6 l 3,-4 -14,-1 -5,-4 2,-2 12,-5 -5,-2 -20,1 -3,-9 -6,-4 -16,2 v 1 l -1,7 6,6 -9,-1 -1,17 4,4 v 6 l 3,1 11,-2 5,4 -6,5 z m 62,-52 v -1 l -2,-3 -8,-3 -7,5 -1,6 5,-5 1,8 8,-7 2,5 z m -20,8 z"
         id="24209"
         inkscape:connector-curvature="0" />
      <path
         d="m 190,220 5,-6 18,1 10,-10 h 11 l 1,9 6,5 4,-1 10,5 1,-9 -1,-6 -2,-1 3,-9 2,-14 -4,-10 -11,3 -9,-8 -5,-11 -9,-3 -7,4 -4,17 -7,5 -12,3 -4,6 -7,2 -2,5 4,8 -4,3 -1,6 -4,1 4,4 13,2 z"
         id="24210"
         inkscape:connector-curvature="0" />
      <path
         d="m 440,340 2,-3 -5,1 z m -29,0 2,1 2,-2 z m -22,16 h 6 l 5,-1 6,-5 4,1 v -3 l -1,-6 -2,1 -6,3 -3,1 3,1 -3,2 z m 28,37 1,-8 -5,-5 -7,3 -3,4 3,2 -3,1 -3,2 3,-9 -4,-3 h -3 l 3,-1 -3,-2 5,-5 -4,-2 h -8 l -1,-7 -2,2 -2,-8 -4,1 1,3 1,4 h -2 l -3,2 -4,2 v 5 l -8,10 2,11 h 6 l 10,10 h 5 l 1,-4 7,1 1,3 -3,3 4,2 3,3 2,1 -2,-4 4,-2 -1,4 4,-2 2,5 4,1 -2,-5 h 3 l -2,-5 3,-4 4,-3 z m -5,-29 1,-5 -3,-1 -11,8 3,2 3,2 z m -21,1 2,3 3,-4 z"
         id="24211"
         inkscape:connector-curvature="0" />
      <path
         d="m 87,646 10,7 -1,6 12,-19 7,-4 2,-4 3,7 3,-2 -1,-4 h 5 l -1,-2 -2,-3 5,-2 -1,-5 -1,-3 h 4 l 5,2 -1,2 2,5 7,-3 1,-8 -5,-2 7,-2 3,2 v 4 l 2,-3 1,-4 h 6 l -7,-4 -8,1 -6,-6 -3,4 h -7 l -4,-4 -1,-7 v -12 l 6,-5 -5,-4 -11,2 -3,-1 -10,-3 -8,-1 -6,-2 -3,3 -4,-2 -6,12 v 3 l -3,1 7,14 -5,6 -5,-5 h -4 l -4,18 -9,-5 -5,-1 -1,3 -4,5 h 6 v 3 l -9,-1 h -6 l 1,6 -6,-2 2,12 3,1 v -6 l 3,6 -1,5 -7,-1 -2,5 h -5 l -1,-5 -2,6 3,5 -2,14 13,8 4,9 7,-5 4,1 -2,-6 3,-3 5,-3 v -5 l -4,-4 1,-4 h 8 l 1,-6 3,-2 1,-11 h 7 l 1,-3 5,2 10,-2 z"
         id="24212"
         inkscape:connector-curvature="0" />
      <path
         d="m 270,96 4,5 9,3 -1,-9 12,-14 -6,-11 -1,-13 7,-6 -4,-5 -9,-9 -1,-4 h -3 l 1,-6 -5,-7 -4,-4 -4,2 -4,8 -8,-2 -1,2 h -7 l -8,9 -3,-5 -6,4 v 2 l -3,12 17,10 v 2 l -7,14 5,3 -3,5 1,1 v 11 l 15,-3 13,1 z"
         id="24214"
         inkscape:connector-curvature="0" />
      <path
         d="m 364,453 5,3 7,-5 -5,-5 3,-8 h 2 l -3,4 2,2 -1,3 6,-4 2,3 4,1 3,-3 -2,2 h 2 l 3,1 -2,2 h -6 l -1,3 h 4 l 4,-2 -1,4 6,1 -3,2 -7,-3 v 3 h -3 l 1,7 3,-1 2,-4 1,3 2,-2 4,4 h -4 l 6,4 v -5 h 3 l 9,-2 -1,-2 -5,-9 h 1 l 1,-7 -5,-9 7,-8 5,-5 h -8 l 1,2 -3,-1 -6,9 -2,-4 2,-1 -1,-5 -5,4 1,-5 -3,-1 -7,8 -5,-7 7,3 6,-5 4,3 5,-3 -2,-2 4,2 -2,-5 -1,-3 -4,-2 3,-3 -1,-3 -7,-1 -1,4 h -5 l -10,-10 h -6 l -11,5 -2,11 -3,1 4,9 -3,6 3,5 -3,7 -15,5 -2,4 5,2 4,-1 13,4 -3,-2 5,-3 -1,-3 v -2 l 2,3 4,-2 -3,3 3,1 -2,4 4,-1 z m 33,-32 v 1 l 2,2 2,-4 z m -21,26 h 6 l -3,-2 z m 4,16 -3,4 v -4 l -4,1 -4,-4 1,4 -4,-3 -7,-1 -6,4 h 2 l 4,5 8,1 23,5 2,-7 3,-1 -4,-2 -1,2 1,-3 -6,5 v -4 l -2,4 v -5 z"
         id="24215"
         inkscape:connector-curvature="0" />
      <path
         d="m 105,280 10,3 1,-6 2,-3 4,3 -4,4 1,3 7,-2 4,8 v 4 l 10,8 v 15 l 6,13 h 5 l 4,4 2,-10 11,-2 -3,-19 2,-8 8,-9 -3,-5 7,-13 9,-10 -4,-4 1,-4 15,-12 v -3 l -3,-5 -6,-1 -2,-8 -13,-2 -4,-4 4,-1 1,-6 4,-3 -4,-8 2,-5 -3,-2 -3,3 -7,5 -19,-6 -7,-4 v -4 l -12,3 -8,-3 -4,-5 -3,-1 -8,7 1,4 6,3 7,-1 1,5 -7,4 -1,5 -7,2 2,5 1,3 -3,4 -17,7 -7,1 -1,3 6,3 -2,10 10,8 5,11 -5,4 -1,2 8,2 z"
         id="24216"
         inkscape:connector-curvature="0" />
      <path
         d="m 339,85 5,22 5,8 4,-2 1,2 -3,3 9,5 -3,-6 -5,-20 z"
         id="24303"
         inkscape:connector-curvature="0" />
      <path
         d="m 296,111 4,-11 -3,-5 h 4 l 3,-5 -10,-9 -12,14 1,9 3,5 z"
         id="24324"
         inkscape:connector-curvature="0" />
      <path
         d="m 230,133 h 9 l 5,4 32,-4 -4,-6 1,-2 h 6 l 2,-7 -9,-2 2,-15 -4,-5 -4,-4 -13,-1 -15,3 -3,2 2,8 -6,3 -3,7 3,6 -2,5 z"
         id="24341"
         inkscape:connector-curvature="0" />
      <path
         d="m 312,113 1,7 5,2 6,-2 1,-5 3,3 -1,-3 -4,-4 -4,3 z"
         id="24343"
         inkscape:connector-curvature="0" />
      <path
         d="m 318,122 -1,3 2,3 4,-3 1,5 h 10 v -6 l -7,-9 1,3 -3,-3 -1,5 z"
         id="24344"
         inkscape:connector-curvature="0" />
      <path
         d="m 279,382 h 9 1 v -13 l 9,-9 -1,-3 -5,-2 v -6 l -23,9 -9,2 -4,-4 -5,5 6,2 -2,2 -12,1 -3,5 -7,-4 -11,6 2,2 6,1 1,10 -6,11 h 6 l 11,-1 6,-7 11,-1 -1,-3 4,-2 v -2 l 12,-3 h 3 z"
         id="24441"
         inkscape:connector-curvature="0" />
      <path
         d="m 314,351 1,-1 1,1 h 1 l 2,-1 v 1 -4 l -5,-4 5,-11 v -2 l -5,-10 -16,-6 4,4 -2,9 3,5 h -3 l -2,10 -6,7 v 6 l 5,2 h 3 l 2,-5 13,1 v -1 z"
         id="24442"
         inkscape:connector-curvature="0" />
      <path
         d="m 192,447 2,-5 h 11 l 7,-9 10,-5 6,-7 1,-7 -5,-4 8,-5 3,7 -2,3 7,5 1,-4 -2,-1 v -7 l 12,-11 7,-1 1,-6 6,2 4,-3 8,-1 2,-6 -2,-4 h -3 l -12,3 v 2 l -4,2 1,3 -11,1 -6,7 -11,1 h -6 l -9,5 -3,2 -36,-2 -9,10 6,8 -11,6 -18,4 -3,2 1,7 -11,2 -1,4 -10,-2 -13,7 1,6 8,8 -1,4 5,4 v 4 l -8,7 3,6 -9,9 v 2 l 6,3 -2,5 3,3 h 10 l 5,-9 15,-3 -1,-7 2,-5 h 5 l 4,-12 8,-1 v -3 l 11,-9 -2,-2 2,-4 17,-5 z"
         id="24443"
         inkscape:connector-curvature="0" />
      <path
         d="m 300,357 h -3 l 1,3 -9,9 v 13 l 5,3 -2,-4 7,2 3,-4 4,3 10,-2 7,-9 -6,-3 1,-3 -4,2 5,-9 -8,2 4,-5 -3,-3 3,2 2,-2 v -1 h -1 l -1,-1 -1,1 1,1 v 1 l -13,-1 z"
         id="24461"
         inkscape:connector-curvature="0" />
      <path
         d="m 313,406 -2,-13 -2,-2 8,-9 -1,-2 -10,2 -4,-3 -3,4 -7,-2 2,4 -5,-3 h -1 -9 l -2,6 -8,1 4,6 -3,10 -3,4 3,5 -5,3 2,7 -3,9 13,9 10,-2 5,3 1,-4 7,-3 2,-15 9,-5 -3,-7 z"
         id="24470"
         inkscape:connector-curvature="0" />
      <path
         d="m 219,491 1,4 3,-2 6,-3 5,-3 -3,-2 -2,-14 4,-7 -4,-7 3,1 10,-3 2,-15 6,-2 9,1 5,-6 3,-9 -2,-7 5,-3 -3,-5 3,-4 3,-10 -4,-6 -4,3 -6,-2 -1,6 -7,1 -12,11 v 7 l 2,1 -1,4 -7,-5 2,-3 -3,-7 -8,5 5,4 -1,7 -6,7 -10,5 -7,9 h -11 l -2,5 -2,4 -17,5 -2,4 2,2 2,2 8,2 v 4 l 6,7 h 8 l 9,1 6,8 -1,8 1,3 5,-7 5,-3 1,3 -2,-2 z m -6,7 z"
         id="24471"
         inkscape:connector-curvature="0" />
      <path
         d="m 303,464 8,-2 1,-5 h 1 l 6,-2 h 1 l -4,-1 5,-4 4,-6 -4,-1 1,2 -3,1 -2,-2 -6,3 5,-6 3,1 1,-4 4,2 -1,-2 1,-4 -6,-2 6,-1 2,2 5,-3 -4,3 3,1 -3,5 2,-1 4,-3 -2,-6 6,-1 v 3 l 1,3 v -4 l 4,3 2,-2 -1,3 3,2 h -6 v 4 l -1,-4 -3,1 1,2 1,4 -3,-4 -3,5 3,1 -5,3 1,6 -3,-1 2,5 4,-3 5,-1 1,-4 -5,-2 2,-4 15,-5 3,-7 -3,-5 3,-6 -4,-9 -10,-3 -9,1 -2,-3 -6,2 -11,-3 -5,3 3,7 -9,5 -2,15 -7,3 -1,4 -5,-3 -10,2 -13,-9 -5,6 -9,-1 -6,2 -2,15 -10,3 -3,-1 4,7 -4,7 2,14 3,2 h 3 l 6,-1 v -6 l -1,-5 -3,1 5,-2 3,-4 3,4 -5,4 1,4 h 4 l 3,2 v 3 l 5,-3 5,-2 -1,-2 -6,1 -1,-3 v -3 l 6,2 -1,-5 h -4 l 4,-3 -1,2 6,5 -5,-15 3,-1 5,6 v -3 h 3 l -2,4 5,-7 1,4 -2,7 5,1 2,-10 -2,-3 4,3 -1,-4 3,-1 h 1 l 6,-3 5,1 -1,4 -2,-2 -4,3 1,-3 -3,3 -1,2 3,-1 4,2 v 3 l -3,-4 -1,3 3,5 h 4 z m -24,13 1,-3 -3,2 z"
         id="24472"
         inkscape:connector-curvature="0" />
      <path
         d="m 179,528 -3,-4 3,-5 -2,-3 v -3 l 3,3 3,-4 3,-7 h 5 l 2,-3 3,3 2,-5 1,-3 -6,1 2,-2 3,1 6,-6 3,2 -4,1 1,2 -1,3 3,-2 2,4 4,-4 -1,-3 1,-8 -6,-8 -9,-1 h -8 l -6,-7 v -4 l -8,-2 -2,-2 -11,9 v 3 l -8,1 -4,12 h -5 l -2,5 1,7 -15,3 -5,9 h -10 l 1,3 -5,9 2,6 -3,4 2,2 16,-2 6,4 3,9 20,-1 5,2 -4,-6 14,-11 2,-2 2,4 -10,8 1,3 1,4 1,-6 7,-5 8,3 2,3 5,-8 -6,-1 -2,3 -4,-4 4,-3 -2,-2 z m 35,-29 -1,-1 z m 1,2 z m 0,0 z m 0,1 z m 0,0 z m 0,0 z m 0,0 z m 0,1 z m 0,1 v -1 h -1 z m 0,0 z m -31,9 v 3 l 3,-2 z"
         id="24543"
         inkscape:connector-curvature="0" />
      <path
         d="m 70,675 3,13 10,2 9,-23 4,-8 1,-6 -10,-7 -3,-11 -10,2 -5,-2 -1,3 h -7 l -1,11 -3,2 -1,6 h -8 l -1,4 4,4 7,4 7,-2 z"
         id="24561"
         inkscape:connector-curvature="0" />
      <path
         d="m 83,690 -10,-2 -3,-13 -5,-8 -7,2 -7,-4 v 5 l -5,3 -3,3 2,6 -4,-1 -7,5 2,6 h 4 l 4,6 4,-1 v 6 l 1,4 8,5 h 5 l -2,-4 3,-2 12,6 z"
         id="24562"
         inkscape:connector-curvature="0" />
    </defs>
    <rect
       x="-10"
       y="-10"
       width="480"
       height="750"
       id="rect45"
       style="fill:#ffffff" />
    <rect
       x="0"
       y="0"
       width="460"
       height="730"
       id="rect47"
       style="fill:#eeeeee" />
    <g
       id="g49"
       style="stroke:#000000;stroke-width:0.2;stroke-linejoin:round">
      <a id="a51">
        <use
           xlink:href="#21000"
           id="use53"
           style="fill:#aaaaaa"
           x="0"
           y="0"
           width="460"
           height="802" />
      </a>
      <a id="a55">
        <use
           xlink:href="#23000"
           id="use57"
           style="fill:#aaaaaa"
           x="0"
           y="0"
           width="460"
           height="802" />
      </a>
      <a id="a59">
        <use
           xlink:href="#25000"
           id="use61"
           style="fill:#aaaaaa"
           x="0"
           y="0"
           width="460"
           height="802" />
      </a>
      <a id="a63">
        <use
           xlink:href="#26000"
           id="use65"
           style="fill:#aaaaaa"
           x="0"
           y="0"
           width="460"
           height="802" />
      </a>
      <a id="a67">
        <use
           xlink:href="#29000"
           id="use69"
           style="fill:#aaaaaa"
           x="0"
           y="0"
           width="460"
           height="802" />
      </a>
      <a id="a71">
        <use
           xlink:href="#30000"
           id="use73"
           style="fill:#aaaaaa"
           x="0"
           y="0"
           width="460"
           height="802" />
      </a>
      <a id="a75">
        <use
           xlink:href="#24201"
           id="use77"
           style="fill:#f6bad3"
           x="0"
           y="0"
           width="460"
           height="802" />
      </a>
      <a id="a79">
        <use
           xlink:href="#24202"
           id="use81"
           style="fill:#f6bad3"
           x="0"
           y="0"
           width="460"
           height="802" />
      </a>
      <a id="a83">
        <use
           xlink:href="#24203"
           id="use85"
           style="fill:#f6bad3"
           x="0"
           y="0"
           width="460"
           height="802" />
      </a>
      <a id="a87">
        <use
           xlink:href="#24204"
           id="use89"
           style="fill:#f6bad3"
           x="0"
           y="0"
           width="460"
           height="802" />
      </a>
      <a id="a91">
        <use
           xlink:href="#24205"
           id="use93"
           style="fill:#f6bad3"
           x="0"
           y="0"
           width="460"
           height="802" />
      </a>
      <a id="a95">
        <use
           xlink:href="#24207"
           id="use97"
           style="fill:#f6bad3"
           x="0"
           y="0"
           width="460"
           height="802" />
      </a>
      <a id="a99">
        <use
           xlink:href="#24208"
           id="use101"
           style="fill:#f6bad3"
           x="0"
           y="0"
           width="460"
           height="802" />
      </a>
      <a id="a103">
        <use
           xlink:href="#24209"
           id="use105"
           style="fill:#f6bad3"
           x="0"
           y="0"
           width="460"
           height="802" />
      </a>
      <a id="a107">
        <use
           xlink:href="#24210"
           id="use109"
           style="fill:#f6bad3"
           x="0"
           y="0"
           width="460"
           height="802" />
      </a>
      <a id="a111">
        <use
           xlink:href="#24211"
           id="use113"
           style="fill:#f6bad3"
           x="0"
           y="0"
           width="460"
           height="802" />
      </a>
      <a id="a115">
        <use
           xlink:href="#24212"
           id="use117"
           style="fill:#f6bad3"
           x="0"
           y="0"
           width="460"
           height="802" />
      </a>
      <a id="a119">
        <use
           xlink:href="#24214"
           id="use121"
           style="fill:#f6bad3"
           x="0"
           y="0"
           width="460"
           height="802" />
      </a>
      <a id="a123">
        <use
           xlink:href="#24215"
           id="use125"
           style="fill:#f6bad3"
           x="0"
           y="0"
           width="460"
           height="802" />
      </a>
      <a id="a127">
        <use
           xlink:href="#24216"
           id="use129"
           style="fill:#f6bad3"
           x="0"
           y="0"
           width="460"
           height="802" />
      </a>
      <a id="a131">
        <use
           xlink:href="#24303"
           id="use133"
           style="fill:#f6bad3"
           x="0"
           y="0"
           width="460"
           height="802" />
      </a>
      <a id="a135">
        <use
           xlink:href="#24324"
           id="use137"
           style="fill:#f6bad3"
           x="0"
           y="0"
           width="460"
           height="802" />
      </a>
      <a id="a139">
        <use
           xlink:href="#24341"
           id="use141"
           style="fill:#f6bad3"
           x="0"
           y="0"
           width="460"
           height="802" />
      </a>
      <a id="a143">
        <use
           xlink:href="#24343"
           id="use145"
           style="fill:#f6bad3"
           x="0"
           y="0"
           width="460"
           height="802" />
      </a>
      <a id="a147">
        <use
           xlink:href="#24344"
           id="use149"
           style="fill:#f6bad3"
           x="0"
           y="0"
           width="460"
           height="802" />
      </a>
      <a id="a151">
        <use
           xlink:href="#24441"
           id="use153"
           style="fill:#f6bad3"
           x="0"
           y="0"
           width="460"
           height="802" />
      </a>
      <a id="a155">
        <use
           xlink:href="#24442"
           id="use157"
           style="fill:#f6bad3"
           x="0"
           y="0"
           width="460"
           height="802" />
      </a>
      <a id="a159">
        <use
           xlink:href="#24443"
           id="use161"
           style="fill:#f6bad3"
           x="0"
           y="0"
           width="460"
           height="802" />
      </a>
      <a id="a163">
        <use
           xlink:href="#24461"
           id="use165"
           style="fill:#f6bad3"
           x="0"
           y="0"
           width="460"
           height="802" />
      </a>
      <a id="a167">
        <use
           xlink:href="#24470"
           id="use169"
           style="fill:#f6bad3"
           x="0"
           y="0"
           width="460"
           height="802" />
      </a>
      <a id="a171">
        <use
           xlink:href="#24471"
           id="use173"
           style="fill:#f6bad3"
           x="0"
           y="0"
           width="460"
           height="802" />
      </a>
      <a id="a175">
        <use
           xlink:href="#24472"
           id="use177"
           style="fill:#f6bad3"
           x="0"
           y="0"
           width="460"
           height="802" />
      </a>
      <a id="a179">
        <use
           xlink:href="#24543"
           id="use181"
           style="fill:#f6bad3"
           x="0"
           y="0"
           width="460"
           height="802" />
      </a>
      <a id="a183">
        <use
           xlink:href="#24561"
           id="use185"
           style="fill:#f6bad3"
           x="0"
           y="0"
           width="460"
           height="802" />
      </a>
      <a id="a187">
        <use
           xlink:href="#24562"
           id="use189"
           style="fill:#f6bad3"
           x="0"
           y="0"
           width="460"
           height="802" />
      </a>
    </g>
    <path
       d="m 250,25 v -2 l 3,1 z m -109,388 10,2 -7,2 -6,5 5,-5 v -3 l -5,-1 z m -26,-93 v -5 l 4,-2 3,4 -4,-4 z m 18,-13 5,3 -7,-1 z m -61,282 -2,-3 4,-3 -4,-2 4,1 -1,4 h -3 l 4,9 5,2 -2,-1 1,5 -5,4 3,-5 z m 139,-370 5,1 -3,2 z m -70,233 1,4 h 3 l -1,6 -3,1 4,10 -7,10 6,-13 h -4 l 1,-6 -6,-1 h 5 l 4,-6 -10,-4 6,1 z M 168,-4 v 2 l 1,2 -18,16 -22,15 -13,3 -5,8 -6,-1 3,4 -7,1 -4,5 -2,8 3,4 -3,5 -12,-2 -7,5 -7,-4 -6,11 -10,-2 -3,14 4,8 -3,2 1,-1 -4,-1 3,6 -3,-1 -10,13 5,4 1,8 -5,5 -1,9 -5,-12 -11,-5 13,-32 4,-2 -1,-5 h 4 L 48,76 45,70 50,62 46,58 44,47 47,40 60,29 V 24 L 65,16 81,6 80,0 83,-3 h 8 V -4 z M 98,37 h -4 l -1,6 8,-4 z m -58,92 2,2 v -4 z m 78,-66 -7,-2 v -3 l 8,-1 -6,2 6,-1 3,7 z m -35,219 2,5 -2,-4 -3,2 z m -18,64 2,-8 4,1 4,-5 2,3 -2,-2 z m -32,55 4,-1 -5,2 1,3 3,-2 -3,3 4,3 5,-4 -1,3 -8,-1 -3,-5 z m 34,141 3,-3 -7,8 2,2 -3,2 2,4 -4,3 1,4 6,1 -1,-4 7,-2 v 4 l 6,-1 -3,3 -8,-3 -1,5 -6,2 -1,-1 5,-3 -2,2 -4,-3 2,-2 -2,-3 4,-1 -1,-9 z m 32,-13 3,-5 1,3 -4,5 4,4 -5,-1 3,3 -5,1 v 5 l 5,2 v 5 l 3,3 -9,-10 -4,2 -2,-7 3,5 4,-1 z m -21,-65 2,4 6,1 -5,1 -2,-4 -5,1 4,-2 -1,-3 z"
       id="path191"
       inkscape:connector-curvature="0"
       style="fill:#eeeeee;stroke:#000000;stroke-width:0.2;stroke-linejoin:round" />
  </g>
  <g
     id="g3191"
     transform="translate(1,57)">
    <rect
       y="583"
       x="227"
       height="70"
       width="221"
       id="rect3185"
       style="fill:#ffffff;fill-opacity:1;stroke:#000000;stroke-width:0;stroke-linejoin:miter;stroke-miterlimit:4;stroke-opacity:1;stroke-dasharray:none;stroke-dashoffset:15" />
    <g
       transform="translate(-12,-87)"
       id="g3187">
      <rect
         style="fill:#000000"
         id="rect197"
         height="16"
         width="204"
         y="716"
         x="248" />
      <text
         style="font-size:40px;text-anchor:middle;fill:#000000;font-family:Helvetica"
         id="text199"
         font-size="40"
         y="706"
         x="350">50km</text>
    </g>
  </g>
</svg>
