<?xml version="1.0" encoding="UTF-8" standalone="no"?>
<svg
   xmlns:dc="http://purl.org/dc/elements/1.1/"
   xmlns:cc="http://creativecommons.org/ns#"
   xmlns:rdf="http://www.w3.org/1999/02/22-rdf-syntax-ns#"
   xmlns:svg="http://www.w3.org/2000/svg"
   xmlns="http://www.w3.org/2000/svg"
   xmlns:sodipodi="http://sodipodi.sourceforge.net/DTD/sodipodi-0.dtd"
   xmlns:inkscape="http://www.inkscape.org/namespaces/inkscape"
   inkscape:version="1.0 (4035a4fb49, 2020-05-01)"
   sodipodi:docname="Tottori.svg"
   id="svg30"
   version="1.1"
   height="334"
   width="643">
  <metadata
     id="metadata36">
    <rdf:RDF>
      <cc:Work
         rdf:about="">
        <dc:format>image/svg+xml</dc:format>
        <dc:type
           rdf:resource="http://purl.org/dc/dcmitype/StillImage" />
      </cc:Work>
    </rdf:RDF>
  </metadata>
  <defs
     id="defs34" />
  <sodipodi:namedview
     inkscape:current-layer="svg30"
     inkscape:window-maximized="1"
     inkscape:window-y="-8"
     inkscape:window-x="-8"
     inkscape:cy="116.18853"
     inkscape:cx="295.46013"
     inkscape:zoom="1.3438328"
     showgrid="false"
     id="namedview32"
     inkscape:window-height="1017"
     inkscape:window-width="1920"
     inkscape:pageshadow="2"
     inkscape:pageopacity="0"
     guidetolerance="10"
     gridtolerance="10"
     objecttolerance="10"
     borderopacity="1"
     bordercolor="#666666"
     pagecolor="#ffffff" />
  <title
     id="title2">衆議院小選挙区 鳥取県</title>
  <desc
     id="desc4">Author: Lincun</desc>
  <rect
     id="rect6"
     height="334"
     width="643"
     y="0"
     x="0"
     fill="#eeeeee" />
  <path
     fill="#aaaaaa"
     d="m 609,-1 -1,3 -1,-1 -1,2 -1,-1 h -4 l -4,6 -4,-1 1,2 -2,-1 V 5 h -1 l -3,3 1,1 -1,2 h 2 l -1,2 h -3 l 1,-2 -2,2 -2,-2 -2,3 -2,-1 -3,3 -4,-3 -4,2 1,2 -3,1 -1,-1 -2,1 v -2 h -2 l 1,3 9,4 v 2 l 7,5 -1,10 2,4 h 5 l 1,6 -1,4 2,1 -6,15 7,3 1,4 -1,3 4,11 -1,3 2,15 3,1 3,2 h 4 l 7,4 1,2 -2,1 1,5 2,3 -4,16 1,3 4,1 2,2 6,2 1,3 4,3 -3,8 -2,7 1,4 5,6 -2,8 2,8 -11,9 -1,-1 -4,8 -7,3 v 4 l -6,-1 -6,5 -3,-2 -2,-3 -9,-2 -3,8 -5,2 -2,3 1,13 13,4 v 5 l -3,6 3,4 -1,6 -7,-3 h -5 l -1,2 -2,-1 -4,2 -3,8 -2,5 2,2 -3,4 1,7 -2,5 -5,1 -1,-1 -2,2 -6,2 1,8 -2,2 -1,4 1,8 -4,-2 -1,3 -3,-1 -3,3 h -4 l -3,6 H 644 V -1 Z m -610,304 2,1 4,-2 3,1 3,2 1,2 4,1 2,-1 -1,-1 2,-1 -3,-5 2,-5 2,-3 -2,-7 3,-3 -1,-4 1,-5 5,-5 h 3 l 2,-2 6,-2 4,-3 1,-4 -2,-8 -3,-2 1,-4 -2,-4 -5,-4 -7,3 -1,-6 2,-3 3,-1 9,-6 10,-4 h 3 l 5,-4 4,1 5,-2 4,-5 2,-1 8,2 3,-2 4,1 2,-2 3,1 4,-3 -2,-7 -3,-6 3,-6 -6,-9 2,-3 -1,-1 v -11 l 6,-10 h 3 l 1,-4 3,-1 -5,-6 1,-3 3,-2 -1,-9 h -6 l -3,-2 -2,1 -2,-2 6,-5 -2,-3 -3,2 -6,-2 -1,3 1,-4 -2,-1 -1,3 -2,-3 -3,1 v 2 l -7,-8 -2,1 -1,-3 -4,-1 -3,-2 h -1 l -1,5 -3,-2 -4,3 -1,4 -4,2 h -4 l -8,-8 h -2 l -1,7 -6,1 6,-1 v -2 -6 l -4,-1 h -2 l -5,5 3,-7 -4,1 -2,-5 2,-3 4,-2 3,-4 -6,-5 1,-3 h 2 l -3,-9 4,-6 2,1 2,-3 2,-6 3,-1 3,1 h -2 v 3 l 1,-2 4,-2 -1,2 h 3 l 1,3 -1,-4 h -1 l 2,-1 2,5 3,1 2,-2 -1,-2 11,-8 8,-2 3,2 h 1 l 3,-3 18,-3 3,1 3,-1 v -1 l 2,1 4,-2 2,-3 h -4 l -4,-4 -1,3 -2,-2 -1,2 -2,-4 h -1 l -1,2 -3,-2 -2,1 1,3 -1,-2 -1,1 v -2 l -2,-1 -3,3 v -1 h -2 l -2,2 h -2 l 1,-1 -1,-2 -2,3 h -4 v -1 l -2,1 -4,-1 5,-4 -3,1 -1,-2 -2,2 -2,-2 v 3 h -1 l 1,3 -2,2 -5,-2 -2,2 v -5 h -1 l -1,-2 -2,2 2,7 h -3 l -2,-3 h -2 v 2 l -4,1 -1,-5 h -1 l -3,4 2,1 -2,1 v -1 l -2,2 -1,-2 -3,1 -1,-4 -4,-4 2,-2 h 3 l -1,-1 -5,1 -1,2 -2,-2 -4,-5 1,-3 H 7 V 25 L 5,26 4,24 1,25 0,21 -1,22 v 7 h 2 l -1,1 h -1 v 2 l 2,2 -1,1 H -1 Z M 70,37 69,36 v 2 z m -9,-2 4,1 v -2 h -2 z m -49,-8 -2,2 3,2 -1,-3 2,-2 z m 26,49 -9,-2 -2,6 2,4 1,-1 3,3 7,-1 1,-9 z m 6,-9 -3,2 v 5 l 5,-2 z m 477,268 3,-6 h 4 l 3,-3 3,1 1,-3 4,2 -1,-8 1,-4 2,-2 -1,-8 6,-2 2,-2 1,1 5,-1 2,-5 -1,-7 3,-4 -2,-2 2,-5 3,-8 4,-2 2,1 1,-2 h 5 l 7,3 1,-6 -3,-4 3,-6 v -5 l -13,-4 -1,-13 2,-3 5,-2 3,-8 -1,-2 -4,-4 -5,2 -4,2 1,4 -2,4 -15,6 v 4 l -6,6 h -10 l -8,3 -5,-2 -1,-5 -3,-1 -3,2 -2,4 -10,2 v 2 l -5,2 h -10 l -1,7 -6,4 -4,-2 v -4 l -3,-5 -3,-3 -1,-3 5,-10 v -5 l -3,-4 -6,2 -3,-4 4,-2 -1,-4 3,-4 -6,-6 2,-3 -1,-3 -2,-2 -3,2 -5,-2 -8,-12 -5,-1 -1,3 h -4 l -3,3 -3,-4 -5,3 -4,-3 -5,-1 -1,-1 h -7 l -6,-4 2,-6 5,-4 -2,-4 2,-3 v -2 l -8,-1 -8,5 -4,-3 -6,3 -5,6 -5,-2 -2,6 1,4 -3,5 h -7 l -5,2 -5,5 -10,1 -1,3 2,1 -1,5 1,2 -5,4 -5,6 1,3 h -8 l -4,-2 v -4 l -5,-6 1,-3 -3,-5 -1,-4 h -4 v -2 l -3,1 -10,-9 -2,2 -5,-6 -1,1 -3,-1 -1,2 -2,-1 -14,-5 -3,1 v 2 l -6,1 -2,-2 -3,-1 -4,-3 -3,-3 -5,-2 -8,1 -2,-2 h -5 l -4,-2 -3,4 1,4 -7,8 1,10 -3,5 v 3 l -1,3 1,2 -2,3 v 6 l -2,1 -1,4 -2,3 -5,-1 -4,3 -8,-2 -1,3 -3,1 -1,3 4,4 3,7 v 6 l 3,5 -1,2 h -3 l -2,-4 -6,-1 -3,3 -4,1 -8,6 -3,-2 -2,3 -4,1 -8,-4 -3,1 -3,-5 h -4 l -5,4 1,3 -2,2 2,2 3,12 3,2 v 3 7 l -4,3 h -11 l -5,3 -5,5 -4,-3 -4,-1 -5,8 -6,-3 -1,1 -5,-4 -2,1 -3,4 1,13 -3,3 -3,-1 -3,5 v 4 l 9,7 3,6 z m -434,0 -3,-6 -9,-7 v -4 l -4,-3 -5,-9 -8,1 1,4 -2,1 -8,-3 -14,3 -3,-1 -2,1 -3,-3 -9,5 -2,-3 v -3 l -4,-1 -1,-2 -3,-2 -3,-1 -4,2 -2,-1 v 32 z"
     id="path8"
     style="stroke:#000000;stroke-width:0.2;stroke-linejoin:round" />
  <path
     fill="#16a34a"
     d="m 500,53 -14,4 -5,-1 -4,3 -11,3 -23,2 -9,1 -1,2 -5,1 -15,1 -7,-1 -2,-5 -3,-5 -2,4 v 1 l -3,3 -2,-1 -2,2 -2,-2 -1,2 h -6 l 2,2 v 3 l -3,5 -3,2 -1,10 -4,11 1,3 3,2 -3,6 2,3 v 4 h 5 l 4,3 4,-2 3,3 4,-1 -1,4 3,4 -3,2 -1,6 22,8 v 2 l -4,4 -4,-1 v 2 l -2,1 v 4 l -2,3 v 2 l -2,3 2,4 -5,4 -2,6 6,4 h 7 l 1,1 5,1 4,3 5,-3 3,4 3,-3 h 4 l 1,-3 5,1 8,12 5,2 3,-2 2,2 v -1 h 4 v 2 l 4,3 17,-4 2,-4 3,-1 6,-7 1,2 h 10 l 2,1 3,-3 6,-4 -1,-2 -5,-1 -1,-7 h -4 l -3,-9 1,-5 -3,-4 -2,-4 3,-10 -4,-3 -4,-3 -2,-8 7,-2 3,-3 2,-3 9,-2 1,-5 4,-2 v -3 h 2 l 2,4 6,-2 3,3 h 4 l 6,5 h 7 l 3,3 7,-1 6,-3 1,-4 2,2 7,-3 7,4 10,-2 1,-1 -1,-2 -2,-15 -4,-9 -5,-1 -3,1 h -2 l -4,-7 -3,1 -5,-1 -2,4 -5,5 -3,1 -1,2 h -7 l -3,-4 -4,-1 3,-12 -1,-2 2,-8 v -3 l -9,-3 -1,-4 -4,-2 -1,-6 -4,-3 h -2 l -1,-3 -3,7 z m -369,51 h -1 l -1,4 -2,4 v 3 l -2,1 -2,-2 v 1 l -4,-1 3,-12 -17,-4 -12,-4 -13,-9 -7,-7 -5,-8 4,-2 -2,-5 h -4 l -1,-4 5,-2 4,-7 -6,3 -2,-1 h -1 l -9,1 -9,7 v 6 h -1 l 5,6 -2,1 1,1 v -1 l 3,1 9,12 2,1 -1,1 3,5 v -2 l 1,1 v 2 h 2 l 9,10 9,7 5,1 -1,1 5,2 h 3 l -1,3 2,3 -2,5 1,9 -3,2 -1,3 5,6 h 2 l 6,-7 2,2 2,-2 v 2 l 2,-1 v 2 l 8,2 3,-1 1,-4 2,3 -1,-2 2,-6 4,2 -1,-3 2,-3 2,6 6,3 5,-2 4,1 3,-1 v -3 l -2,-9 4,-1 h 7 l 1,-4 5,-3 v -4 l -4,-2 -3,-4 h -3 l -1,-8 h -6 v 1 h -3 v -4 l -3,-1 -2,6 -7,3 z m -85,-43 -1,1 1,3 z m 247,120 1,-3 4,-2 1,-3 h 3 l 2,-4 5,-2 5,-5 5,-1 1,-2 3,-2 2,-6 -1,-3 v -3 l 6,-14 3,-2 3,-1 4,-7 3,2 6,-3 -3,-5 -5,-1 -1,-3 -3,-1 1,-9 1,-2 v -5 l -2,-2 -2,-3 -1,3 -3,-1 h -4 l -5,-2 -1,10 h -2 l -1,3 -4,-2 h -2 v -2 l -3,-3 -5,3 -1,1 -4,-5 -1,2 -3,1 -2,-2 -6,5 1,4 -8,7 -20,10 -7,1 -10,8 -4,10 -6,4 -6,2 -5,3 -11,2 v 4 l 4,4 h 4 l 1,4 4,2 h 5 l 2,2 8,-1 5,2 3,3 4,3 3,1 2,2 6,-1 v -2 l 3,-1 14,5 2,1 1,-2 3,1 1,-1 5,6 z"
     id="path10"
     style="stroke:#000000;stroke-width:0.2;stroke-linejoin:round" />
  <path
     fill="#16a34a"
     d="m 521,39 1,3 h 2 l 4,3 1,6 4,2 1,4 9,3 v 3 l -2,8 1,2 -3,12 4,1 3,4 h 7 l 1,-2 3,-1 5,-5 2,-4 5,1 3,-1 4,7 h 2 l 3,-1 5,1 4,9 1,-3 -4,-11 1,-3 -1,-4 -7,-3 6,-15 -2,-1 1,-4 -1,-6 h -5 l -2,-4 1,-10 -7,-5 v -2 l -9,-4 -1,-3 v 5 l -1,2 -9,1 -1,-2 v -3 l -2,1 v 3 l -1,1 1,1 -2,3 -4,1 -6,-2 -1,2 -4,-1 v 2 l -5,1 1,2 -1,5 z m -186,37 -29,3 -32,-2 -6,-2 h -17 l -14,-7 -12,-1 -9,-5 h -8 l -6,4 -5,1 -3,-1 -3,2 h -5 l -4,2 h -5 l -3,4 -9,5 -6,1 -4,1 -3,5 -4,3 1,1 -3,5 3,1 v 4 h 3 v -1 h 6 l 1,8 h 3 l 3,4 4,2 v 4 l -5,3 -1,4 h -7 l -4,1 2,9 v 3 l -3,1 -4,-1 -5,2 -6,-3 -2,-6 -2,3 1,3 -4,-2 -2,6 1,2 -2,-3 -1,4 -3,1 -8,-2 v -2 l -2,1 v -2 l -2,2 -2,-2 -6,7 h -2 l -3,1 -1,4 h -3 l -6,10 v 11 l 1,1 -2,3 6,9 -3,6 3,6 2,7 -4,3 -3,-1 -2,2 -4,-1 -3,2 -8,-2 -2,1 -4,5 -5,2 -4,-1 -5,4 h -3 l -10,4 -9,6 -3,1 -2,3 1,6 7,-3 5,4 2,4 -1,4 3,2 2,8 -1,4 -4,3 -6,2 -2,2 h -3 l -5,5 -1,5 1,4 -3,3 2,7 -2,3 -2,5 3,5 -2,1 1,1 -2,1 v 3 l 2,3 9,-5 3,3 2,-1 3,1 14,-3 8,3 2,-1 -1,-4 8,-1 5,9 4,3 3,-5 3,1 3,-3 -1,-13 3,-4 2,-1 5,4 1,-1 6,3 5,-8 4,1 4,3 5,-5 5,-3 h 11 l 4,-3 v -7 -3 l -3,-2 -3,-12 -2,-2 2,-2 -1,-3 5,-4 h 4 l 3,5 3,-1 8,4 4,-1 2,-3 3,2 8,-6 4,-1 3,-3 6,1 2,4 h 3 l 1,-2 -3,-5 v -6 l -3,-7 -4,-4 1,-3 3,-1 1,-3 8,2 4,-3 5,1 2,-3 1,-4 2,-1 v -6 l 2,-3 -1,-2 1,-3 v -3 l 3,-5 -1,-10 7,-8 -1,-4 3,-4 -1,-4 h -4 l -4,-4 v -4 l 11,-2 5,-3 6,-2 6,-4 4,-10 10,-8 7,-1 20,-10 8,-7 -1,-4 6,-5 2,2 3,-1 1,-2 4,5 1,-1 5,-3 3,3 v 2 h 2 l 4,2 1,-3 h 2 l 1,-10 5,2 h 4 l 3,1 1,-3 2,3 2,2 v 5 l -1,2 -1,9 3,1 1,3 5,1 3,5 -6,3 -3,-2 -4,7 -3,1 -3,2 -6,14 v 3 l 1,3 -2,6 -3,2 -1,2 -5,1 -5,5 -5,2 -2,4 h -3 l -1,3 -4,2 -1,3 10,9 3,-1 v 2 h 4 l 1,4 3,5 -1,3 5,6 v 4 l 4,2 h 8 l -1,-3 5,-6 5,-4 -1,-2 1,-5 -2,-1 1,-3 10,-1 5,-5 5,-2 h 7 l 3,-5 -1,-4 2,-6 5,2 5,-6 6,-3 4,3 8,-5 8,1 2,-3 v -4 l 2,-1 v -2 l 4,1 4,-4 v -2 l -22,-8 1,-6 3,-2 -3,-4 1,-4 -4,1 -3,-3 -4,2 -4,-3 h -5 v -4 l -2,-3 3,-6 -3,-2 -1,-3 4,-11 1,-10 3,-2 3,-5 v -3 l -2,-2 -2,-2 -1,4 h -8 l -2,3 -4,1 h -10 l -3,2 -5,-1 z m 164,61 4,3 -3,10 2,4 3,4 -1,5 3,9 h 4 l 1,7 5,1 1,2 -6,4 -3,3 -2,-1 h -10 l -1,-2 -6,7 -3,1 -2,4 -17,4 -4,-3 v -2 h -4 v 1 l 1,3 -2,3 6,6 -3,4 1,4 -4,2 3,4 6,-2 3,4 v 5 l -5,10 1,3 3,3 3,5 v 4 l 4,2 6,-4 1,-7 h 10 l 5,-2 v -2 l 10,-2 2,-4 3,-2 3,1 1,5 5,2 8,-3 h 10 l 6,-6 v -4 l 15,-6 2,-4 -1,-4 4,-2 5,-2 4,4 1,2 9,2 2,3 3,2 6,-5 6,1 v -4 l 7,-3 4,-8 1,1 11,-9 -2,-8 2,-8 -5,-6 -1,-4 2,-7 3,-8 -4,-3 -1,-3 -6,-2 -2,-2 -4,-1 -1,-3 4,-16 -2,-3 -1,-5 2,-1 -1,-2 -7,-4 h -4 l -3,-2 -3,-1 1,2 -1,1 -10,2 -7,-4 -7,3 -2,-2 -1,4 -6,3 -7,1 -3,-3 h -7 l -6,-5 h -4 l -3,-3 -6,2 -2,-4 h -2 v 3 l -4,2 -1,5 -9,2 -2,3 -3,3 -7,2 2,8 z"
     id="path12"
     style="stroke:#000000;stroke-width:0.2;stroke-linejoin:round" />
  <path
     fill="#16a34a"
     d="m 130,104 -8,-2 -3,12 4,1 v -1 l 2,2 2,-1 v -3 l 2,-4 z"
     id="path14"
     style="stroke:#000000;stroke-width:0.2;stroke-linejoin:round" />
  <path
     fill="none"
     stroke-linecap="round"
     d="m 73,78 -7,3 -4,5 m 505,128 3,-5 v -11 l -3,-4 1,-3 -3,-2 h -3 l -7,-6 3,-14 -1,-3 7,-2 v -10 l 1,-1 4,5 2,-1 -2,-5 2,-5 -1,-2 4,-2 4,-4 9,-2 3,-3 5,-12 1,-7 -3,-4 m -75,71 2,3 4,1 2,-1 1,-3 13,-3 8,4 h 7 m -206,-63 5,1 4,-3 6,1 9,-3 4,2 m -283,86 7,3 2,3 1,4 -2,3 3,5 3,1 2,-3 2,1 2,-2 v -3 l 2,-1 -4,-5 3,-2 11,-6 1,-2 -2,-8 2,-2 -3,-7 2,-4 v -4 h 4 l 2,-2 1,2 4,1 2,-2 -2,-4 4,-2 5,-6 -1,-2 -2,-2 -4,1 -1,-3 -2,1 -2,-6 -3,-1 -1,-3 -5,1 -3,-1 v -3 m -10,77 1,9 -2,3 h -7 l -3,4 h -4 l -3,2 h -2 v -4 l -2,-1 -4,5 1,6 4,1 2,3 9,5 2,5 4,2 6,-2 4,4 2,-1 2,-8 5,1 4,-2 m -16,-45 1,4 4,1 v 2 l 2,1 2,6 5,-1 4,-2 v -2 l 6,-6 5,-1 2,-4 7,-3 2,-5 -2,-6 v -3 l 3,-3 h 3 l 3,-4 5,-2 4,-5 10,-3 v -2 l 3,-2 h -3 l 3,-5 2,-1 v -3 l 4,-4 -3,-6 v -4 l 2,-3 -2,-1 1,-1 -4,-6 -10,-1 -6,1 h -14 m -1,69 5,9 2,-2 3,5 1,2 -2,1 2,7 8,-1 3,-4 6,3 m 9,-68 6,5 2,-1 1,3 5,-9 v -10 l 8,1 -1,-1 3,-3 1,-12 -4,-11 4,1 2,-7 4,-5 V 93 l 2,-17 -2,-3 4,-3 v -3 m -21,86 3,1 2,3 2,-2 m 63,-78 2,4 -2,10 3,6 v 2 l -24,23"
     id="path16"
     style="stroke:#000000;stroke-width:0.2;stroke-linejoin:round" />
  <path
     fill="none"
     stroke-width="1.6"
     stroke-linecap="round"
     d="m 335,76 -1,8 -3,7 h -4 l -5,-2 -1,10 h -2 l -1,3 -4,-2 h -2 v -2 l -3,-3 -5,3 -1,1 -4,-5 -1,2 -3,1 -2,-2 -6,5 1,4 -8,7 -20,10 -7,1 -10,8 -4,10 -6,4 -6,2 -5,3 -11,2 v 4 l 4,4 h 4 l 1,4"
     id="path18"
     style="stroke:#000000;stroke-linejoin:round;stroke-width:0.2;stroke-miterlimit:4;stroke-dasharray:none" />
  <g
     id="g28">
    <rect
       id="rect22"
       height="36"
       width="251"
       y="294"
       x="388"
       opacity="0.75"
       fill="white" />
    <rect
       id="rect24"
       height="8"
       width="243"
       y="298"
       x="392"
       fill="black" />
    <text
       id="text26"
       y="326"
       x="513"
       font-family="sans-serif"
       font-size="24"
       text-anchor="middle"
       fill="black">50km</text>
  </g>
</svg>
