<?xml version="1.0" encoding="UTF-8" standalone="no"?>
<svg
   xmlns:dc="http://purl.org/dc/elements/1.1/"
   xmlns:cc="http://creativecommons.org/ns#"
   xmlns:rdf="http://www.w3.org/1999/02/22-rdf-syntax-ns#"
   xmlns:svg="http://www.w3.org/2000/svg"
   xmlns="http://www.w3.org/2000/svg"
   xmlns:sodipodi="http://sodipodi.sourceforge.net/DTD/sodipodi-0.dtd"
   xmlns:inkscape="http://www.inkscape.org/namespaces/inkscape"
   inkscape:version="1.0 (4035a4fb49, 2020-05-01)"
   sodipodi:docname="Ehime.svg"
   id="svg30"
   version="1.1"
   height="515"
   width="509">
  <metadata
     id="metadata36">
    <rdf:RDF>
      <cc:Work
         rdf:about="">
        <dc:format>image/svg+xml</dc:format>
        <dc:type
           rdf:resource="http://purl.org/dc/dcmitype/StillImage" />
      </cc:Work>
    </rdf:RDF>
  </metadata>
  <defs
     id="defs34" />
  <sodipodi:namedview
     inkscape:current-layer="svg30"
     inkscape:window-maximized="1"
     inkscape:window-y="-8"
     inkscape:window-x="-8"
     inkscape:cy="232.66129"
     inkscape:cx="172.66813"
     inkscape:zoom="1.1780536"
     showgrid="false"
     id="namedview32"
     inkscape:window-height="1017"
     inkscape:window-width="1920"
     inkscape:pageshadow="2"
     inkscape:pageopacity="0"
     guidetolerance="10"
     gridtolerance="10"
     objecttolerance="10"
     borderopacity="1"
     bordercolor="#666666"
     pagecolor="#ffffff" />
  <title
     id="title2">衆議院小選挙区 愛媛県</title>
  <desc
     id="desc4">Author: Lincun</desc>
  <rect
     id="rect6"
     height="515"
     width="509"
     y="0"
     x="0"
     fill="#eeeeee" />
  <path
     fill="#aaaaaa"
     d="m -1,7 3,5 H 4 V 8 L 8,5 V 1 L 9,-1 H -1 Z m 437,-8 v 3 l 3,1 1,-2 -3,-2 z m 6,0 v 1 l 1,1 v -2 z m 15,0 h 1 z m -10,17 1,-4 -4,2 z M 42,-1 l 1,1 2,6 6,-2 -1,10 h 1 l -1,5 1,-2 3,4 -2,4 4,5 -1,7 4,3 1,-2 h 1 2 l -1,2 1,1 2,-1 4,1 1,-2 1,2 1,-1 -3,7 1,1 2,-1 2,2 3,-2 7,-1 -3,-5 -4,-2 1,-2 -1,-2 5,-6 6,-4 h 1 l 1,-3 1,2 v -2 h 2 l 9,-12 3,-2 V 3 l 2,-2 h 2 l 1,2 3,-1 -4,-2 6,-1 h -1 z m 75,0 1,1 v -1 z m 23,0 1,1 1,-1 z m 19,0 1,2 -4,-2 -3,4 1,2 3,-1 -3,7 4,6 3,5 -1,9 2,-1 2,2 -2,3 2,1 h 2 l 1,-2 2,1 -2,1 1,1 4,-1 -2,5 -1,-1 v 2 l -3,-1 -2,2 4,4 -2,5 9,-1 4,-5 3,-6 3,1 v 1 h 3 l 1,5 h 2 l 3,3 6,-2 1,-4 4,1 2,2 v -4 l 4,-5 9,-1 3,-1 6,1 -1,-2 4,-3 -2,-3 -2,2 -1,-1 2,-2 -2,-6 9,2 4,-10 -1,-2 h 4 l 1,-1 h 6 v 4 l 3,1 v 3 l 2,-2 4,-2 2,1 v -2 l -2,-2 3,-1 h 2 l 1,-3 7,-1 V 4 l 2,4 8,-5 3,2 1,-1 6,2 3,-2 4,2 8,-2 1,2 3,-4 8,-1 v -2 z m 166,0 -1,5 2,4 -3,-2 v 2 l 4,2 3,-2 2,-5 -2,-4 z m 13,0 v 2 l -3,-1 1,2 -2,2 6,13 4,1 6,7 3,-2 -1,-2 3,-4 -4,-1 5,-5 -5,-7 -4,1 1,-2 -2,-2 v -2 z m 35,0 -3,2 1,2 -1,2 6,-2 1,-4 z m 6,0 1,2 1,1 4,-3 z m 39,0 -1,1 1,3 h 3 l 3,-1 -4,-3 z m -267,108 4,-4 -3,1 z m -5,-9 h -1 l 1,1 z m 20,-3 -2,-2 -3,8 4,2 z m -5,-29 2,-4 4,1 1,-5 4,2 -1,-3 -2,-3 h -4 l 1,-4 h -3 l -6,4 -4,10 1,4 3,1 v 4 l -9,3 v 2 l -2,-1 v 2 l -5,2 v 5 h 1 l 3,4 4,-2 1,1 1,-2 h 4 l 1,-4 3,2 v 2 l 6,-4 v 3 l 3,-1 -1,2 2,2 v 2 l -2,4 h 4 l 1,-1 h -2 l -1,-2 2,-1 3,-6 1,-6 h 2 l 2,3 3,-3 -3,1 v -4 l -2,-1 -5,4 h -3 l -3,3 v -5 l 2,-1 4,-9 -3,3 v -3 l -5,2 -1,-2 1,-1 z m -57,11 v -1 l -1,1 z m -6,-27 -1,3 2,1 v 1 l 5,-2 -2,-3 -2,2 z m 6,1 v 1 l 1,-2 z m 24,9 -5,-2 -1,1 v 6 l 2,2 2,2 5,-2 1,-2 -1,-4 z m 7,-1 2,-7 h 2 l 2,4 2,2 -1,-1 -2,1 v 3 h 1 l -2,4 1,1 -5,9 5,-4 v 2 l 10,-4 2,1 -1,-9 -2,-3 -2,-1 1,-5 2,1 3,-4 -1,-5 3,-8 -2,-3 2,-6 -5,-10 v 4 l -1,1 -5,-2 -4,1 -1,-1 -2,1 v 4 l 3,3 -3,5 1,2 3,-1 2,-3 4,4 3,6 -2,6 -3,-4 -1,-3 -3,2 -3,-1 -4,-10 -9,-2 -3,2 -1,-3 -2,2 5,6 v 4 l -1,1 10,10 1,6 z m -15,-36 -4,1 5,1 v -2 z m 18,41 -3,2 v 2 l 4,-2 z m 39,-3 -2,3 1,2 2,-2 z m 23,4 h -2 v 2 z m 4,-1 -2,2 1,1 h 1 z m -3,-3 4,-2 2,-4 -1,-3 h -1 v -3 l -5,3 -3,3 -1,5 4,-1 z m 37,16 h -1 l -1,3 4,-1 v -2 z m -6,-12 -4,1 1,2 3,-1 z m 15,1 6,-2 6,-5 v -2 l -3,-1 v -1 l -3,-2 1,-1 -5,2 -1,2 -2,-1 -3,2 -2,3 1,4 -2,1 2,2 z m -8,-5 1,-3 -4,-4 -1,1 -3,3 v 5 l 3,1 z m 4,-6 3,-2 -1,-2 -2,1 -2,3 z m -18,8 4,-2 1,-3 v -1 l -3,-1 1,-3 h -4 l -5,-3 -1,1 -4,-2 h -3 l -3,3 v 4 l 7,1 3,4 5,-2 1,3 -2,2 2,-1 z M 102,32 113,22 v -3 l -4,-7 -4,6 -4,-1 -5,4 -2,6 -5,5 1,2 2,5 8,-4 z m 110,11 -1,-1 -1,2 z m 64,-9 4,-10 -3,-2 -7,7 -1,5 h -3 l 1,-3 -2,-2 -3,4 1,1 h -3 l -3,1 -1,-1 1,2 -1,1 -2,-2 -3,1 2,3 -2,2 3,5 2,2 h 6 l 4,-2 h 8 l -2,-7 z m -16,-3 h 2 v -4 l -2,-1 -2,3 z m -25,-2 v 2 h 1 z m -90,-19 -1,2 1,1 z m -6,-3 -7,9 2,-1 5,2 -1,-3 3,-3 z M 152,4 V 1 l -3,-1 1,6 z m 144,11 -1,-3 -2,-1 1,4 z M 280,8 h -2 l 4,5 z m -38,14 -5,4 4,1 2,-2 z m 28,2 v 2 l 2,-2 z m 10,-4 -2,2 h 3 z m -16,0 v 5 l 1,-2 z m 6,0 v 2 -1 l 1,1 1,-1 v 1 l 1,1 2,-2 v -4 l -2,3 -1,-4 z m 61,4 7,-4 1,-3 -2,-3 -1,-3 h -2 l -9,3 h -2 l 1,-2 -4,2 -4,12 v 3 l 4,2 h 3 z m -12,-9 2,-4 -3,-6 -4,6 1,4 z m 110,-4 h -4 l 1,2 3,-1 z M -1,135 h 3 l 3,6 -2,1 1,3 3,1 v -2 H 5 l 3,-2 13,9 8,-4 -1,-2 2,-1 1,1 -2,2 -3,2 4,-1 5,2 1,5 11,5 1,2 -3,3 1,1 v 9 h 8 l 3,-4 2,-2 -1,-3 -3,-3 v -2 l -5,-4 1,-3 -2,-1 2,-4 -2,-6 v -4 l -2,-5 1,-2 5,1 13,-2 4,-6 6,-14 -1,-8 1,-2 -2,-1 -1,-5 1,-5 -3,-9 v -2 l 1,-1 -1,-1 v -2 l 6,-2 3,2 3,-7 h 1 l 1,-8 -1,2 -1,-5 -4,-2 h 2 l -2,-1 1,-3 h 1 l 3,-3 v -2 l -7,1 -3,2 -2,-2 -2,1 -1,-1 3,-7 -1,1 -1,-2 -1,2 -4,-1 -2,1 -1,-1 1,-2 h -2 -1 l -1,2 -4,-3 1,-7 -4,-5 2,-4 -3,-4 -1,2 1,-5 H 50 L 51,4 45,6 43,0 42,-1 H 9 L 8,1 V 5 L 4,8 v 4 H 2 L -1,7 Z m 0,59 v 1 l 3,1 6,-2 3,-1 v -3 l -6,-4 -2,2 -1,4 h -3 z m 109,-77 v 4 l 1,-2 z m 28,0 v -2 l -1,2 h 2 z m -5,-9 -3,1 1,4 6,2 1,-2 z m 2,-2 -1,1 h 3 z m -8,-2 -5,2 h 2 v 3 z m 1,-6 -2,1 2,1 1,-1 z m -30,41 -1,-1 v -4 l -5,2 -5,-2 -2,-3 -3,-2 -1,3 -4,-1 v -1 l -3,5 -3,-2 -3,1 1,6 -2,2 h -2 l -1,2 2,2 -1,5 2,2 -2,1 h 3 l 1,3 4,2 v 3 h -1 l 2,5 3,-6 h 8 l 4,-1 1,3 2,-2 3,1 -4,-2 v -4 l 6,-5 1,2 -1,2 2,-1 6,1 3,1 v 3 l 1,-2 2,2 -3,4 v 4 l 6,-4 4,3 3,-1 -3,-7 1,-3 -1,-1 3,-3 1,-3 4,1 v -2 l 2,-1 3,3 4,-5 3,-1 1,-2 2,2 4,-4 4,-2 v -2 l -7,3 -3,-1 1,-2 -7,-1 -4,4 2,3 -2,2 -6,1 -3,-1 -2,3 h -2 l 1,3 -3,2 -4,1 -3,-2 v 1 l -2,-1 2,-2 -1,-3 -2,2 h -2 l -1,-5 z m 17,-7 -4,1 v 3 l 3,1 1,2 2,-1 z m -1,-5 -1,1 2,3 1,-2 z m -48,44 2,-1 -2,-1 z m -3,-35 h -3 l -1,3 h 3 z m 29,-19 -1,-2 -2,1 2,4 z m -58,43 v -3 h -1 l -1,3 1,3 2,-1 z m -4,-7 -2,-1 -1,1 3,3 z m 99,29 -3,2 1,2 1,-1 z m -8,-13 h -2 l -2,-3 -1,2 3,3 2,-1 z m 26,-23 -3,-3 v 2 l 3,3 z m 8,-13 h -2 l 1,1 z m -6,-3 -4,1 6,3 1,-2 z m -60,51 h -3 l 1,3 z m -3,14 2,3 5,-6 -3,2 -2,-1 -2,-5 -4,-1 -4,-6 -4,-1 -4,4 -2,-1 -4,2 1,3 4,-3 h 3 v 3 l 4,5 6,-1 z m -33,21 4,-3 1,-2 -1,-5 1,-2 -1,-2 1,-4 -3,6 1,6 -5,4 z m -23,-23 -1,1 1,2 z m 19,-15 v 4 l 1,-1 z m -4,-4 -1,-3 -3,-2 -2,2 -3,-5 -1,3 3,5 v 3 l -4,3 -2,-1 -1,7 -8,2 1,2 3,-1 2,2 3,-1 v -5 l 5,-1 v -3 h 2 l 1,-4 5,1 4,-2 z m -30,-8 2,2 h 5 l -2,-6 v 3 z m 91,-89 h -1 v 1 z m 406,20 -4,3 -4,3 -1,7 -3,2 -9,1 1,3 -3,7 h 2 v 5 l 1,2 h 2 l -1,3 1,4 -4,4 v 2 h 3 l 1,3 -4,2 v 6 l -4,4 1,5 3,3 5,1 2,2 h 11 l 2,4 h 2 z m 0,-75 -2,1 -1,-3 -2,1 2,2 -1,2 -2,-3 -2,1 2,5 -8,7 -2,3 h -5 l -2,4 h -1 l 2,-5 -2,3 -2,-2 2,-5 -5,5 -6,-2 -3,1 -4,-5 -5,-1 v -2 l -6,-2 -3,1 -1,1 5,1 v 2 h 2 l -2,3 h 3 l 6,3 1,4 3,1 v 2 l 4,1 v 2 l 3,4 h 1 v 10 l -1,3 -1,1 v 7 l -2,2 h 2 l -2,1 1,7 v 5 l -2,12 -6,4 -2,-1 4,4 3,-2 1,1 3,3 5,-2 2,1 5,5 9,-1 3,-2 1,-7 4,-3 4,-3 z m -39,-23 1,6 2,-3 -2,-3 z m -24,76 2,-2 -4,-2 z m 39,-49 h 3 l -3,-2 z m -14,5 3,-5 h 6 v -4 h -2 l -2,3 h -2 l -2,-2 1,-3 h -2 l -1,2 2,1 v 2 l -3,2 z m 0,18 v 1 l 2,1 -1,-3 z m 16,-36 v -3 l -5,-3 2,5 z m 22,160 h -2 l -2,-4 h -11 l -2,-2 -5,-1 -3,-3 -1,-5 -5,-1 -5,4 -6,-3 -3,1 -3,4 -4,-1 -4,-4 -5,1 -1,5 -3,1 1,3 -3,2 h -2 l -1,4 -2,2 h -4 l -4,-2 h -5 l -4,1 -7,-2 -4,1 -3,4 -10,-3 -8,6 h -5 l -4,-4 -5,-1 -3,2 -1,8 -3,4 -9,3 -4,-5 -4,1 -3,9 -7,6 1,6 -6,5 2,4 -6,2 -1,3 -1,10 -11,3 -3,11 3,4 -6,4 -3,7 4,5 v 7 l -7,5 v 5 l -6,7 v 3 l -7,3 -9,3 -4,-2 -8,1 -4,-1 h -10 l -6,-3 -7,2 -1,2 -2,1 -1,1 v 3 l 5,3 v 5 2 l 3,1 -1,5 1,2 5,1 v 3 l 2,7 9,4 3,6 v 4 l -2,5 -6,3 -7,5 h -4 l -2,2 h -3 l -7,3 -2,2 v 2 l -4,7 1,12 -10,2 -1,7 -11,12 -1,3 h -3 l -3,-5 -10,-8 -1,-1 v -3 l -5,2 -1,4 5,7 -1,5 h 2 l 5,8 h 3 l 2,13 -4,5 6,7 v 9 l 2,4 -1,2 3,6 -2,4 h -1 v 6 l -8,2 v 5 h 3 l 2,2 2,-2 2,2 h 2 l -2,-3 h 4 l -2,3 2,1 2,-3 3,6 -2,3 3,-1 v 1 l -1,2 -4,-1 6,5 -3,2 v -2 l -2,2 v -4 l -4,1 -1,1 v 2 l -6,4 -3,3 5,5 h -4 v 2 h 84 l 1,-2 -2,-2 2,-1 -2,-3 1,-2 1,2 1,-2 2,-1 4,1 1,-1 3,1 -1,-2 3,-3 2,-1 v -10 l -4,-5 1,-2 -4,-1 2,-1 -2,-2 h 2 v 3 l 2,-3 -2,-3 3,-8 -1,-2 3,-6 -1,1 -1,-2 2,-3 5,-8 3,-2 9,1 3,3 4,1 v -7 l 1,-4 3,-2 v -5 l 1,1 2,-4 7,-4 6,-13 2,-5 5,-6 5,1 v 5 l 4,-1 -2,-4 1,1 2,-3 -4,-3 v -2 l 2,-3 7,-1 -2,-2 1,-4 5,-4 -2,-2 2,-2 -2,-1 -1,-2 5,-3 -2,-4 1,-4 -5,1 1,-5 -2,-1 1,-2 h 3 l -1,-2 3,-1 -8,-5 2,-3 3,2 v -2 h 2 v -3 h 2 l -1,-2 1,-4 -1,-2 6,-4 -1,-3 5,-2 -2,-5 h 2 l 2,5 -4,3 3,1 v 2 l 2,-2 1,1 2,-2 2,1 v 4 l -1,-1 1,2 -1,1 -3,-2 2,3 -1,1 h 2 v -2 h 3 l -1,-2 2,-3 -1,-4 3,-2 1,-2 7,-1 3,3 -1,-3 4,-1 5,2 v -2 l 1,-2 2,1 1,-2 2,2 v -2 h 3 l 1,-2 h 4 l 1,-4 h -2 l -3,-3 -3,4 h -3 l -1,-4 -3,4 1,1 -2,-1 -1,2 1,3 -2,-4 -1,3 -1,-2 -2,1 v 3 l -2,-1 v -3 h -2 l -1,5 h -2 l 1,-3 h -4 l 6,-4 5,-1 1,2 4,-2 1,-3 -4,-1 h 3 v -1 l 3,1 1,-2 h 2 l -1,3 3,1 3,-4 2,-1 2,2 6,-4 16,-9 12,-5 v -1 l -5,1 v -3 l -4,-3 1,-3 3,-2 v -2 h -4 l 2,-1 h 2 v -5 l 2,1 v 4 l 2,1 -3,2 v 6 l 2,-1 -2,1 v 4 l 11,-6 23,-5 11,-2 h 2 4 l 2,1 z M 212,487 h -4 v 1 l 2,2 2,-1 z m -13,0 v 2 l 1,-1 z m 183,-150 2,-1 h -2 z M 13,516 v -2 L 7,511 H 3 5 l -1,2 3,3 z m -11,0 -2,-2 v 2 z m -3,-6 1,1 4,-4 -1,-3 3,1 1,-2 4,-3 v -2 l 4,-2 h -3 l -3,-3 v 3 H 7 v -3 l -3,-8 3,1 v -1 h 2 l 1,4 3,2 v -7 l 3,1 v -3 l 2,-1 h 4 v 2 l 2,1 v -4 l 2,-1 7,3 h 2 l -2,-5 -2,-1 -3,1 -3,-3 v 2 l -2,1 -3,-3 1,5 h -4 l -5,3 -2,-2 2,-7 -2,2 -2,-1 1,3 -3,2 -2,-1 1,-1 H 3 l 1,-6 -2,4 -2,-3 1,4 -2,1 v -1 z m 0,-69 7,2 4,-4 2,1 4,-2 h -3 l -1,-3 -2,-5 2,-4 -5,2 1,7 -4,1 -1,2 -2,-2 1,-2 h -3 z m 0,-76 v -1 -1 z m 0,104 v -1 z m 14,-44 3,-3 -2,-1 h -2 z m -8,-21 -2,2 h 2 z m 4,-3 -2,-1 -1,3 z m 25,67 -2,-2 v 4 l -4,1 h 2 l 2,4 1,-3 h 1 z"
     id="path8"
     style="stroke:#000000;stroke-width:0.2;stroke-linejoin:round" />
  <path
     fill="#16a34a"
     d="m 265,98 -7,1 -3,5 h -3 l -1,3 h -2 l -7,5 -2,3 -4,1 -6,3 3,2 -1,10 -4,14 -1,4 -6,3 v 1 l -1,-2 -6,-1 v 5 l -3,5 6,5 -4,-1 2,3 -1,-1 1,2 -3,1 v 4 h -2 l -2,8 3,2 -2,1 -1,-2 -1,2 2,1 8,-1 9,1 6,3 10,5 -3,1 -1,5 9,14 v 10 l 2,2 6,-1 1,-5 4,-3 1,-5 1,2 4,1 1,-1 8,-3 8,-1 v -2 l 3,-2 5,2 3,-4 1,-2 5,1 3,-3 10,3 8,-1 4,-1 1,-4 3,1 5,2 7,5 7,-6 3,-9 4,-1 4,5 9,-3 3,-4 1,-8 3,-2 5,1 4,4 h 5 l 8,-6 10,3 3,-4 4,-1 7,2 4,-1 h 5 l 4,2 h 4 l 2,-2 1,-4 h 2 l 3,-2 -1,-3 3,-1 1,-5 5,-1 4,4 4,1 3,-4 3,-1 6,3 5,-4 5,1 4,-4 v -6 l 4,-2 -1,-3 h -3 v -2 l 4,-4 -1,-4 1,-3 h -2 l -1,-2 v -5 h -2 l 3,-7 -1,-3 -5,-5 -2,-1 -5,2 -3,-3 -1,-1 -3,2 -4,-4 -6,7 h -2 v 2 l -1,-2 v 3 h -2 v 2 l -2,-1 1,4 -3,-2 -1,1 3,3 -1,1 -5,4 -1,-1 -2,1 1,1 -3,2 -1,-1 -6,2 -5,-2 h -3 l -2,-3 -3,1 -2,-2 h -6 l -1,-2 h -5 l -2,2 -9,3 -2,-2 h 1 l -3,-3 h -1 v 4 l -3,-1 1,-2 -1,-2 -7,4 -5,1 -1,-2 h -1 v 2 l -2,-1 -1,1 3,2 -3,1 1,1 h -2 v 3 l -1,-6 -1,-1 -2,2 v 4 h 2 l -2,1 2,2 -3,-2 v 3 l -1,-2 h -2 v 2 l -10,2 1,3 -2,-3 -7,2 2,3 -2,1 -1,-3 -8,3 -4,-1 1,-3 h -2 l -1,5 -2,-2 2,-3 -3,-3 -2,3 h -2 v -3 l -2,1 -1,-4 -4,-6 h -2 v -1 l 1,-2 -8,-19 -4,-4 v -4 l -4,-2 v 1 l -1,-1 -7,-12 -1,-4 h -1 l -1,3 -1,-2 -4,-3 -3,-7 -2,5 -3,4 -3,-2 -6,1 2,3 2,-1 5,1 1,5 v 3 h -2 v 5 l -1,1 1,1 -2,1 -4,-2 z m -51,-5 -2,3 3,-1 z m -55,76 h 3 l 2,2 v -3 z m 7,-28 -5,-1 -2,1 1,2 3,1 7,-3 -1,-1 z m 35,-14 -4,6 2,2 3,-2 3,2 -1,-6 z m 8,-1 v 2 h -2 l 1,3 3,-1 z m -55,0 1,2 -2,1 1,1 5,-3 v -2 h 2 l 1,-3 h -6 z m 20,-6 -9,2 2,5 -2,2 2,3 z m 16,1 -4,-1 -5,8 -4,1 6,9 4,-5 6,1 3,-2 -1,-4 -2,1 -1,-2 4,-1 -1,-9 3,-3 -2,-2 v 3 l -3,2 z m -8,-13 -2,2 h 2 z m -49,163 -2,3 h -4 l -4,5 -1,-1 -8,5 6,9 -2,7 v 3 h 2 l 1,-5 h 4 l 2,3 -3,-1 -2,4 h 6 l 5,-1 -5,5 -7,1 h 10 l -4,5 1,2 -3,-2 -5,4 4,1 -1,3 2,3 -5,4 3,4 -2,4 6,-3 2,-5 2,1 1,1 h -2 l -2,7 2,-1 2,1 -4,2 1,3 -5,-1 v 3 h -2 v -2 l -4,5 v 4 l 6,-1 2,4 5,2 h 1 l 3,-6 2,3 4,1 5,-1 -2,-1 1,-2 7,2 -1,-2 1,-2 2,5 4,-2 4,2 v 2 h -5 l -8,6 1,2 -3,3 v 2 l -2,4 h 2 l 1,-2 2,-1 -3,-2 3,-1 2,2 3,-1 v 3 l 2,1 h 2 l -1,-2 3,1 5,-3 v 5 l -4,1 -2,1 1,2 h 2 l 1,2 3,2 3,-1 -1,4 2,1 h -3 l -3,-2 2,5 -4,-2 -4,2 v -1 l -5,4 2,1 -1,2 -4,-1 3,2 3,-1 -2,2 2,1 v 3 l 2,2 h -4 l 1,-3 -4,-2 1,5 h -2 l 1,2 h -2 l -2,-2 2,-2 h -2 l 2,-2 -1,-1 -3,3 -4,-3 1,-2 h -2 l 2,-3 h -2 l 2,-3 -5,3 -6,-5 -5,3 5,-1 2,2 3,6 2,-2 v 3 l 5,4 -2,1 -2,-2 -2,2 h -3 1 l -1,5 -1,-2 -1,1 5,3 -1,3 3,2 1,-3 2,2 3,-2 1,2 1,-2 2,2 h 4 v 5 l -4,-1 -1,2 -2,-1 -1,2 -1,-4 -6,1 6,2 -1,2 3,2 -1,3 h 3 l -4,3 -1,-2 -1,3 h 2 l 1,2 -3,2 h 3 v 2 -4 l 2,-1 v 2 h 2 l -2,2 3,2 -2,1 v 2 l -1,-3 -9,3 1,-2 -2,-1 v 3 l -3,1 -2,-5 -3,2 -1,-1 1,-2 -4,1 1,2 -3,3 2,1 v 4 h -2 l 1,1 -1,3 -5,1 h 6 l 2,-7 -1,-4 4,-1 5,3 11,-2 9,4 1,2 4,-1 4,2 3,-2 h 8 l 1,-2 6,-2 6,1 5,-4 6,2 4,-5 -2,-13 h -3 l -5,-8 h -2 l 1,-5 -5,-7 1,-4 5,-2 9,-6 -2,-3 h -7 l -3,3 h -4 v -11 l -3,-5 2,-4 3,-1 1,-5 4,1 1,1 h 4 l 2,-3 2,3 1,-1 -2,-10 1,-6 -3,-3 1,-5 3,-1 12,2 3,-2 v 2 l 9,1 7,-5 2,3 5,2 5,-5 1,-6 5,-2 3,-3 v -3 l -5,-1 -1,-2 1,-5 -3,-1 v -2 -5 l -5,-3 v -3 l 1,-1 2,-1 1,-2 7,-2 6,3 h 10 l -2,-2 2,-2 -2,-5 -8,-1 v -1 l -6,-3 -2,-3 -5,-10 -5,2 -4,5 h -2 l -2,-4 -3,1 -4,3 h -2 l -2,3 -7,4 h -7 l -7,6 -1,-5 -4,1 -1,-4 -3,-2 -1,-5 2,-1 1,-5 -2,-5 h -1 l -1,-1 2,-3 -4,-6 -1,-6 -3,-3 5,-9 h 2 l 4,-2 3,1 v 10 l 2,2 5,-1 v 1 h 4 l 5,4 4,-2 2,-5 h 4 l 3,-6 3,-1 v -5 l 4,-7 -1,1 1,-6 -4,-3 -2,-6 -4,-1 v -3 l -2,-1 3,-3 -1,-4 4,-1 1,-3 3,-3 v -4 l -8,2 v 2 h -3 v 2 h -2 v -2 h -3 v 2 l -2,1 v -1 l -1,1 v -2 h -2 v 7 l -1,-1 -5,5 -4,12 -5,5 -17,14 -15,5 -10,5 -2,2 -4,1 -1,3 -5,4 -4,7 -2,2 v 2 z m 19,-63 h -2 l -2,1 z m -42,122 4,4 3,-3 z m 1,-5 -3,-1 v 2 l 2,3 z m 18,99 2,-1 -1,-2 -2,2 z m -21,-1 -5,-1 -1,2 z m -5,-16 7,-2 -2,-1 z m -9,-3 1,3 3,1 h 3 l -2,-1 1,-4 -4,2 z m 31,-2 -2,1 1,1 z m 1,-4 2,-1 h -2 l -1,1 z m -39,3 h 5 l 2,3 2,-6 -3,2 -1,-1 -1,2 -2,-3 -2,2 -1,-4 z m 31,-4 -2,-2 1,2 z m 6,-8 -1,3 2,1 -1,2 h 6 l 1,-3 -3,1 v -2 h -1 v -2 z m -6,0 3,-1 -2,-4 v 1 l -3,3 -7,1 4,1 1,5 h 1 l -1,-3 z m -3,-9 -2,1 3,2 z m 44,-3 -3,4 4,4 4,-3 -2,-4 z m 137,-313 -3,3 6,1 v -2 z m 22,6 3,-5 4,-1 3,-6 -8,3 -2,-6 -3,-2 -9,-1 -4,6 4,2 2,7 -2,1 -2,-3 -1,1 v 2 l -2,2 1,2 -2,3 3,1 -3,5 6,1 8,-9 z m 5,42 2,-1 -1,-1 -2,1 z m 1,-13 h 2 l -2,-1 z m -29,-22 -2,1 1,2 h 1 z m -3,-2 -3,2 h 2 z m -10,-42 -1,3 h 3 z m 19,14 5,1 7,-4 -2,-8 1,-5 -3,-1 -3,-9 -2,-3 -5,-2 -4,4 h -3 l -1,2 2,3 -1,2 -4,-1 -2,3 2,2 5,-2 1,1 -1,3 h 2 v 1 h -2 l 2,2 -2,6 h -2 v -1 h -5 l 1,3 -4,-1 -3,6 h 3 l -1,4 h 4 l 8,-3 3,-3 z m -33,6 -1,2 h 1 l 3,-2 z m -8,-1 -3,1 6,6 v -3 h 3 l 1,-2 z m 15,2 h -2 l 1,2 h 4 l -3,-6 -1,2 z m -81,100 2,3 v -1 z m 16,-8 2,-3 h -3 l -1,2 h -2 l -1,4 h -5 l -2,4 3,-1 2,2 -2,6 2,3 1,-2 h 5 l -5,-6 2,-3 4,-1 z M 350,83 v -2 l -3,-1 v 2 z m -1,-7 -2,3 h 2 l 2,-3 z m -8,0 -1,1 1,1 z m -18,-23 -2,-1 -1,4 z m 8,-3 -1,-2 4,-2 1,1 1,-4 -2,2 -7,-2 -1,-3 2,-1 -1,-3 -2,2 -2,-1 -4,3 h -2 l -1,-2 -2,1 -1,2 2,4 -3,1 1,2 3,-1 3,6 5,-4 3,4 5,-1 z m 70,67 -1,-1 -1,1 -2,-1 -2,3 4,2 2,-1 z"
     id="path10"
     style="stroke:#000000;stroke-width:0.2;stroke-linejoin:round" />
  <path
     fill="#16a34a"
     d="m 110,303 1,2 2,-2 z m 8,-4 2,-7 -6,-9 -5,5 -9,3 v 2 h -3 l -4,3 v -1 l -2,3 -1,-2 -1,2 h -3 l 2,2 -1,6 -5,-3 1,-1 -2,-2 -1,2 h -4 v 6 l -4,-1 -3,-3 -1,1 v 3 l -4,-2 -3,1 1,7 -3,-2 -2,-3 -3,2 6,4 v 2 l -4,3 -4,-5 -1,7 -3,-2 1,-3 -2,-1 -4,4 -7,3 -1,3 -12,7 -3,6 -4,3 3,-1 8,-4 -1,-3 5,-3 h 2 l 1,-2 5,-2 6,-2 1,4 -2,1 1,2 -3,-1 -1,4 h 8 l 4,-4 3,1 v -6 l 5,-5 3,-3 h 6 l 5,-4 h 5 l 5,-5 7,-2 2,-5 4,-5 4,8 2,-7 h 9 l -3,-4 1,-1 h 2 v 1 l 3,2 z m 37,158 1,1 -2,4 3,5 3,1 1,-1 v 2 h 2 v -1 l 2,2 v -2 l 4,5 v 1 l -6,-3 -1,2 -1,-2 -2,2 -2,-3 -2,2 -3,-1 3,-2 -2,-1 2,-2 h -3 l 1,-2 -4,2 v 3 l -3,1 h 3 v 3 l 6,1 -3,6 -3,-2 v 2 l -1,-1 -4,1 v -1 l -1,2 h 2 l 2,5 v 4 l -1,1 4,1 1,2 3,-2 h 5 l 1,-1 -1,-2 3,-1 v -1 l -7,2 -2,-1 6,-5 3,-1 -3,-2 h -3 l -1,-3 h 9 v 3 l 10,4 -1,-2 -5,-2 v -2 l 4,1 v -1 h 3 l 1,2 1,-1 h 2 l 4,-2 v 2 l -4,1 1,5 2,1 -1,2 1,1 9,-4 5,-1 2,1 v -5 l 8,-2 v -6 h 1 l 2,-4 -3,-6 1,-2 -2,-4 v -9 l -6,-7 -6,-2 -5,4 -6,-1 -6,2 -1,2 h -8 l -3,2 -4,-2 -4,1 -1,-2 -9,-4 -11,2 -5,-3 -4,1 1,4 -2,7 h -6 l 2,2 2,-1 1,3 1,-4 4,-1 -2,-2 2,-2 -1,-5 3,-1 3,1 v 3 l 1,-2 h 2 l 1,3 2,2 1,-1 -2,-1 1,-2 2,1 3,-2 1,4 3,-3 1,13 h 1 l 2,-3 z m -14,20 -5,1 v 2 l 5,-1 1,-3 z m 257,-417 1,3 v -3 l -1,-1 z m -9,-2 -1,-1 -5,-1 3,4 z m -16,-7 h -2 l 1,5 h 2 z m -32,-11 -3,3 v 2 z m 4,-4 -5,-1 -1,1 v 3 h 4 z m -3,-8 -3,-5 h -2 l -4,8 1,5 5,-1 4,-4 z m 29,11 -2,-1 -2,2 z m -19,-7 -2,-1 -1,2 -1,7 h -2 l 1,1 3,-2 v -4 h 2 z m 3,0 v -2 l 5,-2 3,-4 -2,-5 -5,3 v 2 l -4,3 2,3 -1,7 h 1 l 4,-4 z m -11,-10 1,8 h 4 v -3 l -4,-6 z m -159,348 -2,4 3,5 v 11 h 4 l 3,-3 h 7 l 2,3 -9,6 v 3 l 1,1 10,8 3,5 h 3 l 1,-3 11,-12 1,-7 10,-2 -1,-12 4,-7 v -2 l 2,-2 7,-3 h 3 l 2,-2 h 4 l 7,-5 6,-3 2,-5 v -4 l -3,-6 -9,-4 -2,-7 -3,3 -5,2 -1,6 -5,5 -5,-2 -2,-3 -7,5 -9,-1 v -2 l -3,2 -12,-2 -3,1 -1,5 3,3 -1,6 2,10 -1,1 -2,-3 -2,3 h -4 l -1,-1 -4,-1 -1,5 z m 156,-166 -7,-5 -5,-2 -3,-1 -1,4 -4,1 -8,1 -10,-3 -3,3 -5,-1 -1,2 -3,4 -5,-2 -3,2 v 2 l -8,1 -8,3 -1,1 -4,-1 -1,-2 -1,5 -4,3 -1,5 -6,1 -2,-2 v -10 l -9,-14 1,-5 3,-1 -10,-5 -6,-3 -9,-1 -8,1 v 6 h 3 l -2,1 1,3 h 2 v 2 l 1,-1 v 1 l 2,-1 v -2 h 3 v 2 h 2 v -2 h 3 v -2 l 8,-2 v 4 l -3,3 -1,3 -4,1 1,4 -3,3 2,1 v 3 l 4,1 2,6 4,3 -1,6 1,-1 -4,7 v 5 l -3,1 -3,6 h -4 l -2,5 -4,2 -5,-4 h -4 v -1 l -5,1 -2,-2 v -10 l -3,-1 -4,2 h -2 l -5,9 3,3 1,6 4,6 -2,3 1,1 h 1 l 2,5 -1,5 -2,1 1,5 3,2 1,4 4,-1 1,5 7,-6 h 7 l 7,-4 2,-3 h 2 l 4,-3 3,-1 2,4 h 2 l 4,-5 5,-2 5,10 2,3 6,3 v 1 l 8,1 2,5 -2,2 2,2 4,1 8,-1 4,2 9,-3 7,-3 v -3 l 6,-7 v -5 l 7,-5 v -7 l -4,-5 3,-7 6,-4 -3,-4 3,-11 11,-3 1,-10 1,-3 6,-2 -2,-4 6,-5 z"
     id="path12"
     style="stroke:#000000;stroke-width:0.2;stroke-linejoin:round" />
  <path
     fill="none"
     stroke-linecap="round"
     d="m 276,151 3,1 3,-2 3,2 m -20,-17 v -12 l -2,-3 h -3 -4 l -4,-3 -3,2 -4,-2 -3,-5 m 121,23 v 5 l 2,-1 2,7 -3,3 5,10 -3,2 2,3 4,3 3,9 m 31,-53 1,2 -6,9 v 15 l -5,7 1,3 8,1 5,-3 11,-2 2,2 v 3 l 2,2 -2,2 2,10 m -305,154 5,-1 4,-4 v -3 l 4,-3 2,3 h 5 l 1,3 9,-3 -2,-4 3,-8 4,-2 8,-1 v 3 l 3,2 h 4 l 5,-5 5,6 12,-1 5,4 6,2 3,-2 h 3 v 3 l 2,-2 2,1 3,-6 -1,-5 4,-1 2,3 h 1 l 3,-2 1,-6 1,-5 2,-2 4,2 4,-1 6,-6 3,2 2,-1 2,-5 1,-1 m -52,64 -4,2 -4,-1 -17,1 h -9 l -5,-4 -4,1 -2,8 m -21,-82 h 2 l -1,4 3,2 h 3 l 2,1 3,-1 1,3 4,2 -1,5 -4,1 -1,5 2,2 h 5 v 2 l 3,3 -1,2 2,4 m 77,-116 v -2 m 17,37 -2,2 v 4 l 3,1 -1,8 1,1 4,2 2,5 -4,4 2,5 4,-1 1,3 h 9 v 3 l 3,1 4,4 1,2 -3,6 1,3 -2,1 -1,4 -3,1 -1,6 m -37,-38 6,-3 v -2 l 3,2 2,-2 h 3 v -2 l 6,-2 v -2 m -50,146 6,-6 1,-4 7,-2 2,2 1,-2 3,2 4,-7 h 5 l 3,-5 4,3"
     id="path14"
     style="stroke:#000000;stroke-width:0.2;stroke-linejoin:round" />
  <path
     fill="none"
     stroke-width="1.6"
     stroke-linecap="round"
     d="m 209,185 8,-1 9,1 6,3 10,5 -3,1 -1,5 9,14 v 10 l 2,2 6,-1 1,-5 4,-3 1,-5 -3,-6 -5,-4 1,-2 -3,-4 v -2 l -4,-1 1,-4 -2,-1 6,1 6,-3 1,-6 5,-8 -3,-6 2,-4 5,-4 5,-2 3,-4 -2,-11 -9,-5 m 50,-11 -7,2 -1,6 h -5 l -3,2 -1,-1 h -4 l -4,3 -1,15 -4,1 -1,6 4,8 1,2 -2,3 5,11 1,1 4,-2 3,1 3,10 -2,2 1,4 1,1 10,3 8,-1 4,-1 1,-4 3,1 5,2 7,5 m -111,72 3,-1 2,4 h 2 l 4,-5 5,-2 5,10 2,3 6,3 v 1 l 8,1 2,5 -2,2 2,2 m -39,-47 -2,-4 -4,-2 h -4 l -2,5 -4,2 -5,-4 h -4 v -1 l -5,1 -2,-2 v -10 l -3,-1 -4,2 h -2 l -5,9 -6,-1 -6,8 -2,-1 -1,-5 -5,-6"
     id="path16"
     style="stroke:#000000;stroke-linejoin:round;stroke-width:0.2;stroke-miterlimit:4;stroke-dasharray:none" />
  <g
     id="g28">
    <rect
       id="rect22"
       height="36"
       width="161"
       y="475"
       x="344"
       opacity="0.75"
       fill="white" />
    <rect
       id="rect24"
       height="8"
       width="153"
       y="479"
       x="348"
       fill="black" />
    <text
       id="text26"
       y="507"
       x="424"
       font-family="sans-serif"
       font-size="24"
       text-anchor="middle"
       fill="black">50km</text>
  </g>
</svg>
