<?xml version="1.0" encoding="UTF-8" standalone="no"?>
<svg
	xmlns:dc="http://purl.org/dc/elements/1.1/"
	xmlns:cc="http://creativecommons.org/ns#"
	xmlns:rdf="http://www.w3.org/1999/02/22-rdf-syntax-ns#"
	xmlns:svg="http://www.w3.org/2000/svg"
	xmlns="http://www.w3.org/2000/svg"
	xmlns:xlink="http://www.w3.org/1999/xlink"
	xmlns:sodipodi="http://sodipodi.sourceforge.net/DTD/sodipodi-0.dtd"
	xmlns:inkscape="http://www.inkscape.org/namespaces/inkscape"
	xml:space="preserve"
	enable-background="new 0 0 800 579.077"
	viewBox="0 0 515.12195 373.46339"
	height="373.46341"
	width="515.12195"
	y="0px"
	x="0px"
	inkscape:version="1.0 (4035a4fb49, 2020-05-01)"
	sodipodi:docname="Okinawa.svg"
	id="svg2"
	version="1.1"><metadata
	id="metadata174"><rdf:RDF><cc:Work
		 rdf:about=""><dc:format>image/svg+xml</dc:format><dc:type
			rdf:resource="http://purl.org/dc/dcmitype/StillImage" /></cc:Work></rdf:RDF></metadata><defs
	id="defs172">
</defs>
<sodipodi:namedview
	inkscape:document-rotation="0"
	gridtolerance="10"
	guidetolerance="10"
	borderopacity="1"
	id="namedview313"
	objecttolerance="10"
	inkscape:cx="222.17457"
	inkscape:zoom="1.4142136"
	inkscape:cy="187.67052"
	pagecolor="#ffffff"
	bordercolor="#666666"
	showgrid="false"
	inkscape:pageopacity="0"
	inkscape:pageshadow="2"
	inkscape:window-width="1920"
	inkscape:window-height="1017"
	inkscape:window-x="-8"
	inkscape:window-y="-8"
	inkscape:window-maximized="1"
	inkscape:current-layer="svg2">
	</sodipodi:namedview>
<title
	id="title4">沖縄県区画図</title>
<desc
	id="desc6">Author: Lincun</desc>
<rect
	style="stroke-width:0.643902"
	id="rect46"
	x="-6.4390244"
	y="-6.4390244"
	fill="#ffffff"
	width="528"
	height="386.34146" /><rect
	style="stroke-width:0.643902"
	id="rect48"
	y="0"
	fill="#eeeeee"
	width="515.12195"
	height="373.46341"
	x="0" /><g
	transform="scale(0.64390244)"
	style="stroke-width:0.31060606;stroke-miterlimit:10;stroke-dasharray:none"
	id="g50">
		<a
	style="stroke-width:0.31060606;stroke-miterlimit:10;stroke-dasharray:none"
	id="a52"
	xlink:href="http://ja.wikipedia.org/wiki/那覇市">
			<g
	style="stroke-width:0.31060606;stroke-miterlimit:10;stroke-dasharray:none"
	id="use54">
				<path
	style="stroke-width:0.31060606;stroke-miterlimit:10;stroke-dasharray:none"
	id="_x34_7201"
	fill="#16a34a"
	stroke="#000000"
	stroke-width="0.25"
	stroke-linejoin="round"
	d="m 501,479 -1,-4 2,-6 -17,1 -8,-4 h -1 l -1,-1 h -2 l -1,-1 h -3 l 2,3 -2,5 5,-5 2,9 -10,3 6,6 -11,-6 -7,10 4,11 12,-2 6,-4 v -5 l 6,2 6,2 z" />
			</g>
		</a>
		<a
	style="stroke-width:0.31060606;stroke-miterlimit:10;stroke-dasharray:none"
	id="a56"
	xlink:href="http://ja.wikipedia.org/wiki/宜野湾市">
			<g
	style="stroke-width:0.31060606;stroke-miterlimit:10;stroke-dasharray:none"
	id="use58">
				<path
	style="stroke-width:0.31060606;stroke-miterlimit:10;stroke-dasharray:none"
	id="_x34_7205"
	fill="#16a34a"
	stroke="#000000"
	stroke-width="0.25"
	stroke-linejoin="round"
	d="m 520,450 5,-7 -4,-5 -10,1 -9,5 1,2 -5,-1 -2,5 2,3 1,7 5,-2 5,3 8,-1 z" />
			</g>
		</a>
		<a
	style="stroke-width:0.31060606;stroke-miterlimit:10;stroke-dasharray:none"
	id="a60"
	xlink:href="http://ja.wikipedia.org/wiki/浦添市">
			<g
	style="stroke-width:0.31060606;stroke-miterlimit:10;stroke-dasharray:none"
	id="use62">
				<path
	style="stroke-width:0.31060606;stroke-miterlimit:10;stroke-dasharray:none"
	id="_x34_7208"
	fill="#16a34a"
	stroke="#000000"
	stroke-width="0.25"
	stroke-linejoin="round"
	d="m 509,461 -5,-3 -5,2 -1,-7 -2,-3 h -9 l -7,10 -4,-1 v 3 l 1,4 8,4 17,-1 z m -37,3 2,-2 -5,2 z" />
			</g>
		</a>
		<a
	style="stroke-width:0.31060606;stroke-miterlimit:10;stroke-dasharray:none"
	id="a64"
	xlink:href="http://ja.wikipedia.org/wiki/名護市">
			<g
	style="stroke-width:0.31060606;stroke-miterlimit:10;stroke-dasharray:none"
	id="use66">
				<path
	style="stroke-width:0.31060606;stroke-miterlimit:10;stroke-dasharray:none"
	id="_x34_7209"
	fill="#16a34a"
	stroke="#000000"
	stroke-width="0.25"
	stroke-linejoin="round"
	d="m 634,237 -10,2 -3,8 5,4 3,1 2,-4 9,6 v -6 z m 47,66 h 8 v -7 l 6,-1 -6,-8 -5,-5 -5,1 -10,-9 1,-4 -6,-7 -2,-8 -13,5 h -9 l -4,4 -9,-2 -2,-5 -6,-3 -5,5 -2,-2 -2,3 -3,-2 h -2 l -6,5 -12,-2 -10,10 1,4 -1,1 7,2 5,-4 19,10 h 7 l 2,7 -4,9 -6,10 -5,-3 -5,6 -4,-4 -2,6 6,11 7,-1 4,-6 h 4 v -4 l 6,6 5,5 4,2 2,-5 7,2 4,-3 9,-2 -7,-13 -2,-4 4,-1 1,4 10,-3 4,3 10,7 -1,-4 4,1 1,-3 z" />
			</g>
		</a>
		<a
	style="stroke-width:0.31060606;stroke-miterlimit:10;stroke-dasharray:none"
	id="a68"
	xlink:href="http://ja.wikipedia.org/wiki/糸満市">
			<g
	style="stroke-width:0.31060606;stroke-miterlimit:10;stroke-dasharray:none"
	id="use70">
				<path
	style="stroke-width:0.31060606;stroke-miterlimit:10;stroke-dasharray:none"
	id="_x34_7210"
	fill="#16a34a"
	stroke="#000000"
	stroke-width="0.25"
	stroke-linejoin="round"
	d="m 499,542 -6,-4 -5,-12 3,-9 h -6 l -3,-3 5,-7 -1,-3 -16,9 -10,4 2,10 v -5 l 8,1 -3,2 2,5 h -3 l -2,19 7,3 4,2 7,-6 13,-2 z" />
			</g>
		</a>
		<a
	style="stroke-width:0.31060606;stroke-miterlimit:10;stroke-dasharray:none"
	id="a72"
	xlink:href="http://ja.wikipedia.org/wiki/沖縄市">
			<g
	style="stroke-width:0.31060606;stroke-miterlimit:10;stroke-dasharray:none"
	id="use74">
				<path
	style="stroke-width:0.31060606;stroke-miterlimit:10;stroke-dasharray:none"
	id="_x34_7211"
	fill="#16a34a"
	stroke="#000000"
	stroke-width="0.25"
	stroke-linejoin="round"
	d="m 529,425 5,-3 2,11 9,1 v -5 l 6,-1 2,-2 -6,-4 4,-4 -10,-13 7,-11 -5,-7 -3,3 -4,-6 -3,4 -8,-15 v -1 l -1,3 v 4 11 l -3,11 3,10 -4,2 -2,2 4,10 -1,2 h 3 l 3,1 z m 28,-3 -6,-4 -3,2 z" />
			</g>
		</a>
		<a
	style="stroke-width:0.31060606;stroke-miterlimit:10;stroke-dasharray:none"
	id="a76"
	xlink:href="http://ja.wikipedia.org/wiki/豊見城市">
			<g
	style="stroke-width:0.31060606;stroke-miterlimit:10;stroke-dasharray:none"
	id="use78">
				<path
	style="stroke-width:0.31060606;stroke-miterlimit:10;stroke-dasharray:none"
	id="_x34_7212"
	fill="#16a34a"
	stroke="#000000"
	stroke-width="0.25"
	stroke-linejoin="round"
	d="m 490,499 h 1 l -3,-6 -6,-2 -6,-2 v 5 l -6,4 -12,2 -2,1 h 6 l -2,2 10,10 16,-9 z" />
			</g>
		</a>
		<a
	style="stroke-width:0.31060606;stroke-miterlimit:10;stroke-dasharray:none"
	id="a80"
	xlink:href="http://ja.wikipedia.org/wiki/うるま市">
			<g
	style="stroke-width:0.31060606;stroke-miterlimit:10;stroke-dasharray:none"
	id="use82">
				<path
	style="stroke-width:0.31060606;stroke-miterlimit:10;stroke-dasharray:none"
	id="_x34_7213"
	fill="#16a34a"
	stroke="#000000"
	stroke-width="0.25"
	stroke-linejoin="round"
	d="m 565,390 -9,-6 -4,-3 3,-1 -6,-2 -6,-7 2,-4 5,2 1,-2 -1,-2 -3,-7 h -1 l -7,2 -14,12 v 1 l 8,15 3,-4 4,6 3,-3 5,7 -7,11 10,13 7,-5 h 3 l 19,23 2,-1 -1,3 1,-3 6,4 1,-4 -2,-8 -7,-7 5,-1 h -7 l -6,-4 -7,-10 1,-7 v -2 h 3 z m 61,-5 v -1 l -4,-1 -3,7 5,3 z m -14,22 9,-2 2,-5 -5,-3 1,-6 -7,5 -2,7 z m -2,0 -1,-5 -5,4 h -5 l -1,-3 2,11 -6,5 h -9 l 21,-3 7,-6 z m -53,15 1,-4 6,2 -4,-7 -9,5 z m 45,2 1,5 3,2 4,-8 -6,-2 z m -16,1 6,4 -3,-5 z m 11,41 3,-3 -1,-8 -4,1 -1,7 z" />
			</g>
		</a>
		<a
	style="stroke-width:0.31060606;stroke-miterlimit:10;stroke-dasharray:none"
	id="a84"
	xlink:href="http://ja.wikipedia.org/wiki/南城市">
			<g
	style="stroke-width:0.31060606;stroke-miterlimit:10;stroke-dasharray:none"
	id="use86">
				<path
	style="stroke-width:0.31060606;stroke-miterlimit:10;stroke-dasharray:none"
	id="_x34_7215"
	fill="#16a34a"
	stroke="#000000"
	stroke-width="0.25"
	stroke-linejoin="round"
	d="m 525,524 20,-18 1,-5 -5,-2 v -6 l -9,2 -7,9 -4,-1 v -8 l -1,-1 -5,2 -2,-5 -7,-2 -3,1 -5,15 1,8 4,1 11,13 6,-5 4,2 z m 58,-21 -13,8 1,1 z" />
			</g>
		</a>
		<a
	style="stroke-width:0.31060606;stroke-miterlimit:10;stroke-dasharray:none"
	id="a88"
	xlink:href="http://ja.wikipedia.org/wiki/国頭村">
			<g
	style="stroke-width:0.31060606;stroke-miterlimit:10;stroke-dasharray:none"
	id="use90">
				<path
	style="stroke-width:0.31060606;stroke-miterlimit:10;stroke-dasharray:none"
	id="_x34_7301"
	fill="#16a34a"
	stroke="#000000"
	stroke-width="0.25"
	stroke-linejoin="round"
	d="m 767,210 6,-3 v -4 l 4,-3 -3,-5 2,-14 -4,-4 1,-11 -6,-8 -1,-6 -2,-3 -5,2 -4,-4 -9,-8 1,-4 -4,-1 -5,8 4,5 -1,7 -9,17 v 3 l -12,15 -10,11 -16,4 4,4 -2,9 22,14 10,-9 9,2 1,7 10,12 5,-3 3,-12 7,-8 -2,-4 5,-1 z" />
			</g>
		</a>
		<a
	style="stroke-width:0.31060606;stroke-miterlimit:10;stroke-dasharray:none"
	id="a92"
	xlink:href="http://ja.wikipedia.org/wiki/大宜味村">
			<g
	style="stroke-width:0.31060606;stroke-miterlimit:10;stroke-dasharray:none"
	id="use94">
				<path
	style="stroke-width:0.31060606;stroke-miterlimit:10;stroke-dasharray:none"
	id="_x34_7302"
	fill="#16a34a"
	stroke="#000000"
	stroke-width="0.25"
	stroke-linejoin="round"
	d="m 718,231 -22,-14 -5,5 -13,3 -7,12 2,4 7,1 3,5 h -7 v -4 l -14,12 2,8 6,7 17,-17 11,3 z" />
			</g>
		</a>
		<a
	style="stroke-width:0.31060606;stroke-miterlimit:10;stroke-dasharray:none"
	id="a96"
	xlink:href="http://ja.wikipedia.org/wiki/東村">
			<g
	style="stroke-width:0.31060606;stroke-miterlimit:10;stroke-dasharray:none"
	id="use98">
				<path
	style="stroke-width:0.31060606;stroke-miterlimit:10;stroke-dasharray:none"
	id="_x34_7303"
	fill="#16a34a"
	stroke="#000000"
	stroke-width="0.25"
	stroke-linejoin="round"
	d="m 669,274 10,9 5,-1 v -1 l -2,-4 13,2 1,-6 -4,-6 2,-4 18,2 16,-2 7,-1 4,-5 5,-9 4,-1 v -4 l -10,-12 -1,-7 -9,-2 -10,9 -20,25 -11,-3 -17,17 z" />
			</g>
		</a>
		<a
	style="stroke-width:0.31060606;stroke-miterlimit:10;stroke-dasharray:none"
	id="a100"
	xlink:href="http://ja.wikipedia.org/wiki/今帰仁村">
			<g
	style="stroke-width:0.31060606;stroke-miterlimit:10;stroke-dasharray:none"
	id="use102">
				<path
	style="stroke-width:0.31060606;stroke-miterlimit:10;stroke-dasharray:none"
	id="_x34_7306"
	fill="#16a34a"
	stroke="#000000"
	stroke-width="0.25"
	stroke-linejoin="round"
	d="m 637,222 -5,-3 -4,3 5,7 z m -32,25 v 11 h 2 l 3,2 2,-3 2,2 5,-5 -3,-3 4,1 1,-11 7,-7 -14,-7 -4,3 -2,-2 2,-3 -8,-3 -16,3 -1,10 9,7 h 10 z" />
			</g>
		</a>
		<a
	style="stroke-width:0.31060606;stroke-miterlimit:10;stroke-dasharray:none"
	id="a104"
	xlink:href="http://ja.wikipedia.org/wiki/本部町">
			<g
	style="stroke-width:0.31060606;stroke-miterlimit:10;stroke-dasharray:none"
	id="use106">
				<path
	style="stroke-width:0.31060606;stroke-miterlimit:10;stroke-dasharray:none"
	id="_x34_7308"
	fill="#16a34a"
	stroke="#000000"
	stroke-width="0.25"
	stroke-linejoin="round"
	d="m 605,258 v -11 l -1,-5 h -10 l -9,-7 1,-10 h -12 l -6,-4 -3,12 3,4 7,10 -8,3 v 7 l 10,19 1,-1 -1,-4 10,-10 12,2 z m -46,6 6,-11 -4,-2 -5,3 z m -24,-10 6,1 -2,-3 z" />
			</g>
		</a>
		<a
	style="stroke-width:0.31060606;stroke-miterlimit:10;stroke-dasharray:none"
	id="a108"
	xlink:href="http://ja.wikipedia.org/wiki/恩納村">
			<g
	style="stroke-width:0.31060606;stroke-miterlimit:10;stroke-dasharray:none"
	id="use110">
				<path
	style="stroke-width:0.31060606;stroke-miterlimit:10;stroke-dasharray:none"
	id="_x34_7311"
	fill="#16a34a"
	stroke="#000000"
	stroke-width="0.25"
	stroke-linejoin="round"
	d="m 516,361 -12,11 4,4 6,-4 10,3 1,-3 14,-12 7,-2 h 1 l 3,-7 15,-9 9,1 v -4 l 5,-4 5,5 3,-9 h 4 l 6,-5 -6,-11 -3,1 -2,7 -5,-2 -8,4 -1,4 h -4 l -3,-4 -3,1 -2,3 -2,-3 -2,4 -4,-1 -3,4 3,7 -15,10 -5,8 -3,7 h -6 l -6,-6 z" />
			</g>
		</a>
		<a
	style="stroke-width:0.31060606;stroke-miterlimit:10;stroke-dasharray:none"
	id="a112"
	xlink:href="http://ja.wikipedia.org/wiki/宜野座村">
			<g
	style="stroke-width:0.31060606;stroke-miterlimit:10;stroke-dasharray:none"
	id="use114">
				<path
	style="stroke-width:0.31060606;stroke-miterlimit:10;stroke-dasharray:none"
	id="_x34_7313"
	fill="#16a34a"
	stroke="#000000"
	stroke-width="0.25"
	stroke-linejoin="round"
	d="m 620,343 6,-5 -4,-6 -2,-3 3,-3 -5,-5 -6,-6 v 4 h -4 l -4,6 -7,1 -6,5 -1,2 10,17 1,-1 2,-4 6,3 z" />
			</g>
		</a>
		<a
	style="stroke-width:0.31060606;stroke-miterlimit:10;stroke-dasharray:none"
	id="a116"
	xlink:href="http://ja.wikipedia.org/wiki/金武町">
			<g
	style="stroke-width:0.31060606;stroke-miterlimit:10;stroke-dasharray:none"
	id="use118">
				<path
	style="stroke-width:0.31060606;stroke-miterlimit:10;stroke-dasharray:none"
	id="_x34_7314"
	fill="#16a34a"
	stroke="#000000"
	stroke-width="0.25"
	stroke-linejoin="round"
	d="m 576,357 9,2 4,4 11,1 -2,-5 2,-4 v -5 l -10,-17 1,-2 h -4 l -3,9 -5,-5 -5,4 v 4 l -9,-1 -15,9 -3,7 3,7 1,-1 4,-7 8,-4 h 8 z" />
			</g>
		</a>
		<a
	style="stroke-width:0.31060606;stroke-miterlimit:10;stroke-dasharray:none"
	id="a120"
	xlink:href="http://ja.wikipedia.org/wiki/伊江村">
			<g
	style="stroke-width:0.31060606;stroke-miterlimit:10;stroke-dasharray:none"
	id="use122">
				<path
	style="stroke-width:0.31060606;stroke-miterlimit:10;stroke-dasharray:none"
	id="_x34_7315"
	fill="#16a34a"
	stroke="#000000"
	stroke-width="0.25"
	stroke-linejoin="round"
	d="m 530,222 3,2 11,-3 1,-6 -9,-8 -18,1 h -9 l -2,7 4,7 z" />
			</g>
		</a>
		<a
	style="stroke-width:0.31060606;stroke-miterlimit:10;stroke-dasharray:none"
	id="a124"
	xlink:href="http://ja.wikipedia.org/wiki/読谷村">
			<g
	style="stroke-width:0.31060606;stroke-miterlimit:10;stroke-dasharray:none"
	id="use126">
				<path
	style="stroke-width:0.31060606;stroke-miterlimit:10;stroke-dasharray:none"
	id="_x34_7324"
	fill="#16a34a"
	stroke="#000000"
	stroke-width="0.25"
	stroke-linejoin="round"
	d="m 495,388 8,15 14,-4 -1,-3 8,-17 v -4 l -10,-3 -6,4 -4,-4 -4,-1 -4,-8 h -7 l 3,2 -2,14 z" />
			</g>
		</a>
		<a
	style="stroke-width:0.31060606;stroke-miterlimit:10;stroke-dasharray:none"
	id="a128"
	xlink:href="http://ja.wikipedia.org/wiki/嘉手納町">
			<g
	style="stroke-width:0.31060606;stroke-miterlimit:10;stroke-dasharray:none"
	id="use130">
				<path
	style="stroke-width:0.31060606;stroke-miterlimit:10;stroke-dasharray:none"
	id="_x34_7325"
	fill="#16a34a"
	stroke="#000000"
	stroke-width="0.25"
	stroke-linejoin="round"
	d="m 520,413 4,-2 -3,-10 3,-11 v -11 l -8,17 1,3 -14,4 -1,2 3,9 7,1 z" />
			</g>
		</a>
		<a
	style="stroke-width:0.31060606;stroke-miterlimit:10;stroke-dasharray:none"
	id="a132"
	xlink:href="http://ja.wikipedia.org/wiki/北谷町">
			<g
	style="stroke-width:0.31060606;stroke-miterlimit:10;stroke-dasharray:none"
	id="use134">
				<path
	style="stroke-width:0.31060606;stroke-miterlimit:10;stroke-dasharray:none"
	id="_x34_7326"
	fill="#16a34a"
	stroke="#000000"
	stroke-width="0.25"
	stroke-linejoin="round"
	d="m 524,428 v -1 h -3 l 1,-2 -4,-10 2,-2 -8,2 -7,-1 -1,6 3,5 h 3 l 1,14 10,-1 -1,-6 z" />
			</g>
		</a>
		<a
	style="stroke-width:0.31060606;stroke-miterlimit:10;stroke-dasharray:none"
	id="a136"
	xlink:href="http://ja.wikipedia.org/wiki/北中城村">
			<g
	style="stroke-width:0.31060606;stroke-miterlimit:10;stroke-dasharray:none"
	id="use138">
				<path
	style="stroke-width:0.31060606;stroke-miterlimit:10;stroke-dasharray:none"
	id="_x34_7327"
	fill="#16a34a"
	stroke="#000000"
	stroke-width="0.25"
	stroke-linejoin="round"
	d="m 545,434 -9,-1 -2,-11 -5,3 -2,3 -3,-1 v 1 l -4,4 1,6 4,5 7,1 6,-3 -2,-4 3,-4 z" />
			</g>
		</a>
		<a
	style="stroke-width:0.31060606;stroke-miterlimit:10;stroke-dasharray:none"
	id="a140"
	xlink:href="http://ja.wikipedia.org/wiki/中城村">
			<g
	style="stroke-width:0.31060606;stroke-miterlimit:10;stroke-dasharray:none"
	id="use142">
				<path
	style="stroke-width:0.31060606;stroke-miterlimit:10;stroke-dasharray:none"
	id="_x34_7328"
	fill="#16a34a"
	stroke="#000000"
	stroke-width="0.25"
	stroke-linejoin="round"
	d="m 515,466 10,6 5,-18 7,-4 1,-9 -6,3 -7,-1 -5,7 -3,10 z" />
			</g>
		</a>
		<a
	style="stroke-width:0.31060606;stroke-miterlimit:10;stroke-dasharray:none"
	id="a144"
	xlink:href="http://ja.wikipedia.org/wiki/西原町">
			<g
	style="stroke-width:0.31060606;stroke-miterlimit:10;stroke-dasharray:none"
	id="use146">
				<path
	style="stroke-width:0.31060606;stroke-miterlimit:10;stroke-dasharray:none"
	id="_x34_7329"
	fill="#16a34a"
	stroke="#000000"
	stroke-width="0.25"
	stroke-linejoin="round"
	d="m 504,481 9,2 11,-8 4,3 -3,-6 -10,-6 2,-6 -8,1 -7,8 -2,6 1,4 z" />
			</g>
		</a>
		<a
	style="stroke-width:0.31060606;stroke-miterlimit:10;stroke-dasharray:none"
	id="a148"
	xlink:href="http://ja.wikipedia.org/wiki/与那原町">
			<g
	style="stroke-width:0.31060606;stroke-miterlimit:10;stroke-dasharray:none"
	id="use150">
				<path
	style="stroke-width:0.31060606;stroke-miterlimit:10;stroke-dasharray:none"
	id="_x34_7348"
	fill="#16a34a"
	stroke="#000000"
	stroke-width="0.25"
	stroke-linejoin="round"
	d="m 513,483 -9,-2 2,5 v 3 l 7,2 2,5 5,-2 -4,-6 -6,-1 z" />
			</g>
		</a>
		<a
	style="stroke-width:0.31060606;stroke-miterlimit:10;stroke-dasharray:none"
	id="a152"
	xlink:href="http://ja.wikipedia.org/wiki/南風原町">
			<g
	style="stroke-width:0.31060606;stroke-miterlimit:10;stroke-dasharray:none"
	id="use154">
				<path
	style="stroke-width:0.31060606;stroke-miterlimit:10;stroke-dasharray:none"
	id="_x34_7350"
	fill="#16a34a"
	stroke="#000000"
	stroke-width="0.25"
	stroke-linejoin="round"
	d="m 491,499 7,6 5,-15 3,-1 v -3 l -2,-5 -3,-2 -13,14 z" />
			</g>
		</a>
		<a
	style="stroke-width:0.31060606;stroke-miterlimit:10;stroke-dasharray:none"
	id="a156"
	xlink:href="http://ja.wikipedia.org/wiki/渡嘉敷村">
			<g
	style="stroke-width:0.31060606;stroke-miterlimit:10;stroke-dasharray:none"
	id="use158">
				<path
	style="stroke-width:0.31060606;stroke-miterlimit:10;stroke-dasharray:none"
	id="_x34_7353"
	fill="#16a34a"
	stroke="#000000"
	stroke-width="0.25"
	stroke-linejoin="round"
	d="m 327,472 2,4 1,-3 -2,-4 z m -1,25 4,-3 1,-5 h -3 l 3,-2 -1,-4 -1,-5 -6,-3 -2,2 -4,11 2,8 -5,1 1,7 4,2 -2,6 2,5 1,-5 4,-1 v -13 z m 38,-9 6,-10 -3,-3 -6,13 z" />
			</g>
		</a>
		<a
	style="stroke-width:0.31060606;stroke-miterlimit:10;stroke-dasharray:none"
	id="a160"
	xlink:href="http://ja.wikipedia.org/wiki/座間味村">
			<g
	style="stroke-width:0.31060606;stroke-miterlimit:10;stroke-dasharray:none"
	id="use162">
				<path
	style="stroke-width:0.31060606;stroke-miterlimit:10;stroke-dasharray:none"
	id="_x34_7354"
	fill="#16a34a"
	stroke="#000000"
	stroke-width="0.25"
	stroke-linejoin="round"
	d="m 310,471 1,-4 -8,-2 -2,-4 -1,6 -3,2 -3,-3 -1,4 -6,2 7,4 3,-2 3,5 3,-6 -2,-4 3,-2 2,6 5,1 z m -43,9 2,4 4,-7 h -5 z m 33,3 2,7 2,-4 -4,-7 z m -8,9 -5,-11 -7,8 1,1 4,1 v 4 z m -4,6 2,3 4,-1 -3,-5 z m -19,10 1,-7 -3,-3 -3,9 z m 24,0 1,-6 -4,4 z" />
			</g>
		</a>
		<a
	style="stroke-width:0.31060606;stroke-miterlimit:10;stroke-dasharray:none"
	id="a164"
	xlink:href="http://ja.wikipedia.org/wiki/粟国村">
			<g
	style="stroke-width:0.31060606;stroke-miterlimit:10;stroke-dasharray:none"
	id="use166">
				<path
	style="stroke-width:0.31060606;stroke-miterlimit:10;stroke-dasharray:none"
	id="_x34_7355"
	fill="#16a34a"
	stroke="#000000"
	stroke-width="0.25"
	stroke-linejoin="round"
	d="m 269,291 2,-8 -4,-5 -7,3 -7,10 h 7 z" />
			</g>
		</a>
		<a
	style="stroke-width:0.31060606;stroke-miterlimit:10;stroke-dasharray:none"
	id="a168"
	xlink:href="http://ja.wikipedia.org/wiki/渡名喜村">
			<g
	style="stroke-width:0.31060606;stroke-miterlimit:10;stroke-dasharray:none"
	id="use170">
				<path
	style="stroke-width:0.31060606;stroke-miterlimit:10;stroke-dasharray:none"
	id="_x34_7356"
	fill="#16a34a"
	stroke="#000000"
	stroke-width="0.25"
	stroke-linejoin="round"
	d="m 224,408 v 3 l 4,-4 3,-4 h -2 -3 l -2,-10 -3,3 -1,6 z" />
			</g>
		</a>
		<a
	style="stroke-width:0.31060606;stroke-miterlimit:10;stroke-dasharray:none"
	id="a172"
	xlink:href="http://ja.wikipedia.org/wiki/伊平屋村">
			<g
	style="stroke-width:0.31060606;stroke-miterlimit:10;stroke-dasharray:none"
	id="use174">
				<path
	style="stroke-width:0.31060606;stroke-miterlimit:10;stroke-dasharray:none"
	id="_x34_7359"
	fill="#16a34a"
	stroke="#000000"
	stroke-width="0.25"
	stroke-linejoin="round"
	d="m 592,71 2,1 4,-13 8,-1 2,-8 11,-4 5,-16 10,-9 -10,2 -14,11 -9,12 -9,12 2,10 z m -9,1 4,3 5,-5 -5,-2 z" />
			</g>
		</a>
		<a
	style="stroke-width:0.31060606;stroke-miterlimit:10;stroke-dasharray:none"
	id="a176"
	xlink:href="http://ja.wikipedia.org/wiki/伊是名村">
			<g
	style="stroke-width:0.31060606;stroke-miterlimit:10;stroke-dasharray:none"
	id="use178">
				<path
	style="stroke-width:0.31060606;stroke-miterlimit:10;stroke-dasharray:none"
	id="_x34_7360"
	fill="#16a34a"
	stroke="#000000"
	stroke-width="0.25"
	stroke-linejoin="round"
	d="m 600,107 3,-9 -8,-6 -10,6 -3,4 5,1 -1,8 9,5 6,-1 z m -14,14 1,4 h 6 l -4,-2 2,-2 z" />
			</g>
		</a>
		<a
	style="stroke-width:0.31060606;stroke-miterlimit:10;stroke-dasharray:none"
	id="a180"
	xlink:href="http://ja.wikipedia.org/wiki/久米島町">
			<g
	style="stroke-width:0.31060606;stroke-miterlimit:10;stroke-dasharray:none"
	id="use182">
				<path
	style="stroke-width:0.31060606;stroke-miterlimit:10;stroke-dasharray:none"
	id="_x34_7361"
	fill="#16a34a"
	stroke="#000000"
	stroke-width="0.25"
	stroke-linejoin="round"
	d="m 46,419 8,14 11,6 1,1 -2,-12 1,-8 9,-9 -6,-4 -2,-7 -8,-5 -5,-7 -5,-1 -9,4 -12,5 -6,1 -2,5 4,-5 -5,8 4,4 3,2 -5,-4 1,-4 7,8 15,2 -2,2 z m 49,-7 h 8 l 5,-3 z m -16,3 3,1 -1,-3 z m -8,1 h 7 l -3,-3 z" />
			</g>
		</a>
		<a
	style="stroke-width:0.31060606;stroke-miterlimit:10;stroke-dasharray:none"
	id="a184"
	xlink:href="http://ja.wikipedia.org/wiki/八重瀬町">
			<g
	style="stroke-width:0.31060606;stroke-miterlimit:10;stroke-dasharray:none"
	id="use186">
				<path
	style="stroke-width:0.31060606;stroke-miterlimit:10;stroke-dasharray:none"
	id="_x34_7362"
	fill="#16a34a"
	stroke="#000000"
	stroke-width="0.25"
	stroke-linejoin="round"
	d="m 514,527 -11,-13 -4,-1 -1,-8 -7,-6 h -1 l -4,5 1,3 -5,7 3,3 h 6 l -3,9 5,12 6,4 5,-7 z" />
			</g>
		</a>
	</g><path
	id="path188"
	fill="#eeeeee"
	stroke="#000000"
	stroke-width="0.160976"
	stroke-miterlimit="10"
	d="m 303.92196,311.64878 6.43902,4.50732 -2.57561,1.93171 z m 177.71707,-171.27804 -3.86342,-1.93171 v -2.57561 l 0.64391,2.57561 4.50731,3.21951 -3.86341,0.6439 z m -0.6439,-25.7561 4.50731,1.2878 h -4.50731 l -0.64391,2.57561 -1.2878,-2.57561 z m -10.94635,44.42927 -3.21951,4.50731 3.86342,1.28781 1.2878,-3.86342 1.28781,5.15122 -9.65854,-3.21951 -7.08293,1.28781 -2.57561,-1.28781 h 4.50732 l 1.93171,-3.86341 -1.28781,3.86341 h 1.93171 l 0.6439,-2.57561 0.64391,1.93171 3.86341,-3.21951 -2.57561,2.57561 3.86341,1.2878 z m -84.35122,56.01951 2.57561,2.57561 -1.2878,1.2878 z" />
<rect
	style="stroke-width:0.643902"
	id="rect196"
	x="450.73172"
	y="302.63416"
	fill="#ffffff"
	width="70.829269"
	height="77.268295" /><rect
	style="stroke-width:0.643902"
	id="rect198"
	y="309.07318"
	fill="#eeeeee"
	width="57.951218"
	height="64.390244"
	x="457.17072" /><g
	style="stroke-width:0.31060606;stroke-miterlimit:10;stroke-dasharray:none"
	transform="matrix(0.64390244,0,0,0.64390244,457.17074,309.07317)"
	id="g200">
		<a
	style="stroke-width:0.31060606;stroke-miterlimit:10;stroke-dasharray:none"
	id="a202"
	xlink:href="http://ja.wikipedia.org/wiki/南大東村">
			<g
	style="stroke-width:0.31060606;stroke-miterlimit:10;stroke-dasharray:none"
	id="use204">
				<path
	style="stroke-width:0.31060606;stroke-miterlimit:10;stroke-dasharray:none"
	id="_x34_7357"
	fill="#16a34a"
	stroke="#000000"
	stroke-width="0.25"
	stroke-linejoin="round"
	d="m 18,84 13,6 7,-2 5,-6 3,-13 -3,-6 -13,-4 -9,3 -1,8 z" />
			</g>
		</a>
		<a
	style="stroke-width:0.31060606;stroke-miterlimit:10;stroke-dasharray:none"
	id="a206"
	xlink:href="http://ja.wikipedia.org/wiki/北大東村">
			<g
	style="stroke-width:0.31060606;stroke-miterlimit:10;stroke-dasharray:none"
	id="use208">
				<path
	style="stroke-width:0.31060606;stroke-miterlimit:10;stroke-dasharray:none"
	id="_x34_7358"
	fill="#16a34a"
	stroke="#000000"
	stroke-width="0.25"
	stroke-linejoin="round"
	d="m 74,17 -22,-5 -1,3 7,13 h 11 z" />
			</g>
		</a>
	</g>
<rect
	style="stroke-width:0.643902"
	id="rect215"
	x="225.36584"
	y="-6.4390244"
	fill="#ffffff"
	width="135.21951"
	height="122.34146" /><rect
	style="stroke-width:0.643902"
	id="rect217"
	y="0"
	fill="#eeeeee"
	width="122.34146"
	height="109.46342"
	x="231.80487" /><g
	style="stroke-width:0.31060606;stroke-miterlimit:10;stroke-dasharray:none"
	transform="matrix(0.64390244,0,0,0.64390244,231.80488,-4.8394775e-8)"
	id="g219">
		<a
	style="stroke-width:0.31060606;stroke-miterlimit:10;stroke-dasharray:none"
	id="a221"
	xlink:href="http://ja.wikipedia.org/wiki/宮古島市">
			<g
	style="stroke-width:0.31060606;stroke-miterlimit:10;stroke-dasharray:none"
	id="use223">
				<path
	style="stroke-width:0.31060606;stroke-miterlimit:10;stroke-dasharray:none"
	id="_x34_7214"
	fill="#16a34a"
	stroke="#000000"
	stroke-width="0.25"
	stroke-linejoin="round"
	d="m 70,32 -1,-3 5,1 -4,-6 -2,-2 -6,2 1,4 z m 27,2 3,1 -2,-3 z m 67,100 2,-1 2,-2 7,6 -11,-13 -6,-9 -9,-1 -10,-5 -5,-7 -6,-3 -7,2 -9,-5 -3,-7 2,-6 -10,-7 -4,-11 -3,-11 -7,-2 -6,-13 -3,-5 3,6 -4,1 -4,-4 4,5 5,10 3,6 7,11 1,7 -5,-4 -3,2 v 17 l -7,4 -3,-1 -1,7 10,8 2,9 v 3 h -8 l -2,-10 -4,7 4,11 10,5 6,4 1,-8 v 8 l 6,3 8,-4 11,-1 8,-3 5,1 20,-1 z M 33,85 l 3,4 10,3 10,-2 V 80 L 52,70 42,66 29,62 l -3,3 2,9 -2,2 h 1 z m -2,9 5,-5 -4,-4 -6,-8 2,4 -5,-3 -5,-5 -2,9 5,9 8,3 2,-1 z m 42,46 1,-5 -5,-4 h -3 l -1,5 4,4 z" />
			</g>
		</a>
	</g>
<rect
	style="stroke-width:0.643902"
	id="rect230"
	x="225.36584"
	y="83.707314"
	fill="#ffffff"
	width="45.07317"
	height="70.829269" /><rect
	style="stroke-width:0.643902"
	id="rect232"
	y="90.146339"
	fill="#eeeeee"
	width="32.195122"
	height="57.951218"
	x="231.80487" /><g
	style="stroke-width:0.31060606;stroke-miterlimit:10;stroke-dasharray:none"
	transform="matrix(0.64390244,0,0,0.64390244,231.80488,90.146342)"
	id="g234">
		<a
	style="stroke-width:0.31060606;stroke-miterlimit:10;stroke-dasharray:none"
	id="a236"
	xlink:href="http://ja.wikipedia.org/wiki/多良間村">
			<g
	style="stroke-width:0.31060606;stroke-miterlimit:10;stroke-dasharray:none"
	id="use238">
				<path
	style="stroke-width:0.31060606;stroke-miterlimit:10;stroke-dasharray:none"
	id="_x34_7375"
	fill="#16a34a"
	stroke="#000000"
	stroke-width="0.25"
	stroke-linejoin="round"
	d="m 16,15 12,5 -6,-8 z m 20,46 -13,-5 -7,3 -5,6 v 5 l 4,6 14,1 7,-4 z" />
			</g>
		</a>
	</g>
<rect
	style="stroke-width:0.643902"
	id="rect246"
	x="-6.4390244"
	y="-6.4390244"
	fill="#ffffff"
	width="238.2439"
	height="160.97562" /><rect
	style="stroke-width:0.643902"
	id="rect248"
	y="0"
	fill="#eeeeee"
	width="225.36586"
	height="148.09756"
	x="0" /><g
	style="stroke-width:0.31060606;stroke-miterlimit:10;stroke-dasharray:none"
	transform="scale(0.64390244)"
	id="g250">
		<a
	style="stroke-width:0.31060606;stroke-miterlimit:10;stroke-dasharray:none"
	id="a252"
	xlink:href="http://ja.wikipedia.org/wiki/石垣市">
			<g
	style="stroke-width:0.31060606;stroke-miterlimit:10;stroke-dasharray:none"
	id="use254">
				<path
	style="stroke-width:0.31060606;stroke-miterlimit:10;stroke-dasharray:none"
	id="_x34_7207a"
	fill="#16a34a"
	stroke="#000000"
	stroke-width="0.25"
	stroke-linejoin="round"
	d="m 260,94 -13,-3 -3,3 -3,4 -3,-3 4,-2 v -4 l -2,-8 -10,-4 -2,2 6,4 -3,3 v 10 h -6 l -3,-4 h -10 l -5,11 8,8 4,-6 7,-3 h 7 l 5,9 5,2 1,9 -1,4 -1,-3 -14,13 6,6 10,3 2,4 -2,3 10,4 12,-2 5,-6 -2,-4 5,-1 11,6 6,-3 3,-5 4,-28 -4,-10 3,-6 -3,-7 3,-9 12,-7 V 64 l 5,-4 7,-7 -1,-4 v -6 l 8,-7 6,-6 2,-10 v -8 l -10,-3 -3,6 -5,11 -8,9 4,11 -3,2 -4,15 -1,2 -8,-8 -2,2 -7,9 h -6 l 2,5 -4,8 v 9 l -8,-1 -8,1 z m -16,-5 2,3 1,-1 -2,-4 z" />
			</g>
		</a>
		<a
	style="stroke-width:0.31060606;stroke-miterlimit:10;stroke-dasharray:none"
	id="a256"
	xlink:href="http://ja.wikipedia.org/wiki/竹富町">
			<g
	style="stroke-width:0.31060606;stroke-miterlimit:10;stroke-dasharray:none"
	id="use258">
				<path
	style="stroke-width:0.31060606;stroke-miterlimit:10;stroke-dasharray:none"
	id="_x34_7381a"
	fill="#16a34a"
	stroke="#000000"
	stroke-width="0.25"
	stroke-linejoin="round"
	d="m 86,81 5,3 -1,-4 z m -30,100 12,4 h 5 l 9,3 13,-1 7,3 7,5 h 8 l 2,-7 -2,-5 h 3 l 7,3 v -16 l 5,-11 8,5 v -14 l 5,-8 1,-4 -9,-1 -7,-9 h -9 l -3,-8 -6,-3 -3,5 -4,-4 h -4 l -6,-2 -8,9 -4,-6 4,1 -3,-1 1,-5 -6,-3 -8,-11 -8,1 v 4 l 4,2 -1,3 -5,2 -5,6 1,6 -5,-1 5,10 -5,3 5,5 -3,10 2,14 -4,-4 -2,3 -1,-8 -4,1 v -7 l -4,2 -2,5 -5,-10 -3,1 6,15 -4,2 v -2 l -1,-5 -7,-3 -2,5 3,7 -9,-2 -4,2 7,11 2,3 10,1 8,1 2,-10 5,1 z m -14,-48 3,-1 -2,-2 -6,3 3,5 z m 1,6 2,4 6,5 1,-4 -5,-6 z m 127,10 -9,-6 -4,3 3,5 -9,4 16,1 4,4 5,-3 z m 41,10 4,7 8,-5 -7,-10 z m -29,54 6,-5 1,-5 -3,-5 -4,2 -7,-4 -5,4 3,7 6,7 z m -31,-6 2,-3 -3,-2 -6,9 z m -14,8 3,4 4,-1 -1,-5 z" />
			</g>
		</a>
	</g>
<g
	style="stroke-width:0.31060606;stroke-miterlimit:10;stroke-dasharray:none"
	transform="matrix(0.64390244,0,0,0.64390244,193.17074,115.90244)"
	id="g260">
	<rect
	style="stroke-width:0.31060606;stroke-miterlimit:10;stroke-dasharray:none"
	height="70"
	width="70"
	fill="#ffffff"
	y="-10"
	x="-10"
	id="rect265" />
	<rect
	style="stroke-width:0.31060606;stroke-miterlimit:10;stroke-dasharray:none"
	x="0"
	height="50"
	width="50"
	fill="#eeeeee"
	y="0"
	id="rect267" />
	<g
	style="stroke-width:0.31060606;stroke-miterlimit:10;stroke-dasharray:none"
	id="g269">
		<a
	style="stroke-width:0.31060606;stroke-miterlimit:10;stroke-dasharray:none"
	xlink:href="http://ja.wikipedia.org/wiki/竹富町"
	id="a271">
			<g
	style="stroke-width:0.31060606;stroke-miterlimit:10;stroke-dasharray:none"
	id="use273">
				<path
	style="stroke-width:0.31060606;stroke-miterlimit:10;stroke-dasharray:none"
	d="M 39,24 29,18 12,23 v 4 l 6,4 12,1 h 1 l 6,-2 z"
	stroke-linejoin="round"
	stroke-width="0.25"
	stroke="#000000"
	fill="#16a34a"
	id="_x34_7381b" />
			</g>
		</a>
	</g>
</g>
<rect
	style="stroke-width:0.643902"
	id="rect280"
	x="-6.4390244"
	y="-6.4390244"
	fill="#ffffff"
	width="64.390244"
	height="45.07317" /><rect
	style="stroke-width:0.643902"
	id="rect282"
	y="0"
	fill="#eeeeee"
	width="51.512196"
	height="32.195122"
	x="0" /><g
	style="stroke-width:0.31060606;stroke-miterlimit:10;stroke-dasharray:none"
	transform="scale(0.64390244)"
	id="g284">
		<a
	style="stroke-width:0.31060606;stroke-miterlimit:10;stroke-dasharray:none"
	id="a286"
	xlink:href="http://ja.wikipedia.org/wiki/与那国町">
			<g
	style="stroke-width:0.31060606;stroke-miterlimit:10;stroke-dasharray:none"
	id="use288">
				<path
	style="stroke-width:0.31060606;stroke-miterlimit:10;stroke-dasharray:none"
	id="_x34_7382"
	fill="#16a34a"
	stroke="#000000"
	stroke-width="0.25"
	stroke-linejoin="round"
	d="m 43,35 7,2 5,-5 9,-10 -16,-5 -14,3 -8,-2 -3,3 -7,5 v 4 h -3 l 6,3 13,4 5,-4 z" />
			</g>
		</a>
	</g>
<rect
	style="stroke-width:0.643902"
	id="rect295"
	x="51.512192"
	y="-6.4390244"
	fill="#ffffff"
	width="64.390244"
	height="45.07317" /><rect
	style="stroke-width:0.643902"
	id="rect297"
	y="0"
	fill="#eeeeee"
	width="51.512196"
	height="32.195122"
	x="57.951218" /><g
	style="stroke-width:0.31060606;stroke-miterlimit:10;stroke-dasharray:none"
	transform="matrix(0.64390244,0,0,0.64390244,57.95122,-4.8394775e-8)"
	id="g299">
		<a
	style="stroke-width:0.31060606;stroke-miterlimit:10;stroke-dasharray:none"
	id="a301"
	xlink:href="http://ja.wikipedia.org/wiki/石垣市">
			<g
	style="stroke-width:0.31060606;stroke-miterlimit:10;stroke-dasharray:none"
	id="use303">
				<path
	style="stroke-width:0.31060606;stroke-miterlimit:10;stroke-dasharray:none"
	id="_x34_7207b"
	fill="#16a34a"
	stroke="#000000"
	stroke-width="0.25"
	stroke-linejoin="round"
	d="m 34,24 2,-2 -7,-3 -9,6 2,2 4,-1 z m 23,5 2,3 v -4 z m 4,4 v 1 l 4,-1 z" />
			</g>
		</a>
	</g>

<g
	transform="matrix(0.88070168,0,0,0.88070168,-248.51324,332.09097)"
	id="g26"><rect
	  id="rect28"
	  height="36"
	  width="246"
	  y="4"
	  x="289"
	  opacity="0.75"
	  fill="#ffffff" /><rect
	  id="rect30"
	  height="8"
	  width="238"
	  y="8"
	  x="293"
	  fill="#000000" /><text
	  style="line-height:0%"
	  id="text32"
	  y="36"
	  x="412"
	  font-family="sans-serif"
	  font-size="24px"
	  text-anchor="middle"
	  fill="#000000">50km</text></g></svg>
