<?xml version="1.0" encoding="UTF-8" standalone="no"?>
<svg
   xmlns:dc="http://purl.org/dc/elements/1.1/"
   xmlns:cc="http://creativecommons.org/ns#"
   xmlns:rdf="http://www.w3.org/1999/02/22-rdf-syntax-ns#"
   xmlns:svg="http://www.w3.org/2000/svg"
   xmlns="http://www.w3.org/2000/svg"
   xmlns:sodipodi="http://sodipodi.sourceforge.net/DTD/sodipodi-0.dtd"
   xmlns:inkscape="http://www.inkscape.org/namespaces/inkscape"
   inkscape:version="1.0 (4035a4fb49, 2020-05-01)"
   sodipodi:docname="Yamagata.svg"
   id="svg32"
   version="1.1"
   height="618"
   width="378">
  <metadata
     id="metadata38">
    <rdf:RDF>
      <cc:Work
         rdf:about="">
        <dc:format>image/svg+xml</dc:format>
        <dc:type
           rdf:resource="http://purl.org/dc/dcmitype/StillImage" />
      </cc:Work>
    </rdf:RDF>
  </metadata>
  <defs
     id="defs36" />
  <sodipodi:namedview
     inkscape:current-layer="svg32"
     inkscape:window-maximized="1"
     inkscape:window-y="-8"
     inkscape:window-x="-8"
     inkscape:cy="353.81377"
     inkscape:cx="130.54136"
     inkscape:zoom="1.9634227"
     showgrid="false"
     id="namedview34"
     inkscape:window-height="1017"
     inkscape:window-width="1920"
     inkscape:pageshadow="2"
     inkscape:pageopacity="0"
     guidetolerance="10"
     gridtolerance="10"
     objecttolerance="10"
     borderopacity="1"
     bordercolor="#666666"
     pagecolor="#ffffff" />
  <title
     id="title2">地図 ナンバープレート 山形県</title>
  <desc
     id="desc4">Author: Lincun</desc>
  <rect
     id="rect6"
     height="618"
     width="378"
     y="0"
     x="0"
     fill="#eeeeee" />
  <path
     fill="#cccccc"
     d="m 379,132 -1,-1 -4,3 -5,8 -10,5 -7,-4 -2,3 -3,1 -3,-2 -1,4 -2,-1 -4,3 -4,-1 -2,-5 -2,10 5,4 1,3 2,-1 8,5 v 3 l 2,1 -1,9 3,8 7,4 3,-2 3,3 -4,4 -1,5 -3,3 v 4 l -4,3 v 7 l 5,2 v 3 l -1,6 -4,8 -2,7 -4,2 -6,-2 -2,-4 h -5 l -2,5 1,2 3,7 3,2 -1,4 4,2 -1,1 3,9 -3,3 1,2 -2,4 -3,3 1,3 4,2 -1,2 1,2 -2,2 2,1 -1,2 6,5 6,3 1,9 4,1 -1,1 h -2 l -3,5 -1,2 -2,-2 h -2 l -2,2 v 5 l -2,4 2,8 -5,6 -3,1 -2,5 -5,1 -3,4 3,12 -3,4 -5,-2 -1,4 -3,1 2,8 -3,3 -5,1 v 8 1 6 l -1,1 2,3 -1,4 2,5 1,8 -4,4 v 5 l -3,2 -4,4 -1,2 1,3 -6,3 v 3 l -3,5 2,6 -2,3 -4,4 -6,-1 -1,3 -2,3 -6,-1 -2,2 h -2 l -8,-1 -4,1 -7,-2 -1,1 2,3 -3,8 5,9 -3,4 -2,6 2,2 5,2 2,1 2,2 h 1 l 1,2 h 4 l 2,3 v -2 l 6,2 1,-3 4,1 h 1 l 4,1 v -5 l 4,-3 h 2 l 1,4 6,4 5,-2 1,2 h 4 l 4,2 -2,4 2,10 3,4 2,1 h 3 l 1,-2 4,1 2,-3 3,2 7,-2 3,-2 1,-3 5,5 5,1 5,-3 1,1 3,5 5,1 5,-2 2,3 8,2 -2,6 1,1 1,8 -4,6 2,2 v 6 l 3,4 z M 136,-1 v 2 h 1 l -1,4 -5,12 -1,5 4,1 v 3 l -3,14 -1,2 -3,2 v 4 l -1,6 -3,1 h 11 l 12,2 1,-2 14,5 1,-4 3,-3 17,-4 v 9 l 2,5 -2,2 4,3 h 6 l 6,3 1,4 3,2 3,-1 4,6 h 2 l 2,-2 2,2 2,-3 4,-2 4,1 1,3 -1,7 4,1 4,2 5,-1 2,1 3,-3 8,3 2,3 5,2 3,-7 3,-1 5,3 h 5 l 2,8 2,4 2,1 4,1 5,-1 1,2 6,-1 5,8 1,7 -1,3 4,10 3,2 3,-1 3,6 1,1 1,1 12,-1 3,4 2,5 4,1 4,-3 2,1 1,-4 3,2 3,-1 2,-3 7,4 10,-5 5,-8 4,-3 1,1 V -1 Z m 243,574 -3,-4 v -6 l -2,-2 4,-6 -1,-8 -1,-1 2,-6 -8,-2 -2,-3 -5,2 -5,-1 -3,-5 -1,-1 -5,3 -5,-1 -5,-5 -1,3 -3,2 -7,2 -3,-2 -2,3 -4,-1 -1,2 h -3 l -2,-1 -3,-4 -2,-10 2,-4 -4,-2 h -4 l -1,-2 -5,2 -6,-4 -1,-4 h -2 l -4,3 v 5 l -4,-1 h -1 l -4,-1 -1,3 -6,-2 v 2 l -2,-3 h -4 l -1,-2 h -1 l -2,-2 -2,-1 -5,-2 -3,4 2,5 -1,2 2,3 v 3 l -4,6 -1,2 1,9 -1,2 2,7 -2,2 v 10 l 1,5 4,1 6,6 -5,3 -3,7 -5,5 -6,9 h -3 l -8,-1 -1,-2 -9,-1 h -4 l -3,1 -3,6 -7,2 -5,-2 -4,-8 h -6 v -1 l -1,-3 -4,-1 -1,-3 -4,4 -11,4 -2,-1 -1,1 -4,-3 v -3 l -6,-9 v -5 l -2,-3 -4,-2 -1,-2 h -3 v 3 l -1,2 h -5 l -3,1 -6,1 -1,-3 -5,-4 -7,5 h -3 l -6,4 -2,-1 v -3 l -3,-3 -3,-4 -5,1 -8,3 -3,-4 -2,-2 -3,-4 v -3 l -3,-1 -3,3 -5,1 11,-2 1,5 7,8 -4,3 -5,5 -10,9 -5,7 -2,1 v 4 l -3,6 -6,4 -2,4 -1,4 2,3 v 1 H 379 Z M 46,619 v -1 l -2,-3 1,-4 2,-4 6,-4 3,-6 v -4 l 2,-1 5,-7 10,-9 5,-5 4,-3 -7,-8 -1,-5 -11,2 -7,-7 v -1 l -1,-2 -5,-3 -3,-6 1,-3 -2,-6 4,-7 1,-4 1,-7 -2,-3 2,-4 -2,-2 2,-4 h 3 v -15 l 4,-2 4,-2 4,-5 -2,-3 2,-4 -7,-1 3,-10 4,-5 -1,-8 1,-5 -2,-5 -1,-4 2,-5 2,-1 2,-5 -1,-2 h 2 l 3,-1 5,2 h 3 l 5,3 2,-2 h 4 l 3,3 9,-8 10,-5 5,-4 2,-5 2,-2 v -4 l 8,-5 -1,-7 -6,-4 -1,-5 -9,-8 1,-3 h -6 l -4,-5 h -3 l -5,3 -2,-2 h -4 l -3,-3 -4,1 -5,-5 -2,-8 -2,-1 -3,3 -2,-3 1,-5 2,-4 2,-14 -1,-3 1,-3 -2,-4 4,-3 -1,-4 -6,-2 -3,-3 H 56 l -2,-1 h -2 l -3,-5 -3,-1 -7,1 -7,-7 -5,-1 -4,-4 v 5 l -8,13 -1,1 1,2 -4,5 -4,12 -4,4 v 5 l -3,4 -1,1 v 289 z"
     id="path8"
     style="stroke:#000000;stroke-width:0.2;stroke-linejoin:round" />
  <path
     fill="#f6bad3"
     d="m 209,594 3,-1 h 4 l 9,1 1,2 8,1 h 3 l 6,-9 5,-5 3,-7 5,-3 -6,-6 -4,-1 -1,-5 v -10 l 2,-2 -2,-7 1,-2 -1,-9 1,-2 -2,-2 -5,3 -4,-1 -3,3 1,2 -4,4 -6,-2 v -3 l -2,-4 1,-3 -2,-2 2,-3 h -2 l -2,1 -4,-1 v -5 l -1,-2 -3,-6 -2,1 1,-4 h -3 l -2,4 -4,1 4,-7 -1,-1 -4,5 -2,-1 -2,3 -4,-3 h -5 v 2 l -4,2 -3,4 v 3 l 2,1 -2,3 -6,-1 v 8 l -6,5 -2,4 -9,1 1,3 -4,2 h -2 l -4,3 -4,6 v 13 l 1,2 4,2 2,3 v 5 l 6,9 v 3 l 4,3 1,-1 2,1 11,-4 4,-4 1,3 4,1 1,3 v 1 h 6 l 4,8 5,2 7,-2 z m 17,-116 -2,-3 3,-2 v -3 l 8,-6 h 5 l 4,4 2,5 3,1 1,-1 7,2 4,-1 8,1 h 2 l 2,-2 6,1 2,-3 1,-3 6,1 4,-4 2,-3 -2,-6 3,-5 v -3 l 6,-3 -1,-3 1,-2 4,-4 3,-2 v -5 l 4,-4 -1,-8 -2,-5 1,-4 -2,-3 1,-1 v -6 -1 -8 l 5,-1 3,-3 -2,-8 3,-1 1,-4 5,2 3,-4 -3,-12 3,-4 5,-1 2,-5 3,-1 5,-6 -2,-8 2,-4 v -5 l 2,-2 h 2 l 2,2 1,-2 3,-5 h 2 l 1,-1 -4,-1 -1,-9 -6,-3 -6,-5 1,-2 -2,-1 2,-2 -1,-2 1,-2 -4,-2 -1,-3 3,-3 2,-4 -1,-2 3,-3 -3,-9 1,-1 -4,-2 1,-4 -3,-2 -3,-7 -1,-2 2,-5 v -3 l 1,-2 -3,-9 -4,-4 -4,2 -3,-3 h -3 l -1,2 -5,-1 -1,-3 h -2 l -2,-7 v -1 l -6,4 -5,5 -3,-2 -5,1 -7,7 -7,-2 -6,4 h -5 l 2,6 -2,7 h 2 l 1,-1 4,1 5,-1 -2,3 2,1 h 4 l 2,5 h 2 l -2,7 2,1 v 2 l -1,1 2,4 h 6 v 8 l -3,1 -1,-2 -3,10 h -3 v 1 l -1,-3 h -1 l -3,-2 -2,2 v -2 l -6,-3 -4,-6 -5,2 -2,-1 -4,4 -6,-2 -4,1 h -2 l -1,7 -6,2 -3,5 -7,1 -2,-2 -5,2 -4,7 7,5 5,10 -3,6 2,7 2,3 h 3 l -3,9 4,2 v 2 l -5,-1 -2,2 3,3 h 5 l 3,1 v 3 l -1,-1 -1,3 5,8 -1,6 2,-2 10,-3 2,-2 1,2 v 3 l 3,1 3,-1 1,-3 4,1 v 2 l 1,2 -2,1 v 8 l -5,2 h -1 l 1,3 -1,3 -3,2 v 6 l -7,2 v 2 l -5,-2 -3,1 -3,-2 -3,1 2,4 -2,4 3,1 -2,4 1,1 -8,1 -3,4 1,1 h -3 l -4,12 -2,1 -2,5 v 2 l -5,8 -1,2 1,4 h -3 l -2,3 h -1 l -4,-4 -2,4 h -3 l -2,-3 -8,-4 1,-4 -11,-7 -12,-2 -6,-7 v -3 l -6,-2 1,-8 -3,-2 -5,-5 -5,5 -1,7 -6,7 1,3 -1,7 1,7 4,3 -2,6 3,10 3,3 h 5 l 1,1 2,-1 6,6 10,-2 9,4 v 3 l 1,1 h 2 l -1,7 3,4 4,-3 h 4 v -3 l 3,-3 h 2 l -1,4 2,2 h 2 v 2 l 4,-2 2,2 -2,2 3,-1 1,1 -2,3 2,-1 h 1 l -1,1 v 3 l 2,-1 2,2 v -2 l 2,2 h 1 l 5,-1 v 2 h 3 l 8,-9 4,2 6,-2 z m -22,7 h 2 l -2,1 z m -80,-113 1,-2 4,-4 h 2 l 2,-4 -1,-3 5,-7 -2,-5 2,-4 1,-2 -1,-9 3,-1 3,-6 -1,-5 -2,-1 v -6 l 2,-2 -2,-4 5,-3 -3,-5 5,-2 1,-3 7,-4 6,-6 10,-3 1,-5 -3,-11 -6,-4 -4,-8 3,-8 -4,-10 2,-15 -1,-3 4,-7 -2,-2 v -7 l -2,-1 -3,-1 -6,1 -4,-1 1,-7 -7,-6 -2,-1 -1,-4 -3,-2 -3,-5 -7,-2 -1,-2 -3,2 v 2 l 3,1 2,7 4,3 -3,9 -5,3 2,1 v 4 l -6,-2 1,-6 -3,-6 -2,1 -2,-2 h -3 l -2,-1 -1,1 -1,-2 1,-2 h 2 l 1,-2 1,-7 -3,-2 -1,-7 9,6 h 3 l 4,-2 -3,-4 v -3 l 1,2 v -4 l -3,-2 v -2 l 11,5 3,-1 -2,-2 -1,-4 5,-1 2,-2 -2,-3 1,-1 h 4 v 2 l 7,3 2,3 -3,4 3,3 -1,2 2,3 6,1 v 6 h 3 l 4,3 2,7 5,-1 4,1 2,6 1,1 4,-4 11,-6 -2,-6 3,-2 7,1 2,-1 -1,-6 -5,-2 -3,-1 v -7 l 10,-5 -2,-2 1,-7 7,-8 h -3 l -3,-4 v -6 l 2,-2 h 4 l 1,-2 -2,-4 3,-3 -3,-5 h -6 l -2,-2 v -3 l 1,-1 1,1 1,-6 -2,-6 5,-4 1,-3 5,-3 -4,-6 -3,1 -3,-2 -1,-4 -6,-3 h -6 l -4,-3 -1,4 -6,5 v 9 l -3,2 -5,13 -7,1 -14,7 -9,2 1,-2 h -3 l -3,-2 1,-2 -1,1 -9,-2 -1,2 2,1 -2,6 -3,1 -5,-3 -3,4 h -2 l -2,5 2,2 4,-3 -1,4 h -3 l -1,2 -3,-1 v 2 l 2,1 -3,6 4,2 3,5 -2,-2 -5,-4 -5,23 -10,26 -3,8 -6,6 1,1 h -4 v 2 l -5,5 -2,5 -5,6 -3,-1 -2,2 -2,3 -6,7 -2,2 -2,-1 -5,8 -5,9 -7,16 -4,6 -1,5 -3,5 v 1 l -2,-1 -1,2 3,2 4,4 5,1 7,7 7,-1 3,1 3,5 h 2 l 2,1 h 12 l 3,3 6,2 1,4 -4,3 2,4 -1,3 1,3 -2,14 -2,4 -1,5 2,3 3,-3 2,1 2,8 5,5 4,-1 3,3 h 4 l 2,2 5,-3 h 3 l 4,5 h 6 l -1,3 z m 112,-24 -1,-2 h 2 v 1 l 1,-3 v 4 z m 7,-22 -2,-7 3,-6 -3,-3 h 6 l 8,3 h 2 v 2 l 13,2 -3,2 1,6 2,2 -6,3 3,-1 v 4 l 1,1 v 2 l -2,3 -1,3 1,3 h -2 l -2,3 v -2 l -4,-1 -6,-4 1,-4 -3,-3 -4,1 1,-2 z m 40,-126 6,-9 5,-6 -2,-6 3,-6 6,-5 v -4 l 11,-8 v -7 l 3,-8 -1,-1 h -2 l -6,6 -4,1 -8,8 -7,-1 v 4 l -2,1 -2,3 -4,2 -7,-1 -9,-2 -4,1 1,1 -7,-2 1,2 -1,2 h 3 v 2 h 3 v 4 h -4 v 2 l -4,1 1,2 -2,1 h 1 l -5,3 -2,5 -3,1 4,-1 2,2 -4,5 h -2 v 1 l -2,1 -3,-2 -3,2 -2,-1 -2,1 -5,4 v 3 h 2 l 1,2 -2,3 v 4 l -3,2 2,2 2,1 2,-2 6,-2 10,2 -2,1 2,4 h -2 l 1,3 h 6 l 3,-3 4,2 4,-6 13,-7 2,-5 h 6 z M 28,24 30,23 25,19 v 3 l -3,2 2,6 z m 201,335 1,1 1,-1 z"
     id="path10"
     style="stroke:#000000;stroke-width:0.2;stroke-linejoin:round" />
  <path
     fill="#ece3b4"
     d="m 119,565 5,4 1,3 6,-1 3,-1 h 5 l 1,-2 v -3 h 3 v -13 l 4,-6 4,-3 h 2 l 4,-2 -1,-3 9,-1 2,-4 6,-5 v -8 l 6,1 2,-3 -2,-1 v -3 l 3,-4 4,-2 v -2 h 5 l 4,3 2,-3 2,1 4,-5 1,1 -4,7 4,-1 2,-4 h 3 l -1,4 2,-1 3,6 1,2 v 5 l 4,1 2,-1 h 2 l -2,3 2,2 -1,3 2,4 v 3 l 6,2 4,-4 -1,-2 3,-3 4,1 5,-3 2,2 4,-6 v -3 l -2,-3 1,-2 -2,-5 3,-4 -2,-2 2,-6 3,-4 -5,-9 3,-8 -2,-3 -3,-1 -2,-5 -4,-4 h -5 l -8,6 v 3 l -3,2 2,3 3,2 -6,2 -4,-2 -8,9 h -3 v -2 l -5,1 h -1 l -2,-2 v 2 l -2,-2 -2,1 v -3 l 1,-1 h -1 l -2,1 2,-3 -1,-1 -3,1 2,-2 -2,-2 -4,2 v -2 h -2 l -2,-2 1,-4 h -2 l -3,3 v 3 h -4 l -4,3 -3,-4 1,-7 h -2 l -1,-1 v -3 l -9,-4 -10,2 -6,-6 -2,1 -1,-1 h -5 l -3,-3 -3,-10 2,-6 -4,-3 -1,-7 1,-7 -1,-3 6,-7 1,-7 5,-5 5,5 3,2 -1,8 6,2 v 3 l 6,7 12,2 11,7 -1,4 8,4 2,3 h 3 l 2,-4 4,4 h 1 l 2,-3 h 3 l -1,-4 1,-2 5,-8 v -2 l 2,-5 2,-1 4,-12 h 3 l -1,-1 3,-4 8,-1 -1,-1 2,-4 -3,-1 2,-4 -2,-4 3,-1 3,2 3,-1 5,2 v -2 l 7,-2 v -6 l 3,-2 1,-3 -1,-3 h 1 l 5,-2 v -8 l 2,-1 -1,-2 v -2 l -4,-1 -1,3 -3,1 -3,-1 v -3 l -1,-2 -2,2 -10,3 -2,2 1,-6 -5,-8 1,-3 1,1 v -3 l -3,-1 h -5 l -3,-3 2,-2 5,1 v -2 l -4,-2 3,-9 h -3 l -2,-3 -2,-7 3,-6 -5,-10 -7,-5 -8,4 1,2 -1,2 -3,-1 -4,-4 -5,-3 -11,7 -4,-4 1,-5 -1,-6 2,2 h 4 l 5,-5 3,-6 h 5 v -4 l 4,-5 h 2 l -4,-8 2,-7 -13,-8 -4,-9 h -4 v -4 l -3,-4 3,-1 -1,-7 3,-3 1,-4 1,-3 -3,-2 v -5 l -4,-2 2,-2 -3,-6 1,-3 -2,-6 -4,-1 -5,1 -2,-7 -4,-3 h -3 v -6 l -6,-1 -2,-3 1,-2 -3,-3 3,-4 -2,-3 -7,-3 v -2 h -4 l -1,1 2,3 -2,2 -5,1 1,4 2,2 -3,1 -11,-5 v 2 l 3,2 v 4 l -1,-2 v 3 l 3,4 -4,2 h -3 l -9,-6 1,7 3,2 -1,7 -1,2 h -2 l -1,2 1,2 1,-1 2,1 h 3 l 2,2 2,-1 3,6 -1,6 6,2 v -4 l -2,-1 5,-3 3,-9 -4,-3 -2,-7 -3,-1 v -2 l 3,-2 1,2 7,2 3,5 3,2 1,4 2,1 7,6 -1,7 4,1 6,-1 3,1 2,1 v 7 l 2,2 -4,7 1,3 -2,15 4,10 -3,8 4,8 6,4 3,11 -1,5 -10,3 -6,6 -7,4 -1,3 -5,2 3,5 -5,3 2,4 -2,2 v 6 l 2,1 1,5 -3,6 -3,1 1,9 -1,2 -2,4 2,5 -5,7 1,3 -2,4 h -2 l -4,4 -1,2 1,5 6,4 1,7 -8,5 v 4 l -2,2 -2,5 -5,4 -10,5 -9,8 -3,-3 h -4 l -2,2 -5,-3 h -3 l -5,-2 -3,1 h -2 l 1,2 -2,5 -2,1 -2,5 1,4 2,5 -1,5 1,8 -4,5 -3,10 7,1 -2,4 2,3 -4,5 -4,2 -4,2 v 15 h -3 l -2,4 2,2 -2,4 2,3 -1,7 -1,4 -4,7 2,6 -1,3 3,6 5,3 1,2 v 1 l 7,7 5,-1 3,-3 3,1 v 3 l 3,4 2,2 3,4 8,-3 5,-1 3,4 3,3 v 3 l 2,1 6,-4 h 3 z M 229,359 h 2 l -1,1 z m 37,-20 2,-3 v -2 l -1,-1 v -4 l -3,1 6,-3 -2,-2 -1,-6 3,-2 -13,-2 v -2 h -2 l -8,-3 h -6 l 3,3 -3,6 2,7 4,7 -1,2 4,-1 3,3 -1,4 6,4 4,1 v 2 l 2,-3 h 2 l -1,-3 z m 21,-67 v -8 h -6 l -2,-4 1,-1 v -2 l -2,-1 2,-7 h -2 l -2,-5 h -4 l -2,-1 2,-3 -5,1 -4,-1 -1,1 h -2 l 2,-7 -2,-6 h 5 l 6,-4 7,2 7,-7 5,-1 3,2 5,-5 6,-4 v 1 l 2,7 h 2 l 1,3 5,1 1,-2 h 3 l 3,3 4,-2 4,4 3,9 -1,2 v 3 h 5 l 2,4 6,2 4,-2 2,-7 4,-8 1,-6 v -3 l -5,-2 v -7 l 4,-3 v -4 l 3,-3 1,-5 4,-4 -3,-3 -3,2 -7,-4 -3,-8 1,-9 -2,-1 v -3 l -8,-5 -2,1 -1,-3 -5,-4 2,-10 -3,-4 -12,1 -1,-1 -3,8 v 7 l -11,8 v 4 l -6,5 -3,6 2,6 -5,6 -6,9 -2,2 h -6 l -2,5 -13,7 -4,6 -4,-2 -3,3 h -6 -1 v 2 l 2,3 -4,3 1,3 -2,3 3,4 -7,8 2,4 3,1 1,5 -1,3 -4,4 2,4 -1,4 h 2 l 4,-1 6,2 4,-4 2,1 5,-2 4,6 6,3 v 2 l 2,-2 3,2 h 1 l 1,3 v -1 h 3 l 3,-10 1,2 z m -41,-104 5,-2 -1,-1 h 3 l 1,-2 -1,-2 7,2 -1,-1 4,-1 9,2 7,1 4,-2 2,-3 2,-1 v -4 l 7,1 8,-8 4,-1 6,-6 h 2 l -3,-6 -3,1 -3,-2 -4,-10 1,-3 -1,-7 -5,-8 -6,1 -1,-2 -5,1 -4,-1 -2,-1 -2,-4 -2,-8 h -5 l -5,-3 -3,1 -3,7 -5,-2 -2,-3 -8,-3 -3,3 -2,-1 -5,1 -4,-2 -4,-1 1,-7 -1,-3 -4,-1 -4,2 -2,3 -2,-2 -2,2 h -2 l -5,3 -1,3 -5,4 2,6 -1,6 -1,-1 -1,1 v 3 l 2,2 h 6 l 3,5 -3,3 2,4 -1,2 h -4 l -2,2 v 6 l 3,4 h 3 l -7,8 -1,7 2,2 4,-1 7,3 9,-2 5,2 1,-1 7,8 2,5 8,-2 1,1 -1,3 z m -114,-64 3,2 h 3 l -1,2 9,-2 14,-7 7,-1 5,-13 3,-2 v -9 l 6,-5 1,-4 2,-2 -2,-5 v -9 l -17,4 -3,3 -1,4 -14,-5 -1,2 -12,-2 h -11 l 3,8 -4,10 2,1 -1,5 -9,29 5,3 3,-1 2,-6 -2,-1 1,-2 9,2 1,-1 z m 104,244 h 2 v -4 l -1,3 v -1 h -2 z m -32,137 v 1 l 2,-1 z"
     id="path12"
     style="stroke:#000000;stroke-width:0.2;stroke-linejoin:round" />
  <path
     fill="#b6f2dc"
     d="m 209,294 4,-7 5,-2 2,2 7,-1 3,-5 6,-2 1,-7 1,-4 -2,-4 4,-4 1,-3 -1,-5 -3,-1 -2,-4 7,-8 -3,-4 2,-3 -1,-3 4,-3 -2,-3 v -2 h 1 l -1,-3 h 2 l -2,-4 2,-1 -10,-2 -6,2 -2,2 -2,-1 -2,-2 3,-2 v -4 l 2,-3 -1,-2 h -2 v -3 l 5,-4 2,-1 2,1 3,-2 3,2 2,-1 v -1 h 2 l 4,-5 -2,-2 -4,1 3,-1 2,-5 5,-3 h -1 l 2,-1 -1,-2 4,-1 v -2 h 4 v -4 h -3 v -2 h -3 -3 l 1,1 -5,2 h -3 l 1,-3 -1,-1 -8,2 -2,-5 -7,-8 -1,1 -5,-2 -9,2 -7,-3 -4,1 -10,5 v 7 l 3,1 5,2 1,6 -2,1 -7,-1 -3,2 2,6 -11,6 -4,4 -1,-1 -1,3 3,6 -2,2 4,2 v 5 l 3,2 -1,3 -1,4 -3,3 1,7 -3,1 3,4 v 4 h 4 l 4,9 13,8 -2,7 4,8 h -2 l -4,5 v 4 h -5 l -3,6 -5,5 h -4 l -2,-2 1,6 -1,5 4,4 11,-7 5,3 4,4 3,1 1,-2 -1,-2 z"
     id="path14"
     style="stroke:#000000;stroke-width:0.2;stroke-linejoin:round" />
  <path
     fill="none"
     stroke-width="1.6"
     stroke-linecap="round"
     d="m 209,82 -5,3 -1,3 -5,4 2,6 -1,6 -1,-1 -1,1 v 3 l 2,2 h 6 l 3,5 -3,3 2,4 -1,2 h -4 l -2,2 v 6 l 3,4 h 3 l -7,8 -1,7 2,2 -10,5 v 7 l 3,1 5,2 1,6 -2,1 -7,-1 -3,2 2,6 -11,6 -4,4 -1,-1 -1,3 3,6 -2,2 4,2 v 5 l 3,2 -1,3 -1,4 -3,3 1,7 -3,1 3,4 v 4 h 4 l 4,9 13,8 -2,7 4,8 h -2 l -4,5 v 4 h -5 l -3,6 -5,5 h -4 l -2,-2 -3,-5 -10,3 -6,6 -7,4 -1,3 -5,2 3,5 -5,3 2,4 -2,2 v 6 l 2,1 1,5 -3,6 -3,1 1,9 -1,2 -2,4 2,5 -5,7 1,3 -2,4 h -2 l -4,4 -1,2"
     id="path16"
     style="stroke:#000000;stroke-linejoin:round;stroke-width:0.2;stroke-miterlimit:4;stroke-dasharray:none" />
  <path
     fill="none"
     stroke-width="0.2"
     stroke-linecap="round"
     d="m 344,322 v -1 l -3,-4 -3,2 -2,-1 -2,-3 -4,-1 -3,2 -5,-7 v -3 l -8,-2 -5,2 -4,-2 v -6 l -3,-3 -2,1 -4,-6 2,-7 -1,-8 -2,1 -2,-1 -1,3 -2,-5 -3,-1 m -46,38 -2,-3 -3,-12 -1,-3 -4,-1 -4,-5 m 78,18 h -4 l -2,5 -6,3 h -10 l -2,-2 -7,1 v -2 l -2,2 -1,-2 -3,4 2,2 1,-2 3,-1 v 2 l -4,3 m 54,41 -2,-1 -6,-1 -8,-5 -4,-7 -8,-4 2,-3 h -4 l -8,3 h -8 l -2,-2 -5,2 -5,-1 m -4,9 -4,7 v 5 m 64,-3 -10,4 -4,2 h -7 l -2,5 -7,5 -3,-3 -1,3 1,1 -24,-6 -2,-4 -4,-2 m 42,78 h -2 l -2,-3 -4,1 -7,-2 -3,-4 -7,2 -4,-3 -11,-3 h -2 l 1,-4 -2,-2 -5,2 -1,2 -2,-3 h -1 v -2 l -3,5 -4,2 -3,-5 1,-3 -2,-3 1,-2 v -1 l -3,1 -2,-2 -6,1 -4,-6 -4,1 h -1 m 16,55 1,-1 1,-4 -8,-1 -1,-5 -7,-3 -2,-6 2,-2 2,2 5,-4 -3,-3 2,-5 -3,-2 1,-5 -2,-3 -1,-8 -2,-5 m -23,37 -2,1 1,5 -1,3 -5,10 -5,6 m 116,-348 -6,5 -4,-4 v -2 l -2,-2 -2,1 -3,-3 -3,1 -7,-4 -6,4 h -7 l -9,9 -1,5 3,5 -2,6 -3,2 2,-1 -2,6 1,2 5,2 -3,2 1,4 m 3,-6 1,-1 -1,1 m 48,57 -4,-8 -1,1 -2,-1 h -9 l -5,-4 m -23,41 -5,3 1,10 -8,4 -3,8 -6,6 m -20,67 -14,-3 -6,2 -4,-2 h -5 l -6,6 -2,4 -12,-9 -3,2 -1,5 -2,3 2,2 -1,9 1,6 -4,2 -2,-1 -1,5 -6,2 h -2 l -2,3 -3,14 4,1 4,-1 3,-6 8,-5 2,-5 h 2 l 3,6 3,-2 5,-7 4,-1 4,3 1,-1 1,-3 6,-10 3,1 5,-2 h 3 l 2,-2 1,-2 2,2 4,1 1,-2 1,3 h 6 v 2 l -4,1 1,3 -2,5 5,-1 h 2 l 1,-2 3,2 2,-5 m 14,-6 v 1 -1 m -2,1 m -20,10 v 1 l -3,5 2,8 -1,1 -3,-2 v 4 l -4,2 -5,9 v 6 l 5,1 1,4 v 3 m 35,-36 -2,-2 -16,5 -7,-9 m -80,22 -8,4 -4,-4 -2,-1 m 5,11 v -3 l 1,-3 m 72,8 -3,-1 h 2 l -3,-5 -1,2 -3,-2 -4,4 -2,-2 -5,4 -6,-11 -6,4 -3,6 -4,-1 -2,1 -3,1 -8,17 2,4 -5,4 m -25,28 -3,5 v 5 l 7,7 -1,5 3,2 2,12 -2,4 -5,3 -1,6 -5,2 h -8 l -1,7 2,2 -2,2 v 5 l -2,1 v 4 h -3 l -1,1 -3,-1 v 3 l -4,2 -2,4 2,4 -3,2 -8,4 v 3 l -6,4 h -2 l -6,11 m 124,-75 m -31,-8 2,7 -7,5 -12,2 v 2 l -2,1 -2,5 v 6 l -3,4 v 5 h -7 l -3,5 2,3 5,1 v 5 l 1,3 -3,1 -1,2 2,5 3,4 m 50,-40 v -1 l 4,-8 4,-3 v -4 h -3 v -2 m 27,-294 -3,-3 v -6 l -2,-2 h -5 l -3,-4 -4,1 v -1 l 3,-2 -2,-1 -6,4 -8,-7 m 25,41 v 2 l -2,4 -1,10 3,2 -1,5 1,1 -3,1 -4,9 -7,-1 1,2 -6,5 -6,-1 h -2 m -88,-79 v 2 l -10,-1 -2,4 h -5 l -3,1 m 34,-10 -2,-1"
     id="path18"
     style="stroke:#000000;stroke-linejoin:round" />
  <path
     fill="#eeeeee"
     d="m 379,416 -3,-2 -9,1 5,1 -3,5 4,-4 4,1 -6,9 8,-10 z m 0,-230 v 1 z M 182,619 v -9 l -3,-7 -6,4 2,2 3,2 v -3 l 2,4 -2,7 z m 124,-115 14,9 3,-1 -4,-4 1,-4 -1,3 -6,-6 v 4 z m 49,-419 6,4 -4,-4 v -4 l 5,1 -4,-4 z m -193,231 -1,12 1,-9 5,1 8,-2 H 163 Z M 89,300 v 4 l 7,-8 -4,-1 z m 35,-6 -12,11 6,4 -5,-4 9,-8 5,4 z m 14,293 -5,7 7,3 -5,-3 z m -87,-191 -2,5 5,-3 v -5 l -3,1 z m 29,-5 1,-2 -5,-2 1,-6 v 5 l -3,1 z"
     id="path20"
     style="stroke:#000000;stroke-width:0.2;stroke-linejoin:round" />
  <g
     id="g30">
    <rect
       id="rect24"
       height="36"
       width="185"
       y="4"
       x="189"
       opacity="0.75"
       fill="white" />
    <rect
       id="rect26"
       height="8"
       width="177"
       y="8"
       x="193"
       fill="black" />
    <text
       id="text28"
       y="36"
       x="281"
       font-family="sans-serif"
       font-size="24"
       text-anchor="middle"
       fill="black">50km</text>
  </g>
</svg>
