<?xml version="1.0" encoding="UTF-8" standalone="no"?>
<svg
	xmlns:dc="http://purl.org/dc/elements/1.1/"
	xmlns:cc="http://creativecommons.org/ns#"
	xmlns:rdf="http://www.w3.org/1999/02/22-rdf-syntax-ns#"
	xmlns:svg="http://www.w3.org/2000/svg"
	xmlns="http://www.w3.org/2000/svg"
	xmlns:sodipodi="http://sodipodi.sourceforge.net/DTD/sodipodi-0.dtd"
	xmlns:inkscape="http://www.inkscape.org/namespaces/inkscape"
	inkscape:version="1.0 (4035a4fb49, 2020-05-01)"
	sodipodi:docname="Aomori.svg"
	id="svg32"
	version="1.1"
	height="503"
	width="521">
	<metadata
		id="metadata38">
		<rdf:RDF>
		<cc:Work
			rdf:about="">
			<dc:format>image/svg+xml</dc:format>
			<dc:type
				rdf:resource="http://purl.org/dc/dcmitype/StillImage" />
		</cc:Work>
		</rdf:RDF>
	</metadata>
	<defs
		id="defs36" />
	<sodipodi:namedview
		inkscape:current-layer="svg32"
		inkscape:window-maximized="1"
		inkscape:window-y="-8"
		inkscape:window-x="-8"
		inkscape:cy="280.29416"
		inkscape:cx="239.61157"
		inkscape:zoom="1.2061583"
		showgrid="false"
		id="namedview34"
		inkscape:window-height="1017"
		inkscape:window-width="1920"
		inkscape:pageshadow="2"
		inkscape:pageopacity="0"
		guidetolerance="10"
		gridtolerance="10"
		objecttolerance="10"
		borderopacity="1"
		bordercolor="#666666"
		pagecolor="#ffffff" />
  <title
	  id="title2">地図 ナンバープレート 青森県</title>
  <desc
	  id="desc4">Author: Lincun</desc>
  <rect
	  id="rect6"
	  height="503"
	  width="521"
	  y="0"
	  x="0"
	  fill="#eeeeee" />
  <path
	  fill="#aaaaaa"
	  d="m 52,-1 1,14 v 5 -2 l 1,3 2,1 3,10 4,12 1,6 3,5 h 2 l 5,5 6,5 -1,-1 2,-1 7,-2 6,1 8,6 6,4 2,-2 2,-1 3,-7 4,-6 2,-6 3,-1 1,-6 8,-3 1,1 11,-7 3,1 2,-2 3,-1 6,-1 h 5 l 1,-2 5,-4 2,-7 -2,-3 V 8 -1 Z M 5,85 7,84 8,82 4,81 2,82 v 1 l 1,1 v 2 z m 517,345 -5,-5 -3,-4 1,-3 -9,-11 -2,-3 -2,2 -5,5 -7,3 h -4 l -7,5 -2,3 1,6 -1,3 -7,5 -5,4 -1,-1 h -4 l -6,-6 -4,-2 -10,-1 -2,1 -2,5 -2,-1 -3,2 -3,-4 -1,3 -3,6 -2,1 -1,-1 -5,4 -3,-3 -2,-2 1,-5 -6,-4 -3,2 -3,1 v 4 l -4,3 -4,-2 -1,2 -9,6 -2,4 -5,2 h -7 l -4,2 -6,1 -3,4 h -1 l -6,3 3,7 -2,2 -7,1 -5,5 -4,1 -5,5 -3,2 -6,-2 -3,1 -3,-4 -4,-6 -3,1 -1,2 1,4 -7,2 h -3 l -1,2 -2,1 1,2 -2,3 1,3 -9,7 v 1 h 238 z m -238,74 v -1 l 9,-7 -1,-3 2,-3 -1,-2 2,-1 1,-2 h 3 l 7,-2 -1,-4 1,-2 3,-1 -2,-4 3,-8 -4,-2 v -3 l 4,-3 v -7 l 1,1 2,-6 -2,-3 2,-1 v 1 l 3,1 4,-3 -1,-3 1,-5 -3,-4 1,-3 -2,-4 1,-2 -1,-1 1,-4 -3,-1 -4,1 -4,-1 -4,3 h -1 l -1,-2 -8,1 -5,-4 2,-26 -9,1 -7,4 -3,3 -1,13 h -3 l -2,-3 -6,2 -2,3 -1,2 h -5 v 8 h -3 l -2,-4 -4,-1 -3,1 -1,3 -3,2 h -2 l -2,3 h -5 -2 l 1,-2 -3,-5 h -4 l -6,-4 v 2 l -7,1 -3,2 5,7 -2,1 -5,-1 -3,-4 -3,1 2,-7 h -6 l -7,-4 1,-2 -2,-2 -5,-1 -5,2 -2,-7 1,-3 -2,-2 -7,3 -4,-4 -2,3 h -5 l -4,3 -3,10 -5,1 h -2 v -2 l -5,-1 -6,2 -5,-1 -8,4 -3,-3 -3,2 -4,-3 -8,3 -1,-1 H 82 l -4,-8 -6,-3 h -4 l -2,3 -3,-1 -3,3 -1,2 1,3 -2,4 v 3 l -6,-6 -3,3 h -4 l -3,-3 -6,3 3,5 8,5 1,5 4,1 4,3 3,7 1,10 -3,21 -3,14 -2,2 7,1 h -6 l -1,8 1,-6 -2,-1 1,2 -1,4 -2,-1 -1,6 h 2 v 2 l -1,4 z"
	  id="path8"
	  style="stroke:#000000;stroke-width:0.2;stroke-linejoin:round" />
  <path
	  fill="#16a34a"
	  d="m 470,436 -9,-17 -1,-17 4,-1 1,2 3,1 3,-6 -1,-3 4,-1 h 6 v 4 l 3,1 5,-1 2,-3 h 4 v -1 l -5,-7 -1,-3 h -3 v -2 l -7,-4 -1,-3 -2,-4 h -2 l -3,2 -1,3 -1,-1 -2,2 h -1 v -2 l -1,2 -2,-1 2,-1 -4,2 -6,-1 v -1 l 6,1 1,-1 -1,-3 h -3 v -3 l -2,1 1,-2 h -2 l 1,-1 h -4 v -2 l 2,-2 -1,-2 -2,1 -5,-12 -10,4 v 2 l -3,1 -1,1 -1,3 h 4 l 1,7 -2,-2 1,5 -1,-3 v 2 h -2 l 2,1 1,2 -5,1 -5,4 -8,3 1,2 -1,2 3,2 v 2 l 4,-4 v 4 l 3,2 3,5 2,-1 1,2 1,-2 1,1 2,5 7,4 -1,1 -3,5 -9,2 -2,2 1,2 -4,3 1,1 -2,1 2,2 -2,1 v 5 l -5,-1 5,2 v 2 l -2,1 h 3 l 2,2 1,-3 3,4 3,-2 2,1 2,-5 2,-1 10,1 4,2 6,6 h 4 l 1,1 z M 225,421 h 5 l 2,-3 h 2 l 3,-2 1,-3 3,-1 4,1 2,4 h 3 v -8 h 5 l 1,-2 2,-3 6,-2 2,3 h 3 l 1,-13 3,-3 7,-4 9,-1 -2,26 5,4 8,-1 1,2 h 1 l 4,-3 4,1 4,-1 3,1 3,-2 1,-8 5,-4 3,-3 11,-2 5,-5 4,1 2,-2 7,1 3,-1 6,2 4,-1 7,-7 4,-6 12,-4 1,2 2,-6 4,-2 1,-3 v -2 l -5,-5 3,-4 -5,-1 -1,-5 -4,-1 v -4 h 2 l -1,-2 4,-2 2,-1 -4,-1 -2,-1 2,-5 -2,-11 1,-2 h -4 l -5,3 -5,1 -1,-1 -10,4 v 3 h -3 l -1,4 -3,2 v 2 h 2 l -3,4 -4,-1 -4,3 h -8 l -2,-2 -3,-1 -5,-8 -10,-1 -2,-4 -2,-5 -4,-1 -7,-8 h -5 l -2,-3 h -4 l -2,-4 1,-3 1,-3 2,-2 6,1 4,-2 2,-3 -1,-2 4,-4 2,-5 v -1 l -7,-4 v -4 l -1,-2 -5,-2 v -5 l -5,-3 -7,-10 1,-1 -2,-1 -1,-1 -6,-1 h -1 l 1,2 1,3 -3,2 -1,3 -3,1 -2,4 -1,-1 1,1 -7,8 -5,2 -6,-1 -1,2 h -4 -2 l 1,-1 -1,1 v -1 l -12,-11 -2,-4 -6,-26 -10,-1 -3,1 -3,-5 -12,-2 h -2 l 1,-3 -3,-3 -4,-3 h -1 l -3,15 -12,6 h -4 l -4,2 v 2 l -1,1 h -3 l -3,-6 h 2 l -5,-2 -3,2 -1,-2 -1,-5 4,-9 -3,-8 -4,-2 7,-4 v 1 l 2,-1 3,2 1,-4 -3,-4 -5,-1 8,-1 4,-5 2,-4 4,-3 -1,-5 1,-4 h 1 l 2,-2 v -2 l -10,-1 -5,-1 -4,-2 -6,1 -5,6 h -12 l 4,5 1,6 -1,27 -3,19 -7,31 -9,20 h 5 l 2,1 -1,1 5,8 5,1 5,4 -3,4 v 1 h -2 l -2,4 -3,1 -1,3 1,10 4,-4 8,2 -5,6 -3,1 -8,6 1,3 -16,4 -1,2 v 4 l -3,2 -1,3 -4,2 v 4 h -4 l -5,3 v 5 l 2,2 v 3 l 3,-4 2,3 4,1 4,-5 v -4 l 5,-3 2,-5 3,1 3,-6 6,3 4,1 1,5 3,1 -1,2 h -3 l 3,2 -1,2 2,3 -3,8 1,7 5,5 -1,2 3,4 -1,4 h 2 l 3,4 4,-3 h 5 l 2,-3 4,4 7,-3 2,2 7,-1 1,-2 -2,-3 1,-3 6,-2 v -4 l 12,-2 2,-1 2,-6 2,4 1,-5 3,2 h 1 l 2,2 6,-2 4,3 3,-2 2,2 3,-2 1,3 6,2 2,2 v 4 l -8,5 -7,-1 -3,7 -3,-5 -2,-1 -2,3 4,4 v 5 6 l -3,3 6,4 h 4 l 3,5 -1,2 z m 235,-49 3,2 -1,-2 z m -273,-35 -1,-3 h -2 l -3,2 -4,-6 1,-3 1,-4 -3,-2 -8,-12 -2,-1 v -4 l -2,-1 -2,1 -1,-4 h -1 l -3,2 -1,-2 -1,1 -6,-2 v -2 l -4,-1 9,-6 -4,-3 1,-1 2,2 v -1 l 2,-2 2,2 3,2 1,3 h 2 l 2,3 2,-1 -1,-6 2,-2 h 3 l 2,6 3,-1 1,4 4,2 1,-3 h 1 l 2,-2 v 4 l 2,1 2,-1 2,1 v 7 l 2,2 v 3 l 7,8 v 4 h -2 l 3,6 2,-6 h 5 l -2,5 v 2 l 2,3 h -3 l 2,3 v 5 l 2,2 -6,2 -8,-1 -4,5 z m 229,-8 2,-1 v -2 l 4,3 14,-2 h 2 l -4,-13 -7,-46 -2,-17 -4,2 -1,6 2,6 -3,3 -1,3 -4,9 v 8 l 2,4 1,12 -2,4 -3,1 -5,-1 -3,3 1,2 4,-1 2,-3 h 2 l -5,7 -1,1 5,3 -2,3 v 4 l 3,3 z m -144,-166 4,-4 8,-5 4,-2 4,2 6,-5 8,1 5,-6 4,-3 8,1 6,4 7,1 4,-7 7,-4 h 4 l 10,-10 2,-4 -1,-4 v 4 l -4,4 -2,1 v -3 l 6,-10 4,-2 2,2 2,-1 12,13 8,13 4,14 v 5 l 3,-3 6,2 h 3 l -1,-5 3,-5 2,-12 -3,-10 -2,-2 -2,2 -2,-2 h -7 l -3,2 -5,-2 1,-5 -1,-6 2,-6 -2,-5 -5,1 1,-4 3,-4 -2,-1 3,-6 -1,-3 -12,-8 -8,-10 -4,-3 -2,-4 -6,-5 -2,-3 -9,2 -9,1 v 5 l -5,4 -5,-1 -3,-6 -6,1 -2,1 -2,3 h -4 l -1,2 -1,5 -3,3 2,2 -6,6 2,2 -4,2 -2,2 -3,3 -4,10 h -2 l -1,2 -3,1 v 2 h -2 l -1,3 2,1 2,3 1,6 4,4 -5,-1 -2,-3 h -4 l -3,5 2,3 -2,5 -6,4 v 2 l -4,2 -1,2 -3,4 1,3 v 5 6 l -1,3 1,2 h 3 l 1,3 h 2 l 6,1 z"
	  id="path10"
	  style="stroke:#000000;stroke-width:0.2;stroke-linejoin:round" />
  <path
	  fill="#16a34a"
	  d="m 354,461 h 1 l 3,-4 6,-1 4,-2 h 7 l 5,-2 2,-4 9,-6 1,-2 4,2 4,-3 v -4 l 3,-1 3,-2 6,4 -1,5 2,2 3,3 5,-4 1,1 2,-1 3,-6 -2,-2 h -3 l 2,-1 v -2 l -5,-2 5,1 v -5 l 2,-1 -2,-2 2,-1 -1,-1 4,-3 -1,-2 2,-2 9,-2 3,-5 1,-1 -7,-4 -2,-5 -1,-1 -1,2 -1,-2 -2,1 -3,-5 -3,-2 v -4 l -4,4 v -2 l -3,-2 1,-2 -1,-2 8,-3 5,-4 5,-1 -1,-2 -2,-1 h 2 v -2 l 1,3 -1,-5 2,2 -1,-7 h -4 l 1,-3 1,-1 3,-1 v -2 l 10,-4 -7,-23 h -2 l -14,2 -4,-3 v 2 l -2,1 -3,1 -3,-3 v -4 l 2,-3 -5,-3 1,-1 5,-7 h -2 l -2,3 -4,1 -1,-2 3,-3 5,1 3,-1 2,-4 -1,-12 -2,-4 v -8 l 4,-9 1,-3 -2,-3 -7,1 -2,-2 v -1 l -3,2 -2,5 -6,-2 -4,-3 -1,-14 -3,-8 h -2 2 l 1,-6 -3,1 -4,-3 3,-10 3,-1 v -2 l 2,-2 v -3 l 2,-4 h 3 l 1,-3 3,-1 1,-4 5,-4 -1,-5 2,-1 v -4 l 3,-1 h 2 l -1,-5 1,-1 v -5 l 2,-2 -1,-4 -6,-2 2,-5 -3,-9 h -3 l -6,-2 -3,3 v 2 l -2,4 -5,8 -2,13 -1,17 -5,19 v 3 l -10,19 -7,9 -5,3 -6,2 v -2 2 l -3,-1 -5,-5 -5,-9 -3,-2 -3,1 -3,-2 -3,-3 -5,-2 h -8 l 1,-2 h 2 l -1,-3 1,-4 -3,-3 -5,-5 -1,-3 h -8 l -4,-6 -4,-1 -3,1 v 6 l -4,3 h 1 l 2,2 -3,2 v 5 l -6,2 2,1 3,2 1,-1 3,1 -2,1 1,4 v 7 l -3,2 6,1 1,1 2,1 -1,1 7,10 5,3 v 5 l 5,2 1,2 v 4 l 7,4 v 1 l -2,5 -4,4 1,2 -2,3 -4,2 -6,-1 -2,2 -1,3 -1,3 2,4 h 4 l 2,3 h 5 l 7,8 4,1 2,5 2,4 10,1 5,8 3,1 2,2 h 8 l 4,-3 4,1 3,-4 h -2 v -2 l 3,-2 1,-4 h 3 v -3 l 10,-4 1,1 5,-1 5,-3 h 4 l -1,2 2,11 -2,5 2,1 4,1 -2,1 -4,2 1,2 h -2 v 4 l 4,1 1,5 5,1 -3,4 5,5 v 2 l -1,3 -4,2 -2,6 -1,-2 -12,4 -4,6 -7,7 -3,2 5,7 v 5 l 6,-2 4,2 1,4 h 1 l -4,5 2,2 1,1 -6,2 -2,-1 -8,1 v -2 l -9,1 -2,1 h -4 l -6,4 -3,-3 -8,1 -4,3 -1,-1 -9,-2 -3,3 -2,-4 -1,2 2,4 -1,3 3,4 -1,5 1,3 -4,3 -3,-1 v -1 l -2,1 2,3 -2,6 -1,-1 v 7 l -4,3 v 3 l 4,2 -3,8 2,4 4,6 3,4 3,-1 6,2 3,-2 5,-5 4,-1 5,-5 7,-1 2,-2 -3,-7 z m 148,-55 2,-2 -5,-5 -5,-4 h -4 l -2,3 -5,1 -3,-1 v -4 h -6 l -4,1 1,3 -3,6 -3,-1 -1,-2 -4,1 1,17 9,17 7,-5 1,-3 -1,-6 2,-3 7,-5 h 4 l 7,-3 z m -298,17 2,-1 -5,-7 3,-2 7,-1 v -2 l 3,-3 v -6 -5 l -4,-4 2,-3 2,1 3,5 3,-7 7,1 8,-5 v -4 l -2,-2 -6,-2 -1,-3 -3,2 -2,-2 -3,2 -4,-3 -6,2 -2,-2 h -1 l -3,-2 -1,5 -2,-4 -2,6 -2,1 -12,2 v 4 l -6,2 -1,3 2,3 -1,2 -7,1 -1,3 2,7 5,-2 5,1 2,2 -1,2 7,4 h 6 l -2,7 3,-1 3,4 z m -138,-22 2,-3 h 4 l 6,3 4,8 h 11 v -3 -10 l -4,-4 v -3 l -3,-5 -1,-2 h 2 l 3,-2 v -8 l 6,-1 1,-4 v -3 l -2,-2 v -5 l 5,-3 h 4 v -4 l 4,-2 1,-3 3,-2 v -4 l 1,-2 16,-4 -1,-3 8,-6 3,-1 5,-6 -8,-2 -4,4 -1,-10 1,-3 3,-1 2,-4 h 2 v -1 l 3,-4 -5,-4 -5,-1 -5,-8 1,-1 -2,-1 h -5 l -2,1 -1,4 -5,2 h -3 l -1,-2 -4,1 -12,11 -9,4 -4,-2 -2,-4 h -2 l -8,-4 -5,3 -2,3 -7,2 v 3 l -4,6 v 2 l -2,4 -3,1 -1,6 -3,4 -4,1 v 4 l -3,1 1,3 -5,1 -2,-1 -1,1 -2,3 -8,6 -1,5 1,2 1,4 3,1 7,-1 h 3 l 2,1 3,6 -1,3 2,1 1,3 2,14 -2,17 -1,7 -1,4 6,-3 3,3 h 4 l 3,-3 6,6 v -3 l 2,-4 -1,-3 1,-2 3,-3 z m 140,-75 2,-5 h -5 l -2,6 -3,-6 h 2 v -4 l -7,-8 v -3 l -2,-2 v -7 l -2,-1 -2,1 -2,-1 v -4 l -2,2 h -1 l -1,3 -4,-2 -1,-4 -3,1 -2,-6 h -3 l -2,2 1,6 -2,1 -2,-3 h -2 l -1,-3 -3,-2 -2,-2 -2,2 v 1 l -2,-2 -1,1 4,3 -9,6 4,1 v 2 l 6,2 1,-1 1,2 3,-2 h 1 l 1,4 2,-1 2,1 v 4 l 2,1 8,12 3,2 -1,4 -1,3 4,6 3,-2 h 2 l 1,3 5,-1 1,-6 10,1 z m -32,-92 h 4 l 12,-6 3,-15 h 1 v -4 l -2,-1 1,-5 h 7 l 7,-3 2,1 2,-1 h 6 l 2,-2 4,1 4,2 v -7 l -3,-5 -1,-12 2,-18 v -12 l -2,-3 -4,-2 -3,-6 -3,-1 -4,-2 -4,-2 -2,1 -2,-1 -2,3 -2,-1 -2,1 -2,5 -5,5 -5,3 h -5 l -1,-2 h -3 l -4,-3 1,-1 -9,-8 -1,-5 -9,-5 -5,-4 -2,2 1,2 v 4 h -2 l -1,3 v 6 4 l 2,3 -1,3 -2,7 v 4 l -2,3 h -2 v 2 l -1,2 -3,1 -3,-3 h -4 l -1,1 -2,-2 -1,2 -2,4 2,1 h 8 l 4,5 h 1 12 l 5,-6 6,-1 4,2 5,1 10,1 v 2 l -2,2 h -1 l -1,4 1,5 -4,3 -2,4 -4,5 -8,1 5,1 3,4 -1,4 -3,-2 -2,1 v -1 l -7,4 4,2 3,8 -4,9 1,5 1,2 3,-2 5,2 h -2 l 3,6 h 3 l 1,-1 v -2 z m 138,-176 -5,-4 2,-2 1,-7 -2,-6 1,-2 -6,-8 1,-4 -2,-1 -5,-5 -1,6 -3,1 3,8 -2,7 -1,2 -4,3 4,3 1,7 4,5 2,1 2,-1 3,2 1,-2 h 4 z"
	  id="path12"
	  style="stroke:#000000;stroke-width:0.2;stroke-linejoin:round" />
  <path
	  fill="#16a34a"
	  d="m 359,416 9,-1 v 2 l 8,-1 2,1 6,-2 -1,-1 -2,-2 4,-5 h -1 l -1,-4 -4,-2 -6,2 v -5 l -5,-7 3,-2 -4,1 -6,-2 -3,1 -7,-1 -2,2 -4,-1 -5,5 -11,2 -3,3 -5,4 -1,8 -3,2 -1,4 1,1 2,4 3,-3 9,2 1,1 4,-3 8,-1 3,3 6,-4 h 4 z m -221,-7 5,-1 3,-10 -3,-4 h -2 l 1,-4 -3,-4 1,-2 -5,-5 -1,-7 3,-8 -2,-3 1,-2 -3,-2 h 3 l 1,-2 -3,-1 -1,-5 -4,-1 -6,-3 -3,6 -3,-1 -2,5 -5,3 v 4 l -4,5 -4,-1 -2,-3 -3,4 -1,4 -6,1 v 8 l -3,2 h -2 l 1,2 3,5 v 3 l 4,4 v 10 3 l 1,1 8,-3 4,3 3,-2 3,3 8,-4 5,1 6,-2 5,1 v 2 z m 65,-66 6,-2 -2,-2 v -5 l -2,-3 h 3 l -2,-3 v -2 l -3,5 -10,-1 -1,6 -5,1 4,10 4,-5 z m 216,-75 3,-3 -2,-6 1,-6 4,-2 v -8 l 1,-6 h -2 v -2 l -3,-1 1,-2 4,1 -2,-2 v -8 l -1,-1 h 1 l 1,1 -1,-1 -1,-16 3,-28 v -3 l -1,-1 1,-8 v -2 h -2 v -7 l 1,-12 10,-48 3,-13 3,-6 1,-5 -2,-2 1,-2 h 2 l -1,-5 2,-1 -1,-1 -1,-3 -5,5 -7,8 -4,5 -9,4 -16,6 -16,-3 1,3 -3,6 2,1 -3,4 -1,4 5,-1 2,5 -2,6 1,6 -1,5 5,2 3,-2 h 7 l 2,2 2,-2 2,2 3,10 -2,12 -3,5 1,5 3,9 -2,5 6,2 1,4 -2,2 v 5 l -1,1 1,5 h -2 l -3,1 v 4 l -2,1 1,5 -5,4 -1,4 -3,1 -1,3 h -3 l -2,4 v 3 l -2,2 v 2 l -3,1 -3,10 4,3 3,-1 -1,6 h -2 2 l 3,8 1,14 4,3 6,2 2,-5 3,-2 v 1 l 2,2 7,-1 z m 8,-36 v 3 l 2,2 z m -207,-4 10,1 v -12 l -3,-16 -4,-2 -4,-1 -2,2 h -6 l -2,1 -2,-1 -7,3 h -7 l -1,5 2,1 v 4 l 4,3 3,3 -1,3 h 2 l 12,2 3,5 z m 42,-91 4,-2 v -2 l 6,-4 2,-5 -2,-3 3,-5 h 4 l 2,3 5,1 -4,-4 -1,-6 -2,-3 -2,-1 1,-3 h 2 v -2 l 3,-1 1,-2 h 2 l 4,-10 3,-3 2,-2 4,-2 -2,-2 6,-6 -2,-2 3,-3 1,-5 -3,-2 -2,1 -2,-1 -4,-5 -1,-7 -4,-3 1,1 -2,5 -3,2 v 4 l -3,1 -1,3 -4,1 v 5 l -2,11 -3,13 -3,2 -1,3 -1,1 2,3 -1,2 -1,6 -2,6 -3,7 1,6 v 4 z m 80,-84 9,-2 -1,-3 -2,-1 -10,-6 -17,-1 -4,-3 -4,-2 -5,-8 -4,-2 -1,4 6,8 -1,2 2,6 -1,7 -2,2 5,4 2,-1 6,-1 3,6 5,1 5,-4 v -5 z"
	  id="path14"
	  style="stroke:#000000;stroke-width:0.2;stroke-linejoin:round" />
  <path
	  fill="none"
	  stroke-width="1.6"
	  stroke-linecap="round"
	  d="m 426,164 -6,4 -4,5 h -3 l 1,4 -2,2 v 5 l -1,1 1,5 h -2 l -3,1 v 4 l -2,1 1,5 -5,4 -1,4 -3,1 -1,3 h -3 l -2,4 v 3 l -2,2 v 2 l -3,1 -3,10 v 3 l -2,7 -7,8 -1,4 -6,2 -6,6 -5,-1 v 5 l -1,-2 -12,4 -6,-2 -4,1 -2,-3 -5,1 v 5 l -3,3 -5,1 -2,2 v 1 l -2,5 -4,4 1,2 -2,3 -4,2 -6,-1 -2,2 -1,3 -1,3 2,4 h 4 l 2,3 h 5 l 7,8 -2,2 -1,6 -2,4 -1,6 -4,1 -5,-1 -3,-3 h -5 l -4,-1 v 4 l 2,4 -2,7 -3,2 h -1 l -1,1 1,3 -1,3 2,1 v 10 l -4,4 3,2 5,11"
	  id="path16"
	  style="stroke:#000000;stroke-linejoin:round;stroke-width:0.2;stroke-miterlimit:4;stroke-dasharray:none" />
  <path
	  fill="none"
	  stroke-width="0.2"
	  stroke-linecap="round"
	  d="m 152,207 -1,2 1,2 -2,2 -4,-3 -1,-2 h -3 l -2,3 m 62,11 v 5 l 9,7 -2,10 -1,3 2,1 2,10 -3,10 -2,21 1,5 -1,2 -4,1 v 2 l -6,4 -3,1 1,2 h -2 m -27,-67 v 3 l 3,1 v 3 l -2,1 1,1 -2,1 1,2 -5,2 1,3 -2,2 v 6 l 2,1 5,9 -2,2 1,3 1,-1 h 3 v 8 m -26,10 -2,-1 -1,1 m 142,53 -5,1 v -2 l -4,-3 -4,-7 -9,-5 -4,-4 -1,2 h -6 l -3,-2 -6,1 -1,2 -1,-1 -7,1 -4,-3 -5,-5 -1,-4 -4,1 -5,-1 -6,1 m -17,26 -1,1 1,-1 3,1 v 5 7 l 1,2 1,-2 2,1 -3,1 3,5 2,1 4,-4 3,1 5,3 2,4 m 65,-22 -5,3 -2,6 -4,4 h -10 l -3,3 1,4 -3,4 -3,1 h -3 l -8,-4 -3,-8 -4,4 h -3 l -1,-3 2,-5 -1,-2 -1,-3 -7,-3 -1,-2 -4,-1 1,-2 h -2 l -6,-5 m -50,-175 -3,-4 -4,-5 3,-16 -3,-7 v -6 l -3,-4 -3,-1 m 67,12 2,9 -1,1 v 2 h -2 l -2,2 -1,8 -2,1 -2,7 -3,4 -1,4 -3,2 -2,-2 -9,2 -2,-2 -3,1 -4,-2 m -4,-27 -1,4 -1,2 1,7 -3,3 1,2 -8,5 m 30,35 v -1 l -2,-2 1,-2 -3,-1 -3,-4 v -7 l -7,-5 -3,-5 v -2 m 213,48 -10,-1 m -36,30 -11,4 v 4 l 1,3 -1,3 -1,2 m -259,131 -1,-1 3,-4 -1,-4 3,-5 1,-7 2,-2 -1,-3 3,-6 -1,-4 1,-11 -2,-2 v -8 l 2,-3 1,-10 3,-2 v -1 l 3,-2 2,-7 4,-2 1,-5 4,-3 -2,-6 v -1 l -4,-1 m 94,-1 1,5 -2,-2 -5,-2 -2,5 v 5 l -2,-2 -2,1 -2,-1 -1,2 v -3 l -1,3 h -2 l -1,1 m 25,0 2,8 -2,2 4,2 -5,-1 -2,-3 -2,-4 -3,5 v 4 l -4,2 1,4 -2,1 -2,-2 m 189,-4 v -6 l 2,-3 7,-3 2,-3 3,-1 5,-3 1,-6 5,1 1,-1 -4,-1 v -5 l -2,-2 h -3 v 2 l -2,1 v 3 l -3,1 -2,-3 -3,-2 v 4 l -4,-3 1,-4 -1,-2 -6,-1 v -3 l -6,-1 -1,-2 h -7 l -3,-1 -2,2 h -5 l -5,1 -4,-2 -2,2 -4,-1 -2,-5 m 85,40 -5,5 -10,8 m 23,0 2,7 -3,3 -2,5 1,7 h 4 v -2 l 1,1 v 2 h -1 l -2,3 7,2 1,1 -1,-2 h 2 l 1,1 h 4 l 1,1 m -8,-1 -3,6 h -1 l -2,-3 -2,-3 -5,2 1,4 -2,1 -2,1 -5,-2 m 17,26 -12,6 1,4 -1,-1 -9,9 2,5 -3,1 -3,-3 -2,2 -8,3 m -20,41 1,-4 3,-1 v -3 l 2,-2 -1,-5 2,-2 -2,-2 -3,-1 -1,-2 -5,1 -9,-4 h -3 l -3,1 -10,-1 -4,-4 -6,1 -3,-1 -1,-2 -3,-1 m 88,8 -1,-5 h -3 l -3,-3 -5,1 -2,-4 -2,1 -1,-2 -8,2 -3,-5"
	  id="path18"
	  style="stroke:#000000;stroke-linejoin:round" />
  <path
	  fill="#eeeeee"
	  d="m 239,353 -5,9 4,7 -2,-7 2,-4 2,2 z M 146,194 h -3 l -3,4 h 3 l 1,9 5,5 5,-11 11,1 -3,-5 h -14 z m 29,46 v 2 l 3,-1 z m 118,146 -14,3 -4,5 11,24 6,-3 -4,-10 6,6 4,-3 -2,-9 4,1 -1,4 3,2 4,-4 -1,-7 -6,-9 z m 115,-123 -3,2 -5,11 8,22 -6,2 -5,-3 -2,5 5,8 8,-3 6,2 3,-5 -3,-24 5,-13 z m -120,-145 -5,1 1,3 5,-2 4,-5 z m 55,-22 -3,2 3,4 4,-3 z m -232,281 2,2 10,-6 z m 307,-124 -6,2 v -3 l -2,3 6,1 z m 0,-11 -5,3 3,1 z m -18,-12 -1,2 10,4 h 13 l -8,-6 z m 10,-8 7,7 6,-7 -5,3 z m -7,37 -1,3 6,1 v -4 z m -284,177 -5,-2 6,4 -2,5 -5,3 6,-3 2,-4 -2,-6 z"
	  id="path20"
	  style="stroke:#000000;stroke-width:0.2;stroke-linejoin:round" />
  <g
	  id="g30">
	 <rect
		 id="rect24"
		 height="36"
		 width="166"
		 y="463"
		 x="4"
		 opacity="0.75"
		 fill="white" />
	 <rect
		 id="rect26"
		 height="8"
		 width="158"
		 y="467"
		 x="8"
		 fill="black" />
	 <text
		 id="text28"
		 y="495"
		 x="87"
		 font-family="sans-serif"
		 font-size="24"
		 text-anchor="middle"
		 fill="black">50km</text>
  </g>
</svg>
