<?xml version="1.0" encoding="UTF-8" standalone="no"?>
<svg
   xmlns:dc="http://purl.org/dc/elements/1.1/"
   xmlns:cc="http://creativecommons.org/ns#"
   xmlns:rdf="http://www.w3.org/1999/02/22-rdf-syntax-ns#"
   xmlns:svg="http://www.w3.org/2000/svg"
   xmlns="http://www.w3.org/2000/svg"
   xmlns:sodipodi="http://sodipodi.sourceforge.net/DTD/sodipodi-0.dtd"
   xmlns:inkscape="http://www.inkscape.org/namespaces/inkscape"
   inkscape:version="1.0 (4035a4fb49, 2020-05-01)"
   sodipodi:docname="Tokushima.svg"
   id="svg32"
   version="1.1"
   height="436"
   width="578">
  <metadata
     id="metadata38">
    <rdf:RDF>
      <cc:Work
         rdf:about="">
        <dc:format>image/svg+xml</dc:format>
        <dc:type
           rdf:resource="http://purl.org/dc/dcmitype/StillImage" />
      </cc:Work>
    </rdf:RDF>
  </metadata>
  <defs
     id="defs36" />
  <sodipodi:namedview
     inkscape:current-layer="svg32"
     inkscape:window-maximized="1"
     inkscape:window-y="-8"
     inkscape:window-x="-8"
     inkscape:cy="170.37478"
     inkscape:cx="195.33982"
     inkscape:zoom="1.9678899"
     showgrid="false"
     id="namedview34"
     inkscape:window-height="1017"
     inkscape:window-width="1920"
     inkscape:pageshadow="2"
     inkscape:pageopacity="0"
     guidetolerance="10"
     gridtolerance="10"
     objecttolerance="10"
     borderopacity="1"
     bordercolor="#666666"
     pagecolor="#ffffff" />
  <title
     id="title2">衆議院小選挙区 徳島県</title>
  <desc
     id="desc4">Author: Lincun</desc>
  <rect
     id="rect6"
     height="436"
     width="578"
     y="0"
     x="0"
     fill="#eeeeee" />
  <path
     fill="#aaaaaa"
     d="m 485,-1 -1,5 5,1 3,9 -8,8 10,-4 h 7 l 3,4 3,-2 v -1 l -2,-1 3,-3 4,-2 2,1 -1,1 1,7 -3,-1 -1,1 h -2 l -5,11 1,3 8,1 5,4 2,4 -2,6 h 1 l 20,-6 h 11 l 8,-4 9,-10 13,-6 V -1 Z m 80,63 -3,-3 v -1 l -2,-1 1,5 -5,2 v 6 l 6,-1 3,-4 z M -1,137 h 1 l 2,1 4,5 9,-2 4,2 6,5 v 3 h 6 l 4,-3 4,2 2,-2 4,-3 1,-7 2,-4 6,-4 8,-5 3,-6 9,-6 4,1 -1,2 4,3 10,-2 v -4 l 2,-3 -1,-4 6,-3 4,2 7,-6 h 3 l 1,3 13,-5 5,5 8,-8 8,-1 v 5 l 3,3 v 5 l 5,3 2,3 4,1 2,5 6,-3 3,3 4,-2 1,-3 3,-3 8,1 v -4 l 7,-5 1,-6 3,-4 4,1 2,3 4,-1 2,-3 3,-2 6,4 12,-3 1,1 8,-9 -2,-10 4,-4 1,-4 5,-1 8,-5 6,2 4,1 2,-2 3,1 2,-1 5,-3 3,1 1,-1 9,1 8,-3 4,1 2,3 4,-2 h 3 l 2,6 5,-1 3,-3 7,2 2,-1 5,1 2,-7 5,1 8,7 3,-1 1,4 3,1 5,-2 5,3 v 3 l 3,-1 3,-4 4,-2 v -5 l -2,-3 4,-4 1,-10 -6,-2 -9,-7 -2,-4 4,-1 -1,-1 -2,-2 h -5 l 1,-2 -2,-5 -7,-6 -2,1 1,3 -3,2 -3,1 -3,-3 -3,1 -3,-1 -18,-13 -5,2 -3,-1 -4,-2 -1,-2 H 63 l -3,2 -1,-2 h -4 l 3,3 -2,1 V 5 L 54,3 52,-1 50,1 v 4 l 3,4 -11,9 -2,4 -5,4 -5,-2 v 2 h -3 l -3,7 -2,-1 2,-2 1,-6 h -1 l -2,6 -2,-5 4,-4 -1,-3 -3,4 -4,1 -2,3 h -4 l -5,-3 -6,2 v 13 h 1 l 1,-1 4,2 1,3 -2,1 h 2 l 3,7 2,-1 1,4 -2,3 1,1 -1,8 v 6 l -3,1 1,3 -1,9 -1,2 -2,1 3,1 H 3 l 1,6 h 1 v 6 5 l 2,1 -1,2 v 3 H 4 l 1,3 -2,-1 2,2 -4,13 -2,1 z M -1,-1 2,1 v 3 l -3,2 v 7 L 5,6 H 6 L 8,4 13,7 14,6 13,2 15,-1 12,0 11,-1 8,4 H 5 L 2,0 3,-1 Z M 22,6 27,7 28,5 23,3 22,4 Z M 4,48 3,49 h 2 z m -5,-4 1,2 H 3 L 2,43 Z M 37,12 h -2 l 1,1 z M -1,230 h 1 l 4,-4 4,-2 8,1 1,-2 7,-4 -1,-6 1,-4 6,-3 -2,-6 h -5 l 1,-4 7,-6 -2,-6 2,-5 -4,-1 -1,-3 1,-3 -1,-4 -3,-1 1,-6 4,-5 -3,-5 v -3 l -6,-5 -4,-2 -9,2 -4,-5 -2,-1 h -1 z m 0,198 26,-6 6,-2 -1,2 13,-2 h 4 l 8,1 5,3 -1,6 7,3 h 24 l 7,2 1,2 h 208 l 5,-6 -2,-1 v -2 l 1,-3 2,-1 2,-3 -2,-1 1,-2 h 5 l -3,-3 3,-1 v 2 l 1,-2 1,-3 h -3 l -2,1 v -3 l -7,-2 -4,1 -1,3 -4,-1 -2,2 h -4 l -4,-2 -2,2 -9,-8 -11,4 -1,-1 1,-4 -3,-4 v -3 l -2,-4 -6,-5 -1,-3 3,-3 -7,-3 -2,1 -2,-3 1,-4 -3,-2 1,-2 6,-3 10,-7 -6,-5 2,-3 -3,-5 3,-3 -1,-4 -5,-3 -7,2 -7,-5 -5,-1 -26,4 -4,-1 -1,-2 4,-2 v -5 l 2,-3 -2,-4 1,-6 -1,-3 h -2 l -2,-9 1,-6 v -11 l -6,-5 v -5 l -6,-6 2,-6 -2,-5 -10,4 h -7 l -3,-4 -3,-7 -4,2 -8,1 -4,4 1,7 -2,7 -3,2 h -8 l -5,5 -3,-2 h -3 l -4,-6 -3,1 -6,-2 -9,-16 -5,-1 -2,-5 h -5 l -5,4 -6,1 h -8 l -1,-3 h -5 l -9,3 h -4 l -3,-4 -2,-4 -14,-1 -3,1 -3,-3 -8,-2 -2,-3 -3,-1 -3,-9 -8,-1 -4,2 -4,4 h -1 z m 317,-7 1,-1 h -2 z"
     id="path8"
     style="stroke:#000000;stroke-width:0.2;stroke-linejoin:round" />
  <path
     fill="#16a34a"
     d="m 554,249 v -2 h -1 z m -3,-3 1,1 -2,-3 -2,1 z m -28,-4 -5,3 4,-1 3,-2 z m 39,-2 -2,-1 -2,3 h -3 v 6 l 5,-1 -1,-2 2,-1 z m -53,-1 v 3 l 2,-2 z m -22,-1 1,-1 -2,-1 1,-2 h -5 l 1,3 h -2 v 4 h 2 l 2,-4 z m 8,-6 -3,3 -1,-2 1,5 2,-1 2,-3 z m -48,48 15,-2 6,-6 14,-3 11,-7 2,7 h 4 l 3,-4 26,-12 -4,-5 -9,4 -1,2 -2,-3 h -7 l -3,3 -2,-1 -5,2 v -2 l 2,-1 2,-3 1,1 3,-2 11,-2 -1,-2 -5,-1 -7,1 -1,-2 h -1 l -1,2 -3,-1 -1,2 -1,-2 -3,4 -1,-3 -3,3 -1,-3 -2,2 -5,2 -2,-2 4,-3 -2,-1 1,-8 -3,2 v 2 l -5,2 2,-6 3,-1 -1,-3 1,2 3,-1 v -2 l 3,3 4,-3 -4,-4 7,2 1,-3 2,-1 1,4 6,-12 5,-3 -1,-2 3,-3 -2,-3 3,-4 -3,-8 -2,-6 -14,-8 -6,-12 -5,-9 -5,-5 -2,1 -1,3 3,3 h -1 l 1,3 -2,1 -1,-1 1,3 -1,-3 -3,4 h -1 v -3 h -2 l -3,5 2,-5 2,-2 -7,-2 -1,-1 1,-1 -4,-2 v -2 h -1 l 1,-1 v -2 l 4,-2 -5,-6 3,-3 -5,-1 3,-5 h -2 l 1,-2 h 3 l -5,-3 v -1 l 2,1 6,-15 2,3 v 2 l 2,-3 h -2 l -2,-2 1,-12 h -1 l -6,-13 -7,-3 -7,5 h -1 v 7 l -8,-2 -3,-7 h -2 -7 l -4,4 -1,5 -4,1 h -5 l -7,-3 -5,1 v 6 l -1,1 h -1 l -1,7 4,-2 2,2 h -1 v 5 l 3,9 -12,5 h -8 l -2,2 3,5 -1,8 4,5 7,-2 1,3 -1,4 5,1 3,-2 v -3 l 7,-4 3,1 2,4 h 3 l -2,3 1,9 -5,2 -2,3 2,9 6,-1 5,4 9,1 3,3 8,-3 1,1 6,-2 1,10 -4,3 -1,3 -11,4 -2,5 -4,1 -3,-1 -1,2 -5,4 -5,-2 -8,6 -3,5 v 3 l 2,2 -3,7 2,2 3,-2 5,1 1,-2 3,1 1,3 10,-5 h 9 l 3,3 h 5 v 8 l -8,1 -4,3 -3,3 v 5 l -5,3 -2,6 -1,3 2,3 5,-1 3,3 9,-2 4,3 3,5 h 4 z m 20,-227 2,-1 v -7 l 2,-9 3,-4 v -3 l 3,-6 -4,4 -9,1 v 7 h 4 l -1,5 -2,-1 -3,4 -3,-2 2,-2 v 2 l 3,-1 v -3 h -2 l -5,4 h -3 l -2,-2 -1,1 1,5 12,4 z m -86,-2 8,-1 v 4 l 5,5 6,-1 4,17 h 3 l 4,3 1,-1 5,2 7,6 5,-6 h 7 l 2,-2 2,-4 3,1 v -3 h 3 l 7,6 4,-2 7,3 13,-21 -1,-1 h -8 l -6,-5 -8,-3 -5,-4 -1,-6 4,-6 -2,-5 2,-3 h -6 l -5,2 v 2 l 3,3 v 2 l -3,-2 -3,2 -9,-2 h -15 l -11,3 -6,7 -9,1 -6,-1 z m 83,-32 -1,-2 -4,-1 -6,6 -2,6 3,4 -2,1 1,5 2,-5 1,1 v -3 l 5,-5 v 3 l 3,-2 1,-3 -1,-2 1,-1 z m -253,73 -2,3 -4,1 -2,-3 -4,-1 -3,4 -1,6 -7,5 v 4 l -8,-1 -3,3 -1,3 -4,2 -3,-3 -6,3 -2,-5 -4,-1 -2,-3 -5,-3 v -5 l -3,-3 v -5 l -8,1 -8,8 -3,2 1,2 10,14 1,10 5,1 16,7 6,-3 8,3 h 1 l 6,-1 5,-3 h 13 l 9,-2 2,-3 6,-3 -1,3 h 3 l 1,1 -1,4 6,7 3,1 1,6 2,1 -1,8 -3,4 1,5 -2,5 v 7 l -4,4 v 5 l 3,5 -3,10 13,2 v 11 l -2,6 -6,2 -5,5 h -5 l 1,2 -13,2 h -7 l -3,-9 3,-5 -6,-3 -4,1 -5,-1 -7,-4 1,-7 -13,-3 -4,-7 5,-5 -2,-8 h -7 l -2,-2 1,-4 -3,-2 -6,1 -9,-2 v -9 l -3,-6 -2,-1 -1,-4 -5,-7 v -6 l -6,2 -11,-3 -3,1 1,-7 -9,-8 -2,-4 -5,-3 -10,2 -4,-3 1,-2 -4,-1 -9,6 -3,6 -8,5 -6,4 -2,4 -1,7 -4,3 -2,2 -4,-2 -4,3 h -6 l 3,5 -4,5 -1,6 3,1 1,4 -1,3 1,3 4,1 -2,5 2,6 -7,6 -1,4 h 5 l 2,6 -6,3 -1,4 1,6 -7,4 -1,2 3,9 3,1 2,3 8,2 3,3 3,-1 14,1 2,4 3,4 h 4 l 9,-3 h 5 l 1,3 h 8 l 6,-1 5,-4 h 5 l 2,5 5,1 9,16 6,2 3,-1 4,6 h 3 l 3,2 5,-5 h 8 l 3,-2 2,-7 -1,-7 4,-4 8,-1 4,-2 3,7 3,4 h 7 l 10,-4 3,-4 5,1 13,-7 4,1 5,-6 6,1 1,-1 6,-1 5,-5 6,-2 3,2 h 5 l 3,-2 3,-5 6,-4 9,2 1,-2 4,-2 h 5 l 4,-2 -1,-6 -3,-3 -1,1 -4,-2 1,-6 4,-7 -2,-10 4,-3 4,-1 2,-6 4,-4 -2,-3 2,-3 9,-4 3,1 4,-6 3,-1 1,-2 3,1 3,-1 6,2 -1,-3 5,-7 1,-5 4,-1 3,-4 2,-1 6,6 4,-7 5,-2 4,-4 4,2 v -2 l -1,-13 -2,-7 -1,-2 v -7 l 3,-1 -1,-6 -6,1 -1,-1 -3,-8 2,-5 -7,-9 4,-9 -8,-7 -5,-1 -2,7 -5,-1 -2,1 -7,-2 -3,3 -5,1 -2,-6 h -3 l -4,2 -2,-3 -4,-1 -8,3 -9,-1 -1,1 -3,-1 -5,3 -2,1 -3,-1 -2,2 -4,-1 -6,-2 -8,5 -5,1 -1,4 -4,4 2,10 -8,9 -1,-1 -12,3 -6,-4 z"
     id="path10"
     style="stroke:#000000;stroke-width:0.2;stroke-linejoin:round" />
  <path
     fill="#16a34a"
     d="m 326,420 2,-1 -4,-5 1,3 h -1 z m 11,-26 9,-2 1,-2 h -2 1 v -2 l 3,-7 7,-4 v -2 l 2,-1 1,-2 h -12 l -1,-2 4,-2 v -2 l 3,1 -1,-2 5,-3 v -3 l 3,-1 -1,-1 h 3 v -3 h 2 l 1,-3 3,4 2,-1 2,-1 v -5 l 4,1 -1,2 3,-2 h 4 l 4,-4 h 2 l 10,-6 6,-3 v -2 h 3 v -1 l 5,-1 1,-3 h 3 l 2,-2 1,1 v -3 l 4,-1 8,-6 v -9 l 2,-2 2,2 2,-6 2,1 -2,5 5,1 v -5 l 4,-7 -3,-4 1,-3 3,3 2,-1 -1,-4 2,-1 1,2 2,-3 2,1 v 4 h 3 l 1,-5 3,-2 v -2 l 2,-1 2,1 1,-4 h 7 l 3,4 v -5 h 4 l 9,-7 5,-2 -2,-7 -11,7 -14,3 -6,6 -15,2 -3,-4 h -4 l -3,-5 -4,-3 -9,2 -3,-3 -5,1 -2,-3 1,-3 2,-6 5,-3 v -5 l 3,-3 4,-3 8,-1 v -8 h -5 l -3,-3 h -9 l -10,5 -1,-3 -3,-1 -1,2 -5,-1 -3,2 -2,-2 3,-7 -2,-2 v -3 l 3,-5 8,-6 5,2 5,-4 1,-2 3,1 4,-1 2,-5 11,-4 1,-3 4,-3 -1,-10 -6,2 -1,-1 -8,3 -3,-3 -9,-1 -5,-4 -6,1 -2,2 -3,-1 -3,7 -2,1 -9,-2 -4,1 -3,-2 -14,3 -1,-3 3,-3 v -6 l 3,-2 v -5 l 2,-1 3,-5 3,1 4,-2 v -5 l 1,-2 5,1 1,-4 -1,-3 -7,2 -4,-5 1,-8 -3,-5 2,-2 h 8 l 12,-5 -3,-9 v -5 h 1 l -2,-2 -4,2 1,-7 h 1 l 1,-1 v -6 l 5,-1 7,3 h 5 l 4,-1 1,-5 4,-4 h 7 2 l 3,7 8,2 v -7 h 1 l 7,-5 7,3 6,13 h 1 l -1,-3 1,-7 7,-12 h -2 v -1 l -7,-3 -4,2 -7,-6 h -3 v 3 l -3,-1 -2,4 -2,2 h -7 l -5,6 -7,-6 -5,-2 -1,1 -4,-3 h -3 l -4,-17 -6,1 -5,-5 v -4 l -8,1 -4,4 2,3 v 5 l -4,2 -3,4 -3,1 v -3 l -5,-3 -5,2 -3,-1 -1,-4 -3,1 -4,9 7,9 -2,5 3,8 1,1 6,-1 1,6 -3,1 v 7 l 1,2 2,7 1,13 v 2 l -4,-2 -4,4 -5,2 -4,7 -6,-6 -2,1 -3,4 -4,1 -1,5 -5,7 1,3 -6,-2 -3,1 -3,-1 -1,2 -3,1 -4,6 -3,-1 -9,4 -2,3 2,3 -4,4 -2,6 -4,1 -4,3 2,10 -4,7 -1,6 4,2 1,-1 3,3 1,6 -4,2 h -5 l -4,2 -1,2 -9,-2 -6,4 -3,5 -3,2 h -5 l -3,-2 -6,2 -5,5 -6,1 -1,1 -6,-1 -5,6 -4,-1 -13,7 -5,-1 -3,4 2,5 -2,6 6,6 v 5 l 6,5 v 11 l -1,6 2,9 h 2 l 1,3 -1,6 2,4 -2,3 v 5 l -4,2 1,2 4,1 26,-4 5,1 7,5 7,-2 5,3 1,4 -3,3 3,5 -2,3 6,5 -10,7 -6,3 -1,2 3,2 -1,4 2,3 2,-1 7,3 -3,3 1,3 6,5 2,4 v 3 l 3,4 -1,4 1,1 11,-4 9,8 2,-2 4,2 h 4 l 2,-2 4,1 1,-3 4,-1 7,2 v 3 l 2,-1 h 3 l -1,3 h 1 v 1 l 3,1 1,-4 2,-1 -2,-2 -2,1 1,-3 h -3 1 l 1,-8 3,-1 -1,-2 3,-1 8,3 10,-1 2,-1 -5,-1 -10,1 v -2 z m 39,-28 v -2 h -2 v 5 h 2 z m 34,2 3,-6 -3,2 -6,-4 -1,2 2,3 -3,-1 1,2 z m 44,-73 v -3 l -1,3 z M 219,129 h -3 l 1,-3 -6,3 -2,3 -9,2 h -13 l -5,3 -6,1 h -1 l -8,-3 -6,3 -16,-7 -5,-1 -1,-10 -10,-14 -1,-2 3,-2 -5,-5 -13,5 -1,-3 h -3 l -7,6 -4,-2 -6,3 1,4 -2,3 v 4 l 5,3 2,4 9,8 -1,7 3,-1 11,3 6,-2 v 6 l 5,7 1,4 2,1 3,6 v 9 l 9,2 6,-1 3,2 -1,4 2,2 h 7 l 2,8 -5,5 4,7 13,3 -1,7 7,4 5,1 4,-1 6,3 -3,5 3,9 h 7 l 13,-2 -1,-2 h 5 l 5,-5 6,-2 2,-6 v -11 l -13,-2 3,-10 -3,-5 v -5 l 4,-4 v -7 l 2,-5 -1,-5 3,-4 1,-8 -2,-1 -1,-6 -3,-1 -6,-7 1,-4 z"
     id="path12"
     style="stroke:#000000;stroke-width:0.2;stroke-linejoin:round" />
  <path
     fill="#16a34a"
     d="m 378,183 3,2 4,-1 9,2 2,-1 3,-7 3,1 2,-2 -2,-9 2,-3 5,-2 -1,-9 2,-3 h -3 l -2,-4 -3,-1 -7,4 v 3 l -3,2 -5,-1 -5,-1 -1,2 v 5 l -4,2 -3,-1 -3,5 -2,1 v 5 l -3,2 v 6 l -3,3 1,3 z"
     id="path14"
     style="stroke:#000000;stroke-width:0.2;stroke-linejoin:round" />
  <path
     fill="none"
     stroke-linecap="round"
     d="m 176,116 v 22 m 87,-15 -3,-13 5,-4 4,-8 5,-5 1,-10 3,-3 v -7 l 2,-2 -1,-5 -5,-6 m 165,133 2,1 5,-4 17,-3 1,-6 5,-5 v 2 l 3,1 h 2 v -2 l 1,-1 3,-7 4,-3 m -218,-43 2,4 -1,4 4,4 v 5 l -1,2 -7,8 3,2 -1,3 5,4 1,4 -1,2 3,4 7,2 16,-1 m 75,-100 4,6 3,1 1,10 5,4 1,3 7,-1 7,-2 -1,-5 3,-1 v -5 l 5,-5 m -14,18 1,2 m 33,-10 v 3 m 14,-11 5,2 -2,5 4,1 m -69,44 -2,-2 -5,-1 -4,3 m -1,57 v 4 l -5,1 -1,2 -4,-1 -3,3 -10,2 -5,4 -7,-5 -6,5 -4,-1 -3,10 -4,2 -2,-5 -11,-1 h -6 l -9,5 m 111,21 -2,3 -12,3 -2,2 -2,-1 h -4 l -3,-1 -3,3 h -5 l -5,2 -4,-3 -8,5 -2,-2 -3,1 1,-5 -6,-1 -2,-3 -4,1 v -6 l -2,-2 1,-5 -6,-10 -6,-3 m 61,29 3,-4 v -4 l 6,-5 -2,-4 4,-6 v -12 l 2,-3 -11,-2 v -3 h -2 l 2,-4 -1,-9 m 46,87 -1,2 -10,3 -8,1 -4,4 v 2 l -2,3 -5,-1 -2,2 -6,1 1,4 -11,3 -3,2 1,3 -4,6 -6,1 v 6 l -3,3 -12,-1 -4,-3 -2,2 -3,-1 -3,1 -3,-2 -2,2 -6,-3 -9,1 -6,2 -3,-2 -12,7 -3,-1 -1,-2 -7,3 -5,-2 -6,1 -1,2 -21,12 v 4 m 146,4 1,-2 v -5 h -5 l -2,-2 -2,-4 -1,-8 -2,-3 -11,5 -5,-2 h -11 l 1,3 -14,5 v 4 l -2,1 2,6 -1,4 4,2 -1,4 10,10 m 1,-39 1,-3"
     id="path16"
     style="stroke:#000000;stroke-width:0.2;stroke-linejoin:round" />
  <path
     fill="none"
     stroke-width="1.6"
     stroke-linecap="round"
     d="m 459,101 h -1 l -6,-13 -7,-3 -7,5 h -1 v 7 l -8,-2 -3,-7 h -2 -7 l -4,4 -1,5 -4,1 h -5 l -7,-3 -5,1 v -1 l -4,5 -1,-1 -11,2 -13,8 -1,-2 -6,2 -3,-1 v 2 l -18,1 h -2 v 6 l -4,2 -5,1 -2,-1 -16,1 h -3 -14 l -25,3 h 1 m -45,6 h -3 l 1,-3 -6,3 -2,3 -9,2 h -13 l -5,3 -6,1 h -1 l 3,6 -3,11 2,3 v 6 l -4,8 -5,2 -5,7 2,8 -5,5 4,7 13,3 -1,7 7,4 5,1 4,-1 6,3 -3,5 3,9 h 7 l 13,-2 3,11 -5,6 -4,-1 -13,7 -5,-1 -3,4 M 391,96 v 6 l -1,1 h -1 l -1,7 4,-2 2,2 h -1 v 5 l 3,9 -12,5 h -8 l -2,2 3,5 -1,8 4,5 7,-2 1,3 -1,4 -5,-1 -1,2 v 5 l -4,2 -3,-1 -3,5 -2,1 v 5 l -3,2 v 6 l -3,3 1,3 14,-3 3,2 4,-1 9,2 2,-1 3,-7 3,1 2,-2 6,-1 5,4 9,1 3,3 8,-3 1,1 6,-2 3,-1 -3,-7 2,-2 -2,-5 -2,-2 -8,3 2,-9 3,-4 -1,-6 3,-1 v -4 l 1,4 2,2 10,-2 3,3 2,-1"
     id="path18"
     style="stroke:#000000;stroke-linejoin:round;stroke-width:0.2;stroke-miterlimit:4;stroke-dasharray:none" />
  <g
     id="g30">
    <rect
       id="rect24"
       height="36"
       width="262"
       y="4"
       x="4"
       opacity="0.75"
       fill="white" />
    <rect
       id="rect26"
       height="8"
       width="254"
       y="8"
       x="8"
       fill="black" />
    <text
       id="text28"
       y="36"
       x="135"
       font-family="sans-serif"
       font-size="24"
       text-anchor="middle"
       fill="black">50km</text>
  </g>
</svg>
