<?xml version="1.0" encoding="UTF-8"?>
<!DOCTYPE svg PUBLIC "-//W3C//DTD SVG 1.1//EN" "http://www.w3.org/Graphics/SVG/1.1/DTD/svg11.dtd">
<svg width="503" height="521" version="1.1" xmlns="http://www.w3.org/2000/svg">
	<title>山梨県行政区画地図 (2010年3月8日)</title>
	<desc>Author: Lincun</desc>
	<rect fill="#eeeeee" x="0" y="0" width="503" height="521"/>
	<g stroke="black" stroke-width="0.2" stroke-linejoin="round">
		<path fill="#aaaaaa" d="M265-1l1 5 12 4 2-5 5-1 3-3zM288-1l-3 3-5 1-2 5v8l3 5 1 2 3 2 2 7 4 4-1 7-4 6 1 2-1 3 3 3 2-1 5 3 2-1 5 1h8l5 5 1 10 8 4 3 4 5-2h1l3 2 4-1 4-1 4 1 1 4h2h3l5 6 3 1 3 3 1 1 3-4 6-4 7 2 3-1h1l5-2v-3l1-3v-2l10-7 6-4 4 3 7-2 5-8 4-1 9 6 6 6 10 4 2-1h1l3-1 5 4 4 1 23 3 6 3 2 4h1l3 1v-91zM504 90l-3-1h-1l-2-4-6-3-23-3-4-1-5-4-3 1h-1l-2 1-10-4-6-6-9-6-4 1-5 8-7 2-4-3-6 4-10 7v2l-1 3v3l2 3v4l3 4 4 4 4-1v15l3 9 5 6-1 8 4 8 4 3h3l3 6v1v2l7 11 22 13 6 1 5 2 3-1 4 1 12 12 3-1 8 4 4-1 3 4 1 6zM504 210l-1-6-3-4-4 1-8-4-3 1-1 2-2 2-3 5-1 2 5 7-2 5v6l6 4-4 3 3 2-1 3-1 6-2 1-2 3 3 2-1 1 2 1v7v3l-8 9 1 7-7 8-5 4-2 4-5 1-5 1-3 1-7-2-1 7-8 9v2l-2 1h-4l-4 3h-9l-5 7-3-2-6 3-6 3-5 5-4 5-2 5 2 3v4l-6 5-1 5v2l14 1 9-2 5-2 4 1 2 1h7l2 2-2 9 3 4 1 10 3 1-2 5 1 8 2 2 2 3-4 10-3 13v1l-3 1-2 2-1 1-8 12-1 5v5l3 5-2 2 4 8-1 3 3 4v6l5 4 2 3 6 5h4l2 4v1l2 2-1 5-1 1 3 2-2 1 1 3h5l13 4 4-1 8 3 7-1h4l5-5h7l1 1 2 2 5 2h4l-1-3h-4l-4-3 1-1v-3v-2l-2-1 2-3-4-7v-2l2-4-1-6 2-4v-16l3-4-1-1h2l8-7zM-1 370l1-1v-5l-1-2zM-1 327l4-1 2-6-2-2 1-8 3-4-5-1-3-3zM-1 282l6-7-4-5-2-1zM-1 265l1-2 1-4 3-1 2-5 3-1 8 6 3-2 2-10 6-10-2-6 1-8 3-1 3-4 1-3-5-6-1-5-6-5-1-7 1-9-7-10 1-2 8-6 1-4 4-1 7-9 4-2 2-2 1-1-1-3-5-1-9-11-3 1-4-2-3-4 3-7 7-8-1-4 8-15 4-6 3-11 3-5 4-1h2l6 6 2 4 8 6 6-7 5-9 12-15 1-4 5-6 1-9 6-5h2v-4l5-9h5l7 4 12 3 11 5 4 4 2 4-3 6-1 5 2 7 2 6 3-3 5 5 6-2 4 2 2-6v-3h1l3-1 3-6 10 5h5l7-3 2 2 3-1 6 4 3-4 4-1 6 6h5l-4 9 1 2v8l5 4 2 1 4-2 3 2 4-3 3 1 4-2 2 1 7 3 5-13v-1l4-4h1l6-6h10l1-3-1-2 4-6 1-7-4-4-2-7-3-2-1-2-3-5v-8l-12-4-1-5h-266zM268 522l-3-3h5v2l2-1-2 2h207v-2h-4l-7 1-8-3-4 1-13-4h-5l-1-3 2-1-3-2 1-1 1-5-2-2v-1l-2-4h-4l-6-5-2-3-5-4v-6l-3-4 1-3-4-8 2-2-3-5v-5l1-5 8-12 1-1 2-2 3-1v-1l3-13 4-10-2-3-2-2-1-8 2-5-3-1-1-10-3-4 2-9-2-2h-7l-2-1-4-1-5 2-9 2-14-1-11 6-3 3h-4l-3 3-5-6-3 2-3-2-6 4h-1l-8 6-2-1h-9l-34 7-6-1-9 2-1 2-9 1-4-21-3-2-13-1-15 3-6-24-5-3-2-5-2 1-2 2-8 4-3 6-10 9 2 12-2 3-2 3 1 2-1 16 3 5v7l-11 10v7l5 11-1 8-3 2v3l3 4 6 20-3 4 3 6v4l-2 2-3-1-1 1-3-1v5l-4 3-3 5-4 4h-2l-5-5-3 2-6-3-7 1h-4l-4-1-6-12-6-1-4 1-3-12-3-16-4-5-5-10 1-4-1-7 3-7-3-6-4-2v-3l-6 1-6-6-5-1-5 3-3 3-6 1-3 4-3 3h-1l-6-6h-5l-3-3v-3l-3-4 4-5-1-8-2-8-9-3 3-8 4-5v-4l6-5v-3l1-12-2-8-4-2-2-4 1-5 3-1 2-3 1-7 1-15 5-5-3-6v-2l-3-2v-3l1-7-1-5h-3l-3-5v-4l-2-2-1-7 2-6-1-7h-2l-1-6 1-3-4-4 2-8-2-3h-5l-1 3-3 4-3 1-1 8 2 6-6 10-2 10-3 2-8-6-3 1-2 5-3 1-1 4-1 2v4l2 1 4 5-6 7v20l3 3 5 1-3 4-1 8 2 2-2 6-4 1v35l1 2v5l-1 1v152z"/>
		<path fill="#16a34a" d="M287 385l34-7h9l2 1 8-6h1l6-4 3 2 3-2v-2l-17-11 1-3 3-6-2-1-15-6v-2l2 2 1-1v-8l-1 1v-2v-1l3-3 2-9 7 5 5-2h3l2-2 7-4v-2l5-1 4 8-1 3 4 4 2 4 4 3h3l8-5 2-1-1-5 3-11 4-5 6-1 7-5 2-3 2-7h4l7-2 1-2 4-1v-4l-1-3 4-2 5-1 25-1 5-1 3 3 11-4 8-9v-3v-7l-2-1 1-1-3-2 2-3 2-1 1-6 1-3-3-2 4-3-6-4v-6l2-5-5-7 1-2 3-5 2-2 1-2-12-12-4-1-3 1-5-2-6-1-22-13-7-11v-2l-2 2-8 13-10 1-3-5-9-4-5-5-14-4-8 1-16 7-3-2-1-5-3-5-9-3-4-7v-3l-2-3 12-1 3 1 8-2 3-2 1-7-2-1-2-3 1-3-5-2 3-5-4-3v-4l4-2v-2l2-4-1-4v-6h-2l-1-4-4-1-4 1-4 1-3-2h-1l-5 2-3-4-8-4-1-10-5-5h-8l-5-1-2 1-5-3-2 1-3-3h-10l-6 6h-1l-4 4v1l-5 13-7-3-2-1-4 2-3-1-4 3-3-2-4 2-2-1-5-4v-8l-1-2 4-9h-5l-6-6-4 1-3 4-6-4-3 1-2-2-7 3h-5l-10-5-3 6-3 1h-1v3l-2 6-4-2-6 2-5-5-3 3-2-6-2-7 1-5 3-6-2-4-4-4-11-5-12-3-7-4h-5l-5 9v4h-2l-6 5-1 9-5 6-1 4-12 15-5 9-6 7-8-6-2-4-6-6h-2l-4 1-3 5-3 11-4 6-8 15 1 4-7 8-3 7 3 4 4 2 3-1 9 11 5 1 1 3-1 1-2 2-4 2-7 9-4 1-1 4-8 6-1 2 7 10-1 9 1 7 6 5 1 5 5 6h5l4-3 9 3h13l2-1 13 2 2 4v2l-2-1 1 5 1 3-3 4 2 4-2 1 1 4 2-1 6-4 4 3-1 4 2 4 5 1 3-1 1 2 6 1 1-3 4-2 3 2h4l5 1 5-3v4h4v4l5 1 4 1 8-2 5 2 5 4v3l2 2 4-4 4-2 10-1 3 2 1-2v-1l5-4 4 4 2-2v6l-4 3 2 3-2 3 2 2 12 4h3l1-3 5-1 6 1v3l-4 7v4l3 5v4l4 5 6 1h3l8-6h4l2-2 14-2 3-3v-2l3-1 3-3 13-4 11-7 7-1 5-4 7 1 4-1 1-5v-1l3-1v3l1 5 4 3 1 2h14l7 7h2l2 1-1 2 3 2-6 3 1 9v4l-8 2-3-6 3-6h-2l-1-3-5-1-2-3h-6l-2 5-5 3-3 4v3l-3 3 2 6-7-1 1 2-2 1 1-1-1 2 3 1 2-2h3l-8 5-3 7-2 12-4 5-11 12 3 17-1 9zM299 362h1v3zM200 232l-5-1-5 1v5l-3-1-1-3-1 2-2 1-2-8h-3l-1-7 10 3h1l-1-2 3 1-3-4 5-6 2 2 1-5 2 3h2l-1 2h1l-1 2h-2l3 7h-2v2v2l2 1z"/>
		<path fill="#16a34a" d="M169 503l4-4 3-5 4-3v-5l3 1 1-1 3 1 2-2v-4l-3-6 3-4-6-20-3-4v-3l3-2 1-8-5-11v-7l11-10v-7l-3-5 1-16-1-2 2-3 2-3-2-12 10-9 3-6 8-4 2-2 2-1 2 5 5 3 6 24 15-3 2-2 2-4 2-1v-5l7-2-3-7v-7l-2-3 1-4 4-14 4-4 10-2 6-3 5-2 5 4 2-1 1 3-4 13 10 4 3 10 4-5 2-12 3-7 8-5h-3l-2 2-3-1 1-2-1 1 2-1-1-2 7 1-2-6 3-3v-3l3-4 5-3 2-5h6l2 3 5 1 1 3h2l-3 6 3 6 8-2v-4l-1-9 6-3-3-2 1-2-2-1h-2l-7-7h-14l-1-2-4-3-1-5v-3l-3 1v1l-1 5-4 1-7-1-5 4-7 1-11 7-13 4-3 3-3 1v2l-3 3-14 2-2 2h-4l-8 6h-3l-6-1-4-5v-4l-3-5v-4l4-7v-3l-6-1-5 1-1 3h-3l-12-4-2-2 2-3-2-3 4-3v-6l-2 2-4-4-5 4v1l-1 2-3-2-10 1-4 2-4 4-2-2v-3l-5-4-5-2-8 2-4-1-5-1v-4h-4v-4l-5 3-5-1h-4l-3-2-4 2-1 3-6-1-1-2-3 1-5-1-2-4 1-4-4-3-6 4-2 1-1-4 2-1-2-4 3-4-1-3-1-5 2 1v-2l-2-4-13-2-2 1h-13l-9-3-4 3 2 3-2 8 4 4-1 3 1 6h2l1 7-2 6 1 7 2 2v4l3 5h3l1 5-1 7v3l3 2v2l3 6-5 5-1 15-1 7-2 3-3 1-1 5 2 4 4 2 2 8-1 12v3l-6 5v4l-4 5-3 8 9 3 2 8 1 8-4 5 3 4v3l3 3h5l6 6h1l3-3 3-4 6-1 3-3 5-3 5 1 6 6 6-1v3l4 2 3 6-3 7 1 7-1 4 5 10 4 5 3 16 3 12 4-1 6 1 6 12 4 1h4l7-1 6 3 3-2 5 5zM195 231l5 1-1-3-2-1v-2v-2h2l-3-7h2l1-2h-1l1-2h-2l-2-3-1 5-2-2-5 6 3 4-3-1 1 2h-1l-10-3 1 7h3l2 8 2-1 1-2 1 3 3 1v-5zM299 362l1 3v-3z"/>
		<path fill="#16a34a" d="M287 385l1-9 1-9-3-17 11-12-3-10-10-4 4-13-1-3-2 1-5-4-5 2-6 3-10 2-4 4-4 14-1 4 2 3v7l3 7-7 2v5l-2 1-2 4-2 2 13 1 3 2 4 21 9-1 1-2 9-2zM386 339l4-5 5-5 6-3 6-3 3 2 5-7h9l4-3h4l2-1v-2l8-9 1-7 7 2 3-1 5-1 5-1 2-4 5-4 7-8-1-7-11 4-3-3-5 1-25 1-5 1-4 2 1 3v4l-4 1-1 2-7 2h-4l-2 7-2 3-7 5-6 1-4 5-3 11 1 5-2 1-8 5h-3l-4-3-2-4-4-4 1-3-4-8-5 1v2l-7 4-2 2h-3l-5 2-7-5-2 9-3 3v1v2l1-1v8l-1 1-2-2v2l15 6 2 1-3 6-1 3 17 11v2l5 6 3-3h4l3-3 11-6v-2l1-5 6-5v-4l-2-3zM406 173l10-1 8-13 2-2v-1l-3-6h-3l-4-3-4-8 1-8-5-6-3-9v-15l-4 1-4-4-3-4v-4l-2-3-5 2h-1l-3 1-7-2-6 4-3 4-1-1-3-3-3-1-5-6h-3v6l1 4-2 4v2l-4 2v4l4 3-3 5 5 2-1 3 2 3 2 1-1 7-3 2-8 2-3-1-12 1 2 3v3l4 7 9 3 3 5 1 5 3 2 16-7 8-1 14 4 5 5 9 4z"/>
		<path fill="none" stroke-linecap="round" d="M328 82l-1 2-4 5v6l-7 4-2 6 1 5-2 3 1 2v9l1 4-4 1-4-3h-3l-12 1 1 2-2 1 1 4h2v2l-4 12-2-3-4 4-2 7-5 5 1 4-5 9 2 1v2l4-1-1 4-1 4 2 1-1 2 2 1v1l-8 7 4 3v5l3 1v5v2l-2-1v2l5 4-1-4 2 5h1l1 2 1-1 5 1 1 6 5 1 1 3h2l4-2 1 11h4l3-7 5-1 6-3h6l4-5 3 1 1-3 5-4h2l3-5-2-14 6-10-2-8v-8l2-9M276 204h-4l-8 1-9-1 3-7-6-2-2-2-2 1 1-1-5-3 3-2-3-1-6-6-4-6-3-1-1-1 3-2-2-2-2 1-6-3-4-3 3-4-3-5 2-1-1-4 5-5v-2l3-7 3-2v-2l-2-5 1-3 4-3 1 1 3-2-1-2h3l1-5-3-2-1-4 3-4 2-10-2-4 3-2 9-9 1-3M233 78v5l-3 1h-3l-2 6-1 1h-5l-2 8-4 4-7-1-1 1h-4v5l1 2-4 6-1 4 1 5-2 4-3 8 1 7 4 1h3l1 2-2 2v2l4 2 2 4-3 3 1 1-3 1-4 3 1 3h-2l-2 5h-3l-6 4v6l5 7 1 3-1 2 1 2-3 6 4 5-2-1 2 2-3 1 3 3M197 120l-8-3-2-1-8 3 1 8-5 10-2 2 7-1 3 3-2 6 2 2-5 9 1 4-7 7-7 6-1-5h-3l-5 9 4 8-2 1 9 7 4 1 1 3 4 20v3l1-1M173 139l-5 1-1 3-4 5-10 5-2 3-3 3-6-10-5-10-4-3-4 4-2 1h-1l-2-4-16 3v2l2 2v2l5 5-6-1-6 1-3 2-4-1v5l-2 4-3 7-6 6-4 1-6-2-2 2 7 8 2 6 1 4 10 5 8-2 2-5h7l4 2v2l4-2 1 3 4 2 5-1 11 7 19-6h5l4-3M73 175h-6l-8-6-3-5-3-1-7-2-4-3v-5l-2-5M231 174v3l4 5-2 2 1 2h-3l-4 1 5 6 2 6 2 1v6l-2-1 1 2 5 2-17 11-2 10-1 2 6-1v4l1 5-8 4-1 3-1-2h-2v3l10 8 3-1 3 2 1 3 3 8-4 5 4 3 4 6h3l1 5 4 3v3M406 173l-2 3 1 2 4 3 3 6 5 3-1 6 2 1 7 3 5 1 3 8-4 6-2 4 4 3 1 9 8 3h2l10-2 2 8-2 2 1 4v4l-2 2-4-2-5 2-4-1-5 2-3-2-1 1-2 2h-4v6l6 5v4l3 2h2v1l-2 3M423 254l-4-1-3 2-3-1-1 2-8 3-5 1-2-1-2-8v-6l-1 1-3-7-2 1-3 1-2 4-2-1-5 4-4 1-3 4h-2l-4 1-3 3-2-1-6 2-12-5-7-1-13 7M215 271v-3l-3-1-1-8-6-5-2-2 1-5-3-1 2-3-1-5-1 1-1-2v-5M318 260l-3-4 1-2-2-3h-3l-3-1 1-4-4-7M178 228l-2 1 2 16-7 13M354 312l-1-5-3-4-1-3M98 248l-2 3h-3l-1 2-4 8-3 2 1 2 1 8 3-2 12 2v1l-1 15 5 12 2 2 1 7 3 1 4 5 5-3 1-3 5-2 7-5h3l2 2 1-1 4 2 3-3v-2l5-1 5-5 1-3-7-3-1 1-1-4 1-6 2-1 1 2h4v-1l-1-2h3h-2l-1-2 3-3 4-9M327 272l-4 3 1 6 1 2M220 291l-7 1-12 2-10-3-5 3-1 3h-3l-6-1-5 3 2 7-5 1-3 1-3 4h-7l-1 4-3 2-3 3h-2l1-6 4-5-4-7M214 336l1-1-1-19 6-3v-8l4-5M116 316l-2 6-1 11 4 5h6l-3 4 8 5-2 1 2 2 3 1 3 3-1 8-1 3-6 1-3 2-3 2 1 9-2 8-5 5-5 2-10-6-3 4-1 2v5l-4 9M99 379v2l4-2-1-6-2 1-1 5M187 376l-4 1-3-2-1 5-3 4 1 3-6 3-3 6-4 1-1 2 1 6-2 3 2 2-1 6-2 3h-8h-4l-1-5-11 2-4 3-3-1-6 7-8 2-6-3M412 139h-10l-4-2-3 1-2-3-6-3-7 7-10 2-1 1-4-2-5 2-4 10-9 4M390 334l-7-6M372 333l-7 6h-8l-4 2-3-4 2-2 2-2-8-4-1 7-7 3-13-10"/>
		<path fill="#eeeeee" d="M504 74h-6l6 1zM372 35l3 5-1-2 1-4-2 1-10-1zM448 37l1 2-3 4 3-3 4 2v3l1 1-1-1 1-3-4-3 1-1-2-2-1-5-4-5v5l2 1v4zM431 132l-2 1-1-1-1-6v7h4v2l-7-3-3 4-2-2-3 1-3-4-2 2-3-3h-3h3l2 3 3-1 2 4h4v4h-2v2l-2 2 2-1 1-3h2l-1-3h4l1-3 7 3v3v-2l1 2 2-8 1 2 2-1 2 1 1-1h2v3l3 1-2-5 1-1 2 4v-4l-2-6-2 1 1 1-2 1 2 3-4-1-2 1v-2l-1 2-1-1v2l-1-1zM443 345l-1 5 2 4-2-1-4 2-1-2-4-1-5 6 6-4 6 4 2-2v-2l1 3 5 1 5-3 2-2v-2l-2 2-5 2h-2l-3-5zM415 461l-2 5 3 1v4l2 1 2 3-1 2v5l4 2-1 1 3 2 1 4 2-2 5 2 1-1-1-3 1-2 1 2 1-4h-3l-6-4-6-8-1-8zM201 178h-1l-2 3 4-1-2-1zM214 140l-6 3v2l3-1zM174 83l1-1h-2l-1 2 4 1zM209 324l-2 7 3 1 2-2h8l4-5-4-2v-4l-2-2-2 2h-5l-1 3 2 1zM225 308l1 5 2-1-2-2 1-1 4 3-3-3v-2zM90 358l-2-1 2 3-4 1 2 3 1-3 2-1zM177 430l5 8-3-7zM351 353l4 5h8l5-3 4-5-2-4-2 2v1l2-2v2l-6 2-6-4-10-1-2 3zM255 303l-1-1v2l2 1 3-2 5 5 2-3h4l2-4-3-2zM301 289l-1 1-5-2-3 6-4 1-1-1-1 3-2-1-1 2-2-2-1 4 7 1 4-5 2 1 4-2v1l2-2 1 2 3 1 1 3h3l1-5h-3l2-3-1-2-3-2zM48 467l-6 9-1 1-1-3v3l-3-1-2 3 4 2v-1l2-2 2 5v-4l3-1 2-5h2l-2-3 4-4h1l-1-5-1 1-2-2 1-2-4-3v-5l-3-1-2 1h3l1 3h-2l7 10zM18 386l-2 4h-1l2 2-2 4h-2l-2 4-3-1 3 2-2 2-1 4-3 1-1 2 1-2h4l1-5 2 3-2 4 5 1v-2l-2-1 1-2-1-4 1-5 2-1zM22 356l1-5-2 5h3zM203 396l-1 1v1l-2 1h5v-3z"/>
	</g>
	<g>
		<rect fill="white" opacity="0.75" x="382" y="481" width="117" height="36"/>
		<rect fill="black" x="386" y="485" width="109" height="8"/>
		<text fill="black" text-anchor="middle" font-size="24" font-family="sans-serif" x="440" y="513">20km</text>
	</g>
</svg>