<?xml version="1.0" encoding="UTF-8"?>
<!DOCTYPE svg PUBLIC "-//W3C//DTD SVG 1.1//EN" "http://www.w3.org/Graphics/SVG/1.1/DTD/svg11.dtd">
<svg width="571" height="446" version="1.1" xmlns="http://www.w3.org/2000/svg">
	<title>静岡県行政区画地図 (2010年3月23日)</title>
	<desc>Author: Lincun</desc>
	<rect fill="#eeeeee" x="0" y="0" width="571" height="446"/>
	<g stroke="black" stroke-width="0.2" stroke-linejoin="round">
		<path fill="#aaaaaa" d="M531-1l7 6 7 2h3l2 6 5 2 4-3 5 2 2 9 3 2v2l3 3v-31zM572 30l-3-3v-2l-3-2-2-9-5-2-4 3-5-2-2-6h-3l-7-2-2 3-2 3 3 6-1 7 3 3-2 1 1 4-3 6 2 2 1 5v2l-6 5 1 5-4 5-5 5-3 1h-3h-6l-1 4-5 6-2 2-10 2-3 4-2-1-4 2-3 2-4 3-2 3-2 3 2 4-5 7v1h15l3-2 8 2v7l2 2 1 6 2 1-2 4 2 6 2 1-5 15v1l-3 2-6 11 1 8 3 9v4l3 3 2 1 4 3h2l2 3-1 1 1 4 1 5 14 2 5 1h4h3l3-4 4 1h1l1 1 3 2h3l-1-3-2 1-3-2 1-2-2-2 2-3-3-4 2-10v-10l2-3 18-14 9-4zM244-1v3v4l4 4 4 7 3-1 1 2-1 5 3 3-1 6h2l1 4-2 4 2 8 4 4v7l4 8-3 3-1 10-2 6-2 1v3l4 4v13l-3 5-5 10 6 2 1 5 1 6-3 2 2 5 9 6 2-2 2-3 6-2 4-2h3l3 4h4l4 7-1 4v7l3 6 3 3 4 18 2-1 4 1 4 8h4l11 1 4 3 7-8v-3h3l3-1-2-6 2-3-6-15 2-8-2-7-1-5 8-6-3-19 1-2 2-2-2-8 7-5 2-4 5-3 1-1 1-1 5 5 4 16 9-2h9l1 2 3 13 16-2 22-5 7 1 5-5 4-2h3l4 4 6-4 7-4v-1l5-7-2-4 2-3 2-3 4-3 3-2 4-2 2 1 3-4 10-2 2-2 5-6 1-4h6h3l3-1 5-5 4-5-1-5 6-5v-2l-1-5-2-2 3-6-1-4 2-1-3-3 1-7-3-6 2-3 2-3-7-6zM26-1l4 2 8 6v1l3 6-2 1v3l-4 1v3l-2 3-2 5 2 3 5 6 4-1 7 1-2 6 2 3 1 6 4 3 5 3 1-1 8 9-3 4 3 10-2 2h-3l-8 8 7 6 3 8 2 1 1 4-7 2h-7l-4-3v1l1 3 6 4 2 17-1 1-4 1-2 4-3 1-6 3v5l2 3h2l1 2-5 4 1 3-3 2-1 3 1 1 1 4 7 6 1 2v5v3h4l7-4 6-1 4 1v-2l3-1-1-2 2-2h2l5-1 1-2 1 2 4-1h3l1 2 3-1v2l7 2 5-1 3 2v2l2 4 4-1h4l7-4 5 1v-1l3-3h5l3 2 4-7-1-5 2-1 2-2 7 1 2-2 2-6h4l3-3h5l2-4h2l6-4 6 1 3-4-1-3 4-3v-1v-1l4-1 3-5 6 2 3 2 2-1v-4l5-4 4-3 2 1 3-1 4-8v-4l-2-2-3-1v-2l1-4-6-2 1-4-1-6h4l4-2h4l1-4-2-2 3-7-8-4 2-4v-2l-2-1 1-1 5-8-2-3-3-1 2-3 1-3 5-5 5 4 2-1 1-6 4-6-1-9 4-4 1-1-4-7-4-4v-4v-3zM-1 172v-1l4 7 8-7h2l8-6 4-1v-2l2 1 5-5v-3l7 1 6-1v-2l-2-3v-5l6-3 3-1 2-4 4-1 1-1-2-17-6-4-1-3v-1l4 3h7l7-2-1-4-2-1-3-8-7-6 8-8h3l2-2-3-10 3-4-8-9-1 1-5-3-4-3-1-6-2-3 2-6-7-1-4 1-5-6-2-3 2-5 2-3v-3l4-1v-3l2-1-3-6v-1l-8-6-4-2h-27zM-1 394l20-4v-3l2-8-4-12 1-3-2-2v-1l1-10 1-3 4-1v-6l-2-4 1-1h1l3-4-1-1 1-2 3-1 3-1 3-2h4l3-3h9l2 1 1-2 2-7 6-1 5-4 2-2 1-6 2-1v-4l2-3-1-2 2-4 4-2 2 1 4-5 2-5h3l1-1-1-2-1-2 2-4-2-2 1-6 4-4v-4l6-4 5-6 7-6 2-8v-1l4 2 3-4-1-8-2-1 1-3 2 2h2l2-3v-2l1-3 2 2 2-2-2-2 1-4-7-4 1-3h3l2-7h3l-1-3h3l-5-1-7 4h-4l-4 1-2-4v-2l-3-2-5 1-7-2v-2l-3 1-1-2h-3l-4 1-1-2-1 2-5 1h-2l-2 2 1 2-3 1v2l-4-1-6 1-7 4h-4v-3v-5l-1-2-7-6-1-4-1-1 1-3 3-2-1-3 5-4-1-2h-2v2l-6 1-7-1v3l-5 5-2-1v2l-4 1-8 6h-2l-8 7-4-7v1z"/>
		<path fill="#f6bad3" d="M118 402l-3-5 1-9 1-7 2 1 1-7v-2l6-21 3-6-2-1 1-15-2-9 3-2 5-3h2l1-3 2-1h3l8-1 4-4h1l3-2-5-4-1-5 1-1v-2h4l6-8h2h6v-3l2-1 3 1 3-2-1-1-1-1 2 1 2-2 2 2 1-3 2-1 1-4 7-5-2-5-5-5 11-6v-4l-3-7 2-2v-5l2-5 2-3-9-9-6 1-1-5-2-2-1-4 3-8 3-5 4-2v-3l2-3-1-4 1-2-7-6 1-3-1-4-4-1 5-4-1-6 2-4v-1l-6-1-6 4h-2l-2 4h-5l-3 3h-4l-2 6-2 2-7-1-2 2-2 1 1 5-4 7-3-2h-5l-3 3v1h-3l1 3h-3l-2 7h-3l-1 3 7 4-1 4 2 2-2 2-2-2-1 3v2l-2 3h-2l-2-2-1 3 2 1 1 8-3 4-4-2v1l-2 8-7 6-5 6-6 4v4l-4 4-1 6 2 2-2 4 1 2 1 2-1 1h-3l-2 5-4 5-2-1-4 2-2 4 1 2-2 3v4l-2 1-1 6-2 2-5 4-6 1-2 7-1 2-2-1h-9l-3 3h-4l-3 2-3 1-3 1-1 2 1 1-3 4h-1l-1 1 2 4v6l7 6 3 1 5-2 2 2 2 5 5 13 6 10 3 1v6l24 3 9 2zM293 305l2-6 4-3v-1l1 1 8-3 5-5 20-8 10-6 6-7 2-7-3-3h-2v1l1 4-2-2-1 1h-2l3-1-4 1 2 3h-2v1l3 2-2 4-3-3 2 1 1-1-2-1v-6l-1 1v-3l-1-1v-1l1 1 1-3v-2l-2 1 2-2 1 2v-3l2 2-1-4 1-1 1 4v-3l2 2v-3l6-4 2-5 4-13 6-3 9-2h11h1l-3-7h-4l-2 2-2-2-2-4h-6l-6-5-1-1-1 2-5 1-1-4-3-2v-3l-2-5 1-4h-3v3l-7 8-4-3-11-1h-4l-4-8-4-1-2 1-4-18-3-3-3-6v-7l1-4-4-7h-4l-3-4h-3l-4 2-6 2-2 3-2 2-9-6-2-5 3-2-1-6-1-5-6-2 5-10 3-5v-13l-4-4v-3l2-1 2-6 1-10 3-3-4-8v-7l-4-4-2-8 2-4-1-4h-2l1-6-3-3 1-5-1-2-3 1-1 1-4 4 1 9-4 6-1 6-2 1-5-4-5 5-1 3-2 3 3 1 2 3-5 8-1 1 2 1v2l-2 4 8 4-3 7 2 2-1 4h-4l-4 2h-4l1 6-1 4 6 2-1 4v2l3 1 2 2v4l-4 8-3 1-2-1-4 3-5 4v4l-2 1-2 5 5 7 5 2 4 3 3 4v5l3 3v2h3l7-1 2 4 4 1 2 3-2 3 2 1-5 4-1 2 1 3-2 2 1 3 2-1 1 3 3-2-2-1 3-1-1-2 2 1v-1h2l7 10-2 7h-3l-4 6h-4l-4 3 3 10-2 6 4 3 1 3 2 3-3 4v4l-2 2 1 2-2 1-1 8 3 2 4 1 2-3v5l4-1 4 1 2 4h4l2 8 5 2 1 6 2 1v4l4 2 3 1 1 4 3-1z"/>
		<path fill="#f6bad3" d="M248 412l-4-6v-10l5-10 2-11 9-9-1-2 3-6h-2l-2-3-1-3-4-4 3-1v-1h2l-2-4 4 1 2-2 12 12 2 2 3-4-3 1-2-2 1-2 1 3h2l7-13 5-7-3-9v3h-2v-2l2 1-2-2 2-6h-2l2-2-1 2 1-1 1 1-1-2 3-3 1-4 2-2-7-10-3 1-1-4-3-1-4-2v-4l-2-1-1-6-5-2-2-8h-4l-2-4-4-1-4 1v-5l-2 3-4-1-3-2 1-8 2-1-1-2 2-2-5-5-2 1-1-1v3h-3l-1 4-1-5-2-2-1 1-3 9-4 4v2l-2 2-1 6h-1l-3 2-1 2v5l-1-1-3 3h-2l1-2-1-1-3-1 1-3-4-4-9 1-7 5-1 4 2 10-2 3 3 2 5 2 3 3-1 1-3 3h-7l-2 5-3 1-3 7-7 6-2 8-3 5-2 3h-2l-5 9-4 2-1-1-2 3-4 1v-2l2-9h-4l-2-3v-1l1-3-1-2 4-3-2-4 2-1 8-9v-4l-4 4-8 1h-3l-2 1-1 3h-2l-5 3-3 2 2 9-1 15 2 1-3 6-6 21v2l-1 7-2-1-1 7-1 9 3 5 35-8h1h10h9l25 6 9 3 36 17 11 2 2-2 1-3-4-2 1 2h-2l-1-1 1-2h-3v-2l3 1 1-2-2-1zM472 405l2-6 5-3 2-1-2-2h2l1 1 1 1v-4l3-2 2 2-2 4v3h5h2l1-3 1 2 1-4-3-1-2-2 3-2-3-3v-2l2-6 4-3-7-1-2-2v-3l-2-5-6-3 2-5h-4l-4-2-2 1-6-2-2 9-4 4h-4l-3 5-2 5 1 3 12 2 3 4-4 4v2l6 2-2 6-2 2 1 2 2 2 1 4zM25 389h9h21v-6l-3-1-6-10-5-13-2-5-2-2-5 2-3-1-7-6-4 1-1 3-1 10v1l2 2-1 3 4 12-2 8v3zM488 326l-1-3 2-1 10-5 7 2 4-9 9 8 3 4 3-1 2-2h3l1-3 1-1 6-2 3-2 1-4 1-1-2-1v-3l2-3v-4l3-4-1-5v-4l-4 1-1-4-2-4h-6h1l-1 1-3-2-1-6-3-4 1-3h4v-9v-5l-2-2-2 2-4-1-1-2 3-6-2-4 2-2v-3l-1 1-1-1 1-2 10-13 1-4h-3h-4l-5-1-14-2 4 10-3 2 1 4-2 7 1 2-2 1-6 1-5-1h-6l-9 4-1 2-1-1v3l-2-1-6 1 3-5v-2l4-2v-2h3l4-9 7-9 3-2v-4h2l4-9 2-3-4-3-2-1-3-3v-4l-3-9-1-8 6-11-3-4-6-7 2-7-6-1-4-3-2 1-7-3h-6l-1-1h3l2-2h-4l-2-3v3l1 3-2 3h-1l1 1h-1l1 1-3-1-3-4-17-2-25-3v-1l-16 2-3-13-1-2h-9l-9 2-4-16-5-5-1 1-1 1-5 3-2 4-7 5 2 8-2 2-1 2 3 19-8 6 1 5 2 7-2 8 6 15-2 3 2 6-3 1-1 4 2 5v3l3 2 1 4 5-1 1-2 1 1 6 5h6l2 4 2 2 2-2h4l3 7 12-7 6-1-4-4 5 1-2 1 2 2h2l14 1 10 3 14 7 5 4 2 6 1-2v2l1-1v2l2 2 3 1 5 9 2-2 4 2-3 1 1 2-2 3 2 2-1 3h-3l-1-3-2 2v-2l-4 2-6 3-1-2-7-2-3 2-6-3h-2v-2l-2 6v6l-3 7 2 1v3l-2 1-2-1 1-2h-1v4l4 11 1 4 3 7v1l-2 1-1 2-2 2-2-1-3 4v6l-1 1 4 4 3-1h1l-1-2 1-2 5-2 5 1 6-4h1l2 6 2 2 6 2 2 4h5l2 4 2 1 7 3 5-3 4 1zM287 319v1l2-4zM550 248l2 2 2-1zM463 221l1-8-7-5-3-8-6-5-3-8-6-7 3 1 13 9 3 5 3 3 5 5h2l-2 3 2 2 2 7-2 4v1l3 6 1 3-3 4-2 2h-4l-1-8z"/>
		<path fill="#f6bad3" d="M450 419l1-1-1-2 1 2 1-4 3 1 2-3h1l3-2h4v-2h-1l2-2 3 2-1-4-2-2-1-2 2-2 2-6-6-2v-2l4-4-3-4-12-2-1-3 2-5 3-5h4l4-4 2-9 6 2 2-1 4 2h4l-2 5 6 3 2 5v3l2 2 7 1-1-2 2-3 2-3-1-2 2-4 4-1 2-3 2-2h5l1-1-3-1 3-2 3-2 1-7 4-8v-7l2-5-3 1-3-4-9-8-4 9-7-2-10 5-2 1 1 3-5 4-4-1-5 3-7-3-2-1-2-4h-5l-2-4-6-2-2-2-2-6h-1l-6 4-5-1-5 2-1 2 1 2h-1l-3 1h1h2v3l-5 2v2l3 6-1 1-1-2 1-1h-2l-3 3 1 3h3l1 2-1 3h-3l2 3 3 4v3l-1-1 2 2-3 1h3l1 3v3l-2 1-4 2 2 2-1 1h-1v2l-2-1-1 3-2 1 1 5-1 5 1 2-1 2 1 1 3-1 4 1v2l4 2v3l2 1 2-1 1 2-1 2-2-1-1 2h-2l-1 3 2 3h4l1 4v3l5-3 1 2 1 3 2 2 1-2v2v2l5 1zM260 366l8-7h1l-1 2 8-6-2-2-12-12-2 2-4-1 2 4h-2v1l-3 1 4 4 1 3 2 3h2l-3 6zM157 343l5-9h2l2-3 3-5 2-8 7-6 3-7 3-1 2-5h7l3-3 1-1-3-3-5-2-3-2 2-3-2-10-2 1-1 3-2-2-2 2-2-1 1 1 1 1-3 2-3-1-2 1v3h-6h-2l-6 8h-4v2l-1 1 1 5 5 4-3 2h-1v4l-8 9-2 1 2 4-4 3 1 2-1 3v1l2 3h4l-2 9v2l4-1 2-3 1 1zM219 265h1l1-6 2-2v-2l4-4 3-9 1-1 2 2 1 5 1-4h3v-3l1 1 2-1 5 5v-4l3-4-2-3-1-3-4-3 2-6-3-10 4-3h4l4-6h3l2-7-7-10h-2v1l-2-1 1 2-3 1 2 1-3 2-1-3-2 1-1-3 2-2-1-3 1-2 5-4-2-1 2-3-2-3-4-1-2-4-7 1h-3v-2l-3-3v-5l-3-4-4-3-5-2-5-7 2-5-3-2-6-2-3 5-4 1v1v1l-4 3 1 3-3 4v1l-2 4 1 6-5 4 4 1 1 4-1 3 7 6-1 2 1 4-2 3v3l-4 2-3 5-3 8 1 4 2 2 1 5 6-1 9 9-2 3-2 5v5l-2 2 3 7v4l-11 6 5 5 2 5 9-1 4 4-1 3 3 1 1 1-1 2h2l3-3 1 1v-5l1-2zM480 239l1-2 9-4h6l5 1 6-1 2-1-1-2 2-7-1-4 3-2-4-10-1-5-1-4 1-1-2-3h-2l-2 3-4 9h-2v4l-3 2-7 9-4 9h-3v2l-4 2v2l-3 5 6-1 2 1v-3zM463 221l-1 6 1 8h4l2-2 3-4-1-3-3-6v-1l2-4-2-7-2-2 2-3h-2l-5-5-3-3-3-5-13-9-3-1 6 7 3 8 6 5 3 8 7 5zM496 155l3-2v-1l5-15-2-1-2-6 2-4-2-1-1-6-2-2v-7l-8-2-3 2h-15l-7 4-6 4-4-4h-3l-4 2-5 5-7-1-22 5v1l25 3 17 2 3 4 3 1-1-1h1l-1-1h1l2-3-1-3v-3l2 3h4l-2 2h-3l1 1h6l7 3 2-1 4 3 6 1-2 7 6 7z"/>
		<path fill="none" stroke-linecap="round" d="M413 126v1l3 6 3 4 8 6 1 6 6 4v7l5 3h2l5-1 10-6 3 2-1 2 4 7 4 3 1 6 3 1 2 3h3l-1 2 2-3 7-3h4l4-2M413 127l3 9 1 3-5 11v1l-4 4 2 1-1 3-2-1-16 14 2 9-1 3-4 1 1-3-2-1-2 4-1-1-2 2 4 8h-2l-2-3-5 5-4-5-3 1-3-2-6 1-2 3v7v3M419 137l5 19 6 11 2 1 2 9 5 3M439 180l-2 4-11 9-3 8 5-1-2 10-2 2-3-1-1 3M499 191l-6 4h-7l-4 4h-3h-5l-6 9M469 233h3l1 1-2 1 3 1M530 252h-1l-2-2-6 5-6-2-5-2-1-7 2-3-3-2-1-6M515 253l-2 2-1 1 2 3-3 4v5l4 4 5-2v4l-5 3 2 4-4 5v6l4 8-7 9v1M471 241l-2 1 2 8-3 3 3 2-3 5 2 2-1 3 3 3h3l-2-1 2-3 1 3 2-1 1 3 8-5h4l3-1 3-3 3 1 3-2 3 4 4-3-1-2 5 1M242 259l-1 2 1 4-2 3v5l-5 3v1l-3 8 1 3-2 5v1l1 3 3 2-1 4 5 2 6 6 1 5 3 3v4l3 2-2 3 5-1h1l-1 4-3 2 5 3h3l4-3 2 1 5-1 1-2-3-3 4-2-2-4 1-4h-2v-2l6-4h-1l2-5-2-1v-1h3l3-4 3 1 2-1v-3h-4l1-2M470 262l-4 2-2-1-2 3-3 3-12 6 1 11h-3l-2-1-4 1-3-1-4 3-4 1M253 348l-18-6h-2l-3 2-1 2-3-1-1-5h-2l1 2-3 3-2-3-2-4h-3v-8l-4-4h-5l-1-6-7-1v-8l2-2 2-8-5-4v-1M142 334l-1 2h-2l-4 4 2 6h1l1 4 2 1 5 1v9l2 2h2l1 4-1 3 2 7-2 1v2l-1 3 5 2-1 5 1 4M257 336l5 5M173 394l-2-5-3-2-1-1 4-2v-3l7-3-3-1 2-3-2 1 1-3 8-4 1-1-2-3-3-1-2 1-2-1-2-3-2 1-3-2 2-3-4-4-4-7 2-6-1-5M214 338l-1 3h-2l-4 7-1 2-4 2v2h-2l-2 2 1 1 3 6-2 2h-3l2 2h-1h-2l3 2 4 7 4 4-4 3 2 4-1 3 3-2v2h2v6l6 1 2-5 1-5 4-4 4-2 2 1v-3l-1-14-3-4 4-9-2-7M248 412h-4l-3-2-3 1h-2v-8l4-6v-3l-3-3v-3l-3-3-6-3M209 396l-2 7M468 219h-1v1l-3-1-1 2M465 328l-3 3v13l-2 2v2l2 3h2l2 1M507 356l-3-4-1-5-11-15-1-4-3-2M460 346l-8 3v-2v-5h-5l2 5-3-2-4 5-8 5-6 2M452 378l-12 2-6-2-1-3h-2h-3l-2 2-9 4"/>
		<path fill="#eeeeee" d="M572 62l-2-2 2 1-1-2h1v-3l-2 2-3-1h-1l-2 2v3l2-2 1 1v-3l2 6 1-2 1 3 1 1zM572 32h-3l-1 2 4-2v1zM512 99l-1 3 1 3-6-2-4 4 4-3 4 3 1-3 4 3 3-2 1-3-1 2-5 1-2-3zM494 172l-1 4h2v3l2 3v4l2 1 2 4 2-1 3 2-1-3 2-1v1l1-3-6-2-4-5-1-6zM553 30h4l1 2-1-3 2-2-3 1-2-3h-3v2l3 2zM363 86l-1 4 2 1 1-1h5l2-3-2-2-1-4-4 1-1 3h1zM373 76l1 3 1-2 2 1-2-3zM287 108l-1-1 2 2h-3l1 2 2-2zM453 104l3 3h5l5-5-1-2v1l-4 1-9-3-2 2zM393 72l5 4 4-2 1-3zM421 63h-3l-2 4h-4l-2 2-1-1-1 2 4 1 3-3 5-1 3 3 3 1v-4h-2l1-3zM177 32l1 1 3-3 2 5h4v2v-3l-3 1-4-6v-3l-1 1v2l-2 2zM6 109v-5l4 3-2-1h1l-3-3-1-3h-2l2 3-2 2 2 1zM24 94l-1-1v2l2-1zM26 37v2l1-1zM0 174l2 3h-3l2 4-1-4 2 1v1l3-1 2-3h2l2-4-7 7-3-5zM261 177l-3 6-2-1v1l-2-1-1 3 3 1 1-2 1 3v-3h2l2-3-1-2 3-2v-4l-4-4v-3l-2-1-1 1h2v2h-1l5 6zM242 126l-2 2 1 1v3l-3 2h-2l2 1-5 6 3-1 1-3 1 1-1 3 4 1-2-6 2-4zM86 373l-5 5 1 1h2zM55 346l-1 2-7 1-1 5-3 3-5-4-4 1v3l-2-2-4 3 5 1 3-1-3 3 3 1 1 5-4 1v3h2l3 2 1-2h2l1 5-1 1 3-1v6h6l-1 2 6 6v-2h3v-3l4-12 7-6-2-3 5-7-6 3-3 8-4-3-1 6-5 1-1-1 1-6 3-6 3-1v-4l2-1v3l3-1 1-1h-4v-3l3 1v-2l5-2-1-2 2-1-6-4-1 1-1-1v3l-2 2v3l-2 1v-3zM55 375v-2l1-1 2 2zM53 375v-2h2v3zM51 374l1-3 1 1-1 4h-2zM60 377l2-2-1 3zM57 382v-2l2 1zM45 382v-2h3v2l-1-2v2zM55 384l-3-2h3zM360 131l-2 3 3-1zM533 292l-1-1-1 1zM520 289l-2 2 3-1zM123 305l1 2-1-4 3-1-3-3v-4l-2 5 4 1-3 1zM39 353l4-1 4-8-3-1-1 1-2-3h-1v4l-2 2 1 1-2 1zM131 264l-4 3 1 9v-8zM125 192l-1 1-2-1-2 2 8 6-2 3 3 3-2 2-3-3-1 1v3l1 2-2 3h-2l-2-3-3 3 4 2-1 3 2 5-3 1 1 2 3-3-3-11 2 2h2l3-4-1-4 3 1 3-1-3-3 2-3-2-2-6-4 1-2h3zM164 191v2l-3 1 2 2 2-2v-6zM92 308l-2-2 3 6 1-1 1 1v-3l-2 1zM63 254l6 3-2 2 2-1v4l1-1 2 1-3-4 2-3h-3v-2l3-1-3-2 1 2-2 2zM106 212l-2 2-4-3 1 1-2 1-1-3-3 1 3-1v3l8 1 1 3 2-1-2-5-3-1z"/>
	</g>
	<g>
		<rect fill="white" opacity="0.75" x="386" y="4" width="181" height="36"/>
		<rect fill="black" x="390" y="8" width="173" height="8"/>
		<text fill="black" text-anchor="middle" font-size="24" font-family="sans-serif" x="476" y="36">50km</text>
	</g>
</svg>