<?xml version="1.0" encoding="UTF-8" standalone="no"?>
<svg
   xmlns:dc="http://purl.org/dc/elements/1.1/"
   xmlns:cc="http://creativecommons.org/ns#"
   xmlns:rdf="http://www.w3.org/1999/02/22-rdf-syntax-ns#"
   xmlns:svg="http://www.w3.org/2000/svg"
   xmlns="http://www.w3.org/2000/svg"
   xmlns:sodipodi="http://sodipodi.sourceforge.net/DTD/sodipodi-0.dtd"
   xmlns:inkscape="http://www.inkscape.org/namespaces/inkscape"
   inkscape:version="1.0 (4035a4fb49, 2020-05-01)"
   sodipodi:docname="地図_衆議院小選挙区_29_00.svg"
   id="svg32"
   version="1.1"
   height="610"
   width="390">
  <metadata
     id="metadata38">
    <rdf:RDF>
      <cc:Work
         rdf:about="">
        <dc:format>image/svg+xml</dc:format>
        <dc:type
           rdf:resource="http://purl.org/dc/dcmitype/StillImage" />
      </cc:Work>
    </rdf:RDF>
  </metadata>
  <defs
     id="defs36" />
  <sodipodi:namedview
     inkscape:current-layer="svg32"
     inkscape:window-maximized="1"
     inkscape:window-y="-8"
     inkscape:window-x="-8"
     inkscape:cy="258.04569"
     inkscape:cx="319.61556"
     inkscape:zoom="0.99458626"
     showgrid="false"
     id="namedview34"
     inkscape:window-height="1017"
     inkscape:window-width="1920"
     inkscape:pageshadow="2"
     inkscape:pageopacity="0"
     guidetolerance="10"
     gridtolerance="10"
     objecttolerance="10"
     borderopacity="1"
     bordercolor="#666666"
     pagecolor="#ffffff" />
  <title
     id="title2">衆議院小選挙区 奈良県</title>
  <desc
     id="desc4">Author: Lincun</desc>
  <rect
     id="rect6"
     height="610"
     width="390"
     y="0"
     x="0"
     fill="#eeeeee" />
  <path
     fill="#aaaaaa"
     d="m 297,-1 h -3 l -2,2 -5,3 -3,-2 -3,3 -2,-2 -4,5 h -3 l -3,2 -3,-1 -1,4 1,2 6,3 -2,13 h 4 l 1,5 8,7 h 1 l 3,5 v 2 l 3,2 v 4 l 1,2 -3,4 -5,1 v 2 l 5,3 h 5 l 4,12 2,2 -4,11 h -4 l -3,4 -12,-7 v 3 l 5,4 h 7 l 4,7 v 6 l -1,2 -1,4 -3,1 v 2 l -8,10 3,5 -1,4 -2,1 2,3 4,2 1,5 7,1 5,5 12,2 h 2 l 2,6 5,-1 7,-8 7,3 v -2 h 2 l 3,7 -1,1 7,7 -3,9 8,3 4,-5 h 3 l 7,-3 h 4 l 1,11 -2,2 v 4 l 2,3 5,1 1,2 -8,7 v 5 l -4,8 v 7 l -10,-1 -5,3 -10,-2 -4,5 h -4 l -7,-3 -6,2 -3,4 -8,1 -4,4 1,8 -3,4 -4,1 -1,6 -3,3 v 3 l 5,1 4,5 3,6 -1,4 2,2 4,15 4,4 6,2 4,6 -9,7 h -6 l -3,3 2,8 7,5 3,6 h 2 v 2 l -2,4 4,2 3,4 -1,1 1,4 -4,2 -4,7 -3,1 v 2 l 4,1 v 5 l -1,3 h -4 v 2 l -5,3 -2,4 -1,3 9,4 -1,6 -2,1 4,4 2,5 -5,4 1,5 -3,2 3,7 v 4 l -4,2 v 2 l 3,2 -1,5 2,2 -3,4 9,9 -11,-3 -2,3 2,2 -2,8 2,5 -3,6 5,6 2,8 h -2 l -3,3 -5,-4 h -4 l -3,-4 -5,1 -4,-1 -1,2 -5,-3 v -3 l -2,3 -1,-3 -3,6 -7,-3 -2,7 -4,3 -2,7 2,1 -1,3 -5,1 5,6 v 5 l 4,5 v 5 l -5,3 -2,4 -6,-7 h -5 l -2,4 2,9 -5,11 -2,1 -6,-5 -13,-3 2,4 h -5 l -3,7 4,2 4,-2 1,3 -6,3 -3,-4 -4,1 -3,-2 -5,1 2,5 -1,3 -8,-1 v 4 l 4,5 -1,2 v 5 l 4,1 v -5 h -2 l 1,-3 5,6 v 2 l -2,7 -3,1 -3,-2 h -4 v 5 l -2,2 -1,1 -5,-2 v -9 l -3,2 1,4 -3,3 1,4 3,4 -3,8 2,3 h 105 l 3,-5 6,-12 12,-17 4,-3 h 4 l -1,-2 2,-3 4,1 2,8 1,-2 h 3 l 1,-2 -3,-5 6,2 2,-1 1,-2 -5,-3 -2,-2 7,-2 v -5 l 2,-1 -4,-3 1,-3 h 5 l 7,3 -2,1 1,7 h 5 l 2,-1 1,-2 h 4 l 2,-2 1,1 -3,-4 3,-4 -1,-2 -4,1 -5,-2 1,-1 10,-2 v -2 l 6,4 -3,2 1,2 2,1 v -2 l 3,-1 -2,-1 3,-3 -2,-3 5,1 3,-2 -2,-1 1,-3 -3,-2 v -5 h -4 l 3,-5 h -3 l -7,7 -6,-5 6,-1 4,-6 2,-1 -2,-10 3,-1 2,5 5,3 12,2 -2,1 2,2 h -2 l -5,-2 -2,1 v 5 l 2,3 3,-3 2,1 3,5 1,-3 2,1 v -13 -4 l -2,-2 2,1 v -5 l -2,-1 h -2 l 1,-2 -2,-3 -5,-1 5,-1 4,4 v -1 h 1 v -13 l -9,-3 -1,-13 5,-2 -4,-1 v -2 l -3,2 -6,-2 -3,2 -3,-1 -3,1 -1,-4 -1,1 -2,-3 v -3 h 3 v 2 l 2,-3 8,-1 1,-3 4,-1 -5,-8 8,-4 v -2 l 5,-1 5,-7 V -1 Z m 94,438 -7,4 2,3 -1,2 2,4 4,-1 -1,-5 1,-1 z m 0,31 h -3 l 2,1 h 1 z m -4,-6 1,1 1,-1 -3,-2 z M 263,-1 l -3,5 1,3 2,-1 v 1 l 3,2 3,1 3,-2 h 3 l 4,-5 2,2 3,-3 3,2 5,-3 2,-2 h 3 z m -141,0 2,4 -3,7 v 1 l -6,7 2,13 v 1 h 2 v 2 l 1,3 5,1 1,3 4,3 -1,6 9,1 2,1 7,-1 3,3 1,-2 3,1 1,3 h 3 l -1,2 5,2 6,-2 9,4 v 1 l 8,-1 6,-4 1,1 2,-1 4,4 4,-14 3,-2 7,-13 h 3 l 1,-2 h 2 v 3 l -3,5 1,2 3,2 3,-1 3,1 1,-2 6,-4 1,5 4,-2 2,1 h 4 l 3,4 2,12 3,1 v 1 h 4 l 2,-3 h 3 l 2,3 v 3 l 8,1 v -4 l 5,-5 2,-10 6,-1 -8,-7 -1,-5 h -4 l 2,-13 -6,-3 -1,-2 1,-4 -3,-2 V 6 l -2,1 -1,-3 3,-5 z m -123,295 3,-1 9,-8 h 3 l 3,-4 h 6 l 8,-9 h 3 l 2,-2 9,1 2,-4 8,2 3,-4 9,1 1,-1 h 7 1 l 5,-8 6,-2 v -4 l 3,-1 -2,-4 h -4 l -3,-6 3,-2 2,1 3,-5 1,-5 3,-5 -2,-4 v -6 l -1,-9 2,-4 -2,-3 -1,-6 -3,-1 1,-2 1,-13 -5,-3 h -3 l -1,-7 v -1 l -2,1 h -2 l 1,-3 2,-3 -2,-2 2,-1 v -4 l 8,-5 -1,-6 h 2 l 4,-3 -3,-3 1,-1 -1,-7 -3,-1 -9,1 -1,-3 v -2 l 4,-3 3,-18 v -5 l 3,-6 v -3 l 4,-8 v -3 l -3,-4 v -6 -1 l 5,-6 h 3 l 8,-8 -3,-13 1,-1 -1,-2 2,-1 3,1 1,-3 V 22 l -1,-1 2,-5 5,4 4,-2 6,-7 v -1 l 3,-7 -2,-4 H -1 Z m 183,317 -2,-3 3,-8 -3,-4 -1,-4 3,-3 -1,-4 -2,-5 1,-4 -4,-5 h -6 l -10,-6 -4,-1 -3,2 -1,5 -5,1 -7,4 -6,-2 -1,2 -5,2 -2,-3 -2,1 -3,-1 -2,-3 -3,-1 -4,-5 H 92 l -4,3 -4,-1 -5,2 1,5 -8,8 -5,-1 -5,3 -5,1 4,-7 -2,-9 -9,-1 -2,-2 -1,-4 6,-3 2,-8 -3,-4 1,-3 h 3 v -10 l 6,2 h 5 l -1,-6 2,-5 v -11 l -2,-4 h -3 v -4 l -3,-1 1,-5 -2,-1 -5,-1 -2,-2 -7,1 -1,-1 -1,-4 4,-8 -2,-7 -4,-2 -4,-7 -7,1 -1,-4 -6,-1 -1,-2 h -1 l -5,-5 2,-4 4,-2 -1,-7 -1,-1 v -1 l 6,-2 -1,-3 5,-3 6,-2 6,-19 8,-5 9,-3 -1,-6 5,-5 6,-4 2,-5 -6,-5 1,-4 7,-9 3,2 4,-1 3,-4 h 2 l 6,2 2,2 3,1 3,3 6,2 2,-4 7,-4 1,-4 v -5 l -3,-3 -3,-14 -9,-8 -4,-2 -2,4 h -4 l -4,-6 1,-5 -4,-7 1,-4 -2,-3 2,-2 -1,-7 h -4 l 2,-18 -4,-7 -2,-11 h -7 l -1,1 -9,-1 -3,4 -8,-2 -2,4 -9,-1 -2,2 h -3 l -8,9 h -6 l -3,4 h -3 l -9,8 -3,1 v 317 z m 11,-48 v -6 l -7,-2 1,4 -5,9 1,8 h 6 l 5,6 -5,5 1,6 2,-2 v -5 h 4 l 3,2 3,-1 2,-7 v -2 l -5,-6 -1,3 h 2 v 5 l -4,-1 v -5 l 1,-2 -4,-5 z m 69,-39 v -3 l -4,-6 v -4 l -5,-6 5,-1 1,-3 -2,-1 -1,2 -5,1 -3,8 -4,1 -2,2 -7,1 -4,3 h -3 l -3,3 -1,-3 -7,-1 -5,6 -1,4 -4,2 -1,5 h -4 l -3,6 4,13 3,-1 2,2 v 3 l 4,-1 3,4 6,-3 -1,-3 -4,2 -4,-2 3,-7 h 5 l -2,-4 13,3 6,5 2,-1 5,-11 -2,-9 2,-4 h 5 l 6,7 2,-4 4,-2 z"
     id="path8"
     style="stroke:#000000;stroke-width:0.2;stroke-linejoin:round" />
  <path
     fill="#16a34a"
     d="m 91,214 v 6 l 2,4 -3,5 -1,5 -3,5 -2,-1 -3,2 3,6 h 4 l 2,4 -3,1 v 4 l -6,2 -5,8 h -1 l 2,11 4,7 -2,18 h 4 l 1,7 -2,2 2,3 -1,4 4,7 -1,5 4,6 h 4 l 2,-4 4,2 9,8 3,14 3,3 v 5 l -1,4 -7,4 -2,4 2,1 -2,3 -2,2 -1,-2 -1,3 -3,1 1,3 -5,4 5,3 v 3 h 4 l 2,6 9,3 1,3 -2,5 2,5 -11,6 -4,6 v 5 l -3,2 v 3 l -6,6 -7,2 -3,5 h 13 l 12,-4 1,-5 5,-8 v -3 l 11,-12 -1,-5 5,-2 -1,-4 10,1 v 2 l 4,1 2,5 2,-2 3,5 20,-6 9,3 8,-7 7,-1 6,1 3,4 3,-2 3,1 3,-7 -4,-9 -4,-3 -2,-5 -3,-1 -6,4 -8,1 -1,-4 2,-5 -3,-2 -2,3 -4,-1 -3,3 -5,1 -1,2 -6,-2 -2,1 -8,5 -5,-5 -10,-1 -4,-5 -3,1 -3,-3 -1,-9 h -1 l 4,-6 -1,-8 13,-6 6,2 2,5 8,-2 2,-4 h 4 l 2,-2 v -5 l 4,-1 9,-7 -1,-3 -4,-3 h -5 l -2,-2 v -2 l -8,-3 -3,1 -8,-1 -6,-3 1,-8 2,-3 -3,-4 3,-1 v -6 l -5,-1 -1,-4 2,-4 -1,-3 1,-6 -2,-4 3,-4 -1,-8 -6,1 -2,-3 v -2 l -7,-2 1,-3 -3,-6 2,-3 3,1 1,-1 -1,-4 4,1 5,-5 -3,-2 v -6 l 3,-5 2,1 1,-3 -4,-7 v -6 l 6,-4 7,3 10,-2 v -8 l 2,-1 -1,-3 h 1 l -1,-4 3,4 h 2 l 1,2 1,-2 1,2 -1,2 4,2 4,5 5,1 -1,1 5,6 1,-1 v 2 l 5,-1 -3,4 2,6 4,-1 3,-4 4,-2 3,4 h 2 v 4 l 5,-4 7,2 2,5 8,6 h 3 l 1,-5 4,3 2,-4 8,-1 v 1 l 9,-5 8,1 3,-7 9,-1 v -2 l 6,-3 4,-4 -7,-6 h 1 l 18,2 -3,-8 2,-2 4,-1 4,-7 -1,-3 4,-4 -2,-3 v -3 l 7,-1 v -6 l -3,-2 5,-10 -12,-2 -5,-5 -7,-1 -1,-5 -4,-2 -2,-3 2,-1 1,-4 -3,-5 8,-10 v -2 l -10,-1 v -3 l -1,2 -2,-4 -1,1 -6,-5 -10,7 -6,-2 -1,-1 2,-1 -1,-2 3,-2 1,-2 -4,-6 1,-2 -4,-2 2,-1 2,-6 h -5 l -2,3 h 1 v 2 h -4 l 3,1 -1,2 -11,1 2,-2 -2,-2 1,-7 -3,-2 v -5 l 4,-3 4,1 5,-3 1,-6 h 3 l 1,9 4,-1 1,2 2,-1 6,1 2,-1 3,-7 1,1 1,-1 2,2 2,-1 -1,-4 2,1 v -2 l 1,1 2,-1 2,4 4,-4 v -2 l 5,-1 3,-4 -1,-2 v -4 l -3,-2 v -2 l -3,-5 h -1 l -6,1 -2,10 -5,5 v 4 l -8,-1 v -3 l -2,-3 h -3 l -2,3 h -4 v -1 l -3,-1 -2,-12 -3,-4 h -4 l -2,-1 -4,2 -1,-5 -6,4 -1,2 -3,-1 -3,1 -3,-2 -1,-2 3,-5 v -3 h -2 l -1,2 h -3 l -7,13 -3,2 -4,14 -4,-4 -2,1 -1,-1 -6,4 -8,1 v -1 l -9,-4 -6,2 -5,-2 1,-2 h -3 l -1,-3 -3,-1 -1,2 -3,-3 -7,1 -2,-1 -9,-1 1,-6 -4,-3 -1,-3 -5,-1 -1,-3 v -2 h -2 v -1 l -2,-13 -4,2 -5,-4 -2,5 1,1 v 11 l -1,3 -3,-1 -2,1 1,2 -1,1 3,13 -8,8 h -3 l -5,6 v 1 6 l 3,4 v 3 l -4,8 v 3 l 8,1 1,4 2,1 v -2 l 4,4 h 7 l 4,1 1,3 2,-1 2,2 -2,3 v 2 h 4 l 7,4 2,7 2,-2 h 3 l -1,7 3,1 v -2 l 2,-1 -2,4 1,4 5,1 5,-1 v 1 l 2,1 v 2 h 2 l -1,3 -3,1 v 3 l 2,1 2,-1 2,2 v -4 h 3 v -4 h 2 v 8 l 2,3 v 5 l 1,2 h 3 l 1,4 1,1 1,3 v 2 h -4 v 6 l -5,1 -5,-2 h -2 v 4 l -6,1 v -4 h -7 l -3,4 -2,-2 h -5 l -3,2 -5,1 -1,-1 -1,1 -1,-2 v -4 l -2,-1 1,-3 -3,-2 -1,-3 -7,2 v -16 l -6,1 -5,-2 -6,3 -8,5 v 4 l -2,1 2,2 -2,3 -1,3 h 2 l 2,-1 v 1 l 1,7 h 3 l 5,3 -1,13 -1,2 3,1 1,6 2,3 -2,4 z"
     id="path10"
     style="stroke:#000000;stroke-width:0.2;stroke-linejoin:round" />
  <path
     fill="#16a34a"
     d="m 79,120 -4,3 v 2 l 1,3 9,-1 3,1 1,7 -1,1 3,3 -4,3 h -2 l 1,6 6,-3 5,2 6,-1 v 16 l 7,-2 1,3 3,2 -1,3 2,1 v 4 l 1,2 1,-1 1,1 5,-1 3,-2 h 5 l 2,2 3,-4 h 7 v 4 l 6,-1 v -4 h 2 l 5,2 5,-1 v -6 h 4 v -2 l -1,-3 -1,-1 -1,-4 h -3 l -1,-2 v -5 l -2,-3 v -8 h -2 v 4 h -3 v 4 l -2,-2 -2,1 -2,-1 v -3 l 3,-1 1,-3 h -2 v -2 l -2,-1 v -1 l -5,1 -5,-1 -1,-4 2,-4 -2,1 v 2 l -3,-1 1,-7 h -3 l -2,2 -2,-7 -7,-4 h -4 v -2 l 2,-3 -2,-2 -2,1 -1,-3 -4,-1 h -7 l -4,-4 v 2 l -2,-1 -1,-4 -8,-1 -3,6 v 5 z m 55,122 -5,5 -4,-1 1,4 -1,1 -3,-1 -2,3 3,6 -1,3 7,2 v 2 l 2,3 6,-1 1,8 -3,4 2,4 -1,6 1,3 -2,4 1,4 5,1 v 6 l -3,1 3,4 -2,3 -1,8 6,3 8,1 3,-1 8,3 -1,-10 2,-5 -4,-3 -1,-2 4,-7 7,-5 9,1 3,-4 v -3 l 5,-3 5,3 v 5 l 5,-4 4,-6 7,-6 2,-3 4,-2 2,1 -1,-7 5,4 2,-3 3,-7 -2,-2 v -5 l 8,-5 3,-1 -1,-5 11,-9 -2,-5 v -1 l -8,1 -2,4 -4,-3 -1,5 h -3 l -8,-6 -2,-5 -7,-2 -5,4 v -4 h -2 l -3,-4 -4,2 -3,4 -4,1 -3,1 -7,8 -11,-10 -3,-1 -4,3 -4,-1 -4,-11 -4,1 -4,-1 4,-4 -7,-3 -6,4 v 6 l 4,7 -1,3 -2,-1 -3,5 v 6 z"
     id="path12"
     style="stroke:#000000;stroke-width:0.2;stroke-linejoin:round" />
  <path
     fill="#16a34a"
     d="m 251,112 6,2 10,-7 6,5 1,-1 2,4 1,-2 v 3 l 10,1 3,-1 1,-4 1,-2 v -6 l -4,-7 h -7 l -5,-4 v -3 l 12,7 3,-4 h 4 l 4,-11 -2,-2 -4,-12 h -5 l -5,-3 -4,4 -2,-4 -2,1 -1,-1 v 2 l -2,-1 1,4 -2,1 -2,-2 -1,1 -1,-1 -3,7 -2,1 -6,-1 -2,1 -1,-2 -4,1 -1,-9 h -3 l -1,6 -5,3 -4,-1 -4,3 v 5 l 3,2 -1,7 2,2 -2,2 11,-1 1,-2 -3,-1 h 4 v -2 h -1 l 2,-3 h 5 l -2,6 -2,1 4,2 -1,2 4,6 -1,2 -3,2 1,2 -2,1 z m 42,95 -18,-2 h -1 l 7,6 -4,4 -6,3 v 2 l -9,1 -3,7 -8,-1 -9,5 2,5 -11,9 1,5 -3,1 -8,5 v 5 l 2,2 -3,7 -2,3 -5,-4 1,7 -2,-1 -4,2 -2,3 -7,6 -4,6 -5,4 v -5 l -5,-3 -5,3 v 3 l -3,4 -9,-1 -7,5 -4,7 1,2 4,3 -2,5 1,10 v 2 l 2,2 h 5 l 4,3 1,3 -9,7 -4,1 v 5 l -2,2 h -4 l -2,4 -8,2 -2,-5 -6,-2 -13,6 1,8 -4,6 h 1 l 1,9 3,3 3,-1 4,5 10,1 5,5 8,-5 2,-1 6,2 1,-2 5,-1 3,-3 4,1 2,-3 3,2 -2,5 1,4 8,-1 6,-4 3,1 2,5 4,3 4,9 -3,7 -3,-1 -3,2 -3,-4 -6,-1 -7,1 -8,7 -9,-3 -20,6 -3,-5 -2,2 -2,-5 -4,-1 v -2 l -10,-1 1,4 -5,2 1,5 -11,12 v 3 l -5,8 -1,5 -12,4 H 81 l 3,-5 7,-2 6,-6 v -3 l 3,-2 v -5 l 4,-6 11,-6 -2,-5 2,-5 -1,-3 -9,-3 -2,-6 h -4 v -3 l -5,-3 5,-4 -1,-3 3,-1 1,-3 1,2 2,-2 2,-3 -2,-1 -6,-2 -3,-3 -3,-1 -2,-2 -6,-2 h -2 l -3,4 -4,1 -3,-2 -7,9 -1,4 6,5 -2,5 -6,4 -5,5 1,6 -9,3 -8,5 -6,19 -6,2 -5,3 1,3 -6,2 v 1 l 1,1 1,7 -4,2 -2,4 5,5 h 1 l 1,2 6,1 1,4 7,-1 4,7 4,2 2,7 -4,8 1,4 1,1 7,-1 2,2 5,1 2,1 -1,5 3,1 v 4 h 3 l 2,4 v 11 l -2,5 1,6 h -5 l -6,-2 v 10 h -3 l -1,3 3,4 -2,8 -6,3 1,4 2,2 9,1 2,9 -4,7 5,-1 5,-3 5,1 8,-8 -1,-5 5,-2 4,1 4,-3 h 20 l 4,5 3,1 2,3 3,1 2,-1 2,3 5,-2 1,-2 6,2 7,-4 5,-1 1,-5 3,-2 4,1 10,6 h 6 l 4,5 -1,4 2,5 3,-2 v 9 l 5,2 1,-1 -1,-6 5,-5 -5,-6 h -6 l -1,-8 5,-9 -1,-4 7,2 v 6 l 8,1 1,-3 -2,-5 5,-1 3,2 v -3 l -2,-2 -3,1 -4,-13 3,-6 h 4 l 1,-5 4,-2 1,-4 5,-6 7,1 1,3 3,-3 h 3 l 4,-3 7,-1 2,-2 4,-1 3,-8 5,-1 1,-2 2,-7 4,-3 2,-7 7,3 3,-6 1,3 2,-3 v 3 l 5,3 1,-2 4,1 5,-1 3,4 h 4 l 5,4 3,-3 h 2 l -2,-8 -5,-6 3,-6 -2,-5 2,-8 -2,-2 2,-3 11,3 -9,-9 3,-4 -2,-2 1,-5 -3,-2 v -2 l 4,-2 v -4 l -3,-7 3,-2 -1,-5 5,-4 -2,-5 -4,-4 2,-1 1,-6 -9,-4 1,-3 2,-4 5,-3 v -2 h 4 l 1,-3 v -5 l -4,-1 v -2 l 3,-1 4,-7 4,-2 -1,-4 1,-1 -3,-4 -4,-2 2,-4 v -2 h -2 l -3,-6 -7,-5 -2,-8 3,-3 h 6 l 9,-7 -4,-6 -6,-2 -4,-4 -4,-15 -2,-2 1,-4 -3,-6 -4,-5 -5,-1 v -3 l 3,-3 1,-6 4,-1 3,-4 -1,-8 4,-4 8,-1 3,-4 6,-2 7,3 h 4 l 4,-5 10,2 5,-3 10,1 v -7 l 4,-8 v -5 l 8,-7 -1,-2 -5,-1 -2,-3 v -4 l 2,-2 -1,-11 h -4 l -7,3 h -3 l -4,5 -8,-3 3,-9 -7,-7 1,-1 -3,-7 h -2 v 2 l -7,-3 -7,8 -5,1 -2,-6 h -2 l -5,10 3,2 v 6 l -7,1 v 3 l 2,3 -4,4 1,3 -4,7 -4,1 -2,2 z m -147,6 -4,4 4,1 4,-1 4,11 4,1 4,-3 3,1 11,10 7,-8 3,-1 -2,-6 3,-4 -5,1 v -2 l -1,1 -5,-6 1,-1 -5,-1 -4,-5 -4,-2 1,-2 -1,-2 -1,2 -1,-2 h -2 l -3,-4 1,4 h -1 l 1,3 -2,1 v 8 z"
     id="path14"
     style="stroke:#000000;stroke-width:0.2;stroke-linejoin:round" />
  <path
     fill="none"
     stroke-linecap="round"
     d="m 145,132 2,-3 h 2 v -7 l 6,-1 v 2 h 3 l 5,-2 v -1 l -4,-1 v -4 l 5,-1 v -8 m 60,-2 6,12 -4,1 -3,4 -2,1 3,3 -2,3 2,4 -1,1 -3,-1 -1,3 -3,1 m -105,-36 3,-2 1,-5 -1,-4 M 91,214 h 10 l 5,-3 h 3 v 2 l 3,-1 2,-3 7,2 1,-3 4,1 v -5 h -4 l 2,-7 -6,1 v -5 h -2 v -5 -2 h -6 l -3,-6 h -4 v -4 h -5 v -7 l -9,2 1,-4 -2,1 -1,-2 -1,3 h -2 l -2,1 1,3 m 43,31 h 2 v 3 m -21,-27 h 2 v -4 l 1,-1 v -2 h 5 m 46,-3 2,6 h 2 l -4,2 v 7 h 4 v 5 h 3 l -3,6 3,2 v 1 l -3,2 m 62,-47 v 4 l -3,3 1,6 -3,6 h -4 v 3 l -9,5 -1,5 2,2 -3,3 -3,7 -7,9 3,9 -3,5 M 79,120 l 8,6 1,-1 -2,-1 2,-2 6,-1 1,2 -3,-1 1,2 4,-4 h 3 l 2,3 h 4 l 5,-10 -3,-9 3,-4 m -5,23 -2,2 2,2 -1,3 m 17,4 -1,-5 3,-2 1,-2 h 2 l 2,-7 m -2,17 v 3 l -1,3 2,1 -1,1 -7,1 v 5 h -2 l 3,3 h -2 l 1,1 -1,1 1,2 -7,1 2,-6 -2,-3 1,-4 -8,-3 -3,5 m 3,-5 -1,-1 v -3 l 3,-1 v -3 m 14,21 -2,2 v -2 l 2,-1 v 1 m 5,-11 6,4 -1,2 1,1 v 4 l 1,-2 4,-1 -1,-3 h 5 l 1,2 2,-2 1,2 h 2 l -1,-7 m -14,11 -1,5 3,5 -1,5 2,1 m -26,-10 3,-3 m 15,-15 1,-1 2,2 14,-1 m -8,126 5,-3 3,3 6,-4 10,-1 13,-4 1,-5 4,2 2,-2 1,-9 -4,-3 1,-2 -3,-3 -3,3 -6,-2 -2,3 v 2 l -4,4 -3,-2 v -4 l -9,2 -4,-2 -4,3 h -3 l -2,-2 h -2 m 27,21 2,9 6,4 3,-1 v 3 l 1,3 2,-2 2,3 10,2 v 5 m 25,234 -9,-6 2,-3 v -5 l 3,-3 -2,-3 1,-4 -3,-6 4,-2 1,-4 -7,-7 -2,-5 -1,-2 3,-4 -3,-5 5,-7 -2,-5 2,-5 3,-3 -3,-5 v -5 l 5,-3 2,-5 h 5 l 5,2 5,8 h 6 l 6,6 1,4 -1,5 2,2 -1,6 1,2 -1,2 1,3 5,2 4,-4 5,-2 2,-3 3,-1 2,3 -1,2 8,6 3,2 3,-3 3,2 -1,2 3,2 5,10 M 22,463 34,456 h 12 l 13,9 6,-2 4,-5 9,-3 3,-2 m 125,-38 2,5 2,1 1,5 m -6,-27 5,-6 h 16 l 1,-6 v -10 l 3,-3 2,-10 4,-1 1,-4 -1,-1 4,-6 1,-7 -4,-2 v -5 l -3,1 -1,-1 3,-4 -5,-2 -8,1 -12,-6 -7,-5 -4,3 -3,-1 -7,1 -2,3 -9,1 -1,5 h -3 l -1,3 m 62,26 5,2 12,-3 4,-3 h 7 l 2,-2 2,2 1,4 -1,2 5,10 12,1 3,5 6,-1 7,1 3,2 m -107,-90 2,3 6,2 1,5 2,2 4,18 -1,4 m 11,-56 4,-1 6,1 2,-2 h 3 l 2,-2 3,2 4,10 -1,4 9,3 3,-2 h 3 l 4,-2 5,3 2,4 8,1 9,-2 3,-5 -2,-3 2,-3 11,1 m -9,-71 4,2 9,-2 4,-8 4,-1 1,-3 9,1 7,-2 2,-2 v -3 l 3,-2 v -3 l 5,-5 m -44,30 v 2 l 3,4 1,8 4,10"
     id="path16"
     style="stroke:#000000;stroke-width:0.2;stroke-linejoin:round" />
  <path
     fill="none"
     stroke-width="1.6"
     stroke-linecap="round"
     d="m 90,250 8,6 h 7 l 3,2 v 3 h 3 l 1,2 h 9 l 1,-1 1,-3 -3,-6 2,-3 3,1 1,-1 -1,-4 4,1 5,-5 -3,-2 v -6 l 3,-5 2,1 1,-3 -4,-7 v -6 l -2,1 -5,-1 v -2 h 2 v -5 h 2 l 2,-4 2,-1 v -2 l -4,-1 1,-5 h -2 l 2,-5 -1,-6 4,-2 -1,-7 3,-4 h 7 v 4 l 6,-1 v -4 h 2 l 5,2 5,-1 v -6 h 4 v -2 l -1,-3 -1,-1 -1,-4 h -3 l -1,-2 v -5 l -2,-3 v -8 h -2 v 4 h -3 v 4 l -2,-2 -2,1 -2,-1 v -3 l 3,-1 1,-3 h -2 v -2 l -2,-1 v -1 l -5,1 -5,-1 -3,1 v 3 l -2,-1 -1,2 -2,-1 -5,-1 -8,1 -3,-3 -3,1 -3,-3 -1,-1 h -5 l -2,3 1,2 -7,5 m 74,23 h 3 v -3 h 3 l 3,3 h 13 l 2,-3 1,-5 4,1 3,-2 v -3 l 4,-1 3,-2 -1,-2 5,-5 -1,-1 1,-4 2,1 4,-1 2,1 6,7 v 3 h 2 l 3,8 14,2 2,-4 -2,-9 3,-1 -1,-2 -3,-1 -1,-2 2,-3 4,-2 h -3 l 3,-1 v -1 h -3 2 v -3 h 3 v -2 l 5,-2 3,-5 v -2 l -5,-3 1,-1 6,2 10,-7 6,5 1,-1 2,4 1,-2 v 3 l 10,1 m -158,-67 -1,1 -1,-1 v 1 l -4,-1 -1,1 1,-2 h -2 v 5 l -1,-5 -1,6 -1,3 -2,-1 -1,2 v 2 l -8,2 2,3 -1,2 1,5 3,10 2,1 v 5 l 4,-1 4,4 6,2 6,-1 3,-2 h 12 v 6 l 6,-1 v 3 l 5,1 v 4 h -1 l 1,2 h 4 3 l 2,3 1,-2 6,-2 -1,3 2,1 -2,4 h 4 l -1,2 2,2 h 7 l 1,4 -2,3 2,1 v -2 l 1,2 3,-4 8,2 -1,-5 3,-10 7,3 h 7 l 1,-9 2,1 h 5 v 1 m 9,-8 2,-2 -2,-2 1,-7 -3,-2 v -5 l 4,-3 4,1 5,-3 1,-6 h 3 l 1,9 4,-1 1,2 2,-1 6,1 2,-1 3,-7 1,1 1,-1 2,2 2,-1 -1,-4 2,1 v -2 l 1,1 2,-1 2,4 4,-4"
     id="path18"
     style="stroke:#000000;stroke-linejoin:round;stroke-width:0.2;stroke-miterlimit:4;stroke-dasharray:none" />
  <g
     id="g30">
    <rect
       id="rect24"
       height="36"
       width="120"
       y="570"
       x="266"
       opacity="0.75"
       fill="white" />
    <rect
       id="rect26"
       height="8"
       width="112"
       y="574"
       x="270"
       fill="black" />
    <text
       id="text28"
       y="602"
       x="326"
       font-family="sans-serif"
       font-size="24"
       text-anchor="middle"
       fill="black">20km</text>
  </g>
</svg>
