<?xml version="1.0" encoding="UTF-8"?>
<!DOCTYPE svg PUBLIC "-//W3C//DTD SVG 1.1//EN" "http://www.w3.org/Graphics/SVG/1.1/DTD/svg11.dtd">
<svg width="582" height="431" version="1.1" xmlns="http://www.w3.org/2000/svg">
	<title>神奈川県行政区画地図 (2010年4月1日)</title>
	<desc>Author: Lincun</desc>
	<rect fill="#eeeeee" x="0" y="0" width="582" height="431"/>
	<g stroke="black" stroke-width="0.2" stroke-linejoin="round">
		<path fill="#cccccc" d="M583 239h-1l-10-6-4 6 9 8 2 4-3 1-3 2-5-9-10 10 4 6h5l1 3-10 7v-2l-3 2 1 2-2 1 2 1h-1l2 1-4 1 1-2-1 2-4 1-14 1 18 5 12 6 5 3 6 6v6l-1 1-2-2 1 3-1 2 10 12zM583 348l-5 3-15 8v3l-4 4-4 7 2 3h-1v2v3l-1 1 2 2-2 1 4 3-2 2-1 5h-1l7 2 6 10-1 4 1-1v2l1 1h-2v3l-3 2v3l-4 4 3 2-2 2-1 1 2 1v1h21zM554 428l1 1v-2zM509 280l2 1 1-2zM115-1h2l5 3 4-1 5 2 15 13h3l6 4h4l5-1 3 5 1 3-1 4h1l4 1 2 4h3l4-2 2-3 2-1 10 4 1 2v6l3 5-1 3 6 4v4l6 6 7 4 4-2 4 1 1-4 1-1 9-3 5 1 7 6 12-1 4 2 6-2 10 5h3l5 3h3l2 3 6 1 1 3 6 1 1 6h4l4 10 4 2 7 9 6 3 2 5 3 2 3 4v1l-2 3 1 2 4 1 3 12h5l5-2-3-2-1-3 3-6h2l1-6-1-3v-3l-3-5 1-4-2-8-2-3-1 3-4-3 1-5 4-9 3 1 3-3 2 1-4 9 5 7 6-5v-1l3-1v-3v1l-4-5-3-1v-5l-4-1-2-3-8-5-3-6-7 4-3-6 2-5 7-4 2 3 5 1v4h2l6 7 6-1-3-9 5-4h5l2-1 1-4 4-2-1-4 2-3 14 4 1 2 7 1 3 2-1 2 4 3 11 3h4l13 4 15 11 7 6h5l2 2 5 15 3 4 14 6v3l-4 4 1 4 3 1 8-1 5-4 5 2 3-3 11 1 24 16 7-13-14-23-9 1-4 7-3-3-2 2-2-1-5-6h-1h1l-3-2 2-1h-13h10l3-2 2 2 5-2h5l3-3 1 1-2 2h10l3-2-4-4h-3l-3 3-1-1 4-5-2-4-8-15v-9v-4l-4-1 1-3 3 2v-7l1-4h2l6 5 7 12 3-1 4 6 2-4-1-7 4-1v-2l17-3-1 7-7 1v1l11-1 1-15v-2h2h3v10l6 3h3v-41zM583 42l-2-1-2 2 1-2 3 1zM519 90v2l5 2 4-7h-9zM512 90l3 3 3-2-2-4-4 1zM533 47l-3-5-3 2 2-1 2 2-6 4v1l2 5 1-1v1l8 12 4-5-7-11 2-2zM559 46l1 8 3-1 1 1-2 1 3 4 2-1 1-13zM535 50l6 8 2-2-5-8zM556 40l1 4 2-1v-2l5-1v-1h-5l1-2zM574 42v-2l4 1v2l1-2-4-2zM-1 225h1l2-3 4-1 2-3 9-3-1-3 2-5 4-3 1-4h2v-4l-2-5 2-5 4-7 7-5 7-4 5-1 3-3 3 3 6-8h11l4-4h5l3-1 1-3 1-3 4-1 4-6 1-8 4-1 5 3 3-2h6l3-2h3l3-5 6-4 4-6 2 1 2-5-1-1v-7l10-11v-4l-1-8-2-1 1-1h-2l-1-3 2-4 3-1 2-7v-3l-3-3 4-3-2-1-4-5v-6l2-6-6-9 1-2 1-3 2-3 4-3 1-3-15-13-5-2-4 1-5-3h-2h-116zM116 432l2-1 1-5 5-3 7-10 2-8h-4l-9 1-10-4-5 1-15-5-6 1-1-4 2-1-3-3 1-1v-6l-1-2v-2l-3-5h-4h-1l-3-1-4-5-2-3-6-5v-7l-4-5 1-4-2-4v-3l-2-2 1-3-2-6v-7l1-5 10-15 3-3 4-1v-2l4-13-1-2 4-7 1-5-2-3-2-4-2-8 3-6-3-2-1-11-1-1-3-5 2-11-2-2-3-1-6 1-2-2-5-1-6 3h-6l-5 2-16-1-9 3-2 3-4 1-2 3h-1v207z"/>
		<path fill="#dcb6f2" d="M431 280l2-4 7-1 4-5 2 3 3-5-4-3h3h-2v-2l1-3 2-1 2 1-3-3 2-1 1 4 8-2v-8l-3-5v-5h3v-4l-1-2-3 1-4-4 3-1 3-5-4-3-8 7-2-2-1-1 4-3 2-1-2-2 1-1-2 1-2-1h1l-4 3-2-4 3-4 5 1 6-2-2-3-6 2-2-3 2-1-1-2 2 3 6-2 6-1 3 4 3 1 2-2 2 2-2 1 1 1h-1l2 1 6-6-5 5 2 3 4-4 2 2-1-1 5-5 2 2-2 5 2-5-4-4-2 3-3-1v-2l2-3-1 1v-2l-1 2h-1l1-2-3 1 3-2-2 1 1-1-2-3 3 1v-4l1 2 2-1 3-9-3-2-4 8-2-1 4-7h-1l-2 3-2-1 2-4-1-1-6 10v-1l-6-7 6-5-2 2-1-2-2 1v-2l-3 4-4-2 2-4-3 3 1-5h1l-2 2v-3l-2 2h-3l-2 2 4-4v-4l-3-1h3v-4l1 2v-3l-3-1 5-7 4-1-1 1 1 1h1l1 3h4h5l-1-5h5l-3 2 2 4-3 1v5l8-4v-3l6-3-3-7 1-4 1 5 1-2 1 2 3-1-2 2 1 5 5 5 4 7 8-4 10-5-4-8 2-1-2-4 6 7 8-4-2-3 2-1 2 3 7-4 3-2-2-3h2l-8-1-1-5 6-2-1 2 2 2 3-3 6 4 2-3-2-1 4-6-24-16-11-1-3 3-5-2-5 4-8 1-3-1-1-4 4-4v-3l-14-6-3-4-5-15-2-2h-5l-7-6-15-11-13-4h-4l-11-3-4-3 1-2-3-2-7-1-1-2-14-4-2 3 1 4-4 2-1 4-2 1h-5l-5 4 3 9-6 1-6-7h-2v-4l-5-1-2-3-7 4-2 5 3 6 7-4 3 6 8 5 2 3 4 1v5l3 1 4 5v-1v3l-3 1v1l-6 5-5-7 4-9-2-1-3 3-3-1-4 9-1 5 4 3 1-3 2 3 2 8-1 4 3 5v3l1 3-1 6h-2l-3 6 1 3 3 2-5 2h-5l-2 3 4 4-1 10 3 6-1 6 5 10-5 9 1 4-1 5 3 3-2 13 3 8 3 3 1 4 4 4-2 4-2 8 6 2 4-8 10 5 4 3 2-1 1 3 7-2 1-4h1l2 2-1 3 6 6h7l1 1 2 7 4 1 4-1 3 12 2 1v2l4-1zM450 263l3 1 2-3h-4zM472 219l2 2 4-4-4 3zM459 184l6 6 5-11-3-1-3 5 1 2-2-1-2 1-1-1zM468 168l1 3 13 8-1 1 5-5-2-5-6 4-2-2 6-3-2-6zM448 162l2 1v2h2l5 4v-1l-2-2 3-1-3-4h-3l-1 2-2-2 3-1-2-1zM447 161l1 1 2-3-1-1zM164 161l1-2 1-4 9-9v-2l7-6 4-1 3-5 3-1 1-4h3l-1-2 5-3-3-4 1-1 6-1 2 3 9-8 1-3 5-2h5l7 3 2-5 4-3h4l5 4v1l8 8 5-2v-2l17 12 1 1 5 4 7 3 1 10-2 8 8 1 3-4 7-1 10-13 4 3 1 3 16-9-1-2 2-3v-1l-3-4-3-2-2-5-6-3-7-9-4-2-4-10h-4l-1-6-6-1-1-3-6-1-2-3h-3l-5-3h-3l-10-5-6 2-4-2-12 1-7-6-5-1-9 3-1 1-1 4-4-1-4 2-7-4-6-6v-4l-6-4 1-3-3-5v-6l-1-2-10-4-2 1-2 3-4 2h-3l-2-4-4-1h-1l1-4-1-3-3-5-5 1h-4l-6-4h-3l-1 3-4 3-2 3-1 3-1 2 6 9-2 6v6l4 5 2 1-4 3 3 3v3l-2 7-3 1-2 4 1 3h2l-1 1 2 1 1 8v4l-10 11v7l1 1-2 5-2-1-4 6-6 4-3 5h-3l-3 2h-6l6 10 7 2 2 3 4 2 3 6 7 1 7-1 3-5 5-1 4 3 2 4 5-1zM449 158l3 2 4-1-4-4zM452 155l2 1-1-1z"/>
		<path fill="#f6bad3" d="M431 410l2 1-1 1 3-1 1 2 3-1 4 2h1l-3-2 1-1-3-2h-3l-5-1 1 1zM450 406l-1 2h5l2-3 1 1 3 2 2-2 1 1 2-3h-2l-1-2 2 1 2-2 1 6h2l-1-2 2 1 2 1 1-3-2-1 3-2h-1l2-3-2-4-5-1-5-2-1-8-3-1v-2v-6l5-7 16-11 20-3-1-4-4 1 1-3h-3l1-2 2-4 3 1v2h4v-6l-3-1-3-6-1-4 2 5 2 1 2-2v2l3-1 1-6 2 1 2-2 3-2-2-4-4-3-2 1-1-3-4 2-4-1h-13l-3-2-1-3-1 1-2-3 1-2-5-3 1-3-3 1v-3l-2 1v-2l6-1-2-3 1-1-4-4h-7l2 8-3-2-1 1-1-1v2l4 4-1 1-4-1-3-3-1-3-2-4-2 1 1-1-2 2h-2l-1 1v-3l-2-1 1-2 3 2 1-1v-2h1l-3-6 5 3v-3h2l2-3-1-2 1-1 3 2v-3l3-1v-4h-9l-3-1-1 1-3 5-2-3-4 5-7 1-2 4-4-4-4 1v-2l-2-1-3-12-4 1-4-1-2-7-1-1h-7l-6-6 1-3-2-2h-1l-1 4-7 2-1-3-2 1-4-3-10-5-4 8-6-2 2-8 2-4-4-4-1-4-3-3-3-8 2-13-3-3 1-5-1-4 5-9-5-10 1-6-3-6 1-10-4-4 2-3-3-12-4-1-16 9-1-3-4-3-10 13-7 1-3 4-8-1 2-8-1-10-7-3-5-4-1-1-2 3 2 3-4 2 2 6-2 2v5h-3l-7-5h-5l-4-2v-3l-4-7-7 1-7 6h-4l-1 4 8 19 5 2 1 3-4 9-2-1-1 2h-10l-3-1-8 2-5-2-5 2 1 2-6 3v-3l-9-3-6 1-1 4-3 3-3-1-7 3-2-3-8-2-5 6-8 1v2v5l4 11-2 8 3 3v3l2 4-5 5v5l1 3 7 10 1 6 6-2 2 5 4 4 4-5 1 1 1-2h5l2-4h5l5 6 2-1 7 1 7-3 4 1-8 6 1 8h3l2 4 1 1 5-2 3-2 12 1v2l7-1-1 5 9 2-2 2 8-2v-2l3-1v-2l2 3h4v1l-3 2 1 6 13-2 9 1 2-2 2 1h14l4-2 5 1 2 1 4-2 9-1 11 1 12 4 4 6-5 3 2 2 6-1-3-3 4-4 2 2h7l13 3 3-2 2-3 4-1 5 3 2 4-1 1 1 3 3-1v3l6-2 2 1 2 4-3 2 3 2 3-4 3 1 3-3 8-1 5 2-1 4-8 2 1 3h5l4-1 4 2 2-1v-2h3l3 4 6 1-2 2-1 4 2 1-4 1-4 4-4-1v-2l-2-1-3 3h-5l-3 2-14 1 6 2 8 9v3l3 2v6h5l4 2h1l2 2-1 2 1-2 2 1v3l-4 4-7-2 1 3h-3l1 1-2 1 1 3-3 1-1 3h5l1 3h4v3l3 1-3 1h-1l4 6-3 2 1 2v2l8 2-3 1-2-1-4 1-3-1v4l3-1 2 1-3-1v1l3 3h-6v-2l-1 1v1l2 2 2-1v2l1-1-1 2 2 1-4 2-1 3 2-1h2v2l1-2 1 2 3-3-2 3 5 1 1 1-1-1 1-2 4-1zM148 378v-3l2-5-2-2 1-5 2-5 1-19 3-5-1-1h2l13-10 7-4 14-13 16-7v-3l2 1-1-7 2-2-1-7 1-3-3-4-6 3-6-1-1 2-5 3v3v-4l-6-4-4-4-4-5-6 2-3 8-1-2-1 2-4 2h-4l-3-7h-4l-1 3-3 1-5-2-4-14-4-3 3-6h-1l-6 1-3 3-3-3-3 1-4-1-6 2-6-3h-4l-2 2v3l-8 2-4 4 1 3-8 2-1 5-4 7 1 2-4 13v2l4 6 9 3 2 3 9-6h3l6 7 3 12 2 1-6 5 5 4 2 2 2-2 6 6 4-3 1-4 5 3h12l-3 7v2l-8 1-8 6-2 3-2 8-3 2 1 3 7 2 2 3 6 2h1l12 3 4 3zM427 346l2 1-1-2zM481 300l2-2-1-1zM452 288l3 5 2-2-1-1 3-2-3-5zM290 220l-1-5h14l-1 2 2 1-1 5h5l-3 4 4 5-3 6-3 4v9l-15 1 1-8-2-1 3-19z"/>
		<path fill="#ece3b4" d="M152 393v-3h-2l3-5-5-7h-3l-4-3-12-3h-1l-6-2-2-3-7-2-1-3 3-2 2-8 2-3 8-6 8-1v-2l3-7h-12l-5-3-1 4-4 3-6-6-2 2-2-2-5-4 6-5-2-1-3-12-6-7h-3l-9 6-2-3-9-3-4-6-4 1-3 3-10 15-1 5v7l2 6-1 3 2 2v3l2 4-1 4 4 5v7l6 5 2 3 4 5 3 1h1h4l3 5v2l1 2v6l-1 1 3 3-2 1 1 4 6-1 15 5 5-1 10 4 9-1h4l6-6h8l1 1 4 3 5 2 1 1 1-1h3l-2-4h-4l-1-2-4-2 1-1 1 1zM411 323l14-1 3-2h5l3-3 2 1v2l4 1 4-4 4-1-2-1 1-4 2-2-6-1-3-4h-3v2l-2 1-4-2-4 1h-5l-1-3 8-2 1-4-5-2-8 1-3 3-3-1-3 4-3-2-2 1 3 3v4l-1 1 1 2-2 2 5 3v2l2 3zM227 291l25-6h5v-2l7-3-1-6 3-2v-1h-4l-2-3v2l-3 1v2l-8 2 2-2-9-2 1-5-7 1v-2l-12-1-3 2-5 2-1-1-2-4h-3l-1-8 8-6-4-1-7 3-7-1-2 1-5-6h-5l-2 4h-5l-1 2-1-1-4 5-4-4-2-5-6 2-1-6-7-10-1-3v-5l5-5-2-4v-3l-3-3 2-8-4-11v-5v-2l8-1 5-6 2-8-2-7-3-3-5 1-2-4-4-3-5 1-3 5-7 1-7-1-3-6-4-2-2-3-7-2-6-10-3 2-5-3-4 1-1 8-4 6-4 1-1 3-1 3-3 1h-5l-4 4h-11l-6 8-3-3-3 3-5 1-7 4-7 5-4 7-2 5 2 5v4h-2l-1 4-4 3-2 5 1 3 16 1 5-2h6l6-3 5 1 2 2 6-1 3 1 2 2-2 11 3 5 1 1 1 11 3 2-3 6 2 8 2 4 2 3 8-2-1-3 4-4 8-2v-3l2-2h4l6 3 6-2 4 1 3-1 3 3 3-3 6-1h1l-3 6 4 3 4 14 5 2 3-1 1-3h4l3 7h4l4-2 1-2 1 2 3-8 6-2 4 5 4 4 6 4v4v-3l5-3 1-2 6 1 6-3 3 4-1 3 1 7-2 2 1 7-2-1v3l11-5zM303 242l3-4 3-6-4-5 3-4h-5l1-5-2-1 1-2h-14l1 5v4l-3 19 2 1-1 8 15-1zM278 122l-17-12v2l-5 2-8-8v-1l-5-4h-4l-4 3-2 5-7-3h-5l-5 2-1 3-2 6 5 9 5 3 1 6 4 2h4l1-4h4l7-6 7-1 4 7v3l4 2h5l7 5h3v-5l2-2-2-6 4-2-2-3z"/>
		<path fill="#b6f2dc" d="M194 171l9 3v3l6-3-1-2 5-2 5 2 8-2 3 1h10l1-2 2 1 4-9-1-3-5-2-8-19h-4l-4-2-1-6-5-3-5-9 2-6-9 8-2-3-6 1-1 1 3 4-5 3 1 2h-3l-1 4-3 1-3 5-4 1-7 6v2l-9 9-1 4-1 2 2 7-2 8 8 2 2 3 7-3 3 1 3-3 1-4z"/>
		<path fill="none" stroke-linecap="round" d="M500 164l-13-25-3 1-2-6-5-10 1-1-3-3 1-7-6-1v3h-3l-2 3-7-4-1-2 3-10h-1l-5-4-3 1-6-2-12 1-2-3-6-1v-1l-14-1-3-2h-2l-2-5-7-7-8-3-8-1 2 8-3 4-2 4-5 3-4-6M347 91l8-1M349 198h-3l-1-4-1 1 1 3-3 1-1-2-7-2 1-13 3-5v-3l-2-8h-9l-1-7 3-2-6-20M290 148l3 16 14-2 11 3 8-6M290 220h-9l-2-7v8l-4-9-1-8-10-6-2-3h-3l-1 4h-3l-7-4-1-4-2-2-2 1-4-4-17-4-10-1-2 4-5 1v-5l-2-3v-1M334 195l-2 1 7 7v3l1 1-2 1-3 2h-4v-4l-5-4-5-1-1 3-7-2 1 2-4 6-2 4-3 1h-2M327 166l-8 1-1-1-4 5 1 3h-4l-1 6h-3l3 4 2 10-2 16M293 164v8l-5 8 3 8-4 23 2 4M205 186v6l4 8v3l5 3 5 7 2 4-5 5 1 7 14-3 9 3 6 1 2-6v4l6 4 2 5 3 1-1-10 3 3 1-2h4l1-2 5 3 1-6h2l-1 7 5-4 1-5-1-1M240 229l1 6h-5l-5 1-5 12-9 1M328 275l4-9v-7l-5-14 3-6h-5v-4l-1 3-1-1 2-6-1-4h-9l-6 5M363 247l5 1v4l3-1 2 3-2 4 4-1 1 2-5 5-4 1-3 6v3l-5 9M143 276l1 1-1-1M288 252l-1 8 4 1-3 2-1 9 3 6M421 274h-3l-2 3-9 3-1 2-5 2-2 2-2 3M144 276l2 5-1 5 2 9 2 2-5-4 1 5-6 1v3l-2 1-16 2-3 2-10 2h-6M439 304l-1-2 2-3-1-6-8-13M464 367l-2-1-1-4-3-3 1-4-5 2-9 1-1 4-6 2-3 6M151 183l-7-1-1 3-6 4-2 4-5 3v3l-3 3 3 7-4 2v10l7 6 6 2 1 3 4 3-3-1v7l-5 6-1 4 9 4 3 7 5-2 4-4 6-1 2-2v-4l-2-1M135 251h-1M178 272l4-4-1-5h-1v-3l4-2-5-3-1-3 1-1M152 272l-5-10M215 267l-9 7M227 291l-2-12-1-2h-4l-4-9M112 362l-2-1-5 6-8 4-6 7-9 2M128 372l15 15 1 2-2 3 6 8"/>
		<path fill="#eeeeee" d="M-1 207l5-3 3-5-2-5-2 2 1 2 1-2v2l-6 1zM58 333l-1 2v4l3 2v4l3 1 2 5-2 2 1 5 4 3v2l2 1 2 6h1l2-3h3v3h2l2-2-2-3 2-2 1 2 1-5h-4l-7-5-8-9-1-11zM198 116l-4 2 2 1-4 4 1 2h1v-3l2 2 1-3 2 3-1-5 1-1 4 6-2 1 1 3h2v-4h1l1 6 4 1 3 4 3 1-5-6 1-2-2-1-5-5 4 1-2-2v-2l4-1v-3l4-2v-3h-4l1 2-3 1v2l-4 3-3-1-2-3v2z"/>
	</g>
	<g>
		<rect fill="white" opacity="0.75" x="439" y="4" width="139" height="36"/>
		<rect fill="black" x="443" y="8" width="131" height="8"/>
		<text fill="black" text-anchor="middle" font-size="24" font-family="sans-serif" x="508" y="36">20km</text>
	</g>
</svg>