<?xml version="1.0" encoding="UTF-8"?>
<!DOCTYPE svg PUBLIC "-//W3C//DTD SVG 1.1//EN" "http://www.w3.org/Graphics/SVG/1.1/DTD/svg11.dtd">
<svg width="411" height="596" version="1.1" xmlns="http://www.w3.org/2000/svg">
	<title>宮崎県行政区画地図 (2010年3月23日)</title>
	<desc>Author: Lincun</desc>
	<rect fill="#eeeeee" x="0" y="0" width="411" height="596"/>
	<g stroke="black" stroke-width="0.2" stroke-linejoin="round">
		<path fill="#cccccc" d="M-1 91l1-1 1 3 2 1-3 2 1 6-2-2v178v1l1 4 14 11 7 2 5-3 2 5 4-2 1 2 3-2 5 1h8l4 2 2-3 4-2 6 3 7-8 6-2 1-2h4l1 3h4l1 3 4-1 3 1 6-2 1-6 6-5-1-3 5-5 2-1 3 2 5-1 7 6 4-2 8 3 4-3-2-6 1-6-4-5h-3l-2-6-3-1 1-5-5-3h-3l-2-5 4-3v-8l8 2 8-11 1-4 2-3-1-2-5-6-6-3 2-6-4-4 2-3-2-6h-8l-6-10-2-6-1-5 1-4-3-6v-10l6-2-2-11 1-1 5-1 1-9 3-3 13 3h4v-4l5-4-1-8 1-3-2-4 1-1 7-8 1-5 3-1 4 3h4v-7l1-9 5-5 7-2 6-5-1-3 4-5-3-5 3-3v-4l3-3v-4l3-1v-3l3 1 4-3 2 2h6l5-2h1l-5-7-6-2-3-4-4-2v-4l-3 1-1-2h-196zM195-1l1 2 3-1v4l4 2 3 4 6 2 5 7h3l2 2 1 6 3 3 13-4 7 1 5-7 9-1 3-2 4 6 5 3v1l5 4-3 10 9 6 9 1 1 1 4-3 4-6 25 3 8-2h5l1-6 5-4 1-7 1-6 10-2 6 2 2 4 2-1 2 1 6-3 3 4 4 1 3-2 1 1v7l-5 10 2 8-2 3 1 4 7-2 6-2-1-1-4-1 3-4v-1l-4-3 1-1 2-2-1-3 2-1 3 7 1 3v-1l1-4-4-4 1-5 1-1h2l-1 1h2l-1 2 1 1-1 3h2l1-2 1-1 3 3v-4l2-2v3l2 3 3-1v-36zM409 61v-2h-3l2 1-2 1 1 2zM406 42l1-1-3-2h-2v2l1 1zM144 597v-6l1-1-1-1h-2l-7-3-11-4-9-3 2-14 5-9 8-10 8-6 3 2 1-5 2 1 1-4 3 1 6 2 1 3 2-3 3 1 2 2 3-15 10-6-1-12-2-4 3-2v-2l2-4-2-5-4-5 1-6-7-4-1-3-5 4-7 1-1-1h-3l-12-12-2 1-3 6-3 4-3-8-6-5 1-3h-2l1-3-1-4 2-2-5-6 1-4v-9l-6 1-3-2h-3v-4l4-4-2-3h-2l-3-2-1 1-12-2-4-7-3 2-8-2-2-4v-5l2-1-3-4 5-2-1-5 3-7 2-2 4-1h-6l-4-13-7-5-4-2-10-1h-1l-5-3 1-4-2-5-4-2-2-14-5-3-1-4-4-1v-2l-3-2-11-4v-5v-3l4-3 2-6-7-2-14-11-1-4v-1v161l2-1h4l5-2 5 3h4l6 7h10l5 2 1-2 3 2 2 3-1 2 3 1 2 4 3 6v4l-7 7-2 7-3 4 1 6-4 5-5 5-9 1h-9l5-2v-1h-1l-2-1 1-3-2-1v-1l3-2-1-3-2-2 3-1-3-3-4-5h-1l-2 1-2-3-2 1-2-1-4 1v28h1l2-1 2 2 1-2v2l1 2 2-2h2l-2-1h4l-1-1h2l2 3v5l-3 1v14l-2 2 2 10 11 4 3 4 5 6 1 5h1l5 12 1 2-1 2 3 3 1 2 1 4 3 4-2 8-1 2zM118 577h4v-2l-1-3h-4v5zM147 552l2 2-1-3z"/>
		<path fill="#f6bad3" d="M223 576l1-2-6-5v-5h4l-1-5 4-2 4-2 2-3-1-7-2-3v-5l5-4 4-2-1-2h-1v-2l-1 1 1-2v-2l-4-1 1-3-1-2h2l2 2 1-4h-2l-1-3h2l2-4-2 1 1-2h-2l1-5h4l-2-2 2-1v-3l1-2h1l-1-1h2l1 3-2 1h1v3l2-2v-4l-1-3 4-8 11-7 2-2-3-3 2-2h3v-3l-3-2 1-2v-2h-3l1-2-2-3 6-2-1-2-3-1 1-2 1-1-1-2v-4h1l2-1-2-5 3-3-1-4 1-2h2l3-10-2-1-4-4 1-2-2-1-4-4-1-6 1-15 2-1h1v-2h-1l-1-3 4-10 5-3-4 4-2-1v-4l3 2-1-3-2 1 2-1h-1v-3l1 1-1-2 10-37-3-4-13-3-2-2v-1l-2 1-2 2-1-2-2-1-1-3-2-1 3-4-1-3-3 3-1 2v-2l4-8 6-6 2-3v-3l2-2-6-2-3-6-3-1-1-7-3-2-3-10-7-7-4-4-2-6v-2l2-1-2-3-5-2-3 1-8-8-5-4h-2l-5-3-4-4-5-1-4 2-8-6h-3l-4 6-1 5 7 2 2 3v2l8 7-2 6 4 5 6 12 9 1-1 3-3 1 5 7-2 1h-3l-4 5-3-1-2 1-6-2-2 2-1 6h-5l-2 2 1 5 4 4 2-1h2l6 8 4 2h6l6 10 8 4 2-1 3 5 6 8 6 1 3 3h4v4l-3 4 1 2-2 9-4-4-3 1-1-2-5 2-2 4h-3l-4-2-4-4h-7l-7 2-8 2-3-9-6 3-7-3v2l-2-1-1-1v-5l-5-6 3-1-1-7 4-3v-4l-3-4 8-4-2-5 1-4-3-8-1-2-4-1-1 2-1-2h-5l-1-3h-3l-4-6-4 3-8-3-4 2-7-6-5 1-3-2-2 1-5 5 1 3-6 5-1 6-6 2-3-1-4 1-1-3h-4l-1-3h-4l-1 2-6 2-7 8-6-3-4 2-2 3-4-2h-8l-5-1-3 2-1-2-4 2-2-5-5 3-2 6-4 3v3v5l11 4 3 2v2l4 1 1 4 5 3 2 14 4 2 2 5-1 4 5 3h1l10 1 4 2 7 5 4 13h6v-8l1-3 1-2 8-2 2-3 5 1 1-8-1-1 5-8 3 5h2v4l4 4 2-1v-3l1 1 3-2 4 2v-2h1l4-1 7 5 1 3h2v3l5 2-2 5-4 1-6-3h-3l-6-5-3-1-2 5 1 2h-2l-7 12-5 1-11-4-4 2-7-1-4 1-2 2-3 7 1 5-5 2 3 4-2 1v5l2 4 8 2 3-2 4 7 12 2 1-1 3 2h2l2 3-4 4v4h3l3 2 6-1v9l-1 4 5 6-2 2 1 4-1 3h2l-1 3 6 5 3 8 3-4 3-6 2-1 12 12h3l1 1 7-1 5-4 1 3 7 4-1 6 4 5 2 5-2 4v2l-3 2 2 4 1 12-10 6-3 15v1h3l2 3h1l1-2 7 1 2 2v2l4 2 2 5 2-2 3 1 1 3-3 2v3l2 6 4 4h3l3-1h3l3-3 2 2 4-2 2 6 1 2 5 3zM231 544l1 1 1-3zM236 534l1 2v-3zM248 525zM244 515l1-5-2-1-2 5 3 5 2 2zM157 461l-3-3h-3l-3-8-7-5 2-5-2-2h4l-2-1v-2l3-5-2-4 3-4h2l1-1 5 5-1 1 4 3 1 4 7 2 5-8 1-1 5-1v-3l3-1 2-4h2l2-6h2l-1 6 2 2h4l3-1 2 4-1 5-2 8-7 1-2 6-3 1h-4l1 1-2 1-10 5-6 9zM290 219l5 4 2-5 3 1v2l1-2 8-12-1-1 2 1 1-2h2v-3l-2-3 2-4 3-2-2-3 3-8 1-2 3-1-1-1h3l1 1 3-2 4-1-1-1 2-1h-3l-1 1-2-3h-5h8l1-3h-1l-1-3v-4l-1 7-1-1h-3l2-1-1-3-4 6-3-2 5-3-2-1 1-2-1-1h-7l-3-3-3 2-2-4-5-2-2 4h-1v3l-4 5h-6l-3 3-1-3h-3l-5-2-1-2-10 2v3l2 1-1 10-2 5h-6l-3 3-12 1-3 10-4 1-2 2h-3l-4-4h-2l-1 4-1-1-1 3-1 6 1 2 2-1 7 4v2h-2v3l6-3 14 4 6-3 5 2 1-2 3-2 4 4v4l2-1 2 2 8-5 2-4 7-2 2 1zM345 146l-6-2v-5l1-1h-3l-2 1 1 4-1-2-1 2 1-2-3-1 1 2h-2v2h-2l1-5 2-2-2-4v-5l3-8 5-8 3-2h4h4l2-3 3-2-1-2h2l1-6 3-3-1-4-3 3-1-2v3v-2l-2-3 4 2 1-3-1-1h2l-2-1-1-1h2l1 1 2-7h3v4l2-1v-5h1l6-3h1v-2v-4l1-1h3h-1l4 5h2l1-2 1 1 1-1-1-1-2-4 1-5 3 1 2 2v-3l-1-1-1-2 2-1h4v-2l3-3-6 2-7 2-1-4 2-3-2-8 5-10v-7l-1-1-3 2-4-1-3-4-6 3-2-1-2 1-2-4-6-2-10 2-1 6-1 7-5 4-1 6h-5l-8 2-25-3-4 6-4 3-1-1-9-1-9-6h-5l-1 2-2 3 2 2v3l-3 4 2 5-2 5-8 7-2 8-5 4 2 2-1 5 1 1-1 2 4 3 1 5-1 11v3h-2l-1 3-3 3v2l8-1h2l4-3h3l7 3 7 7 1-1 6 3 5-2v-2l3-1 3 1v3l3 4 4-3 2 2 2 5 4-2 4 1 7 4 2 4h2l2 2 9-2 2 1 4-1zM376 85l1-3h2v-2l-2 1-4-2-3 1 2 2h-2l2 2 1 1zM365 83zM368 80zM370 77zM381 75l2 1-1-2z"/>
		<path fill="#ece3b4" d="M178 446l2-1-1-1h4l3-1 2-6 7-1 2-8 1-5-2-4-3 1h-4l-2-2 1-6h-2l-2 6h-2l-2 4-3 1v3l-5 1-1 1-5 8-7-2-1-4-4-3 1-1-5-5-1 1h-2l-3 4 2 4-3 5v2l2 1h-4l2 2-2 5 7 5 3 8h3l3 3 5-1 6-9zM123 362l6 5h3l6 3 4-1 2-5-5-2v-3h-2l-1-3-7-5-4 1h-1v2l-4-2-3 2-1-1v3l-2 1-4-4v-4h-2l-3-5-5 8 1 1-1 8-5-1-2 3-8 2-1 2-1 3v8l7 1 4-2 11 4 5-1 7-12h2l-1-2 2-5zM235 328h-4l-3-3-6-1-6-8-3-5-2 1-8-4-6-10h-6l-4-2-6-8h-2l-2 1-4-4h-1l-6 1 3 8-1 4 2 5-8 4 3 4v4l-4 3 1 7-3 1 5 6v5l1 1 2 1v-2l7 3 6-3 3 9 8-2 7-2h7l4 4 4 2h3l2-4 5-2 1 2 3-1 4 4 2-9-1-2 3-4zM272 322l6-20 5-12 3-14v-1l9-30 1-5-1-1 1-4 5-16-1 2v-2l-3-1-2 5-5-4v-6l-2-1-7 2-2 4-8 5-2-2-2 1v-4l-4-4-3 2-1 2-5-2-6 3-14-4-6 3v-3h2v-2l-7-4-2 1-1-2 1-6 1-3 1 1 1-4h2l4 4h3l2-2 4-1 3-10 12-1 3-3h6l2-5 1-10-2-1v-3l10-2 1 2 5 2h3l1 3 3-3h6l4-5v-3h1l2-4 5 2 2 4 3-2 3 3h7l1-3 2-1-1-2 1-4h2l1 3 2-2h2l-1 3 2 2 4-1v-1l3-2 1-1h2l-1-3 2 1 2-2 1-2-4 1-2-1-9 2-2-2h-2l-2-4-7-4-4-1-4 2-2-5-2-2-4 3-3-4v-3l-3-1-3 1v2l-5 2-6-3-1 1-7-7-7-3h-3l-4 3h-2l-8 1v-2l3-3 1-3h2v-3l1-11-1-5-4-3 1-2-1-1 1-5-2-2 5-4 2-8 8-7 2-5-2-5 3-4v-3l-2-2 2-3 1-2h5l3-10-5-4v-1l-5-3-4-6-3 2-9 1-5 7-7-1-13 4-3-3-1-6-2-2h-3h-1l-5 2h-6l-2-2-4 3-3-1v3l-3 1v4l-3 3v4l-3 3 3 5-4 5 1 3-6 5-7 2-5 5-1 9v7h-4l-4-3-3 1-1 5-7 8-1 1 2 4-1 3 1 8-5 4v4l2 6 3 2h3l2-2h8l3-3 2-11h7l3 5 5-3 3 2 3-2 4-6 1-8-1-4 4 1 14 4h2l4 8 3-2 6 2-1 5 3 4-1 3h2l2 5-2 2 1 7 4 1 4 4 2 8 4 4v2l-3 5-6 2-1 3h-2v-5l3-5-2-1-3 1v-2l-4-3h-5v-2l-3 1-2-2-2 3 2 4-1 1-3-3h-3l-2-4-2 2-2-2-2 1-2-1 3 7 4 6 1 6-16 6 1 11 3 3-4 6-8 4-2 3-7-1v6l3 4-2 3 8 6 4-2 5 1 4 4 5 3h2l5 4 8 8 3-1 5 2 2 3-2 1v2l2 6 4 4 7 7 3 10 3 2 1 7 3 1 3 6 6 2-2 2v3l-2 3-6 6-4 8v2l1-2 3-3 1 3-3 4 2 1 1 3 2 1 1 2 2-2 2-1v1l2 2 13 3zM325 158v1l1-3z"/>
		<path fill="#b6f2dc" d="M172 285h1l-1-5 2-2h5l1-6 2-2 6 2 2-1 3 1 4-5h3l2-1-5-7 3-1 1-3-9-1-6-12-4-5 2-6-8-7v-2l-2-3-7-2 1-5 4-6h3l2-3-3-4v-6l7 1 2-3 8-4 4-6-3-3-1-11 16-6-1-6-4-6-3-7 2 1 2-1 2 2 2-2 2 4h3l3 3 1-1-2-4 2-3 2 2 3-1v2h5l4 3v2l3-1 2 1-3 5v5h2l1-3 6-2 3-5v-2l-4-4-2-8-4-4-4-1-1-7 2-2-2-5h-2l1-3-3-4 1-5-6-2-3 2-4-8h-2l-14-4-4-1 1 4-1 8-4 6-3 2-3-2-5 3-3-5h-7l-2 11-3 3h-8l-2 2h-3l-3-2-2-6h-4l-13-3-3 3-1 9-5 1-1 1 2 11-6 2v10l3 6-1 4 1 5 2 6 6 10h8l2 6-2 3 4 4-2 6 6 3 5 6 1 2-2 3-1 4-8 11-8-2v8l-4 3 2 5h3l5 3-1 5 3 1 2 6h3l4 5-1 6 2 6 4 6h3l1 3h5l1 2 1-2 4 1 1 2z"/>
		<path fill="none" stroke-linecap="round" d="M66 360l5-11 5-4-1-6-3-1 1-9-1-3 3-6 8 1 2 1 8-6 1-4 2-4 4-2v-2h2v-15M250 315h-2l-2-3-5-2-3 6 1 1-4 6 1 2-1 3M188 412v-4l-6-7 4-5h3v-4h-2l1-3 3 1 2-2-2-2 2-4-2 1-1-2 2-3-3 1-1 3-7-1-4 6-3-2-2-4v-9l3-6 4 3 3-3-2-4-2-1v-2l-3-1-2-3 2-6 2-1 1-2-1-1 1-2-1-1h-2l-1-2M175 358l-8-2-1 2-6 1v-2l-7-1-9 6-2-3h-3M262 441l-3-3h-9l-3-2-4-6h-4v-7h-4l-2-4-1 1-1 2h-6l-3-2h-3v-2h-2l-7 1v5l-6 1-6-2M162 460l3 1 4 7 5 2 2 3 4 2v2l3 2 5-2 5 5v10l1 4 4 1v1l1 1-3 4 5 3-1 6 4 2-1 7 4 2-1 2 2 3 2-2 3 2 3-3 1 2 7 2 4-1 5 1 1-1M176 473l-3 7-1-1M248 525M211 96v-1l4-15 2-2-4-7 1-4h2l3 3 7-1 3-5 4-1 7-9v-6l4-13 2-8M197 92v-11l-3-1-2-2-4 2-1-3-3-2 7-4-6-4 7-4 2-7-3-3-4-1M249 122l-3-1-4 1-4-3-5 3-2-1M280 130l-1 1 3 6-3 5 2 5-7 3 1 11-1 1M221 210l-6 3h-4l-2 2-6 3M295 245l-2 2 1-2h-4l-2-1-1 2-3 2-2-1 1-2 2 2 1-2-2-2-18-3-1-2h-2l-1-3h-3l2 3-1 3-8 2 2 4v7l1 7 5 1 4 4 2 6v-1l3 3 7 2 2-6 6 6 2-1M248 219v7l3 11-2 3 3 3M269 274l-2 3-2-1-1 3-5 3-1 3-4-1M198 342l3-4-2-2 1-4-7-10h-4l-8-8-4-13-4-4-1-7v-5M278 302l-4-3-1-4-2-1-7 1-4-3-1-4-5-1M201 143v-2l-2-5-9 1-4-3-4 1-2-8 1-7-3-4-1-3 1-1M167 217l-2 4-4-4-9 2-3-4-5 2"/>
		<path fill="#eeeeee" d="M32 41h-2l2 3 1-2zM82 96v1h2l2-4h9l-7-1zM119 214l1-1 3 2-2-3-3 1-2-10-1 5 2 4-2 2zM193 244v3l-1 1 2 1v2l2 1 4-1 2 2-2 1v4l-8-1 2 4h-3l-1-2-2 2v2l2-3 2 3 1-2 1 1 1-4 1 2 4-1 3-6 1 5h2l-1 1 3-2v-1l-3 1v-5l-2-1 2-4-3 4 1 2-2-3h-2v-3l-1 4-2 1-3-4 1-1zM148 351l3 2 1 2-1 1h2h-3l1 1-1 1-3-1v-1l-3-2 2 3 3 1-4 2 1 1h-1l-3-3-5 1-3-5 3 5h4l2 3 3 1v-3l2 1v-2l3-2v2l2-3 3 1-2-2-2 1 1-2-4-3v-2zM138 308l2 2-1 2 4-1v3l3-2 4 1-2-2h-2v-1l-2 1v-2l-3 2-1-2zM217 198l1 2-2 2v1h-3v-2v2l-2 2h-2l1 1 4-3 1 3v-1l2-1v-2l2-1 3 1v-2l-1 1zM194 146v2l1-4 3 1 1-3 7 3 2-2-1-1-2 1-6-2-2 3h-2zM151 158l1 1h3l3 1-2 2v3l-6 6 5-5h1l2-5 2-1-3-2 1-1-4 1-2-1-1-4-1 2h-3l-3-5h-3l3 1 1 3h1l-1 1h4v2l2-1zM61 516h-2l2 2 3 1 1 3 1-1-1-3z"/>
	</g>
	<g>
		<rect fill="white" opacity="0.75" x="4" y="4" width="178" height="36"/>
		<rect fill="black" x="8" y="8" width="170" height="8"/>
		<text fill="black" text-anchor="middle" font-size="24" font-family="sans-serif" x="93" y="36">50km</text>
	</g>
</svg>