<?xml version="1.0" encoding="UTF-8" standalone="no"?>
<svg
   xmlns:dc="http://purl.org/dc/elements/1.1/"
   xmlns:cc="http://creativecommons.org/ns#"
   xmlns:rdf="http://www.w3.org/1999/02/22-rdf-syntax-ns#"
   xmlns:svg="http://www.w3.org/2000/svg"
   xmlns="http://www.w3.org/2000/svg"
   xmlns:sodipodi="http://sodipodi.sourceforge.net/DTD/sodipodi-0.dtd"
   xmlns:inkscape="http://www.inkscape.org/namespaces/inkscape"
   width="484"
   height="538"
   version="1.1"
   id="svg34"
   sodipodi:docname="Map_of_Miyagi_Prefecture_Ja.svg"
   inkscape:version="1.0 (4035a4fb49, 2020-05-01)">
  <metadata
     id="metadata40">
    <rdf:RDF>
      <cc:Work
         rdf:about="">
        <dc:format>image/svg+xml</dc:format>
        <dc:type
           rdf:resource="http://purl.org/dc/dcmitype/StillImage" />
        <dc:title>地図 ナンバープレート 宮城県</dc:title>
      </cc:Work>
    </rdf:RDF>
  </metadata>
  <defs
     id="defs38" />
  <sodipodi:namedview
     inkscape:document-rotation="0"
     pagecolor="#ffffff"
     bordercolor="#666666"
     borderopacity="1"
     objecttolerance="10"
     gridtolerance="10"
     guidetolerance="10"
     inkscape:pageopacity="0"
     inkscape:pageshadow="2"
     inkscape:window-width="1920"
     inkscape:window-height="1017"
     id="namedview36"
     showgrid="false"
     inkscape:zoom="1.5613383"
     inkscape:cx="205.22366"
     inkscape:cy="267.67217"
     inkscape:window-x="-8"
     inkscape:window-y="-8"
     inkscape:window-maximized="1"
     inkscape:current-layer="layer1" />
  <title
     id="title2">地図 ナンバープレート 宮城県</title>
  <desc
     id="desc4">Author: Lincun</desc>
  <rect
     fill="#eeeeee"
     x="0"
     y="0"
     width="484"
     height="538"
     id="rect6" />
  <path
     style="stroke:#000000;stroke-width:0.2;stroke-linejoin:round"
     id="path8"
     d="m 485,9 -1,2 -2,-2 -1,2 -1,-3 v 2 -2 l -2,-1 1,-2 4,-5 V -1 H 186 l -1,1 1,5 -4,4 -2,5 -4,3 1,3 -2,2 3,5 1,3 v 5 l 6,-3 h 10 l 4,3 1,3 8,4 5,5 h 7 l 3,1 1,4 2,1 1,-3 2,1 10,5 3,5 v 2 l 4,4 v 2 h 2 l 2,-2 5,-1 3,-2 v 2 l 3,-1 2,3 h 2 l 3,-3 7,2 6,-3 3,1 1,3 4,-2 7,2 2,3 v 6 l -7,8 -4,-1 h -2 l -1,3 1,3 h 3 l 3,-1 v 4 l 6,2 -1,9 2,2 4,1 3,2 4,-3 8,6 1,5 2,4 h 6 l 1,-2 h -2 l 9,-4 -1,-4 2,-3 v -3 l 2,-1 v -2 l 2,-1 2,2 2,-2 6,1 v -5 -5 l 4,-2 5,7 6,-3 6,2 3,5 3,-2 2,1 1,4 5,1 -1,8 3,-2 v -3 l 6,-1 v -2 l -2,-2 1,-6 -2,-2 h 8 l 1,-1 -2,-2 -1,-7 2,-5 3,-4 -4,-2 -1,-6 5,-4 v -3 l 4,-3 5,-5 -2,-8 2,-10 -1,-2 -2,-7 v -1 l 3,-8 5,-1 h 3 l -1,2 2,2 8,-2 h 6 l 3,4 4,-1 7,3 4,4 3,1 -2,-5 1,-3 -2,-2 h 2 l -1,-2 1,-2 7,-1 3,1 -1,1 h 1 l 3,-2 4,3 -4,4 v 3 3 l 3,2 3,2 v 3 l 2,1 -2,2 1,2 2,-1 v 3 l 2,1 1,-1 v -2 h 3 l -1,-2 4,-1 1,-1 -3,-4 -2,-2 -3,2 -2,-2 v -1 l 1,-2 3,-1 v -2 l 2,1 h 1 l -1,-2 -1,-4 h 2 l 2,2 -1,1 2,-1 1,1 z m 0,-6 z m 0,1 -1,1 1,3 z M -1,3 h 1 l 4,2 6,-1 1,1 4,-3 8,3 2,4 6,2 2,-7 4,-2 v 1 l 4,3 h 6 l 2,9 2,4 h 2 l 4,1 6,-1 v 2 l 6,-1 6,8 1,8 -1,3 4,11 3,2 3,-1 3,6 1,2 1,1 13,-2 3,5 2,5 4,1 4,-3 2,1 2,-4 2,1 h 3 l 2,-3 8,4 2,-2 9,-3 4,-9 5,-2 2,1 5,-5 3,-6 8,-4 h 6 v -5 l -1,-3 -3,-5 2,-2 -1,-3 4,-3 2,-5 4,-4 -1,-5 1,-1 H -1 Z m 0,530 h 2 l 2,-1 6,-9 6,-5 3,-4 v -3 l 5,-4 -6,-5 -3,-1 -2,-6 1,-10 1,-2 -2,-8 2,-1 -2,-10 1,-2 4,-7 1,-3 -2,-2 1,-2 -2,-6 3,-4 -2,-2 1,-6 4,-5 -5,-9 3,-8 -2,-3 2,-1 6,2 4,-2 9,2 h 3 l 1,-2 6,1 3,-3 v -3 h 7 l 5,-4 1,-3 -2,-6 3,-5 1,-3 6,-3 -1,-3 1,-3 4,-4 3,-1 1,-6 3,-4 -1,-8 -2,-5 1,-5 -2,-3 1,-1 v -6 l 1,-1 -1,-2 1,-6 5,-1 3,-4 -2,-8 3,-1 1,-4 5,2 3,-4 -2,-12 2,-5 6,-1 2,-5 3,-1 5,-6 -2,-8 3,-4 v -6 l 2,-2 h 2 l 1,2 2,-2 4,-5 h 2 v -1 l -4,-1 -1,-10 -6,-3 -4,-2 -2,-3 v -2 l -1,-2 2,-1 -1,-2 1,-3 -5,-1 v -4 l 3,-3 2,-4 -1,-2 4,-3 -4,-10 1,-1 -4,-1 1,-4 -3,-3 -4,-7 -1,-2 3,-6 6,1 2,4 6,2 4,-3 1,-6 5,-9 1,-6 v -3 l -5,-2 v -7 l 4,-4 v -3 l 4,-4 1,-5 4,-4 -3,-3 -4,1 -7,-4 -3,-7 1,-10 -1,-1 -1,-3 -8,-5 h -2 l -1,-3 -6,-4 3,-10 -3,-5 -13,2 -1,-1 -1,-2 -3,-6 -3,1 -3,-2 -4,-11 1,-3 -1,-8 -6,-8 -6,1 v -2 l -6,1 -4,-1 H 51 L 49,15 47,6 H 41 L 37,3 V 2 L 33,4 31,11 25,9 23,5 15,2 11,5 10,4 4,5 0,3 h -1 z m 255,6 v -7 l -3,-6 -3,-2 -1,-16 v -6 l -3,-3 1,1 h -1 l -1,1 3,2 -1,13 v 4 l -5,-4 1,-3 v -4 h 1 v -5 h -5 v -1 l -2,1 2,-2 5,1 1,-3 -1,-1 -2,1 -1,-4 v 3 l -1,-1 -1,-3 1,-1 -2,1 -1,-6 2,-1 v -1 l -3,2 -2,-3 -3,-13 v -1 l -4,1 -1,-2 h -5 v -3 l -13,5 -2,1 2,5 -2,2 2,4 -1,3 -2,3 1,3 -1,5 h 1 v 4 l 1,2 -1,1 1,4 -1,2 -1,1 h -4 l -6,-1 -4,1 -7,-3 -4,-1 -1,2 -2,2 2,-1 7,7 3,1 -3,2 -6,-3 -10,-3 -6,3 -1,-5 -3,-3 -6,-1 v -1 l -3,-4 v -6 l -2,-3 4,-6 -2,-9 h -1 l 2,-6 -7,-3 -2,-2 -5,2 -6,-2 -3,-5 -1,-1 -5,3 -5,-1 -6,-6 v 4 l -3,2 -8,2 -3,-2 -2,2 -4,-1 -2,3 h -3 l -1,-1 -4,-5 -2,-10 3,-4 -5,-2 h -4 l -1,-2 -5,1 -7,-4 v -4 h -3 l -4,4 v 5 l -4,-1 h -1 l -4,-2 -1,3 -6,-1 -1,1 -2,-3 h -4 v -2 h -2 l -2,-2 -2,-1 -5,-2 -3,4 2,6 -1,2 2,2 -1,3 -4,7 -1,2 2,10 -2,1 2,8 -1,2 -1,10 2,6 3,1 6,5 -5,4 v 3 l -3,4 -6,5 -6,9 -2,1 h -2 v 6 z"
     fill="#cccccc" />
  <path
     style="stroke:#000000;stroke-width:0.2;stroke-linejoin:round"
     id="path10"
     d="m 239,357 3,-9 8,-14 9,-14 h 7 l -15,-2 v -1 h 7 l 3,-1 h 4 l -1,1 1,-2 -2,-2 -1,1 -3,-2 -4,3 -1,-1 -1,-1 -14,-2 -2,-4 1,-4 1,-1 -2,-1 1,-1 -1,1 -3,1 -3,-3 1,-9 -2,-1 -3,1 1,2 -4,-2 -2,1 -9,-6 -2,-4 -4,-1 -5,2 -2,4 h -3 l -1,-2 2,-1 v -2 l -4,-1 1,-5 -5,-5 -1,-3 -8,-3 h -1 l -8,-4 -4,-1 1,-1 -5,-5 -1,-2 -3,-1 -2,4 -5,4 v -4 l -4,-1 -4,-2 h -4 l -2,-2 h -3 l -5,-4 -2,-3 h -2 l -4,5 -2,2 -1,-2 h -2 l -2,2 v 6 l -3,4 2,8 -5,6 -3,1 -2,5 -6,1 -2,5 2,12 -3,4 -5,-2 -1,4 -3,1 2,8 -3,4 -5,1 -1,6 1,2 12,-3 h 8 l 2,-2 2,1 5,-2 7,1 h 7 l 15,7 1,1 -2,2 h 7 v 2 l 5,2 -1,2 9,3 8,4 3,5 -1,6 2,1 h 2 v 1 l 7,-1 5,2 4,-4 3,-1 -6,-3 v -1 l -3,-4 -1,-3 2,-2 h 2 l 1,2 3,1 3,-3 7,3 8,3 -1,4 h 1 l 1,3 9,-1 3,2 -1,-2 h 1 v 2 l 10,1 -2,-4 2,-2 1,2 z"
     fill="#dcb6f2" />
  <path
     style="stroke:#000000;stroke-width:0.2;stroke-linejoin:round"
     id="path14"
     d="m 182,510 7,3 4,-1 6,1 h 4 l 1,-1 1,-2 -1,-4 1,-1 -1,-2 v -4 h -1 l 1,-5 -1,-3 2,-3 1,-3 -2,-4 2,-2 -2,-5 2,-1 13,-5 v 3 h 5 l 1,2 4,-1 -3,-9 -2,-31 2,-17 h 2 -2 v -5 l -5,-4 1,-8 -7,-8 h -5 l -4,5 -4,1 -4,-2 -2,-5 h -2 l 1,-10 -2,-2 h -5 l -3,2 -5,-2 -1,-1 3,-3 1,-4 2,-1 -1,-11 -5,-2 -7,1 v -1 h -2 l -2,-1 1,-6 -3,-5 -8,-4 -9,-3 1,-2 -5,-2 v -2 h -7 l 2,-2 -1,-1 -15,-7 h -7 l -7,-1 -5,2 -2,-1 -2,2 h -8 l -12,3 -1,1 v 6 l -1,1 2,3 -1,5 2,5 1,8 -3,4 -1,6 -3,1 -4,4 -1,3 1,3 -6,3 -1,3 -3,5 2,6 -1,3 -5,4 h -7 v 3 l -3,3 -6,-1 -1,2 h -3 l -9,-2 -4,2 -6,-2 -2,1 2,3 -3,8 5,9 -4,5 -1,6 2,2 5,2 2,1 2,2 h 2 v 2 h 4 l 2,3 1,-1 6,1 1,-3 4,2 h 1 l 4,1 v -5 l 4,-4 h 3 v 4 l 7,4 5,-1 1,2 h 4 l 5,2 1,-3 9,2 6,-6 h 2 v -4 l -4,-7 v -4 l 1,-1 -3,-3 v -6 l -6,-6 -2,-10 -5,-7 2,-4 3,1 5,-2 12,-1 5,8 5,-4 5,1 4,-2 2,1 3,9 9,6 1,4 1,3 3,-4 5,3 h 7 l 2,-1 2,2 v 5 l 2,-2 4,-2 2,1 5,-2 2,-3 7,1 5,-3 1,1 3,-3 3,-1 v -4 l 4,-6 2,7 v 13 l 3,6 1,9 4,11 -1,12 2,4 -1,4 -1,2 -7,-8 -8,-1 1,4 h -1 l -1,-2 -5,-2 v -9 l -2,3 h -5 l -5,2 -5,-1 -1,2 -6,-1 -3,-2 2,-2 v -4 l -8,-2 -2,6 -1,2 -2,-2 -1,2 -11,3 -3,3 v 2 l 2,2 -2,2 -2,3 3,5 6,2 5,-2 2,2 7,3 -2,6 h 1 l 2,9 -4,6 2,3 v 6 l 3,4 v 1 l 6,1 3,3 1,5 6,-3 10,3 6,3 3,-2 -3,-1 -7,-7 -2,1 2,-2 1,-2 z m 97,-202 1,-4 -3,-1 -1,-6 h -4 l -2,3 h -3 v 2 l -1,-2 -3,3 v 1 l 2,7 h -2 l -1,3 1,-1 2,2 6,-2 4,-5 z m -30,-8 3,-5 -1,-1 4,-5 4,-4 v 4 h 4 l 1,-4 3,1 h 2 l -1,1 2,-1 -2,-1 h 2 v -1 h 3 l -2,-6 3,-2 1,-3 4,-1 4,1 -1,1 3,4 1,-4 h 3 l -3,-1 -1,-3 3,2 4,1 -1,-6 -3,-2 -1,2 -4,-6 h -2 l 2,-3 3,1 2,-1 4,-3 -4,-6 1,-3 3,-2 1,1 -2,2 2,1 v -1 l 14,-5 v -2 l -2,-1 v -5 l -2,-1 2,-2 1,-4 -2,-4 3,-6 1,-2 v -5 l 5,-3 2,-1 5,3 h 4 l 1,-5 v -2 l -2,-6 -6,-3 -4,-4 3,-5 -7,-4 -2,3 h -4 l -6,-3 -6,9 -5,-3 -8,5 v 5 l 5,2 v 2 h -2 l -5,-3 -6,1 v -2 l -3,-1 1,-2 -2,-1 2,-6 -8,1 -5,-2 v 2 l -3,-1 1,3 2,-1 2,1 -2,3 1,4 -3,-3 -3,-1 -1,3 1,3 9,5 -2,4 3,1 -1,3 2,1 6,-2 3,2 6,-1 1,2 6,1 -3,2 2,1 h 1 l 1,3 4,2 v 2 l 4,2 1,4 -1,7 -7,6 2,3 -4,1 -6,-3 -6,2 v 1 l -12,-1 4,-7 -7,-6 -2,1 -2,-1 -2,-7 -6,-4 -7,-1 -1,2 -2,2 1,2 2,2 -1,1 -1,2 3,3 v 2 l -12,-1 -3,3 v 2 l -2,1 v 1 3 h -4 l -5,-4 h -7 l -5,-2 -2,-3 -5,-1 -1,-2 h -4 l -4,-1 -2,-4 1,-3 7,-2 13,-4 5,2 h 4 l 2,-1 v -3 h 2 l -1,-1 v -7 h 2 l -1,-1 2,-3 1,-6 -2,-2 h 3 l 1,-1 -1,-2 -9,-5 -1,-4 2,-4 -3,-5 h -2 l -5,-7 -5,-4 -20,-22 -2,3 h -3 l -10,-10 -4,1 -1,3 h -2 l -6,-1 -2,4 -4,2 -2,-5 h -2 l -5,4 -3,-1 h -1 l -1,6 -5,9 -1,6 -4,3 -6,-2 -2,-4 -6,-1 -3,6 1,2 4,7 3,3 -1,4 4,1 -1,1 4,10 -4,3 1,2 -2,4 -3,3 v 4 l 5,1 -1,3 1,2 -2,1 1,2 v 2 l 2,3 4,2 6,3 1,10 4,1 v 1 l 2,3 5,4 h 3 l 2,2 h 4 l 4,2 4,1 v 4 l 5,-4 2,-4 3,1 1,2 5,5 -1,1 4,1 8,4 h 1 l 8,3 1,3 5,5 -1,5 4,1 v 2 l -2,1 1,2 h 3 l 2,-4 5,-2 4,1 2,4 9,6 2,-1 4,2 -1,-2 3,-1 2,1 -1,9 3,3 3,-1 1,-1 -1,1 2,1 h 6 z m 25,-4 1,-2 h -2 z m 130,-38 v -4 h -4 l 1,-3 -1,-2 -1,1 -1,-3 h -2 v -2 h 4 l 1,3 3,-1 v 1 l 2,-1 1,2 2,-3 2,2 v -2 h 4 l 1,-4 -3,3 v -2 l -2,1 v -3 l 2,-2 -8,-1 v -2 l 2,-1 h 2 l 2,-4 -8,-1 v -3 l -4,-1 -3,4 -3,1 -7,-2 -1,5 -4,7 1,4 -2,4 v 7 l 3,1 1,2 h 4 l 2,-1 6,2 1,7 h 2 l 1,3 h 4 l 5,-3 3,1 2,-3 v -2 h -1 l 1,-5 h -2 l -4,4 -4,4 -3,-1 3,-3 z m 39,5 v 1 h -2 l 1,1 h 2 z m -21,-21 -2,-1 1,-1 -1,-2 -3,-1 1,2 v 6 l 1,3 2,-1 1,1 1,-2 z m -30,-60 3,-2 v -2 h 3 l 6,-5 3,1 3,-2 4,4 5,-8 2,1 v -1 -2 h -3 v -1 l -3,1 v -1 l -1,1 -1,-2 h -2 v -1 l -2,1 -1,-1 -2,1 -6,-2 -2,3 v -1 h -3 l -2,-2 3,-4 -2,-6 2,-1 3,2 5,-4 2,2 3,-1 1,1 1,-2 -2,-4 h 1 l 2,-3 v 3 l 2,-1 1,2 3,-3 1,-5 -1,-1 2,-1 -1,-2 2,-1 2,2 v 3 l 1,-1 3,-1 3,2 -1,4 2,2 v -2 l 1,-1 1,-5 -3,-4 3,-3 -2,-1 2,-1 -1,-3 h -3 l -2,2 h -1 l 1,-2 h -4 l 1,-2 h 1 l -1,-2 -1,1 -2,-1 -9,3 -10,-4 -4,4 -5,-3 -3,4 h -6 l -1,2 -6,2 -1,3 -5,2 h -2 l 1,10 -1,2 h 3 l -1,5 4,1 -3,3 v 5 l 6,11 3,2 -1,6 3,-1 2,2 -3,3 3,2 3,1 z"
     fill="#ece3b4" />
  <path
     style="stroke:#000000;stroke-width:0.2;stroke-linejoin:round"
     id="path16"
     d="m 221,243 v -1 l 2,-1 v -2 l 3,-3 12,1 v -2 l -3,-3 1,-2 1,-1 -2,-2 -3,2 -1,-2 -1,2 -5,-2 -5,-2 -4,-7 h -2 v 3 l -2,1 h -4 l -5,-2 -13,4 -7,2 -1,3 2,4 4,1 h 4 l 1,2 5,1 2,3 5,2 h 7 l 5,4 h 4 z"
     fill="#b6f2dc" />
  <path
     style="stroke:#000000;stroke-width:0.2;stroke-linejoin:round"
     id="path22"
     d="m 132,-1 v 2 l 6,3 -5,-3 v -2 z m 246,250 -6,3 -1,5 10,2 3,-2 -2,-4 h 5 v -4 z m -99,-118 -3,1 8,5 8,-3 z m -75,-22 5,-3 -3,2 -3,-6 h -5 z m -127,327 10,5 4,5 3,-1 -4,-4 1,-4 -2,3 -6,-4 1,-3 v 4 z m 69,-90 -3,4 4,-4 4,2 -6,9 8,-11 -3,-2 -9,1 z m 77,67 -5,2 6,3 2,-3 z m -33,-159 2,2 4,-4 -2,-2 z m -35,-148 1,13 3,-7 z m 87,396 -7,2 h 7 l -2,12 5,4 1,-17 z"
     fill="#eeeeee" />
  <g
     id="g32">
    <rect
       fill="white"
       opacity="0.75"
       x="287"
       y="498"
       width="193"
       height="36"
       id="rect26" />
    <rect
       fill="black"
       x="291"
       y="502"
       width="185"
       height="8"
       id="rect28" />
    <text
       fill="black"
       text-anchor="middle"
       font-size="24"
       font-family="sans-serif"
       x="383"
       y="530"
       id="text30">50km</text>
  </g>
  <g
     inkscape:label="Layer 1"
     id="layer1"
     inkscape:groupmode="layer">
    <g
       transform="translate(7.4404211e-4,0.00223213)"
       style="stroke-width:0.2;stroke-miterlimit:4;stroke-dasharray:none;paint-order:markers fill stroke"
       id="g847">
      <path
         fill="#f6bad3"
         d="m 107,466 3,-2 v -4 l 6,6 5,1 5,-3 1,1 2,-3 2,-2 -2,-2 v -2 l 3,-3 11,-3 1,-2 2,2 1,-2 2,-6 8,2 v 4 l -2,2 3,2 6,1 1,-2 5,1 5,-2 h 5 l 2,-3 v 9 l 5,2 1,2 h 1 l -1,-4 8,1 7,8 1,-2 1,-4 -2,-4 1,-12 -4,-11 -1,-9 -3,-6 v -13 l -2,-7 -4,6 v 4 l -3,1 -3,3 -1,-1 -5,3 -7,-1 -2,3 -5,2 -2,-1 -4,2 -2,2 v -5 l -2,-2 -2,1 h -7 l -5,-3 -3,4 -1,-3 -1,-4 -9,-6 -3,-9 -2,-1 -4,2 -5,-1 -5,4 -5,-8 -12,1 -5,2 -3,-1 -2,4 5,7 2,10 6,6 v 6 l 3,3 -1,1 v 4 l 4,7 v 4 h -2 l -6,6 -9,-2 -1,3 -3,4 2,10 4,5 1,1 h 3 l 2,-3 4,1 2,-2 3,2 z m 119,-56 1,-9 5,-26 5,-13 1,-3 h 2 -2 v -2 h 1 l -8,-7 -1,-2 -2,2 2,4 -10,-1 v -2 h -1 l 1,2 -3,-2 -9,1 -1,-3 h -1 l 1,-4 -8,-3 -7,-3 -3,3 -3,-1 -1,-2 h -2 l -2,2 1,3 3,4 v 1 l 6,3 -3,1 -4,4 1,11 -2,1 -1,4 -3,3 1,1 5,2 3,-2 h 5 l 2,2 -1,10 h 2 l 2,5 4,2 4,-1 4,-5 h 5 l 7,8 -1,8 z m 186,-87 h -1 l -2,-1 v -5 l -3,-4 -6,-1 1,2 -2,2 v 2 h 3 l -1,1 h 2 l 1,2 2,5 h 4 l 1,-1 2,2 z m 26,-5 1,-2 2,-2 -2,-3 3,-7 -7,-3 1,-1 -1,-1 -7,5 1,3 1,3 4,4 z m -18,-1 1,-2 v -4 l 1,-6 h 3 l 1,-5 -2,-3 -3,-2 1,-3 2,-4 -4,-5 -2,-6 -7,-1 -2,1 -2,-2 v -3 l 7,-1 1,-3 h 2 v 1 l 4,-1 1,3 3,-3 v -2 -3 h -2 l -1,2 -5,2 -2,-2 h -1 l -2,3 -3,-1 -5,3 h -4 l -1,-3 h -2 l -1,-7 -6,-2 -2,1 h -4 l -1,-2 -3,-1 v -7 l 2,-4 -1,-4 4,-7 1,-5 7,2 3,-1 3,-4 4,1 v 3 l 8,1 -2,-4 1,-1 1,-3 h -2 l -2,-4 -4,-4 -2,3 1,-4 h 3 l 2,1 3,4 h 3 l 3,-2 1,4 v 5 l 3,-2 v 3 l 4,1 v -4 l 2,-3 -1,1 -2,-3 4,-6 -1,-1 -1,-3 h -3 v -2 l 1,-4 -3,1 -1,2 -2,-2 -2,2 v 3 l -2,-1 -2,1 -3,-3 v -5 l -2,-1 v -1 h -2 l 1,-2 -1,1 -5,-1 3,6 -3,3 -1,-1 1,-5 -1,-3 3,1 -1,-5 1,-4 h 1 l 3,-1 1,1 h 2 l 1,-2 v -2 l 4,-1 -1,-4 3,2 v -2 h 3 l 2,-4 1,-7 -2,-1 -5,8 -4,-4 -3,2 -3,-1 -6,5 h -3 v 2 l -3,2 -4,3 -3,-1 -3,-2 3,-3 -2,-2 -3,1 1,-6 -3,-2 -6,-11 v -5 l 3,-3 -4,-1 1,-5 h -3 l 1,-2 -1,-10 h 2 l 5,-2 1,-3 6,-2 1,-2 h 6 l 3,-4 5,3 4,-4 10,4 9,-3 1,-1 h -1 l -1,-2 -2,-1 v -2 l -1,-1 1,-9 6,-4 4,-1 2,-1 v -2 l -1,1 v -2 l 1,-1 h 3 l 1,2 2,-3 v -2 l 3,-2 1,1 2,-3 2,1 v -2 l -1,-2 -3,1 -2,-6 3,-17 -6,-7 4,-1 v 3 3 h 3 l 3,6 2,-3 1,2 v -2 l 2,-2 3,1 -2,-3 v -1 l 2,2 v -3 h 3 l -2,2 1,3 h 1 l -1,2 h 3 l -1,2 h 2 v 2 l 3,6 h 4 l 1,2 v -4 l -1,-1 v -2 l -3,-4 v -3 h 2 v -1 l -3,-3 -3,-5 1,-3 -5,-5 2,-1 v -2 l 2,-1 -3,-1 v -2 l -3,-3 h 4 l -1,-3 h -3 l 2,-2 -2,-1 -3,-1 -4,-4 -7,-3 -4,1 -3,-4 h -6 l -8,2 -2,-2 1,-2 h -3 l -5,1 -3,8 v 1 l 2,7 1,2 -2,10 2,8 -5,5 -4,3 v 3 l -5,4 1,6 4,2 -3,4 -2,5 1,7 2,2 -1,1 h -8 l 2,2 -1,6 2,2 v 2 l -6,1 v 3 l -3,2 1,-8 -5,-1 -1,-4 -2,-1 -3,2 -3,-5 -6,-2 -6,3 -5,-7 -4,2 v 5 5 l -6,-1 -2,2 -2,-2 -2,1 v 2 l -2,1 v 3 l -2,3 1,4 -9,4 h 2 l -1,2 h -6 l -2,-4 -1,-5 -8,-6 -4,3 -3,-2 -4,-1 -2,-2 1,-9 -6,-2 v -4 l -3,1 h -3 l -1,-3 1,-3 h 2 l 4,1 7,-8 v -6 l -2,-3 -7,-2 -4,2 -1,-3 -3,-1 -6,3 -7,-2 -3,3 h -2 l -2,-3 -3,1 v -2 l -3,2 -5,1 -2,2 h -2 v -2 l -4,-4 v -2 l -3,-5 -10,-5 -2,-1 -1,3 -2,-1 -1,-4 -3,-1 h -7 l -5,-5 -8,-4 -1,-3 -4,-3 h -10 l -6,3 h -6 l -8,4 -3,6 -5,5 -2,-1 -5,2 -4,9 -9,3 -2,2 -8,-4 -2,3 h -3 l -2,-1 -2,4 -2,-1 -4,3 -4,-1 -2,-5 -3,10 6,4 1,3 h 2 l 8,5 1,3 1,1 -1,10 3,7 7,4 4,-1 3,3 -4,4 -1,5 -4,4 v 3 l -4,4 v 7 l 5,2 v 3 h 1 l 3,1 5,-4 h 2 l 2,5 4,-2 2,-4 6,1 h 2 l 1,-3 4,-1 10,10 h 3 l 2,-3 20,22 5,4 5,7 h 2 l 3,5 -2,4 1,4 9,5 1,2 -1,1 h -3 l 2,2 -1,6 -2,3 1,1 h -2 v 7 l 1,1 4,7 5,2 5,2 1,-2 1,2 3,-2 -1,-2 2,-2 1,-2 7,1 6,4 2,7 2,1 2,-1 7,6 -4,7 12,1 v -1 l 6,-2 6,3 4,-1 -2,-3 7,-6 1,-7 -1,-4 -4,-2 v -2 l -4,-2 -1,-3 h -1 l -2,-1 3,-2 -6,-1 -1,-2 -6,1 -3,-2 -6,2 -2,-1 1,-3 -3,-1 2,-4 -9,-5 -1,-3 1,-3 3,1 3,3 -1,-4 2,-3 -2,-1 -2,1 -1,-3 3,1 v -2 l 5,2 8,-1 -2,6 2,1 -1,2 3,1 v 2 l 6,-1 5,3 h 2 v -2 l -5,-2 v -5 l 8,-5 5,3 6,-9 6,3 h 4 l 2,-3 7,4 -3,5 4,4 6,3 2,6 v 2 l -1,5 h -4 l -5,-3 -2,1 -5,3 v 5 l -1,2 -3,6 2,4 -1,4 -2,2 2,1 v 5 l 2,1 v 2 l -14,5 v 1 l -2,-1 2,-2 -1,-1 -3,2 -1,3 4,6 -4,3 -2,1 -3,-1 -2,3 h 2 l 4,6 1,-2 3,2 1,6 4,3 -2,5 2,-2 v 2 l 6,2 1,-4 4,-5 24,-12 6,-1 v -5 h 2 v 1 l 4,-1 v 2 l -4,2 h 5 l -1,3 3,-4 h 7 v 2 -2 h 3 l -1,1 6,1 -4,-2 9,-1 2,1 3,5 -2,5 2,2 h 5 l 3,-4 4,-5 2,5 2,-1 3,-2 1,1 -3,5 1,2 3,-1 1,1 -2,3 4,-1 4,1 -4,1 -1,2 -4,1 -2,3 h -3 l 1,1 1,2 -2,1 2,-1 v 2 l 3,-2 v 3 l 3,-1 2,-4 1,5 4,-4 1,6 1,1 h 2 v 2 l -2,3 -4,1 -2,1 2,1 4,4 1,-1 -1,-3 2,-2 -1,2 1,3 2,1 4,-1 2,1 -1,2 -1,3 1,1 4,-3 v 4 l 2,5 2,1 z m -36,-6 6,-3 -2,-1 -1,-4 -1,-3 -2,2 v 4 l -1,2 v 3 z m -121,-8 3,-5 -2,1 v -1 l -4,-1 2,-2 3,1 3,-4 -1,-3 -3,2 v -1 l -1,-1 h -4 v -4 l -4,4 -4,5 1,1 -3,5 -4,2 h -6 l -1,1 -1,4 2,4 14,2 1,1 1,1 4,-3 3,2 1,-3 h 2 l -2,-7 z m 45,-7 2,1 v -1 l -3,-1 -2,-3 1,-4 -1,-1 h -1 v -1 h 2 l -1,-2 -1,1 -1,-1 1,2 -1,-1 1,4 -2,-1 -1,-3 1,-1 -3,-2 -3,1 2,4 1,3 -2,-2 v 1 l -2,-1 -1,1 2,5 v 3 l 2,-2 -2,-2 2,-1 h 1 l -1,1 3,3 3,-2 4,3 z m -14,-5 v -3 l -2,1 1,-4 -3,4 1,2 -2,-1 v 2 l 2,2 1,1 v -2 l 1,-1 -1,-1 z m -8,3 -2,-3 h -5 v 2 l 4,-1 z m 3,-6 v 1 l -3,1 -1,-2 2,5 z m 1,-4 1,1 v -2 z m 97,-12 -1,2 h 2 l 1,-2 z m 64,-185 1,-4 h 2 l 1,-1 -1,-2 1,-1 h -2 l -2,-1 1,-2 -1,-2 3,-2 v -4 l -2,-2 -1,-2 -2,3 -5,1 v 2 l 3,2 -2,2 4,9 z"
         id="path12"
         style="stroke:#000000;stroke-width:0.2;stroke-linejoin:round;stroke-miterlimit:4;stroke-dasharray:none;paint-order:markers fill stroke" />
      <path
         style="fill:#f6bad3;fill-opacity:1;stroke:#000000;stroke-width:0.2;stroke-linecap:butt;stroke-linejoin:miter;stroke-miterlimit:4;stroke-dasharray:none;stroke-opacity:1;paint-order:markers fill stroke"
         d="m 230,262 2,21 -2,5 v 1 l -3,1 1,2 -4,-2 -2,1 -9,-6 -2,-4 -4,-1 -1,-5 4,-7 v -2 l 1,-2 -1,-3 -3,1 h -1 l 1,-2 3,-1 v -4 l 7,-4 3,1 -2,4 3,2 -1,1 v 2 l 2,-1 1,3 3,-1 3,1 z"
         id="path843" />
    </g>
  </g>
  <g
     inkscape:label="Layer 2"
     id="layer2"
     inkscape:groupmode="layer">
    <path
       style="stroke:#000000;stroke-width:0.2;stroke-linejoin:round;stroke-miterlimit:4;stroke-dasharray:none"
       id="path20"
       d="m 302,107 -2,9 2,6 2,6 -4,1 -2,2 -6,-3 -14,8 -4,8 -2,1 v 2 l -3,1 2,2 5,3 2,8 v 2 l 4,2 -4,5 -3,-1 -6,2 -16,-1 -4,-4 -1,-3 2,-3 -9,-7 1,-3 -1,-6 -1,-1 v -3 l -11,-8 -5,1 -6,-3 -3,1 h -1 l -8,-4 -8,1 -10,-8 -4,-5 -8,-3 -1,1 v 2 l -5,-3 v -2 l -3,-2 5,-6 -1,-8 1,-4 -1,-2 2,-2 -3,-2 v -2 l 1,-7 -2,-3 2,-4 -4,-8 v -1 l -4,-3 -6,-6 m 227,74 -2,-1 -3,-6 4,-4 m -101,52 5,-1 -1,6 2,2 3,1 5,5 4,1 3,4 m 77,-5 -8,8 -5,-1 -3,3 -5,3 -4,1 -2,3 -4,-2 -5,1 1,-10 -2,-4 h -4 l -2,1 v 7 l -9,5 -3,11 m 6,58 v -9 h 3 l 1,-3 -2,-4 -4,-1 -2,-4 v -5 l -3,-2 -1,6 -5,1 -2,2 -1,-1 -2,2 v -4 h -3 l -5,-1 m -42,65 h -3 v -3 l -5,3 h -3 l -3,-4 m -17,75 -7,-3 1,-1 -2,1 h -1 l 1,-2 h -4 l -3,8 -4,3 v 3 h -2 l 1,-1 -2,-4 v -2 h -2 l 1,-5 -1,-1 -1,3 h -3 l -18,-5 -1,-1 m -29,52 -1,3 -1,4 -3,1 1,6 -2,2 1,4 -2,2 m 159,-227 -8,4 -3,-2 -2,-1 -1,-5 -3,-1 -2,-2 -6,1 -11,-5 1,-2 2,2 1,-2 h 1 4 v -2 m -66,10 -3,-2 -3,-3 v -2 l -6,-2 -2,-8 h -3 l 1,2 -4,1 -3,-2 -9,5 -6,-1 -6,4 -1,3 -4,3 1,1 v 3 l -6,2 -7,1 -3,3 v 3 l -5,3 -3,2 -1,5 -5,6 -8,2 v 2 m 54,-15 -19,-1 -7,4 h -3 l -8,5 -15,11 m 158,1 h -2 m -16,1 v 3 l -2,1 -3,8 v 2 l -2,1 -2,4 -5,10 -2,4 -5,-3 v 2 l -3,-4 h -2 l 1,-2 -6,-3 1,-2 -1,-2 3,-8 -1,-8 3,-3 -4,-2 -3,-8 m 7,38 -5,8 -4,-2 -4,2 -1,-8 -1,-13 -1,1 -3,-1 -3,1 -1,-3 -2,1 v -2 l 1,-1 -3,-2 2,-4 -3,-1 -7,4 v 4 l -3,1 -1,2 h 1 l 3,-1 1,3 -1,2 v 2 l -4,7 1,5 m 63,5 -3,-2 -2,-8 -4,3 -4,-2 m -25,7 -2,5 v 1 m -60,66 -2,1 1,5 -4,5 -5,1 h -3 l -2,-4 -2,3 -6,-2 -4,-4 -4,-1 -2,2 2,8 -5,1 3,2 6,-2 4,2 2,-1 5,2 2,5 -2,6 -4,9 v 5 h 9 l 5,3 v 1 l 2,-2 5,5 1,-11 -2,-4 3,-7 1,-4 4,-3 1,-4 3,1 m -48,-3 -6,4 -8,-2 -7,-5 -7,1 1,2 -3,2 h -7 l -2,-4 -7,2 -3,-3 -6,3 -7,-1 m 10,22 -6,-6 -4,-10 m 126,19 -4,3 m -44,1 -2,1 -2,8 6,4 v 3 m 19,-2 -3,-3 3,-1 -2,-2 2,-1 m 53,27 h -5 l -4,-1 -3,2 v -4 h -5 l -7,3 m 3,33 2,2 -1,7"
       stroke-linecap="round"
       stroke-width="0.2"
       fill="none" />
  </g>
</svg>
