<?xml version="1.0" encoding="UTF-8" standalone="no"?>
<svg
   xmlns:dc="http://purl.org/dc/elements/1.1/"
   xmlns:cc="http://creativecommons.org/ns#"
   xmlns:rdf="http://www.w3.org/1999/02/22-rdf-syntax-ns#"
   xmlns:svg="http://www.w3.org/2000/svg"
   xmlns="http://www.w3.org/2000/svg"
   xmlns:xlink="http://www.w3.org/1999/xlink"
   xmlns:sodipodi="http://sodipodi.sourceforge.net/DTD/sodipodi-0.dtd"
   xmlns:inkscape="http://www.inkscape.org/namespaces/inkscape"
   width="316.68469"
   height="316.68469"
   version="1.1"
   id="svg2"
   inkscape:version="1.0 (4035a4fb49, 2020-05-01)"
   sodipodi:docname="Saga.svg">
  <metadata
     id="metadata147">
    <rdf:RDF>
      <cc:Work
         rdf:about="">
        <dc:format>image/svg+xml</dc:format>
        <dc:type
           rdf:resource="http://purl.org/dc/dcmitype/StillImage" />
      </cc:Work>
    </rdf:RDF>
  </metadata>
  <defs
     id="defs145">
    <defs
       id="defs10">
      <path
         inkscape:connector-curvature="0"
         id="40000"
         d="m 371,-4 1,1 1,-1 z m 6,0 8,4 h 4 v -4 z m 43,0 5,2 v 4 l -6,-2 2,4 -4,-3 -2,6 3,1 -4,7 6,3 -7,1 -1,2 5,3 -7,1 3,3 h -3 l 1,4 -2,1 -3,-8 -3,2 2,4 -2,1 5,2 -4,3 h -4 l 2,-4 -4,-4 -13,5 h -8 l -8,-1 -3,4 -3,-4 -4,1 -1,8 -5,3 -15,1 -8,-6 v -6 l 1,3 5,-8 -1,-5 h -14 l -11,-3 -5,-14 8,-9 -1,-2 z m -125,0 v 2 l -6,5 -2,1 -12,6 -5,-2 -5,2 -3,7 1,5 v -2 l 4,2 -1,4 -8,10 -9,3 -6,1 -9,-6 v 8 h -3 l -9,2 -1,3 7,7 2,5 11,-8 10,5 -2,7 -4,-3 -4,3 -2,7 6,-6 6,1 4,5 8,-8 5,-1 1,4 -5,8 -2,5 -3,1 -15,8 5,5 -8,8 -8,-1 -3,-5 -6,7 -5,-1 -13,7 -9,1 -2,2 3,4 -6,14 h 6 3 l 8,-2 16,2 8,-6 14,1 6,4 6,-5 7,2 5,5 9,1 8,-8 4,-3 14,4 4,-2 11,6 13,-6 15,11 15,4 12,10 h 3 l 6,8 h 3 l 5,-2 6,8 11,-1 2,2 3,6 8,4 -6,6 2,5 5,-4 6,3 6,-3 2,-11 10,-3 2,-6 h 1 l 8,-8 3,2 14,-8 3,2 2,-4 15,8 -1,3 4,10 v 20 20 l -3,17 -2,-2 -4,4 -11,-2 -5,13 -8,-5 -4,1 -2,4 7,7 -3,8 -16,2 -1,6 7,5 -6,3 -6,4 2,9 -5,1 -5,-7 2,-11 -4,-2 -3,2 2,11 -8,4 2,5 -6,9 -5,1 -1,-8 h -6 v 10 l -3,4 -7,-3 -3,4 2,4 4,3 -1,6 -13,8 -8,1 -2,5 2,11 6,5 v 7 1 l 2,21 13,-1 -2,5 2,5 -3,6 16,9 -6,9 14,6 3,9 1,2 5,14 -4,12 2,5 -9,9 v 5 l 4,-4 1,2 5,-2 v 3 l -2,-1 -1,4 -6,-1 -9,5 h 12 l 8,-2 32,1 12,-2 4,3 6,-7 -13,-27 14,-12 9,1 2,-11 5,-2 14,-4 -1,-3 -2,-4 v -6 l 12,-8 V -4 Z m -100,57 4,6 2,-7 -4,-2 z m 153,-33 5,7 7,-6 -6,-17 -4,2 1,8 z" />
      <path
         inkscape:connector-curvature="0"
         id="42000"
         d="m 36,524 v -3 l -2,-6 3,-6 6,-4 v 10 l -2,6 4,-4 -1,7 z m 17,0 v -7 l 1,-9 v -4 l -4,-3 v -1 1 l -2,-1 3,-6 5,1 -1,-3 4,1 -3,-10 -5,1 3,-3 -2,-6 -1,2 v -5 l -6,-6 -6,-1 -3,3 -4,-6 -6,-1 -4,-5 -2,1 1,3 -6,9 4,1 2,-3 2,4 -6,1 3,4 -3,-1 -2,-4 -5,7 1,3 -4,-1 1,-3 -4,-5 -1,-2 h 5 l -6,-3 3,-4 -2,-4 7,-9 2,-9 3,2 6,-5 -4,-5 -3,-1 -1,-5 -5,2 -1,5 -1,-2 -1,5 -3,1 -2,-1 2,-3 -3,-1 7,-8 -4,-2 2,-1 -3,-6 -5,3 v -67 l 3,2 -1,-4 2,3 -1,3 h 3 l -5,3 1,5 3,-2 -4,5 1,3 2,2 v 6 l 3,3 2,-2 -3,-5 1,-2 2,-3 4,6 8,-11 1,4 7,-4 2,3 8,-1 8,8 -1,10 v 6 l -5,6 5,8 2,11 h 5 l -4,2 v 2 l 4,-1 -6,5 h 4 l 5,-1 5,4 -2,-2 5,-1 1,3 5,1 v 3 l -8,1 3,2 -4,10 3,2 4,-2 3,-11 3,-1 2,6 8,-13 6,3 6,-2 10,5 5,9 2,4 8,5 4,-1 10,11 3,3 -1,11 3,7 1,3 -4,2 -1,8 h -2 l -2,-2 v 4 l -3,-2 -2,3 3,2 -3,13 1,2 v 12 z m -57,-109 1,-2 h -1 z m 289,109 v -1 l 7,-1 -3,-5 3,-1 -2,-2 2,-10 -16,-4 -17,-1 -3,-6 -4,2 -13,-2 -18,-3 -7,-9 -9,1 -10,-13 h -2 l -8,-6 -1,-6 -7,2 -5,-3 -9,-12 2,-4 -8,-10 -27,-12 -4,-11 -6,-1 1,-12 8,-5 4,1 4,1 4,-13 -5,-4 -3,-23 h -3 -1 l -9,2 -21,4 -2,-4 -8,-2 -13,-9 -11,1 -10,-9 v -7 l -6,-10 4,-7 -2,-7 3,-5 v -4 l -23,-20 -5,-12 -6,-4 11,-30 9,-6 v -22 l -9,-1 -2,12 -4,3 -6,-9 -8,-2 -11,11 -4,1 v 309 z m -230,-48 1,2 1,-3 z m -48,-2 4,2 -1,-5 z m 3,-5 2,5 v -5 z m 21,-50 1,1 3,3 -1,-7 z m -8,-2 -4,-4 v -6 l 7,-9 v 8 l -5,5 h 3 l -1,3 5,-2 3,4 1,-2 9,-6 -5,-13 5,-6 1,-17 -7,-4 -11,-1 -5,7 5,2 5,3 -10,-1 2,9 -3,1 -6,-8 -2,7 7,11 -15,-2 -1,2 6,16 h 3 l 1,-4 1,3 2,3 -7,3 4,3 -2,3 6,1 h 4 l -3,5 7,4 2,-1 -2,-5 10,-2 -2,-4 h -4 v -5 l -2,2 z m 29,-215 -5,4 6,10 6,-7 -2,-5 10,2 4,-3 -3,-3 7,1 7,-7 -3,-4 -6,-1 -3,-1 -1,5 -6,-8 3,-8 -9,-6 -14,-2 11,7 -4,8 4,7 -4,1 4,11 z m -23,-23 3,4 4,-2 -5,-4 z M -3,167 v 1 h 3 l 4,6 5,-1 6,-3 -2,-7 4,2 3,2 -1,-9 3,2 v -4 l 17,4 v -3 l 1,-2 -8,-2 -2,-5 -5,1 5,-9 -4,-3 2,-4 -8,-2 -2,-4 -3,5 3,1 -2,5 h 5 l -6,3 v 5 l -7,5 4,2 -2,5 -10,4 z m -1,-31 4,4 1,1 1,-4 -2,-3 -3,-2 h -1 z" />
      <path
         inkscape:connector-curvature="0"
         id="43000"
         d="M 524,524 V 387 l -12,8 v 6 l 2,4 1,3 -14,4 -5,2 -2,11 -9,-1 -14,12 13,27 -6,7 -4,-3 -12,2 -32,-1 -8,2 1,7 3,-1 6,-1 -3,1 3,5 5,33 3,10 z" />
      <path
         inkscape:connector-curvature="0"
         id="41201"
         d="m 317,287 -9,-3 -4,1 -3,5 3,6 -1,8 5,10 -1,6 4,2 -3,9 h 1 10 l 1,-8 6,4 -4,6 16,15 v 3 l 5,2 1,11 42,5 -2,-21 v -1 -7 l -6,-5 -2,-11 2,-5 8,-1 13,-8 1,-6 -4,-3 -2,-4 3,-4 2,-5 -2,-5 -15,1 v 5 l -5,-2 -4,-33 5,-1 -4,-22 v -18 l -4,-2 -2,-3 h -8 l -4,3 -2,6 -4,-7 2,-3 -8,-5 3,-4 -1,-6 -9,1 -1,-13 3,-4 9,1 7,-8 4,1 9,-8 3,-12 4,-1 1,-3 -12,-10 -15,-4 -15,-11 -13,6 -11,-6 -4,2 -14,-4 -4,3 -8,8 -9,-1 -3,9 3,7 -1,13 -7,6 9,4 -4,4 h -5 l -1,13 -8,8 -1,6 4,13 -3,6 1,6 40,-2 12,7 -2,8 5,9 -1,7 4,3 4,19 z" />
      <path
         inkscape:connector-curvature="0"
         id="41202"
         d="m 81,40 4,1 3,-6 -5,-1 -1,-5 3,-8 -2,-2 -3,1 2,3 -4,5 -3,4 7,6 z m -10,0 h -2 v 4 l 6,-5 z m -56,15 7,4 6,-6 -1,-8 h -7 l -2,3 -4,-3 -3,2 1,1 -3,3 z m 79,3 -3,4 -1,11 h 5 l 8,-8 -3,-1 -4,-8 z m -34,111 6,-1 2,5 10,2 5,-1 -1,-4 4,2 -2,2 3,-1 2,2 -3,1 1,3 2,4 -4,1 6,4 4,-1 v -10 -4 l 6,1 8,-4 10,12 -4,13 3,6 10,16 6,2 6,16 3,-3 -3,-13 4,-1 4,8 9,7 5,-2 10,9 3,14 8,11 2,1 5,2 14,-11 11,-6 5,-8 8,-1 11,-10 7,-9 9,1 -1,-6 3,-6 -4,-13 1,-6 8,-8 1,-13 h 5 l 4,-4 -9,-4 7,-6 1,-13 -3,-7 3,-9 -5,-5 -7,-2 -6,5 -6,-4 -14,-1 -8,6 -16,-2 -8,2 h -3 -6 l -2,3 3,6 -2,3 -18,5 -24,-7 -4,-3 3,-1 -1,-2 -4,2 -1,-3 4,1 -3,-4 5,-2 2,-3 -5,-6 -3,4 1,6 -2,-4 -1,1 1,5 -4,-8 -2,5 -4,-2 -1,-4 5,-3 -1,-7 5,-8 7,-1 3,-5 -7,-2 V 84 h -4 l -2,1 -11,-7 2,-8 -3,-2 v 4 l -6,3 -5,-4 -5,1 -3,-3 -4,3 2,6 -2,-3 -5,1 v 12 l 3,1 h -5 l -2,3 3,-7 -2,-7 -11,-4 v -5 l -6,-5 v 1 9 l -1,4 5,3 -2,5 2,5 -6,-4 h -4 l 2,2 h 3 v 5 l 5,3 6,1 10,7 13,15 1,7 -7,4 3,1 -1,7 -5,1 -1,7 h 2 l -6,2 -4,7 -5,-4 -5,2 3,-9 -7,-1 -4,2 -3,-4 -3,6 2,-15 -9,-8 v -1 l 2,-3 -4,-4 -5,3 -4,-4 -1,5 -6,5 2,6 6,1 -1,4 -4,3 -3,-6 -6,3 v 6 l 3,-2 1,2 -1,5 5,-1 3,5 7,2 v 3 l 11,5 -5,2 z m 94,-90 -2,-5 -4,1 -2,3 5,-1 -4,8 h 5 z m -123,34 2,-2 -3,-2 z m 133,13 v -5 l -4,-1 -1,6 z m -58,-91 3,1 v -6 l -3,-1 -3,8 z" />
      <path
         inkscape:connector-curvature="0"
         id="41203"
         d="m 441,194 6,9 1,14 6,-2 8,14 4,-1 8,5 5,-13 11,2 4,-4 2,2 3,-17 v -20 -7 h -9 l -2,-6 -14,4 -14,-13 -9,-3 h -1 l -2,6 -10,3 -2,11 z" />
      <path
         inkscape:connector-curvature="0"
         id="41204"
         d="m 231,300 5,-3 9,3 5,-9 10,2 4,-7 5,7 10,-2 v -7 l -11,-17 5,-3 -9,-7 1,-6 -7,-6 -6,-1 v -9 l 3,-11 -9,-1 -7,9 -11,10 -8,1 -5,8 -11,6 -14,11 -5,-2 -3,17 2,6 8,-1 10,9 5,-4 9,5 10,-1 z" />
      <path
         inkscape:connector-curvature="0"
         id="41205"
         d="m 63,255 -5,-11 -4,1 4,-5 -5,1 -1,-4 3,-1 -5,-1 -3,-7 -4,-1 -3,-5 -9,6 -11,30 6,4 5,12 23,20 v 4 l 13,1 10,-4 h 11 l 5,12 12,1 4,-3 10,1 6,-3 4,-6 8,-13 7,1 12,-14 27,-6 -8,-11 -3,-14 -10,-9 -5,2 -9,-7 -4,-8 -4,1 3,13 -3,3 -6,-16 -6,-2 -10,-16 -3,-6 4,-13 -10,-12 -8,4 -6,-1 v 4 10 l -4,1 -6,-4 3,3 -3,3 2,9 -3,-3 -2,2 -1,4 -7,4 2,2 -1,3 1,6 -5,1 2,4 2,3 -4,-3 -4,5 -2,-4 -3,1 4,7 4,-3 5,2 -3,3 -1,6 -4,-4 2,4 -2,4 h -4 l 1,6 9,2 9,13 -3,2 -1,-5 -6,-4 -1,5 h -3 z" />
      <path
         inkscape:connector-curvature="0"
         id="41206"
         d="m 130,351 h 3 l 3,23 5,4 -4,13 3,2 7,-5 6,3 6,-5 3,1 3,-7 -4,-7 9,-3 v -4 l 3,-2 6,-3 6,2 2,-3 1,-4 h 9 l 7,-7 7,1 4,-4 -4,-7 8,-2 3,-11 6,-4 v -3 l -6,-4 4,-4 5,-11 -5,-3 -10,1 -9,-5 -5,4 -10,-9 -8,1 -2,-6 3,-17 -2,-1 -27,6 -12,14 -7,-1 -8,13 -4,6 -6,3 -10,-1 -4,3 5,17 4,2 3,17 v 2 l 7,-1 z" />
      <path
         inkscape:connector-curvature="0"
         id="41207"
         d="m 200,408 -8,6 5,12 -6,24 4,4 v 15 l 10,13 9,-1 8,-5 4,-5 1,-9 10,-9 1,2 4,-1 30,-19 -8,-5 -10,-19 3,-2 -3,-6 4,-11 -10,-4 -2,-6 h -4 l -1,-4 -23,-2 1,6 -3,4 3,5 -5,5 h -3 l 3,4 -9,-1 1,4 z" />
      <path
         inkscape:connector-curvature="0"
         id="41208"
         d="m 284,321 8,9 9,-2 7,3 3,-9 -4,-2 1,-6 -5,-10 1,-8 -3,-6 3,-5 4,-1 9,3 v -12 l -4,-19 -4,-3 1,-7 -5,-9 2,-8 -12,-7 -40,2 -3,11 v 9 l 6,1 7,6 -1,6 9,7 -5,3 11,17 v 7 l -10,2 -4,8 8,4 h 4 l 4,6 3,-1 2,5 h 4 v 6 z" />
      <path
         inkscape:connector-curvature="0"
         id="41209"
         d="m 172,456 5,3 7,-2 1,6 8,6 h 2 v -15 l -4,-4 6,-24 -5,-12 8,-6 6,-5 -1,-4 9,1 -3,-4 h 3 l 5,-5 -3,-5 3,-4 -1,-6 -3,1 -4,-4 8,-5 3,-7 -7,-15 -4,4 -7,-1 -7,7 h -9 l -1,4 -2,3 -6,-2 -6,3 -3,2 v 4 l -9,3 4,7 -3,7 -3,-1 -6,5 -6,-3 -7,5 -3,-2 -4,-1 -4,-1 -8,5 -1,12 6,1 4,11 27,12 8,10 -2,4 z" />
      <path
         inkscape:connector-curvature="0"
         id="41210"
         d="m 414,262 -3,3 -6,-26 -3,-1 2,-12 -5,-31 h -3 l -5,-9 1,-3 7,-1 4,-7 -4,-15 -6,-8 -5,2 h -3 l -6,-8 h -3 l -1,3 -4,1 -3,12 -9,8 -4,-1 -7,8 -9,-1 -3,4 1,13 9,-1 1,6 -3,4 8,5 -2,3 4,7 2,-6 4,-3 h 8 l 2,3 4,2 v 18 l 4,22 -5,1 4,33 5,2 v -5 l 15,-1 2,5 -2,5 7,3 3,-4 v -10 h 6 l 1,8 5,-1 6,-9 -2,-5 -5,-2 -2,-10 z" />
      <path
         inkscape:connector-curvature="0"
         id="41327"
         d="m 423,224 -4,-16 4,-5 2,-12 -6,-9 -2,-5 6,-6 -8,-4 -3,-6 -2,-2 -11,1 4,15 -4,7 -7,1 -1,3 5,9 h 3 l 5,31 -2,12 3,1 6,26 3,-3 2,-8 z" />
      <path
         inkscape:connector-curvature="0"
         id="41341"
         d="m 499,183 v -20 l -4,-10 1,-3 -15,-8 -2,4 -3,-2 -14,8 -3,-2 -8,8 9,3 14,13 14,-4 2,6 h 9 z" />
      <path
         inkscape:connector-curvature="0"
         id="41345"
         d="m 423,224 -7,30 h 7 l 1,-5 4,5 4,-1 1,-6 6,-3 -9,-7 -2,-12 5,-2 -2,-3 v -8 l -8,-9 -4,5 z" />
      <path
         inkscape:connector-curvature="0"
         id="41346"
         d="m 416,254 -2,8 2,1 2,10 5,2 8,-4 -2,-11 3,-2 4,2 -2,11 5,7 5,-1 -2,-9 6,-4 6,-3 -7,-5 1,-6 16,-2 3,-8 -7,-7 2,-4 -8,-14 -6,2 -1,-14 -6,-9 -5,-16 -6,3 -6,-3 -5,4 6,9 -2,12 8,9 v 8 l 2,3 -5,2 2,12 9,7 -6,3 -1,6 -4,1 -4,-5 -1,5 z" />
      <path
         inkscape:connector-curvature="0"
         id="41387"
         d="m 100,140 5,-1 1,-7 -3,-1 7,-4 -1,-7 -13,-15 -10,-7 -6,-1 1,4 -13,-9 h -5 l 5,4 -4,5 6,8 -2,5 5,6 -8,3 5,4 5,-4 v 5 l 1,-2 5,4 -3,-1 4,10 -3,-2 -2,5 v 2 l 7,1 -3,9 5,-2 5,4 4,-7 6,-2 h -2 z" />
      <path
         inkscape:connector-curvature="0"
         id="41401"
         d="m 130,351 -6,-6 -7,1 v -2 l -3,-17 -4,-2 -5,-17 -12,-1 -5,-12 H 77 l -10,4 -13,-1 -3,5 2,7 -4,7 6,10 v 7 l 10,9 11,-1 13,9 8,2 2,4 21,-4 9,-2 z" />
      <path
         inkscape:connector-curvature="0"
         id="41423"
         d="m 250,319 2,-5 -8,-8 1,-3 v -3 l -9,-3 -5,3 -5,11 -4,4 6,4 v 3 l 4,1 3,-5 v 5 l 11,5 2,-3 -3,-3 z" />
      <path
         inkscape:connector-curvature="0"
         id="41424"
         d="m 250,319 5,3 -4,6 15,6 4,-3 1,-7 8,1 5,-4 h 6 v -6 h -4 l -2,-5 -3,1 -4,-6 h -4 l -8,-4 4,-8 -5,-7 -4,7 -10,-2 -5,9 v 3 l -1,3 8,8 z" />
      <path
         inkscape:connector-curvature="0"
         id="41425"
         d="m 218,376 23,2 1,4 h 4 l 2,6 10,4 34,-33 12,-8 6,-13 -1,-7 h -1 l -7,-3 -9,2 -8,-9 -5,4 -8,-1 -1,7 -4,3 -15,-6 4,-6 -5,-3 -5,3 3,3 -2,3 -11,-5 v -5 l -3,5 -4,-1 -6,4 -3,11 -8,2 4,7 7,15 -3,7 -8,5 4,4 z" />
      <path
         inkscape:connector-curvature="0"
         id="41441"
         d="m 276,500 16,4 6,-1 -2,-4 5,3 -3,4 3,2 5,-3 -5,-3 5,-5 -4,-7 -6,-3 1,-4 -4,-4 h -8 l 1,-6 -4,-1 1,-8 -6,-5 3,-5 -7,-8 -1,-11 -30,19 -4,1 -1,-2 -10,9 -1,9 -4,5 -8,5 7,9 18,3 13,2 4,-2 3,6 z" />
    </defs>
  </defs>
  <sodipodi:namedview
     pagecolor="#ffffff"
     bordercolor="#666666"
     borderopacity="1"
     objecttolerance="10"
     gridtolerance="10"
     guidetolerance="10"
     inkscape:pageopacity="0"
     inkscape:pageshadow="2"
     inkscape:window-width="1920"
     inkscape:window-height="1017"
     id="namedview143"
     showgrid="false"
     inkscape:zoom="2"
     inkscape:cx="128.864"
     inkscape:cy="178.24624"
     inkscape:window-x="-8"
     inkscape:window-y="-8"
     inkscape:window-maximized="1"
     inkscape:current-layer="svg2"
     inkscape:document-rotation="0" />
  <title
     id="title4">佐賀県区画図</title>
  <rect
     style="fill:#ffffff;stroke-width:0.609009"
     id="rect35"
     height="328.86487"
     width="328.86487"
     y="-6.0900898"
     x="-6.0900903" />
  <rect
     style="fill:#eeeeee;stroke-width:0.609009"
     id="rect37"
     height="316.68469"
     width="316.68469"
     y="0"
     x="0" />
  <a
     style="stroke:#000000;stroke-width:0.32840237;stroke-linejoin:round;stroke-miterlimit:4;stroke-dasharray:none"
     id="a41"
     transform="scale(0.60900901)">
    <use
       xlink:href="#40000"
       id="use43"
       style="fill:#aaaaaa;stroke-width:0.32840237;stroke-miterlimit:4;stroke-dasharray:none"
       x="0"
       y="0"
       width="520"
       height="592" />
  </a>
  <a
     style="stroke:#000000;stroke-width:0.32840237;stroke-linejoin:round;stroke-miterlimit:4;stroke-dasharray:none"
     id="a45"
     transform="scale(0.60900901)">
    <use
       xlink:href="#42000"
       id="use47"
       style="fill:#aaaaaa;stroke-width:0.32840237;stroke-miterlimit:4;stroke-dasharray:none"
       x="0"
       y="0"
       width="520"
       height="592" />
  </a>
  <a
     style="stroke:#000000;stroke-width:0.32840237;stroke-linejoin:round;stroke-miterlimit:4;stroke-dasharray:none"
     id="a49"
     transform="scale(0.60900901)">
    <use
       xlink:href="#43000"
       id="use51"
       style="fill:#aaaaaa;stroke-width:0.32840237;stroke-miterlimit:4;stroke-dasharray:none"
       x="0"
       y="0"
       width="520"
       height="592" />
  </a>
  <a
     style="stroke:#000000;stroke-width:0.32840237;stroke-linejoin:round;stroke-miterlimit:4;stroke-dasharray:none"
     id="a53"
     transform="scale(0.60900901)">
    <use
       xlink:href="#41201"
       id="use55"
       style="fill:#f6bad3;stroke-width:0.32840237;stroke-miterlimit:4;stroke-dasharray:none"
       x="0"
       y="0"
       width="520"
       height="592" />
  </a>
  <a
     style="stroke:#000000;stroke-width:0.32840237;stroke-linejoin:round;stroke-miterlimit:4;stroke-dasharray:none"
     id="a57"
     transform="scale(0.60900901)">
    <use
       xlink:href="#41202"
       id="use59"
       style="fill:#f6bad3;stroke-width:0.32840237;stroke-miterlimit:4;stroke-dasharray:none"
       x="0"
       y="0"
       width="520"
       height="592" />
  </a>
  <a
     style="stroke:#000000;stroke-width:0.32840237;stroke-linejoin:round;stroke-miterlimit:4;stroke-dasharray:none"
     id="a61"
     transform="scale(0.60900901)">
    <use
       xlink:href="#41203"
       id="use63"
       style="fill:#f6bad3;stroke-width:0.32840237;stroke-miterlimit:4;stroke-dasharray:none"
       x="0"
       y="0"
       width="520"
       height="592" />
  </a>
  <a
     style="stroke:#000000;stroke-width:0.32840237;stroke-linejoin:round;stroke-miterlimit:4;stroke-dasharray:none"
     id="a65"
     transform="scale(0.60900901)">
    <use
       xlink:href="#41204"
       id="use67"
       style="fill:#f6bad3;stroke-width:0.32840237;stroke-miterlimit:4;stroke-dasharray:none"
       x="0"
       y="0"
       width="520"
       height="592" />
  </a>
  <a
     style="stroke:#000000;stroke-width:0.32840237;stroke-linejoin:round;stroke-miterlimit:4;stroke-dasharray:none"
     id="a69"
     transform="scale(0.60900901)">
    <use
       xlink:href="#41205"
       id="use71"
       style="fill:#f6bad3;stroke-width:0.32840237;stroke-miterlimit:4;stroke-dasharray:none"
       x="0"
       y="0"
       width="520"
       height="592" />
  </a>
  <a
     style="stroke:#000000;stroke-width:0.32840237;stroke-linejoin:round;stroke-miterlimit:4;stroke-dasharray:none"
     id="a73"
     transform="scale(0.60900901)">
    <use
       xlink:href="#41206"
       id="use75"
       style="fill:#f6bad3;stroke-width:0.32840237;stroke-miterlimit:4;stroke-dasharray:none"
       x="0"
       y="0"
       width="520"
       height="592" />
  </a>
  <a
     style="stroke:#000000;stroke-width:0.32840237;stroke-linejoin:round;stroke-miterlimit:4;stroke-dasharray:none"
     id="a77"
     transform="scale(0.60900901)">
    <use
       xlink:href="#41207"
       id="use79"
       style="fill:#f6bad3;stroke-width:0.32840237;stroke-miterlimit:4;stroke-dasharray:none"
       x="0"
       y="0"
       width="520"
       height="592" />
  </a>
  <a
     style="stroke:#000000;stroke-width:0.32840237;stroke-linejoin:round;stroke-miterlimit:4;stroke-dasharray:none"
     id="a81"
     transform="scale(0.60900901)">
    <use
       xlink:href="#41208"
       id="use83"
       style="fill:#f6bad3;stroke-width:0.32840237;stroke-miterlimit:4;stroke-dasharray:none"
       x="0"
       y="0"
       width="520"
       height="592" />
  </a>
  <a
     style="stroke:#000000;stroke-width:0.32840237;stroke-linejoin:round;stroke-miterlimit:4;stroke-dasharray:none"
     id="a85"
     transform="scale(0.60900901)">
    <use
       xlink:href="#41209"
       id="use87"
       style="fill:#f6bad3;stroke-width:0.32840237;stroke-miterlimit:4;stroke-dasharray:none"
       x="0"
       y="0"
       width="520"
       height="592" />
  </a>
  <a
     style="stroke:#000000;stroke-width:0.32840237;stroke-linejoin:round;stroke-miterlimit:4;stroke-dasharray:none"
     id="a89"
     transform="scale(0.60900901)">
    <use
       xlink:href="#41210"
       id="use91"
       style="fill:#f6bad3;stroke-width:0.32840237;stroke-miterlimit:4;stroke-dasharray:none"
       x="0"
       y="0"
       width="520"
       height="592" />
  </a>
  <a
     style="stroke:#000000;stroke-width:0.32840237;stroke-linejoin:round;stroke-miterlimit:4;stroke-dasharray:none"
     id="a93"
     transform="scale(0.60900901)">
    <use
       xlink:href="#41327"
       id="use95"
       style="fill:#f6bad3;stroke-width:0.32840237;stroke-miterlimit:4;stroke-dasharray:none"
       x="0"
       y="0"
       width="520"
       height="592" />
  </a>
  <a
     style="stroke:#000000;stroke-width:0.32840237;stroke-linejoin:round;stroke-miterlimit:4;stroke-dasharray:none"
     id="a97"
     transform="scale(0.60900901)">
    <use
       xlink:href="#41341"
       id="use99"
       style="fill:#f6bad3;stroke-width:0.32840237;stroke-miterlimit:4;stroke-dasharray:none"
       x="0"
       y="0"
       width="520"
       height="592" />
  </a>
  <a
     style="stroke:#000000;stroke-width:0.32840237;stroke-linejoin:round;stroke-miterlimit:4;stroke-dasharray:none"
     id="a101"
     transform="scale(0.60900901)">
    <use
       xlink:href="#41345"
       id="use103"
       style="fill:#f6bad3;stroke-width:0.32840237;stroke-miterlimit:4;stroke-dasharray:none"
       x="0"
       y="0"
       width="520"
       height="592" />
  </a>
  <a
     style="stroke:#000000;stroke-width:0.32840237;stroke-linejoin:round;stroke-miterlimit:4;stroke-dasharray:none"
     id="a105"
     transform="scale(0.60900901)">
    <use
       xlink:href="#41346"
       id="use107"
       style="fill:#f6bad3;stroke-width:0.32840237;stroke-miterlimit:4;stroke-dasharray:none"
       x="0"
       y="0"
       width="520"
       height="592" />
  </a>
  <a
     style="stroke:#000000;stroke-width:0.32840237;stroke-linejoin:round;stroke-miterlimit:4;stroke-dasharray:none"
     id="a109"
     transform="scale(0.60900901)">
    <use
       xlink:href="#41387"
       id="use111"
       style="fill:#f6bad3;stroke-width:0.32840237;stroke-miterlimit:4;stroke-dasharray:none"
       x="0"
       y="0"
       width="520"
       height="592" />
  </a>
  <a
     style="stroke:#000000;stroke-width:0.32840237;stroke-linejoin:round;stroke-miterlimit:4;stroke-dasharray:none"
     id="a113"
     transform="scale(0.60900901)">
    <use
       xlink:href="#41401"
       id="use115"
       style="fill:#f6bad3;stroke-width:0.32840237;stroke-miterlimit:4;stroke-dasharray:none"
       x="0"
       y="0"
       width="520"
       height="592" />
  </a>
  <a
     style="stroke:#000000;stroke-width:0.32840237;stroke-linejoin:round;stroke-miterlimit:4;stroke-dasharray:none"
     id="a117"
     transform="scale(0.60900901)">
    <use
       xlink:href="#41423"
       id="use119"
       style="fill:#f6bad3;stroke-width:0.32840237;stroke-miterlimit:4;stroke-dasharray:none"
       x="0"
       y="0"
       width="520"
       height="592" />
  </a>
  <a
     style="stroke:#000000;stroke-width:0.32840237;stroke-linejoin:round;stroke-miterlimit:4;stroke-dasharray:none"
     id="a121"
     transform="scale(0.60900901)">
    <use
       xlink:href="#41424"
       id="use123"
       style="fill:#f6bad3;stroke-width:0.32840237;stroke-miterlimit:4;stroke-dasharray:none"
       x="0"
       y="0"
       width="520"
       height="592" />
  </a>
  <a
     style="stroke:#000000;stroke-width:0.32840237;stroke-linejoin:round;stroke-miterlimit:4;stroke-dasharray:none"
     id="a125"
     transform="scale(0.60900901)">
    <use
       xlink:href="#41425"
       id="use127"
       style="fill:#f6bad3;stroke-width:0.32840237;stroke-miterlimit:4;stroke-dasharray:none"
       x="0"
       y="0"
       width="520"
       height="592" />
  </a>
  <a
     style="stroke:#000000;stroke-width:0.32840237;stroke-linejoin:round;stroke-miterlimit:4;stroke-dasharray:none"
     id="a129"
     transform="scale(0.60900901)">
    <use
       xlink:href="#41441"
       id="use131"
       style="fill:#f6bad3;stroke-width:0.32840237;stroke-miterlimit:4;stroke-dasharray:none"
       x="0"
       y="0"
       width="520"
       height="592" />
  </a>
  <path
     style="fill:#eeeeee;stroke:#000000;stroke-width:0.2;stroke-linejoin:round;stroke-miterlimit:4;stroke-dasharray:none"
     inkscape:connector-curvature="0"
     id="path133"
     d="m 193.66486,91.96036 h 1.82703 l -1.21802,2.436036 1.82703,-0.609009 3.65406,-3.654054 -3.04505,2.436036 3.04505,1.218018 -3.04505,0.609009 0.60901,2.436037 -1.82703,1.827027 3.65406,2.43604 h -3.65406 l -0.60901,-1.827031 -0.60901,2.436031 -1.21801,-3.654049 3.04504,-3.045046 -4.26306,2.436037 -0.60901,-1.827027 3.04504,-0.60901 -3.65405,-1.218018 z" />
  <text
     xml:space="preserve"
     style="font-style:normal;font-weight:normal;font-size:7.30811px;line-height:0%;font-family:sans-serif;letter-spacing:0px;word-spacing:0px;fill:#000000;fill-opacity:1;stroke:none;stroke-width:0.609009"
     x="177.22162"
     y="331.90991"
     id="text3133"><tspan
       sodipodi:role="line"
       id="tspan3135"
       x="177.22162"
       y="331.90991"
       style="font-size:24.3604px;line-height:1.25;font-family:sans-serif;stroke-width:0.609009"> </tspan></text>
  <g
     transform="matrix(0.79918033,0,0,0.79918033,-116.39536,-71.37133)"
     id="g30">
    <rect
       id="rect24"
       height="36"
       width="122"
       y="442"
       x="414"
       opacity="0.75"
       fill="#ffffff" />
    <rect
       id="rect26"
       height="8"
       width="114"
       y="446"
       x="418"
       fill="#000000" />
    <text
       id="text28"
       y="474"
       x="475"
       font-family="sans-serif"
       font-size="24px"
       text-anchor="middle"
       fill="#000000">20km</text>
  </g>
</svg>
