<?xml version="1.0" encoding="UTF-8" standalone="no"?>
<svg
   xmlns:dc="http://purl.org/dc/elements/1.1/"
   xmlns:cc="http://creativecommons.org/ns#"
   xmlns:rdf="http://www.w3.org/1999/02/22-rdf-syntax-ns#"
   xmlns:svg="http://www.w3.org/2000/svg"
   xmlns="http://www.w3.org/2000/svg"
   xmlns:sodipodi="http://sodipodi.sourceforge.net/DTD/sodipodi-0.dtd"
   xmlns:inkscape="http://www.inkscape.org/namespaces/inkscape"
   inkscape:version="1.0 (4035a4fb49, 2020-05-01)"
   sodipodi:docname="Fukui.svg"
   id="svg30"
   version="1.1"
   height="471"
   width="550">
  <metadata
     id="metadata36">
    <rdf:RDF>
      <cc:Work
         rdf:about="">
        <dc:format>image/svg+xml</dc:format>
        <dc:type
           rdf:resource="http://purl.org/dc/dcmitype/StillImage" />
      </cc:Work>
    </rdf:RDF>
  </metadata>
  <defs
     id="defs34" />
  <sodipodi:namedview
     inkscape:current-layer="svg30"
     inkscape:window-maximized="1"
     inkscape:window-y="-8"
     inkscape:window-x="-8"
     inkscape:cy="218.24191"
     inkscape:cx="197.75646"
     inkscape:zoom="1.2881053"
     showgrid="false"
     id="namedview32"
     inkscape:window-height="1017"
     inkscape:window-width="1920"
     inkscape:pageshadow="2"
     inkscape:pageopacity="0"
     guidetolerance="10"
     gridtolerance="10"
     objecttolerance="10"
     borderopacity="1"
     bordercolor="#666666"
     pagecolor="#ffffff" />
  <title
     id="title2">衆議院小選挙区 福井県</title>
  <desc
     id="desc4">Author: Lincun</desc>
  <rect
     id="rect6"
     height="471"
     width="550"
     y="0"
     x="0"
     fill="#eeeeee" />
  <path
     fill="#cccccc"
     d="m 515,-1 h -1 l 3,4 -1,4 2,6 4,-3 2,2 h 6 l 3,-2 V 6 l 3,-7 z m -187,0 -2,5 -12,12 2,1 3,2 -1,4 3,1 -1,2 1,2 2,-1 -1,3 6,-1 1,2 6,2 3,5 2,1 1,5 6,3 -1,12 5,13 5,4 4,-2 8,1 8,-3 1,8 4,1 6,7 3,-1 3,2 3,-1 7,-9 h 3 l 2,4 5,1 4,-2 5,2 2,-3 5,-1 3,1 1,4 5,1 5,5 4,1 5,10 14,7 2,4 -1,3 2,3 5,1 3,-1 7,-2 4,-3 h 10 l 6,-3 1,-5 3,-3 2,-9 3,-2 1,-6 -2,-1 -1,-6 -3,-2 1,-1 7,-1 4,-3 1,-6 3,-3 5,-5 v -4 l 4,-3 v -3 l 7,-11 -3,-6 -4,-3 h -7 v -2 l -3,-2 v -4 l -5,-7 -2,-6 1,-4 -3,-4 h 1 z m 208,0 -3,7 v 4 l -3,2 h -6 l -2,-2 -4,3 5,7 v 4 l 3,2 v 2 h 7 l 4,3 3,6 -7,11 v 3 l -4,3 v 4 l -5,5 -3,3 -1,6 -4,3 -7,1 -1,1 3,2 1,6 2,1 -1,6 -3,2 -2,9 -3,3 -1,5 4,6 v 3 l -7,4 -5,5 1,7 -3,17 10,4 v 9 l -1,2 1,3 15,5 -3,9 10,7 4,6 1,3 -2,5 5,10 -1,5 -5,3 -5,-1 -2,7 1,5 -4,9 h -5 v -4 l -4,-1 h -4 l -5,4 -7,-3 -1,4 -3,3 -5,-1 -3,3 -5,-2 -4,4 h -3 l -1,-1 -1,-5 -3,-4 -3,4 h -4 l 1,3 -2,2 -4,-1 -5,-4 -4,1 -1,5 -6,3 -5,-1 -4,1 -9,-5 -4,8 1,4 -3,6 -7,-12 -7,2 -3,-3 -5,3 -6,-1 -6,-4 -2,1 -3,-4 -4,1 -1,-2 -4,-2 -8,4 -3,5 -7,1 -3,4 -1,7 3,3 v 6 l -2,4 1,3 -4,2 -1,4 -5,5 -2,1 v 3 l 3,3 -4,3 1,2 -4,3 -2,3 3,4 -2,4 6,8 8,-2 3,3 -3,5 2,2 1,8 -3,12 1,4 1,2 2,-2 4,-1 2,6 2,1 4,-2 2,-9 h 4 l 3,11 7,2 -1,5 3,3 h -2 l -2,4 -3,8 4,3 2,5 7,2 2,8 -4,7 1,3 -3,4 4,3 2,5 7,5 -3,5 -9,4 -1,9 4,-1 v 2 l -4,9 1,7 -3,4 h 123 l 4,-9 2,-4 2,-6 2,-6 6,-5 h 1 l 6,1 v 1 1 l 3,1 12,2 12,-7 3,-1 V -1 Z m 15,441 -3,1 -12,7 -12,-2 -3,-1 v -1 -1 l -6,-1 h -1 l -6,5 -2,6 -2,6 -2,4 -4,9 h 53 z m -176,32 3,-4 -1,-7 4,-9 v -2 l -4,1 1,-9 9,-4 3,-5 -7,-5 -2,-5 -4,-3 3,-4 -1,-3 4,-7 -2,-8 -7,-2 -2,-5 -4,-3 3,-8 2,-4 h 2 l -3,-3 1,-5 -7,-2 -3,-11 h -4 l -2,9 -4,2 -2,-1 -2,-6 -4,1 -2,2 -1,-2 -1,-4 3,-12 -1,-8 -2,-2 3,-5 -3,-3 -8,2 -6,-8 2,-4 -3,-4 2,-3 -4,-4 -7,-4 -3,1 -3,-4 -4,1 -3,-1 -2,1 -1,-3 -4,-1 -3,-6 h -8 l -1,3 -4,-2 -2,1 v 5 l -6,8 6,5 v 5 l 4,7 v 4 l 6,12 -4,8 2,3 -1,4 -2,-2 h -7 l -2,-2 h -7 l -3,-4 -2,7 1,4 -2,2 2,5 -2,7 -8,-5 -2,5 -3,2 -8,-4 -1,2 -2,-1 -5,1 v 3 l -3,5 h -2 l -2,8 -2,2 -5,-1 -2,2 -2,1 -4,-8 -2,1 -4,-2 -2,-7 h -3 l -2,8 -2,5 -3,3 -1,5 -1,2 v 9 l -2,2 1,1 v 6 l -4,1 -4,5 -1,7 -6,3 -5,1 -2,-3 -1,-5 -5,-1 -1,1 -8,-1 -3,13 h -6 v 3 l -5,3 v 3 l -3,5 -2,5 6,2 5,9 6,2 2,5 h 88 l 4,-5 5,1 -1,-2 3,2 v -5 l -3,-4 -2,-11 -8,-8 -3,-1 -1,-6 3,-7 3,-1 -3,-12 12,-13 h 3 l 2,6 2,1 3,-2 2,-4 4,-11 3,-1 v 2 l 3,-1 v 3 h -3 v 8 l 2,1 v 1 l 5,-1 -1,6 3,1 1,-3 3,-6 h -3 l -1,-5 5,-7 -1,-3 2,-3 -1,-5 2,-1 1,4 3,3 2,-2 2,1 1,7 v 3 l 3,11 -4,3 4,8 v 5 l 6,8 1,2 -1,5 2,1 h 3 l -1,-1 7,1 11,8 2,3 v 5 l -3,10 -1,5 -3,6 z m -222,0 -2,-5 -6,-2 -5,-9 -6,-2 2,-5 -4,1 -7,-2 v 2 l -3,1 -5,-2 -7,5 -10,-3 -2,-3 h -3 l -7,-4 -2,1 -8,-3 -2,2 -1,-3 h -4 l -3,2 -4,-3 -5,-2 H 47 l -2,-1 -1,-2 2,-4 -2,-4 2,-3 -2,-5 -5,-2 -4,2 -2,-3 2,-3 -2,-3 h -3 v -4 h -3 l -3,-3 -5,-7 5,-9 h 2 l -1,-6 1,-2 -10,-7 v -2 l 4,-11 10,-4 -5,1 v -3 l -3,-1 1,-1 -1,-2 -5,2 -1,-5 3,-3 -2,-3 2,-1 v -1 l 2,1 v -5 l -3,3 -1,-1 -1,3 -6,1 1,4 -4,1 1,6 -6,-2 -3,4 V 472 Z M 27,333 l -1,5 2,1 z M 7,300 8,298 7,295 Z"
     id="path8"
     style="stroke:#000000;stroke-width:0.2;stroke-linejoin:round" />
  <path
     fill="#f6bad3"
     d="m 167,423 2,-3 1,-6 -4,-5 -3,1 -8,-5 -2,-5 -2,-2 1,-4 -4,-3 -2,-3 5,-1 6,5 7,-2 1,-8 -2,-6 -3,-4 7,-8 -3,-4 -8,-5 -3,-4 v -1 l -1,-3 -2,3 -2,-1 1,4 h 3 v 3 l 4,1 v 2 l 1,-1 2,4 -1,2 1,-1 1,2 -2,2 -6,-2 1,4 -3,1 -1,-3 -2,4 -1,-3 -4,-1 3,-3 h -2 l -8,-8 -1,3 3,2 -1,1 -4,1 -3,-6 v -5 l -2,1 -1,-3 h -2 -8 l -1,3 -9,6 v 2 l 10,3 v 9 l 4,-1 3,-1 1,-5 3,-1 1,2 1,-2 5,1 v 2 l -3,-1 -2,1 v 7 l -3,5 1,1 v 3 l -1,-3 -2,5 -3,-1 -3,1 -1,4 h -2 l -2,-3 h -2 l -1,-2 -3,3 h -4 -3 l -1,-2 -2,1 -1,-2 -3,7 h -4 l 2,6 -3,3 2,4 -6,3 -3,-1 -1,2 h -4 l -4,3 -4,1 4,4 v 2 l 6,3 2,-4 h 3 l 1,-2 4,1 1,4 8,3 3,-4 h 3 v 1 l 4,3 h 8 l 2,-2 h 3 l 1,-2 4,1 7,3 5,7 5,1 2,3 h 6 l 3,-13 8,1 1,-1 z m 112,-132 -2,-2 2,-1 -1,-3 -6,-5 v -7 l -5,-6 -2,-7 h -5 v 9 l -5,3 4,2 1,5 -3,4 v 2 l -5,4 1,7 2,1 -2,3 h -3 2 v 6 l -2,-1 -1,2 1,1 -3,2 v -2 l -2,1 2,1 h -2 -6 l -1,-6 -6,-5 3,-5 2,-1 2,2 v -2 l -1,-2 1,-3 -2,-2 v -9 l -6,-7 1,-3 5,5 -6,-11 h -2 l -4,5 -5,2 -4,7 -2,1 -1,-2 h -2 l -2,2 2,3 h 6 l 8,-3 3,3 v 19 l -2,3 v 3 l 2,2 -6,6 4,10 -1,7 1,3 -2,7 2,4 6,-1 2,5 v 4 l -3,5 1,6 1,1 v 6 l 5,-1 2,1 1,-2 8,4 3,-2 2,-5 8,5 2,-7 -2,-5 2,-2 -1,-4 2,-7 3,4 h 7 l 2,2 h 7 l 2,2 1,-4 -2,-3 4,-8 -6,-12 v -4 l -4,-7 v -5 l -6,-5 6,-8 z m -69,-138 9,7 6,-2 -1,-9 4,-4 6,9 v -2 l 1,1 h 1 l 1,-1 2,-1 5,-5 v -6 l 6,-1 v 1 l 3,3 v 2 l 4,1 3,4 8,2 3,-2 3,5 7,1 v 4 l -7,6 1,3 -5,8 v 2 l 3,4 -3,8 h -3 l -1,2 h -8 l -2,-5 h -1 l -3,-2 -3,4 h -8 l -3,7 -5,1 -1,-1 -2,4 v 7 l 1,2 7,4 2,2 h 4 l -1,4 1,2 8,-1 3,3 h 5 l 2,1 4,-2 4,1 3,16 2,1 5,-5 2,-7 6,-5 2,-6 10,-1 7,1 6,5 6,2 3,-3 5,-8 6,-1 3,-3 3,-6 -1,-4 3,-5 -2,-5 2,-2 h 5 l 2,-3 6,-3 3,-6 11,-2 7,1 6,5 5,1 1,4 3,2 5,1 -2,4 -6,2 v 3 l -2,3 2,8 -2,3 v 2 l -2,4 3,4 h -2 l -1,5 -2,3 2,4 -2,2 v 3 l 4,4 -1,3 -3,2 -3,5 6,4 6,1 5,-3 3,3 7,-2 7,12 3,-6 -1,-4 4,-8 9,5 4,-1 5,1 6,-3 1,-5 4,-1 5,4 4,1 2,-2 -1,-3 h 4 l 3,-4 3,4 1,5 1,1 h 3 l 4,-4 5,2 3,-3 5,1 3,-3 1,-4 7,3 5,-4 h 4 l 4,1 v 4 h 5 l 4,-9 -1,-5 2,-7 5,1 5,-3 1,-5 -5,-10 2,-5 -1,-3 -4,-6 -10,-7 3,-9 -15,-5 -1,-3 1,-2 v -9 l -10,-4 3,-17 -1,-7 5,-5 7,-4 v -3 l -4,-6 -6,3 h -10 l -4,3 -7,2 -3,1 -5,-1 -2,-3 1,-3 -2,-4 -14,-7 -5,-10 -4,-1 -5,-5 -5,-1 -1,-4 -3,-1 -5,1 -2,3 -5,-2 -4,2 -5,-1 -2,-4 h -3 l -7,9 -3,1 -3,-2 -3,1 -6,-7 -4,-1 -1,-8 -8,3 -8,-1 -4,2 -5,-4 -5,-13 1,-12 -6,-3 -1,-5 -2,-1 -3,-5 -6,-2 -1,-2 -6,1 1,-3 -2,1 -1,-2 1,-2 -3,-1 1,-4 -3,-2 -2,-1 -8,7 -15,10 -7,4 -5,-1 -1,-2 -1,2 -2,-1 v 1 l -6,1 3,3 -2,3 3,7 -2,2 1,1 -5,7 h 3 l 2,-2 -1,5 -3,1 -2,-1 -1,-6 1,6 -6,9 -1,2 h 3 l -3,6 -9,9 -7,4 -2,8 -5,3 -1,3 -2,1 1,4 -2,5 1,2 h -2 l -1,3 v 3 l -1,4 -2,1 1,6 -9,10 z m 58,-118 -2,2 h 2 z m 116,97 -2,2 -7,-3 -9,-1 -6,6 -7,-1 -3,-8 -8,3 v 3 h -2 l -6,-2 v -2 l -4,-3 -2,-8 5,-4 h -3 l -2,-4 h -1 l 4,-2 -1,-1 -2,-1 -1,-2 h -3 l 2,-3 2,-1 v -4 l 1,1 v 4 l 2,-2 3,2 -1,1 9,3 6,-5 3,1 4,-3 3,-5 4,-1 1,2 h 6 v 4 l 3,2 2,6 -6,4 v 2 l 18,5 z"
     id="path10"
     style="stroke:#000000;stroke-width:0.2;stroke-linejoin:round" />
  <path
     fill="#ece3b4"
     d="m 30,406 v 4 h 3 l 2,3 -2,3 2,3 4,-2 5,2 2,5 -2,3 2,4 -2,4 1,2 2,1 h 12 l 5,2 4,3 3,-2 h 4 l 1,3 2,-2 8,3 2,-1 7,4 h 3 l 2,3 10,3 7,-5 5,2 3,-1 v -2 l 7,2 4,-1 3,-5 v -3 l 5,-3 v -3 l -2,-3 -5,-1 -5,-7 -7,-3 -4,-1 -1,2 h -3 l -2,2 h -8 l -4,-3 v -1 h -3 l -3,4 -8,-3 -1,-4 -4,-1 -1,2 h -3 l -2,4 -6,-3 v -2 l -4,-4 4,-1 4,-3 h 4 l 1,-2 3,1 6,-3 -2,-4 3,-3 -2,-6 h -5 l -4,-3 -3,2 -3,-1 -5,-3 h -4 l 4,-3 6,3 6,-1 1,1 3,-5 3,-3 -2,-3 2,-3 -3,1 -2,-2 3,1 7,-5 h 2 l 2,4 1,-1 -1,-4 -2,-1 1,-2 v -2 h -2 2 l -1,-2 -11,5 -4,5 -1,4 h -3 l -3,2 -5,6 -4,1 -1,3 h -7 l -2,-3 v 2 h -2 l -3,2 -7,-2 -4,-6 3,-9 -1,-3 1,-1 -1,-1 2,-5 -1,-2 -5,1 -1,-2 1,5 -3,2 h 5 l 1,2 -3,1 -1,4 h -3 l -1,-3 -1,3 h -3 l 1,-5 -3,2 -2,-1 3,-5 h 1 l -1,-3 4,-4 -10,4 -4,11 v 2 l 10,7 -1,2 1,6 h -2 l -5,9 5,7 3,3 z m 120,-86 v -2 h -1 v 4 z m 53,53 2,7 4,2 2,-1 4,8 2,-1 2,-2 5,1 2,-2 2,-8 h 2 l 3,-5 v -3 -6 l -1,-1 -1,-6 3,-5 v -4 l -2,-5 -6,1 -2,-4 2,-7 -1,-3 1,-7 -4,-10 6,-6 -2,-2 v -3 l 2,-3 v -19 l -3,-3 -8,3 h -6 l -2,-3 -3,4 2,3 -1,5 -1,1 4,1 v -3 l -2,1 4,-3 2,11 -1,5 -3,1 1,3 -2,5 4,1 4,6 -4,8 -4,1 -3,-3 v -2 h -2 v 3 l -7,7 -7,1 -2,-7 -5,2 v 4 l -4,-3 -6,5 -3,-2 -1,-2 1,-4 -4,1 -2,-2 1,-4 -7,-2 -2,-2 -3,1 v 4 l 3,-2 4,3 h -4 l 1,3 5,2 v 2 l -4,2 v 2 l 2,2 2,-2 h 2 l 1,3 3,-1 -1,5 2,1 -1,5 -2,1 v 3 h -2 l -2,4 -4,-1 -2,-4 -3,1 v 1 l 3,4 8,5 3,4 -7,8 3,4 2,6 -1,8 -7,2 -6,-5 -5,1 2,3 4,3 -1,4 2,2 2,5 8,5 3,-1 4,5 -1,6 -2,3 1,5 2,3 5,-1 6,-3 1,-7 4,-5 4,-1 v -6 l -1,-1 2,-2 v -9 l 1,-2 1,-5 3,-3 2,-5 2,-8 z m 62,-113 2,7 5,6 v 7 l 6,5 1,3 -2,1 2,2 2,-1 4,2 1,-3 h 8 l 3,6 4,1 1,3 2,-1 3,1 4,-1 3,4 3,-1 7,4 4,4 4,-3 -1,-2 4,-3 -3,-3 v -3 l 2,-1 5,-5 1,-4 4,-2 -1,-3 2,-4 v -6 l -3,-3 1,-7 3,-4 7,-1 3,-5 8,-4 4,2 1,2 4,-1 3,4 2,-1 3,-5 3,-2 1,-3 -4,-4 v -3 l 2,-2 -2,-4 2,-3 1,-5 h 2 l -3,-4 2,-4 v -2 l 2,-3 -2,-8 2,-3 v -3 l 6,-2 2,-4 -5,-1 -3,-2 -1,-4 -5,-1 -6,-5 -7,-1 -11,2 -3,6 -6,3 -2,3 h -5 l -2,2 2,5 -3,5 1,4 -3,6 -3,3 -6,1 -5,8 -3,3 -6,-2 -6,-5 -7,-1 -10,1 -2,6 -6,5 -2,7 -5,5 -2,-1 -3,-16 -4,-1 -4,2 -2,-1 h -5 l -3,-3 -8,1 -1,-2 1,-4 h -4 l -2,-2 -7,-4 -1,-2 v -7 l 2,-4 1,1 5,-1 3,-7 h 8 l 3,-4 3,2 h 1 l 2,5 h 8 l 1,-2 h 3 l 3,-8 -3,-4 v -2 l 5,-8 -1,-3 7,-6 v -4 l -7,-1 -3,-5 -3,2 -8,-2 -3,-4 -4,-1 v -2 l -3,-3 v -1 l -6,1 v 6 l -5,5 -2,1 -1,1 h -1 l -1,-1 v 2 l -6,-9 -4,4 1,9 -6,2 -9,-7 -3,10 4,4 v 2 l 7,5 v 4 l 4,4 v 15 l -2,7 7,7 22,22 11,21 v 6 z m 119,-128 2,-15 -18,-5 v -2 l 6,-4 -2,-6 -3,-2 v -4 h -6 l -1,-2 -4,1 -3,5 -4,3 -3,-1 -6,5 -9,-3 1,-1 -3,-2 -2,2 v -4 l -1,-1 v 4 l -2,1 -2,3 h 3 l 1,2 2,1 1,1 -4,2 h 1 l 2,4 h 3 l -5,4 2,8 4,3 v 2 l 6,2 h 2 v -3 l 8,-3 3,8 7,1 6,-6 9,1 7,3 z"
     id="path12"
     style="stroke:#000000;stroke-width:0.2;stroke-linejoin:round" />
  <path
     fill="none"
     stroke-linecap="round"
     d="m 291,33 v 3 l 1,1 4,-1 2,2 -3,3 1,2 -3,1 v 2 l -2,-1 1,4 -4,1 -3,4 v 2 l 1,-2 2,1 -1,5 3,3 h 4 l 2,2 5,-2 2,2 3,-4 5,2 v 4 l 6,-1 2,3 6,1 1,-1 3,2 5,-2 4,-5 8,-5 m 41,29 -1,2 h -4 l -13,4 m 100,25 -8,4 -2,4 -7,4 -1,3 h -4 l -4,2 -7,6 -1,5 -2,1 -4,-2 -3,2 -10,-6 -1,2 -4,-1 -3,-3 -8,-2 -3,5 -3,1 m -46,41 -4,-1 -6,-6 -7,-1 -3,2 h -12 v -3 h -3 v 2 l -6,2 v 4 m -104,189 2,-2 v -5 l -6,-19 -8,-2 -3,-4 -1,-5 -1,1 v -3 l -5,3 -4,-5 -3,4 -2,-1 -6,-5 -3,-6 v -4 l -10,-3 m 31,23 h -3 3 m 0,0 3,2 -3,-2 m -109,47 -1,-4 h 1 l 1,-4 -3,-3 m -43,30 3,-1 8,-6 3,3 4,-2 h 8 l 9,-4 2,2 3,-1 4,-7 m 156,-182 -3,3"
     id="path14"
     style="stroke:#000000;stroke-width:0.2;stroke-linejoin:round" />
  <path
     fill="none"
     stroke-width="1.6"
     stroke-linecap="round"
     d="m 307,184 -2,-1 -2,2 -14,-1 v 2 l -1,-5 h -2 l -1,-1 h -2 v 1 h -8 l -2,2 -3,-4 v -2 l 5,-8 -1,-3 7,-6 v -4 l 2,-1 -1,-1 1,-1 2,1 4,-3 3,6 4,-1 4,3 -2,5 2,1 5,-7 5,-2 2,4 12,2 2,3 5,-1 5,4 h 6 l 2,6 h 5 l -2,4 1,7 6,-3 3,-6 11,-2 7,1 6,5 5,1 1,4 3,2 5,1 h 2 l -5,-4 4,-1 -1,-4 2,-4 -4,-3 1,-5 -4,-8 3,-4 -2,-2 2,-2 -2,-4 3,-3 -5,-2 -5,-10 2,-15 -18,-5 v -2 l 6,-4 -2,-6 -3,-2 v -4 h -6 l -1,-2 -4,1 -3,5 -4,3 -3,-1 -6,5 -9,-3 1,-1 -3,-2 -2,2 v -4 l -1,-1 v 4 l -2,1 -2,3 -6,-1 v -6 l -1,-2 -2,2 v -1 l -5,1 -13,-1 -2,-4 -6,-2 -4,-5 -2,-7 -3,-3 -5,2 -1,-4 -3,4 1,2 h -2 v -2 l -10,-5 m -32,73 6,9 v -2 l 1,1 h 1 l 1,-1 2,-1 5,-5 v -6 l 6,-1 v 1 m 89,64 -3,6 -3,3 -6,1 -5,8 -3,3 1,2 v 6 l 3,1 7,1 5,-2 1,-3 5,6 3,-3 3,2 3,-1 4,4 -2,3 3,3 -1,2 2,4"
     id="path16"
     style="stroke:#000000;stroke-linejoin:round;stroke-width:0.2;stroke-miterlimit:4;stroke-dasharray:none" />
  <g
     id="g28">
    <rect
       id="rect22"
       height="36"
       width="215"
       y="4"
       x="4"
       opacity="0.75"
       fill="white" />
    <rect
       id="rect24"
       height="8"
       width="207"
       y="8"
       x="8"
       fill="black" />
    <text
       id="text26"
       y="36"
       x="111"
       font-family="sans-serif"
       font-size="24"
       text-anchor="middle"
       fill="black">50km</text>
  </g>
</svg>
