<?xml version="1.0" encoding="UTF-8" standalone="no"?>
<svg
   xmlns:dc="http://purl.org/dc/elements/1.1/"
   xmlns:cc="http://creativecommons.org/ns#"
   xmlns:rdf="http://www.w3.org/1999/02/22-rdf-syntax-ns#"
   xmlns:svg="http://www.w3.org/2000/svg"
   xmlns="http://www.w3.org/2000/svg"
   xmlns:sodipodi="http://sodipodi.sourceforge.net/DTD/sodipodi-0.dtd"
   xmlns:inkscape="http://www.inkscape.org/namespaces/inkscape"
   xml:space="preserve"
   enable-background="new 0 0 785 625"
   viewBox="0 0 532.0719 417.57541"
   height="417.57541"
   width="532.0719"
   y="0px"
   x="0px"
   inkscape:version="1.0 (4035a4fb49, 2020-05-01)"
   sodipodi:docname="Kochi.svg"
   id="svg2"
   version="1.1"><metadata
   id="metadata124"><rdf:RDF><cc:Work
       rdf:about=""><dc:format>image/svg+xml</dc:format><dc:type
         rdf:resource="http://purl.org/dc/dcmitype/StillImage" /></cc:Work></rdf:RDF></metadata><defs
   id="defs122">
	
	
	
	
		

		
		
		
		
		
		
		
		
		
		
		
		
		
		
		
		
		
		
		
		
		
		
		
		
		
		
		
		
		
		
		
		
		
		
		
		
	</defs>
<sodipodi:namedview
   inkscape:document-rotation="0"
   inkscape:pageopacity="0"
   inkscape:pageshadow="2"
   inkscape:window-width="1920"
   inkscape:window-height="1017"
   inkscape:window-x="-8"
   inkscape:window-y="-8"
   inkscape:window-maximized="1"
   inkscape:current-layer="svg2"
   id="namedview206"
   borderopacity="1"
   pagecolor="#ffffff"
   bordercolor="#666666"
   objecttolerance="10"
   gridtolerance="10"
   guidetolerance="10"
   showgrid="false"
   inkscape:zoom="1"
   inkscape:cx="167.12822"
   inkscape:cy="128.35188">
	</sodipodi:namedview>
<title
   id="title4">高知県区画図</title>
<rect
   style="stroke-width:0.673509"
   id="rect46"
   x="-6.7350874"
   y="-6.7350874"
   fill="#ffffff"
   width="545.54205"
   height="431.04559" /><rect
   style="stroke-width:0.673509"
   id="rect48"
   y="0"
   fill="#eeeeee"
   width="532.0719"
   height="417.57541"
   x="0" /><a
   style="stroke-width:0.29695235;stroke-miterlimit:4;stroke-dasharray:none"
   transform="scale(0.67350872)"
   id="a52">
			<g
   style="stroke-width:0.29695235;stroke-miterlimit:4;stroke-dasharray:none"
   id="use54">
				
					<path
   style="stroke-width:0.29695235;stroke-miterlimit:4;stroke-dasharray:none"
   d="m 768,188 v 1 l 3,1 -2,-4 z M 512,-4 l -6,7 4,1 2,4 -5,3 v 9 l -7,5 1,6 6,5 16,4 9,1 4,6 15,-3 1,3 h 12 l 8,-4 15,19 h 8 l 3,6 5,1 5,-5 6,1 4,-5 V 50 l 9,-3 6,-2 4,9 14,-4 1,9 3,5 7,10 v 7 l 3,23 2,4 -5,10 26,-3 11,5 6,-1 5,2 -2,5 v 8 l 6,4 -15,11 3,7 8,2 -2,5 6,4 5,14 9,-4 8,8 18,-5 10,4 -1,2 1,1 2,1 3,-5 -3,-3 h -3 l 2,-1 v -4 l 3,-5 8,2 9,-2 -11,-1 11,-2 2,-2 -3,-1 3,1 v -5 l 7,-6 V -4 Z m 282,153 h -5 -3 l 1,-3 5,-1 2,-2 z"
   stroke-linejoin="round"
   stroke-width="0.2"
   stroke="#000000"
   fill="#aaaaaa"
   inkscape:connector-curvature="0"
   id="_x33_6000" />
			</g>
		</a><a
   style="stroke-width:0.29695235;stroke-miterlimit:4;stroke-dasharray:none"
   transform="scale(0.67350872)"
   id="a56">
			<g
   style="stroke-width:0.29695235;stroke-miterlimit:4;stroke-dasharray:none"
   id="use58">
				
					<path
   style="stroke-width:0.29695235;stroke-miterlimit:4;stroke-dasharray:none"
   d="m 7,482 v -4 l -7,4 z M -4,430 h 2 l 1,-1 -3,-7 z m 0,-202 1,-1 z m 0,77 4,-7 3,4 6,1 5,-2 v -3 l 9,2 -1,-2 2,-3 2,7 6,-3 3,2 3,4 h -8 l -2,3 -9,7 -1,6 9,2 2,4 11,-1 3,-4 v 6 l -7,3 v 4 l 9,6 3,-2 -1,6 3,2 -7,-3 v 3 l 1,3 -11,-1 -5,7 -1,-1 v 5 l -5,-1 4,2 4,-1 -2,3 h 3 l 1,7 -5,1 1,-4 -4,-2 1,6 -4,3 -4,-3 4,-2 -3,-1 2,-2 -1,-2 -4,4 -3,-3 -4,-5 2,-4 -2,-1 3,-2 H 8 l -3,3 -7,-5 -2,-1 z m 0,48 3,2 3,8 3,-3 v 4 l 6,6 -1,2 -4,-3 -3,3 -3,-1 v 3 5 l -2,-2 -2,1 z m 316,-357 -26,7 -3,-6 -3,7 -2,-3 3,-4 -1,-1 z m -38,0 -3,4 1,-4 z m -3,0 -2,3 1,-3 z m -134,0 -4,14 -10,6 -8,-4 -1,2 -4,12 8,7 -5,-2 2,7 -4,1 v 6 l -6,3 4,11 -4,-2 -1,3 1,2 1,8 h 5 l -3,2 1,4 h 1 l -1,10 -8,7 -13,23 -25,19 -22,8 -16,10 h -6 l -2,6 -13,14 -5,12 -1,1 -2,1 v 191 l 4,2 3,2 -1,5 4,2 1,1 v -5 l 3,2 5,-2 1,4 1,-4 7,2 2,1 -1,4 2,-1 -1,3 5,3 -10,-4 -7,3 v -4 l -10,2 6,1 5,6 -1,5 4,1 -5,4 -2,-2 v 2 l 3,4 -4,2 5,3 1,-5 1,-2 3,4 -2,2 3,3 -2,5 -2,-2 1,-2 -8,1 -5,3 -2,-5 -1,5 -3,2 4,5 3,3 v -3 l -1,-3 8,-1 1,4 2,-3 4,1 -2,8 3,10 1,-4 2,2 4,4 -2,6 2,4 2,4 h 6 v 2 l 5,2 v -3 l 7,6 -2,3 -6,-3 -3,1 -7,-4 -7,2 2,-4 2,-4 -4,-1 2,-3 -3,3 -3,5 -6,1 14,7 -1,3 -4,5 -3,-3 -1,4 -3,-2 -5,1 4,3 2,6 -1,7 7,4 3,-3 7,1 3,-5 2,-4 -10,3 -3,-2 7,-5 5,-2 -9,-4 v -3 l 5,-1 8,1 2,4 11,5 -1,-3 -6,-1 -1,-4 3,1 5,-2 5,3 10,-2 -7,4 v 4 l 5,4 -1,4 11,-4 13,-1 -1,-7 3,-1 10,-3 -1,-8 4,-5 -6,-18 v -4 l 1,-9 -9,-10 3,-3 3,-11 -3,-11 -7,-3 -3,-8 -4,-1 1,-8 -7,-10 3,-6 6,-2 v 1 l -1,3 22,21 17,-18 4,-7 1,-7 14,-2 -1,-17 6,-11 v -2 l 2,-4 9,-3 21,-9 13,-6 2,-7 1,-2 -6,-13 -12,-5 -1,-6 -2,-4 1,-4 -2,-1 -6,-1 -4,-17 1,-5 -8,-6 1,-4 15,-7 22,5 17,-1 7,3 12,-4 11,-3 -1,-5 9,-10 1,-7 11,-8 -1,-10 -6,-7 4,-9 9,-7 -5,-6 2,-8 v -1 l 2,-6 16,-4 2,-15 10,-6 -2,-6 8,-7 -1,-7 v -3 l 10,-8 3,-9 1,-4 h 5 l 7,7 12,-4 6,-15 5,-6 6,1 7,6 7,1 12,-10 14,5 4,-6 6,-1 15,2 1,-1 7,2 6,2 8,-3 v -2 l 1,-4 7,-3 5,-12 7,-2 11,7 7,-6 11,4 6,-6 7,1 7,-5 v -9 l 5,-3 -2,-4 -4,-1 6,-7 z m -107,347 5,5 6,-4 -7,-7 z m -12,-21 -2,-1 -2,8 6,-4 z m 4,-226 4,-1 -3,-2 -5,3 z m 14,-58 6,4 v -5 z m 69,-24 3,-1 -1,-5 5,-6 h -5 l -2,3 h -3 v 5 h -8 l -3,5 1,1 3,-2 3,3 -2,11 5,-1 h 5 l -7,-8 1,-4 z M 46,0 52,-1 50,-3 36,0 41,2 Z"
   stroke-linejoin="round"
   stroke-width="0.2"
   stroke="#000000"
   fill="#aaaaaa"
   inkscape:connector-curvature="0"
   id="_x33_8000" />
			</g>
		</a><a
   style="stroke-width:0.29695235;stroke-miterlimit:4;stroke-dasharray:none"
   transform="scale(0.67350872)"
   id="a60">
			<g
   style="stroke-width:0.29695235;stroke-miterlimit:4;stroke-dasharray:none"
   id="use62">
				
					<path
   style="stroke-width:0.29695235;stroke-miterlimit:4;stroke-dasharray:none"
   d="m 462,205 h 3 v -3 l -3,-1 z m -44,-5 v 1 l -9,6 10,11 v 5 l 8,9 23,-12 17,-9 -8,2 1,-5 -6,-5 6,-7 -3,-4 6,-1 v 3 l -1,7 2,-3 1,5 -3,3 -1,5 16,-9 2,-11 7,-8 -1,-5 -4,-2 5,-2 -7,-2 3,-5 h -8 l -8,-9 -2,-8 6,-3 -2,-9 -7,-7 h -9 l -2,-6 -8,-2 -5,6 -11,-1 -5,5 -6,-5 -15,5 -6,10 v 10 l 4,1 3,5 -6,7 7,9 8,1 3,3 7,-3 5,5 -4,13 -4,2 z"
   stroke-linejoin="round"
   stroke-width="0.2"
   stroke="#000000"
   fill="#16a34a"
   inkscape:connector-curvature="0"
   id="_x33_9201" />
			</g>
		</a><a
   style="stroke-width:0.29695235;stroke-miterlimit:4;stroke-dasharray:none"
   transform="scale(0.67350872)"
   id="a64">
			<g
   style="stroke-width:0.29695235;stroke-miterlimit:4;stroke-dasharray:none"
   id="use66">
				
					<path
   style="stroke-width:0.29695235;stroke-miterlimit:4;stroke-dasharray:none"
   d="m 684,309 1,3 10,-2 3,4 8,10 4,10 2,2 2,-3 2,-13 1,-13 3,-14 2,-11 4,-12 -2,-9 11,-20 v -2 l -2,-3 -1,-6 -4,-2 -9,-11 h -1 l -15,5 -5,4 -5,-3 -7,8 -3,6 -5,3 -3,12 -8,4 -1,6 -13,8 13,10 6,10 5,3 6,5 z"
   stroke-linejoin="round"
   stroke-width="0.2"
   stroke="#000000"
   fill="#16a34a"
   inkscape:connector-curvature="0"
   id="_x33_9202" />
			</g>
		</a><a
   style="stroke-width:0.29695235;stroke-miterlimit:4;stroke-dasharray:none"
   transform="scale(0.67350872)"
   id="a68">
			<g
   style="stroke-width:0.29695235;stroke-miterlimit:4;stroke-dasharray:none"
   id="use70">
				
					<path
   style="stroke-width:0.29695235;stroke-miterlimit:4;stroke-dasharray:none"
   d="m 566,204 48,15 2,5 -1,5 6,8 3,-7 8,-8 3,-17 8,-6 3,-7 3,-4 v -9 l -5,-1 -2,-4 1,-5 4,-2 1,-6 -4,-3 2,-2 4,-13 11,-4 6,-8 -9,-7 4,-6 5,-10 -2,-4 -12,3 -4,-3 -3,3 h -6 l -4,7 -7,5 -7,11 -16,11 -7,-1 -2,-6 -5,3 -4,5 v 14 l -6,4 -2,2 4,4 3,10 -5,7 -2,11 -7,7 -1,-5 -4,3 z"
   stroke-linejoin="round"
   stroke-width="0.2"
   stroke="#000000"
   fill="#16a34a"
   inkscape:connector-curvature="0"
   id="_x33_9203" />
			</g>
		</a><a
   style="stroke-width:0.29695235;stroke-miterlimit:4;stroke-dasharray:none"
   transform="scale(0.67350872)"
   id="a72">
			<g
   style="stroke-width:0.29695235;stroke-miterlimit:4;stroke-dasharray:none"
   id="use74">
				
					<path
   style="stroke-width:0.29695235;stroke-miterlimit:4;stroke-dasharray:none"
   d="m 509,177 1,-4 v -2 h -4 l -5,-13 2,-23 h -4 l -5,1 -4,-5 -6,2 -10,-20 -5,-2 -7,6 -2,1 1,13 7,7 2,9 -6,3 2,8 8,9 h 8 l -3,5 7,2 -5,2 4,2 1,5 -7,8 -2,11 3,-1 29,-6 z"
   stroke-linejoin="round"
   stroke-width="0.2"
   stroke="#000000"
   fill="#16a34a"
   inkscape:connector-curvature="0"
   id="_x33_9204" />
			</g>
		</a><a
   style="stroke-width:0.29695235;stroke-miterlimit:4;stroke-dasharray:none"
   transform="scale(0.67350872)"
   id="a76">
			<g
   style="stroke-width:0.29695235;stroke-miterlimit:4;stroke-dasharray:none"
   id="use78">
				
					<path
   style="stroke-width:0.29695235;stroke-miterlimit:4;stroke-dasharray:none"
   d="m 406,230 2,12 4,-6 6,2 9,-6 -8,-9 v -5 l -10,-11 -2,-6 -15,1 v 5 l -22,6 -2,-2 -5,4 2,6 -8,6 -1,5 v 1 l 2,5 3,7 5,-4 h 7 l 6,-6 5,4 12,-11 z m 3,17 3,4 h 6 v -4 l 1,-2 -6,-4 -5,4 z"
   stroke-linejoin="round"
   stroke-width="0.2"
   stroke="#000000"
   fill="#16a34a"
   inkscape:connector-curvature="0"
   id="_x33_9205" />
			</g>
		</a><a
   style="stroke-width:0.29695235;stroke-miterlimit:4;stroke-dasharray:none"
   transform="scale(0.67350872)"
   id="a80">
			<g
   style="stroke-width:0.29695235;stroke-miterlimit:4;stroke-dasharray:none"
   id="use82">
				
					<path
   style="stroke-width:0.29695235;stroke-miterlimit:4;stroke-dasharray:none"
   d="m 373,261 10,-1 1,2 2,2 -1,-3 7,-2 3,-1 2,4 2,-4 4,-3 3,2 v -2 h 5 l 1,-4 -3,-4 -5,-1 -2,-5 -3,4 -3,6 -1,3 -3,-5 -1,3 -3,-2 v 5 l -6,-6 -1,8 -3,-1 2,-3 -5,1 7,-8 h 12 l 4,-4 -4,-2 3,-3 5,2 1,-3 1,5 4,1 -2,-12 -10,-2 -12,11 -5,-4 -6,6 h -7 l -5,4 -3,-7 -2,-5 v -1 l -12,9 -7,-1 -4,5 -17,1 1,12 -4,3 h -10 v 1 10 l 7,-1 h 14 l 15,19 v -1 l -1,-13 8,-4 -1,-4 7,-2 -4,-8 h 4 l 4,7 -6,4 4,4 5,-3 5,1 -2,4 2,2 h -5 l 2,4 -2,1 2,1 3,-4 h 3 l -1,-10 1,-4 z m -20,18 2,2 1,-2 z"
   stroke-linejoin="round"
   stroke-width="0.2"
   stroke="#000000"
   fill="#16a34a"
   inkscape:connector-curvature="0"
   id="_x33_9206" />
			</g>
		</a><a
   style="stroke-width:0.29695235;stroke-miterlimit:4;stroke-dasharray:none"
   transform="scale(0.67350872)"
   id="a84">
			<g
   style="stroke-width:0.29695235;stroke-miterlimit:4;stroke-dasharray:none"
   id="use86">
				
					<path
   style="stroke-width:0.29695235;stroke-miterlimit:4;stroke-dasharray:none"
   d="m 113,516 v -3 l -3,3 -1,-6 -3,7 5,5 4,-2 8,7 v 7 l 10,4 2,-2 7,-2 -2,-6 2,-8 -8,-13 3,-3 3,-4 10,5 v -11 l 6,1 5,-10 -3,-8 -2,-24 5,-4 -8,-5 -5,-10 -5,3 -7,-3 -4,3 -5,-3 -2,-3 4,-8 -3,-2 -9,-3 -3,-6 -21,-10 3,11 -3,11 -3,3 9,10 -1,9 v 4 l 6,18 -4,5 1,8 -10,3 -3,1 1,7 7,3 v -2 l 3,1 -2,-2 7,2 -1,-3 3,-1 -1,4 3,1 h -2 l -3,2 5,1 v -6 h 4 l 2,8 -2,4 4,1 -1,2 -6,-1 7,7 z m -93,37 3,1 1,-4 -4,-2 -3,4 z m 29,27 -5,-6 -1,3 1,5 -5,5 2,1 4,5 -3,7 12,-5 -2,-7 2,-4 z m -28,3 -1,-3 -2,4 z"
   stroke-linejoin="round"
   stroke-width="0.2"
   stroke="#000000"
   fill="#16a34a"
   inkscape:connector-curvature="0"
   id="_x33_9208" />
			</g>
		</a><a
   style="stroke-width:0.29695235;stroke-miterlimit:4;stroke-dasharray:none"
   transform="scale(0.67350872)"
   id="a88">
			<g
   style="stroke-width:0.29695235;stroke-miterlimit:4;stroke-dasharray:none"
   id="use90">
				
					<path
   style="stroke-width:0.29695235;stroke-miterlimit:4;stroke-dasharray:none"
   d="m 142,574 1,3 6,2 2,-3 8,-5 5,-9 3,2 2,-3 5,-3 3,6 -1,6 4,-2 -1,-9 7,-1 11,2 v 4 l 5,-2 1,2 2,-4 4,3 -4,3 3,5 4,-7 5,1 -7,7 5,3 2,7 -1,4 2,1 h 2 4 l 4,2 3,2 h 6 l 2,-5 -2,-14 -5,-8 -1,-4 -11,-5 -9,-8 v -6 l 3,-2 -1,-5 -2,-7 1,-5 2,2 10,-2 4,1 1,-4 5,-6 -1,-9 1,-5 -11,-4 -7,1 -1,4 -6,-1 -8,-12 h -4 l -3,11 -3,5 4,6 v 7 l -5,-2 -3,4 -18,3 -3,3 -11,-2 -2,-4 -5,-4 -2,3 -4,-2 v 5 l -2,8 2,6 -7,2 -2,2 3,7 -4,8 9,9 z"
   stroke-linejoin="round"
   stroke-width="0.2"
   stroke="#000000"
   fill="#16a34a"
   inkscape:connector-curvature="0"
   id="_x33_9209" />
			</g>
		</a><a
   style="stroke-width:0.29695235;stroke-miterlimit:4;stroke-dasharray:none"
   transform="scale(0.67350872)"
   id="a92">
			<g
   style="stroke-width:0.29695235;stroke-miterlimit:4;stroke-dasharray:none"
   id="use94">
				
					<path
   style="stroke-width:0.29695235;stroke-miterlimit:4;stroke-dasharray:none"
   d="m 232,468 -2,-3 -8,-1 -2,-1 2,-2 -1,-5 -6,-2 -4,-6 5,-8 3,-26 5,-1 10,-11 h 15 l 3,-6 2,-5 -9,-3 -5,-6 -4,2 h -4 l -4,-6 -8,-1 -4,7 h -8 l -4,4 -14,-3 -10,-7 1,-10 -7,1 -17,-7 2,-8 -2,-6 3,-9 -9,1 -1,-2 -6,-11 -6,11 1,17 -14,2 -1,7 -4,7 -17,18 -22,-21 1,-3 v -1 l -6,2 -3,6 7,10 -1,8 4,1 3,8 7,3 21,10 3,6 9,3 3,2 -4,8 2,3 5,3 4,-3 7,3 5,-3 5,10 8,5 -5,4 2,24 3,8 27,-1 9,3 h 4 l 8,12 6,1 1,-4 7,-1 11,4 v -1 l -5,-7 -3,-2 4,-6 -3,-4 z"
   stroke-linejoin="round"
   stroke-width="0.2"
   stroke="#000000"
   fill="#16a34a"
   inkscape:connector-curvature="0"
   id="_x33_9210" />
			</g>
		</a><a
   style="stroke-width:0.29695235;stroke-miterlimit:4;stroke-dasharray:none"
   transform="scale(0.67350872)"
   id="a96">
			<g
   style="stroke-width:0.29695235;stroke-miterlimit:4;stroke-dasharray:none"
   id="use98">
				
					<path
   style="stroke-width:0.29695235;stroke-miterlimit:4;stroke-dasharray:none"
   d="m 509,177 v 18 l 27,-1 4,2 -3,2 3,4 5,2 10,-17 4,-1 7,-7 v -7 h 10 l 8,-6 -4,-4 2,-2 6,-4 v -14 l 4,-5 -5,-5 -14,8 -1,6 -16,15 -1,-3 -4,-3 -21,11 -3,-4 -10,4 1,-3 -8,10 z"
   stroke-linejoin="round"
   stroke-width="0.2"
   stroke="#000000"
   fill="#16a34a"
   inkscape:connector-curvature="0"
   id="_x33_9211" />
			</g>
		</a><a
   style="stroke-width:0.29695235;stroke-miterlimit:4;stroke-dasharray:none"
   transform="scale(0.67350872)"
   id="a100">
			<g
   style="stroke-width:0.29695235;stroke-miterlimit:4;stroke-dasharray:none"
   id="use102">
				
					<path
   style="stroke-width:0.29695235;stroke-miterlimit:4;stroke-dasharray:none"
   d="m 636,114 4,-7 h 6 l 3,-3 4,3 12,-3 -3,-23 v -7 l -7,-10 -3,-5 -1,-9 -14,4 -4,-9 -6,2 -9,3 v 10 l -4,5 -6,-1 -5,5 -5,-1 -3,-6 h -8 l -2,3 -6,7 v 5 l -5,1 -4,8 -6,6 -3,-2 -4,3 -6,9 -9,-5 -10,6 -2,6 -17,13 -21,-19 -18,10 10,20 6,-2 4,5 5,-1 h 4 l -2,23 5,13 h 4 v 2 l 8,-10 -1,3 10,-4 3,4 21,-11 4,3 1,3 16,-15 1,-6 14,-8 5,5 5,-3 2,6 7,1 16,-11 7,-11 z"
   stroke-linejoin="round"
   stroke-width="0.2"
   stroke="#000000"
   fill="#16a34a"
   inkscape:connector-curvature="0"
   id="_x33_9212" />
			</g>
		</a><a
   style="stroke-width:0.29695235;stroke-miterlimit:4;stroke-dasharray:none"
   transform="scale(0.67350872)"
   id="a104">
			<g
   style="stroke-width:0.29695235;stroke-miterlimit:4;stroke-dasharray:none"
   id="use106">
				
					<path
   style="stroke-width:0.29695235;stroke-miterlimit:4;stroke-dasharray:none"
   d="m 733,236 2,3 3,-11 10,-16 9,-11 -3,-3 3,-4 1,-4 h 5 l -3,-3 2,1 1,-2 1,-2 -10,-4 -18,5 -8,-8 -9,4 -1,11 9,12 -2,8 -7,-2 1,7 9,11 4,2 z m 34,-46 v 1 z"
   stroke-linejoin="round"
   stroke-width="0.2"
   stroke="#000000"
   fill="#16a34a"
   inkscape:connector-curvature="0"
   id="_x33_9301" />
			</g>
		</a><a
   style="stroke-width:0.29695235;stroke-miterlimit:4;stroke-dasharray:none"
   transform="scale(0.67350872)"
   id="a108">
			<g
   style="stroke-width:0.29695235;stroke-miterlimit:4;stroke-dasharray:none"
   id="use110">
				
					<path
   style="stroke-width:0.29695235;stroke-miterlimit:4;stroke-dasharray:none"
   d="m 653,270 13,-8 1,-6 8,-4 3,-12 5,-3 -10,-1 -10,7 -12,-3 -6,6 -1,3 8,5 z"
   stroke-linejoin="round"
   stroke-width="0.2"
   stroke="#000000"
   fill="#16a34a"
   inkscape:connector-curvature="0"
   id="_x33_9302" />
			</g>
		</a><a
   style="stroke-width:0.29695235;stroke-miterlimit:4;stroke-dasharray:none"
   transform="scale(0.67350872)"
   id="a112">
			<g
   style="stroke-width:0.29695235;stroke-miterlimit:4;stroke-dasharray:none"
   id="use114">
				
					<path
   style="stroke-width:0.29695235;stroke-miterlimit:4;stroke-dasharray:none"
   d="m 651,240 v -3 l -5,-1 3,-5 -5,1 -1,8 -6,3 -1,3 8,3 1,-3 z"
   stroke-linejoin="round"
   stroke-width="0.2"
   stroke="#000000"
   fill="#16a34a"
   inkscape:connector-curvature="0"
   id="_x33_9303" />
			</g>
		</a><a
   style="stroke-width:0.29695235;stroke-miterlimit:4;stroke-dasharray:none"
   transform="scale(0.67350872)"
   id="a116">
			<g
   style="stroke-width:0.29695235;stroke-miterlimit:4;stroke-dasharray:none"
   id="use118">
				
					<path
   style="stroke-width:0.29695235;stroke-miterlimit:4;stroke-dasharray:none"
   d="m 622,238 14,8 1,-3 6,-3 1,-8 5,-1 v -19 l 8,-5 10,-9 -17,-9 -1,-1 -3,4 -3,7 -8,6 -3,17 -8,8 -3,7 v 1 z"
   stroke-linejoin="round"
   stroke-width="0.2"
   stroke="#000000"
   fill="#16a34a"
   inkscape:connector-curvature="0"
   id="_x33_9304" />
			</g>
		</a><a
   style="stroke-width:0.29695235;stroke-miterlimit:4;stroke-dasharray:none"
   transform="scale(0.67350872)"
   id="a120">
			<g
   style="stroke-width:0.29695235;stroke-miterlimit:4;stroke-dasharray:none"
   id="use122">
				
					<path
   style="stroke-width:0.29695235;stroke-miterlimit:4;stroke-dasharray:none"
   d="m 646,236 5,1 v 3 l 12,3 10,-7 10,1 3,-6 7,-8 5,3 5,-4 15,-5 h 1 l -1,-7 7,2 2,-8 -9,-12 1,-11 -5,-14 -6,-4 2,-5 -8,-2 -5,10 -13,-3 -6,3 -1,9 -4,3 3,8 -9,12 -10,9 -8,5 v 19 z"
   stroke-miterlimit="10"
   stroke-width="0.2"
   stroke="#000000"
   fill="#16a34a"
   inkscape:connector-curvature="0"
   id="_x33_9305" />
			</g>
		</a><a
   style="stroke-width:0.29695235;stroke-miterlimit:4;stroke-dasharray:none"
   transform="scale(0.67350872)"
   id="a124">
			<g
   style="stroke-width:0.29695235;stroke-miterlimit:4;stroke-dasharray:none"
   id="use126">
				
					<path
   style="stroke-width:0.29695235;stroke-miterlimit:4;stroke-dasharray:none"
   d="m 650,189 17,9 9,-12 -3,-8 4,-3 1,-9 6,-3 13,3 5,-10 -3,-7 15,-11 -6,-4 v -8 l 2,-5 -5,-2 -6,1 -11,-5 -26,3 -4,6 9,7 -6,8 -11,4 -4,13 -2,2 4,3 -1,6 -4,2 -1,5 2,4 5,1 v 9 z"
   stroke-miterlimit="10"
   stroke-width="0.2"
   stroke="#000000"
   fill="#16a34a"
   inkscape:connector-curvature="0"
   id="_x33_9306" />
			</g>
		</a><a
   style="stroke-width:0.29695235;stroke-miterlimit:4;stroke-dasharray:none"
   transform="scale(0.67350872)"
   id="a128">
			<g
   style="stroke-width:0.29695235;stroke-miterlimit:4;stroke-dasharray:none"
   id="use130">
				
					<path
   style="stroke-width:0.29695235;stroke-miterlimit:4;stroke-dasharray:none"
   d="m 566,204 2,-5 4,-3 1,5 7,-7 2,-11 5,-7 -3,-10 -8,6 h -10 v 7 l -7,7 -4,1 -10,17 9,-1 z"
   stroke-miterlimit="10"
   stroke-width="0.2"
   stroke="#000000"
   fill="#16a34a"
   inkscape:connector-curvature="0"
   id="_x33_9307" />
			</g>
		</a><a
   style="stroke-width:0.29695235;stroke-miterlimit:4;stroke-dasharray:none"
   transform="scale(0.67350872)"
   id="a132">
			<g
   style="stroke-width:0.29695235;stroke-miterlimit:4;stroke-dasharray:none"
   id="use134">
				
					<path
   style="stroke-width:0.29695235;stroke-miterlimit:4;stroke-dasharray:none"
   d="M 492,103 V 84 l -5,-13 4,-6 -1,-6 -9,-8 -7,-1 -5,-8 -1,-4 1,-6 -11,-7 -7,2 -5,12 -7,3 -1,4 v 2 l 7,7 10,21 -2,7 11,8 2,4 -2,4 5,12 5,2 z"
   stroke-linejoin="round"
   stroke-width="0.2"
   stroke="#000000"
   fill="#16a34a"
   inkscape:connector-curvature="0"
   id="_x33_9341" />
			</g>
		</a><a
   style="stroke-width:0.29695235;stroke-miterlimit:4;stroke-dasharray:none"
   transform="scale(0.67350872)"
   id="a136">
			<g
   style="stroke-width:0.29695235;stroke-miterlimit:4;stroke-dasharray:none"
   id="use138">
				
					<path
   style="stroke-width:0.29695235;stroke-miterlimit:4;stroke-dasharray:none"
   d="m 585,65 2,-3 -15,-19 -8,4 h -12 l -1,-3 -15,3 -4,-6 -9,-1 -16,-4 -6,-5 -1,-6 -7,-1 -6,6 -11,-4 -7,6 -1,6 1,4 5,8 7,1 9,8 1,6 -4,6 5,13 v 19 l 21,19 17,-13 2,-6 10,-6 9,5 6,-9 4,-3 3,2 6,-6 4,-8 5,-1 v -5 z"
   stroke-linejoin="round"
   stroke-width="0.2"
   stroke="#000000"
   fill="#16a34a"
   inkscape:connector-curvature="0"
   id="_x33_9344" />
			</g>
		</a><a
   style="stroke-width:0.29695235;stroke-miterlimit:4;stroke-dasharray:none"
   transform="scale(0.67350872)"
   id="a140">
			<g
   style="stroke-width:0.29695235;stroke-miterlimit:4;stroke-dasharray:none"
   id="use142">
				
					<path
   style="stroke-width:0.29695235;stroke-miterlimit:4;stroke-dasharray:none"
   d="m 393,121 1,3 15,-7 4,4 2,7 6,5 5,-5 11,1 5,-6 8,2 2,6 h 9 l -1,-13 2,-1 7,-6 -5,-12 2,-4 -2,-4 -11,-8 2,-7 -10,-21 -7,-7 -8,3 -3,9 5,9 -17,11 -14,1 -10,6 -3,-1 -6,1 -4,3 4,15 5,2 1,6 6,2 z"
   stroke-linejoin="round"
   stroke-width="0.2"
   stroke="#000000"
   fill="#16a34a"
   inkscape:connector-curvature="0"
   id="_x33_9363" />
			</g>
		</a><a
   style="stroke-width:0.29695235;stroke-miterlimit:4;stroke-dasharray:none"
   transform="scale(0.67350872)"
   id="a144">
			<g
   style="stroke-width:0.29695235;stroke-miterlimit:4;stroke-dasharray:none"
   id="use146">
				
					<path
   style="stroke-width:0.29695235;stroke-miterlimit:4;stroke-dasharray:none"
   d="m 382,87 6,-1 3,1 10,-6 14,-1 17,-11 -5,-9 3,-9 -6,-2 -7,-2 -1,1 -15,-2 -6,1 -4,6 -14,-5 -12,10 13,12 -3,4 5,4 z"
   stroke-miterlimit="10"
   stroke-width="0.2"
   stroke="#000000"
   fill="#16a34a"
   inkscape:connector-curvature="0"
   id="_x33_9364" />
			</g>
		</a><a
   style="stroke-width:0.29695235;stroke-miterlimit:4;stroke-dasharray:none"
   transform="scale(0.67350872)"
   id="a148">
			<g
   style="stroke-width:0.29695235;stroke-miterlimit:4;stroke-dasharray:none"
   id="use150">
				
					<path
   style="stroke-width:0.29695235;stroke-miterlimit:4;stroke-dasharray:none"
   d="m 394,143 6,-10 15,-5 -2,-7 -4,-4 -15,7 -1,-3 1,-6 -6,-2 -1,-6 -5,-2 -4,-15 4,-3 -2,-9 -5,-4 3,-4 -13,-12 -7,-1 -7,-6 -6,-1 -5,6 -6,15 -12,4 -7,-7 h -5 l -1,4 -3,9 -10,8 v 3 l 1,7 6,11 22,14 -1,9 3,11 -5,3 1,8 2,5 3,2 12,-5 9,13 5,-3 4,6 9,10 4,-3 5,3 1,-9 3,-1 v 7 l 16,10 -4,12 15,-1 2,6 9,-6 v -1 l -1,-4 4,-2 4,-13 -5,-5 -7,3 -3,-3 -8,-1 -7,-9 6,-7 -3,-5 -4,-1 z"
   stroke-linejoin="round"
   stroke-width="0.2"
   stroke="#000000"
   fill="#16a34a"
   inkscape:connector-curvature="0"
   id="_x33_9386" />
			</g>
		</a><a
   style="stroke-width:0.29695235;stroke-miterlimit:4;stroke-dasharray:none"
   transform="scale(0.67350872)"
   id="a152">
			<g
   style="stroke-width:0.29695235;stroke-miterlimit:4;stroke-dasharray:none"
   id="use154">
				
					<path
   style="stroke-width:0.29695235;stroke-miterlimit:4;stroke-dasharray:none"
   d="m 243,221 6,3 6,-3 6,14 h 7 l 4,4 24,-11 -4,-12 v -13 l 12,-11 3,-7 -2,-4 6,-2 1,-4 5,4 2,-15 6,-4 -2,-5 -1,-8 5,-3 -3,-11 1,-9 -22,-14 -6,-11 -8,7 2,6 -10,6 -2,15 -16,4 -2,6 v 1 l -2,8 5,6 -9,7 -4,9 6,7 1,10 -11,8 -1,7 -9,10 1,5 z"
   stroke-linejoin="round"
   stroke-width="0.2"
   stroke="#000000"
   fill="#16a34a"
   inkscape:connector-curvature="0"
   id="_x33_9387" />
			</g>
		</a><a
   style="stroke-width:0.29695235;stroke-miterlimit:4;stroke-dasharray:none"
   transform="scale(0.67350872)"
   id="a156">
			<g
   style="stroke-width:0.29695235;stroke-miterlimit:4;stroke-dasharray:none"
   id="use158">
				
					<path
   style="stroke-width:0.29695235;stroke-miterlimit:4;stroke-dasharray:none"
   d="m 332,313 -3,-3 5,-1 -1,-3 5,-2 -7,-4 -5,-2 2,-3 7,-1 4,-4 -15,-19 h -14 l -7,1 v -10 -1 l -3,-10 -9,2 -6,-3 h -8 l -5,25 -4,-4 -8,-5 -7,10 -1,6 8,3 -1,4 -5,-1 1,5 6,-2 3,6 7,7 h 4 v -4 l 10,8 13,-3 3,-6 5,1 -2,6 6,6 v 19 l 9,3 5,7 12,-1 -4,-2 2,-4 h 1 l 4,-4 -4,-5 2,-6 -6,3 -1,-3 z"
   stroke-linejoin="round"
   stroke-width="0.2"
   stroke="#000000"
   fill="#16a34a"
   inkscape:connector-curvature="0"
   id="_x33_9401" />
			</g>
		</a><a
   style="stroke-width:0.29695235;stroke-miterlimit:4;stroke-dasharray:none"
   transform="scale(0.67350872)"
   id="a160">
			<g
   style="stroke-width:0.29695235;stroke-miterlimit:4;stroke-dasharray:none"
   id="use162">
				
					<path
   style="stroke-width:0.29695235;stroke-miterlimit:4;stroke-dasharray:none"
   d="m 334,238 3,2 7,1 12,-9 1,-5 8,-6 -2,-6 5,-4 3,-6 -6,-4 1,-7 -6,-10 -5,1 -10,-2 -7,3 2,12 -7,6 -1,7 -16,-7 -1,2 -3,18 21,10 z"
   stroke-linejoin="round"
   stroke-width="0.2"
   stroke="#000000"
   fill="#16a34a"
   inkscape:connector-curvature="0"
   id="_x33_9402" />
			</g>
		</a><a
   style="stroke-width:0.29695235;stroke-miterlimit:4;stroke-dasharray:none"
   transform="scale(0.67350872)"
   id="a164">
			<g
   style="stroke-width:0.29695235;stroke-miterlimit:4;stroke-dasharray:none"
   id="use166">
				
					<path
   style="stroke-width:0.29695235;stroke-miterlimit:4;stroke-dasharray:none"
   d="m 305,181 2,4 -3,7 -12,11 v 13 l 4,12 7,1 9,-5 3,-18 1,-2 16,7 1,-7 7,-6 -2,-12 7,-3 10,2 -2,-12 h 5 l -4,-6 -5,3 -9,-13 -12,5 -3,-2 -6,4 -2,15 -5,-4 -1,4 z"
   stroke-linejoin="round"
   stroke-width="0.2"
   stroke="#000000"
   fill="#16a34a"
   inkscape:connector-curvature="0"
   id="_x33_9403" />
			</g>
		</a><a
   style="stroke-width:0.29695235;stroke-miterlimit:4;stroke-dasharray:none"
   transform="scale(0.67350872)"
   id="a168">
			<g
   style="stroke-width:0.29695235;stroke-miterlimit:4;stroke-dasharray:none"
   id="use170">
				
					<path
   style="stroke-width:0.29695235;stroke-miterlimit:4;stroke-dasharray:none"
   d="m 191,296 17,6 4,1 2,8 9,7 1,-4 9,-9 9,1 4,-7 -3,-11 -11,-6 -4,-3 2,-9 -4,-5 -7,4 -6,-9 3,-6 9,-1 v -5 l 4,-2 -3,-3 4,-6 -2,-8 -1,-5 -12,4 -7,-3 -17,1 -22,-5 -15,7 -1,4 8,6 -1,5 4,17 6,1 2,1 -1,4 2,4 1,6 12,5 6,13 z"
   stroke-linejoin="round"
   stroke-width="0.2"
   stroke="#000000"
   fill="#16a34a"
   inkscape:connector-curvature="0"
   id="_x33_9405" />
			</g>
		</a><a
   style="stroke-width:0.29695235;stroke-miterlimit:4;stroke-dasharray:none"
   transform="scale(0.67350872)"
   id="a172">
			<g
   style="stroke-width:0.29695235;stroke-miterlimit:4;stroke-dasharray:none"
   id="use174">
				
					<path
   style="stroke-width:0.29695235;stroke-miterlimit:4;stroke-dasharray:none"
   d="m 368,211 2,2 22,-6 v -5 l 4,-12 -16,-10 v -7 l -3,1 -1,9 -5,-3 -4,3 -9,-10 h -5 l 2,12 5,-1 6,10 -1,7 6,4 z"
   stroke-linejoin="round"
   stroke-width="0.2"
   stroke="#000000"
   fill="#16a34a"
   inkscape:connector-curvature="0"
   id="_x33_9410" />
			</g>
		</a><a
   style="stroke-width:0.29695235;stroke-miterlimit:4;stroke-dasharray:none"
   transform="scale(0.67350872)"
   id="a176">
			<g
   style="stroke-width:0.29695235;stroke-miterlimit:4;stroke-dasharray:none"
   id="use178">
				
					<path
   style="stroke-width:0.29695235;stroke-miterlimit:4;stroke-dasharray:none"
   d="m 313,261 4,-3 -1,-12 17,-1 4,-5 -3,-2 -1,-4 -21,-10 -9,5 -7,-1 -24,11 -4,-4 h -7 l -6,-14 -6,3 -6,-3 h -5 l -11,3 1,5 2,8 -4,6 3,3 -4,2 v 5 l -9,1 -3,6 6,9 7,-4 4,5 -2,9 4,3 11,6 9,-6 1,-6 7,-10 8,5 4,4 5,-25 h 8 l 6,3 9,-2 3,10 z"
   stroke-linejoin="round"
   stroke-width="0.2"
   stroke="#000000"
   fill="#16a34a"
   inkscape:connector-curvature="0"
   id="_x33_9411" />
			</g>
		</a><a
   style="stroke-width:0.29695235;stroke-miterlimit:4;stroke-dasharray:none"
   transform="scale(0.67350872)"
   id="a180">
			<g
   style="stroke-width:0.29695235;stroke-miterlimit:4;stroke-dasharray:none"
   id="use182">
				
					<path
   style="stroke-width:0.29695235;stroke-miterlimit:4;stroke-dasharray:none"
   d="m 320,377 1,-5 -2,-4 -2,-2 4,-5 5,-2 3,-1 -1,-5 2,-4 6,-3 -1,-2 -2,-2 3,-2 -12,1 -5,-7 -9,-3 v -19 l -6,-6 2,-6 -5,-1 -3,6 -13,3 -10,-8 v 4 h -4 l -7,-7 -3,-6 -6,2 -1,-5 5,1 1,-4 -8,-3 -9,6 3,11 -4,7 -9,-1 -9,9 -1,4 -9,-7 -2,-8 -4,-1 -17,-6 -2,7 -13,6 -21,9 -9,3 -2,4 v 2 l 6,11 1,2 9,-1 -3,9 2,6 -2,8 17,7 7,-1 -1,10 10,7 14,3 4,-4 h 8 l 4,-7 8,1 4,6 h 4 l 4,-2 5,6 9,3 -2,5 3,2 5,-2 2,-12 6,1 2,1 -3,-5 4,-6 8,3 20,-14 3,-1 4,4 -13,17 5,6 1,-3 9,-11 7,-1 2,9 2,-2 3,-1 z"
   stroke-linejoin="round"
   stroke-width="0.2"
   stroke="#000000"
   fill="#16a34a"
   inkscape:connector-curvature="0"
   id="_x33_9412" />
			</g>
		</a><a
   style="stroke-width:0.29695235;stroke-miterlimit:4;stroke-dasharray:none"
   transform="scale(0.67350872)"
   id="a184">
			<g
   style="stroke-width:0.29695235;stroke-miterlimit:4;stroke-dasharray:none"
   id="use186">
				
					<path
   style="stroke-width:0.29695235;stroke-miterlimit:4;stroke-dasharray:none"
   d="m 82,567 -4,4 9,-2 -1,-5 10,-3 10,-1 -4,-3 12,-3 10,12 6,10 4,-2 1,-2 4,4 3,-2 -1,-12 -9,-9 4,-8 -3,-7 -10,-4 v -7 l -8,-7 -4,2 -5,-5 3,-7 -10,9 -9,7 6,7 h -5 l 2,4 -4,4 -1,-2 -2,5 -2,-1 1,5 h -3 l 4,1 3,3 -3,-2 -9,4 v 1 l 7,4 -4,1 z m -9,2 h 5 v -3 z"
   stroke-linejoin="round"
   stroke-width="0.2"
   stroke="#000000"
   fill="#16a34a"
   inkscape:connector-curvature="0"
   id="_x33_9424" />
			</g>
		</a><a
   style="stroke-width:0.29695235;stroke-miterlimit:4;stroke-dasharray:none"
   transform="scale(0.67350872)"
   id="a188">
			<g
   style="stroke-width:0.29695235;stroke-miterlimit:4;stroke-dasharray:none"
   id="use190">
				
					<path
   style="stroke-width:0.29695235;stroke-miterlimit:4;stroke-dasharray:none"
   d="m 153,518 2,4 11,2 3,-3 18,-3 3,-4 5,2 v -7 l -4,-6 3,-5 3,-11 -9,-3 -27,1 -5,10 -6,-1 v 11 l -10,-5 -3,4 -3,3 8,13 v -5 l 4,2 2,-3 z"
   stroke-miterlimit="10"
   stroke-width="0.2"
   stroke="#000000"
   fill="#16a34a"
   inkscape:connector-curvature="0"
   id="_x33_9427" />
			</g>
		</a><a
   style="stroke-width:0.29695235;stroke-miterlimit:4;stroke-dasharray:none"
   transform="scale(0.67350872)"
   id="a192">
			<g
   style="stroke-width:0.29695235;stroke-miterlimit:4;stroke-dasharray:none"
   id="use194">
				
					<path
   style="stroke-width:0.29695235;stroke-miterlimit:4;stroke-dasharray:none"
   d="m 268,444 h 1 l 1,-11 5,-9 v -6 l 3,1 1,-5 7,-3 6,-10 5,-10 1,-1 -5,-6 13,-17 -4,-4 -3,1 -20,14 -8,-3 -4,6 3,5 -2,-1 -6,-1 -2,12 -5,2 -3,-2 -3,6 h -15 l -10,11 -5,1 -3,26 -5,8 4,6 6,2 1,5 -2,2 2,1 8,1 3,-8 4,-11 11,-9 h 12 z"
   stroke-linejoin="round"
   stroke-width="0.2"
   stroke="#000000"
   fill="#16a34a"
   inkscape:connector-curvature="0"
   id="_x33_9428" />
			</g>
		</a><path
   style="stroke-width:0.2;stroke-miterlimit:4;stroke-dasharray:none"
   id="path196"
   inkscape:connector-curvature="0"
   fill="#eeeeee"
   stroke="#000000"
   stroke-width="0.134702"
   stroke-linejoin="round"
   d="m 526.01031,39.737015 2.02052,-0.673509 0.67351,-3.367544 -0.67351,4.041053 -4.71456,1.347017 1.34702,2.020526 -1.34702,1.347018 h -3.36754 v -2.694035 l -4.71456,3.367544 -3.36754,-1.347018 3.36754,1.347018 1.34702,-3.367544 2.69403,0.673509 -2.02053,-3.367544 -4.04105,-0.673509 4.04105,0.673509 4.71457,4.714561 2.02052,-1.347017 -0.67351,-2.020527 z m -412.86085,-26.940349 -0.67351,4.714561 -1.34701,-4.714561 z m 85.53561,8.082105 1.34702,1.347017 h -4.04106 l 1.34702,0.673509 -1.34702,2.020526 0.67351,-1.347018 -2.69403,-2.694034 z M 71.391925,161.64209 l 2.020526,3.36754 -2.694035,3.36755 2.694035,-1.34702 2.694035,4.04105 -2.694035,-3.36754 -3.367544,0.67351 2.694035,-3.36755 -3.367544,-1.34701 z M 306.44647,4.3704224e-8 308.46699,-1.3470174 l 4.04105,0.67350874 h -4.71456 L 305.77296,2.6940349 304.42594,0.67350874 V 2.0205262 h -4.71456 z M 48.492628,183.86788 l 2.694035,4.04105 2.694035,0.67351 -3.367544,1.34702 v -2.02053 l -3.367543,3.36754 -4.041053,0.67351 6.061579,-2.69403 z M 162.3156,69.371398 l 1.34702,-0.673508 -2.02053,-4.041053 3.36754,3.367544 -0.6735,4.041052 z m 169.7242,11.449649 2.69403,-2.020526 0.67351,5.388069 -2.02053,-2.694035 -4.04105,1.347018 v 3.367543 l -5.38807,1.347018 4.04105,-0.673509 1.34702,-3.367543 -2.02052,-1.347018 z m 123.9256,20.205263 0.67351,-4.041054 1.34702,1.347017 -1.34702,2.694037 3.36754,0.67351 0.67351,4.04105 4.04105,-5.38807 -2.69403,4.04105 2.02053,2.69403 -3.36755,-1.34701 0.67351,5.38807 -3.36754,-2.02053 h 1.34701 v -4.71456 l -4.71456,-0.67351 4.04106,-0.67351 -0.67351,-2.69403 z m -63.30982,-25.593333 3.36755,0.673509 -1.34702,-4.041053 1.34702,2.020527 2.69403,-2.020527 -3.36754,5.38807 4.04105,0.673509 -5.38807,1.347017 0.67351,-2.694035 z m -97.65876,-22.899297 -0.67351,-2.694034 -5.38807,-4.714561 2.02052,1.347017 0.67351,-2.020526 2.02053,4.041052 2.69403,-1.347017 -1.34701,1.347017 1.34701,4.714561 3.36755,0.673509 3.36754,5.38807 2.02053,-0.673509 -1.34702,-4.041052 3.36754,3.367543 -4.04105,2.694035 h -2.69403 v -4.041052 l -2.69404,2.694035 2.02053,-2.694035 -4.04105,-1.347018 z m -72.06544,24.919823 0.67351,-2.694035 1.34702,3.367544 -4.04105,1.347017 -8.75562,-3.367543 4.04106,2.020526 z m -1.34701,-9.429122 -1.34702,-0.673509 2.02053,0.673509 4.04105,-2.020526 0.67351,-2.694035 v 3.367544 l 3.36754,1.347017 2.69403,-2.694035 0.67351,2.020526 h -2.69403 l -2.02053,3.367544 1.34702,-2.020526 -2.02053,-2.020526 z" />

<g
   transform="matrix(0.93184356,0,0,0.93184356,25.385791,371.47185)"
   id="g26"><rect
     id="rect28"
     height="36"
     width="246"
     y="4"
     x="289"
     opacity="0.75"
     fill="#ffffff" /><rect
     id="rect30"
     height="8"
     width="238"
     y="8"
     x="293"
     fill="#000000" /><text
     style="line-height:0%"
     id="text32"
     y="36"
     x="412"
     font-family="sans-serif"
     font-size="24px"
     text-anchor="middle"
     fill="#000000">50km</text></g></svg>
