<?xml version="1.0" encoding="UTF-8" standalone="no"?>
<svg
   xmlns:dc="http://purl.org/dc/elements/1.1/"
   xmlns:cc="http://creativecommons.org/ns#"
   xmlns:rdf="http://www.w3.org/1999/02/22-rdf-syntax-ns#"
   xmlns:svg="http://www.w3.org/2000/svg"
   xmlns="http://www.w3.org/2000/svg"
   xmlns:xlink="http://www.w3.org/1999/xlink"
   xmlns:sodipodi="http://sodipodi.sourceforge.net/DTD/sodipodi-0.dtd"
   xmlns:inkscape="http://www.inkscape.org/namespaces/inkscape"
   width="565"
   height="630"
   version="1.1"
   id="svg2"
   inkscape:version="0.48.4 r9939"
   sodipodi:docname="和歌山県区画図.svg">
  <metadata
     id="metadata195">
    <rdf:RDF>
      <cc:Work
         rdf:about="">
        <dc:format>image/svg+xml</dc:format>
        <dc:type
           rdf:resource="http://purl.org/dc/dcmitype/StillImage" />
      </cc:Work>
    </rdf:RDF>
  </metadata>
  <defs
     id="defs193" />
  <sodipodi:namedview
     pagecolor="#ffffff"
     bordercolor="#666666"
     borderopacity="1"
     objecttolerance="10"
     gridtolerance="10"
     guidetolerance="10"
     inkscape:pageopacity="0"
     inkscape:pageshadow="2"
     inkscape:window-width="1920"
     inkscape:window-height="1033"
     id="namedview191"
     showgrid="false"
     inkscape:zoom="1"
     inkscape:cx="119"
     inkscape:cy="324.99411"
     inkscape:window-x="-4"
     inkscape:window-y="-4"
     inkscape:window-maximized="1"
     inkscape:current-layer="svg2" />
  <title
     id="title4">和歌山県区画図</title>
  <g
     id="g6"
     transform="translate(-4,0)">
    <defs
       id="defs8">
      <path
         d="m 574,236 -5,-1 -2,2 -5,-5 -3,1 -3,4 -6,-3 -8,17 v 4 l -5,2 10,19 -7,9 -7,-8 -5,1 v 12 l -5,13 -13,-8 -7,-1 v 5 l -5,1 -1,6 3,2 5,-2 v 3 l -6,2 -2,-3 -4,1 -8,-1 v 8 l -7,-1 4,9 -2,7 4,1 v -8 l 5,8 -2,7 -10,-1 -2,7 -7,-1 v -9 l -2,2 -2,9 3,7 -1,19 13,10 5,1 5,12 3,9 h 5 l 6,8 5,-2 1,9 1,5 12,7 h 6 l -2,-6 4,-2 17,8 4,-6 -3,-1 4,-2 5,-22 12,-32 5,-8 z"
         id="24000"
         inkscape:connector-curvature="0" />
      <path
         d="m 181,-4 v 1 -1 z m -6,0 -2,2 -3,6 -1,5 h -4 l -1,4 -2,-1 -6,7 -1,-2 -5,4 -14,18 -16,6 -8,1 1,-2 -8,5 -6,1 -7,8 -7,-5 -12,4 -5,5 7,1 -3,6 -1,3 7,15 7,-4 6,3 1,-6 4,-1 4,2 -1,4 19,-5 4,-2 4,-1 2,-13 9,5 15,-10 8,2 6,-3 6,12 5,-4 1,-5 13,-2 -1,-5 6,-3 v -4 l 4,3 h 24 l 6,-2 2,-5 8,1 5,-5 h 5 l 5,-1 7,2 10,-10 8,8 1,9 13,-10 16,-7 9,-8 h 9 l 2,-3 8,2 3,-5 17,1 6,-8 6,-2 3,-6 -5,-5 z m -39,0 2,3 3,-3 z"
         id="27000"
         inkscape:connector-curvature="0" />
      <path
         d="m 368,-4 5,5 -3,6 -6,2 -6,8 6,22 -2,13 5,1 -1,16 7,17 v 1 h 5 l 1,-4 9,4 5,5 2,12 4,10 -2,5 -9,8 -19,-10 -9,5 -4,-2 -7,9 6,10 -9,8 -4,5 1,6 -8,2 -1,1 -9,5 -5,19 -7,2 -10,9 2,9 -5,5 4,5 h 2 l 8,7 h 7 l 7,8 3,8 -4,8 1,4 13,2 4,1 -1,5 8,10 -1,21 -3,1 -8,-3 v 10 l -4,4 3,4 -2,7 -6,4 4,5 8,1 1,9 -3,7 15,-3 8,-7 v -7 l 8,1 7,-3 h 17 l 17,11 5,-4 6,2 13,-5 1,-4 5,-2 12,6 8,1 v 8 l 3,5 2,-2 v 9 l 7,1 -1,-5 4,-8 -5,-4 -5,1 -2,-7 6,-11 -2,-4 8,2 v 6 l 7,1 v -8 l 8,1 -1,-4 h -5 l -3,-13 12,-13 v -4 l 5,-6 7,1 1,3 14,-7 9,-3 3,-8 7,-4 8,-17 6,3 3,-4 3,-1 5,5 2,-2 5,1 V -4 z"
         id="29000"
         inkscape:connector-curvature="0" />
      <path
         d="m 103,140 h 3 l 7,11 -4,-9 1,-3 3,1 1,18 h 5 l 6,-5 v -4 l 12,-1 1,-3 9,-2 11,4 9,-1 -3,-6 3,-10 -5,-11 21,-11 -4,-9 h -18 l 2,-12 -3,-21 v -5 l -8,-2 -15,10 -9,-5 -2,13 -4,1 -4,2 -19,5 1,-4 -4,-2 -4,1 -1,6 -6,-3 -7,4 -7,-15 1,-3 3,-6 -7,-1 -10,4 -3,12 3,5 -4,1 -3,7 19,5 -1,3 12,8 -1,-4 9,10 -3,2 -5,-5 -7,-2 -2,1 5,6 h 18 l -5,5 4,1 -2,3 h 3 l -1,6 -3,1 -3,-7 3,14 5,1 1,4 z m -66,-68 5,2 9,-4 z m -9,10 6,-9 -15,8 6,3 z m 81,81 3,-2 -1,-4 z m 2,-1 3,1 1,-3 z"
         id="30201"
         inkscape:connector-curvature="0" />
      <path
         d="m 174,172 3,-18 -4,2 -3,-3 6,-5 6,-2 3,-10 -4,-6 -2,5 -12,-5 -3,10 3,6 -9,1 -11,-4 -9,2 -1,3 -12,1 v 4 l -6,5 -4,6 h 13 l -3,-1 -2,4 3,-1 -2,2 h -9 l -7,6 -5,-2 -14,-2 -5,4 -2,2 3,1 3,-4 -1,8 3,2 3,-4 v 10 l -12,-7 -4,4 1,1 9,3 4,6 8,3 h 7 l 7,-5 4,2 9,-1 6,-6 7,1 5,-9 11,3 12,-1 z"
         id="30202"
         inkscape:connector-curvature="0" />
      <path
         d="m 348,102 9,2 2,-1 v 3 l 4,-2 10,-17 v -1 l -7,-17 1,-16 -5,-1 2,-13 -6,-22 -17,-1 -3,5 -8,-2 -2,3 h -9 l -9,8 -16,7 -1,4 1,11 5,5 2,10 9,6 4,-2 2,-2 3,11 4,-2 6,4 16,-3 5,9 5,2 -5,3 z m -46,-21 5,3 1,-8 z"
         id="30203"
         inkscape:connector-curvature="0" />
      <path
         d="m 70,187 v 1 l 4,1 -1,-6 z m -12,-1 3,2 2,-2 z m 58,33 4,-10 -3,-13 -4,-2 -7,5 h -7 l -8,-3 -4,-6 -9,-3 -1,10 -8,3 v 4 l 4,-1 1,3 -7,2 -2,4 -5,-1 5,4 h 13 l 8,2 h 4 l 1,5 11,-4 6,3 4,1 z"
         id="30204"
         inkscape:connector-curvature="0" />
      <path
         d="m 111,365 11,10 2,-11 3,-4 -4,-10 -9,-3 2,-5 -4,-3 16,4 3,-3 -3,-3 h -5 v -5 l -4,-13 -10,-7 -1,-9 3,-4 -2,-12 -6,2 -3,5 1,14 -9,4 6,24 4,10 -8,-1 1,2 h 7 l 4,6 -3,2 6,3 z"
         id="30205"
         inkscape:connector-curvature="0" />
      <path
         d="m 270,422 -3,6 3,3 -2,6 8,8 6,-2 4,3 4,-3 2,9 h 11 l 6,11 -3,10 15,-2 10,10 15,-5 4,5 8,-2 4,-5 -4,-5 1,-13 7,-3 6,-2 10,-14 7,2 4,-5 -2,-5 h 4 l 6,-6 h 7 l 5,-15 8,-7 11,4 5,-9 5,-2 3,-1 7,-16 -9,-9 -1,-5 -5,-1 -6,-8 3,-16 5,5 -2,-15 v -5 l -13,5 -6,-2 -5,4 -17,-11 h -17 l -7,3 -8,-1 v 7 l -8,7 -15,3 3,-7 -1,-9 -8,-1 -4,-5 6,-4 2,-7 -3,-4 4,-4 v -10 l 8,3 3,-1 1,-21 -8,-10 1,-5 -4,-1 -13,-2 -1,-4 4,-8 -3,-8 -7,-8 h -7 l -8,-7 h -2 l -8,12 -12,2 -2,3 2,11 10,1 5,7 -4,7 9,17 -5,8 -36,15 -7,-6 -8,-1 -4,5 1,-4 h -4 l -6,9 -9,1 -2,8 2,7 -3,2 1,5 h 4 v 4 l 3,4 11,1 1,10 5,-1 2,5 11,3 -2,10 -8,-2 -16,4 -12,-2 -8,5 -6,9 -10,5 2,19 -8,18 1,2 9,1 v 11 l 9,-3 6,10 h 6 l 1,-5 2,1 -6,17 -3,-5 -3,5 3,2 3,3 h 4 l 8,-16 9,-6 8,-14 11,-3 3,-13 9,11 z"
         id="30206"
         inkscape:connector-curvature="0" />
      <path
         d="m 466,322 2,7 5,-1 5,4 -4,8 1,5 2,-7 10,1 2,-7 -5,-8 v 8 l -4,-1 2,-7 -4,-9 v -6 l -8,-2 2,4 z m 4,112 v 3 l 9,3 1,5 9,4 4,10 6,-1 6,-6 2,4 7,1 4,6 9,2 -1,-2 2,-4 7,-3 2,-11 10,-14 -17,-8 -4,2 2,6 h -6 l -12,-7 -1,-5 -1,-9 -5,2 -6,-8 h -5 l -3,-9 -5,-12 -5,-1 -13,-10 1,-19 -3,-7 2,-9 -3,-5 v -8 l -8,-1 -12,-6 -5,2 -1,4 v 5 l 2,15 -5,-5 -3,16 6,8 5,1 1,5 9,9 -7,16 -3,1 -5,2 -5,9 -11,-4 -8,7 -5,15 h -7 l -6,6 13,7 3,12 5,-4 9,1 5,1 1,-4 2,1 3,2 4,-5 1,6 7,5 h 4 l 5,-3 -3,-6 10,-9 z"
         id="30207"
         inkscape:connector-curvature="0" />
      <path
         d="m 185,136 2,3 4,-1 9,-3 8,8 15,-1 7,-3 9,8 16,-2 4,-4 3,-7 7,-3 2,-14 2,-5 -2,-6 -9,-7 v -9 l -10,-8 3,-9 8,-12 -7,-13 -4,-1 -2,-6 v -1 -1 h -5 l -5,5 -8,-1 -2,5 -6,2 h -24 l -4,-3 v 4 l -6,3 1,5 -1,2 4,6 -2,3 3,22 -2,10 -8,-1 4,4 -6,3 -21,11 5,11 12,5 2,-5 z"
         id="30208"
         inkscape:connector-curvature="0" />
      <path
         d="m 183,108 6,-3 -4,-4 8,1 2,-10 -3,-22 2,-3 -4,-6 1,-2 -13,2 -1,5 -5,4 -6,-12 -6,3 v 5 l 3,21 -2,12 h 18 z"
         id="30209"
         inkscape:connector-curvature="0" />
      <path
         d="m 176,148 -6,5 3,3 4,-2 -3,18 3,1 1,11 5,7 5,1 h 6 l 1,-5 4,-2 14,2 1,-5 15,-1 14,4 31,-24 1,-7 9,-5 -12,-11 -3,-7 -7,3 -3,7 -4,4 -16,2 -9,-8 -7,3 -15,1 -8,-8 -9,3 -4,1 -2,-3 -3,10 z"
         id="30304"
         inkscape:connector-curvature="0" />
      <path
         d="m 290,113 1,-5 h 5 l -3,-11 3,-14 6,-4 -6,-9 5,-3 -2,-10 -5,-5 -1,-11 1,-4 -13,10 -1,-9 -8,-8 -10,10 -7,-2 -5,1 v 1 1 l 2,6 4,1 7,13 -8,12 -3,9 10,8 v 9 l 9,7 2,6 -2,5 -2,14 3,7 12,11 -9,5 -1,7 9,7 6,12 7,6 v 8 l 7,2 10,-9 7,-2 5,-19 9,-5 -2,-3 -10,1 -3,-3 2,-3 -4,-2 -5,-15 -3,18 -9,5 -9,-2 -5,-9 v -6 l 8,-12 -7,-6 5,-5 z"
         id="30341"
         inkscape:connector-curvature="0" />
      <path
         d="m 301,67 -5,3 6,9 -6,4 -3,14 3,11 h 9 l 2,-5 4,-2 6,1 1,-16 4,2 2,10 2,6 13,7 9,-9 2,-9 5,-3 -5,-2 -5,-9 -16,3 -6,-4 -4,2 -3,-11 -2,2 -4,2 z m 1,14 6,-5 -1,8 z"
         id="30343"
         inkscape:connector-curvature="0" />
      <path
         d="m 290,113 2,6 -5,5 7,6 -8,12 v 6 l 5,9 9,2 9,-5 3,-18 5,15 4,2 -2,3 3,3 10,-1 2,3 1,-1 8,-2 -1,-6 4,-5 9,-8 -6,-10 7,-9 4,2 9,-5 19,10 9,-8 2,-5 -4,-10 -2,-12 -5,-5 -9,-4 -1,4 h -5 l -10,17 -4,2 v -3 l -2,1 -9,-2 -9,9 -13,-7 -2,-6 -2,-10 -4,-2 -1,16 -6,-1 -4,2 -2,5 h -9 -5 z"
         id="30344"
         inkscape:connector-curvature="0" />
      <path
         d="m 127,235 h -7 l -4,-16 -4,3 -4,-1 -6,-3 -11,4 4,1 v 5 h 6 l 3,4 -3,2 h 5 l 2,4 16,5 8,10 11,-1 1,-5 -4,-9 h -8 z"
         id="30361"
         inkscape:connector-curvature="0" />
      <path
         d="m 89,258 5,6 16,-3 v 7 l 1,17 23,2 1,3 5,1 2,-8 9,-3 2,-15 10,-9 1,-1 -5,-7 -15,-1 -1,5 -11,1 -8,-10 -16,-5 -1,3 v -2 l -4,2 -6,3 -7,3 8,6 z"
         id="30362"
         inkscape:connector-curvature="0" />
      <path
         d="m 282,232 2,-3 12,-2 8,-12 -4,-5 5,-5 -2,-9 -7,-2 v -8 l -7,-6 -6,-12 -9,-7 -31,24 -14,-4 -15,1 -1,5 -14,-2 -4,2 -1,5 h -6 l -5,-1 -5,-7 -1,-11 -3,-1 -7,11 -12,1 -11,-3 -5,9 -7,-1 -6,6 -9,1 3,13 -4,10 4,16 h 7 l 5,3 h 8 l 4,9 15,1 5,7 6,2 2,-4 4,3 16,-3 15,2 5,-6 11,3 13,-11 11,-2 7,-7 8,6 15,-3 2,-4 z"
         id="30366"
         inkscape:connector-curvature="0" />
      <path
         d="m 97,334 1,2 -6,-24 -4,-1 -2,7 -22,1 -8,3 v 5 l -7,6 11,-7 5,3 13,-4 z m -49,-1 -1,-1 v 1 z"
         id="30381"
         inkscape:connector-curvature="0" />
      <path
         d="m 92,312 9,-4 -1,-14 3,-5 6,-2 2,-2 -1,-17 -11,5 -12,14 -5,5 -6,1 -4,-7 -1,3 -6,1 1,3 -5,1 2,4 h -5 l -6,5 4,2 3,-2 -1,6 4,-1 -2,9 H 49 l 3,8 -4,3 1,5 7,-6 v -5 l 8,-3 22,-1 2,-7 z"
         id="30382"
         inkscape:connector-curvature="0" />
      <path
         d="m 72,286 4,7 6,-1 5,-5 12,-14 11,-5 v -7 l -16,3 -5,-6 -5,1 -6,1 -2,5 -3,-3 -6,2 -2,7 -11,1 5,2 5,4 -6,6 h 11 l 3,-6 v 3 l 8,2 z m -11,-22 4,2 -1,-3 z"
         id="30383"
         inkscape:connector-curvature="0" />
      <path
         d="m 203,331 1,-3 20,3 4,-3 v -4 h -4 l -1,-5 3,-2 -2,-7 -7,-1 -24,4 -5,5 h -6 l -8,8 -12,2 -5,10 -25,-4 -9,-2 v 5 h 5 l 3,3 -3,3 -16,-4 4,3 -2,5 9,3 4,10 -3,4 -2,11 5,3 5,-4 2,6 7,5 v 10 l 5,1 11,-2 -3,-8 2,-5 3,-7 16,-4 7,-20 -2,-5 6,-4 v -4 l 7,-4 7,1 z"
         id="30390"
         inkscape:connector-curvature="0" />
      <path
         d="m 193,416 8,-18 -2,-19 10,-5 6,-9 8,-5 12,2 16,-4 8,2 2,-10 -11,-3 -2,-5 -5,1 -1,-10 -11,-1 -3,-4 -4,3 -20,-3 -1,3 -3,3 -7,-1 -7,4 v 4 l -6,4 2,5 -7,20 -16,4 -3,7 -2,5 3,8 15,7 1,5 4,-2 4,-1 5,3 3,14 5,-2 z"
         id="30391"
         inkscape:connector-curvature="0" />
      <path
         d="m 224,310 2,-8 9,-1 6,-9 h 4 l -1,4 4,-5 8,1 7,6 36,-15 5,-8 -9,-17 4,-7 -5,-7 -10,-1 -2,-11 -3,-1 -2,4 -15,3 -8,-6 -7,7 -11,2 -13,11 -11,-3 -5,6 -15,-2 -16,3 -4,-3 -2,4 -6,-2 -1,1 -10,9 -2,15 -9,3 -2,8 -5,-1 -1,-3 -23,-2 -2,2 2,12 -3,4 1,9 10,7 4,13 9,2 25,4 5,-10 12,-2 8,-8 h 6 l 5,-5 24,-4 z"
         id="30392"
         inkscape:connector-curvature="0" />
      <path
         d="m 227,519 2,-2 v 6 l 4,1 3,-3 1,6 6,2 9,7 -1,5 6,-2 1,4 v -1 l 5,-3 11,-20 -1,-4 -1,-4 9,-10 13,3 1,-10 5,-1 2,-6 h 13 l 15,5 6,-4 5,9 13,-2 -1,-8 8,-2 6,-7 -5,-4 -4,5 -8,2 -4,-5 -15,5 -10,-10 -15,2 3,-10 -6,-11 h -11 l -2,-9 -4,3 -3,7 -6,4 2,10 h -14 l -7,-5 -8,1 -7,-4 -6,-5 -7,7 -5,-6 h -4 l -3,-3 -5,1 2,4 -5,-2 -2,4 h -2 l 1,-4 -4,2 2,-2 -1,-6 h -11 l 5,4 -2,3 2,2 -8,7 5,4 7,6 6,-1 10,3 5,7 -1,5 2,3 3,-2 -5,8 4,1 -6,6 3,6 v 5 z"
         id="30401"
         inkscape:connector-curvature="0" />
      <path
         d="m 243,459 7,4 8,-1 7,5 h 14 l -2,-10 6,-4 3,-7 -4,-3 -6,2 -8,-8 2,-6 -3,-3 3,-6 3,-8 -9,-11 -3,13 -11,3 -8,14 -9,6 -8,16 5,6 7,-7 z"
         id="30404"
         inkscape:connector-curvature="0" />
      <path
         d="m 310,562 h 8 l 2,6 5,2 3,3 v -5 h 5 l 2,-2 6,3 4,2 2,-5 3,2 1,-1 v -10 l -8,-4 8,-7 -1,-3 2,1 -1,-3 h 3 l -2,-4 -5,1 1,-12 -1,-2 4,-2 12,2 1,-8 h 3 l -13,-21 -13,2 -5,-9 -6,4 -15,-5 h -13 l -2,6 -5,1 -1,10 -13,-3 -9,10 1,4 1,4 -11,20 -5,3 v 1 l 2,-1 7,-2 2,4 4,-1 v -3 l 3,4 -3,1 6,1 1,4 5,1 1,5 8,2 6,2 z"
         id="30406"
         inkscape:connector-curvature="0" />
      <path
         d="m 504,509 -1,-2 v -4 l 2,-6 3,1 h 5 l -2,-3 3,-5 2,8 v -3 -7 l -8,-3 1,-5 9,-2 2,-3 4,1 5,-1 -5,-1 4,-1 2,3 5,-5 -1,-3 -5,3 -2,-6 -9,-2 -4,-6 -7,-1 -2,-4 -6,6 -6,1 -4,-10 -9,-4 -1,-5 -9,-3 v -3 l -6,-1 -10,9 3,6 -5,3 h -4 l -7,-5 -1,-6 -4,5 -3,-2 -2,-1 -1,4 -5,-1 -1,3 3,1 -2,8 9,5 -1,5 h 2 l 4,20 8,9 2,6 -3,2 3,8 -1,5 9,4 7,-4 h 4 l 1,5 5,-2 4,2 3,10 -3,2 2,6 6,-1 2,4 4,-2 6,-2 v -4 l 3,-2 h -8 l -9,2 12,-8 4,1 v -2 l 4,-3 5,2 1,-2 -2,-7 h -3 l -4,1 -1,-5 z"
         id="30421"
         inkscape:connector-curvature="0" />
      <path
         d="m 508,498 -3,-1 -2,6 2,-1 z m 13,16 v -2 l -7,3 -3,-2 3,1 -1,-3 1,-5 -6,3 -1,4 -3,-4 -4,3 1,5 4,-1 h 3 l 2,7 8,-1 z"
         id="30422"
         inkscape:connector-curvature="0" />
      <path
         d="m 348,526 7,4 9,7 3,16 7,2 3,4 8,1 2,-5 5,2 3,-5 5,1 6,8 3,-1 16,-1 16,-10 8,8 1,-8 6,-1 -4,-13 5,-14 -9,-4 1,-5 -3,-8 3,-2 -2,-6 -8,-9 -4,-20 h -2 l 1,-5 -9,-5 2,-8 -3,-1 1,-3 -9,-1 -5,4 -3,-12 -13,-7 h -4 l 2,5 -4,5 -7,-2 -10,14 -6,2 -7,3 -1,13 4,5 5,4 -6,7 -8,2 1,8 13,21 h -3 l -1,8 -12,-2 -4,2 z"
         id="30424"
         inkscape:connector-curvature="0" />
      <path
         d="m 542,255 v -4 l -7,4 -3,8 -9,3 -14,7 -1,-3 -7,-1 -5,6 v 4 l -12,13 3,13 h 5 l 1,4 4,-1 2,3 6,-2 v -3 l -5,2 -3,-2 1,-6 5,-1 v -5 l 7,1 13,8 5,-13 v -12 l 5,-1 7,8 7,-9 -10,-19 z"
         id="30427"
         inkscape:connector-curvature="0" />
      <path
         d="m 390,583 3,-2 2,5 5,-1 3,-4 1,6 2,-2 9,-3 5,2 -1,5 4,-3 1,10 -13,7 3,4 -2,4 5,3 3,-6 5,-2 5,5 2,-7 3,2 -8,-11 5,-13 4,-10 6,-2 8,-7 7,1 4,-5 h 3 l 10,-7 2,-2 1,4 4,-5 4,-4 3,-2 -2,-4 -6,1 -2,-6 3,-2 -3,-10 -4,-2 -5,2 -1,-5 h -4 l -7,4 -5,14 4,13 -6,1 -1,8 -8,-8 -16,10 -16,1 -3,1 -6,-8 -5,-1 -3,5 -5,-2 -2,5 -8,-1 -3,-4 -7,-2 -3,-16 -9,-7 -7,-4 -1,12 5,-1 2,4 h -3 l 1,3 -2,-1 1,3 -8,7 8,4 v 10 l -1,1 10,5 5,5 4,-1 2,3 12,-2 1,-2 2,4 h 3 v 6 z m 72,14 h 3 l 1,-4 3,-4 h -4 l -16,-2 h -5 l -2,-3 -5,4 -4,8 h 5 l 3,-3 2,3 h 6 v 6 l 4,2 -1,-5 4,2 2,-4 z m -19,6 1,2 3,-3 z"
         id="30428"
         inkscape:connector-curvature="0" />
    </defs>
    <rect
       x="-10"
       y="-10"
       width="590"
       height="650"
       id="rect43"
       style="fill:#ffffff" />
    <rect
       x="0"
       y="0"
       width="570"
       height="630"
       id="rect45"
       style="fill:#eeeeee" />
    <g
       id="g47"
       style="stroke:#000000;stroke-width:0.2;stroke-linejoin:round">
      <a
         id="a49">
        <use
           xlink:href="#24000"
           id="use51"
           style="fill:#aaaaaa"
           x="0"
           y="0"
           width="570"
           height="702" />
      </a>
      <a
         id="a53">
        <use
           xlink:href="#27000"
           id="use55"
           style="fill:#aaaaaa"
           x="0"
           y="0"
           width="570"
           height="702" />
      </a>
      <a
         id="a57">
        <use
           xlink:href="#29000"
           id="use59"
           style="fill:#aaaaaa"
           x="0"
           y="0"
           width="570"
           height="702" />
      </a>
      <a
         id="a61">
        <use
           xlink:href="#30201"
           id="use63"
           style="fill:#16a34a"
           x="0"
           y="0"
           width="570"
           height="702" />
      </a>
      <a
         id="a65">
        <use
           xlink:href="#30202"
           id="use67"
           style="fill:#16a34a"
           x="0"
           y="0"
           width="570"
           height="702" />
      </a>
      <a
         id="a69">
        <use
           xlink:href="#30203"
           id="use71"
           style="fill:#16a34a"
           x="0"
           y="0"
           width="570"
           height="702" />
      </a>
      <a
         id="a73">
        <use
           xlink:href="#30204"
           id="use75"
           style="fill:#16a34a"
           x="0"
           y="0"
           width="570"
           height="702" />
      </a>
      <a
         id="a77">
        <use
           xlink:href="#30205"
           id="use79"
           style="fill:#16a34a"
           x="0"
           y="0"
           width="570"
           height="702" />
      </a>
      <a
         id="a81">
        <use
           xlink:href="#30206"
           id="use83"
           style="fill:#16a34a"
           x="0"
           y="0"
           width="570"
           height="702" />
      </a>
      <a
         id="a85">
        <use
           xlink:href="#30207"
           id="use87"
           style="fill:#16a34a"
           x="0"
           y="0"
           width="570"
           height="702" />
      </a>
      <a
         id="a89">
        <use
           xlink:href="#30208"
           id="use91"
           style="fill:#16a34a"
           x="0"
           y="0"
           width="570"
           height="702" />
      </a>
      <a
         id="a93">
        <use
           xlink:href="#30209"
           id="use95"
           style="fill:#16a34a"
           x="0"
           y="0"
           width="570"
           height="702" />
      </a>
      <a
         id="a97">
        <use
           xlink:href="#30304"
           id="use99"
           style="fill:#16a34a"
           x="0"
           y="0"
           width="570"
           height="702" />
      </a>
      <a
         id="a101">
        <use
           xlink:href="#30341"
           id="use103"
           style="fill:#16a34a"
           x="0"
           y="0"
           width="570"
           height="702" />
      </a>
      <a
         id="a105">
        <use
           xlink:href="#30343"
           id="use107"
           style="fill:#16a34a"
           x="0"
           y="0"
           width="570"
           height="702" />
      </a>
      <a
         id="a109">
        <use
           xlink:href="#30344"
           id="use111"
           style="fill:#16a34a"
           x="0"
           y="0"
           width="570"
           height="702" />
      </a>
      <a
         id="a113">
        <use
           xlink:href="#30361"
           id="use115"
           style="fill:#16a34a"
           x="0"
           y="0"
           width="570"
           height="702" />
      </a>
      <a
         id="a117">
        <use
           xlink:href="#30362"
           id="use119"
           style="fill:#16a34a"
           x="0"
           y="0"
           width="570"
           height="702" />
      </a>
      <a
         id="a121">
        <use
           xlink:href="#30366"
           id="use123"
           style="fill:#16a34a"
           x="0"
           y="0"
           width="570"
           height="702" />
      </a>
      <a
         id="a125">
        <use
           xlink:href="#30381"
           id="use127"
           style="fill:#16a34a"
           x="0"
           y="0"
           width="570"
           height="702" />
      </a>
      <a
         id="a129">
        <use
           xlink:href="#30382"
           id="use131"
           style="fill:#16a34a"
           x="0"
           y="0"
           width="570"
           height="702" />
      </a>
      <a
         id="a133">
        <use
           xlink:href="#30383"
           id="use135"
           style="fill:#16a34a"
           x="0"
           y="0"
           width="570"
           height="702" />
      </a>
      <a
         id="a137">
        <use
           xlink:href="#30390"
           id="use139"
           style="fill:#16a34a"
           x="0"
           y="0"
           width="570"
           height="702" />
      </a>
      <a
         id="a141">
        <use
           xlink:href="#30391"
           id="use143"
           style="fill:#16a34a"
           x="0"
           y="0"
           width="570"
           height="702" />
      </a>
      <a
         id="a145">
        <use
           xlink:href="#30392"
           id="use147"
           style="fill:#16a34a"
           x="0"
           y="0"
           width="570"
           height="702" />
      </a>
      <a
         id="a149">
        <use
           xlink:href="#30401"
           id="use151"
           style="fill:#16a34a"
           x="0"
           y="0"
           width="570"
           height="702" />
      </a>
      <a
         id="a153">
        <use
           xlink:href="#30404"
           id="use155"
           style="fill:#16a34a"
           x="0"
           y="0"
           width="570"
           height="702" />
      </a>
      <a
         id="a157">
        <use
           xlink:href="#30406"
           id="use159"
           style="fill:#16a34a"
           x="0"
           y="0"
           width="570"
           height="702" />
      </a>
      <a
         id="a161">
        <use
           xlink:href="#30421"
           id="use163"
           style="fill:#16a34a"
           x="0"
           y="0"
           width="570"
           height="702" />
      </a>
      <a
         id="a165">
        <use
           xlink:href="#30422"
           id="use167"
           style="fill:#16a34a"
           x="0"
           y="0"
           width="570"
           height="702" />
      </a>
      <a
         id="a169">
        <use
           xlink:href="#30424"
           id="use171"
           style="fill:#16a34a"
           x="0"
           y="0"
           width="570"
           height="702" />
      </a>
      <a
         id="a173">
        <use
           xlink:href="#30427"
           id="use175"
           style="fill:#16a34a"
           x="0"
           y="0"
           width="570"
           height="702" />
      </a>
      <a
         id="a177">
        <use
           xlink:href="#30428"
           id="use179"
           style="fill:#16a34a"
           x="0"
           y="0"
           width="570"
           height="702" />
      </a>
    </g>
    <path
       d="m 540,261 -3,-5 h 5 l 1,-3 -5,-3 5,2 -1,4 -4,1 6,12 6,2 h -3 l 2,6 -8,5 v -3 l 5,-3 -5,-7 z M 483,1 484,0 v 3 l 2,-2 1,-2 1,1 h 2 l -7,3 1,4 5,-4 -4,5 3,-1 2,5 7,-5 -2,4 -6,1 -5,-3 -4,-7 z m -82,220 1,-6 3,4 1,-2 -3,-7 10,-5 -4,-2 h 4 v 3 l -8,4 2,6 -1,4 -3,-3 2,7 4,-4 h 7 l 1,7 7,-2 v 5 l 6,1 -8,1 1,-6 -6,3 -2,-7 -5,-1 -4,5 -3,-3 -6,4 1,-4 5,-2 z m 131,-25 3,-6 2,1 -4,4 2,2 -5,1 1,3 -3,2 2,3 -4,2 3,6 -5,4 1,5 4,-2 4,4 -1,-5 9,-4 v 6 l 8,-2 -3,4 h -5 l -2,-5 -5,1 -1,7 -8,4 -1,-3 6,-3 -3,3 -6,-5 4,-2 -3,-4 5,-2 -2,-7 4,-3 -3,-2 z m 42,-5 h -1 v 7 h 1 z m 0,9 -2,-2 -6,3 -3,-10 5,7 5,-1 -1,-6 2,-1 z m -26,-112 3,6 h 8 l -6,-1 -1,3 -4,-6 -6,2 5,-3 -1,-4 z m -344,117 6,-6 1,2 4,-3 8,4 1,-2 -1,3 -8,-4 -9,8 z m 112,249 3,4 -2,-3 -3,2 1,6 -3,2 5,1 -2,2 3,5 -4,-4 3,-2 -6,-1 3,-3 -2,-6 z"
       id="path181"
       inkscape:connector-curvature="0"
       style="fill:#eeeeee;stroke:#000000;stroke-width:0.2;stroke-linejoin:round" />
  </g>
  <g
     id="g3094">
    <rect
       y="14"
       x="421"
       height="39"
       width="122"
       id="rect3179"
       style="fill:#ffffff;fill-opacity:1;stroke:#000000;stroke-width:0;stroke-linejoin:miter;stroke-miterlimit:4;stroke-opacity:1;stroke-dasharray:none;stroke-dashoffset:0.35" />
    <rect
       x="425.60001"
       y="40.200012"
       width="112.8"
       height="9.6000004"
       id="rect187"
       style="fill:#000000" />
    <text
       transform="scale(1.1026503,0.90690585)"
       x="437.02377"
       y="37.637436"
       font-size="40"
       id="text189"
       style="font-size:23.21679115px;text-anchor:middle;fill:#000000;font-family:Helvetica">20km</text>
  </g>
</svg>
