<?xml version="1.0" encoding="UTF-8" standalone="no"?>
<svg
   xmlns:dc="http://purl.org/dc/elements/1.1/"
   xmlns:cc="http://creativecommons.org/ns#"
   xmlns:rdf="http://www.w3.org/1999/02/22-rdf-syntax-ns#"
   xmlns:svg="http://www.w3.org/2000/svg"
   xmlns="http://www.w3.org/2000/svg"
   xmlns:sodipodi="http://sodipodi.sourceforge.net/DTD/sodipodi-0.dtd"
   xmlns:inkscape="http://www.inkscape.org/namespaces/inkscape"
   inkscape:version="1.0 (4035a4fb49, 2020-05-01)"
   sodipodi:docname="Fukushima.svg"
   id="svg32"
   version="1.1"
   height="454"
   width="564">
  <metadata
     id="metadata38">
    <rdf:RDF>
      <cc:Work
         rdf:about="">
        <dc:format>image/svg+xml</dc:format>
        <dc:type
           rdf:resource="http://purl.org/dc/dcmitype/StillImage" />
      </cc:Work>
    </rdf:RDF>
  </metadata>
  <defs
     id="defs36" />
  <sodipodi:namedview
     inkscape:current-layer="svg32"
     inkscape:window-maximized="1"
     inkscape:window-y="-8"
     inkscape:window-x="-8"
     inkscape:cy="228.01463"
     inkscape:cx="305.82489"
     inkscape:zoom="1.8898678"
     showgrid="false"
     id="namedview34"
     inkscape:window-height="1017"
     inkscape:window-width="1920"
     inkscape:pageshadow="2"
     inkscape:pageopacity="0"
     guidetolerance="10"
     gridtolerance="10"
     objecttolerance="10"
     borderopacity="1"
     bordercolor="#666666"
     pagecolor="#ffffff" />
  <title
     id="title2">地図 ナンバープレート 福島県</title>
  <desc
     id="desc4">Author: Lincun</desc>
  <rect
     id="rect6"
     height="454"
     width="564"
     y="0"
     x="0"
     fill="#eeeeee" />
  <path
     fill="#cccccc"
     d="m 331,-1 3,6 -2,4 -2,5 2,2 4,2 2,1 3,1 1,3 4,-1 1,3 1,-1 5,1 1,-3 4,1 v 1 h 3 v -4 l 4,-3 h 3 v 3 l 6,4 4,-1 1,1 h 4 l 4,2 -3,4 2,8 3,5 h 1 3 l 2,-2 3,1 2,-2 3,1 6,-1 3,-2 v -3 l 5,5 h 4 l 5,-2 h 1 l 3,5 4,1 5,-1 8,4 -2,5 1,1 2,7 -4,6 2,7 3,4 5,1 3,3 1,4 5,-3 8,3 5,3 3,-3 h -2 l -6,-6 -2,1 1,-2 1,-2 4,1 6,3 3,-1 5,1 5,-2 -1,-4 2,-1 -2,-6 v -4 l -1,-2 2,-3 1,-2 -2,-4 2,-2 -1,-4 1,-1 11,-4 v 2 h 4 l 2,2 3,-1 -2,-8 -3,-27 1,-10 z M 156,-1 V 9 h -3 l -1,3 1,3 -1,3 2,3 -2,6 v 4 l -4,5 v 1 l 2,6 -1,2 2,5 5,3 1,1 6,8 5,-1 3,-2 h 2 v 3 l 3,4 2,2 2,3 8,-2 4,-2 3,4 3,2 v 4 l 1,1 6,-4 9,-5 4,4 1,2 h 6 l 2,-2 5,1 1,-2 v -3 h 2 l 5,4 2,3 v 4 l 5,8 v 3 l 4,3 1,-1 h 2 l 10,-3 4,-4 v 3 l 3,1 1,3 1,1 h 5 l 4,7 4,1 7,-1 2,-5 3,-1 h 3 1 l 7,1 2,2 h 7 2 l 5,-8 5,-4 3,-6 4,-4 -5,-5 -3,-1 -2,-5 2,-10 -1,-7 1,-1 -1,-8 v -2 l 4,-6 -3,-12 3,-3 -2,-2 2,-5 2,-4 -3,-6 z m 306,456 v -2 l 7,-18 5,-9 3,-2 4,1 1,-2 -2,-4 v -5 h -1 v -1 l -2,1 v -2 l -4,-2 v 1 l -2,-1 2,2 h -2 v -1 l -1,1 -1,-3 v 1 l -5,-2 -2,1 h -6 l -6,-6 h -1 l -9,-3 -1,-1 -5,1 -2,-2 h -4 l -3,-5 -1,-1 -2,-2 v -4 l -2,-3 -5,3 -1,8 2,1 2,3 v 4 l 4,4 -1,3 v -1 l -2,3 -2,-1 -3,2 -8,2 -1,2 -2,3 -4,8 h -1 l -6,1 v 4 l -2,2 -1,2 -4,2 -2,-4 -5,-7 -2,2 -3,-2 -2,-3 -7,-1 -4,-2 -2,-8 1,-3 -2,-4 -7,-2 -4,-1 -1,-2 -2,-6 -4,-5 -5,-3 -3,2 -3,-1 -3,1 -1,3 2,16 -2,9 4,6 1,4 -1,4 1,5 -1,4 -3,1 1,2 -1,1 2,3 -1,1 v 2 l 3,5 z m -133,0 -3,-5 v -2 l 1,-1 -2,-3 1,-1 -1,-2 3,-1 1,-4 -1,-5 1,-4 -1,-4 -4,-6 2,-9 -2,-16 1,-3 3,-1 -6,-4 v -4 l 3,-3 -3,-4 2,-3 -3,-6 1,-4 2,1 1,-1 -1,-5 h -7 l -1,2 -5,-2 -1,-3 -2,-1 2,-4 -2,-4 v -2 l -6,-2 -6,-6 1,-2 h -1 v -1 l -4,-4 -2,1 -4,-3 -6,-4 -10,-1 -3,-2 -1,-2 -6,-2 -2,1 -14,-3 h -2 v -2 h -8 l -4,2 h -3 l -2,-2 -7,3 -3,-1 -3,4 h -2 l -5,1 -3,4 -2,2 2,3 v 8 l -9,-1 -4,-1 -3,4 -4,4 -4,-1 -1,1 -4,-1 -3,2 -2,3 -3,-2 -3,2 h -2 l -3,6 h -2 l -5,3 h -4 l -1,6 h -4 l -3,1 -4,-1 -2,5 -6,2 -2,1 -3,4 h -4 l -8,5 -3,-3 -5,2 h -2 l -1,6 -3,2 -3,2 -1,6 -7,-1 -4,6 v 3 l -5,2 -2,6 -2,2 -2,-1 v 6 l -2,3 10,6 5,1 2,2 -5,4 1,2 -5,2 v 6 l -4,2 -3,3 v 3 l 1,5 5,1 -1,2 z m -256,0 1,-2 -5,-1 -1,-5 v -3 l 3,-3 4,-2 v -6 l 5,-2 -1,-2 5,-4 -2,-2 -5,-1 -10,-6 2,-3 v -6 l 2,1 2,-2 2,-6 5,-2 v -3 l -6,-3 -7,2 -2,-5 -2,1 -7,-1 h -1 l -2,-2 h -5 l -4,-3 -3,3 -4,1 -2,-2 -2,-1 1,-1 1,-3 -2,-4 -6,1 -8,-3 -1,-3 1,-4 v -2 l -2,-4 -3,-1 -8,-8 -3,-7 H 1 l -1,-3 -1,-1 v 113 z m -74,-113 1,1 1,3 h 2 l 3,7 8,8 3,1 2,4 v 2 l -1,4 1,3 8,3 6,-1 2,4 -1,3 h 3 v -3 l 2,-2 v -6 l 1,-1 -1,-2 1,-2 v -7 l -2,-4 2,-8 2,-2 v -3 l -3,-6 v -4 l -2,-3 -1,-5 2,-10 v -1 l 3,-11 -3,-2 v -6 h -1 l -5,-8 -4,5 -3,1 -3,-7 -6,-9 5,-9 3,-4 6,-6 1,-6 2,-4 -2,-5 5,-4 1,-8 -2,-7 -2,-2 h -3 l -4,-7 2,-2 2,-8 3,-3 4,1 4,-2 2,2 6,-3 1,2 6,-4 2,2 5,-3 2,2 4,-2 1,-2 h 3 l 10,3 2,-2 1,-9 1,-2 v -2 -3 l 5,-1 8,-1 5,5 5,-3 6,1 2,-2 5,1 7,4 6,-4 1,-6 h -3 l -4,-6 2,-2 v -8 l -2,-8 -4,-5 1,-3 -2,-3 3,-5 -2,-3 h 2 l 3,-1 6,-5 h 2 l 4,-6 5,-2 -2,-4 1,-4 2,-3 5,-3 3,-6 v -3 l 2,-1 4,-7 9,-8 5,-5 3,-2 -5,-7 -2,-5 -9,2 h -1 l -6,-8 -1,-1 -5,-3 -2,-5 1,-2 -2,-6 v -1 l 4,-5 v -4 l 2,-6 -2,-3 1,-3 -1,-3 1,-3 h 3 V -1 H 49 L 43,4 41,3 42,4 36,7 V 6 l 1,2 -1,1 1,4 4,4 h -3 v 2 L 36,17 H 35 L 37,15 33,9 37,1 30,12 12,19 9,21 7,20 -1,21 Z M 22,54 Z"
     id="path8"
     style="stroke:#000000;stroke-width:0.2;stroke-linejoin:round" />
  <path
     fill="#f6bad3"
     d="m 491,395 2,1 3,-5 3,2 -1,-2 2,-1 1,1 -1,-2 h 2 v -2 l 1,1 1,-2 2,-2 1,1 1,-2 v 2 l 4,-3 1,2 1,2 h 2 l 3,-5 5,-2 -1,-2 4,-3 -2,1 1,-1 3,-2 -1,-4 3,-2 1,-2 v -5 h -2 l -1,-4 1,-14 2,-11 4,-5 1,-4 v -8 l 1,-2 -1,-1 h 1 l -1,-3 v -10 l -12,-1 h -3 l -7,-6 h -2 l -2,-2 -3,-4 h -7 l -2,-2 1,-2 2,-3 -3,-7 3,-6 -5,1 -2,6 h -2 l -3,-1 -2,3 -7,1 -1,-3 -4,-3 v -3 l 3,-2 -5,-2 -1,-2 v -2 l -3,1 -1,-2 -1,1 -3,-1 -1,2 -4,-4 -2,-5 -3,-9 -3,-3 1,-4 -2,-1 v -2 l 5,-5 -1,-3 4,-3 4,1 v 3 h 4 l 2,3 h 5 l 3,3 1,-2 h 8 l 8,4 v -5 l 2,-1 v -3 l 1,-5 -3,-4 -1,-7 -1,-5 -3,-2 v -3 l -4,2 -3,-3 -5,1 -4,-2 -1,1 -3,-2 1,-2 -12,-3 -10,-4 4,-7 -5,-4 -1,-1 v -2 l 1,-2 -3,-4 2,-7 -2,-2 -3,-1 -6,5 h -3 l 1,-4 -1,-5 -1,-3 -3,-1 -4,1 -6,-2 -3,-5 -2,-2 v -3 l -3,-3 3,-3 -2,-3 1,-3 h -4 v -4 l -3,-3 1,-2 2,-1 -1,-2 3,-2 h 2 l 1,4 5,5 4,-6 3,-3 5,2 4,-2 6,4 1,-4 4,-10 5,-1 2,-2 6,-1 1,1 h 7 l 3,-4 11,3 6,2 4,5 1,4 -7,3 -3,3 5,2 -2,2 v 5 l -1,2 3,2 -1,5 1,5 2,4 -1,4 -1,1 -2,-1 -1,1 2,1 2,3 -1,2 5,2 -1,5 2,8 8,3 1,8 8,1 2,1 1,-3 4,-1 2,2 9,2 8,4 8,-2 h 2 l -3,-34 v -13 l -2,-6 4,-2 -3,1 -1,-3 h 4 l 3,3 -3,-3 h -4 l -1,-4 1,-1 h -1 1 -1 l -1,-2 v -10 l -1,-11 -2,-4 -3,-2 -1,-14 v -5 l -3,-3 1,1 h -1 l -1,1 3,2 -1,11 1,3 -5,-3 1,-3 v -3 l 1,-1 -1,-3 -6,-1 2,-1 h 5 l 1,-2 -1,-1 -2,1 -1,-3 -1,2 -1,-3 1,-1 -11,2 -9,-3 -10,1 v 4 l 2,6 -2,1 1,4 -5,2 -5,-1 -3,1 -6,-3 -4,-1 -1,2 -1,2 2,-1 6,6 h 2 l -3,3 -5,-3 -8,-3 -5,3 -1,-4 -3,-3 -5,-1 -3,-4 -2,-7 4,-6 -2,-7 -1,-1 2,-5 -8,-4 -5,1 -4,-1 -3,-5 h -1 l -5,2 -1,4 1,3 -3,3 2,2 -1,4 -2,-1 v -2 l -2,5 h -4 l 1,2 -2,4 h -4 l -2,4 -5,-2 -2,2 -5,1 h -3 l -3,-4 v -3 h 3 l -6,-5 -1,-4 4,-5 -2,-2 3,-2 2,-1 -3,-5 -2,-8 3,-4 -4,-2 h -4 l -1,-1 -4,1 -6,-4 v -3 h -3 l -4,3 v 4 h -3 v -1 l -4,-1 -1,3 -5,-1 -1,1 -1,-3 -4,1 -1,-3 -3,-1 -2,-1 -4,-2 -3,3 3,12 -4,6 v 2 l 1,8 -1,1 1,7 -2,10 2,5 3,1 5,5 -4,4 -3,6 -5,4 -5,8 2,4 -4,2 v 5 l 2,4 -2,9 h 2 l 11,6 2,6 -1,1 1,6 -5,7 -8,6 1,5 -3,6 -1,1 h -2 l -3,-2 -5,3 -1,4 -2,2 h -3 l -1,4 3,4 4,1 -1,6 3,3 -1,4 2,3 v 5 l -2,1 h -4 l -1,-3 h -3 l -2,-2 h -8 l -5,-2 -23,-12 -3,-5 1,-3 -3,1 1,-2 -1,-1 1,-2 v -3 h -5 l -4,-4 -1,1 -7,-2 -1,-3 -7,-3 v -1 l 7,-5 2,-2 h 2 l 2,-4 7,1 -1,-6 1,-2 -1,-1 -9,-4 -2,-3 h -7 l -4,2 h -2 v -3 l 5,-8 3,-2 h 2 l 3,-5 h 3 l 2,-7 5,-1 2,-2 -2,-3 v -7 -2 l -4,-3 v -3 l -5,-8 v -4 l -2,-3 -5,-4 h -2 v 3 l -1,2 -5,-1 -2,2 h -6 l -1,-2 -4,-4 -9,5 -6,4 -1,-1 v -4 l -3,-2 -3,-4 -4,2 -8,2 -2,-3 -2,-2 -3,-4 v -3 h -2 l -3,2 -5,1 h 1 l 9,-2 2,5 5,7 -3,2 5,8 -3,1 -2,3 1,3 1,5 -6,11 v 4 l -3,8 1,6 -2,1 2,5 1,1 -4,6 v 1 l -4,1 -5,4 4,1 -3,4 4,1 1,-2 1,-1 h 3 l 2,5 v 4 h 2 v -1 l 1,-1 1,1 1,1 1,-2 7,-2 2,2 2,-1 v 2 l 5,-1 -3,-7 2,-6 2,-2 h 4 l 2,2 -1,3 -4,-2 -2,1 3,1 1,3 -2,3 h 2 l 1,-2 6,3 1,-1 2,2 v 2 l 2,1 1,-1 2,2 1,-1 1,3 h 4 l 2,-4 2,2 h 2 v -1 l 3,3 -4,4 1,4 3,1 -1,3 v 1 h -8 l -1,1 v 4 l -5,1 h -3 l 2,2 -4,7 1,3 6,8 v 5 l 3,2 h 1 v -3 l 8,1 v 6 l 6,16 -1,2 -2,1 -8,5 -3,5 2,2 v 3 l 1,2 9,-5 v 3 h -2 l -1,3 2,3 h 1 v 2 l 8,-1 1,-3 h 3 l 3,3 h 9 l 2,2 4,-7 3,2 8,3 3,4 4,-2 1,1 h 4 v 1 l 1,1 2,1 2,4 h 4 l 5,5 12,6 1,-2 2,1 v 2 l 3,-1 10,4 6,3 2,-2 4,3 h 3 3 l 2,-1 -1,-1 h 2 l 1,-5 2,1 v -6 l 5,1 3,2 h 2 l 2,2 -3,4 -3,1 2,2 h 6 l 10,2 v 2 l 1,2 15,2 2,-1 v -8 l 1,1 4,-1 h 2 l 2,-3 1,-2 4,-1 3,-2 3,-1 v -5 -8 l 2,-1 -3,-3 -3,-1 -2,-4 6,-11 h 4 l 2,3 5,4 3,-1 3,2 7,1 2,7 -4,6 1,2 -1,4 3,3 3,2 4,-5 h 5 l 2,4 -3,3 v 12 l -5,3 h -4 l -2,3 -8,5 -1,-1 -2,2 v 5 l -2,3 3,2 1,5 v 2 h 2 l 1,4 2,-5 2,5 1,7 4,2 2,7 1,2 -4,2 2,4 -5,2 1,4 -5,2 v 3 l -3,10 h -5 l 1,2 -1,2 -6,4 -3,3 5,7 1,7 2,3 v 4 l 2,2 1,1 3,5 h 4 l 2,2 5,-1 1,1 9,3 h 1 l 6,6 h 6 l 2,-1 5,2 v -1 l 1,3 1,-1 v 1 h 2 l -2,-2 2,1 v -1 l 4,2 v 2 l 2,-1 h -1 v -4 l 3,-8 5,-5 z m 15,-2 2,-7 4,-1 -4,1 z m -169,-36 3,1 3,-1 -1,-4 2,-2 -1,-2 4,-3 3,-1 3,2 v -2 -4 h 3 -2 v -4 h 2 l 3,-2 3,-3 3,-1 3,-5 2,-2 -1,-2 -6,-3 -5,1 -1,1 -2,1 -6,-2 h -9 l -4,-1 v -5 l -4,1 -3,-3 1,-4 2,-1 -2,-1 1,-2 -5,-1 -6,-4 1,-2 3,1 2,-2 6,-1 4,2 2,-4 -1,-1 v -3 l -2,-3 -3,-1 -5,1 -6,-1 -9,-3 -1,-3 -6,-2 h -6 -4 l -2,-3 -5,-3 h -3 l -4,3 v 3 l 9,10 3,6 1,-5 6,5 6,5 -1,3 7,3 -1,9 -3,2 -1,2 -4,1 4,2 -2,3 h -2 l 1,3 -5,2 1,2 v 1 l -3,-2 -1,1 v 1 h 1 l -1,2 6,6 6,2 v 2 l 2,4 -2,4 2,1 1,3 5,2 1,-2 h 7 l 1,5 -1,1 5,3 1,-5 z m 43,-132 -2,-3 h 3 v -4 h -3 l 1,-2 -1,1 h -1 v -3 l -2,1 -1,-1 v 2 h -1 l 1,-5 5,1 2,-4 3,1 v 1 h 1 l 1,-1 v -1 l 2,-3 -3,-3 1,-5 4,-2 -2,-3 2,-1 h 6 l 1,-4 2,-3 3,2 2,-4 3,-1 1,2 3,2 2,3 -2,2 1,1 -1,3 -4,4 -1,-4 -5,-1 v 2 h 1 l -1,3 3,1 h 2 l -4,2 v -2 h -1 v 2 l -4,-5 1,2 h -2 l 1,2 -1,1 3,2 3,1 -1,6 h -2 l 1,5 h -4 l 3,4 1,6 -2,1 -5,-1 -2,6 h -3 l 1,-4 -2,-3 -2,2 z m -41,-47 1,-2 -3,-1 v -5 l -3,-4 v -3 l -2,-4 v -4 l 2,-5 1,-7 3,1 12,2 1,3 -2,2 2,3 -3,-1 -1,2 5,4 2,7 5,-2 h 5 l 5,4 v 3 l 2,1 -1,2 -2,1 h -3 l -3,-2 1,2 -1,1 -1,3 -6,2 -4,-1 -2,2 -6,1 v -4 l -4,1 z m 13,-20 1,-2 1,3 z"
     id="path10"
     style="stroke:#000000;stroke-width:0.2;stroke-linejoin:round" />
  <path
     fill="#ece3b4"
     d="m 398,427 h 1 l 4,-8 2,-3 1,-2 8,-2 3,-2 2,1 2,-3 v 1 l 1,-3 -4,-4 v -4 l -2,-3 -2,-1 1,-8 -2,-3 -14,-2 -12,-4 -2,-2 -4,-3 6,-7 v -4 l -2,-1 -1,-2 -3,-7 -4,-6 1,-4 -2,-1 1,-2 7,-2 h 2 3 3 l 2,-3 5,2 1,3 3,4 4,-1 4,3 1,4 -1,3 2,5 -1,7 4,2 1,1 6,-4 1,-2 -1,-2 h 5 l 3,-10 v -3 l 5,-2 -1,-4 5,-2 -2,-4 4,-2 -1,-2 -2,-7 -4,-2 -1,-7 -2,-5 -2,5 -1,-4 h -2 v -2 l -7,1 -2,-4 h -5 l -1,3 h -3 -3 l -3,-2 1,-1 -2,-3 h -2 l -6,-6 -7,-4 -4,2 -1,2 h -6 l -1,1 -3,1 -1,3 -3,-1 -1,-2 -2,-6 2,-5 -3,-2 1,-1 -2,-7 h -6 l -2,-2 3,-1 3,-4 -2,-2 h -2 l -3,-2 -5,-1 v 6 l -2,-1 -1,5 h -2 l 1,1 -2,1 -2,4 v -1 l -2,1 -1,4 h -5 l -1,1 3,1 2,3 v 3 l 1,1 -2,4 8,5 v 6 l -1,2 5,2 3,-5 h 2 l 5,-2 2,-4 4,-1 1,2 v 1 l 3,1 v 2 l -5,1 -5,7 -1,5 1,1 5,-1 6,3 1,2 -2,2 -3,5 -3,1 -3,3 -3,2 h -2 v 4 h 2 -3 v 4 2 l -3,-2 -3,1 -4,3 1,2 -2,2 1,4 -3,1 -3,-1 -7,2 -1,5 -5,-3 -2,-1 -1,4 3,6 -2,3 3,4 -3,3 v 4 l 6,4 3,1 3,-2 5,3 4,5 2,6 1,2 4,1 7,2 2,4 -1,3 2,8 4,2 7,1 2,3 3,2 2,-2 5,7 2,4 4,-2 1,-2 2,-2 v -4 z m -272,-62 6,-2 2,-5 4,1 3,-1 h 4 l 1,-6 h 4 l 5,-3 h 2 l 3,-6 h 2 l 3,-2 3,2 2,-3 3,-2 4,1 1,-1 4,1 4,-4 3,-4 4,1 9,1 v -8 l -2,-3 2,-2 3,-4 5,-1 h 2 l 3,-4 3,1 7,-3 2,2 h 3 l 4,-2 h 8 v -6 l -1,-2 3,-4 4,-5 -5,-2 -5,-5 v -2 l 1,-3 4,-4 1,-5 -2,-4 h 3 l 2,-1 -1,-3 7,-10 v -3 l 3,-1 -2,-2 h -9 l -3,-3 h -3 l -1,3 -8,1 v -2 h -1 l -2,-3 1,-3 h 2 v -3 l -9,5 -1,-2 v -3 l -2,-2 3,-5 8,-5 2,-1 1,-2 -6,-16 v -6 l -8,-1 v 3 h -1 l -3,-2 v -5 l -6,-8 -1,-3 4,-7 -2,-2 h 3 l 5,-1 v -4 l -4,-3 1,-11 -1,-3 -1,1 -2,-2 -1,1 -2,-1 v -2 l -2,-2 -1,1 -6,-3 -1,2 h -2 l 2,-3 -1,-3 -3,-1 2,-1 4,2 1,-3 -2,-2 h -4 l -2,2 -2,6 3,7 -5,1 v -2 l -2,1 -2,-2 -7,2 -1,2 -1,-1 -1,-1 -1,1 v 1 h -2 v -4 l -2,-5 h -3 l -1,1 -1,2 -4,-1 3,-4 -4,-1 5,-4 4,-1 v -1 l 4,-6 -1,-1 -2,-5 2,-1 -1,-6 3,-8 v -4 l 6,-11 -1,-5 -1,-3 2,-3 3,-1 -5,-8 -5,5 -9,8 -4,7 -2,1 v 3 l -3,6 -5,3 -2,3 -1,4 2,4 -5,2 -4,6 h -2 l -6,5 -3,1 h -2 l 2,3 -3,5 2,3 -1,3 4,5 2,8 v 8 l -2,2 4,6 h 3 l -1,6 -6,4 -7,-4 -5,-1 -2,2 -6,-1 -5,3 -5,-5 -8,1 -5,1 v 3 2 l -1,2 -1,9 -2,2 -10,-3 h -3 l -1,2 -4,2 -2,-2 -5,3 -2,-2 -6,4 -1,-2 -6,3 -2,-2 -4,2 -4,-1 -3,3 -2,8 -2,2 4,7 h 3 l 2,2 2,7 -1,8 -5,4 2,5 -2,4 -1,6 -6,6 -3,4 -5,9 6,9 3,7 3,-1 4,-5 5,8 2,-3 3,-2 3,9 5,5 9,-2 7,-1 v 4 l -2,2 2,12 7,2 2,-1 4,4 -1,8 5,5 h 3 l 1,5 1,5 -1,2 5,3 2,4 2,4 -2,9 5,4 h 2 l 5,-2 3,3 8,-5 h 4 l 3,-4 z m 412,-77 2,-7 h 3 l 2,-3 -2,3 -2,-1 1,-1 h -1 2 l -1,-2 h -2 l 3,-26 4,-2 -1,1 -2,-1 v -1 l 2,1 -3,-2 2,-7 2,-7 -1,-3 -1,-17 3,-1 -2,1 v -2 -2 l 1,3 -1,-3 1,-8 -1,-5 2,-5 -2,-1 -1,-10 h -2 l -8,2 -8,-4 -9,-2 -2,-2 -4,1 -1,3 -2,-1 -8,-1 -1,-8 -8,-3 -2,-8 1,-5 -5,-2 1,-2 -2,-3 -2,-1 v 4 h -2 l -1,3 -3,1 -3,-2 h -8 l -3,-2 -7,1 -6,-2 -8,-7 v -9 l -2,-4 1,-4 -3,-4 h -3 v -2 l 5,-4 -6,-4 -4,2 -5,-2 -3,3 -4,6 -5,-5 -1,-4 h -2 l -3,2 1,2 -2,1 -1,2 3,3 v 4 h 4 l -1,3 2,3 -3,3 3,3 v 3 l 2,2 3,5 6,2 4,-1 3,1 1,3 1,5 -1,4 h 3 l 6,-5 3,1 2,2 -2,7 3,4 -1,2 9,1 10,3 v -4 h 2 l 2,1 h 4 l 3,3 2,-2 1,1 8,-2 1,1 4,-1 1,12 v 2 h -4 l 1,8 -1,6 3,2 1,5 1,7 3,4 -1,5 v 3 l 4,2 1,-1 3,3 h 6 l 1,1 -1,4 -2,1 v 1 l 3,1 -1,3 3,3 -4,3 -1,7 2,3 -5,2 v 2 l -2,4 h -1 l -3,6 3,7 -2,3 -1,2 2,2 h 7 l 3,4 2,2 h 2 l 7,6 h 3 l 12,1 z m -110,3 8,-5 2,-3 h 4 l 5,-3 v -12 l 3,-3 -2,-4 h -5 l -4,5 -3,-2 -3,-3 1,-4 -1,-2 4,-6 -2,-7 -7,-1 -3,-2 -3,1 -5,-4 -2,-3 h -4 l -6,11 2,4 3,1 3,3 -2,1 v 8 5 2 l 3,1 3,5 4,-2 3,2 -1,2 -1,6 5,8 z m -248,-31 -9,8 -2,5 -2,2 -7,1 -1,2 h -3 l -1,4 -5,-1 -1,1 -2,1 -1,-1 -1,5 -2,1 h 1 l -2,2 -2,-1 -1,-2 -2,-3 1,-5 -2,-5 2,-2 1,-6 -5,-4 -1,-5 -1,-3 1,-6 -5,-2 -4,-2 3,-4 -3,-3 3,-2 h -2 l -7,-2 -2,-5 3,-4 6,-1 3,2 4,1 8,-1 2,2 -1,3 4,3 6,-1 4,4 3,3 4,1 7,-3 3,-3 v 2 4 l 6,6 z m 128,-56 2,-1 v -5 l -2,-3 1,-4 -3,-3 1,-6 -4,-1 -3,-4 1,-4 h 3 l 2,-2 1,-4 5,-3 3,2 h 2 l 1,-1 3,-6 -1,-5 8,-6 5,-7 -1,-6 1,-1 -2,-6 -11,-6 h -2 l 2,-9 -2,-4 v -5 l 4,-2 -2,-4 h -2 -7 l -2,-2 -7,-1 -1,6 -3,4 v 7 l -3,2 -2,6 1,5 -14,10 -7,11 v 2 l -6,-3 -8,1 -1,3 -1,-1 -3,1 -1,-1 -7,-1 -2,4 h -2 l -2,2 -7,5 v 1 l 7,3 1,3 7,2 1,-1 4,4 h 5 v 3 l -1,2 1,1 -1,2 3,-1 -1,3 3,5 23,12 5,2 h 8 l 2,2 h 3 l 1,3 z M 523,63 h -1 l -2,-4 2,-2 -3,2 -1,-3 -3,-11 v -1 l -3,1 -2,-2 h -4 v -2 l -11,4 -1,1 1,4 -2,2 2,4 -1,2 -2,3 1,2 10,-1 9,3 z m -104,-7 1,-4 -2,-2 3,-3 -1,-3 1,-4 h -4 l -5,-5 v 3 l -3,2 -6,1 -3,-1 -2,2 -3,-1 -2,2 h -3 -1 l -2,1 -3,2 2,2 -4,5 1,4 6,5 h -3 v 3 l 3,4 h 3 l 5,-1 2,-2 5,2 2,-4 h 4 l 2,-4 -1,-2 h 4 l 2,-5 v 2 z m -11,127 -1,-2 -3,1 -2,4 -3,-2 -2,3 -1,4 h -6 l -2,1 2,3 -4,2 -1,5 3,3 -2,3 v 1 l -1,1 h -1 v -1 l -3,-1 -2,4 -5,-1 -1,5 h 1 v -2 l 1,1 2,-1 v 3 h 1 l 1,-1 -1,2 h 3 v 4 h -3 l 2,3 5,1 2,-2 2,3 -1,4 h 3 l 2,-6 5,1 2,-1 -1,-6 -3,-4 h 4 l -1,-5 h 2 l 1,-6 -3,-1 -3,-2 1,-1 -1,-2 h 2 l -1,-2 4,5 v -2 h 1 v 2 l 4,-2 h -2 l -3,-1 1,-3 h -1 v -2 l 5,1 1,4 4,-4 1,-3 -1,-1 2,-2 -2,-3 z"
     id="path12"
     style="stroke:#000000;stroke-width:0.2;stroke-linejoin:round" />
  <path
     fill="#b6f2dc"
     d="m 99,374 -5,-4 2,-9 -2,-4 -2,-4 -5,-3 1,-2 -1,-5 -1,-5 h -3 l -5,-5 1,-8 -4,-4 -2,1 -7,-2 -2,-12 2,-2 v -4 l -7,1 -9,2 -5,-5 -3,-9 -3,2 -2,3 h 1 v 6 l 3,2 -3,11 v 1 l -2,10 1,5 2,3 v 4 l 3,6 v 3 l -2,2 -2,8 2,4 v 7 l -1,2 1,2 -1,1 v 6 l -2,2 v 3 h -3 l -1,1 2,1 2,2 4,-1 3,-3 4,3 h 5 l 2,2 h 1 l 7,1 2,-1 2,5 7,-2 6,3 4,-6 7,1 1,-6 3,-2 3,-2 z m 316,12 5,-3 -1,-7 -5,-7 3,-3 -1,-1 -4,-2 1,-7 -2,-5 1,-3 -1,-4 -4,-3 -4,1 -3,-4 -1,-3 -5,-2 -2,3 h -3 -3 -2 l -7,2 -1,2 2,1 -1,4 4,6 3,7 1,2 2,1 v 4 l -6,7 4,3 2,2 12,4 14,2 z m -119,-56 1,-1 3,2 v -1 l -1,-2 5,-2 -1,-3 h 2 l 2,-3 -4,-2 4,-1 1,-2 3,-2 1,-9 -7,-3 1,-3 -6,-5 -6,-5 -1,5 -3,-6 -9,-10 v -3 l 4,-3 h 3 l 5,3 2,3 h 4 6 l 6,2 1,3 9,3 6,1 5,-1 1,-1 h 5 l 1,-4 2,-1 v 1 l 2,-4 h -3 -3 l -4,-3 -2,2 -6,-3 -10,-4 -3,1 v -2 l -2,-1 -1,2 -12,-6 -5,-5 h -4 l -2,-4 -2,-1 -1,-1 v -1 h -4 l -1,-1 -4,2 -3,-4 -8,-3 -3,-2 -4,7 -3,1 v 3 l -7,10 1,3 -2,1 h -3 l 2,4 -1,5 -4,4 -1,3 v 2 l 5,5 5,2 -4,5 -3,4 1,2 v 6 2 h 2 l 14,3 2,-1 6,2 1,2 3,2 10,1 6,4 4,3 2,-1 z m 131,-23 -1,-5 -3,-2 2,-3 v -5 l 2,-2 -5,-8 1,-6 1,-2 -3,-2 -4,2 -3,-5 -3,-1 v -2 l -3,1 -3,2 -4,1 -1,2 -2,3 h -2 l -4,1 -1,-1 v 8 l -2,1 -15,-2 -1,-2 v -2 l -10,-2 2,7 -1,1 3,2 -2,5 2,6 1,2 3,1 1,-3 3,-1 1,-1 h 6 l 1,-2 4,-2 7,4 6,6 h 2 l 2,3 -1,1 3,2 h 3 3 l 1,-3 h 5 l 2,4 z m -280,-24 2,-1 1,-1 5,1 1,-4 h 3 l 1,-2 7,-1 2,-2 2,-5 9,-8 -2,-14 -6,-6 v -4 -2 l -3,3 -7,3 -4,-1 -3,-3 -4,-4 -6,1 -4,-3 1,-3 -2,-2 -8,1 -4,-1 -3,-2 -6,1 -3,4 2,5 7,2 h 2 l -3,2 3,3 -3,4 4,2 5,2 -1,6 1,3 1,5 5,4 -1,6 -2,2 2,5 -1,5 2,3 1,2 2,1 2,-2 h -1 l 2,-1 1,-5 z m 346,-12 h 2 l 2,-6 5,-1 h 1 l 2,-4 v -2 l 5,-2 -2,-3 1,-7 4,-3 -3,-3 1,-3 -3,-1 v -1 l 2,-1 1,-4 -1,-1 h -6 l -3,-3 -1,1 -4,-2 -2,1 v 5 l -8,-4 h -8 l -1,2 -3,-3 h -5 l -2,-3 h -4 v -3 l -4,-1 -4,3 1,3 -5,5 v 2 l 2,1 -1,4 3,3 3,9 2,5 4,4 1,-2 3,1 1,-1 1,2 3,-1 v 2 l 1,2 5,2 -3,2 v 3 l 4,3 1,3 7,-1 2,-3 z m -4,-72 1,-6 -1,-8 h 4 v -2 l -1,-12 -4,1 -1,-1 -8,2 -1,-1 -2,2 -3,-3 h -4 l -2,-1 h -2 v 4 l -10,-3 -9,-1 v 2 l 1,1 5,4 -4,7 10,4 12,3 -1,2 3,2 1,-1 4,2 5,-1 3,3 4,-2 z m -140,-17 2,-2 4,1 6,-2 1,-3 1,-1 -1,-2 3,2 h 3 l 2,-1 1,-2 -2,-1 v -3 l -5,-4 h -5 l -5,2 -2,-7 -5,-4 1,-2 3,1 -2,-3 2,-2 -1,-3 -12,-2 -3,-1 -1,7 -2,5 v 4 l 2,4 v 3 l 3,4 v 5 l 3,1 -1,2 v 2 l 4,-1 v 4 z m -123,-14 1,-3 -3,-1 -1,-4 4,-4 -3,-3 v 1 h -2 l -2,-2 -2,4 h -4 l -1,11 4,3 1,-1 h 8 z m 255,-20 h 2 v -4 l 1,-1 2,1 1,-1 1,-4 -2,-4 -1,-5 1,-5 -3,-2 1,-2 v -5 l 2,-2 -5,-2 3,-3 7,-3 -1,-4 -4,-5 -6,-2 -11,-3 -3,4 h -7 l -1,-1 -6,1 -2,2 -5,1 -4,10 -1,4 -5,4 v 2 h 3 l 3,4 -1,4 2,4 v 9 l 8,7 6,2 7,-1 3,2 h 8 l 3,2 3,-1 z m -224,0 1,1 1,-3 8,-1 6,3 v -2 l 7,-11 14,-10 -1,-5 2,-6 3,-2 v -7 l 3,-4 1,-6 h -1 -3 l -3,1 -2,5 -7,1 -4,-1 -4,-7 h -5 l -1,-1 -1,-3 -3,-1 v -3 l -4,4 -10,3 h -2 l -1,1 v 2 7 l 2,3 -2,2 -5,1 -2,7 h -3 l -3,5 h -2 l -3,2 -5,8 v 3 h 2 l 4,-2 h 7 l 2,3 9,4 1,1 -1,2 1,6 1,1 z m 95,10 2,1 -1,-3 z m -26,138 -2,2 -3,-1 -1,2 6,4 5,1 -1,2 2,1 -2,1 -1,4 3,3 4,-1 v 5 l 4,1 h 9 l 6,2 2,-1 1,-1 -1,-1 1,-5 5,-7 5,-1 v -2 l -3,-1 v -1 l -1,-2 -4,1 -2,4 -5,2 h -2 l -3,5 -5,-2 1,-2 v -6 l -8,-5 -4,-2 z"
     id="path14"
     style="stroke:#000000;stroke-width:0.2;stroke-linejoin:round" />
  <path
     fill="none"
     stroke-width="1.6"
     stroke-linecap="round"
     d="m 242,309 v -6 l -1,-2 3,-4 4,-5 -5,-2 -5,-5 v -2 l 1,-3 4,-4 1,-5 -2,-4 h 3 l 2,-1 -1,-3 7,-10 v -3 l 3,-1 4,-7 3,2 5,-10 -2,-8 1,-9 2,-4 11,-8 5,-8 5,2 h 8 l 2,2 h 3 l 1,3 h 4 l 2,-1 v -5 l -2,-3 1,-4 -3,-3 1,-6 -4,-1 -3,-4 1,-4 h 3 l 2,-2 1,-4 5,-3 3,2 h 2 l 1,-1 3,-6 -1,-5 8,-6 5,-7 -1,-6 1,-1 -2,-6 -11,-6 h -2 l 2,-9 -2,-4 v -5 l 4,-2 -2,-4 m 225,82 h -2 l -8,2 -8,-4 -9,-2 -2,-2 -4,1 -1,3 -2,-1 -8,-1 -1,-8 -8,-3 -2,-8 1,-5 -5,-2 1,-2 -2,-3 -2,-1 v 4 h -2 l -1,3 -3,1 -3,-2 h -8 l -3,-2 -7,1 2,3 -1,2 -3,5 -3,-1 v 2 l -1,3 -3,5 -1,2 v 2 l 1,1 5,4 -4,7 10,4 12,3 -1,2 3,2 1,-1 4,2 5,-1 3,3 4,-2 v 3 l 3,2 1,5 1,7 3,4 -1,5 v 3 l -2,1 v 5 l -8,-4 h -8 l -1,2 -3,-3 h -5 l -2,-3 h -4 v -3 l -4,-1 -4,3 1,3 -5,5 v 2 l 2,1 -1,4 3,3 3,9 -2,1 -6,1 -1,10 h -1 -5 l -4,5 -3,-2 -3,-3 1,-4 -1,-2 4,-6 -2,-7 -7,-1 -3,-2 -3,1 -5,-4 -2,-3 h -4 l -6,11 2,4 3,1 3,3 -2,1 v 8 5 l -3,1 -3,2 -4,1 -1,2 -2,3 h -2 l -4,1 -1,-1 v 8 l -2,1 -15,-2 -1,-2 v -2 l -10,-2 2,7 -1,1 3,2 -2,5 2,6 1,2 1,3 -1,2 v 2 l -5,1 -5,7 -1,5 1,1 5,-1 6,3 1,2 -2,2 -3,5 -3,1 -3,3 -3,2 h -2 v 4 h 2 -3 v 4 2 l -3,-2 -3,1 -4,3 1,2 -2,2 1,4 -3,1 -3,-1 -7,2 -1,5 -5,-3"
     id="path16"
     style="stroke:#000000;stroke-linejoin:round;stroke-width:0.2;stroke-miterlimit:4;stroke-dasharray:none" />
  <path
     fill="none"
     stroke-width="0.2"
     stroke-linecap="round"
     d="m 546,196 -1,2 -4,-3 -5,-2 -9,3 -3,2 -2,5 -7,2 -3,-1 -3,-1 -3,2 v 4 l 1,2 9,1 9,2 h 8 l 1,-2 3,-4 4,3 h 5 m -40,-2 -4,1 -3,4 -5,-1 m 52,17 -3,-1 h -9 l -4,-2 -6,1 -3,-2 -6,2 -1,2 h -3 m 33,19 -6,2 v 3 l -17,-7 -2,-1 v -2 l -6,-1 m 27,34 -3,-1 -11,1 -4,-1 h -8 l -4,-2 -4,3 h -4 m -96,30 v 4 l -4,2 2,4 -5,6 -6,1 2,3 2,3 -3,3 m -8,3 -2,-11 h -1 -3 l -7,-4 -4,1 m 12,29 -5,1 -2,4 v -2 -4 l 2,-1 -2,-2 -2,1 -1,-3 h -2 l -2,-3 v -5 l 1,-3 -2,-1 -4,7 -2,-4 -1,-1 m 25,23 -4,2 -5,1 v 2 l -3,-1 -1,-4 -2,2 2,4 h -2 2 l -2,1 -1,3 2,5 -2,1 v 1 l -1,2 -7,-6 -1,2 -1,5 -8,5 -5,1 -2,-2 -2,-1 -5,1 -1,3 11,5 3,5 1,3 3,2 5,-1 2,3 3,2 1,-1 1,2 6,-4 -1,-1 v -11 l 2,-1 4,2 5,9 1,4 h 3 l 1,1 v 2 h 3 l 1,4 3,1 2,-1 1,5 h 2 l 3,5 2,-1 m -68,-34 -1,2 m 60,-92 5,-10 -2,-3 1,-2 2,-8 m -167,-114 -4,-1 -2,-1 m 6,2 m -60,-5 2,2 v 5 l 2,2 2,-1 2,2 3,2 -3,5 6,4 v 6 h 2 l 7,-5 5,1 8,-1 m 49,-2 9,-1 1,-3 -5,-3 2,-3 h 2 v -4 l -2,-1 1,-3 7,-5 v -2 m -98,12 -7,-1 -1,4 1,2 -2,2 -2,7 1,4 -3,2 -1,-2 h -1 l -2,5 -11,-1 h -8 l -1,3 2,3 11,-3 1,1 2,-1 h 3 v 2 h 8 l 3,3 4,4 -6,2 v -2 l -3,1 1,5 -5,5 v 2 l -2,1 -1,2 1,5 -2,5 3,5 -4,6 -3,1 m -12,-50 -3,-1 m 51,-1 1,7 -2,7 -4,5 -3,-1 1,3 v 5 l 5,5 -2,3 1,3 2,2 -4,7 v 4 l -5,5 -5,-1 m -32,-46 1,2 -2,2 -2,6 4,3 h 2 1 l -1,7 -7,5 1,1 3,11 m -24,3 h -1 l -1,5 -3,-1 -7,8 h -3 l -6,4 h -4 v -2 h -3 v -2 h -4 l 1,-2 -2,-4 -5,3 -1,-2 -4,-8 3,-1 2,-6 -1,-4 4,-3 -1,-4 4,-4 -1,-6 m 135,36 -6,1 -1,4 -2,2 -1,-2 -3,2 2,4 -3,2 1,2 -4,2 -1,2 h -3 l -3,2 v 4 l -2,2 -2,2 -4,-2 -6,-2 m -48,-6 -3,2 -2,1 -4,-4 -1,3 -2,-3 -2,-1 -2,4 -4,2 v 3 l -8,-1 v 2 l 2,6 3,3 -2,4 -2,6 3,6 -4,5 -1,6 -4,4 v 5 l -6,3 -1,4 -3,2 -4,-1 -4,4 -6,2 m 140,-10 -4,-7 h -3 l -3,-3 6,-5 v -2 l -5,-11 -3,2 -4,-4 -1,-3 h -2 l -5,3 -3,-1 h -1 l -4,-1 v -4 l -5,-1 -9,-1 m 223,-204 -1,4 h -2 l 1,1 3,1 2,-1 3,2 2,1 -1,2 3,2 -2,5 2,6 h 3 l 2,-1 2,-1 2,2 v -2 l 3,2 -4,7 -2,1 -2,10 1,1 m 42,-34 -1,1 -4,5 2,6 6,4 5,-1 3,-2 v 4 l -2,1 m 80,11 -3,-1 -3,-3 -6,-3 -10,-2 -2,3 -4,-2 -2,1 h -4 l -5,-2 -6,3 -3,2 m -80,30 h -2 v 2 h -3 l -3,3 h -1 l 1,-4 -3,2 -2,1 v 3 l -2,2 -2,-1 2,-4 h -3 v 2 h -2 l -2,-3 2,-3 -18,2 -2,1 -10,-3 -11,1 -17,2 m 3,8 -2,-2 m 66,43 -3,-4 -1,1 1,-4 -4,-1 -1,2 -2,-3 h -4 l -3,-4 -4,1 -2,-6 -3,4 -2,2 m 75,0 -4,1 -4,-1 -2,1 -2,3 -5,2 -5,-1 -1,2 h -2 l -10,6 m -68,-2 1,9 -1,2 5,3 v -4 h 2 l 2,3 5,1 5,-4 2,1 4,-5 2,3 2,1 1,-2 5,1 3,-1 v 2 l 6,-2 1,1 m 12,33 h 3 l 5,6 3,2 m -6,36 -3,-1 -4,-5 -7,-2 -4,-1 -5,-5 h -4 l -14,-5 -3,-3 -1,1 -1,-3 v -3 l -6,1 -2,-2 -16,2 -3,2 -1,-2 -9,2 -5,-3 -2,-5 -6,-1 -3,-5 -1,2 -3,4 v 4 h -1 l -1,2 -4,2 -2,-1 -3,2 -1,-1 -4,2 -1,2 -2,1 m 128,-192 -5,-1 -1,-4 -8,-3 -3,-1 -4,-4 v -2 m -26,241 h -1 l -6,1 -3,-2 -3,3 -4,-2 v 2 l -2,1 v 1 l -2,-2 v -4 l -2,-2 m -60,-3 -4,-1 1,3 -1,4 -4,1 v 5 l -2,-1 -1,2 -3,2 -3,-2 -6,4 -6,-1 -4,-1 m 100,20 1,8"
     id="path18"
     style="stroke:#000000;stroke-linejoin:round" />
  <path
     sodipodi:nodetypes="ccccccccccccccccccccccccccccccccccccccccccccccccccccccccccccccccccccccccccccccccccccccccccccccccccccccccccccccccccccccccccccccccccccccccccccccccccccccccccccccccccccccccccccccccccccccccccccccccccc"
     fill="#eeeeee"
     d="M 107,455 98.40472,454.96853 89,455 h -2 2 z M -1,399 0,398 h -1 z m 0,-146 6,10 -6,-8 v -6 l 4,1 -3,-2 h -1 z m 384,-239 12,9 3,-2 -2,-6 -2,2 -5,-5 v 3 z M 266,180 h -7 l 3,13 3,-2 1,9 5,4 4,10 11,2 10,-11 1,-16 -4,-4 -9,-3 2,-5 -3,-3 h -12 z m 260,-110 -6,1 6,1 -1,10 5,3 V 70 Z M 278,267 h -4 l -2,10 5,-4 -1,-3 h 4 z m -225,123 3,1 2,-3 -6,-2 z M 35,311 h -5 l 7,1 -8,7 -13,-5 9,6 5,-1 -3,12 4,-12 6,-3 -4,15 3,-4 3,11 3,-3 -5,-4 -1,-9 8,2 -6,-4 1,-9 4,-2 z m 6,-62 3,6 -4,-2 -1,3 -6,1 1,9 -3,1 v 5 l -3,-2 2,9 3,-11 3,1 -2,-12 3,1 3,-3 3,4 4,-4 v 5 l 2,-2 4,10 v 6 l 2,-7 -3,-2 1,-5 -4,-4 3,-3 -6,-3 v 4 z m 190,-160 -4,6 6,3 -4,-3 z m 53,40 4,3 11,-1 -9,-1 1,-4 z m -3,-6 -4,5 8,-6 z m -16,-14 2,2 v -3 l 1,4 -3,11 2,5 -3,5 3,-3 3,3 3,-3 -3,-1 1,-19 -3,-6 -5,3 z m -134,89 -2,4 5,3 2,-3 z m 264,95 -4,4 2,-2 3,2 -2,-2 4,-4 z m -8,-73 3,-1 v 4 l 1,-4 5,5 -4,-8 -2,2 1,-4 z m -275,185 -7,3 11,-1 -3,-2 4,-6 z m 52,-18 -5,-1 6,3 -1,3 5,6 -2,-7 h -2 l 3,-9 -2,7 z m 2,12 -6,-4 -1,7 h -3 4 l 1,-6 z M 0,267 l 5,2 -4,2 4,-1 -1,4 5,3 -5,-9 3,-2 -2,-3 z"
     id="path20"
     style="stroke:#000000;stroke-width:0.2;stroke-linejoin:round" />
  <g
     id="g30">
    <rect
       id="rect24"
       height="36"
       width="168"
       y="4"
       x="4"
       opacity="0.75"
       fill="white" />
    <rect
       id="rect26"
       height="8"
       width="160"
       y="8"
       x="8"
       fill="black" />
    <text
       id="text28"
       y="36"
       x="88"
       font-family="sans-serif"
       font-size="24"
       text-anchor="middle"
       fill="black">50km</text>
  </g>
</svg>
