<?xml version="1.0" encoding="UTF-8" standalone="no"?>
<svg
   xmlns:dc="http://purl.org/dc/elements/1.1/"
   xmlns:cc="http://creativecommons.org/ns#"
   xmlns:rdf="http://www.w3.org/1999/02/22-rdf-syntax-ns#"
   xmlns:svg="http://www.w3.org/2000/svg"
   xmlns="http://www.w3.org/2000/svg"
   xmlns:sodipodi="http://sodipodi.sourceforge.net/DTD/sodipodi-0.dtd"
   xmlns:inkscape="http://www.inkscape.org/namespaces/inkscape"
   inkscape:version="1.0 (4035a4fb49, 2020-05-01)"
   sodipodi:docname="Kagawa.svg"
   id="svg30"
   version="1.1"
   height="409"
   width="597">
  <metadata
     id="metadata36">
    <rdf:RDF>
      <cc:Work
         rdf:about="">
        <dc:format>image/svg+xml</dc:format>
        <dc:type
           rdf:resource="http://purl.org/dc/dcmitype/StillImage" />
      </cc:Work>
    </rdf:RDF>
  </metadata>
  <defs
     id="defs34" />
  <sodipodi:namedview
     inkscape:current-layer="svg30"
     inkscape:window-maximized="1"
     inkscape:window-y="-8"
     inkscape:window-x="-8"
     inkscape:cy="165.91493"
     inkscape:cx="324.29474"
     inkscape:zoom="1.4473777"
     showgrid="false"
     id="namedview32"
     inkscape:window-height="1017"
     inkscape:window-width="1920"
     inkscape:pageshadow="2"
     inkscape:pageopacity="0"
     guidetolerance="10"
     gridtolerance="10"
     objecttolerance="10"
     borderopacity="1"
     bordercolor="#666666"
     pagecolor="#ffffff" />
  <title
     id="title2">衆議院小選挙区 香川県</title>
  <desc
     id="desc4">Author: Lincun</desc>
  <rect
     id="rect6"
     height="409"
     width="597"
     y="0"
     x="0"
     fill="#eeeeee" />
  <path
     fill="#cccccc"
     d="m 307,-1 -1,1 v 3 l -3,-1 -5,8 -3,13 -1,1 -4,-7 -3,-10 -3,-8 H -1 v 1 l 5,1 2,11 5,2 6,7 -1,4 2,5 v 2 l 3,6 -4,7 2,6 h -2 l -1,4 h 5 l 1,4 v 4 l -6,7 1,3 1,2 h 3 l 1,12 h 4 l 2,2 10,-6 3,4 -1,2 -8,4 v 6 l 2,-1 6,2 4,-3 3,-5 10,2 5,-3 -2,-3 2,-9 -4,-1 -7,-12 -4,-7 -6,-4 -2,-5 h 2 l 2,5 4,4 2,-3 v 4 l 3,-1 -1,3 4,4 h 1 l 1,8 4,3 -1,-3 3,1 1,5 5,6 5,-1 6,-4 8,2 h 2 l 1,-3 h 7 l 1,1 5,-3 -7,-6 3,-6 5,-3 h 6 l 1,3 6,-8 6,1 2,-3 4,1 1,-3 -1,-2 5,-3 1,-3 10,1 v 3 l -2,1 -1,3 7,1 v -4 h 4 v -5 l -4,-2 h -3 v -2 l 6,1 1,1 V 32 h 7 l 1,9 -1,34 9,3 h 3 l 1,-2 8,5 2,-1 -4,-14 -10,-4 v -5 h 1 v 2 l 8,2 1,-17 2,-1 -1,5 4,4 -2,7 3,8 7,2 -2,7 h 1 v 5 l 5,-2 v 6 l 4,1 v 2 l -2,1 v 2 l 5,5 1,5 3,3 3,-3 2,2 h 4 l 6,4 5,1 -6,-8 -1,-4 v -8 h -1 v -2 l 4,1 v -5 h 1 l 7,-4 1,2 1,-3 4,4 4,-1 5,1 2,2 4,-1 7,8 h 12 l 4,3 3,1 v -2 l 4,2 h 4 l -1,-5 4,2 v 2 l 6,-3 v -6 l -5,-7 h 3 l -1,-4 6,-3 -1,-2 1,1 1,-4 2,1 1,-1 h 3 l 2,-2 -6,-11 5,-5 -3,-3 11,-7 6,2 3,8 4,2 2,3 2,-4 h -3 v -2 l -1,1 -3,-5 1,-1 2,-1 -3,-3 4,-8 h 2 l 1,-3 4,-1 1,3 h -1 l 3,2 1,-1 v -2 l 2,-3 4,1 -2,-4 3,-1 h -2 l -1,-4 3,-7 7,-1 -3,-3 V 0 l -1,-1 z m 51,0 v 2 l 4,1 5,1 6,-2 3,4 6,-2 4,-4 z m 29,0 4,1 4,-1 h 1 z M 283,116 h 3 l -1,1 z m 49,-55 5,2 2,-5 2,-3 h -3 z m -267,136 4,-6 -1,-1 -3,1 -4,-1 v 2 2 z m -14,-26 1,-4 -5,-3 -2,-3 v 7 l 2,1 1,2 3,1 z m 6,-7 v 2 l 2,1 v -4 l -3,-3 z m 37,-10 h -2 v 3 l -2,2 -2,-3 -4,4 v 1 l 4,2 4,-2 2,-5 h 4 l -1,-3 z m 1,-10 -2,3 2,-1 z m -2,-3 v 1 l 2,2 1,-3 z m -48,-3 h -1 v 2 l 3,-1 z m 28,-10 -1,-2 -4,1 -2,5 -3,1 1,2 -2,1 h -2 v -3 l -2,1 -3,4 6,5 1,-1 3,4 h 2 l 3,4 h 9 l 1,-6 -7,1 -1,-2 3,-10 h 4 l -1,-3 -2,3 z m -13,-8 2,-3 h -3 l -2,5 h -1 v -2 l -3,3 h -4 l 4,12 4,-3 2,-4 h 2 l -2,-5 z m -11,-14 -2,1 -1,4 h 3 l 7,-3 v -3 l -3,-1 v 2 l -3,-1 z m -4,0 -1,1 h 2 l 1,-2 -1,-3 z m 4,-6 h -1 v 3 z m 185,15 2,-4 -5,1 2,4 z m -34,-1 h 2 l -1,-4 h -3 l -5,-3 1,7 3,1 z m 44,-18 1,1 1,-3 -2,1 z m -89,-10 -1,-2 -1,2 z m 12,0 2,-1 -3,-2 -3,2 3,2 z m 223,-68 -1,-2 v 3 z m -3,-3 -3,-1 v 2 h -2 v 3 l 2,-1 h 4 z m -5,-1 v 2 h 1 z m -383,90 9,7 5,-8 -4,-3 1,-2 -11,-7 z m 0,-17 15,10 2,-3 V 81 l -2,-10 2,-2 1,4 -1,-3 6,-7 v -4 l -1,-4 h -5 l 1,-4 h 2 l -2,-6 4,-7 -3,-6 V 30 L 16,25 17,21 11,14 6,12 4,1 -1,0 Z m 31,98 -2,-1 -3,2 -3,-1 2,4 3,-2 2,2 z m -15,-14 1,1 2,-3 3,1 -1,-2 -4,-2 -3,-4 -4,-1 v 2 l -3,1 1,5 z m 13,-13 -1,-1 v 1 z m 570,97 -3,3 -11,2 -7,-1 -1,11 -5,6 v 2 l 2,1 v 7 l -5,1 -3,6 -4,1 v -4 l -6,-4 -6,3 -3,-1 -2,-5 h -4 l -9,-8 h -6 l -2,8 -6,-2 -3,2 -8,-3 -4,4 -6,2 -3,-7 -3,-1 -5,2 -2,-3 -5,-1 h -3 l -7,3 -2,-1 h -9 l -1,2 -3,-2 -7,4 -2,1 -4,-2 -2,3 -5,-1 -4,-2 h -3 v -1 l -10,7 -5,1 -2,5 -4,5 2,12 -10,10 -1,-1 -10,4 h -4 l -8,-5 -3,3 -3,3 -5,1 -2,-3 -5,-1 -4,5 -1,6 -5,3 -3,3 1,4 -1,1 -9,-1 -4,4 v 3 l -2,1 -4,1 -4,-3 -7,4 -2,-6 -6,-1 -1,-4 -7,-3 v -6 l -4,-4 1,-6 -10,1 -6,7 -4,2 h -2 l -4,-5 -15,6 -1,-3 -4,-1 -9,7 -5,-2 -6,4 v 4 l -2,5 1,4 -13,3 -4,-4 1,-2 -6,-2 -2,1 -3,5 -3,-1 -3,3 -3,6 -10,7 -6,4 -3,5 -1,9 -5,4 -3,2 -4,-2 -5,3 h -7 l 3,7 -4,6 -1,5 h 453 z m -453,155 1,-5 4,-6 -3,-7 -1,-3 -7,-7 h -4 l -1,-2 -10,3 -5,-6 -2,-2 -8,4 -3,-3 h -2 l -3,-5 -4,7 -3,-1 -3,8 h -4 l -1,4 v -1 l -3,-1 1,-2 -2,3 2,1 v 1 l -2,2 -1,-1 -2,5 -3,-2 -1,1 2,5 -6,-4 -2,2 6,6 -2,2 h -1 l -2,4 z M 9,410 H 8 Z"
     id="path8"
     style="stroke:#000000;stroke-width:0.2;stroke-linejoin:round" />
  <path
     fill="#f6bad3"
     d="m 16,328 1,-1 -1,-2 z m 48,-13 h 4 l 1,-4 -1,-1 -3,1 -2,-3 h -2 l -1,2 3,6 z m -43,-19 -2,-1 1,1 z m 102,34 -1,7 2,1 -1,3 v 3 h -2 v 2 l 2,2 -3,-2 2,3 -5,16 -11,7 -5,-1 3,5 h 2 l 3,3 8,-4 2,2 5,6 10,-3 1,2 h 4 l 7,7 1,3 h 7 l 5,-3 4,2 3,-2 5,-4 1,-9 3,-5 6,-4 10,-7 3,-6 3,-3 3,1 3,-5 2,-1 6,2 -1,2 4,4 13,-3 -1,-4 2,-5 v -4 l -2,-7 1,-5 -3,-7 2,-6 -1,-12 -3,-4 v -3 l -5,3 -1,-3 1,-5 v -5 l 2,-3 v -4 l -4,-4 5,-4 h 3 l -3,-14 -2,-2 1,-2 4,-2 2,-2 h 3 l 2,4 6,1 5,2 v 2 l 3,3 v 2 l 2,3 v -3 l 8,2 9,-1 5,-3 2,2 2,-2 -3,-4 2,-5 -1,-11 2,-2 -2,-3 -2,1 v -1 l 5,-8 1,-5 11,-1 4,-3 2,2 6,-8 v 6 l 3,-1 9,4 2,1 v 3 l 2,-1 -1,-1 v -2 l 3,1 4,-1 2,2 1,-3 3,3 -1,3 -2,4 -3,7 3,4 h 2 l 1,5 5,7 3,1 2,4 3,15 h 3 l 2,2 -2,5 3,6 -1,3 v 3 l -5,2 3,2 1,11 4,1 3,7 7,7 5,1 2,3 5,-1 3,-3 3,-3 8,5 h 4 l 10,-4 1,1 10,-10 -2,-12 -4,-1 -4,-10 -5,-7 1,-2 -4,-4 1,-5 v -3 l -2,-3 v -8 l 5,-8 -2,-6 2,-2 -2,-3 -1,-7 5,-26 2,-1 v -4 l 2,-1 h -1 l 1,-3 -1,-5 4,-4 3,2 3,-1 8,3 3,5 -4,6 1,9 7,2 -3,9 2,7 -2,5 3,2 1,5 -2,1 -1,2 3,4 -3,8 v 3 h -1 v 5 l 2,4 -2,3 1,7 h -2 l -3,11 10,-7 v 1 h 3 l 4,2 5,1 2,-3 4,2 2,-1 7,-4 3,2 1,-2 h 9 l 2,1 7,-3 h 3 l 5,1 2,3 5,-2 3,1 3,7 6,-2 4,-4 8,3 3,-2 6,2 2,-8 h 6 l 9,8 h 4 l 2,5 3,1 6,-3 6,4 v 4 l 4,-1 3,-6 5,-1 v -7 l -2,-1 v -2 l 5,-6 1,-11 -8,-3 -6,-5 -1,-2 -4,-2 -2,-4 5,-1 -1,-2 -3,-2 h -5 l 1,-2 -3,-7 -9,-7 -1,2 1,3 -4,3 h -4 l -4,-3 -3,2 -3,-1 -1,-1 v 1 l -1,-2 -5,-2 -8,-9 -7,-4 -6,3 -4,-1 -5,-3 -2,-2 v -3 l -3,-2 -2,5 -4,-1 -4,-4 -2,-5 h -1 l -1,-7 7,-4 1,-4 h 3 l -2,-7 2,-2 v -2 l -4,-1 -1,-6 -4,-4 -7,10 h -2 l -5,-4 1,-2 -2,-2 -2,1 -3,-12 -3,-3 -3,2 5,11 -1,2 -4,3 -3,-2 -4,1 -1,-3 -4,-3 v 4 l 3,2 -2,1 1,7 1,-1 1,2 -6,-1 v 5 h -8 l -6,-11 h 1 l -1,-2 h 2 l 1,-7 -1,-7 1,-5 3,-2 -1,-4 -2,-5 -13,-8 -6,3 -3,-2 -1,1 2,5 3,-1 1,2 -1,2 -2,-1 -1,6 -3,1 1,10 h 2 v 1 l -1,1 h -3 l -4,-9 -8,-9 -2,1 1,14 -4,8 -3,3 v -6 h -3 v 3 h -3 l 1,-7 h -4 v 3 l -5,1 5,2 -3,6 1,-4 -1,-1 -1,3 v -3 l -1,-1 -5,1 v -2 l -2,2 h -5 l 2,2 h -3 -2 2 v -3 l -5,-1 -5,1 -3,-2 h 4 l -4,-1 v 3 l -4,-1 -1,3 -1,-3 -3,-1 -2,-2 1,-1 -6,-4 -2,-5 -6,6 v 2 l -3,-5 h 1 l -2,-5 -6,-3 -2,4 -3,1 -1,-5 -6,-6 -3,8 -2,1 -5,-3 -1,2 h -4 l -3,-3 -3,2 -1,3 3,8 v 3 h -2 l 3,3 -8,8 3,2 -5,-3 -3,3 1,1 -1,-1 -2,2 1,2 -1,1 -1,-2 -3,3 2,3 -3,-3 -1,1 v 3 l -2,-2 -4,3 2,-4 h -2 l -6,4 h -1 v -5 h -2 l -1,-1 6,-1 -1,-3 h 5 l 5,-5 1,-5 -2,-5 -4,2 v 4 l -1,-2 -9,9 v -4 l 6,-6 v -3 l -9,6 -1,2 v -1 l -2,-2 2,5 -1,5 3,1 1,8 1,2 8,11 -2,4 1,4 -3,5 -1,1 v -2 l -1,1 -3,-4 -1,1 v -2 l -2,-4 -4,-3 -3,3 -2,-7 -5,3 -3,-2 -2,1 1,1 v -1 1 l 3,3 -2,2 v 3 l 1,-1 -1,2 -2,-1 1,-3 -4,-8 -7,3 4,4 2,-1 1,2 -5,2 2,4 -1,1 -5,-10 -1,1 -2,1 3,6 3,2 -5,3 5,8 1,3 -2,1 3,3 -1,1 1,3 -1,1 1,4 -2,-1 1,1 -1,-1 -2,3 -3,-3 -1,1 -5,2 2,4 -4,2 -4,-5 -4,7 -4,1 -1,-1 -4,3 -6,-7 -5,4 -7,-2 v 3 l -4,-1 -3,9 -3,-1 3,-3 2,-6 -2,-1 -2,7 -3,-5 4,-6 -1,-3 -3,5 -5,1 -2,4 h -5 l -7,-4 -6,2 -3,-3 1,-3 -5,-5 -10,-2 -2,-2 2,-2 h -6 l -5,-3 -4,1 -3,-1 -2,2 10,3 -1,4 4,1 -1,2 -3,2 v 1 h 6 l 6,4 3,2 h 3 l 3,4 v 4 l 5,2 2,3 -1,2 h 2 l 1,-1 5,3 1,3 -2,1 h 2 l 4,8 3,-1 v 5 l -2,4 1,1 -1,10 -1,5 1,2 -3,1 1,3 -1,12 -1,2 -3,1 3,1 -4,1 1,6 h 2 z m -16,-78 v 1 l 1,-3 z m 36,-34 h 5 l 2,-1 -1,-2 -5,-1 -2,1 z m -28,8 6,-9 h 3 l 1,-2 6,3 2,-1 -1,-4 2,-4 -3,1 -2,-1 -3,6 h -4 l -3,-4 2,-3 -1,-2 -4,-1 -2,4 4,2 v 5 l -6,4 1,1 -1,3 z m 6,42 -1,2 h 2 z m -6,-5 1,3 1,-1 2,2 1,-1 -2,-4 z m 131,-116 -3,-1 3,2 z m -13,-14 -2,-1 v 1 l 2,4 z m -5,-1 -5,2 1,5 2,1 h 2 l 1,-3 z m -5,-9 -2,-1 -1,3 h 2 z m -7,-8 v 2 l 4,2 -2,-2 3,-3 -2,-4 -6,1 z m 267,66 -1,-1 v 2 z m -56,-48 -1,-4 v 6 h 1 z m -21,-12 -1,-1 -1,1 z m -9,0 -1,-2 v 2 z m -8,-2 h -3 l 2,4 -5,4 2,1 6,-3 z m 9,-5 -1,3 h 2 l 1,-3 z m -191,39 -3,-2 -2,1 -1,6 7,-1 z m -75,-7 -2,-7 -4,4 3,1 1,2 z m 44,0 -7,-13 v -3 l -5,-2 v 9 l -2,1 -3,-1 -2,6 h -2 l -1,-1 -2,4 1,6 h -2 l -1,2 4,4 h 2 l 3,3 5,-1 2,-7 2,-1 2,2 h 2 l 4,-5 z m 31,-15 -4,-4 -9,8 -5,-6 v 7 l 4,6 -3,6 5,1 3,-2 2,-4 5,-2 1,-2 h 3 v -2 h 2 l 2,-1 -3,-2 v -3 z m 0,-8 -3,1 v 3 l 5,-1 1,-1 z m -62,0 1,-2 h -3 l -7,3 -5,-2 6,7 v 5 l 2,1 1,5 7,-8 -1,-4 -3,1 z m 60,-5 h -4 l 5,2 z m 81,15 -2,-2 v 2 l 2,1 z m 74,-5 v -5 l -3,-1 -4,10 -5,7 1,3 3,-1 3,-6 3,-1 z m -74,-13 -3,1 2,1 z m 72,0 1,2 1,-2 4,-1 1,-4 -2,-5 -2,1 -3,6 z"
     id="path10"
     style="stroke:#000000;stroke-width:0.2;stroke-linejoin:round" />
  <path
     fill="#ece3b4"
     d="m 160,225 h -1 v 1 z m 4,12 6,7 4,-3 1,1 4,-1 4,-7 4,5 4,-2 -2,-4 5,-2 1,-1 3,3 2,-3 1,1 -1,-1 2,1 -1,-4 1,-1 -1,-3 1,-1 -3,-3 2,-1 -1,-3 -5,-8 -7,4 -3,-5 -3,3 4,4 h -3 v 3 l -2,-2 v -1 l -2,-4 -3,2 v 5 l 4,5 -14,11 z m -17,-45 2,-3 -1,-4 -7,-5 h -4 l 5,10 z m -23,-21 2,2 h 3 l -1,-2 z m -9,4 h 3 l 3,-5 -7,-11 -2,2 2,6 v 6 z m 320,-95 -1,-2 -2,2 v 2 z m -38,-3 3,-3 -1,-2 -2,2 h -7 l -1,4 5,1 z m -27,-15 -3,-1 -6,7 -9,-1 -1,5 -2,-1 -1,2 1,2 h 4 v 2 l 4,2 8,1 9,8 2,-1 4,-7 6,-6 v -9 l -4,2 -5,-3 -1,-4 z m 41,-16 h -2 l 2,3 3,-2 v -1 z m 8,-1 -3,3 2,-1 1,1 2,-3 z m -1,-6 v 2 l 1,-2 z m 22,33 2,1 2,-2 3,1 3,6 3,-3 4,-2 2,3 -2,5 4,-1 1,3 -1,2 h 3 l 1,3 -3,2 1,4 -3,4 -4,1 -2,3 2,1 5,-1 1,2 -1,4 -2,-2 v 3 l -4,1 4,8 h 4 l 6,-6 1,-1 -3,-1 v -2 l 2,-7 7,-7 -2,-3 5,-9 8,-2 8,-7 2,3 v -2 l 7,1 v 3 l 3,1 -1,8 -5,-2 -4,2 -2,-2 -1,1 -3,-1 -4,3 2,7 -1,2 -2,-2 -2,1 4,3 1,-2 7,-3 3,-6 5,3 4,-3 6,9 1,7 3,1 1,-3 -2,-7 7,-8 3,-12 -6,-4 v -3 l 1,-2 4,-1 -2,-8 4,-5 -1,-8 4,-4 -1,-3 -2,-4 -6,-1 -1,-3 6,-9 h 5 l 2,-2 h -6 l -1,2 -4,1 -1,-3 h 3 v -2 l -10,1 -2,-1 -8,3 -4,4 -1,2 -6,3 h -6 l -4,-2 -3,1 -2,-1 1,-2 -3,-1 -2,3 h -2 l -1,1 h 1 l -1,3 -8,6 -1,4 -6,1 -3,-1 -9,6 -8,-1 -4,4 -5,-2 -4,-4 v -3 l -3,7 1,4 -6,6 4,-2 2,1 -1,4 9,9 -6,-2 -2,-3 -6,1 -7,10 -2,6 4,1 2,5 10,-3 1,-6 4,-2 2,1 2,-3 2,1 2,-4 z m -104,29 v -1 l -4,-1 -2,2 2,3 z m -33,-12 2,2 h 5 l -1,-5 -3,2 -3,-1 z m 30,-8 v -2 l -3,2 v -3 l -3,3 2,6 z m -28,1 -3,-7 -2,3 3,2 v 2 z m 22,-2 1,-3 -2,-1 -1,-1 h -2 z m 0,17 2,2 4,-3 2,-5 -6,3 -1,-7 -10,-8 v -3 l -6,2 -1,-3 -2,1 v 7 l 2,3 3,4 -1,2 2,3 1,-1 1,2 h 4 l 2,3 1,-2 z m -15,-24 1,5 2,-3 h -2 z m 10,1 3,-2 v -3 l -2,1 z m -6,-11 -1,3 3,2 2,-4 -3,1 z m -4,-4 h -1 l 1,4 z m 4,-1 -3,1 v 2 l 3,-2 z m 16,3 2,3 v 5 l 6,6 1,-20 -2,3 -2,5 z m -19,-8 v -2 l -3,2 1,4 h 3 z m 197,44 1,-2 -3,2 z m -278,84 -2,2 v -3 l -4,2 1,2 -8,4 v 1 l 2,7 3,-3 4,3 2,4 v 2 l 1,-1 3,4 1,-1 v 2 l 1,-1 3,-5 -1,-4 2,-4 z m -1,-2 -1,-8 -3,-1 1,9 z m 93,46 1,-3 -3,-3 -1,3 -2,-2 -4,1 -3,-1 v 2 l 1,1 -2,1 v -3 l -2,-1 -9,-4 -3,1 v -6 l -6,8 -2,-2 -4,3 -11,1 -1,5 -5,8 v 1 l 2,-1 2,3 -2,2 1,11 -2,5 3,4 -2,2 -2,-2 -5,3 -9,1 -8,-2 v 3 l -2,-3 v -2 l -3,-3 v -2 l -5,-2 -6,-1 -2,-4 h -3 l -2,2 -4,2 -1,2 2,2 3,14 h -3 l -5,4 4,4 v 4 l -2,3 v 5 l -1,5 1,3 5,-3 v 3 l 3,4 1,12 -2,6 3,7 -1,5 2,7 6,-4 5,2 9,-7 4,1 1,3 15,-6 4,5 h 2 l 4,-2 6,-7 10,-1 -1,6 4,4 v 6 l 7,3 1,4 6,1 2,6 7,-4 4,3 4,-1 2,-1 v -3 l 4,-4 9,1 1,-1 -1,-4 3,-3 5,-3 1,-6 4,-5 -7,-7 -3,-7 -4,-1 -1,-11 -3,-2 5,-2 v -3 l 1,-3 -3,-6 2,-5 -2,-2 h -3 l -3,-15 -2,-4 -3,-1 -5,-7 -1,-5 h -2 l -3,-4 3,-7 z m 81,73 4,-5 2,-5 5,-1 3,-11 h 2 l -1,-7 2,-3 -2,-4 v -5 h 1 v -3 l 3,-8 -3,-4 1,-2 2,-1 -1,-5 -3,-2 2,-5 -2,-7 3,-9 -7,-2 -1,-9 4,-6 -3,-5 -8,-3 -3,1 -3,-2 -4,4 1,5 -1,3 h 1 l -2,1 v 4 l -2,1 -5,26 1,7 2,3 -2,2 2,6 -5,8 v 8 l 2,3 v 3 l -1,5 4,4 -1,2 5,7 4,10 z"
     id="path12"
     style="stroke:#000000;stroke-width:0.2;stroke-linejoin:round" />
  <path
     fill="none"
     stroke-linecap="round"
     d="m 241,214 4,-5 1,1 6,-2 h 3 l 10,-5 5,11 4,2 v 5 m 147,-42 -5,10 m -119,22 -2,-3 1,-4 -3,-4 1,-4 -8,-10 3,-4 6,-1 1,-2 2,2 2,-1 h 2 l -1,-2 1,-3 m 189,38 -3,7 -2,2 -2,-1 -1,8 4,5 -5,6 2,14 -7,-4 -3,1 -3,-1 -14,9 -5,-1 h -1 v 4 h -5 l -1,2 2,4 3,3 -2,3 1,4 -3,4 m -271,-40 -1,4 7,10 6,1 3,5 v 4 l 5,-1 h 5 l 3,2 4,-1 6,6 2,1 m -13,-47 3,-2 v 3 h 2 l 6,-3 7,15 5,-3 3,11 m -47,120 -3,-9 -1,-14 -6,-4 -3,1 -1,-5 1,-5 h -4 l -1,-2 h 2 l 1,-4 -2,-3 2,1 -1,-3 h 1 l -2,-4 1,-3 -7,-5 -4,-1 -2,2 -11,-6 -2,-8 2,-2 -4,-5 -3,2 -6,-1 m 312,-217 2,-4 12,-5 2,-5 h 2 l 1,-4 2,-2 h 2 l 3,2 7,1 1,-2 -4,-2 3,-4 h 2 l -1,4 3,1 6,-3 1,2 1,-5 12,1 3,-3 h 3 l 5,-14 v -3 l 2,-4 3,-2 2,-4 m -292,232 4,6 -2,5 6,1 2,2 -2,1 5,11 -2,1 -5,2 -2,4 -3,-1 -5,-4"
     id="path14"
     style="stroke:#000000;stroke-width:0.2;stroke-linejoin:round" />
  <path
     fill="none"
     stroke-width="1.6"
     stroke-linecap="round"
     d="m 389,274 1,-5 v -3 l -2,-3 v -8 l 5,-8 -2,-6 2,-2 -2,-3 -1,-7 5,-26 2,-1 v -4 l 2,-1 h -1 l 1,-3 -1,-5 4,-4 m -166,67 5,2 v 2 l 3,3 v 2 l 2,3 v -3 l 8,2 9,-1 5,-3 2,2 2,-2 v -1 l 1,4 8,3 1,2 6,3 -1,1 3,3 2,4 6,7 v 6 l 2,3 4,-1 h 9 l 3,3 h 2 l 5,7 5,-2 6,2 v 2 l 4,2 4,-1 4,1 3,7 7,7 m -34,-102 3,3 -1,3 m -22,-50 -1,-3 -3,-1 -2,-6 -3,-2 v -3 l -2,-1 1,-11 -2,-4 h -2 l -1,-9 m -68,54 2,7 3,-3 4,3 2,4 v 2 l 1,-1 3,4 1,-1 v 2 l 1,-1 5,9"
     id="path16"
     style="stroke:#000000;stroke-linejoin:round;stroke-width:0.2;stroke-miterlimit:4;stroke-dasharray:none" />
  <g
     id="g28">
    <rect
       id="rect22"
       height="36"
       width="130"
       y="369"
       x="463"
       opacity="0.75"
       fill="white" />
    <rect
       id="rect24"
       height="8"
       width="122"
       y="373"
       x="467"
       fill="black" />
    <text
       id="text26"
       y="401"
       x="528"
       font-family="sans-serif"
       font-size="24"
       text-anchor="middle"
       fill="black">20km</text>
  </g>
</svg>
