<?xml version="1.0" encoding="UTF-8" standalone="no"?>
<svg
	xmlns:dc="http://purl.org/dc/elements/1.1/"
	xmlns:cc="http://creativecommons.org/ns#"
	xmlns:rdf="http://www.w3.org/1999/02/22-rdf-syntax-ns#"
	xmlns:svg="http://www.w3.org/2000/svg"
	xmlns="http://www.w3.org/2000/svg"
	xmlns:sodipodi="http://sodipodi.sourceforge.net/DTD/sodipodi-0.dtd"
	xmlns:inkscape="http://www.inkscape.org/namespaces/inkscape"
	xml:space="preserve"
	enable-background="new 0 0 400 604"
	viewBox="0 0 400 604"
	height="604px"
	width="400px"
	y="0px"
	x="0px"
	inkscape:version="1.0 (4035a4fb49, 2020-05-01)"
	sodipodi:docname="Map_of_Iwate_Prefecture_Ja.svg"
	id="svg3173"
	version="1.1"><metadata
	id="metadata33"><rdf:RDF><cc:Work
		 rdf:about=""><dc:format>image/svg+xml</dc:format><dc:type
			rdf:resource="http://purl.org/dc/dcmitype/StillImage" /></cc:Work></rdf:RDF></metadata>
<defs
	id="defs3">
	
	<inkscape:path-effect
	is_visible="true"
	effect="spiro"
	id="path-effect3211" />
</defs>
<sodipodi:namedview
	inkscape:document-rotation="0"
	inkscape:pageopacity="0"
	inkscape:pageshadow="2"
	inkscape:window-width="1920"
	inkscape:window-height="1017"
	inkscape:window-x="-8"
	inkscape:window-y="-8"
	inkscape:window-maximized="1"
	inkscape:current-layer="svg3173"
	id="namedview3203"
	borderopacity="1"
	pagecolor="#ffffff"
	bordercolor="#666666"
	objecttolerance="10"
	gridtolerance="10"
	guidetolerance="10"
	showgrid="false"
	inkscape:zoom="1"
	inkscape:cx="339.61164"
	inkscape:cy="329.6861">
	</sodipodi:namedview>
<title
	id="title3175">岩手県行政区画地図 (2010年1月1日)</title>
<desc
	id="desc3177">Author: Lincun</desc>
<rect
	height="604"
	width="400"
	fill="#eeeeee"
	y="0"
	id="rect3179" />
<path
	id="path3183"
	fill="#aaaaaa"
	stroke="#000000"
	stroke-width="0.2"
	stroke-linejoin="round"
	d="m -1,23 3,-1 1,-2 5,4 h 4 l 3,5 -1,2 h 1 6 l 1,-2 3,-1 3,-2 v -3 h 3 4 l 2,4 h 2 v -8 l 5,1 1,-2 2,-3 6,-1 2,2 h 3 L 59,4 62,1 64,-1 H -1 Z m 78,-24 -2,22 5,4 7,-1 1,1 1,1 4,-3 4,1 3,-1 4,1 -2,4 1,1 v 2 l 1,4 -1,2 3,4 v 8 l -4,3 -2,-1 -1,-2 -1,2 1,3 -1,5 -2,-1 v 7 l -3,3 v 2 l 3,2 -3,9 3,3 3,6 3,4 3,-2 5,2 4,-1 4,-5 5,-1 4,-4 7,-2 1,-1 -2,-7 5,-3 h 1 l 4,-3 5,-2 4,-2 7,1 4,-2 2,-5 9,-5 1,-2 4,2 3,-3 v -3 l 4,-1 3,-3 4,5 v 5 l 2,1 2,3 6,-4 1,2 1,-1 3,-7 1,-2 3,4 3,-3 1,1 2,-4 2,-1 10,1 4,2 6,5 4,2 5,-4 7,-5 1,-3 -1,-5 1,-3 8,-5 h 4 l 6,-3 5,-4 2,-3 -5,-4 -4,-4 -1,-1 -5,-6 v -2 z m 164,606 1,-3 v -4 h 2 l 1,1 1,3 3,-2 2,2 -1,3 h 2 l 1,-5 -2,-3 2,-2 -1,-1 1,-4 -4,2 h -1 v -2 h -3 l 1,-1 v -2 h -2 l -1,-3 -3,-3 2,-7 7,-3 3,-5 h 2 l 1,2 1,-2 v -3 l 2,-1 2,1 1,-3 2,1 v -1 l -2,-2 -1,1 -2,-5 3,-14 -5,-5 3,-1 v 2 2 l 3,1 1,4 2,-2 1,2 v -2 l 2,-2 2,1 -1,-2 -1,-1 2,1 v -2 h 2 l -1,2 1,2 v 2 h 2 l -1,1 2,2 2,5 3,-1 1,2 1,-3 -2,-1 -1,-4 1,-4 -3,-2 -2,-4 1,-3 -5,-4 h 3 l -1,-2 2,-1 -3,-1 -2,-4 h 4 l -3,-3 -1,-2 -6,-4 -5,-2 h -3 l -2,-3 h -6 l -6,2 -2,-2 1,-1 -3,-1 -4,1 -2,6 v 1 l 1,6 1,2 -2,8 2,6 -4,5 -3,2 v 3 l -4,3 1,4 3,2 -3,3 -1,5 2,7 -7,1 1,1 -1,5 2,2 v 1 l -4,1 -1,3 -2,1 1,-6 -5,-1 v -3 l -2,-1 -3,2 -2,-4 -4,-2 -5,2 -5,-6 -2,2 -1,4 v 5 l -5,-2 -1,2 -2,-2 -1,2 v 1 l -2,1 v 2 l -1,6 -8,3 h 2 l -1,2 h -4 l -3,-3 v -5 l -6,-5 -4,3 -3,-2 -4,-3 1,-7 -5,-1 v -3 h -3 l -2,1 -1,-3 1,-2 2,-1 3,1 6,-7 -2,-7 -6,-1 -3,1 -3,-3 -5,2 -6,-1 -4,2 -2,-2 h -2 v -1 l -9,4 -4,-4 -3,-6 -7,-4 -2,-2 -1,3 -2,-1 v -3 l -8,-1 -15,-12 h -8 l -6,2 h -4 l -7,3 -6,9 -2,-1 -4,2 -4,7 -8,5 -7,-4 -1,2 h -4 v 18 l 1,3 v 8 l 2,6 6,3 2,-1 3,3 -3,3 -1,4 -7,9 v 6 l 5,1 v 2 z m 28,-45 1,-3 h 1 1 v -3 h -2 l -2,-1 1,-2 -1,-1 3,-2 v -3 l -1,-2 -2,-2 -1,3 -4,1 v 2 l 3,1 -3,2 4,7 z M -1,540 h 4 l 1,-2 7,4 8,-5 4,-7 4,-2 2,1 6,-9 7,-3 h 4 l 1,-4 -1,-2 -2,-5 1,-2 -1,-1 4,-3 1,-4 3,-3 v -4 l 4,-6 -3,-1 1,-5 -6,-2 -2,1 -5,-2 3,-9 h -2 v -2 l 4,-2 -6,-5 3,-2 4,-8 2,1 2,-2 5,-2 -4,-4 -6,-1 -1,-2 v -3 -4 l 6,-2 v -4 l -3,-1 -7,-8 -2,1 -6,-4 v -8 l -4,-2 -3,1 1,-7 1,-3 h 3 l -1,-3 -5,-3 1,-4 -4,-3 1,-5 -6,-2 -1,-1 1,-1 2,-3 -1,-4 5,-1 1,-2 1,-4 -3,-4 4,-6 2,-1 2,-1 5,-3 -3,-4 3,-4 v -4 l 3,-2 1,-4 v -4 l -3,-3 1,-3 6,-2 2,-6 5,-1 v -4 h 3 l 3,-3 1,-7 3,-5 v -13 l -2,-3 v -3 l -2,-2 h -3 l -2,-6 -3,-2 8,-3 v -4 l 11,-12 -1,-5 -6,-3 h -5 l -3,-4 -1,-1 1,-7 -1,-6 4,-4 4,1 2,-2 8,6 6,-3 1,-3 -3,-5 -1,-6 -3,-2 1,-2 -1,-2 1,-6 -2,-2 v -17 l 2,-2 -1,-6 1,-4 -3,-10 3,-3 h 1 l 5,-5 1,-5 -3,-1 1,-2 -2,-3 4,-9 h -4 l -2,-4 9,-7 -1,-3 3,-6 1,-1 3,-1 6,-1 v -5 l 1,-1 3,-1 -3,-3 3,-9 -3,-2 v -2 l 3,-3 v -7 l 2,1 1,-5 -1,-3 1,-2 1,2 2,1 4,-3 v -8 l -3,-4 1,-2 -1,-4 v -2 l -1,-1 2,-4 -4,-1 -3,1 -4,-1 -4,3 -1,-1 -1,-1 -7,1 -5,-4 2,-22 H 64 l -2,2 -3,3 -1,12 h -3 l -2,-2 -6,1 -2,3 -1,2 -5,-1 v 8 h -2 l -2,-4 h -4 -3 v 3 l -3,2 -3,1 -1,2 h -6 -1 l 1,-2 -3,-5 H 8 l -5,-4 -1,2 -3,1 z m 8,65 v -2 l -5,-1 v -6 l 7,-9 1,-4 3,-3 -3,-3 -2,1 -6,-3 -2,-6 v -8 l -1,-3 v 47 z" /><path
	fill="#16a34a"
	stroke="#000000"
	stroke-width="0.2"
	stroke-linejoin="round"
	d="m 244,468 4,3 3,-5 h 6 l 2,3 8,-3 2,-1 h -2 l -1,-2 4,-6 1,-6 3,-3 -2,-2 3,-3 4,2 4,-1 2,-3 h 2 l 8,-6 -3,-5 -4,-1 3,-5 -2,-3 1,-7 -3,-1 -9,6 -1,2 -6,-3 -2,2 -6,-2 -3,3 -4,-5 h -4 l -6,5 -5,-1 -4,5 -2,-2 -5,1 1,3 -1,4 v 2 h -2 l -3,3 h -4 v 3 l -4,-1 -7,-2 -3,2 -4,2 4,2 -1,7 2,2 v 5 l 4,2 -1,6 3,3 6,-1 6,3 1,-2 v -6 h 2 l 5,5 4,-1 2,1 2,5 z m -175,-25 -1,-5 1,-3 -1,-3 9,-8 v -2 l -3,-4 v -3 l 3,-1 -1,-3 3,-3 -2,-7 h 2 v -2 l -2,-6 -4,-3 v -7 l -4,-3 1,-3 -4,-3 1,-4 -3,-2 -3,-1 -2,-3 3,-4 -1,-2 5,-2 1,2 3,-3 2,-4 -1,-2 4,-8 1,1 v -3 l -1,-1 1,-1 -1,-2 2,-3 -1,-3 2,-5 8,-4 1,2 8,2 4,-4 2,1 7,2 1,2 4,2 7,-1 4,2 2,-3 1,1 1,4 8,3 14,-1 v 1 l 7,3 4,3 h 6 l 4,1 3,-2 1,3 4,-1 2,-6 2,-2 -3,-3 1,-5 v -3 -4 l 2,-2 -1,-2 3,-2 1,-3 -6,-9 -2,2 1,3 -2,4 -4,-2 -7,-6 -8,1 -1,2 -4,-12 -7,-1 -5,-5 h -3 l -5,5 h -8 l -4,-3 -3,-1 1,-2 -2,-3 v 2 l -6,2 -2,-4 -4,-1 6,-6 -1,-1 v -1 l 1,2 -1,-3 4,-4 h 4 l -6,-1 -1,-7 -1,-4 2,-9 -5,-3 2,-17 -2,-6 h -5 l -4,-3 -7,4 -6,-3 -4,1 -6,-10 -6,3 -8,-6 -2,2 -4,-1 -4,4 1,6 -1,7 1,1 3,4 h 5 l 6,3 1,5 -11,12 v 4 l -8,3 3,2 2,6 h 3 l 2,2 v 3 l 2,3 v 13 l -3,5 -1,7 -3,3 h -3 v 4 l -5,1 -2,6 -6,2 -1,3 3,3 v 4 l -1,4 -3,2 v 4 l -3,4 3,4 -5,3 -2,1 -2,1 -4,6 3,4 -1,4 -1,2 -5,1 1,4 -2,3 -1,1 1,1 6,2 -1,5 4,3 -1,4 5,3 1,3 h -3 l -1,3 -1,7 3,-1 4,2 v 8 l 6,4 2,-1 7,8 3,1 v 4 l -6,2 v 4 3 l 1,2 6,1 4,4 h 4 l 2,4 z m 275,-56 -2,-4 4,1 4,2 5,-3 v -2 l 2,-4 -1,-2 -2,2 -3,1 -1,-4 3,-5 1,-1 3,-5 2,-4 h 1 l 2,3 -2,3 h 3 4 l 1,-1 v -2 l 1,-3 2,3 3,1 1,-2 2,-1 -1,-3 -1,-1 1,-2 -1,-1 3,-3 3,-5 -3,-4 1,-1 -5,1 -6,5 -2,4 1,3 -3,-2 -4,4 -2,-1 v -2 h -3 l -1,-3 2,-1 -3,-2 1,-3 9,-3 5,2 v -7 l -5,-7 h -3 l -2,-8 h -4 l -3,-2 -12,1 -5,-5 -5,1 -7,3 -4,-1 -8,2 -9,3 -1,2 v 1 l -2,1 -1,5 -6,2 -2,5 -1,4 5,11 v 6 l 6,2 1,2 -2,2 2,7 h 7 l 4,3 v 3 h 7 l 3,2 h 3 l 2,2 3,1 6,4 5,-2 z m 20,-19 h 1 l 1,-2 z m -111,-106 4,3 5,-1 1,-6 4,-2 1,-6 8,-1 5,4 h 3 l 4,-3 5,3 3,-2 2,3 4,3 4,-1 8,6 3,-4 h 3 l 3,-3 h 3 v -3 l 9,-2 5,-6 v -3 l -1,-3 h -3 v -2 l 5,-1 1,-4 h 6 l 1,-4 4,-1 h 5 l 1,-2 1,-3 -2,-4 1,-5 -2,-4 v -2 l -3,-1 -4,1 -7,8 h -4 l -2,1 v -2 l -3,-3 1,3 -2,1 -3,-2 -6,-2 -2,-3 -2,-7 -3,1 -2,2 -1,-2 -6,2 -3,-1 3,-10 1,-4 v -3 l 3,-10 1,-4 -2,-2 1,-3 4,-3 -14,-4 v -2 h -1 l -4,3 v 2 h -3 l -1,2 -3,-2 -1,2 -5,-3 -8,4 -2,-2 -1,-2 h -3 l -3,-3 -6,1 -8,-7 h -9 l -2,-4 v -6 l -3,-2 -4,1 -3,-3 -1,-5 -4,-1 -1,-4 -6,5 -3,-1 v -1 h -4 l -1,-5 -6,-4 3,-5 1,-3 -3,-5 -2,-8 1,-2 2,-5 -2,-5 -3,1 -5,2 -5,-2 -2,-3 -7,-1 -1,-3 -5,2 -2,-2 -2,10 -4,1 -5,6 -2,-2 -3,3 -4,2 1,5 -3,5 2,11 -2,5 -5,3 v 5 l -1,1 v 2 l -2,3 -1,7 -4,4 h -2 v 3 l 1,12 5,9 -4,3 -1,3 7,8 7,-1 3,6 v 2 h 4 l 2,2 2,-2 5,2 v -1 h 6 v 3 h 2 v 9 l 3,2 2,1 -2,2 v 4 l 4,-2 3,4 3,-1 2,-4 h 6 l 2,-1 5,1 7,-1 3,1 h 1 l 2,-11 h 4 l 5,3 2,-1 1,-2 6,1 v 8 l 6,14 -2,2 h -2 -4 v 5 l -2,1 -4,8 h -6 l -7,3 -4,-1 -3,4 1,4 -2,2 2,4 -1,3 3,3 v 3 l 5,5 10,-1 8,-9 14,1 z m 29,-175 2,-2 2,1 h 8 l -2,-2 2,-1 1,-7 3,-1 1,1 2,-1 3,1 v -1 l 2,-1 1,-4 4,-2 -2,-4 -3,-5 -1,-8 -2,-1 h 1 l -1,-1 -3,-1 v -4 l -6,-7 -2,-4 v -3 l -8,-11 -2,-3 -2,3 -5,4 -6,3 h -4 l -8,5 -1,3 1,5 -1,3 -7,5 -5,4 -4,-2 -6,-5 -4,-2 -10,-1 -2,1 -2,4 -1,-1 -3,3 -3,-4 -1,2 -3,7 -1,1 -1,-2 -6,4 v 1 l 2,4 -1,6 h 2 l 1,4 2,6 8,-4 h 4 v 2 l 5,-1 1,5 h 2 l 2,3 -1,3 4,3 9,5 h 3 l 1,-4 3,2 4,-2 6,2 2,-2 h 1 l 4,3 4,1 1,1 8,2 9,-2 -2,-5 v -2 z m -188,338 -5,3 -4,9 -5,1 -3,4 2,2 25,14 h 4 l 1,1 h 5 l 3,-5 3,-1 9,-5 5,-6 9,-3 -1,-2 h -3 v -2 -6 l -6,-3 -5,-1 -3,-3 1,-2 -7,-1 2,-2 -2,-1 -3,1 v 2 l -2,-2 -9,6 -9,3 z m 42,72 -3,-4 1,8 -17,2 -7,4 -3,1 3,4 10,3 2,2 1,-2 1,1 7,-2 1,1 3,-1 -1,6 3,-3 2,1 1,-2 -1,-2 3,-3 2,-2 2,2 3,-3 h 5 l 2,-5 -4,-6 -5,2 -5,-3 -3,3 z"
	id="path12" /><path
	fill="#16a34a"
	stroke="#000000"
	stroke-width="0.2"
	stroke-linejoin="round"
	d="m 351,196 -2,-2 v -7 l 1,-2 4,1 v -3 l -2,-7 1,-4 -2,-2 -1,-2 -3,-4 h -6 l -1,-1 -2,-3 -2,-2 -2,-3 -1,-3 -3,-3 -3,-1 -3,-3 -3,-3 -2,-8 1,-5 2,-1 1,-5 -5,-1 -1,6 -7,-1 -1,1 -2,2 h -2 v -2 l -8,8 -2,4 2,7 3,3 2,1 v 6 2 l 14,4 -4,3 -1,3 2,2 -1,4 -3,10 v 3 l -1,4 -3,10 3,1 6,-2 1,2 2,-2 3,-1 2,7 2,3 6,2 3,2 2,-1 -1,-3 3,3 v 2 l 2,-1 h 4 l 7,-8 4,-1 z m -125,-68 -2,-6 3,-3 1,1 2,-10 2,-3 -1,-3 3,-1 -1,-5 3,-2 1,-3 -9,-5 -4,-3 1,-3 -2,-3 h -2 l -1,-5 -5,1 v -2 h -4 l -8,4 2,4 1,8 2,5 -2,5 -1,2 2,8 3,5 -1,3 -3,5 6,4 1,5 h 4 v 1 l 3,1 z"
	id="path14" /><polygon
	fill="#16a34a"
	stroke="#000000"
	stroke-width="0.2"
	stroke-linejoin="round"
	points="363,400 359,399 360,400 "
	id="polygon18" /><polygon
	fill="#16a34a"
	stroke="#000000"
	stroke-width="0.2"
	stroke-linejoin="round"
	points="302,151 300,150 297,147 295,140 297,136 305,128 305,130 307,130 309,128 310,127 317,128 318,122 323,123 325,122 329,123 332,119 326,111 319,107 313,106 311,102 312,103 314,101 316,104 314,100 312,101 313,97 314,95 315,96 317,93 321,93 320,88 318,85 317,81 316,77 314,72 311,68 307,70 306,74 304,75 304,76 301,75 299,76 298,75 295,76 294,83 292,84 294,86 286,86 284,85 282,87 281,87 281,89 283,94 274,96 266,94 265,93 261,92 257,89 256,89 254,91 248,89 244,91 241,89 240,93 237,93 236,96 233,98 234,103 231,104 232,107 230,110 228,120 227,119 224,122 226,128 227,132 231,133 232,138 235,141 239,140 242,142 242,148 244,152 253,152 261,159 267,158 270,161 273,161 274,163 276,165 284,161 289,164 290,162 293,164 294,162 297,162 297,160 301,157 302,157 "
	id="polygon20" /><g
	transform="translate(513.99999,25)"
	id="g875"><g
	  id="g870"><path
		 style="stroke-width:0.2;stroke-miterlimit:4;stroke-dasharray:none"
		 sodipodi:nodetypes="ccccccccccccccccccccccccccccccccccccccccccccccccccccccccccccccccccccccccccccccccccccccccccccccccccccccccccccccccccccccccccccccccccccccccccccccccccccccccccccccccccccccccccccccccccccccccccccccccccccccccccccccccccccccccccccccccccccccccccccccccccccccccccccccccccccccccccccccccccccccccccccccccccccccccccccccccccccccccccccccccccccccccccccccccccccccccccccccccccccccccccccccccccccccccccccccccccccccccccccccccccccccccccccccccccccccccccccccccccccccccccccccccccccccccccccccccccccccccccccccccccccccccccccccccccccccccccccccccccccccccccccccccccccccccccccccccccccccccccccccccccccccccccccccccccccccccccccccccccccccccccccccccccccccccccccccccccccccccccccccccccccccccccccccccccccccccccccccccccccccccccccccccccccccccccccccccccccccccccccccccccccccccccccccccccccccccccccccccccccccccccccccccccccccccccccccccccccccccccccccccccccccccccccccccccccccccccccccccccccccccccccccccccccccccccccccccccccccccccccccccc"
		 fill="#16a34a"
		 stroke="#000000"
		 stroke-width="0.2"
		 stroke-linejoin="round"
		 d="m -132.99999,289 -1,-4 h -4 l -4,-1 2,-7 -2,-1 v -2 l 2,-1 -2,-2 v 1 l -1,-4 1,-2 -1,-2 h 1 v -3 l -1,-2 1,-1 h -3 l -3,6 -6,8 -7,9 h -2 v -4 h 1 v -1 l 4,-4 v -4 l 2,-1 -2,-4 h 2 l -1,-2 2,1 2,-2 -1,-1 h 1 l -1,-1 -3,1 1,-3 3,-6 v -3 h -4 l 1,-2 1,-4 2,-2 v -3 l 1,-1 -5,-3 4,-2 1,-3 4,-1 -2,-1 -2,-1 v -3 l 4,-4 -4,-3 -2,-1 1,-1 -1,-7 2,-3 -1,-3 h -2 l -1,2 h -5 l -4,1 -1,4 h -6 l -1,4 -5,1 v 2 h 3 l 1,3 v 3 l -5,6 -9,2 v 3 h -3 l -3,3 h -3 l -3,4 -8,-6 -4,1 -4,-3 -2,-3 -3,2 -5,-3 -4,3 h -3 l -5,-4 -8,1 -1,6 -4,2 -1,6 -5,1 -4,-3 -4,5 -14,-1 -8,9 -10,1 -5,-5 v -3 l -3,-3 1,-3 -2,-4 2,-2 -1,-4 3,-4 4,1 7,-3 h 6 l 4,-8 2,-1 v -5 h 4 2 l 2,-2 -6,-14 v -8 l -6,-1 -1,2 -2,1 -5,-3 h -4 l -2,11 h -1 l -3,-1 -7,1 -5,-1 -2,1 h -6 l -2,4 -3,1 -3,-4 -4,2 v -4 l 2,-2 -2,-1 -3,-2 v -9 h -2 v -3 h -6 v 1 l -5,-2 -2,2 -2,-2 h -4 v -2 l -3,-6 -7,1 -7,-8 1,-3 4,-3 -5,-9 -1,-12 v -3 h 2 l 4,-4 1,-7 2,-3 v -2 l 1,-1 v -5 l 5,-3 2,-4.999999 -2,-11 3,-5 -1,-5 4,-2 3,-3 2,2 5,-6 4,-1 2,-10 2,2 5,-2 1,3 7,1 2,3 5,2 5,-2 3,-1 -1,-8 -2,-4 -2,-6 -1,-4 h -2 l 1,-6 -2,-4 v -1 l -2,-3 -2,-1 v -5 l -4,-5 -3,3 -4,1 v 3 l -3,3 -4,-2 -1,2 -9,5 -2,5 -4,2 -7,-1 -4,2 -5,2 -4,3 h -1 l -5,3 2,7 -1,1 -7,2 -4,4 -5,1 -4,5 -4,1 -5,-2 -3,2 -3,-4 -3,-6 -3,1 -1,1 v 5 l -6,1 -3,1 -1,1 -3,6 1,3 -9,7 2,4 h 4 l -4,9 2,2.999999 -1,2 3,1 -1,5 -5,5 h -1 l -3,3 3,10 -1,4 1,6 -2,2 v 17 l 2,2 -1,6 1,2 -1,2 3,2 1,6 3,5 -1,3 6,10 4,-1 6,3 7,-4 4,3 h 5 v -3 l 8,-4 7,-1 v 1 l 5,1 2,-5 3,-1 3,6 v 6 h 4 l 2,6 h 2 2 l 2,1 v 3 l -2,2 h 3 v 1 l 1,1 v 11 l -4,1 -1,-2 -4,1 -3,6 h 1 l -4,3 -2,6 -8,-1 3,2 v 4 l 2,2 -10,4 -5,-4 -4,4 1,3 -6,6 4,1 2,4 6,-2 v -2 l 2,3 -1,2 3,1 4,3 h 8 l 5,-5 h 3 l 5,5 7,1 4,12 1,-2 8,-1 7,6 4,2 2,-4 -1,-3 2,-2 6,9 -1,3 -3,2 1,2 -2,2 v 4 3 l -1,5 3,3 -2,2 -2,6 -4,1 -1,-3 -3,2 -4,-1 h -6 l -4,-3 -7,-3 v -1 l -14,1 -8,-3 -1,-4 -1,-1 -2,3 -4,-2 -7,1 -4,-2 -1,-2 -7,-2 -2,-1 -4,4 -8,-2 -1,-2 -8,4 -2,5 1,3 -2,3 1,2 -1,1 1,1 v 3 l -1,-1 -4,8 1,2 -2,4 -3,3 -1,-2 -5,2 1,2 -3,4 2,3 3,1 3,2 -1,4 4,3 -1,3 4,3 v 7 l 4,3 2,6 v 2 h -2 l 2,7 -3,3 1,3 -3,1 v 3 l 3,4 v 2 l -9,8 1,3 -1,3 1,5 -7,4 -2,-4 h -4 l -5,2 -2,2 -2,-1 -4,8 -3,2 6,5 -4,2 v 2 h 2 l -3,9 5,2 2,-1 6,2 -1,5 3,1 -4,6 v 4 l -3,3 -1,4 -4,3 1,1 -1,2 2,5 1,2 -1,4 6,-2 h 8 l 15,12 8,1 v 3 l 2,1 1,-3 2,2 7,4 3,6 4,4 9,-4 v 1 h 2 l 2,2 4,-2 6,1 5,-2 3,3 3,-1 6,1 2,7 -6,7 -3,-1 -2,1 -1,2 1,3 2,-1 h 3 v 3 l 5,1 -1,7 4,3 3,2 4,-3 6,5 v 5 l 3,3 h 4 l 1,-2 h -2 l 8,-3 1,-6 v -2 l 2,-1 1,-3 2,2 1,-2 5,2 v -5 l 1,-4 2,-2 5,6 5,-2 4,2 2,4 3,-2 2,1 v 3 l 4.8125,1.25 -0.8125,5.75 2,-1 1,-3 4,-1 v -1 l -2,-2 1,-5 -1,-1 7,-1 -2,-7 1,-5 3,-3 -3,-2 -1,-4 4,-3 v -3 l 3,-2 4,-5 -2,-6 2,-8 -1,-2 -1,-6 v -1 l 2,-6 4,-1 3,1 -1,1 2,2 6,-2 h 6 l 2,3 h 3 l 5,2 6,4 -1,-4 1,-2 -2,-2 h 1 l -1,-2 2,-1 5,-1 3,1 2,-1 3,3 -3,3 v 2 2 l 3,2 2,2 1,6 h 1 l 2,3 1,-1 -1,-2 h 3 v -2 h 3 l -2,-4 -1,-1 -3,1 -1,-3 3,-2 v -2 l 1,1 v -2 l -1,-3 h 3 v 2 1 l 2,-1 3,2 v -1 l 1,-3 -3,-4 v -3 l -1,1 -2,-2 -1,3 v -3 l -1,2 -1,-4 4,-5 -1,-8 2,-2 2,3 1,1 -2,2 h 2 l -2,3 1,2 -2,2 2,1 -3,1 2,2 v -1 h 3 l 3,2 1,-1 2,-5 1,1 3,2 1,-3 3,-3 -1,6 6,1 2,-1 6,-1 v -3 l -2,-1 -6,-3 -1,-3 6,-1 h 6 l 4,-1 -1,-1 -4,-1 -3,-2 -4,1 -2,-1 v -3 h -1 l -3,-1 2,-2 -1,-3 1,-1 -1,-1 1,-2 5,4 h 3 4 v 2 l 3,1 2,4 v -1 l 4,-3 v -1 l 5,-2 2,-1 -3,-1 -3,-3 -4,1 h -3 v -2 h -1 l 1,-3 -5,-2 -4,-3 1,-2 3,-2 6,1 5,-2 5,-4 1,-3 1,-1 h -7 l -1,1 -5,-4 h -2 l 2,-2 -2,-1 1,-2 5,3 1,-1 -1,-2 4,1 1,-1 5,-3 v -2 h 3 l 2,2 1,-1 2,-1 -2,-2 v -2 l -2,-3 h 4 l 3,-2 -1,-1 -6,2 -3,1 -1,-1 -1,1 v 2 l -3,-1 v -3 h -1 l -5,1 4,-2 -1,-2 -2,-3 h -2 l 1,-2 10,2 v -1 l -2,-3 2,-2 h -2 -1 l -3,-2 1,-2 -5,-1 1,-2 -1,-1 2,1 2,-1 3,1 v 1 l 1,-2 h 2 l 6,-2 2,-1 3,1 2,-2 -1,-1 4,-7 1,-2 -3,2 -2,2 -4,1 v -2 h -1 l -3,4 h -2 l -3,-1 -2,3 -1,-2 -2,1 -2,-4 5,-2 -4,-2 -5,2 -6,-4 -3,-1 -2,-2 h -3 l -3,-2 h -7 v -3 l -4,-3 h -7 l -2,-7 2,-2 -1,-2 -6,-2 v -6 l -5,-11 1,-4 2,-5 6,-2 1,-5 2,-1 v -1 l 1,-2 9,-3 8,-2 4,1 7,-3 5,-1 5,5 12,-1 3,2 h 4 l 2,8 h 3 l 5,7 1,-1 2,1 2,-3 1,-7 3,-1 3,3 1,-1 -2,-1 1,-1 3,-3 v -4 -3 z m -302,130 -2,-2 3,-4 5,-1 4,-9 5,-3 2,1 9,-3 9,-6 2,2 v -2 l 3,-1 2,1 -2,2 7,1 -1,2 3,3 5,1 6,3 v 6 2 h 3 l 1,2 -9,3 -5,6 -9,5 -3,1 -3,5 h -5 l -1,-1 h -4 z m 75,64 h -5 l -3,3 -2,-2 -2,2 -3,3 1,2 -1,2 -2,-1 -3,3 1,-6 -3,1 -1,-1 -7,2 -1,-1 -1,2 -2,-2 -10,-3 -3,-4 3,-1 7,-4 17,-2 -1,-8 3,4 3,2 3,-3 5,3 5,-2 4,6 z m 136,-94 -1,7 2,3 -3,5 4,1 3,5 -8,6 h -2 l -2,3 -4,1 -4,-2 -3,3 2,2 -3,3 -1,6 -4,6 1,2 h 2 l -2,1 -8,3 -2,-3 h -6 l -3,5 -4,-3 -2,3 -2,-5 -2,-1 -4,1 -5,-5 h -2 v 6 l -1,2 -6,-3 -6,1 -3,-3 1,-6 -4,-2 v -5 l -2,-2 1,-7 -4,-2 4,-2 3,-2 7,2 4,1 v -3 h 4 l 3,-3 h 2 v -2 l 1,-4 -1,-3 5,-1 2,2 4,-5 5,1 6,-5 h 4 l 4,5 3,-3 6,2 2,-2 6,3 1,-2 9,-6 z"
		 id="path16" /><polygon
		 transform="translate(-513.99999,-25)"
		 fill="#16a34a"
		 stroke="#000000"
		 stroke-width="0.2"
		 stroke-linejoin="round"
		 points="111,259 112,266 118,267 114,267 119,271 129,267 127,265 127,261 124,259 132,260 134,254 138,251 137,251 140,245 144,244 145,246 149,245 149,234 148,233 148,232 145,232 147,230 147,227 145,226 143,226 141,226 139,220 135,220 135,214 132,208 129,209 127,214 122,213 122,212 115,213 107,217 107,220 109,226 107,243 112,246 110,255 "
		 id="polygon22" /></g></g><path
	id="path3191"
	fill="none"
	stroke="#000000"
	stroke-width="0.2"
	stroke-linecap="round"
	stroke-linejoin="round"
	d="m 148,138 -3,-3 h -5 l -1,-3 v -3 l -4,-3 -1,-5 -11,-1 -2,-3 -4,-2 -3,-6 1,-3 -1,-13 m 33,99 3,8 -5,1 -4,6 h -5 l -4,1 m 80,63 -6,6 -7,4 -5,7 1,4 17,9 2,4 4,2 1,5 -2,1 -2,1 3,3 5,-1 h 10 l 3,7 3,2 4,2 h 6 l 11,9 1,3 h 3 v 3 l 2,2 3,2 2,4 4,1 2,-1 5,6 11,-3 m -78,-39 -4,-5 -9,1 -4,3 h -4 l -4,-3 -5,1 m 48,5 2,9 h -6 l -7,4 v 5 l -3,2 v 6 l 1,4 -4,1 -2,4 -6,2 -2,5 -5,1 -5,4 -6,1 -3,4 1,3 -4,3 v 8 l 2,3 4,-2 2,4 -2,1 v 2 l 7,8 -1,5 6,5 -1,5 -2,3 6,4 v 4 l 7,11 -2,1 m -11,-20 -5,-2 -4,-6 -5,2 1,-4 -4,-10 -11,1 -3,3 -4,-2 -2,2 -3,-2 -3,-2 -3,1 2,-3 -1,-3 2,-3 -4,-6 1,-1 -3,1 v -4 h -2 l 1,6 h -2 v 1 l -2,-1 -2,2 -7,-1 -5,-3 h -4 v 2 l -3,2 v 1 h -3 l 1,7 -3,-2 -2,-2 -9,-2 -9,-6 -1,1 -3,-1 h -6 l -5,-2 -3,-14 2,-4 v -4 l -3,-7 2,-5 -5,-2 -1,-2 m 222,23 -5,1 -7,-1 -7,3 1,1 -2,3 v 4 l -2,2 v 5 l 3,10 -1,2 1,2 h 8 l -4,7 5,7 -1,2 M 168,400 v 3 2 l 4,7 -8,3 -7,-4 -6,2 -3,6 -3,-2 -2,2 v 3 l -5,1 -5,3 m 212,16 -9,4 -13,-3 -1,-1 -3,2 -7,-1 -2,-1 -10,2 -4,-4 -1,-5 m -218,7 -2,2 -6,-1 m 137,6 -1,3 -6,2 -1,5 -4,-2 -3,2 h -7 l 1,5 v 5 l 3,6 -12,-2 -3,3 h -1 l -1,3 h -2 l -2,3 -7,4 v 4 h -3 l 2,2 -5,2 -2,3 m 140,10 -7,-10 v -5 l -3,-6 2,-5 -4,-1 -4,5 -3,-7 -3,-3 v -3 l -2,-3 1,-4 m -43,4 v 2 l 6,6 -1,7 -3,2 -2,3 3,10 -2,3 1,2 -1,2 5,4 m -125,-2 -4,-1 -3,-3 -12,2 -3,-2 -1,-4 v -2 l -6,-12 -5,2 -3,-1 -6,9 -2,-1 -6,3 -5,-1 -2,-1 m 208,-407 -1,-1 3,-2 5,-1 v -3 -5 l -7,-3 -1,-2 2,-3 -3,-2 2,-4 -4,-3 4,-2 v -5 l 4,-1 v -3 l 3,-2 -6,-1 -2,-4 m -47,75 -2,-1 -6,1 -3,2 -2,-1 -5,4 1,2 h 4 l -3,6 1,6 4,6 3,2 -5,3 -2,2 -2,-2 -5,3 -6,-3 v 4 l 3,3 -3,3 3,3 -1,1 3,3 v 7 l 7,4 1,2 h 10 l 1,3 -2,6 3,3 -1,2 6,5 -2,3 1,3 h 1 l -1,2 9,3 m -38,-50 -3,-4 h -6 l -2,-4 -5,-2 h -9 l -8,-7 m 96,12 -1,4 4,3 2,5 7,10 3,8 -4,7 -4,2 1,5 -1,2 -2,2 -9,-3 -3,3 h -5 l -1,2 v 5 m -110,80 -3,2 v 2 l 3,3 -2,2 3,6 3,-1 2,2 3,-1 1,6 4,1 2,-3 h 2 l -1,2 3,2 -1,2 4,-2 -3,-1 5,-3 4,3 v -2 l 1,2 5,-4 1,-2 m -81,26 -3,-4 1,-4 -5,-10 1,-2 -3,-3 -3,-3 -7,2 -4,-5 m 69,2 v 4 l -5,-1 -2,4 -6,2 -2,-1 h -3 l -2,-2 h -3 l -3,5 1,5 2,2 m 254,49 -5,-1 -1,-2 -2,2 -7,1 -4,-6 -4,-2 -1,-4 -5,-9 -6,-2 -1,-4 -8,-12 -5,-1 -4,-4 m 27,-177 -4,6 h 1 l -2,6 -6,3 m 35,7 -4,2 -2,3 h -5 l -6,5 h -2 l -1,-3 v -3 l -6,3 -1,-3 -2,3 -10,-2" /><path
	id="path3193"
	fill="#eeeeee"
	stroke="#000000"
	stroke-width="0.2"
	stroke-linejoin="round"
	d="m 77,-1 -9,2 -4,5 10,22 6,-2 -4,-10 6,6 4,-2 -3,-9 h 5 l -2,4 3,2 4,-3 -1,-7 -5,-8 z m 29,275 -2,2 -2,-3 2,4 -7,3 8,-1 v 3 l 11,-10 -2,-2 -8,7 z m 43,-38 v 8 h -4 l 1,3 -3,1 2,2 -1,-3 8,-5 h -2 z m -54,102 -3,1 8,3 z m 90,-109 13,2 -3,6 4,-3 v -8 l 4,-1 -5,-2 -2,7 -8,-6 1,3 z m 2,160 -2,4 5,2 -3,5 3,4 3,-3 -4,-2 2,-3 -2,-8 z m -136,9 3,-1 2,4 7,1 1,2 2,-3 11,1 -12,-3 -7,2 -9,-6 v 4 z m 77,198 4,4 6,-2 z m -61,-18 4,-3 -3,2 -2,-5 h -4 z m -40,-3 1,10 2,-5 z m -19,-86 5,3 -3,-3 v -4 l 4,1 -3,-4 z M 7,149 v 5 l 1,-3 3,3 -1,-4 4,4 -1,-7 -2,3 z m 4,110 6,9 8,-1 4,-9 -6,-7 -8,-1 z m 8,-27 2,3 -4,2 3,1 2,-5 z m 3,-20 -7,4 -4,-4 4,5 -4,4 2,3 5,-8 10,-3 -4,-1 2,-7 -5,4 z" />
<g
	id="g3195">
	<rect
	height="36"
	width="158"
	enable-background="new    "
	fill="#FFFFFF"
	opacity="0.75"
	y="4"
	x="4"
	id="rect3197" />
	<rect
	height="8"
	width="150"
	y="8"
	x="8"
	id="rect3199" />
	<text
	style="line-height:0%"
	font-size="24px"
	font-family="ArialMT"
	transform="translate(53.6563,35.9998)"
	id="text3201">50km</text>
</g>

</svg>
