<?xml version="1.0" encoding="UTF-8"?>
<!DOCTYPE svg PUBLIC "-//W3C//DTD SVG 1.1//EN" "http://www.w3.org/Graphics/SVG/1.1/DTD/svg11.dtd">
<svg width="543" height="499" version="1.1" xmlns="http://www.w3.org/2000/svg">
	<title>長崎県行政区画地図 (2010年3月31日)</title>
	<desc>Author: Lincun</desc>
	<rect fill="#eeeeee" x="0" y="0" width="543" height="499"/>
	<g stroke="black" stroke-width="0.2" stroke-linejoin="round">
		<path fill="#aaaaaa" d="M544 55h-3v-2l-2 1h1l2 4-2 3 1 2h1l2-5zM544 59l-1 4h1zM544 78l-3 6-6 3-1-1-2 2h1l-1 3-10 10-14 5h-4l-4-9h-3l-2 3 4 6h8l2 4 2-1 4 3 2-1v-5l2-2 8-2 3-1-2-1 1-2 6-1 2 1v2l-2 1 2 3v2h-2l-6 3 5 1v2h-3l1 1-2-1-1 3h1l-1 3 2 2h-3l2 3h-3l1 2h-1v1l-1 1-1-4-2 1 1 2h-1l3 1-2 1-2 1 1-2-2-2-6 2-3 1-4-1-1 2-2-2h-2v4l-3 1-7 1-3-3v-2v1l3-4-1-2-11-2-3-6 4-5-4-3-4-3v7l-3 2-1 1-5 3h-5l-1 3 1 4-3 4-4 2h-3l-4-2v4l-2-1-4 3 3 3 1 2 5-3 4 2-1 3-1-1-2 1-1 3 3-2h3l1 2 4-4h2l1 2-2 4-3 2-7 4 3 2-4 4h-4l-1-3-3 4-2-1-10 4v3l-2 6h2h2l4-1 7 1 4-3 9 3 2-3 4 1 2 3h4l4-4 5-1 5 1 5 2 6-3 7 6 7 1 5 5 6 3h2l3 4 5-1 1 1 5 4-2 3v3l3-2 2 1 3-1 1-5 4-2zM544 234l-2 1 1 4-2 1-2-3 1-6-3-1-1 1 1 6-3 1v3l-2 4h-3v-4l-3 1v4l-1 2-4-1-1 2 3 3v2l-7 4-3 1-1 2 1 5 1 1 2 1v4l1 10 6-1-1 2 1 3-1 3 7 4-3 4 7 3 1 4v1l3 6-2 6 1 2-4 4v3l2-3v2l2-2v2l-8 3h6h10zM428 137l2 2 1-3-2-1zM498 121l2 3 4-3-3-7-2 1zM528 105l1 2 3-1 1 1 3-3-2-3h-2l-2 1 1 2zM482 97l-1-2-3 1 3 3zM521 73l-4-3-1 2 1 2 1-2zM424 38h1v-4zM536 27l4-6v-1h-5v2l-4-1-2 1-1 4h1l5 3zM544 187l-4 2-1 5-3 1-2-1-3 2v-3l2-3-5-4-1-1-5 1-3-4h-2l-6-3-5-5-7-1-7-6-6 3-5-2-5-1-5 1-4 4h-4l-2-3-4-1-2 3-9-3-4 3-7-1-4 1h-2h-2l-2 1 2 3-1 2-8 2-11-3-2-1 2-1-1-1-2 1v-1h1l-1-1 2-2 1-1-2-3-1 2v3l-2-1 1 2-2-4-1 2-2-2 2-2v-3l2-4h3l2-2-3-1-1-5h-1l-1 1-6-4 1-3-1-1v2l-3 1-2-2-3 1-1-2-2 2 2 2-1-1h-3v6l1 1-2-1v2v-6l-5-3v-2l-3-2v1v4v2l2 1-1 2 1 3-3-2h-2l1 1 4 3v2l-6-4h-2l2 2-1 2 2 4-1 2 3 3-4 1 2 2 3-2v3v-1l3 1h-2l2 5-2-1v2v1l-2 1-2-2-1 3 1-7-4-4 1-2-2-1-2 1-2-2-1 3-3 2 2 2 2 1v2l-2 1-2-2-2 1v2l2 1-1 2 2-1 2 3 3 1v1l5 2-2 1v3l2-1 2 2 4 1h2v-2l2 1-1 1h2l-1 2 1 2h-2l2 2-2 1 2 4-2-1-1 1v2l-4 2 2 1-1 1v2l-2 1 1 2 1 1-2-1-2 2v-2l-2 1 2 3 2-1 2 1-1 1-1 3-2-2v4l-2-1 1 3 4 1 4 6-1 1-3-4-1 2h-1l-3-3-2-5-2 1 2-3-2 1-1-2 2-1h-3l-1-3-2-1-1-2-4 3-5 14 2 2 3 5 10 9v2l-2 9 3 4v4l5 4 5-1 6 4 4 1v2l10-2 4-1h1h1l2 11 2 2-2 6-2-1h-2l-3 2-1 5 3 1 2 5 12 6 4 4-1 2 4 6 3 1 3-1v3l4 2h1l5 7 4-1 3 4 9 2h5l2-1 2 3 7 1 8 1h2v-2l2 1-1 2 1 1 2-2-2-1 2-2-2-3-2-1v-3l-2-1h-4l1-3h-2v-4l-2-2 1-3-3-4-1-5-3-2-5-8 1-2-1-2 2-5 16-16 5-3 3-7-1-2h5v-4h2l1 2-2 2 10 10 1 5 19 2-1-10v-4l-2-1-1-1-1-5 1-2 3-1 7-4v-2l-3-3 1-2 4 1 1-2v-4l3-1v4h3l2-4v-3l3-1-1-6 1-1 3 1-1 6 2 3 2-1-1-4 2-1zM414 170l-1-2h-1l-1 2zM352 165l1-1-1-1zM409 149l-1-3-2 1-1 1h2l-1 3h2zM381 139l-1 2v5h2l3-4-3-4zM351 137l-1-4-3 1-1 1-2-2-1 1v1l-1 1 3 2 3 2zM370 131v2l2-2zM376 126l1-4-1-1-2 4-2 3 3 3 2 1 1-3-2-1zM387 129h1v-2l-1-1-2 4zM544 328h-10v3h2l2-1-1 1 4 18 1 4-1 3 2 3 1-1zM472 500l2-5-2-2-1 1 3-8h-3l-1-4-3-1-12 2-4-1v2l-17 9-4 2-3-3-1-4h2v2l1-1-1-2-4-1-3 2 6 4 3 7v1zM543 500l1-1v-9l-1-2-3 2 1 2-2 1-3-3-4 3-2 4-2 1-1-5-1 2-2-3 2-2h-1l-3 4v-2l1-3h-1l-2 2v-2l-5 2-1 2-2-2-5 1-4 5-2 3zM544 474h-1l1-1v-7v-1l-2 1 2-2h-2h2v-6h-1v-2h-2l-2 4-2-2-1 3h1l1 2-3-1 1-3-3 1 1 2-5 6 2 2h2l3 2-1 2-2 1-1 4v2l2-1 3 3v-3l2 1 3 1 1-3v3l1-1zM537 490h1h2l-1-2zM541 487h1v-2zM529 485l3 1 1-1-1-2zM538 483l-1 1-3-2-2 1 4 2 3-1zM525 470l1 1 3-1-1-1zM511 463l3 2 1-2z"/>
		<path fill="#16a34a" d="M356 480h2l-1-4-1 1-2-1-2 5 1 1zM106 477l-1-3-4 2 2 2zM343 476l1-2 7-3 4 4 1-2-2-2 2 1 2-2 5-3 4-5 4-4v-7l1 1 8-2v-2l4-1 3-4 6-11-2-3 1-2 2 2 2-2 1-3 1 1 2-3v-2l4-3-2-6 3-2 4 1 4 1 1 2 1-2h9l11-9 6-2-1-1 4 1 9 1 4-2h10l3 3 1 2-2 2 1 2-1 2 4 3v-2l2 1 1 4-2 8-3 2-2 2-3 2-1 4-3-1v3l-5 2-5-3 3 3-2 8v2l1 3 4 2 3 4 1-1 3 2 2 4-3 4 1 1h2l6-3-3-1v-2l4 1 1 1h4l4-2v-3l3-3h3l2-1-2-3 3-3-2-1 4-1 8 1 6-3v-2h4l-1-1 4-1 3-3 1-4-4-5 8-10 1-3-2-5-1-1 4-5-3-3 3 1-4-5-8-19-2-1-4-3-3-3-4-1-8 2h-7l-9 7-4 2-2-2 2 2-2 2h-9l-2-2-2-1-4 3-6-7h-5l-1-1 6-3v-4h2l1 1 4-2-1-2-2 1 1-2 3-1 1 2h4l1-4h2l1-3 5 1v-4l5-3-1-2h1l-1-1 1-5-8-1-7-1-2-3-2 1h-5l-9-2-3-4-4 1-5-7h-1l-7 5-2-2-5 1-2 2-5 2-2-1-1-2h-2v2l-3 4-1-1v2l-1-1-1 2 1 1-1 6 1 8 3 2 2 3h2l-2 2v3l2-1v2h4l1 1-3 2 1 2 7 6 1 3 2 2v2l-4-2-1 3v-2l-2 1 1-2-3-2-3 1-2-6-6 2-1-1 1-2-2 1-2-2-1 1-1-1-1 1-3-4v3h-2h-1l4 9 5 3 2 4-2 3-4 1-3-1-2 3-3-1-2 4v-4l-2 3-4-4h-2v-1l-3-1-3 1 1-4-6-6v-4l-3-3 2-2-1-1-1 2-1-2 1-4 2-1-1 1 3 2 2-4v-2l-2 1v-5h-4l1 2-2-1 1 2-2-3v-2h3l-1-1h-2l2-1-1-4v-6l3-2v5l-1 3 2-2-1 4 3 3 2-2v-5v-4l-2-4 3-4 2 1-2-5-2 1 1-2-1-2-3-5h-3l-1 1-2-2-3-1-2-2h-1l1 2-3 4h2l1-1 1 2h-3l1 2h-1l-1-2-2 3v1h-2l-1-4h-1l3-1-3-1 2-2-1-1 2-5 1-4 2 1 3-2-2-3h-2v-2l-3 1v2v-1l-1 2-1 1-1-1 1-1h-2l4-4-2-1v-3l-4 2-1-1 1-1 1-2-3-3-1 3-2-4-1 1-4-3-2 2 1 2-5 3 5-1-2 1 1 1-4 2h3l2 2-5 1-1 7-2-1-1 1 1 8 1 3 2 2-3 1 1 4h-2l-1-3-4 6 1 6-2 1 3 2-3-1 4 2v4l-1-1v4l1 3 1-5h3l4 12v1l3 4 1 1-2-1 2 1-1 4 2 5 5 4-1 3 5-1 2 4 4 6 2-6 3 1h2v-1l1 2 1-1h2l-2 4v4l2-1 1 3 3 1v3l3 1-1 2-2 1 2 2h2l1 2v-2l2 1-3 4 2 1 1 2 3-4 2 5-5 5h2l1 1 1-2 1-1 1 1 1-3 2 4 1-4h2v-3l4-3h-1l1 4-4 5-2 1v5h-2l1 1-1 2-2-1v3h-2v1l-2-3h1l1-2-3-1h3h-1l1-1h-3l-1 3-3 3-3-2-1 3 1-1 3 4 3-2-1-1 3 1-1 10h-2l-5 7-1 6-3 2-1 3-6 3 1 1-1 3v-3l-1-1-2 2-2 2zM69 471l1-3 2 1 1-2-1-5-4-2v-1h-1v-1l-2 1 1-7 1-2h1l8-4 3 1-1 2h2l1 4 1-1 1 1 5-2 7-1 1 2 6-1v-1l1-3-4-1 1-2-1-3-6-5-2-2-2 1 1-3-1-3-2-2v-9l2-1h2l-2-4-3 3v-2h-2v4l-1-3 1-2 3-1-2-2-3 3-3 2-1-1-1-1h1v-1l3-1v1l2-1-3-3-3-3 1-3 1-4-2 1-4 2 2 1-2 2 1 1-2 1-2-1-1-1-1 3-2 3 3 1 1-2h4l1 3-1-2-6 4 1 5h-2v-4l-4-7-1 1v2l-1 1-1-1-2 2h3l-3 3 1-2h-2l-3 1 2-1-1-1 3-1h-3l-3 2-2 1v-1l-1 2-1 2-3-1 2-2-1-2v-5l-3-1-1-3-4-1-3 1-2 3-3 3 2 1 2 6-2 2v5l2 1v2h2l-1 2 2 1h-3l-2 1 2 3-1 2v2l4 2h4l-4 2v1l2 4-4-3-2 1 1 2 2-1v2l2 1h-1l-4-1-2-2 3 4-1 1-1-1-2 1 1 1-2 1 1 2v3l6-4 1 1-4 3 1 2-2 3h-2l2-2-2-1-1 1-2-3h-1l1-1-1-1-2-2-1 4-1-1v-3l3-1-2-1 1-1-1-2h-1l-1 2v4l-3 4v1l2-1 3 2h1l3 2 2 3 5 2 2-2-2-3 5-1 5 2 4-1 9-1 1 2 4 4h-1l1 4 5 2zM52 471l1 1-1-2h-2l-1 1zM103 469l2 1v-2zM112 467l-1-2-3 2 1 1zM87 466v-3h-3l-1 2zM69 459v1l2-1zM27 451l-1-1 3-1-2-1 2-1-3-1 3-1-3-2h2h2l-2-2 2-1-2-2-3 4-2 4 2 6zM345 445l2 4 1-5-2-1zM352 431l1 1 1 3 2-1-2-3zM104 432v-2h1v-1h-1l-1-2-1 1 1 5zM348 426l2 3 2 2 2-1zM19 426v-5l2-1v-3l-2 1-3 6v2zM90 424h1v-1zM95 423l-1-3-2 1 1 3zM98 415v-1l-3 3 2 1zM128 415l2-3 2 2h1l2-1h-2v-2l2-4-4-6h-2l1 3h-1l-1 2 2 2-1 3v1l-2-1-5 3 1 2 1-1 1 1h2l2 1zM406 410l3 5 3 1 2-2h-4l1-3zM119 407l1 3h3l-2-5zM97 409l1 1 3-6 4-5 2-1-2-2 1-4h-2l-1-3h-3v-3l-2-1-4-3v3l1 5h1l2 2-1 2 1 2v2l-2-1-3-1 3-1-2-2v-5l-1-3h-1v1l-3 1 1-1h-2l-1-2-2 3h2l-1 2 1 4v4l-2 1 1 4 1 3h1l-1-2h1l6 6zM112 397l1 1 1-3h-2l2 2zM116 398l1-2 2-4-3-3 1-2 3 1 1-1-1-1v-2v-3l3-1-1-3-3-6-3-2 2 4-1 4-2 4-2-5-1-3-1 1 2 3 2 4-1 4-3-4 1-2-3-5-3-1-2 1-1-3-2 1v3l-3-1-1 2 1 1 1 2 2 1h1l-1-4h1l3 3-1 1 3 2 1 2 2-1 1 3 2 2-1 2-3-1-1 1 5 1 1-3 2 7zM39 395l2 1h1v-2zM300 370h3l2-3h-2zM106 367l2 1 1-3zM388 354l1 2 4 6 3-1-1-2zM359 359l3 1v-2zM308 351l-1-1h-2l-2-1 1-2-3 2v3l3 6h3l3-3v-4zM317 330l-1 4h2zM203 331l2-1v-3l2-4-1 1-2 2-1-2v-2l-3 3-4 5h1h4l-2 1h2l-1 2-1 1 3-2zM342 331l2 1v-2zM233 330v-1h2v-2l-2-1v-2v-1l-3 2v2l-1 1 1 3zM286 329h1l2-1 1 2v-2l-3-1zM296 327l4-4-2-3v1l-6-1v2l1 2v-2l1 1 2-1-2 2-1 2-2 1 2 1-2-1-1 2 2 1zM306 322v-3l2 1 2-2 1-2h-2l1-1h1l2-2-2 1 1-1h-1l1-2h-1h1l1-2-6 1-2-1 1 3-2-1-1 2-2 1-2 5 1 2 3 1 1-2zM313 319v-4l-2 5 1 1zM353 308h-2v-3l-1 1-1-1-2-2 1-3 3-4v4l-2 2h1v2l2-1 1 2 1-1 4-3-2-6 2-3v-8l-8-2-3 3 3 1 2 1h-4v4l-1 1-3-4-1 3 3 5-6-1-1 1 3 8h2v-2v1l1 1-3 2 2 1-1 2h3h2l-1 2 3 2v-3l4-1zM353 306h1l1 2v-4zM361 307l4-3h5l1-2 2-3-1-4 1-13 7-8-6-4-5 1-5-4v-4l-3-4 2-9v-2l-10-9-3-5-2-2 5-14 4-3v-10l-4-1-1 6-2 1-3-4-4-1-5 5-5 2-3-2-1 1 1-4h-3v2l-2 1-2-4 1-7h3l-2-2-3-3-1 3 1 3-3 3v2l-2-2-1 3-1-1-3-1-1 3h1h-2l-1-1-1-4-4 3-2-2-1 1-1-2 2-2-4 1-4 1 2 4-1 9 1 2h-4v3l4 3v2l2-1 2 2 2-2 3-1 4 1-2 2-2-2-1 1-4 6-1-1v2v-1v4l2 1-3 2-1 1v-5l-2 3 1 2-2-1v1l2 1-1 2-1-2v2h-2l1 2-3 4 4-1h-1l1 5h-2l-2 2 2 1-3 1h1l1 1 2-3 1 2v-1l2 2 2-1h1v2l2-1v2l4-5 2-1v2l-2-1v2l-2 3 1 1 2-1 1 1 1-3 1-1-1 4h2h-2l1 2-1 1 2 3 1-2 3-2-1-6v-3l1-2-5-6v-2v-1l3-5 2 1 3-3 5 2 1 2 4 1 1 3-2 4 1 1 1 4-11 7-2 3 2 2v-2l1 3-1-1 2 3-2 1-1 1-1-1v1v2l-1-1-1 3 3-2h4l-1 2 2 1 1-1v2v-2l4 1-1 4 1 2 3 1h2v2l-3 1-1-2-1 3-1-1 1 3-4-1v1h-1v-2h-2l3 10 2-6 1 2 9-1-3-3 2 1 1-2v-4l-2-1 1-1v-3l-3-2 1-2 2 2-1-1 2-1 1 2-1-1h2l2 1-1-2 2 1-1 2h2l-3 1v3l2-1-2 4 3 4 1-1-1-3 1-1 2 3 4-6v2l3-2 1 2 4-1 4 4-1 5v2l-2 3 3 9h2l-1 1v1h1l-2 2zM285 286l1-2h3l-1-5-2 1-10 3 8 3zM326 283l-2-2-1 2 2 1h-1l2 1zM322 278h1v2l1-2zM322 275l1 1 1 1v-2l-1-1zM299 275l2-1v-3l-1-1-1-4 2 1-1 1h1v-3h-2h-1v2l-1 1v2l3 2-2 2v2zM280 272l1 2v-2zM241 272l15-6 5-6v-2h3l3-5 4-8h2l3-6-2-3h-2l-1-3h-3l4-1 1 3 5-2-3-4 1-1h6l1-2v-2l-4-3v-2l1 1 5-2h2v-6l6-2 1-1-3-2v-2l-2 1 3-4-1-1-1-3h2l-2-2 1-1-1-3h-3l-3 3h-2l1-2h-2l-1 2 1 1 1 2h-3l3 1h7v2l-1 2h-2v1l-4-2v1l1 3-2 4-2 1v-2v-5l2-1-2-1h-2l-1 4-1 4h-5l-2 2-4-1-2 1-4-1-1 2 1 3v4l-1 1-1 2-1 1 2 2v1l1 1 2 4-2 1-1-2-4 1-1 2 1 1-3 2-2-1v2l-1 3 3 1-2 2 2 2 4 1-1 2 3 2-2 1-2-3 1 5-4-5h-4l-3 3-1 7 3 5 4-1v2l-2 4-1-2h-2l-4 1-1-2-1 1 1-2-2-3h-2v-2l-1 1v4h1v1l-2 3 6 4zM230 268l1 2 1-1zM305 267l2 1v-1zM306 265v-2l-1 3h1zM302 265l1-2-1 2zM229 264l1 1v-1zM302 261v1h2l-1-2zM300 262l1-1-3-1zM232 259v1l1-2zM296 260h1v-2zM290 252v1h2v-1zM151 244v-1l1-2-2 2 1 3 2 1 1-1v-2zM169 246l2-2-2-2 3-1 6-3-5-2-1-5 1-1-2-2h-2l-1 1v3h-3l-4 1h-2l-2 3-4 3 2 1-1 2 3-2 2 3 2 3zM291 242h2l-2-1zM291 241l2 1-1-3zM363 212l2-3-1-2 5 1 2-2-1-1h3l3-3-1-2h-3l-2-1v3l-3-4 2-4-4-3h-7l5 3-2 4 2 3h-2l2 5h-1l-2 2zM255 202l2-5-3-5 1-2 1-2h-2l3-4-1-3-4 3 1 4-3 9-2 7-2 4 3 2 2 2 5-2-1-2 2-1zM352 195l1 2 2-1zM342 192l3-1-1-3 2 1 1 1v-5l1 2v-3l8 3v-2l1-1-4-1-1-2h-2l2-4-2-1 1-2-4-1-1-2-1 2 2 1-1 2h2l-3 2v2l-3 2 1 1v2l-5 2-2 3h1h1l2 3zM325 191l1 1h2v-5h-2l1 3zM286 181h1l-4-4h-1l-1 4-5 2v3v1zM335 175l3 2v-2l-2-2zM296 166l2-3-4-1-1-1 1 2-2 2-2-1v-6l-2 1-4 1-4 4-6 7h1h1l1-1 4 1-3-3 5-2 1 4 3-1v2l3 1 1-3 1 1zM335 92h1v-2v1l1-1-1-2 4-4v-2v-2l7-1 2 2 5-2 2 1-1-4 1-2 2 1v-2l-6-4h-1v2h-2l-2-3 2-3h3l6 1 1-2h-4l-2-2-3-1-2-3-1 1-3-1 5-2-1-1 1-5v-2l2-2-1-2-1 1-7-1h-1l-3-1-2-2h-2l-2-1 1-1h-3l-1 2 3 1-3-1v2l-1-2-1 1-2 2 1 1-1 2-1-2-1 6 4 6v1h-3v3l-1-3-2 1-1-4h-2l-2 2 2 1 3 2h-3l2 4-2-1 1 5h5h1l-2 1h2v1l2 3-1 1-3-3h-2l-2-2v2l-1-1v-1h-3l-1 2 2-1-1 2 2-1-1 2h2h-1l-1 3 2 3 1 2v-3l1-1h1l2-3v2h1l2 3h2l-3 3-1 2 3 2 1 1 2-2-2 2 2 3h3zM315 86l1 2 2-3-2-1zM309 84l2 1v1l1-2zM346 83l1 1 1-3zM311 83l4-3-2-2-3 2 1 2zM352 66v1l1-1zM326 37v2h2v-3zM325 38v-2l-2 1 1 2zM329 38h3l-1-1zM39 226v-2l3 1v-3l1-4 2 4 1-3h3l2-3-3-2h6v-2l2 1-1-4-1-2 3 1-1-2v-4l2-1 2 2v-5l-2-1 2-1v-2l-1-2-3 2 3-4 2 1 1-4 1-1-3-2 1-2h2v2l2-2 3-2-2-2 1-1-1-2 2-5-2-1 3-1v-4l2 1 2-2h3l-2-2 1-5-2 2 1-1-2-1v1l-1 2v-3l-3 1-3-1 2 1-2 2 1-1-1 2 2-1-1 2h-1l1 3-2-5-1 3v1l-2-1 2-5h-2l3-4-2-1-2 3 1-3-2 1v-2l1-2-2 2v-2h-1l-2 1v-3v1l-2-1-1 1v-2v3l2 1v2l2-1-1 1 1 1 2 1-1 1 2 4h-2l2 4-3-3 1-3-1-1v-2h-3l-3 4 1 1-2-1 1-3h-1l-1 1v-2l1 1 1-2-1-1-2 2-1 2-2-1-1 3h-2v-2v1l-1 2-1-1 2-5h-1l1-4-2-4-1 2-3-2-2 7-1 8v4l1 1-4 8 2 5-3 2v4v9l-1 5-1 7 1 1-2 2-1 4 1 5-1 5 4-4 1-1 4 2-1 2h3l2-2 1 3-1 6zM44 224h1l1-1zM84 161l3-4-1-2h-3h-1l1 4-1-2-1-2h-2v1h-2l1 2-1-1-2 1 2 2h-3l3 5zM79 155v-4h2l-3-2 3 1v-2v3l2-1-1 2 1-2-2-1 2-1-2-1 2-1-1-1h-3l2-1-2-2 2 2 3-1v1l2-1-1 2 1-1v2l2-2-1-2h2l-1 1v1l3-1v-2h-2l2-2 2-5-3 1 1 2-1 1-1 1 1-2-1-1-1-1v2v-1l-1 3 1 2h-1l-1 1-1-2v2l-3-1h-1l-1-1h3l2-2 2-3-2-2 1-1h-1l-1 1-2-1 2-1-1-3-1-3 1 2 2-2v2h2l-1-2 1-1-1-1 2 1v-3l1-4-2 2-1 2h-1l1 2h-3v-1l-3 3-4 2 2-4 2-3h2l1-3-1-4-1-1v1l-1 3-1-4 2-3 1 2 1-1 2 3-1-4 1-1h-3l-1-3-1-1 1-1 2 1 1-1 3-6h1v-3l1 2 2-2 1-2-1-1h2l5-4 2-2-1-3 2 1 2-2v-2l-1-1 3-2 2-3h-2l1-2-1-1h3v1l1-2-1-4 2-1v-1v-4l-1-1 2-2h-2v-3v-2l-3 1-2 1v-1l-2-3-3 1v-4l2 2h1l2 2 1-1-1-1v-2h-3l1-1v-2l3 4 1 3 2-2 2 1v-1h1l-2-2 1-2 2 1-1-1 1 1 1-3 1-3h-2v1l-1-2-2 1 2-2-1 1-1-2h-2l2-2 2 2h1v-2l4-2h-2l-1-1 1-3h1v-2l-2 1v2l-2 1v-2l-1 2-1-2 1-1h-1l1-2h-1l2-1 1-2-3 1v-1h-2v-2l-1 1-1 2v-3l-1 1-1 1-1-3-2 2v2l-1-1-1 1-1-1-2 1 1-2-3 2 1 4 2-1 2 1 1 2-2 1-1-3-4 1-2 3v1l-2 1v3h-2l-1 1 1 3 2 1h-2l-4-3-1 1-2 2v-2l-3-2-5 4v-3l-1-1-3 1-1 4-3 11v5l-6 8 1 3h2l3-4 1 3h2l-1 3h4v3v3l3-2 1 2-1-1-2 3-3-4-1 2 1 1h-2v4l-1 1v-4l-2 3-3 9v2l-2 1h-1l-2 5 2 5v1l6-4 1-1 1 1-1 2 2 2-2-2-2 1 1 1-2 1-1 1 1 4-2-1-1-3-2 1-1 2 2 1h-2l2 1h-3l1 2 1 2h2l-2 1-1-1v5l-2 6h2v-1l1 1v4l-1-1-3 3h-2l-1 4-2-2v-3l-5 2 2 3 5 2 5-3 2 1 1 4 1-1-1-1v-2l2 2v3l1-3-1-3 2 2 1-1-4-1v-2h-1l-1-1h3l1-2-2-2v-2l1-1 1 4 2-1-1-2 2 1v-2l3 1-1 1-2 3-1 1v1l2-1-1 3 1 2 1-1 1-1-1 2-3 3 1 2 2-2-1 3 2-1 2-3v-3l1 3v-1l-1-3h2l-2-3 2 1v1v-2l1-2 2-2-2 4 1 2 1-2 1 1v-2h1v-2l3 1-3 3h2l-1 2h-2l-1 1h3l-1 2h1l-1 2h2l-1 2 2-2-2 2h3l-2 2-3-1h2l1 2h-2l-1 2 3 2-2-1h-2h1l-2 1 1 1-1 3 1-3 1 1-1 2-1 1 2-2 1 4 1-2 2-2-2 3 1 2zM42 156h1v-1zM68 155l1-2-2 2zM71 154v-4h-1l-1-2-1-1 2-1h-1v-3l-3 3 1 1h-2l-4-4-2 4 1 1 1-3 1 3 1-1v2l1-2h2v1l-1 2 2-1-1 2 3-1-2 2 3-1-3 2 1 1 2-2zM88 152l3-2h-4l1-3-2 1zM73 139v1l2-2zM111 26v1l1-1z"/>
		<path fill="#16a34a" d="M151 388h1v-3l-2-1 1-2h-1l-1-1h1l1-4h4l2 2h2l2-3-1-3-1-3h-2h-1l2-1 1-2h-2l1-1h-2l1-4 2 1-1-3 2-1v-2h-2l-1-2 2 1 3-2 1 1v-2h-1l2-3-1-3h-1v-4v2l2 2 2 4 3-1 1-1 3 2v-3l2-3 4-3 1 1 2-3h2l-1-7-1-2 3-2-3-1-1 3-1-4-2 3h-3l-4-1v3l-4 3-1-1h-1l1 1-2 2-1-2-3 1v-1l-1 2-2-2 3-5-1-3-1-3 3-3-2-4 4-4-2-1 1-2 3-1-1-1 1-5 2-6-1-5-2-1-2-3 3-4-1-4 2-4-1-1-1 3-2 5-2 3 1 2-1 1 2 2v2l-1 2 3 1-1 2-1 5-5 1-1 5-2 2 3 4-2 3 2 3v1l-4 1-1-9-5 2v2l-2 3v7l2 3-2 1v2l2 1 4 1-3 1-1 3 1 4v-2l-1 3-1-6-2-1-2 1-1 4-1-2-2-3v3l-1-3-1 2-4 1 1 3-1 2h3l-2 1 1 1-4 1 2 1h2l3-3v4h1l1 2 3-3 1-2 1 2-1 4-1-1-2 3 1 2h1l1-3 4 2-1 1 2 3h3l-1 1h2h-1v3l-2-2v-1l-2-1 1 1v2l-3-2v-1h-2l1 1 1 3 2 1 1 2v-3l1 3h-1l1 3-1-1-2-2-1 1 1 1 2 1-1 1h-1l-2-2 1 3 1 3-1 2 1 2-1 2 2 3-2 3h2l-2 2v-1l4 3h2zM364 377v-1h-4l-1-2-2 2 3 3v4l6 6-1 4 3-1 3 1v1h2l4 4 2-3v4l2-4 3 1 2-3 3 1 4-1 2-3-2-4-5-3-4-9h1l-2-4v6l-3 1-1 6-3-1v-3l-1-2-2 3 2 3-2 4-2-3 1-1-2 1 2-1-5-2zM143 380l1 3v-2zM141 379l-2-3h2v-2l-1-1h-2l3-2-1-2 1-1 1-1-3 1 3-3-1-2-1 2v-3l-1 1v-4l-3-1 1-2-1-1-3 2-1-3-2-1h-2l2 2-3 3 2 1v2l-2 1 2 2 2 1 2-2-1 4 2 3-2 1-1-5-2 1v3l-1-3-1-2h-2v-2l-3-1 2 6 2 3-3 1 1 2h4l-2 3 2-1 3-2 2 1 2 2v-2h2l2 2h-3v1l3 1h-3l2 1v2h2zM133 379l1-2h-1zM141 374l1 1v2l1-2zM361 374l1 1 1-1zM143 371v-1h-2v3l1 1h1zM145 368l-1-2-1 2zM122 362l2-2h-3l-1 1-2-6h-2h-2l-1 2 2 3 3 2 2-2zM124 353h-3l-1 5 3-1zM186 358l2-1-1-1-2 2zM128 346h3v-1v-3l-1-1-1 2-3 1v3l2 2zM139 335l1 2v-5zM428 328l-4-2v-3l-3 1-3-1-4-6 1-2-4-4-12-6-2-5-3-1 1-5 3-2h2l2 1 2-6-2-2-2-11h-1h-1l-4 1-10 2v-2l-4-1-7 8-1 13 1 4-2 3-1 2h-5l-4 3h2l2 2-1-1 3-1v2h3l-1 2h-4l2 1-2 5 1 1 3-1 1-5 1-1 1 3 4-6 2 1 3-1 5 3 2 4 1 2 6 2 4 5 2 1-1 5 2 3h2l1 2 2 1 5-2 2-2 5-1 2 2zM139 327l3-2h-5l-3 4zM187 323l-1 2h-4l2 3h2l3-1-1-3zM103 278l1 1 2-2zM171 276v-5l-1-4 2-1 1 1-2-6-3-3-2 2v1l2 5-1 4 1 5zM139 274l2-2-2-1-1 3zM106 273l-1-2-2 2zM149 270l1-1-1-2-1 3zM137 269h2h1v-2zM154 266h2l2 1 2-2-4-1v-4l3-1 2 1v-3l-3 1-5 1-1 1-3-1v-2v-1l-2 1-1-1-1 5-1-2-3 3 2 2h3l-1 1 2 3 2-2 2 1v-3zM128 267l3-1-2-2-2 2v1zM112 265h1v-1zM139 263l2-2-1-3h-3l-1 3 1 1zM317 260l11-7-1-4-1-1 2-4-1-3-4-1-1-2-5-2-3 3-2-1-3 5v1v2l5 6-1 2 2 6zM154 254l-2-1-1 1v1l2 2zM170 255v1l3-2-2-1z"/>
		<path fill="none" stroke-linecap="round" d="M312 208h-1M353 239h-3l-2-3-5 1-7-4-1-5h-2l-1-3h-6l-2 1-2-1-1-3h-2l-3-5-4-3-1-1v-5M312 214l-1 3-1-1-2 2 1 2-5 1 1 3M441 338l-3 3v3l-3 2-2-2-5 1-6 5-3 20 2 4v6l-4 3M362 343l-5-2-1 2-13 5-1 6 1 4-1 1-6 2-2-1-1 2-7 1-2 2h-2M362 343M507 374l-4 4v4l-3 15-3 6-2-1-1 6 4 2 2-1 1 1 4-1-1 3-6 2 7 1 10-1 3 3v-2l5 3M459 381l2 2M413 411v-4l2-3-2-5 1-4-2-1-2-3-4 3-4-3-2 1-5-2M461 383v6l-3 5-3 1 2 4M498 414v1v3l-5 3 1 2h-6l-1 4-5 6-8 4-8 7-12 2h-1M395 294l-4-1-10 3-3-1v-1l-6 1M394 299l-1 5-2 1-5-1-4 1-1 3M373 394l6-6v-3l-4-4v-4"/>
		<path fill="#eeeeee" d=""/>
	</g>
	<path fill="none" stroke="white" stroke-width="4" d="M0 240h90l50-50v-190"/>
	<g>
		<rect fill="white" opacity="0.75" x="380" y="4" width="159" height="36"/>
		<rect fill="black" x="384" y="8" width="151" height="8"/>
		<text fill="black" text-anchor="middle" font-size="24" font-family="sans-serif" x="459" y="36">50km</text>
	</g>
</svg>