<?xml version="1.0" encoding="UTF-8" standalone="no"?>
<svg xmlns:dc="http://purl.org/dc/elements/1.1/" xmlns:cc="http://creativecommons.org/ns#" xmlns:rdf="http://www.w3.org/1999/02/22-rdf-syntax-ns#" xmlns:svg="http://www.w3.org/2000/svg" xmlns="http://www.w3.org/2000/svg" xmlns:sodipodi="http://sodipodi.sourceforge.net/DTD/sodipodi-0.dtd" xmlns:inkscape="http://www.inkscape.org/namespaces/inkscape" width="628" height="360" version="1.1" id="svg3023" inkscape:version="0.48.4 r9939" sodipodi:docname="埼玉県.svg">
  <metadata id="metadata3059">
    <rdf:RDF>
      <cc:Work rdf:about="">
        <dc:format>image/svg+xml</dc:format>
        <dc:type rdf:resource="http://purl.org/dc/dcmitype/StillImage"/>
      </cc:Work>
    </rdf:RDF>
  </metadata>
  <defs id="defs3057"/>
  <sodipodi:namedview pagecolor="#ffffff" bordercolor="#666666" borderopacity="1" objecttolerance="10" gridtolerance="10" guidetolerance="10" inkscape:pageopacity="0" inkscape:pageshadow="2" inkscape:window-width="1759" inkscape:window-height="1048" id="namedview3055" showgrid="false" inkscape:zoom="1.8541911" inkscape:cx="376.02632" inkscape:cy="195.02483" inkscape:window-x="152" inkscape:window-y="-9" inkscape:window-maximized="1" inkscape:current-layer="g3031"/>
  <title id="title3025">埼玉県行政区画地図 (2010年3月23日)</title>
  <desc id="desc3027">Author: Lincun</desc>
  <rect fill="#eeeeee" x="0" y="0" width="628" height="360" id="rect3029"/>
  <g stroke="black" stroke-width="0.2" stroke-linejoin="round" id="g3031">
    <path fill="#cccccc" d="M616-1l2 1-2 4-4 2-2-2h-3l3-3-1-2h-25l-6 10 3 11-5 7-2 10-3 5-18 8-12 5-15 10-2 1v-2l-3-2v-2h-2v1h-5v5l-4-1v-2h-3l-2 3v2v1l3 4-2 10 4 14 2 4 4 6 1 5 7 8v4l1 11 2 2h7l11 4 2-1v-4l2-1v-1l1-4 4-4 7 7 5 16 5 6 11 12 8 6 9 11 5 15 14 9 5 1 6 1v1v-212zM629 218l-2 3 2 3zM609-1l1 2-3 3h3l2 2 4-2 2-4-2-1zM371-1l1 2 3 1-1 1 2 2v3l2 2 2-2 2 2 1 3 6-1 3 3 3 4h-3l-2 1 5 4h2l-1-3 2-1 3 3 4-2 2 1 4-2 1-3 5 2 6-4 3 2 2 2 1-2 4 4 2-3 3 1-1 3 4 4 14-1h10l4-3 8 1 2 5 3-2v1l-6 7 6 8-1 3 2-3 2 2 1-1 2 3v2h4l-2 2v4l3-1 1 2 2 4-3 4 5-1 1 4 2 1 3-2 1 3v-2l2-3h3v2l4 1v-5h5v-1h2v2l3 2v2l2-1 15-10 12-5 18-8 3-5 2-10 5-7-3-11 6-10zM-1 183h1l5 13 12 4 2-5 5-1 4-4 1-3 3-3 3-4 3-11 9-2 4 1 5 5 3-2 16-3v-3l1-1 1-3 5-5 2-6 6-2 5-6 9-3 6-4h6l3-2 7 4 6-4 7-7v-3l2-9 2-1 3 1 3 5 5 1 4-6h3l3-3-1-2 3 1 3-2 2 2 2-2 1 3 3 2 4-1 1-12 3-3h7v-2l1-2-3-4-1-11 4-2v-7l8-10 8-15 8-13-2-1 5-5 6-9 3 3h14l3 2 1 1 13 7h4l3 2v2l6-1 6 6 4 2 5-1 6 2v-5l3 1 3 1 10 3 3-1 2 6 6 3 4-1v-4v-1l6-2 3-7h2l2 2 2-1 5 4 4 1 3 4 4 6 9 3 4 4 2 4 4 1 8 8 10 4 15-2h1l17 1 29-12 6 3 5 5 7 7 2-6 11-1v-9l5-2 2 2-2 2 2 1 3-4-2-4-1-2-3 1v-4l2-2h-4v-2l-2-3-1 1-2-2-2 3 1-3-6-8 6-7v-1l-3 2-2-5-8-1-4 3h-10l-14 1-4-4 1-3-3-1-2 3-4-4-1 2-2-2-3-2-6 4-5-2-1 3-4 2-2-1-4 2-3-3-2 1 1 3h-2l-5-4 2-1h3l-3-4-3-3-6 1-1-3-2-2-2 2-2-2v-3l-2-2 1-1-3-1-1-2h-372zM629 223l-1-3 1-2v-7l-1-2h-5h-4l-8-4-7-6-5-15-9-11-8-6-11-12-5-6-5-16-7-7-4 4-1 4v1l3 12 4 6 9 11 4 4 1 3-2 6 2 12-2 4 7 8-1 7 4 2 1 5 7 14 7 5 6 11 8 12 4 16 1 3-5 12-1 8v4l2 3-2 15 3 7v3l-6 3-1 3 5 11h1l5 6-2 8 1 2h17zM612 361l-1-2 2-8-5-6h-1l-5-11 1-3 6-3v-3l-3-1-6 2-2-4 2-3-1-3-8 2-1 2-5-3-4-3-6 5-3-3v-2l2-6-2-3v3l-3 1h-6l-2 2-9-1-4-6h-2l-4 3h-2l-3 2 5 7v2l-3 5h-4v2l-4 2v-5l-2-1-5 2-2-3h-7l-4-4h-1l-3-2-6 2-10-1-6 1h-3l-1 5-7 6v1l-1 7-3 1-1-3-8 1v-2l3-1-4-2-1-1h-3l-3 5-7 3 1 2-4 1-4 2v2l-4 1-1-1 1-12-15 6 3-4 5-2 5-3v-5l-3-3 4-3 1-3-3-3-9 11h-5v2l-7 2-1 2-1-1-3 1-3-1-5 3-6 2-2 2-8 2-2-2-1 2-7-1-1 1-8-2-3 3-3 1v-2l-4 1-2-2-1-1 1-1 1-2-2-3-4 1 2-1-3-4 1-4-10-1-2-1-7 2-1-1-3-2-5-11 1-2-1-4-5 1-1-7h-4l-2-2-3 1-2-3-2 1-8 2-4-1-5 1-2-3-4 3-9-7-3 1-2 3-7-1-12-5h-1l-2-4-6-4-23-2-5-2-4-3h-4v1l-3 1-10-5-6-6-9-6-4 1-5 8-8 2-3-3-6 4-11 7v2l-1 3v3l2 3v4l3 4 5 5 3-1v15l3 9 5 6-1 8 4 9 4 3h3l3 6v1l1 1 4 7zM171 361l-4-7-1-1v-1l-3-6h-3l-4-3-4-9 1-8-5-6-3-9v-15l-3 1-5-5-3-4v-4l-2-3-6 2-3 2-7-3-7 4-2 4-1-1-3-3-4-1-4-6-4-1-1 1-2-4-4-2-4 2-4 1-3-2h-1l-5 2-3-5-8-3-1-11-6-4h-7l-5-2-2 1-6-3-2 1-3-3-10-1-6 7h-1l-1 2-3 2v1l-4 10v93zM-1 268l4-10v-1l3-2 1-2h1l6-7 10 1 1-4-1-1 2-1 3-5 1-8-4-3-2-8-3-1-2-3-2-1-1-4 1-8-12-4-5-13h-1z" id="path3033"/>
    <path fill="#dcb6f2" d="M493 297l3-4 4 2-1-4 2-1-2-1 2-3-2-2 7 2 3-1 1-3h-1l2-3 2-2 3 3 2-1-1-2 4-1-1-3 2-2-4-4 3-1 2 2 5-1 2 5 2-2-1-1 1-1-2-3 4-1-2-3 1 1 2 1 3 2-4-8 4-1v-3l1-3v-4h-3l-2-4 2-3-2-3h2l4-7-3-1-1-1h1l-3-6-4-1-1-3-8 4 1-4 2-2-4 1-3-4h1l1-1h-2v-2l2 2 3-1 3-8-4-6-6-2-4-2-2-3-2 1v2l2 4-1 3-3 6 3 2-14-1v2l-6 2v3l2-1v2l-4 1-2 6-4-2-6 2-4-8-2-1-6 4h-7l6 10-1 5-5-6-4 2-2-1-5 3-2 6-2-4h-3v2l-2-1 2 3-1 2h-1l-1 3 2 2-1 4 3 3-1 7 3 4-4 1 1 3 4 2v3l9 2v1l1 4 3 2 7 9 4 1v6l1 1 2-1h2l1 3 3-3 3 3 5-2 2 2v-2l4-2 3 4zM433 230l-2 2 2 1 2-1z" id="path3035"/>
    <path fill="#f6bad3" d="M439 341l4-2 4-1-1-2 7-3 3-5h3l1 1 4 2-3 1v2l8-1 1 3 3-1 1-7v-1l7-6 1-5h3l6-1 10 1 6-2 3 2h1l4 4h7l2 3 5-2 2 1v5l4-2v-2h4l3-5v-2l-5-7 3-2h2l4-3h2l4 6 9 1 2-2h6l3-1v-3l2 3-2 6v2l3 3 6-5 4 3 5 3 1-2 8-2 1 3-2 3 2 4 6-2 3 1-3-7 2-15-2-3v-4l1-8 5-12-1-3-4-16-8-12-6-11-7-5-2 1-7-2 2 3 3 1-2 4v7l2-1 1 3h3l-6 4-2-1h-4l-2-4-8-2v-4l7-5-4-5-4-1 1-3v-5l2 1 6-8 1 1 3-1 2-2-4-2 1-7-7-8 2-4-2-12 2-6-1-3-4-4-1 5-2 1-1-2-11 7 3 5v3l-2 1 1 4-4-2-2 2h-5l-1 3h-7v2l-9-2-1 1-3-3-2-1-3 6 6 2 4 6-3 8-3 1-2-2v2h2l-1 1h-1l3 4 4-1-2 2-1 4 8-4 1 3 4 1 3 6h-1l1 1 3 1-4 7h-2l2 3-2 3 2 4h3v4l-1 3v3l-4 1 4 8-3-2-2-1-1-1 2 3-4 1 2 3-1 1 1 1-2 2-2-5-5 1-2-2-3 1 4 4-2 2 1 3-4 1 1 2-2 1-3-3-2 2-2 3h1l-1 3-3 1-7-2 2 2-2 3 2 1-2 1 1 4-4-2-3 4h-2l-3-4-4 2v2l-2-2-5 2-3-3-3 3-1-3h-2l-2 1-1-1v-6l-4-1-7-9-3-2-1-4v-1l-9-2v-3l-4-2-1-3 4-1-3-4 1-7-3-3 1-4-2-2 1-3h1l1-2-2-3-2 1-2-1 2-2 2 2 2 1v-2h3l2 4 2-6 5-3 2 1 4-2 5 6 1-5-6-10h7l6-4 2 1 4 8 6-2 4 2 2-6 4-1v-2l-2 1v-3l6-2v-2l14 1-3-2 3-6 1-3-2-4-2-3-6 3-5-5-2-3-6 1v-13l-6-1-6 3-11-5 2-2-1-4 4-2 3 3 2-2 1 2 6 2 7 4v-2l4-2-2-3 2-2 6 3v2l3-3 3 2 3-2-3-8 8 2 2-4 6 6 4-1 2 5 2-1 4 4 1-3h2l1-2-1-3 1 1-2-1 4-1 3 2 1-1 1 1-2 1 4 4h3l2 3 2-2 1-9h2l1-3-1 2-1-2h3l-4-6-3-12-2 1v4l-2 1-11-4h-7l-2-2-1-11v-4l-7-8-1-5-4-6-2-4-4-14 2-10-3-4v-1l-1-3-3 2-2-1-1-4-5 1-2-1 2-2-2-2-5 2v9l-11 1-2 6-7-7-5-5-6-3-29 12-17-1h-1l-15 2-10-4-8-8-4-1-2-4-4-4-9-3-4-6-3-4-4-1-5-4-2 1-2-2h-2l-3 7-6 2v1v4l-4 1-6-3-2-6-3 1-10-3-3-1-3-1v5l-6-2-5 1-4-2-6-6-6 1v-2l-3-2h-4l-13-7-1-1-1 6-3 1 2 3-5 6 2 1v3l1 2 5 1-3 2h-3l-11 9-1-1-4 4 1 2-2 4 2 1v2l-3 2-2-4-6-2 2 5-6 4h-2l-3 3h-2l-1-1-1 3-2 1-1 4 1 1-1 2 1 2-1 4h-4l-1 2 2 6 3 1-2 3h-3l-3 6h-1l-1 4 8 5 5-2 3-1-1-4 3-4 4-1 3-4 3 1 6-3 6 1 3-3 2-1-2-7 6-8-2-3 2-2 4-7h-3v-2h2l3-5 7-2 5 1v2l2-1 1-1 1 8 2-2 3 1v4v3l-8 4-1 2 14 10 3 1 1-1 3 2-2 4h-4l-7 6-11 2-2 2 5 1 5-2 7 2 1 9 4 1 15-1v2l3-1 6-1 2 1-1 3-6 4h7l4-3v4l2-2 6-2 6 3-1 3 5 6 3-5 3 2-1 3h2l1 2 3-1 1-9 7 2h8l4 3 2-4-5 12 1 11 4 9-2 1 2 5-6-1-3 4-5-3-2 2-12-2 1 8 3 2-1 7 3 3 3 3 5 1 5 3v2l5 5h-2l1 2 2 1-6 3h-5l-5 5 1 3 1-1 1 3 4 3-3 2 2 3-6 4 3 3-3 1v3l-9-4-2 1-1 4 2 3h-3v2h-2l-2 2h-3v5l-7 3-9 2-3-1 2-6-6-8h-4l-1 2-2-1v-1l-6-3-1-6-3-4h-3l-5-6v-1l-5-3-1-3-11-2-1 5-7 10-7 1-3 3-8 2-12 5-4-5 2-10-5-8-1-4 3-11h-1l1-1v-3l4-7h3h2l3 6 5-2 16 4 3-1 5 4v-4l1-1-6-7-6-11-14-5v-3l-3-2v-3l-3-6-4-2-4 2-5-7-1 2-6 2-2-1-5 3-2-2v-7l-5-1-5 3-8-6-2-3h-5v-2l2-6-8 2-3-7-5-3v-2v-2l-3-5-3-1-2 1-2 9v3l-7 7-6 4 1 5 5 5 3 5 12 6-1 4-1 2 7 4 1 2 9 4h3l8 7 6-2 1-2h3l3 2 1 1-2 2 1 4-5 5 5 5-4 10-8 5-7 1-2-8-8 2-6-4-4 2-2-1-2 2-4-1-3 6-4 2-7-3-3 3-11-6-2 2h-7l-4-4-5-1-10-11-3-2v-11l1-7-6-4-16 3-3 2-5-5-4-1-9 2-3 11-3 4-3 3-1 3-4 4-5 1-2 5-1 8 1 4 2 1 2 3 3 1 2 8 4 3-1 8-3 5-2 1 1 1-1 4 3 3 2-1 6 3 2-1 5 2h7l6 4 1 11 8 3 3 5 5-2h1l3 2 4-1 4-2 4 2 2 4 1-1 4 1 4 6 4 1 3 3 1 1 2-4 7-4 7 3 3-2 6-2v-3l1-3v-2l11-7 6-4 3 3 8-2 5-8 4-1 9 6 6 6 10 5 3-1v-1h4l4 3 5 2 23 2 6 4 2 4h1l12 5 7 1 2-3 3-1 9 7 4-3 2 3 5-1 4 1 8-2 2-1 2 3 3-1 2 2h4l1 7 5-1 1 4-1 2 5 11 3 2 1 1 7-2 2 1 10 1-1 4 3 4-2 1 4-1 2 3-1 2-1 1 1 1 2 2 4-1v2l3-1 3-3 8 2 1-1 7 1 1-2 2 2 8-2 2-2 6-2 5-3 3 1 3-1 1 1 1-2 7-2v-2h5l9-11 3 3-1 3-4 3 3 3v5l-5 3-5 2-3 4 15-6-1 12 1 1 4-1zM439 299l-1 4-5-1-4 1-2-3-14 6-11-15-1 3-1-2 5-3 3-5 5 1 4-2-1 5 2-2 4 2 3-3h2l-1 4 1-1 3 1-1 2h2l1 2h1l1 2h2v3h3zM429 216l2-1 3 6-5 2v-1h-5v2l-7-3-6-4-1 2h-3l-1-2-2 2-4-1v-1l-1-1h-4l-3-1 1-1-2-3 1-2-3-1-1-4-5-1-2-2 1-2h-2l-2-5-2-1h-3l-1-6 6 2h6l4-1 2-4-4-1v-2l-5 3-1-4-8-10h-2l1-3-2-8 2-1h-3l2-1-1-5 3-4 12-6v-2h2l3 2 8 12 5 1v3l4 4v3l2 5 5 4-3 6 1 3 2 1-2 6 1 4h3l3 5-1 2 1 3 2 2 2-1 1 1-2 1 4 2v1l-2 2zM482 210l-4-1-6-4-4-7-4-3v-5l-8-4 3-12 8 4 5 8 6 1 2 5 4 4-1 11zM236 69l1 1h-1z" id="path3037"/>
    <path fill="#ece3b4" d="M429 303l4-1 5 1 1-4v-1h-3v-3h-2l-1-2h-1l-1-2h-2l1-2-3-1-1 1 1-4h-2l-3 3-4-2-2 2 1-5-4 2-5-1-3 5-5 3 1 2 1-3 11 15 14-6zM315 248v-5h3l2-2h2v-2h3l-2-3 1-4 2-1 9 4v-3l3-1-3-3 6-4-2-3 3-2-4-3-1-3-1 1-1-3 5-5h5l6-3-2-1-1-2h2l-5-5v-2l-5-3-5-1-3-3-3-3 1-7-3-2-1-8 12 2 2-2 5 3 3-4 6 1-2-5 2-1-4-9-1-11 5-12-2 4-4-3h-8l-7-2-1 9-3 1-1-2h-2l1-3-3-2-3 5-5-6 1-3-6-3-6 2-2 2v-4l-4 3h-7l6-4 1-3-2-1-6 1-3 1v-2l-15 1-4-1-1-9-7-2-5 2-5-1 2-2 11-2 7-6h4l2-4-3-2-1 1-3-1-14-10 1-2 8-4v-3v-4l-3-1-2 2-1-8-1 1-2 1v-2l-5-1-7 2-3 5h-2v2h3l-4 7-2 2 2 3-6 8 2 7-2 1-3 3-6-1-6 3-3-1-3 4-4 1-3 4 1 4-3 1-5 2-8-5 1-4h1l3-6h3l2-3-3-1-2-6 1-2h4l1-4-1-2 1-2-1-1 1-4 2-1 1-3 1 1h2l3-3h2l6-4-2-5 6 2 2 4 3-2v-2l-2-1 2-4-1-2 4-4 1 1 11-9h3l3-2-5-1-1-2v-3l-2-1 5-6-2-3 3-1 1-6-3-2h-14l-3-3-6 9-5 5 2 1-8 13-8 15-8 10v7l-4 2 1 11 3 4-1 2v2h-7l-3 3-1 12-4 1-3-2-1-3-2 2-2-2-3 2-3-1 1 2-3 3h-3l-4 6-5-1v2v2l5 3 3 7 8-2-2 6v2h5l2 3 8 6 5-3 5 1v7l2 2 5-3 2 1 6-2 1-2 5 7 4-2 4 2 3 6v3l3 2v3l14 5 2-3-1-7 2-2-1-5 1-4-1-14-2-3 3-3 1 1 4 2 3-1v3l5 7 3 3h4l14 6 2 4 2-1 2 2-9 3-11 10-5 1-1 2 2 7v5l-2 4-5 1-1 1v4l-5-4-3 1-16-4-5 2-3-6h-2h-3l-4 7v3l-1 1h1l-3 11 1 4 5 8-2 10 4 5 12-5 8-2 3-3 7-1 7-10 1-5 11 2 1 3 5 3v1l5 6h3l3 4 1 6 6 3v1l2 1 1-2h4l6 8-2 6 3 1 9-2zM580 249l6-4h-3l-1-3-2 1v-7l2-4-3-1-2-3 7 2 2-1-7-14-1-5-2 2-3 1-1-1-6 8-2-1v5l-1 3 4 1 4 5-7 5v4l8 2 2 4h4zM429 223l5-2-3-6-2 1-6-4 2-2v-1l-4-2 2-1-1-1-2 1-2-2-1-3 1-2-3-5h-3l-1-4 2-6-2-1-1-3 3-6-5-4-2-5v-3l-4-4v-3l-5-1-8-12-3-2h-2v2l-12 6-3 4 1 5-2 1h3l-2 1 2 8-1 3h2l8 10 1 4 5-3v2l4 1-2 4-4 1h-6l-6-2 1 6h3l2 1 2 5h2l-1 2 2 2 5 1 1 4 3 1-1 2 2 3-1 1 3 1h4l1 1v1l4 1 2-2 1 2h3l1-2 6 4 7 3v-2h5zM482 210l1-3 1-11-4-4-2-5-6-1-5-8-8-4-3 12 8 4v5l4 3 4 7 6 4zM515 194l3-6 2 1 3 3 1-1 9 2v-2h7l1-3h5l2-2 4 2-1-4 2-1v-3l-3-5 11-7 1 2 2-1 1-5-9-11h-3l1 2 1-2-1 3h-2l-1 9-2 2-2-3h-3l-4-4 2-1-1-1-1 1-3-2-4 1 2 1-1-1 1 3-1 2h-2l-1 3-4-4-2 1-2-5-4 1-6-6-2 4-8-2 3 8-3 2-3-2-3 3v-2l-6-3-2 2 2 3-4 2v2l-7-4-6-2-1-2-2 2-3-3-4 2 1 4-2 2 11 5 6-3 6 1v13l6-1 2 3 5 5 6-3 2 3v-2l2-1 2 3zM75 168l6 4-1 7v11l3 2 10 11 5 1 4 4h7l2-2 11 6 3-3 7 3 4-2 3-6 4 1 2-2 2 1 4-2 6 4 8-2 2 8 7-1 8-5 4-10-5-5 5-5-1-4 2-2-1-1-3-2h-3l-1 2-6 2-8-7h-3l-9-4-1-2-7-4 1-2 1-4-12-6-3-5-5-5-1-5-7-4-3 2h-6l-6 4-9 3-5 6-6 2-2 6-5 5-1 3-1 1zM236 69v1h1z" id="path3039"/>
    <path fill="#b6f2dc" d="M256 188v-5l-2-7 1-2 5-1 11-10 9-3-2-2-2 1-2-4-14-6h-4l-3-3-5-7v-3l-3 1-4-2-1-1-3 3 2 3 1 14-1 4 1 5-2 2 1 7-2 3 6 11 6 7 5-1z" id="path3041"/>
    <path fill="none" stroke-linecap="round" d="M311 123l6-4v-13l-2-1 3-4-2-4-3 1-2-3-2 1-3-3v-1l3-4 5-3-2-2 5-2 3 3 4-2-1-2 2-2 2 2-2-6 3-8-1-4 2-2-1-7 1-6-4-4M283 40l-1 4h2l1 4-3 5-4-1-1 1h-2l-1-1 2-1-3-1v-2v2h-3l-1 4-2-1-2 1-6 4-1 5M383 70l-2 1-9-2-1 1v3l-2 2 3 1-1 2 1 7 1 1h5v4l2 1-3 2v8l-5-1v6l2 2 4 5-3 4h3l-3 4 2 2 4-4h4l5 3 1-2 8 7 4-1-2 5 7 5 4-9-1-1-2-1 1-1-2-1 6-3 1-6 11 5 1-3 2-3-5-4-1-3h-4l-1-9-8-2v-5l-5-6v-2h5v-2l2-2-3-6M466 69l-4 3v4l5 9-2 3-1 5-9-4-1 9h-7v5h-1v1l2 2h-18l-4-2-2-3-1 5M371 96l1 3v-3h1h-2M512 101l-9 6 1 7h-4l-5 3-2 2v3l3 2-10 4-2-1v4l-3 6h-2l-3 2 1 3-9-2-4-3-2 1v3l-4 5-4-3-2 4-1-3-2 3h-8l2 5 1 4h-4l6 10v3l2 2 7 2 3-3 5-1M524 124h-3l-1 6-3-2-3 3-3-1-3 5 1 3-2-1v2l1 4h2h3l2 2 1 3-2 2-1 3M377 123l3 4-4 1 2 9-1 1 7 2M372 148v-1l-1-1-5-1h-2l3-9v-3h-4l-6-6-3 1M426 119v3l6 7 1-1 1 1h4l-1 5-4 1-2 6 6 1 4 5M446 166l-3 3v3l-4 1 2 5v2l-4 2 2 3-2 3-5-5-9 1-4 5-5 1 1 4M443 169l-3-4-6-1-10-8-2 1 2 3-3 2 1 2 5 6h-4l1 2-2-3-3 3-3-2h-8M455 173l4 1M456 186v1l-3-2h-6l1 3h-2l2 5-1 3 2 3h-5v-1v-2l-2-2-1 3-10-1-1 4 2 5-4 5 1 6M376 193l-12 7-6 2-4-1-3 2M486 215l-4-5M395 216l-9 7-7 2-1-4 4-1 1-3-4-1 3-1-9 2-1 2 3 9-6 7 2 3-4 1-12 6-2-5-2 1-1 3 1-3h1l2 6-2 1h5l1 5 2 4 2-1 5-3 1 2 2 1v1l7 4v4l5-2 3 3 6-5-3 10 4-4 2 7-3 5 3 4v3h2l3 5 1 1M372 219l-2-2-2 1-3 5-4 1-1-4-8 1-2 6-3-1-2 2-8 8v2l3 1 5-3 6 5M563 227l-3-4-10-6v7l1 2 2 1-2 2h-5l-1 2-4-3v-2l-4 2M433 230l1-3-5-4M430 228l2 3-2-3M337 236l-6 5h-3l-3-2M299 253l2 8-1 3 2 1-3 4 3 1v2l3-1 1 2 9-3h4l1-3 5-3 3 3 4-1h4l3 1 5-4 2 4-3 3 4 1 1 2 8-5-1-4 7-6v-2M436 261h-1l-2 3 2 1 1 2v5l-15 4v3l-4 2 11-5v3l-2 1-1 5M435 265h-2l-1 2-7-2-2-3 1-3-1-1-4 2v5l-3 1-6 8 2 1-2-1-5 4-10 4 3-1 2 3 6-3 1 2-4 3 2 3M212 236l1 3 4 2v7l3 4 1 4-2 4-3 4-1 5-4 5M580 249l-4 4 6 4v14v7l17-6 2 2 10-1M582 271l-4-1-7 2 1 3-8 5-2 1-7-4-4 1-4-4-5-3-4-6M348 273l-4 5-3 1 2 10h4v-4l9-2v2l2 3h-1l1 3 7-1 6 14 2-2 4 2 1-2 4 1-2-3 6-4-1-5 1 4 7-7 1 5 3-1 1 3 2-1-1-3M582 278v2l3 16 4 4 7 1 1 3-2 4-5 4 1 6M582 280l-1-1h-5l1 3v11l-2 4h-3l1-1h-3v-3h-2l1 4 3 4-4 4h4M454 278l-1 1 2 4-3-3-2 8-3 1h3l2 3-1 1-3-1-2 2-7 4M500 295l17 4-2 4h-2l-2 2h-3l-1 1-3-1v-2h-2l-5-2-3-1-1-3M547 274l-4 2 1 3 5 4-2 2 4 4-1 2 2 2-1 1h2l2 3 1 2-10 5M341 279l-1-2-4 2 1 4-4 1 1 14h-4v4l-3-3h-3l-5 5M465 294l-5 3h-1v1h-1v-2l-1 2-2-2-3 1 1 3-3 1-2 5 1 2-1 2 1 1-1 4 3 4-1 4 2 1v3l3-4 1 4 3 1M450 301l-8 3-3-5M429 303v1l1 1 1-2 1 1 2 4-2 3M540 307l-5-7 1-6-2-3h1v-3l-5 1v2l-5-3-1 1 1 15 2 2 4 2 1-2 3 1 2 2M371 304l-1 2-7 3-10 3 3 4-2 8 1 2h4v3l-2 2h-5M485 316l-3-3-2-6-1 5-3-1v-3l-3 1v-9l-2-3M511 316v-2h-2l2-9M460 329l4-9 5-3v-6l4-2M229 54l-5-1-3 3-1-2-3-3-1-5-4 2-3-2v-2M256 82l1 4 3 6-3 10-11 8-5-2v3l-2-2h-4l-1 7-4 2 1 3-2 11 1 3 7 2M241 108l-3-4-9-3M189 113l-6 6-1 6-4 4-13 2M230 135l-5 1-6-2 1 4-2 2-2-3-9-2-4-4 1-1v-3l2-2-2-1v-3l-2-5M305 125v5h4l3 3-2 3-4 1v3l9 13-1 2h-3l-2 5 2 1-1 4-4 3v2l3 1 3-3-1 5 2 4 6 5v4l5-1 5 2 3-1M305 130v2l-2 3-7-5-9 10h-4l-1-2-3-1-5 1-1-3-2 1-1 2-5-2 1 3-2 5-4 2v3M321 135l6 6-4 8 3 4 2-3-1 1 2 2-1 1 1 2-1 3 2 1 2-2h2l-3 4-5 2v2M533 191l2-4 3-2-1-2-10-8h-3l-9-6v-3l-6-6 2-1v-2M518 188l-5-6 2-1 1-2-2-4-8-2-4-7 1-1M411 183l-5-3-8-1-8 5M309 171l-8 3-15-3-3 2-1 4h-3l-6 7h-4l-3 4-4-1-6 1M319 186l-7 4v4l-3 1-3-2-1 4 7 4 7 10 3 2 2 2h6l2-3h3v-1M250 210l-1-1-4-9 3-2M305 197l-4-2-1 4-5 2-1-1h-7l-3 5-4 1-4 1-5 6-1 4-3 1M322 213l-3 1 1 4h-2l-3 4-4 4-12-4-1 3-5 4-2 4 3 2-2 3" id="path3043"/>
    <path fill="#eeeeee" d="M180 61l-1-2-1 1zM160 113l-3-1-1 4 3-2 5 1v-5l7 2 2-2-3-1v-3h-3l-1 2-3-1-2 2 2 3zM112 228l3 5-1-1 1-5-2 1-10-1zM189 231l1 2-3 4 4-4 3 3v3l2 1-1-1v-3l-4-3 2-2-3-1v-6l-4-4v4l2 1v4zM365 328h-10h3v2l2-1 2 1-5 4v1h2l3-3 1 2v-3l2 3v-3h1l1 3 2-8-3 2-1-2zM326 269h-2v2l2-1zM246 269h-6l7 1v2l2-2zM306 243h-2l2 1zM381 154h-1l1 2zM246 110l-1-3-1 4 2 1-1-1zM367 336l-5 1 2-1-1 2h5v2l2-3zM172 327l-2 2-2-1-1-7v7l4 1v2l-7-4-3 4-2-2-3 1-3-4-2 2-3-3h-3h3l2 4 3-1 2 3h5l-1 4-2 1v2l-2 2 2-2 1-2 2-1v-3l3 1 1-4 7 4v3v-2l2 1 1-7 1 2 2-2 2 2 1-2h3v3l2 2-1-5 1-1 2 3v-4l-2-6-3 1 1 2-1 1 1 2-3-1-3 1v-2l-1 3-1-2 1 3-2-2z" id="path3045"/>
    <path style="fill:none;stroke:#f6bad3;stroke-width:0.8;stroke-linecap:butt;stroke-linejoin:miter;stroke-opacity:1;stroke-miterlimit:4;stroke-dasharray:none;fill-opacity:1" d="m 536.95921,308.96696 -1.95503,-1.95503 -3.01681,-1.02807 -1.01122,2.00559 -4.01119,-2.00559 -1.97188,-2.00559 -0.99437,-14.99981 0.99437,-0.99436 4.9887,2.99996 0.0337,-1.98874 4.95499,-1.01122 0.0337,3.01681 -1.02807,0.0169 2.00559,2.96626 -0.97752,5.99992 4.95499,7.01114 z" id="path3061" inkscape:connector-curvature="0"/>
    <path style="fill:none;stroke:#000000;stroke-width:0.21815048;stroke-linecap:butt;stroke-linejoin:miter;stroke-miterlimit:4;stroke-opacity:1;stroke-dasharray:none" d="m 540.48942,306.9873 -3.38629,2.24025" id="path3831" inkscape:connector-curvature="0"/>
    <path style="fill:#f6bad3;stroke:#000000;stroke-width:0.1;stroke-linecap:butt;stroke-linejoin:miter;stroke-opacity:1;stroke-miterlimit:4;stroke-dasharray:none;fill-opacity:1" d="m 506.95961,191.9348 0.0337,-1.95503 2.00559,-0.99437 1.98874,2.98311 4.02803,2.0393 2.9494,-6.05049 -4.95499,-5.98306 1.98874,-0.99437 0.99437,-1.98874 -1.98874,-3.97748 -8.05607,-2.03929 -3.96063,-6.97744 0.97752,-0.99437 -2.99996,-2.02244 -2.9494,2.96625 -0.0337,-1.97189 -5.98306,-2.9831 -2.0056,2.02244 1.97189,2.9494 -3.97748,2.05615 -0.0168,1.95504 -6.97744,-3.99433 -6.03363,-2.0056 -0.96066,-1.95503 -1.98874,1.97189 -3.03366,-3.01682 -3.96062,2.0393 0.96066,3.97748 -1.97189,2.00559 10.97177,4.9887 0.0674,0 5.94936,-2.98311 5.99992,1.01122 0,12.99421 5.98307,-1.01122 2.02245,2.99996 5.00555,4.9887 5.99992,-2.98311 z" id="path3833" inkscape:connector-curvature="0"/>
  </g>
  <g id="g3047">
    <rect fill="white" opacity="0.75" x="4" y="320" width="286" height="36" id="rect3049"/>
    <rect fill="black" x="8" y="324" width="278" height="8" id="rect3051"/>
    <text fill="black" text-anchor="middle" font-size="24" font-family="sans-serif" x="147" y="352" id="text3053">50km</text>
  </g>
</svg>