<?xml version="1.0" encoding="UTF-8" standalone="no"?>
<svg
   xmlns:dc="http://purl.org/dc/elements/1.1/"
   xmlns:cc="http://creativecommons.org/ns#"
   xmlns:rdf="http://www.w3.org/1999/02/22-rdf-syntax-ns#"
   xmlns:svg="http://www.w3.org/2000/svg"
   xmlns="http://www.w3.org/2000/svg"
   xmlns:sodipodi="http://sodipodi.sourceforge.net/DTD/sodipodi-0.dtd"
   xmlns:inkscape="http://www.inkscape.org/namespaces/inkscape"
   inkscape:version="1.0 (4035a4fb49, 2020-05-01)"
   sodipodi:docname="Gifu.svg"
   id="svg32"
   version="1.1"
   height="553"
   width="468">
  <metadata
     id="metadata38">
    <rdf:RDF>
      <cc:Work
         rdf:about="">
        <dc:format>image/svg+xml</dc:format>
        <dc:type
           rdf:resource="http://purl.org/dc/dcmitype/StillImage" />
      </cc:Work>
    </rdf:RDF>
  </metadata>
  <defs
     id="defs36" />
  <sodipodi:namedview
     inkscape:current-layer="svg32"
     inkscape:window-maximized="1"
     inkscape:window-y="-8"
     inkscape:window-x="-8"
     inkscape:cy="285.56913"
     inkscape:cx="216.98174"
     inkscape:zoom="1.5515371"
     showgrid="false"
     id="namedview34"
     inkscape:window-height="1017"
     inkscape:window-width="1920"
     inkscape:pageshadow="2"
     inkscape:pageopacity="0"
     guidetolerance="10"
     gridtolerance="10"
     objecttolerance="10"
     borderopacity="1"
     bordercolor="#666666"
     pagecolor="#ffffff" />
  <title
     id="title2">地図 ナンバープレート 岐阜県</title>
  <desc
     id="desc4">Author: Lincun</desc>
  <rect
     id="rect6"
     height="553"
     width="468"
     y="0"
     x="0"
     fill="#eeeeee" />
  <g
     style="stroke-width:0.2;stroke-miterlimit:4;stroke-dasharray:none"
     id="g22"
     stroke-linejoin="round"
     stroke-width="0.2"
     stroke="black">
    <path
       style="stroke-width:0.2;stroke-miterlimit:4;stroke-dasharray:none"
       id="path8"
       d="M181-1v4l3 4-2 5v3l1 2-4 4 3 3-6 5h-2l-1 3 1 3 4 2 2 2 2 2 1 12 3 4-7 4-1 3 1 4h-1l2 4 1 9 3-3 4 1h3l2-2 3-9-1-6 2-2 2 2 5-1 1-7 2 3-2 3 2 1v3l4-1 6-6 6 3 9 5 2 6 4 6-2 5-3 7 5 1 4-4 5-1 3-2-1-2 4-4-1-2v-2l6 1 4-5 1-4 2-1-4-1 5-9-2-2 4-2v-1l3-2h5l-1-4 3-1 3-7 3-1 4-6 3-2v-3h3l2-4 4 1 1 2 1-2h4l1 3h1l3 7 1-1h1v-3l6-2 5-7 2 3v1l8-5 6 2 3-2 3 2v3l-2 4-1 1-1 1 1 3 4 1 5-3 7-1 1-6 5-1 4-2 2 3-1 6 5 4 8 2 3 3 1-2 4 2 5-5h11l1 5 8 8 8 1h2l2-2 3 2h2l4-5v-7h3l2-2h3l4-12 3-2-1-11 2-2h2l1-3v-2zM88-1l-3 3-7 11-7 9-6 7-7 9-10 9-13 10-5 2h-5l-7 13-10 9 1 1 3 2v4h2l-1 2 1 2 1-1v2h5l1 2h3l2 1 2 4 2 1 1 4 4 2v7l-1 4 4 11 5 4 3-1 1-1 6 1 7-2 1 6 3 1 1 2 4 5 3-2 3 2 8-8 3-1 1 4 4 1 4-2 3 2 3-3h4l2 1 1 3h3l6 5 3 1 4 5v3l12 6 2 8v1l5 1 9-3 4-2h8l4-2 1-1-1-1 1-3 3-3 1-2 4-9-3-9-1-1v-2h6l3-3 2-6 3-3 2-2 1-4 3-2 6-12-2-5h-2l-2-2-5-1-7-12-1-9-2-4h1l-1-4 1-3 7-4-3-4-1-12-2-2-2-2-4-2-1-3 1-3h2l6-5-3-3 4-4-1-2v-3l2-5-3-4v-4zM-1 321l1 1 3-1 3 3h2l6 3 4 3 3-2-1-3 3-2-2-2v-3h2l6-9 2-2-1-2 2-3v-5l-2-3 1-5 2-4h5l2-3 2-2 7-3 3 2v1h4l3 3 2-1 4 3 5 1 2-1 3-1 4 2 4-1 2 3 4 7 3-5-1-3 4-7 7 4 3-1 5 1 5-2 1-5h2l8 4 2-2v-2h1h2l3-4 2 3v5l4 1 4-4 4 2 2-2 4 1 4-6 6 2 4-3h4l3 1v3h4l3-7v-4l1-6h5l4-2 1-5-4-8 1-4-3-6-9-8 3-7-13-4-1-3 1-2v-8l-4-1-4-2 2-17v-4l7-6 3-1-4-7-4 2h-8l-4 2-9 3-5-1v-1l-2-8-12-6v-3l-4-5-3-1-6-5h-3l-1-3-2-1h-4l-3 3-3-2-4 2-4-1-1-4-3 1-8 8-3-2-3 2-4-5-1-2-3-1-1-6-7 2-6-1-1 1-3 1-5-4-4-11 1-4v-7l-4-2-1-4-2-1-2-4-2-1h-3l-1-2h-5v-2l-1 1-1-2 1-2h-2v-4l-3-2-1-1-9 7zM456-1v2l-1 3h-2l-2 2 1 11-3 2-4 12h-3l-2 2h-3v7l-4 5h-2v7l10 2 4 7 2 2h2l3 8-1 5v3l-1 5-6 4-6 9v1l-6 9-2 1v3h-3v4l2 6 5 1-1 8v3l-7 3-1 3-4 3 2 4-1 5-2 2 6 6 1 4 6 2 2 2h5v7l-5 6 1 6v1l-3 7-9 7-6 3v6l-3 2-3 8-6 1-2 3-5 7v5l-2 3-6 2-3-2-3-5-8 2-10 3-5 6 1 2-2 9-2 3-6-1-1 2-3 11 3 1 1 4 5-1 2 2 7-2 2 1 2 1v5l-1 1 2 2 5-1 7 3 2 5 3-1 1-1 2 1 3 5-1 1 4 7 2 1 1 3-1 3 4 4v4l4 2 8 7 3 6-1 1-1 4-3 1v2l-3 4-1 5 2 3 5 6 4-2 7 2-2 6 2 2 1 7 4 3 5 3 2-1 7 9-2 3 3 11-3 2h-2l-8 8 7 7 3 7 3 1v4l-6 3-8-1-4-2v1l1 2 6 5 2 17v1l-4 1-3 3-2 2-6 3v6l2 2h1l1 3-4 3v3l-3 3v3l2 4 7 7 1 1v5v4l4-1 7-4 6-1 4 1v-2l3-1v-2l1-2h2l5-1 1-2 1 2 4-1v-498zM469 497l-4 1-1-2-1 2-5 1h-2l-1 2v2l-3 1v2l-4-1-6 1-7 4-4 1v-4v-5l-1-1-7-7-2-4v-3l3-3v-3l4-3-1-3h-1v2l-6 2-7-2-1 3-5 5h-2v2l-4 1-7 6h-2l-9 7-4-7-2 3-2-2-5-1-1-7h-2l-2-1-9 2-1-3 2-3-4-1-8-6-9 1-2-1-4 2-2 5-5 3-5 4-1-2h-3l-2 3-5-1v1l-6-5 1-2-1-2-2-3-6 1-5-5-9-3-2 4h-5v-6l-4-2-2-3 3-3v-2l-3-3-4 2-1-2v-4v-6l-4-2-2-2h-2l-2-2h-4l-4-8-4-1 3-6 2-2-9 1-1 2v1v6l-13 8h-9l-9 2-10 7-1-1-12-2 1-1-6-2h-1l-4 4-2 6-7 13-3 7-6 7-3 6-6 7v1l1 4 1 6v6l-3 4-1 5 1 16 1 2 6 2 2 3 4 5 5 3 3 3h41v-2l1 2h1l2-1 2 1h259zM163 554l-3-3-5-3-4-5-2-3-6-2-1-2h-1l-5-10-3-2v8l-5-2-2 2-3-3-3-9-3-2-4-5-2-4-5-1v-2l-1-4h-3l1-5-3-1v-4l-2-1-1-3h-2l-3 1-4 8-2-2-3 1-2-1-1 2-2-1-1 1-1-2-2 1-6 8-3-4-1-1-5 4 1 3v3l-3 6 4 2 1-1 7 5v2l2 1 1 5-4 1v4l-2 3 4 3-3 3 1 1-1 8v2zM67 554v-2l1-8-1-1 3-3-4-3 2-3v-4l4-1-1-5-2-1v-2l-7-5-1 1-4-2 3-6v-3l-1-3-12-10 7-5-1-8-1-4 2-3 2-2 3-6-1-5 4-8v-2h-4l1-6 3-2 3-1 4-5-10-11 3-9v-1l1-2-1-7-6-2-2-4-3-3 2-6 2-4 1 1 1-2h-1l-1-5-5-2-3-10-4 1-2 7-3 2v-1h-2l-1-5h-3l-2 2-1-4 2-11-1-7-2-2 2-2 1-2-2-3-8 2-3-5-1-3 1-2-2-3 2-3-4-3-6-3h-2l-3-3-3 1-1-1v233z"
       fill="#aaaaaa" />
    <path
       style="stroke-width:0.2;stroke-miterlimit:4;stroke-dasharray:none"
       id="path10"
       d="M145 505l-1-6-1-4v-1l6-7 3-6 6-7 3-7 7-13-7-2 1-1-2-2 1-2 3 1 1-1 4-1-2-2 1-2 3-1 1-1v-5l5-2h2l5 4h3l2 1-1 2 1 2-5 1-2 1v2h-1l-1 1 12 2 1 1 10-7 9-2h9l13-8v-6l-4-1 1-4-1-1 2-1 1-5v-1l4 1v-3l4 2 3-2v4h3v4l1 1v2h-4l-2 2-3 6 4 1 4 8h4l2 2h2l2 2 4 2v6v4l1 2 4-2 3 3v2l-3 3 2 3 4 2v6h5l2-4 9 3 5 5 6-1 2 3 1 2-1 2 6 5v-1l5 1 2-3h3l1 2 5-4 5-3 2-5 4-2 2 1 9-1 8 6 4 1-2 3 1 3 9-2 2 1h2l1 7 5 1 2 2 2-3 4 7 9-7h2l7-6 4-1v-2h2l5-5 1-3 7 2 6-2v-2l-2-2v-6l6-3 2-2 3-3 4-1v-1l-2-17-6-5-1-2v-1l4 2 8 1 6-3v-4l-3-1-3-7-7-7 8-8h2l3-2-3-11 2-3-7-9-2 1-5-3-4-3-1-7-2-2 2-6-7-2-4 2-5-6-2-3 1-5 3-4v-2l3-1 1-4 1-1-3-6-8-7-4-2v-4l-4-4 1-3-1-3-2-1-4-7 1-1-3-5-2-1-1 1-3 1-2-5-7-3-5 1-2-2 1-1v-5l-2-1-2-1-7 2-2-2-5 1-1-4-3-1 3-11 1-2 6 1 2-3 2-9-1-2 5-6 10-3 8-2 3 5 3 2 6-2 2-3v-5l5-7 2-3 6-1 3-8 3-2v-6l6-3 9-7 3-7v-1l-1-6 5-6v-7h-5l-2-2-6-2-1-4-6-6 2-2 1-5-2-4 4-3 1-3 7-3v-3l1-8-5-1-2-6v-4h3v-3l2-1 6-9v-1l6-9 6-4 1-5v-3l1-5-3-8h-2l-2-2-4-7-10-2v-7l-3-2-2 2h-2l-8-1-8-8-1-5h-11l-5 5-4-2-1 2-3-3-8-2-5-4 1-6-2-3-4 2-5 1-1 6-7 1-5 3-4-1-1-3 1-1 1-1 2-4v-3l-3-2-3 2-6-2-8 5v-1l-2-3-5 7-6 2v3h-1l-1 1-3-7h-1l-1-3h-4l-1 2-1-2-4-1-2 4h-3v3l-3 2-4 6-3 1-3 7-3 1 1 4h-5l-3 2v1l-4 2 2 2-5 9 4 1-2 1-1 4-4 5-6-1v2l1 2-4 4 1 2-3 2-5 1-4 4-1 3-2 2-4 10 2 3-2 5v3h-2l1 5-2 10-2 3-1 8 7 6v4h-3l-4 2v3l-3 4-3-3h-4l-2-2-8 2-4-2-4 3-8 2-4-4-3-1-3 3-7-3-3 3-1 3 1 1-1 1 4 7-3 1-7 6v4l-2 17 4 2 4 1v8l-1 2 1 3 13 4-3 7 9 8 3 6-1 4 4 8-1 5-4 2h-5l-1 6v4l-3 7h-4v-3l-3-1h-4l-4 3-6-2-4 6-4-1-2 2-4-2-4 4-4-1v-5l-2-3-3 4h-2h-1v2l-2 2-8-4h-2l-1 5-5 2-5-1-3 1-7-4-4 7 1 3 5 5v2l2 5-3 7 3 8v2l-5 1-2 4 2 5 5 5v2l7 7 1 15 3 3 11 1 7 3 3-1-1 2v2l4 5-5 2 6 6-4 3 5 5 2 1v7l-8 18-1 6 2 10 1 6h-5l-1-2v-4l-2-1h-2l-1 5-7-5v-1h-2l-1 1-4-2-5 1v4h2l-2 2v-2h-2l2 4v3l-2 1 6 3 1 4h-2v3l2 2-1 1 7 1v5h2l-1 3 3 2v5l5 4 9-8v-8l6-3v-13l-2-2h2l1 3 4 2 1 2-1 6h5l-1 7-6 5-1 3 3 6-7 2 1 6-7 3h-2l-1 5-2 2-1 5-2-1v4l-2-1v-5l-3 3v-4h-3l-5-7h-4l-6 5 2 1v4l3 1-1 5h3l1 4v2l5 1 2 4 4 5 3 2 3 9 3 3 2-2 5 2v-8l3 2 5 10h1l-1-16 1-5 3-4zM95 488l-1-3 1-7-3-5 2-2-2-1v-3l-3-3 2-5 2-1 4 3 1-3-3-3 1-2-2-1-4 1-3-4-1-2-2 2-3-1-3 6h-2l-2 4-2 3 1 4-6 3h-4l1 3-2 5-6-5-2 2-2 3 1 4 1 8-7 5 12 10 5-4 1 1 3 4 6-8 2-1 1 2 1-1 2 1 1-2 2 1 3-1 2 2 4-8zM308 431l-1 2-4 2-6-2-8-5-4-1-1-3-3 2-1-1v-5h-2v-2l-9 3-1-2 1-2 3-1 1-3 2 1 1-2 2 2v-2l1 1 1-3h2l-1-2-2-1-6 6h-2l-1-4 3-1 1-3-1-2h-4v-2l-6 6v2l-1-2 1-9-5-3 1-3 4-2v-3l6-6-1 1-1-4 1-3-3-1v-1l-1 2-4-1 2-4 7-5-3-1 1-2-4-5 3-12h2l1-1 6-2 1 2h5l1 2 6-1v1l3-2 1-2 5-2h3l3-6 3 1 1-2 2-1-1-4 5-5 3-1 7 3 2-6 5-3h2l1 2h2l6-1 1-3 9-3 5 2-1 3h3l7 10 8 4 3 1-3 5 4 3v4l-2 2v3l-4 3-2 2 4 9-1 6-9-1-8 1 1 4-1 2-6 5h-4l-13 3v1l3 2 3 6-7 5-1 4-1 1-2 2 1 2-2 2-4 3-2-6-3 1-3-2-3 2-1 4 1 2-2 2 3 10-3 2 1 3h-3zM148 428l-3-1v-2l-2-9h5v-3l2 1v10h-2zM236 390h8h2l-1 2 2 1-2 2h4v1v4l-5 2-3-1v3h-4l-2-3-1 5-3-2 4-5-4-1-2-5 1-3zM113 492l3 1v-5z"
       fill="#f6bad3" />
    <path
       style="stroke-width:0.2;stroke-miterlimit:4;stroke-dasharray:none"
       id="path12"
       d="M126 490l1-5h2l7-3-1-6 7-2-3-6 1-3 6-5 1-7h-5l1-6-1-2-4-2-1-3h-2l2 2v13l-6 3v8l-9 8-5-4v-5l-3-2 1-3h-2v-5l-7-1 1-1-2-2v-3h2l-1-4-6-3 2-1v-3l-2-4h2v2l2-2h-2v-4l5-1 4 2 1-1h2v1l7 5 1-5h2l2 1v4l1 2h5l-1-6-2-10 1-6 8-18v-7l-2-1-5-5 4-3-6-6 5-2-4-5v-2l1-2-3 1-7-3-11-1-3-3-1-15-7-7v-2l-5-5-2-5 2-4 5-1v-2l-3-8 3-7-2-5v-2l-5-5-3 5-4-7-2-3-4 1-4-2-3 1-2 1-5-1-4-3-2 1-3-3h-4v-1l-3-2-7 3-2 2-2 3h-5l-2 4-1 5 2 3v5l-2 3 1 2-2 2-6 9h-2v3l2 2-3 2 1 3-3 2-2 3 2 3-1 2 1 3 3 5 8-2 2 3-1 2-2 2 2 2 1 7-2 11 1 4 2-2h3l1 5h2v1l3-2 2-7 4-1 3 10 5 2 1 5h1l-1 2-1-1-2 4-2 6 3 3 2 4 6 2 1 7-1 2v1l-3 9 10 11-4 5-3 1-3 2-1 6h4v2l-4 8 1 5-3 6 6 5 2-5-1-3h4l6-3-1-4 2-3 2-4h2l3-6 3 1 2-2 1 2 3 4 4-1 2 1-1 2 3 3-1 3-4-3-2 1-2 5 3 3v3l2 1-2 2 3 5-1 7 1 3h2l1 3 6-5h4l5 7h3v4l3-3v5l2 1v-4l2 1 1-5zM113 492l3-4v5zM168 454l2-6 4-4h1l6 2h1v-2l2-1 5-1-1-2 1-2-2-1h-3l-5-4h-2l-5 2v5l-1 1-3 1-1 2 2 2-4 1-1 1-3-1-1 2 2 2-1 1zM308 431l-1-3h3l-1-3 3-2-3-10 2-2-1-2 1-4 3-2 3 2 3-1 2 6 4-3 2-2-1-2 2-2 1-1 1-4 7-5-3-6-3-2v-1l13-3h4l6-5 1-2-1-4 8-1 9 1 1-6-4-9 2-2-8-3-6-1-5-2-3 3-13 7-3-2-3-3-2-3 1-4-1-1 7-4 3-3-1-2 3-5h3l5-6v-2l7-4 1-3-5-2-9 3-1 3-6 1h-2l-1-2h-2l-5 3-2 6-7-3-3 1-5 5 1 4-2 1-1 2-3-1-3 6h-3l-5 2-1 2-3 2v-1l-6 1-1-2h-5l-1-2-6 2-1 1h-2l-3 12 4 5-1 2 3 1-7 5-2 4 4 1 1-2v1l3 1-1 3 1 4 1-1-6 6v3l-4 2-1 3 5 3-1 9 1 2v-2l6-6v2h4l1 2-1 3-3 1 1 4h2l6-6 2 1 1 2h-2l-1 3-1-1v2l-2-2-1 2-2-1-1 3-3 1-1 2 1 2 9-3v2h2v5l1 1 3-2 1 3 4 1 8 5 6 2 4-2zM148 428v-4h2v-10l-2-1v3h-5l2 9v2zM234 427v-1l1-2 9-1h4v-2l-1-1v-4h-3v-4l-3 2-4-2v3l-4-1v1l-1 5-2 1 1 1-1 4zM236 390h-6l-1 3 2 5 4 1-4 5 3 2 1-5 2 3h4v-3l3 1 5-2v-4v-1h-4l2-2-2-1 1-2h-2z"
       fill="#f6bad3" />
    <path
       style="stroke-width:0.2;stroke-miterlimit:4;stroke-dasharray:none"
       id="path14"
       d="M172 156l7 3 3-3 3 1 4 4 8-2 4-3 4 2 8-2 2 2h4l3 3 3-4v-3l4-2h3v-4l-7-6 1-8 2-3 2-10-1-5h2v-3l2-5-2-3 4-10 2-2 1-3-5-1 3-7 2-5-4-6-2-6-9-5-6-3-6 6-4 1v-3l-2-1 2-3-2-3-1 7-5 1-2-2-2 2 1 6-3 9-2 2h-3l-4-1-3 3 7 12 5 1 2 2h2l2 5-6 12-3 2-1 4-2 2-3 3-2 6-3 3h-6v2l1 1 3 9-4 9zM355 316l-7 4v2l-5 6h-3l-3 5 1 2-3 3-7 4 1 1-1 4 2 3 3 3 3 2 13-7 3-3 5 2 6 1 8 3 4-3v-3l2-2v-4l-4-3 3-5-3-1-8-4-7-10z"
       fill="#f6bad3" />
    <path
       style="stroke-width:0.2;stroke-miterlimit:4;stroke-dasharray:none"
       id="path16"
       d="M360 277l-8 13-2 7 1 14-9 3-1 3-6 1h-2l-1-2h-2l-5 3-2 6-7-3-3 1-5 5 1 4-2 1-1 2-3-1-3 6h-3l-5 2-1 2-3 2v-1l-6 1-1-2h-5l-1-2 2-4-4-3 4-3 1-9h-2l-4 1-1-3h-4l-5-4v-1l6-2-1-4 2-1 1-4v1l7-1 5-4h4l-1-2h3l-1-14 1-4-1-1v-12l-1-2-1-4 4-6h3l3 2h3l1-2v-4l-6-7v-1l-3-1-5-10-5-2-1-4-3-1-1 11-2 1v-2v-2l-5-4-1-6 1-3-4-3-1-3-1-2-1 1-2 2-7-2-1 2-2 1-4 4 1 5h-2l-2 2-1 2-4-3-1-9 1-3-4-9-5-3-3-4-1-4-7-2v-2l-4-4-2 2-14 5-2 3-3-4h-4l-4-8h-2l1-4-1-3-6-1-3-2-1-4"
       stroke-linecap="round"
       stroke-width="1.6"
       fill="none" />
    <path
       style="stroke-width:0.2;stroke-miterlimit:4;stroke-dasharray:none"
       id="path18"
       d="M262 317l-1 8 3 4-2 2-1 3h-2l-3 4h-2l-2-4-2-1-6 1-1 2-3 2v1l2 8-3 1h-8l-3 7h-2l-4-2-4-8-3-2-1-7-6-2-1-2-2-3-3-2-2-6-5-6 5-9v-9l-7-3 1-5h2l-1-4h-4l-6-3-2 1-2-1-2-6M230 421h-5l-9-7-5 1h-2l1-5-4-3-4 1-4-3-4 3-1-3 2-2v-4l1-6 3-2 2 2 1-3-5 1-4-7-4-3h-2l-1-2-1-4 4-6-1-2h-1l-3-2v1h-3l-1-5 1-2-3-4 4-1 3-4-1-16-2-4-8-2-1-6-2-1-2 2-6-2-1-3-5-1 3-5v-3l-10-1-2-1-2-2 1-2-2-3 1-4 2-2-3-7-3-2-2-3M150 308l-1 11-1 2 1 6-2 3-4 2v7l-3 5 1 5-2 4 2 5 2 2 2 3 1 8 4 5h1l5 9 4 1 2 4 2-1 3 1 1 2 2-1 4 6h6v2h2v-3h2v-3l-1-2 4-2-2-5 2-3M208 334l-3 2v4h-3h-2v5l-2 2 2 3-1 3-3 4 1 1v4v5l-2 2v3l5 3 2 9 6 2 6 3-1-1 1-2 1 1v-4l8 2 2-1-1-2 2-2 3-5 4-1-1-6 4-3v-4l2-1 1-12M260 374l-2-2-1 3-2 3-5 2-4 7h-2v3M150 376l-1 2h-4l-1 1 3 4-2 4 4 2 1 3-2 1 1 1-1 2h2v4h-4l-1 2 3 6h2v6M430 432l-4-2-1 3-1 3-6 4-3 2h-6l-6 4-1 2-6-4-7-8-6-12h4l14-3 5-4-6-2-7 1-6-5-3-8-5-2h-2l-1-2-5 1-1-4 2-4-1-2h-2l-5 1-6-2-1-2 1-7-3-3v-3M273 413M345 475l6-1-1-2v-2l7-5-2-4-4-3h-4l-3 3h-3v-3l5-7 3-1 1-5 5-6 1-5-2-3 4-7-6-3 1-1-2-5-5 1-4-4-2-4-3 5-4-1-3-5h-4M234 406l-1 8M269 417l-2-1-3-1-7 3h-7l-2 3M209 415h-5l1 3-3 1-1 4h-4l-1-3-9 2v15M145 425l-9-1-7-3M135 440l-3-3M297 433l-4 8v3h2l2 6-4 2 4 7-2 4 3 1 3 2 3 10-2 1 4 3-4 3M293 441l-4-1-3-2-4 6-2-2-6 2-3-1-1-5-5-7 1 4h2l-4 3v7l-3 1M334 475l1-8 1-3-2 1-1-3h-3l-2-3-2 2-2-2v-3l-8-7 1-4 1-1-3-9-7-4M160 449l-2 2-2-1-2 1-4-2-3 2 1-6 5-7-5-10M148 445h-3l-1-2v2h-2M147 451v2M143 494l-6-6 6-7-1-7M332 383l-5-2-1-3-8-6h-2l-4 4-1-3-2-1h-4l-3-8-4-1-2-5-5-3 3-2 2-2v-2l-7 1 2-6M305 372l-3 3h-3l1 1-2 1v3l-1-3-2-1-3 4-2-1 1 1-2 2v3l-3 1-1 1-5-1 1-4-2-5 2-2-3 1v-2h2l-3-2-1 4-5-3-3 1-3-2v1M274 405l1-1-3-4 1-2 2-1 4 1 4-7 2 1h2l1-3-3-2M136 389l-3 4-2-2-6 2-2 3-6 2-1 3 4 2 1 5-5 1 3 4 6 10 3-1 1 3h-3l5 6M116 409l-1-2-3 1-3-1v-4l-7 2-5-1 1 2-3 2-2 4-1 5 3 8 4 2 2-1 1 3M311 405l-4-2-6 2-3 6h-6l-3 2-5-2-2-1M92 417l-2 2-1 1-3-1-4 7h-5l-2 8 4 3v4l4 4 5-3h2l-3 7M119 413l-3 2-2 5v9M75 434l-6 2M188 440l-4-1-3 3-4-2h-2l-1 3-3-2M175 444v-1l-1 1M106 454l-2 1v3h-6M139 468l-8-2M122 474l-2 1 2 1-2 5 1 4 5 5M416 44l-5 4h-3h-5l-5 4-3-2-9 4v-2l-4-1-3 2-3 4 1 1 1 2-8 4-10-4-1 3 2 4-1 2 3 4-2 2 2 3-2 3-9-1-2 5h-14l-3 1-1 2-3 4-5 3-2 3-7-1-2 2v4l-5 4 3 3-1 2 1 2-6-3-3 4-6-1-1 5h-4l-2 4-3 2h-3l-4-7 1-5-2-1-5 1-5 7h-3l-3 3-4-2h-3l-2 3h-4l-3-2-4 1-7-2-4-5M399 231l-12-11-1-7-4-1-2-3h-2l-5 1-5 7-5 2-1-2 1-7-4-3-2-5-3-1 1-4-3 1-2 2h-5l-7 3-2-1-2 1-3-2-2 2-1-3-4-1-2-4-2-6-10-3-2-3h-4l-4 4-5 5-2 4-6 3-3 4-5 11 2 1 3 3-2 6-3 3"
       stroke-linecap="round"
       stroke-width="0.2"
       fill="none" />
    <path
       style="stroke-width:0.2;stroke-miterlimit:4;stroke-dasharray:none"
       id="path20"
       d="M-1 97l3-2 1 1-2 2h2l2-3-2-1 2-2 3 1v-3l3-4-2-2 1-2-1 7h-2l-8 8zM469 147l-4 3-2 9 3-9 3-2zM469 144l-4-2v-2l-5-3-1-2v2l2 1-1 3 2-2 3 4 4 2zM-1 482l6-4 4-5-1-2 5-8v-4l2-5v-8l-10-10h-6zM390 6l-2-1-2 2-8 14 5-4v6l2-4 1 1-1-2h2l-2-2 3-1-1-1 1-1v-1l-2 2-1-2zM194 59l-2 4 2-2 2 7-2 5 3-6-1-5zM183 15l-1 3v7l2-9 2-1-1-1zM167 29l1 3-5 3 2-1 2 3-2-3 3-2zM141 13l-1 5 2 3-2-3 3-5zM111 86l-1 6h-2v2l-3 1 6-4 2-4-1-2h2h-5l2 1-1 2zM73 50l-3 4-1 4 3-3zM47 58l-2 1 2 4 6-2-3-3-3 1zM96 238l-4-1 4 2 3-4 2 1-3-4 4-1-1-2-2 2h-2l1 4zM103 259l-1 2-4 3h4l-1 3 2-3-2-1h2l1-3h2v3v-1l3 1 1 3v-3l6-1h-9l-2-4zM147 241l-3 3h-7l5 1v1v-1h2l1 2h3v1l1-1h7v2l-2 2-9 3h2l1-1 5 1-1-1 6-3v-3l2 3v-2h3v4l-2 2 3-3-1-3 4-1 1 1v5l2 3-1-2-1-6 5-3 4 1-5-1-1-3v4l-3 1v-2l-1 1-7 1 1-2h-5v-2l-1 2h-9l2-3zM41 138h-2l2 3-1-3 4 1zM428 273l-5-1-1 1h2l1 2 7-2 5-4 1-3-2-1-2 5zM362 265h1l-2 3 4-3 5 2h1l-1-1 1-4 2-1v-1l-2 2-2 3-3-1-2-5v3h-3l-1 1h3l1 1zM407 194l2 1-1-2-3-3 4-3-5 2-2-4v3l5 5v2zM224 148h-3l-2-4h-2l1 3-1 1h2l5 9-4 7-10 5 6-2v1l10-9v3l4 4-2 3-1 6 1 3-1-3 2-5 1-1 3 1 2-3-4 1 1-3-4-3-1-5h2h-2l-2-6-4-1 4-2 2 2 3-4 4 2-4-2 1-4-4 7zM379 167l-3 1 3 1 3 6-1-4 2-1zM385 431v-5l4 3-2-1h2l-4-3-1-3h-1l1 3-2 2 2 1zM403 415h-1l1 1h2zM404 358l1 2 1-1zM313 424l-3 1 2 3-1-2 2 1zM301 404v2l7-2 2 2 4-3 3 2 2-1 2 6-1-6-3 1-3-2-3 2-5-2v-2l1-1-1 1v2l-4 2zM380 497l2 3h-3l2 4-1-3h3l-1 1 4-1 2-3h1l2-4-7 7-3-5zM153 368l-2-1v2zM248 110h3l1 3h3v4l3 1-2-2v-3l-4-2 5-9-3-1-3 5v3zM296 279v2h-2l2 2-2 2h-2l-1 3 2 3h4l-3-4 4-4 1 3-1-6v2h6l1-3-1-3h1h-1l1 4-2 2-4-1-4-6 3-1-1-2v2l-3 3 3 2zM79 495l1 1-1-2 2 1-2-1h2l-2-1zM84 431h-3l2 2zM75 352l-2 5 3-2zM279 407l3-3 3 1 2-2h2l2 2 4-3-4 2v-2h-4l-2 2h-3zM211 82l2 2 2-1-3-1 2-3-1-4-2 1h2zM213 103l-1-2-2 6-2 2 2 4-2-3 3-2zM244 452l-1 2 1 1-1 1 1 2 2-2 3 1v-3l-2 1-2-2 1-3zM273 539l-2 2h-3l3 3 3-4z"
       fill="#eeeeee" />
  </g>
  <g
     id="g30">
    <rect
       id="rect24"
       height="36"
       width="183"
       y="4"
       x="4"
       opacity="0.75"
       fill="white" />
    <rect
       id="rect26"
       height="8"
       width="175"
       y="8"
       x="8"
       fill="black" />
    <text
       id="text28"
       y="36"
       x="95"
       font-family="sans-serif"
       font-size="24"
       text-anchor="middle"
       fill="black">50km</text>
  </g>
</svg>
