<?xml version="1.0" encoding="UTF-8" standalone="no"?>
<svg
   xmlns:dc="http://purl.org/dc/elements/1.1/"
   xmlns:cc="http://creativecommons.org/ns#"
   xmlns:rdf="http://www.w3.org/1999/02/22-rdf-syntax-ns#"
   xmlns:svg="http://www.w3.org/2000/svg"
   xmlns="http://www.w3.org/2000/svg"
   xmlns:xlink="http://www.w3.org/1999/xlink"
   xmlns:sodipodi="http://sodipodi.sourceforge.net/DTD/sodipodi-0.dtd"
   xmlns:inkscape="http://www.inkscape.org/namespaces/inkscape"
   width="490"
   height="690"
   version="1.1"
   id="svg2"
   inkscape:version="0.48.4 r9939"
   sodipodi:docname="大阪府区画図.svg">
  <metadata
     id="metadata265">
    <rdf:RDF>
      <cc:Work
         rdf:about="">
        <dc:format>image/svg+xml</dc:format>
        <dc:type
           rdf:resource="http://purl.org/dc/dcmitype/StillImage" />
      </cc:Work>
    </rdf:RDF>
  </metadata>
  <defs
     id="defs263" />
  <sodipodi:namedview
     pagecolor="#ffffff"
     bordercolor="#666666"
     borderopacity="1"
     objecttolerance="10"
     gridtolerance="10"
     guidetolerance="10"
     inkscape:pageopacity="0"
     inkscape:pageshadow="2"
     inkscape:window-width="1920"
     inkscape:window-height="1033"
     id="namedview261"
     showgrid="false"
     inkscape:zoom="1"
     inkscape:cx="250"
     inkscape:cy="386"
     inkscape:window-x="-4"
     inkscape:window-y="-4"
     inkscape:window-maximized="1"
     inkscape:current-layer="svg2" />
  <title
     id="title4">大阪府区画図</title>
  <g
     id="g6"
     transform="translate(-6,-8)">
    <defs
       id="defs8">
      <path
         d="m 243,-4 -1,2 v 3 l -14,7 -1,5 -6,6 2,8 6,5 1,7 -3,9 3,8 h 11 l 3,3 5,-4 8,8 10,-5 15,5 25,11 -7,6 5,12 -6,3 4,6 -5,5 3,3 4,4 6,1 3,-4 7,1 2,9 6,4 9,3 -2,4 4,5 5,-3 3,2 14,-1 5,-4 v -12 l -6,-2 -3,2 -4,2 3,-5 -2,-2 -4,8 v -5 l 3,-4 1,-9 10,-1 v -4 l -5,-3 1,-6 7,-5 7,9 1,-3 13,-1 3,8 -3,16 -7,5 -2,7 h 10 l 6,-6 3,1 11,3 7,10 -4,1 v 6 l 11,4 v 2 l 2,-1 6,4 v 3 l 5,6 -2,6 2,7 6,3 v 7 h 2 l -2,4 2,7 7,-3 5,7 5,9 3,5 v 1 l 5,2 11,17 -5,12 -7,8 5,22 v 2 l 8,3 6,8 -1,8 16,3 h 1 V -4 z"
         id="26000"
         inkscape:connector-curvature="0" />
      <path
         d="m -4,-4 v 380 l 3,3 7,-2 1,2 v -2 l 24,-7 16,-6 h 16 l 7,-3 -2,-1 2,-2 1,3 11,-2 14,-3 -2,-6 -1,3 -4,-1 2,-4 -2,-2 4,2 3,-4 -6,1 -1,-4 h 4 l 4,-1 -2,-2 1,-3 h -4 l 3,-1 -1,-3 3,2 1,-5 h 3 l -1,5 3,-3 1,2 1,-3 1,5 2,-7 2,2 7,-5 -1,-3 -8,1 10,-5 5,-3 v 3 l -7,3 5,3 10,-1 -7,-6 h 17 l -1,-7 13,2 15,-8 v -4 l 8,1 2,4 12,-3 1,-7 7,4 2,-5 4,6 3,-2 -3,3 14,12 -7,7 8,9 4,4 4,-3 v -7 l 4,-1 -1,3 4,-10 v 9 l 4,-5 -1,-3 6,2 -10,12 6,-1 -2,3 -5,-1 -7,4 12,-1 11,-15 26,-17 1,-13 h 9 l -3,-22 -3,1 -1,-7 -4,-1 -2,-20 -9,-9 h -3 l -5,-13 5,-16 -5,-13 8,-1 6,-19 v -1 l 6,-15 -1,-3 -3,3 -6,3 -3,-12 -6,-2 7,-5 8,-5 16,2 3,-9 -4,2 -12,-9 h -5 l -13,3 v -7 l -5,2 -1,-5 1,3 -10,-2 -3,3 -7,-13 -15,2 -10,-10 4,-12 6,-2 -5,-6 2,-22 v -7 l -10,-1 h -1 l -3,-7 -3,-1 5,-7 8,-2 v -4 l 15,5 -2,-8 6,-6 1,-5 14,-7 v -3 l 1,-2 z m 118,370 -3,5 1,4 21,-3 -3,-7 z m -8,-28 v 12 l 11,8 19,-1 -4,-9 -8,3 -1,-3 6,-3 -1,-5 -9,3 -1,-2 9,-3 -3,-2 -7,3 -1,-2 6,-3 -3,-4 -7,2 z m 35,-16 2,12 24,-3 -1,-5 -7,-1 v -3 l 7,2 v -5 l -11,-2 z m 1,-12 1,5 9,-1 -1,-3 z m 12,1 v 3 l 11,-1 v -7 z m 49,-7 3,10 4,-5 -3,-5 z m -35,3 1,5 8,-1 -1,-9 -6,-1 z m 10,-2 4,6 h 7 l -4,-2 3,-3 1,3 v -7 z m 13,-3 v 5 h 9 l 2,-4 -7,-5 z"
         id="28000"
         inkscape:connector-curvature="0" />
      <path
         d="M 504,704 V 296 h -1 l -16,-3 1,-8 -6,-8 -8,-3 v -2 l -5,-22 -6,3 -6,-5 -3,7 2,1 -1,16 -2,3 -5,-1 -1,5 5,17 -21,18 v 2 l 4,18 -6,13 v 1 l -3,12 -1,3 -5,23 1,1 -6,6 1,1 2,3 15,1 1,11 3,3 -8,8 2,4 -1,1 -10,6 -3,13 -2,2 3,3 4,-2 v 2 l 2,9 3,-1 7,5 -1,16 -2,3 8,14 -2,17 v 1 l 4,11 -5,13 -5,8 -6,3 4,8 5,-1 2,5 -3,8 -8,2 -9,11 9,23 -1,6 -1,18 5,1 v 21 l 5,9 -2,7 5,7 1,2 h 6 l 2,-6 11,5 v 3 l 7,4 3,16 2,7 z"
         id="29000"
         inkscape:connector-curvature="0" />
      <path
         d="m 468,704 -2,-7 -3,-16 -7,-4 v -3 l -11,-5 -2,6 h -6 l -1,-2 -5,-7 2,-7 -5,-9 v -21 l -5,-1 1,-18 1,-6 -9,-23 -21,-1 -5,7 -11,-3 -3,4 -11,-1 -13,11 -20,10 -17,13 -2,-12 -8,-4 -3,-7 -6,8 -8,5 -9,-2 -6,2 h -7 l -6,7 -11,-2 -3,7 -8,2 -9,2 -4,-2 -8,2 -4,-4 -7,2 -6,-3 v 4 l -7,5 1,6 -4,-2 -14,5 -1,7 -7,5 -7,-16 -8,5 -11,-3 -21,12 -11,-6 -2,17 -6,2 -6,2 -3,4 -12,-1 -9,4 1,-5 -6,-3 -5,2 -2,7 -4,1 -3,-4 -10,4 -2,-10 -5,-1 -2,-9 1,-3 4,-8 -2,-2 -4,3 -3,-3 -13,5 -4,12 2,3 -2,2 4,2 -2,4 h 2 l -1,3 -4,-2 -4,10 2,3 23,3 -1,4 16,11 -3,-4 1,-1 6,8 z m -430,0 -1,-1 v 1 z M -4,657 h 1 l 10,-4 -11,-1 z"
         id="30000"
         inkscape:connector-curvature="0" />
      <path
         d="m 303,403 6,2 4,6 14,-7 3,-1 3,4 1,-6 8,-1 v 4 l 16,-1 1,8 2,-6 h 4 l 6,-13 -7,-2 -2,-5 v 3 l -8,-3 v -4 l 9,3 v -11 l -9,-10 v -2 l -2,-8 4,-2 -5,-4 v -1 -3 h 3 l 1,-9 2,-8 8,-1 3,-6 5,-3 4,-3 -3,-4 4,1 2,-6 -9,3 -2,-10 -1,5 -5,-1 2,4 -2,3 h -3 l -2,-7 -3,-6 h -6 l -1,-7 5,-4 -3,-7 3,-6 -7,-3 -1,-9 -11,7 -3,9 -8,-1 -7,4 -8,-5 -5,1 -4,10 -8,6 -7,-2 -8,-1 -2,5 v 9 l -26,17 9,12 1,3 -9,3 -1,4 7,1 v 6 l 6,-4 -7,5 -2,9 3,-7 1,5 3,-3 2,1 1,3 -2,1 13,6 7,10 -1,2 -3,-1 v 4 l -1,9 -4,-9 -7,4 1,7 h -4 l -2,-5 v 7 l 16,2 z m -61,-21 2,8 12,1 -1,-8 z m -2,-6 11,-7 2,2 -5,4 2,3 h 7 l 1,3 7,-1 6,-4 -1,-11 -16,-3 -12,6 z m -16,-20 4,8 h 9 v -4 l 9,-5 -18,-6 z m 9,-9 16,3 1,-5 -6,-7 -10,5 z"
         id="27100"
         inkscape:connector-curvature="0" />
      <path
         d="m 288,484 v 14 l 4,1 5,14 11,7 3,14 1,5 13,2 2,-7 16,-19 -2,-3 -5,-17 3,-10 -4,-8 -1,-5 7,3 2,-6 7,-1 v -8 l 4,1 4,11 10,3 4,-18 -4,-2 -6,-12 h -4 v -10 h -4 v 5 h -3 l -6,-5 v -5 h -8 l -4,-9 h -6 l -1,-10 1,-5 -14,7 -4,-6 -6,-2 -28,-10 -7,3 7,2 -2,4 -14,-6 1,9 9,4 14,-1 1,-4 2,6 -7,-2 -2,3 11,2 -1,2 -10,-2 1,6 4,1 v 3 l -4,-2 -1,6 2,1 -5,-1 -2,-8 -3,1 3,-1 -1,-5 h -5 v -3 l -5,-3 2,16 -6,1 -4,-20 -9,-5 5,30 -4,3 4,-3 1,3 -3,10 -2,-4 1,5 6,3 10,-2 12,8 1,5 h 3 l -4,4 7,1 3,4 -4,4 5,5 v 10 l 2,-6 z"
         id="27140"
         inkscape:connector-curvature="0" />
      <path
         d="m 279,609 3,-2 v -12 l 5,-8 -1,-5 -9,-7 4,-12 -3,-8 -8,-30 2,-9 -9,-8 -4,4 -6,-6 -31,-23 v 9 l 5,3 -4,4 4,2 -1,5 -7,-6 -1,2 2,6 3,-1 -1,3 -5,2 v -5 l -6,8 4,2 15,12 -1,4 -1,8 7,12 5,-2 3,7 6,-2 1,4 -4,4 3,9 5,12 7,4 3,15 2,7 h 7 z"
         id="27202"
         inkscape:connector-curvature="0" />
      <path
         d="m 303,274 -1,-1 2,-13 7,-8 -5,-4 -1,-7 10,-9 -1,-6 3,-3 -7,-12 -5,7 -10,-4 -16,12 -3,-1 3,2 -4,2 -2,6 -2,4 2,20 4,1 1,7 3,-1 3,22 7,2 8,-6 z"
         id="27203"
         inkscape:connector-curvature="0" />
      <path
         d="m 276,225 v -1 -1 l 4,-27 4,-1 -1,-14 -10,-11 h -4 l -1,-2 -6,19 -8,1 5,13 -5,16 5,13 h 3 l 9,9 2,-4 2,-6 4,-2 z"
         id="27204"
         inkscape:connector-curvature="0" />
      <path
         d="m 302,273 1,1 5,-1 8,5 7,-4 8,1 3,-9 11,-7 -8,-15 10,-6 2,-12 -17,-8 -4,-8 h -2 l -11,-4 -5,5 7,12 -3,3 1,6 -10,9 1,7 5,4 -7,8 z"
         id="27205"
         inkscape:connector-curvature="0" />
      <path
         d="m 266,472 -1,-2 -4,3 -23,-16 -6,11 -2,-6 -2,9 -5,-6 5,-8 -8,12 8,5 -2,2 10,8 9,4 2,6 6,5 3,-5 7,-3 -4,-8 8,-7 z"
         id="27206"
         inkscape:connector-curvature="0" />
      <path
         d="m 379,233 3,15 8,-9 4,-12 14,-8 7,-27 7,-4 8,-15 -8,-4 -4,2 -7,-8 1,-4 -8,-4 1,-15 -4,3 -1,-8 3,-7 -4,-2 v -6 l -3,-1 -6,6 h -10 l 2,-7 7,-5 3,-16 -3,-8 -13,1 -1,3 -7,-9 -7,5 -1,6 5,3 v 4 l -10,1 -1,9 -3,4 v 5 l 4,-8 2,2 -3,5 4,-2 3,-2 6,2 v 12 l -5,4 1,10 -6,4 3,2 -2,11 4,3 -8,8 5,5 -2,8 4,6 7,2 2,4 -2,5 3,10 8,3 6,3 -6,3 z"
         id="27207"
         inkscape:connector-curvature="0" />
      <path
         d="m 192,527 4,3 9,-8 1,-4 -4,-6 z m 43,78 2,6 h 10 l 2,5 11,2 6,-7 -2,-7 -3,-15 -7,-4 -5,-12 -3,-9 4,-4 -1,-4 -6,2 -3,-7 -5,2 -7,-12 1,-8 1,-4 -15,-12 -4,8 -1,-6 -4,8 -2,-2 -5,4 -5,10 11,7 8,6 7,1 -3,1 4,1 -1,3 7,7 1,10 6,4 v 14 l -4,2 4,7 z"
         id="27208"
         inkscape:connector-curvature="0" />
      <path
         d="m 364,281 3,-5 12,2 h 5 l 1,-4 -2,-5 -5,-1 v -5 l -7,-4 -7,8 -11,4 -3,6 3,7 -5,4 1,7 h 6 l 3,6 2,7 h 3 l 2,-3 -2,-4 5,1 1,-5 -6,-12 -3,-1 z"
         id="27209"
         inkscape:connector-curvature="0" />
      <path
         d="m 430,244 -6,-8 9,-7 22,5 6,7 -4,7 6,5 6,-3 7,-8 5,-12 -11,-17 -5,-2 v -1 l -3,-5 -5,-9 -5,-7 -7,3 -2,-7 2,-4 h -2 v -7 l -6,-3 -2,-7 -5,9 -8,15 -7,4 -7,27 -14,8 -4,12 11,1 1,4 h 8 l 4,2 2,8 5,-1 9,-3 z"
         id="27210"
         inkscape:connector-curvature="0" />
      <path
         d="m 379,233 v -12 l 6,-3 -6,-3 -8,-3 -3,-10 2,-5 -2,-4 -7,-2 -4,-6 2,-8 -5,-5 8,-8 -4,-3 2,-11 -3,-2 6,-4 -1,-10 -14,1 -3,-2 -5,3 -4,-5 2,-4 -9,-3 -1,7 -5,8 1,5 -5,6 -7,2 -3,12 2,3 3,7 4,-5 2,3 1,10 8,10 v 6 l -5,2 4,5 v 5 l 4,8 17,8 -2,12 h 8 v 8 l 3,-2 v 4 l -1,4 h 3 z"
         id="27211"
         inkscape:connector-curvature="0" />
      <path
         d="m 370,409 9,2 5,3 2,-5 2,-3 8,-3 -1,-2 18,-1 3,-6 -1,-1 6,-6 -1,-1 5,-23 -20,-1 -3,4 v -4 h -4 v -5 l -5,2 -16,-2 1,8 -8,2 3,5 -10,1 v 11 l -9,-3 v 4 l 8,3 v -3 l 2,5 7,2 -6,13 z"
         id="27212"
         inkscape:connector-curvature="0" />
      <path
         d="m 140,542 9,-6 -3,-5 -6,-1 -7,6 z m 109,74 -2,-5 h -10 l -2,-6 -6,-1 1,-6 -8,-1 -10,-7 -1,-5 -8,-7 -5,-11 2,-5 6,-3 5,3 2,-10 -8,-6 -11,-7 -3,-3 -3,4 5,2 -4,5 -3,-6 -3,4 3,5 -2,-1 -4,4 -2,-2 3,-3 -6,6 -5,1 -4,9 5,4 3,8 -3,3 -5,2 v 4 l 11,-3 3,2 11,14 -2,7 5,13 6,-1 v 5 l 6,3 7,-2 4,4 8,-2 4,2 9,-2 8,-2 z"
         id="27213"
         inkscape:connector-curvature="0" />
      <path
         d="m 390,496 v -5 l 3,1 1,-3 5,6 1,-10 -7,-8 2,-6 v -7 l 4,1 v -3 l -27,-5 -4,18 -10,-3 -5,2 v 12 l 3,3 -4,6 1,6 2,2 h 8 l 6,7 -4,11 4,2 1,3 13,8 9,-10 v -19 z"
         id="27214"
         inkscape:connector-curvature="0" />
      <path
         d="m 388,276 6,4 1,11 8,1 -1,-3 -5,-2 4,-13 h 14 l 5,3 1,-3 -1,-6 3,-8 -2,-7 -5,1 -2,-8 -4,-2 h -8 l -1,-4 -11,-1 -8,9 -11,11 7,4 v 5 l 5,1 2,5 z"
         id="27215"
         inkscape:connector-curvature="0" />
      <path
         d="m 325,541 5,4 v 11 l -5,21 -5,6 h -6 l -2,5 -7,2 -3,8 3,7 8,4 2,12 17,-13 20,-10 13,-11 11,1 3,-4 11,3 5,-7 21,1 9,-11 -6,1 -11,-19 -8,-2 -9,-9 h -4 l -4,-7 -13,-8 -1,-3 -4,-2 4,-11 -6,-7 h -8 l -2,-2 -12,11 2,3 -16,19 z"
         id="27216"
         inkscape:connector-curvature="0" />
      <path
         d="m 368,415 2,-6 -5,-4 h -4 l -2,6 -1,-8 -16,1 v -4 l -8,1 -1,6 -3,-4 -3,1 -1,5 1,10 h 6 l 4,9 h 8 v 5 l 6,5 h 3 v -5 h 4 l 1,-9 -1,-5 h 6 z"
         id="27217"
         inkscape:connector-curvature="0" />
      <path
         d="m 431,314 v -11 l -11,-6 -1,-5 h -2 l -15,-3 1,3 -8,-1 2,7 -3,2 -8,-3 -1,4 -5,3 -2,6 -4,-1 3,4 6,3 10,3 v -4 h 6 v -3 l 5,5 12,-3 15,2 z"
         id="27218"
         inkscape:connector-curvature="0" />
      <path
         d="m 325,541 -13,-2 -1,-5 -3,-14 -11,-7 -5,-14 -4,-1 v -14 l -1,-4 -2,6 v -10 l -5,-5 -4,3 -10,-2 1,4 -8,7 4,8 -7,3 -3,5 2,3 -2,4 6,6 4,-4 9,8 -2,9 8,30 3,8 -4,12 9,7 1,5 -5,8 v 12 l -3,2 9,2 8,-5 6,-8 3,-8 7,-2 2,-5 h 6 l 5,-6 5,-21 v -11 z"
         id="27219"
         inkscape:connector-curvature="0" />
      <path
         d="m 276,224 v 1 l 3,1 16,-12 10,4 5,-7 5,-5 11,4 h 2 v -5 l -4,-5 5,-2 v -6 l -8,-10 -1,-10 -2,-3 -4,5 -3,-7 -4,-1 -5,4 h -3 l -3,-13 6,-7 -7,-4 -2,-6 h -5 l -6,11 -8,1 -6,15 v 1 l 1,2 h 4 l 10,11 1,14 -4,1 -4,27 z"
         id="27220"
         inkscape:connector-curvature="0" />
      <path
         d="m 395,430 1,10 h 5 l 5,-5 v 6 l 11,3 3,-13 10,-6 1,-1 -2,-4 8,-8 -3,-3 -1,-11 -15,-1 -2,-3 -3,6 -18,1 1,2 -8,3 -2,3 6,4 8,5 z"
         id="27221"
         inkscape:connector-curvature="0" />
      <path
         d="m 372,457 27,5 11,-4 12,-9 v -2 l -4,2 -3,-3 2,-2 -11,-3 v -6 l -5,5 h -5 l -1,-10 -12,-2 2,4 -3,7 -4,-4 -3,-4 3,-1 h -3 l -5,-15 h -2 l -4,4 h -6 l 1,5 -1,9 v 10 h 4 l 6,12 z"
         id="27222"
         inkscape:connector-curvature="0" />
      <path
         d="m 395,291 -1,-11 -6,-4 -3,-2 -1,4 h -5 l -12,-2 -3,5 -4,3 3,1 6,12 2,10 9,-3 5,-3 1,-4 8,3 3,-2 z"
         id="27223"
         inkscape:connector-curvature="0" />
      <path
         d="m 382,248 -3,-15 -19,19 h -3 l 1,-4 v -4 l -3,2 v -8 h -8 l -10,6 8,15 1,9 7,3 11,-4 7,-8 z"
         id="27224"
         inkscape:connector-curvature="0" />
      <path
         d="m 266,472 10,2 4,-3 4,-4 -3,-4 -7,-1 4,-4 h -3 l -1,-5 -12,-8 -10,2 -6,-3 -8,13 23,16 4,-3 z"
         id="27225"
         inkscape:connector-curvature="0" />
      <path
         d="m 395,430 5,-12 -8,-5 -6,-4 -2,5 -5,-3 -9,-2 -2,6 h 2 l 5,15 h 3 l -3,1 3,4 4,4 3,-7 -2,-4 z"
         id="27226"
         inkscape:connector-curvature="0" />
      <path
         d="m 354,363 9,10 10,-1 -3,-5 8,-2 -1,-8 16,2 5,-2 v 5 h 4 v 4 l 3,-4 20,1 1,-3 3,-12 v -1 l 6,-13 -4,-18 -15,-2 -12,3 -5,-5 v 3 h -6 v 4 l -10,-3 -6,-3 -4,3 -5,3 -3,6 -8,1 -2,8 -1,9 h -3 v 3 1 l 5,4 -4,2 2,8 z"
         id="27227"
         inkscape:connector-curvature="0" />
      <path
         d="m 132,548 -7,-6 -8,7 6,7 z m 68,74 v -5 l -6,1 -5,-13 2,-7 -11,-14 -3,-2 -11,3 v -4 h -3 l -4,-10 -1,5 -3,-2 -7,10 h -4 l 1,-3 -6,5 2,3 -3,5 2,5 6,4 15,33 7,16 7,-5 1,-7 14,-5 4,2 -1,-6 7,-5 z"
         id="27228"
         inkscape:connector-curvature="0" />
      <path
         d="m 417,292 h 2 l 1,5 11,6 v 11 l 21,-18 -5,-17 -9,2 -1,-3 -11,-1 -5,-3 -1,3 -5,-3 h -14 l -4,13 5,2 z"
         id="27229"
         inkscape:connector-curvature="0" />
      <path
         d="m 426,277 11,1 1,3 9,-2 1,-5 5,1 2,-3 1,-16 -2,-1 3,-7 4,-7 -6,-7 -22,-5 -9,7 6,8 v 6 l -9,3 2,7 -3,8 1,6 z"
         id="27230"
         inkscape:connector-curvature="0" />
      <path
         d="m 353,501 -1,-6 4,-6 -3,-3 v -12 l 5,-2 -4,-11 -4,-1 v 8 l -7,1 -2,6 -7,-3 1,5 4,8 -3,10 5,17 z"
         id="27231"
         inkscape:connector-curvature="0" />
      <path
         d="m 161,636 -15,-33 -6,-4 -2,-5 3,-5 -2,-3 -19,25 -21,8 -3,5 1,3 3,5 -4,3 2,5 7,1 5,3 11,6 21,-12 11,3 z"
         id="27232"
         inkscape:connector-curvature="0" />
      <path
         d="m 435,164 2,-6 -5,-6 v -3 l -6,-4 -2,1 v -2 l -11,-4 v -6 l 4,-1 -7,-10 -11,-3 v 6 l 4,2 -3,7 1,8 4,-3 -1,15 8,4 -1,4 7,8 4,-2 8,4 z"
         id="27301"
         inkscape:connector-curvature="0" />
      <path
         d="m 329,124 -6,-4 -2,-9 -7,-1 -3,4 -6,-1 -4,-4 -4,2 -3,12 -5,1 -3,9 -16,-2 -8,5 -7,5 6,2 3,12 6,-3 3,-3 1,3 8,-1 6,-11 h 5 l 2,6 7,4 -6,7 3,13 h 3 l 5,-4 4,1 -2,-3 3,-12 7,-2 5,-6 -1,-5 5,-8 z"
         id="27321"
         inkscape:connector-curvature="0" />
      <path
         d="m 273,117 12,9 4,-2 5,-1 3,-12 4,-2 -3,-3 5,-5 -4,-6 6,-3 -5,-12 7,-6 -25,-11 -15,-5 -10,5 -8,-8 -5,4 -3,-3 h -11 l -3,-8 3,-9 -1,-7 -6,-5 -15,-5 v 4 l -8,2 -5,7 3,1 3,7 h 1 l 10,1 v 7 l -2,22 5,6 -6,2 -4,12 10,10 15,-2 7,13 3,-3 10,2 -1,-3 1,5 5,-2 v 7 l 13,-3 z"
         id="27322"
         inkscape:connector-curvature="0" />
      <path
         d="m 253,506 2,-4 -2,-3 -6,-5 -2,-6 -9,-4 -10,-8 -4,5 v 2 z"
         id="27341"
         inkscape:connector-curvature="0" />
      <path
         d="m 235,605 -1,-3 -4,-7 4,-2 v -14 l -6,-4 -1,-10 -7,-7 1,-3 -4,-1 3,-1 -7,-1 -2,10 -5,-3 -6,3 -2,5 5,11 8,7 1,5 10,7 8,1 -1,6 z"
         id="27361"
         inkscape:connector-curvature="0" />
      <path
         d="m 140,542 -7,-6 -8,6 7,6 z m 26,39 5,-2 3,-3 -3,-8 -5,-4 -1,6 -3,-2 -3,3 4,10 z"
         id="27362"
         inkscape:connector-curvature="0" />
      <path
         d="m 34,654 2,9 5,1 2,10 10,-4 3,4 4,-1 2,-7 5,-2 6,3 -1,5 9,-4 12,1 3,-4 6,-2 6,-2 2,-17 -5,-3 -7,-1 -2,-5 4,-3 -3,-5 -1,-3 3,-5 -10,1 1,-3 3,1 -2,-1 -12,7 -7,1 -9,11 -7,-2 v -5 h -4 l -4,4 -12,1 -6,7 3,3 4,-3 2,2 -4,8 z"
         id="27366"
         inkscape:connector-curvature="0" />
      <path
         d="m 422,449 -12,9 -11,4 v 3 l -4,-1 v 7 h 7 l 12,14 9,-2 10,-5 1,-16 -7,-5 -3,1 z"
         id="27381"
         inkscape:connector-curvature="0" />
      <path
         d="m 433,478 -10,5 -9,2 -12,-14 h -7 l -2,6 7,8 -1,10 -5,-6 -1,3 -3,-1 v 5 l 2,9 7,-2 1,8 4,-1 9,11 5,-1 8,8 h 2 l -6,-9 -4,-2 4,-2 -1,-4 6,1 v -3 h 6 l 4,3 2,-17 -8,-14 z"
         id="27382"
         inkscape:connector-curvature="0" />
      <path
         d="m 383,534 4,7 h 4 l 9,9 8,2 11,19 6,-1 8,-2 3,-8 -2,-5 -5,1 -4,-8 6,-3 5,-8 5,-13 -4,-11 v -1 l -4,-3 h -6 v 3 l -6,-1 1,4 -4,2 4,2 6,9 h -2 l -8,-8 -5,1 -9,-11 -4,1 -1,-8 -7,2 v 19 z"
         id="27383"
         inkscape:connector-curvature="0" />
    </defs>
    <rect
       x="-10"
       y="-10"
       width="520"
       height="720"
       id="rect57"
       style="fill:#ffffff" />
    <rect
       x="0"
       y="0"
       width="500"
       height="700"
       id="rect59"
       style="fill:#eeeeee" />
    <g
       id="g61"
       style="stroke:#000000;stroke-width:0.2;stroke-linejoin:round">
      <a id="a63">
        <use
           xlink:href="#26000"
           id="use65"
           style="fill:#aaaaaa"
           x="0"
           y="0"
           width="500"
           height="772" />
      </a>
      <a id="a67">
        <use
           xlink:href="#28000"
           id="use69"
           style="fill:#aaaaaa"
           x="0"
           y="0"
           width="500"
           height="772" />
      </a>
      <a id="a71">
        <use
           xlink:href="#29000"
           id="use73"
           style="fill:#aaaaaa"
           x="0"
           y="0"
           width="500"
           height="772" />
      </a>
      <a id="a75">
        <use
           xlink:href="#30000"
           id="use77"
           style="fill:#aaaaaa"
           x="0"
           y="0"
           width="500"
           height="772" />
      </a>
      <a id="a79">
        <use
           xlink:href="#27100"
           id="use81"
           style="fill:#f6bad3"
           x="0"
           y="0"
           width="500"
           height="772" />
      </a>
      <a id="a83">
        <use
           xlink:href="#27140"
           id="use85"
           style="fill:#f6bad3"
           x="0"
           y="0"
           width="500"
           height="772" />
      </a>
      <a id="a87">
        <use
           xlink:href="#27202"
           id="use89"
           style="fill:#f6bad3"
           x="0"
           y="0"
           width="500"
           height="772" />
      </a>
      <a id="a91">
        <use
           xlink:href="#27203"
           id="use93"
           style="fill:#f6bad3"
           x="0"
           y="0"
           width="500"
           height="772" />
      </a>
      <a id="a95">
        <use
           xlink:href="#27204"
           id="use97"
           style="fill:#f6bad3"
           x="0"
           y="0"
           width="500"
           height="772" />
      </a>
      <a id="a99">
        <use
           xlink:href="#27205"
           id="use101"
           style="fill:#f6bad3"
           x="0"
           y="0"
           width="500"
           height="772" />
      </a>
      <a id="a103">
        <use
           xlink:href="#27206"
           id="use105"
           style="fill:#f6bad3"
           x="0"
           y="0"
           width="500"
           height="772" />
      </a>
      <a id="a107">
        <use
           xlink:href="#27207"
           id="use109"
           style="fill:#f6bad3"
           x="0"
           y="0"
           width="500"
           height="772" />
      </a>
      <a id="a111">
        <use
           xlink:href="#27208"
           id="use113"
           style="fill:#f6bad3"
           x="0"
           y="0"
           width="500"
           height="772" />
      </a>
      <a id="a115">
        <use
           xlink:href="#27209"
           id="use117"
           style="fill:#f6bad3"
           x="0"
           y="0"
           width="500"
           height="772" />
      </a>
      <a id="a119">
        <use
           xlink:href="#27210"
           id="use121"
           style="fill:#f6bad3"
           x="0"
           y="0"
           width="500"
           height="772" />
      </a>
      <a id="a123">
        <use
           xlink:href="#27211"
           id="use125"
           style="fill:#f6bad3"
           x="0"
           y="0"
           width="500"
           height="772" />
      </a>
      <a id="a127">
        <use
           xlink:href="#27212"
           id="use129"
           style="fill:#f6bad3"
           x="0"
           y="0"
           width="500"
           height="772" />
      </a>
      <a id="a131">
        <use
           xlink:href="#27213"
           id="use133"
           style="fill:#f6bad3"
           x="0"
           y="0"
           width="500"
           height="772" />
      </a>
      <a id="a135">
        <use
           xlink:href="#27214"
           id="use137"
           style="fill:#f6bad3"
           x="0"
           y="0"
           width="500"
           height="772" />
      </a>
      <a id="a139">
        <use
           xlink:href="#27215"
           id="use141"
           style="fill:#f6bad3"
           x="0"
           y="0"
           width="500"
           height="772" />
      </a>
      <a id="a143">
        <use
           xlink:href="#27216"
           id="use145"
           style="fill:#f6bad3"
           x="0"
           y="0"
           width="500"
           height="772" />
      </a>
      <a id="a147">
        <use
           xlink:href="#27217"
           id="use149"
           style="fill:#f6bad3"
           x="0"
           y="0"
           width="500"
           height="772" />
      </a>
      <a id="a151">
        <use
           xlink:href="#27218"
           id="use153"
           style="fill:#f6bad3"
           x="0"
           y="0"
           width="500"
           height="772" />
      </a>
      <a id="a155">
        <use
           xlink:href="#27219"
           id="use157"
           style="fill:#f6bad3"
           x="0"
           y="0"
           width="500"
           height="772" />
      </a>
      <a id="a159">
        <use
           xlink:href="#27220"
           id="use161"
           style="fill:#f6bad3"
           x="0"
           y="0"
           width="500"
           height="772" />
      </a>
      <a id="a163">
        <use
           xlink:href="#27221"
           id="use165"
           style="fill:#f6bad3"
           x="0"
           y="0"
           width="500"
           height="772" />
      </a>
      <a id="a167">
        <use
           xlink:href="#27222"
           id="use169"
           style="fill:#f6bad3"
           x="0"
           y="0"
           width="500"
           height="772" />
      </a>
      <a id="a171">
        <use
           xlink:href="#27223"
           id="use173"
           style="fill:#f6bad3"
           x="0"
           y="0"
           width="500"
           height="772" />
      </a>
      <a id="a175">
        <use
           xlink:href="#27224"
           id="use177"
           style="fill:#f6bad3"
           x="0"
           y="0"
           width="500"
           height="772" />
      </a>
      <a id="a179">
        <use
           xlink:href="#27225"
           id="use181"
           style="fill:#f6bad3"
           x="0"
           y="0"
           width="500"
           height="772" />
      </a>
      <a id="a183">
        <use
           xlink:href="#27226"
           id="use185"
           style="fill:#f6bad3"
           x="0"
           y="0"
           width="500"
           height="772" />
      </a>
      <a id="a187">
        <use
           xlink:href="#27227"
           id="use189"
           style="fill:#f6bad3"
           x="0"
           y="0"
           width="500"
           height="772" />
      </a>
      <a id="a191">
        <use
           xlink:href="#27228"
           id="use193"
           style="fill:#f6bad3"
           x="0"
           y="0"
           width="500"
           height="772" />
      </a>
      <a id="a195">
        <use
           xlink:href="#27229"
           id="use197"
           style="fill:#f6bad3"
           x="0"
           y="0"
           width="500"
           height="772" />
      </a>
      <a id="a199">
        <use
           xlink:href="#27230"
           id="use201"
           style="fill:#f6bad3"
           x="0"
           y="0"
           width="500"
           height="772" />
      </a>
      <a id="a203">
        <use
           xlink:href="#27231"
           id="use205"
           style="fill:#f6bad3"
           x="0"
           y="0"
           width="500"
           height="772" />
      </a>
      <a id="a207">
        <use
           xlink:href="#27232"
           id="use209"
           style="fill:#f6bad3"
           x="0"
           y="0"
           width="500"
           height="772" />
      </a>
      <a id="a211">
        <use
           xlink:href="#27301"
           id="use213"
           style="fill:#f6bad3"
           x="0"
           y="0"
           width="500"
           height="772" />
      </a>
      <a id="a215">
        <use
           xlink:href="#27321"
           id="use217"
           style="fill:#f6bad3"
           x="0"
           y="0"
           width="500"
           height="772" />
      </a>
      <a id="a219">
        <use
           xlink:href="#27322"
           id="use221"
           style="fill:#f6bad3"
           x="0"
           y="0"
           width="500"
           height="772" />
      </a>
      <a id="a223">
        <use
           xlink:href="#27341"
           id="use225"
           style="fill:#f6bad3"
           x="0"
           y="0"
           width="500"
           height="772" />
      </a>
      <a id="a227">
        <use
           xlink:href="#27361"
           id="use229"
           style="fill:#f6bad3"
           x="0"
           y="0"
           width="500"
           height="772" />
      </a>
      <a id="a231">
        <use
           xlink:href="#27362"
           id="use233"
           style="fill:#f6bad3"
           x="0"
           y="0"
           width="500"
           height="772" />
      </a>
      <a id="a235">
        <use
           xlink:href="#27366"
           id="use237"
           style="fill:#f6bad3"
           x="0"
           y="0"
           width="500"
           height="772" />
      </a>
      <a id="a239">
        <use
           xlink:href="#27381"
           id="use241"
           style="fill:#f6bad3"
           x="0"
           y="0"
           width="500"
           height="772" />
      </a>
      <a id="a243">
        <use
           xlink:href="#27382"
           id="use245"
           style="fill:#f6bad3"
           x="0"
           y="0"
           width="500"
           height="772" />
      </a>
      <a id="a247">
        <use
           xlink:href="#27383"
           id="use249"
           style="fill:#f6bad3"
           x="0"
           y="0"
           width="500"
           height="772" />
      </a>
    </g>
    <path
       d="m 244,38 1,2 -3,-1 z m 8,95 3,7 3,-16 2,-2 v 4 l 3,-2 -5,7 1,9 -3,1 3,2 -9,1 2,-3 -2,-2 3,-2 -5,-10 z m -235,121 12,3 10,-1 -10,3 -6,-3 -8,3 z M 158,142 h 9 l -9,13 2,3 -7,2 v 8 -11 l 5,-1 6,-11 z m -10,72 -4,-1 v 4 l -2,-6 z m -38,-110 3,5 -1,9 4,1 2,-3 2,3 4,-4 3,4 -17,1 -3,-20 z m -93,17 -2,5 -2,-3 2,-4 z"
       id="path251"
       inkscape:connector-curvature="0"
       style="fill:#eeeeee;stroke:#000000;stroke-width:0.2;stroke-linejoin:round" />
  </g>
  <g
     id="g3259"
     transform="translate(-6,-8)">
    <rect
       y="627"
       x="319"
       height="59"
       width="165"
       id="rect3257"
       style="fill:#ffffff;fill-opacity:1;stroke:#000000;stroke-width:0;stroke-linejoin:miter;stroke-miterlimit:4;stroke-opacity:1;stroke-dasharray:none;stroke-dashoffset:0.35" />
    <g
       transform="translate(98,-83)"
       id="g3253">
      <rect
         style="fill:#000000"
         id="rect257"
         height="12.8"
         width="150.39999"
         y="749.59998"
         x="228.8" />
      <text
         style="font-size:32px;text-anchor:middle;fill:#000000;font-family:Helvetica"
         id="text259"
         font-size="40"
         y="740"
         x="304">20km</text>
    </g>
  </g>
</svg>
