<?xml version="1.0" encoding="UTF-8" standalone="no"?>
<svg
   xmlns:dc="http://purl.org/dc/elements/1.1/"
   xmlns:cc="http://creativecommons.org/ns#"
   xmlns:rdf="http://www.w3.org/1999/02/22-rdf-syntax-ns#"
   xmlns:svg="http://www.w3.org/2000/svg"
   xmlns="http://www.w3.org/2000/svg"
   xmlns:sodipodi="http://sodipodi.sourceforge.net/DTD/sodipodi-0.dtd"
   xmlns:inkscape="http://www.inkscape.org/namespaces/inkscape"
   inkscape:version="1.0 (4035a4fb49, 2020-05-01)"
   sodipodi:docname="Kyoto.svg"
   id="svg34"
   version="1.1"
   height="533"
   width="490">
  <metadata
     id="metadata40">
    <rdf:RDF>
      <cc:Work
         rdf:about="">
        <dc:format>image/svg+xml</dc:format>
        <dc:type
           rdf:resource="http://purl.org/dc/dcmitype/StillImage" />
      </cc:Work>
    </rdf:RDF>
  </metadata>
  <defs
     id="defs38" />
  <sodipodi:namedview
     inkscape:current-layer="svg34"
     inkscape:window-maximized="1"
     inkscape:window-y="-8"
     inkscape:window-x="-8"
     inkscape:cy="293.14432"
     inkscape:cx="293.11194"
     inkscape:zoom="1.6097561"
     showgrid="false"
     id="namedview36"
     inkscape:window-height="1017"
     inkscape:window-width="1920"
     inkscape:pageshadow="2"
     inkscape:pageopacity="0"
     guidetolerance="10"
     gridtolerance="10"
     objecttolerance="10"
     borderopacity="1"
     bordercolor="#666666"
     pagecolor="#ffffff" />
  <title
     id="title2">衆議院小選挙区 京都府</title>
  <desc
     id="desc4">Author: Lincun</desc>
  <rect
     id="rect6"
     height="533"
     width="490"
     y="0"
     x="0"
     fill="#eeeeee" />
  <path
     fill="#aaaaaa"
     d="M 491,120 V 119 -1 h -12 l 9,16 -1,7 1,8 -5,4 4,1 1,5 -3,4 v 3 l -5,4 1,6 2,2 -2,3 h -3 2 v 6 l -2,-1 -1,2 1,1 -2,1 -1,-1 h -2 l 2,1 -2,1 h -6 l -1,-6 -6,-5 2,-5 3,-1 2,1 v -1 l -1,-3 1,-2 -2,-2 v -9 l -6,-8 v -2 l 6,5 -7,-11 h -1 l -4,5 -5,1 -4,8 h -3 l -1,-1 h -2 l -1,2 -4,4 2,3 v 5 l -1,1 3,1 1,-3 -3,1 4,-3 3,11 -2,5 -3,1 2,3 -2,6 h 4 l 4,6 -4,8 -4,2 -3,-3 v -3 h -2 v 3 l -7,8 h -8 l -2,-6 -4,1 -1,5 -3,-3 -6,4 -4,-1 -1,-2 1,-4 -4,1 -2,-2 1,-4 -7,-2 -1,-2 -4,1 v 4 l 3,-2 4,3 h -3 v 3 l 5,1 1,2 -5,3 v 2 l 2,2 3,-3 1,1 1,3 3,-1 v 5 l 2,1 -1,5 -3,1 1,3 h -3 l -2,4 -3,-1 -3,-4 -2,1 -2,-3 -1,3 h -2 v 3 h 4 v 3 l 3,2 v 1 l 2,-1 1,4 -1,2 2,-1 1,2 -3,2 -5,-2 1,4 -4,1 v -2 l -3,3 -1,-2 -3,-2 3,-3 h -2 l -9,-8 -1,3 3,2 -1,2 h -4 l -3,-6 v -5 l -2,1 -1,-3 h -2 l -9,1 v 2 l -9,7 v 2 l 11,2 -1,9 h 4 l 3,-2 1,-5 h 3 l 1,1 1,-2 5,1 v 3 l -3,-2 -2,2 v 6 l -3,6 1,1 v 2 l -1,-2 -2,4 -2,-1 -4,2 -1,3 -1,1 -3,-3 h -2 l -1,-2 -3,3 h -4 -4 v -2 l -2,1 -1,-2 -3,6 -4,1 h -5 l -4,-3 -4,2 -2,-1 -5,-3 h -4 l 4,-3 6,3 5,-2 2,2 3,-5 3,-3 -2,-3 2,-3 -3,1 -2,-2 3,1 7,-5 h 2 l 2,3 h 1 l -1,-4 -3,-2 2,-1 -1,-2 h -1 2 l -1,-2 -11,4 -5,6 v 3 h -4 l -2,3 -6,6 -4,1 -1,3 -6,1 -3,-4 v 2 h -1 l -3,2 -8,-2 -4,-6 3,-9 -1,-3 1,-1 -1,-1 2,-5 -1,-2 -5,1 -1,-2 1,5 -3,2 h 5 l 1,2 -3,1 v 4 l -4,1 -1,-4 -1,4 h -3 l 1,-6 -3,2 -2,-1 2,-5 h 2 l -1,-3 4,-4 -10,4 -4,11 v 2 l 10,8 -1,2 1,5 h -2 l -5,10 5,6 4,3 h 2 l 1,4 2,1 2,2 -2,4 3,2 3,-2 6,2 2,6 -2,3 2,4 -2,3 1,3 2,1 h 12 l 5,1 4,4 3,-3 4,1 1,2 2,-2 8,4 2,-2 7,5 h 3 l 3,3 10,3 6,-6 5,3 4,-2 v -2 l 7,2 3,-1 4,-5 v -3 l 5,-3 v -3 h 6 l 2,-13 9,1 1,-1 5,1 1,5 2,3 5,-1 7,-3 1,-8 3,-4 5,-2 -1,-6 -1,-1 2,-2 v -9 l 1,-2 2,-5 2,-3 2,-5 2,-8 h 3 l 2,7 4,2 2,-1 5,8 1,-1 2,-2 6,1 1,-2 3,-8 h 2 l 3,-5 -1,-3 5,-2 3,1 v -2 l 8,4 3,-2 2,-5 9,6 z m -114,-37 1,-2 h -2 v 4 z m 114,346 -1,1 -2,1 -2,-1 -1,1 2,2 -2,3 6,3 z m 0,24 v 1 h -5 l 3,9 -2,3 -10,6 -2,-2 -2,2 -2,-1 -3,4 -7,1 v 4 l 5,2 -2,10 h 4 v 4 l 6,5 6,11 -2,3 -4,1 v 1 l 8,3 4,10 -2,4 h 7 z m 0,-14 -6,-3 2,-3 -2,-2 1,-1 2,1 2,-1 1,-1 V 285 h -1 -3 l -1,-2 -2,1 v 2 h 2 l 1,3 -1,1 h -8 l -2,4 -2,9 3,4 -2,4 -4,2 -8,-3 -4,1 -2,3 -2,2 -8,-4 -4,8 -2,2 h -3 l -4,-3 -4,4 2,9 v 3 h -2 l -1,1 3,6 h 2 l -3,3 h -2 l 1,-1 h -4 l 3,5 -1,1 -2,-1 v 3 l -10,10 h 3 -3 l 4,2 1,5 -1,2 2,5 -5,3 1,2 -1,7 h -1 l -3,-4 -2,-7 -6,-1 -6,-4 1,-3 2,-2 v -8 l 4,-5 v -4 l 3,-1 1,-4 -1,-2 4,-3 -1,-3 1,2 3,-3 2,-3 -3,-1 3,-2 2,1 5,-7 1,-4 -3,-5 1,-4 4,-5 -5,-4 -3,-10 4,-8 3,-1 3,-5 8,-6 -2,-2 2,-4 3,-2 1,-4 7,-5 9,-6 -2,-7 8,-5 5,1 6,-7 h 4 v -1 l 2,1 1,-4 -3,-5 -3,-10 -8,-9 h -3 l -1,-7 3,-6 2,-1 -2,-13 12,-14 2,1 3,6 h 2 l 3,-1 2,-4 v -32 l -9,-6 -2,5 -3,2 -8,-4 v 2 l -3,-1 -5,2 1,3 -3,5 h -2 l -3,8 -1,2 -6,-1 -2,2 -1,1 -5,-8 -2,1 -4,-2 -2,-7 h -3 l -2,8 -2,5 -2,3 -2,5 -1,2 v 9 l -2,2 1,1 1,6 -5,2 -3,4 -1,8 -7,3 -5,1 -2,-3 -1,-5 -5,-1 -1,1 -9,-1 -2,13 h -6 v 3 l -5,3 v 3 l -4,5 -1,5 6,2 5,9 6,2 8,19 4,1 3,-2 3,-5 2,3 -7,10 1,2 -2,6 -2,2 1,7 -3,2 5,15 -1,3 2,8 4,3 v 2 l -3,6 2,3 -1,7 -6,13 2,3 -3,7 1,7 -8,5 5,7 v 4 h 3 v 4 h -4 l -1,-1 v 1 l 1,2 h 3 l 2,4 h -2 l -2,4 h 9 v 3 h 2 l -1,7 4,5 4,2 2,4 -1,2 2,4 -4,4 v 7 l -3,3 2,5 7,5 v 3 l 4,2 4,-1 2,-5 h 4 l 7,-4 -1,5 2,2 -1,6 2,6 6,-1 v 2 l 4,2 -1,4 13,-4 v 6 l 1,3 h 2 l 2,-1 5,4 -1,2 -4,2 -2,5 v 2 l 2,-1 2,3 7,-1 3,-4 2,1 2,-2 2,2 10,-6 2,-3 -3,-9 h 5 v -1 z m 0,-320 v 1 z m -72,258 1,-4 h -2 v 1 l -1,3 z m 10,-45 -1,2 4,1 v -2 z m 0,-2 v 2 l 3,1 v -2 z m 1,-2 -1,2 2,1 1,-2 z m 0,-2 v 2 l 2,1 z m 48,-46 -5,1 -2,5 9,-4 v -2 z m -150,254 2,-5 -2,-10 v -1 l 12,-10 -3,-9 v -3 l 3,1 2,-3 v -8 l -2,-1 2,-4 4,3 3,-1 4,-5 3,-6 -6,-10 h -3 v -2 l -2,-2 -4,-9 -2,-1 -3,2 -2,-4 2,-2 h -2 v -4 l -3,-1 -1,-4 1,-3 -3,-4 v -2 l -3,-2 -1,1 v -1 l -6,-2 v -4 h 2 l -4,-6 -6,-2 h -1 l -4,3 h -6 l 2,-4 3,-2 3,-8 -3,-6 h -7 l -1,2 -3,-5 -5,3 v 3 l 3,2 v 2 l -6,1 -2,9 1,1 2,-5 -1,4 4,-2 3,1 v 7 l -3,2 -7,1 -2,-2 -3,2 -2,-3 1,-2 -5,-1 -3,-3 -1,-5 -4,-1 -4,3 -4,-3 -1,-1 2,-4 -2,-3 4,-2 -1,1 -2,-7 4,-4 -21,-8 -7,2 -4,-4 -3,2 -2,-2 -6,1 -2,-5 2,-5 -1,-4 -3,-3 -1,1 -4,-3 h -3 l -1,2 -4,1 -3,4 3,1 1,3 6,1 -1,16 2,3 -3,2 -2,7 3,1 3,4 8,-1 4,7 1,-2 6,1 -1,-1 1,2 h 3 v 3 l 9,-2 4,4 3,2 3,-1 -2,5 -9,-2 -8,6 1,1 h 2 l 2,7 5,-3 v 1 l -3,9 -3,7 1,2 -6,2 3,7 -3,9 3,8 2,-1 5,5 2,7 -1,4 2,1 1,4 2,-1 1,13 -4,-1 -2,3 1,5 -15,10 4,6 1,2 -5,2 v 1 l 6,-1 1,1 -4,2 z m -102,0 v -1 l -2,-1 -5,2 z m -89,0 v -1 h 3 l 2,-1 -1,-2 h -2 2 l -1,-3 2,2 v -3 h 1 v 3 l 1,-2 1,2 v -2 l 1,2 v -2 l 2,3 v 4 h 6 v -1 l 4,-1 -1,-1 -4,1 -1,-1 4,-1 -2,-3 -4,1 -2,2 -1,-1 v -3 h 3 l -1,-1 1,1 -1,-2 2,2 -2,-2 h 3 l -1,-1 2,1 -1,-1 1,-2 2,2 v -1 l 2,1 v -2 l 2,2 v -2 l 2,1 -2,-2 h -2 l 2,-2 8,1 h 5 v -3 l 2,2 h 6 l -1,-4 h -1 l 3,-2 1,-2 v 7 h 4 v -5 l -4,-2 4,1 1,2 7,-2 v -4 l 4,2 1,-2 2,3 2,-1 -2,2 8,6 -4,4 5,5 2,-4 -1,5 1,1 2,-5 h 5 l 1,-4 3,1 -2,5 5,-4 15,-10 -1,-5 2,-3 4,1 -1,-13 -2,1 -1,-4 -2,-1 1,-4 -2,-7 -5,-5 -2,1 -3,-8 3,-9 -3,-7 6,-2 -1,-2 3,-7 3,-9 v -1 l -5,3 -2,-7 h -2 l -1,-1 8,-6 9,2 2,-5 -3,1 -3,-2 -4,-4 -9,2 v -3 h -3 l -1,-2 1,1 -6,-1 -1,2 -4,-7 -8,1 -3,-4 -3,-1 2,-7 3,-2 -2,-3 1,-16 -6,-1 -1,-3 -3,-1 3,-4 4,-1 1,-2 h 3 l 4,3 1,-1 -1,-4 3,-3 v -2 l 9,-5 v -5 l 2,-1 -5,-4 h -2 v -1 l 2,-6 -2,-4 1,-4 h -6 l -1,-1 h -4 l -2,-2 h -5 l -2,-4 1,-3 -17,4 -5,-1 -1,-3 h 1 l 4,-5 -1,-5 h -2 l -4,-2 -16,-1 -3,7 -7,1 -4,-5 h -3 l 1,-5 -1,-4 5,-2 -1,-3 -2,-1 -4,-6 -3,1 -1,-3 -3,1 -3,-3 2,-3 2,-5 -2,-7 -5,-3 h -5 l -2,2 -8,-3 -4,3 h -2 l -4,6 -6,4 -4,-10 v -2 l -2,1 -3,-1 -2,1 -10,-4 v -5 l -4,-3 -1,-2 -2,1 -13,-4 -5,-5 h -3 l -6,-3 2,-7 -1,-3 -2,-1 -1,-4 3,-3 -2,-5 3,-8 -1,-6 4,-6 4,-3 6,2 4,5 5,1 2,5 11,-4 4,-7 8,1 v -20 l -2,-2 -1,-9 -2,-1 2,-8 -4,-2 5,-5 -3,-11 v -3 -1 l -11,3 -1,-1 -4,1 -6,4 h -3 l -4,6 -2,-2 -11,2 -1,-5 -3,-2 2,-5 -2,-4 -5,-2 v -3 l -8,-3 -2,-5 -3,-1 1,-2 -3,-3 -3,-1 4,-5 1,-7 3,-3 -1,-7 -2,-1 v -5 l -1,-1 1,-3 -6,-1 -3,8 -4,-3 2,-3 -6,-1 V 71 H 2 L 1,69 -1,68 v 444 l 4,4 1,-2 3,1 2,-6 h 2 v 3 h 4 l 5,5 7,5 7,8 8,2 2,2 z m 21,0 h 1 -2 z m -141,-11 5,3 3,-3 -6,-5 h -2 l 2,1 -1,1 h -2 l -1,2 z m -2,-9 -4,-1 2,3 -3,-1 -2,5 5,2 3,-7 z m 160,6 -9,2 1,8 14,-2 -1,-3 -4,-1 v -1 l 4,1 v -3 z m 27,-7 h -1 l 2,5 2,-2 z m -14,0 h -1 v 3 l 6,1 v -5 z m 296,21 2,-4 -4,-10 -8,-3 v -1 l 4,-1 2,-3 -6,-11 -5,1 -1,7 -4,4 v 3 l -6,-1 -1,-4 -7,2 v -1 h -2 l -1,-9 -3,-3 h -3 l -1,-1 -3,1 -1,-4 -5,5 -2,-1 -3,1 -3,-3 3,-6 -3,1 -2,1 -5,10 -2,1 -3,10 -4,-3 -6,4 h -6 l -7,-3 -4,1 -4,-2 1,-1 -5,-3 -1,2 -2,-2 h -5 l -9,-2 1,-4 -8,-7 -2,-3 -1,-9 -3,1 -4,-3 -2,4 2,1 v 8 l -2,3 -3,-1 v 3 l 3,9 -12,10 v 1 l 2,10 -2,5 z"
     id="path8"
     style="stroke:#000000;stroke-width:0.2;stroke-linejoin:round" />
  <path
     fill="#16a34a"
     d="m 373,229 -2,6 -4,2 1,8 -2,2 -3,-3 -12,1 -3,2 1,3 -2,2 1,2 -9,5 -6,1 -13,-4 -6,3 -4,6 1,4 -4,2 v 3 l -4,-1 -8,4 3,4 v 4 l -8,11 -1,6 -5,5 v 8 l 3,5 3,-2 1,2 7,-1 v 2 h -2 l 2,6 h 3 l 5,5 -4,4 -3,-1 -3,8 3,4 2,3 2,-2 h 4 l 1,1 -2,5 v 6 l 2,2 1,-1 6,7 -2,3 4,5 v 3 l -3,1 v 8 l 1,3 -11,2 3,6 -3,8 -3,2 -2,4 h 6 l 4,-3 h 1 l 6,2 4,-2 2,1 6,-6 8,-1 -5,-10 2,1 5,-1 2,2 1,1 v 3 l 3,2 1,4 -2,6 1,2 -1,4 -3,4 -1,5 3,2 2,5 6,4 v -2 l -1,-3 -3,-1 v -1 l -1,-2 -1,1 v -4 l -1,-1 2,2 3,-2 5,-1 2,-4 3,4 3,-2 6,-4 h 5 l 3,-10 v 2 l 5,-1 3,4 h 4 l 1,-4 h 5 l -2,3 3,-1 1,-4 -2,-4 2,-4 h 4 l 1,3 6,2 -2,-4 -4,-2 -4,-5 1,-7 h -2 v -3 h -9 l 2,-4 h 2 l -2,-4 h -3 l -1,-2 v -1 l 1,1 h 4 v -4 h -3 v -4 l -5,-7 8,-5 -1,-7 3,-7 -2,-3 6,-13 1,-7 -2,-3 3,-6 v -2 l -4,-3 -2,-8 1,-3 -5,-15 3,-2 -1,-7 2,-2 2,-6 -1,-2 7,-10 -2,-3 -3,5 -3,2 -4,-1 -8,-19 z"
     id="path10"
     style="stroke:#000000;stroke-width:0.2;stroke-linejoin:round" />
  <path
     fill="#16a34a"
     d="m 73,129 1,1 11,-3 v 1 l 7,3 10,-4 5,-4 9,1 3,-3 7,-14 7,-4 v -2 l 3,-4 4,-1 v 4 l -4,7 2,5 -6,8 -5,-2 -3,4 v 3 h 2 l 4,7 4,-1 v 8 l -5,2 v 4 l -5,6 -1,4 -5,2 v 3 l -5,3 -2,2 1,4 -7,3 -8,-1 -3,-3 -4,1 v 20 l -8,-1 -4,7 -11,4 -2,-5 -5,-1 -4,-5 -6,-2 -4,3 -4,6 1,6 -3,8 2,5 -3,3 1,4 2,1 1,3 -2,7 6,3 h 3 l 5,5 13,4 2,-1 1,2 4,3 v 5 l 10,4 2,-1 3,1 2,-1 v 2 l 4,10 6,-4 4,-6 h 2 l 4,-3 8,3 2,-2 h 5 l 5,3 2,7 -2,5 -2,3 3,3 3,-1 1,3 3,-1 4,6 2,1 1,3 -5,2 1,4 -1,5 h 3 l 4,5 7,-1 3,-7 16,1 4,2 h 2 l -2,-12 h 4 l 2,-6 -3,-4 3,-1 -4,-6 h 4 l 1,-4 8,-5 -2,-9 5,1 2,-4 3,-1 3,-4 6,-1 4,-5 2,-6 7,-5 4,-1 1,-3 5,-3 h 5 l 5,-3 1,2 11,-1 4,2 v 4 l 2,4 -8,5 -3,5 2,3 -7,6 -2,10 4,6 -5,2 -1,5 3,8 -4,11 6,4 -1,4 2,4 -3,1 v 4 l -3,2 2,3 -3,4 1,2 h -3 l 2,3 -4,4 -3,-1 -3,8 -3,-2 -4,1 -4,4 5,4 -2,1 v 5 l -9,5 v 2 l -3,3 1,4 3,3 1,4 -2,5 2,5 6,-1 2,2 3,-2 4,4 7,-2 21,8 -4,4 2,7 1,-1 -4,2 2,3 -2,4 1,1 4,3 4,-3 4,1 1,5 3,3 5,1 -1,2 2,3 3,-2 2,2 7,-1 3,-2 v -7 l -3,-1 -4,2 1,-4 -2,5 -1,-1 2,-9 6,-1 v -2 l -3,-2 v -3 l 5,-3 3,5 1,-2 h 7 l 11,-2 -1,-3 v -8 l 3,-1 v -3 l -4,-5 2,-3 -6,-7 -1,1 -2,-2 v -6 l 2,-5 -1,-1 h -4 l -2,2 -2,-3 -3,-4 3,-8 3,1 4,-4 -5,-5 h -3 l -2,-6 h 2 v -2 l -7,1 -1,-2 -3,2 -3,-5 v -8 l 5,-5 1,-6 8,-11 v -4 l -3,-4 8,-4 4,1 v -3 l 4,-2 -1,-4 4,-6 6,-3 13,4 6,-1 9,-5 -1,-2 2,-2 -1,-3 3,-2 12,-1 3,3 2,-2 -1,-8 4,-2 2,-6 -5,-9 -6,-2 1,-5 -3,1 -7,-2 v 2 l -4,2 -5,-3 -6,6 -10,-3 -3,-3 h -3 l -7,-5 -2,2 -8,-4 -2,2 -1,-2 -4,-1 -3,3 -4,-4 -5,-1 h -12 l -2,-1 -1,-3 2,-3 -2,-4 2,-3 -2,-6 -6,-2 -3,2 -3,-2 2,-4 -2,-2 -2,-1 -1,-4 h -2 l -4,-3 -5,-6 5,-10 h 2 l -1,-5 1,-2 -10,-8 v -2 l 4,-11 10,-4 h -5 v -2 l -3,-1 1,-1 -1,-2 -5,2 -2,-5 3,-3 -1,-3 2,-1 v -2 l 2,2 -1,-5 -2,2 h -2 v 3 l -6,1 1,4 -4,1 v 6 l -5,-2 -4,5 -2,-3 1,3 -4,2 -4,-3 -11,9 -2,-1 -1,-3 -2,8 1,5 1,1 v -2 l 1,2 h 2 v 2 l -2,1 1,2 -2,1 1,2 4,1 7,-2 2,2 4,-6 2,-1 v 4 l -2,1 2,1 v 2 h 2 l -2,7 1,3 -2,1 -1,-2 -1,3 -6,-1 1,-2 3,-2 -1,-2 -2,-1 v 1 l -5,1 -5,-3 1,3 -4,4 4,-1 -1,3 -6,3 -2,2 v 3 l -4,3 -2,-3 3,-5 -1,-2 2,-2 -2,-1 3,-1 v -4 l 3,-3 1,-4 -1,-5 -3,-5 -5,6 -8,-1 -6,-4 -2,-4 -9,-2 -3,-4 v -4 l 3,-4 3,1 -1,2 2,2 v -2 l 3,1 4,-3 -2,-3 -5,-1 -2,-1 1,-3 -2,-1 v -3 l 3,-1 v -6 l -6,9 -4,-2 1,4 -2,4 -8,4 v 2 l 2,4 -1,3 -5,1 -3,-4 v -5 l 2,-5 9,-14 4,-2 4,-6 3,-2 3,-14 6,-8 h 2 l -2,-4 3,-3 v -4 l -3,-2 -11,5 -5,-2 -2,1 -3,-1 1,-2 -8,-3 -2,-4 2,-2 v -3 l 2,-3 -1,-3 4,-2 v -2 l 5,-1 5,-13 -4,-4 -1,1 1,2 -6,4 -5,-2 -1,2 -2,-1 -1,3 -3,-1 -2,2 -1,-1 -2,2 -6,2 h -2 v -3 h -2 v 2 l -4,3 -4,1 -2,-1 -4,2 h -2 v 2 l -3,-1 1,4 -1,3 -4,3 h -2 l -3,5 -7,4 -4,-1 -2,5 h -5 l -1,-2 -8,2 -2,-1 -3,5 -1,-1 -1,4 h -3 l 1,3 -1,3 -5,3 -11,4 -6,1 -2,-2 -2,2 -2,-2 -2,1 v -5 h -2 v -2 l -5,2 -1,3 1,1 v 5 l 2,1 1,7 -3,3 -1,7 -4,5 3,1 3,3 -1,2 3,1 2,5 8,3 v 3 l 5,2 2,4 -2,5 3,2 1,5 11,-2 2,2 4,-6 h 3 l 6,-4 z m 130,18 h -3 v 2 z m 50,-50 -2,5 2,1 z m -21,-33 2,-3 -1,-3 z m 113,342 -1,-4 -3,-2 v -3 l -1,-1 -2,-2 -5,1 -2,-1 5,10 -8,1 -6,6 -2,-1 -4,2 4,6 h -2 v 4 l 6,2 v 1 l 1,-1 4,-5 4,1 1,2 2,-1 4,1 3,-4 1,-4 -1,-2 z m 61,-2 -6,-2 -1,-3 h -4 l -2,4 2,4 -1,4 -3,1 2,-3 h -5 l -1,4 h -4 l -3,-4 -5,1 v -2 l -3,10 h -5 l -6,4 2,7 h -2 v 3 h 2 v 6 h -2 v 3 h -4 l -1,-2 -6,-1 -6,-4 -2,-5 -3,-2 -8,5 -1,3 1,4 3,1 v 4 h 2 l -2,2 2,4 3,-2 2,1 4,9 2,2 v 2 h 3 l 6,10 -3,6 -4,5 1,9 2,3 7,-6 h 3 l -3,-2 2,-5 h 8 l 2,-4 5,-1 -1,-2 2,-7 -4,-6 11,-2 10,1 1,-5 -3,-3 -1,-3 h -2 v -5 l -2,-1 -1,-1 1,-1 6,-3 2,-5 3,-1 2,-3 2,-1 -2,-5 3,-3 v -7 l 4,-4 -2,-4 z m -61,25 -1,-3 v 4 z m 57,42 -12,1 -4,3 -10,2 3,14 -1,4 -7,1 -4,3 v 2 h 5 l 1,-1 -1,1 2,1 -1,2 -5,1 v 3 h 5 l 2,2 1,-2 5,3 -1,1 4,2 4,-1 7,3 h 6 l 6,-4 4,3 3,-10 2,-1 5,-10 2,-1 h -2 l -1,-4 -4,-1 -2,1 2,-4 -2,-3 -3,5 -4,-2 -4,-7 1,-3 h -3 z m 15,23 -1,-3 2,-2 3,4 -2,-2 -3,1 2,1 h -1 l 4,1 -2,3 1,-3 -1,1 v -1 1 l -2,-1 1,3 z m -17,-19 -1,1 -4,-4 z"
     id="path12"
     style="stroke:#000000;stroke-width:0.2;stroke-linejoin:round" />
  <path
     fill="#16a34a"
     d="m 160,20 -5,13 -5,1 v 2 l -4,2 1,3 -2,3 v 3 l -2,2 2,4 8,3 -1,2 3,1 2,-1 5,2 11,-5 3,2 v 4 l -3,3 2,4 1,-2 1,2 3,-4 3,2 -3,3 3,2 3,-1 -1,-8 3,-7 -5,-5 h -3 l 1,-9 -2,-2 -4,-1 v -5 l -6,-1 -2,-3 1,-4 -3,1 z m 60,314 4,-4 4,-1 3,2 3,-8 3,1 4,-4 -2,-3 h 3 l -1,-2 3,-4 -2,-3 3,-2 v -4 l 3,-1 -2,-4 1,-4 -6,-4 4,-11 -3,-8 1,-5 5,-2 -4,-6 2,-10 7,-6 -2,-3 3,-5 8,-5 -2,-4 v -4 l -4,-2 -11,1 -1,-2 -5,3 h -5 l -5,3 -1,3 -4,1 -7,5 -2,6 -4,5 -6,1 -3,4 -3,1 -2,4 -5,-1 2,9 -8,5 -1,4 h -4 l 4,6 -3,1 3,4 -2,6 h -4 l 2,12 1,5 -4,5 h -1 l 1,3 5,1 17,-4 -1,3 2,4 h 5 l 2,2 h 4 l 1,1 h 6 l -1,4 2,4 -2,6 v 1 z M 88,142 l -5,5 4,2 -2,8 2,1 1,9 2,2 4,-1 3,3 8,1 7,-3 -1,-4 2,-2 5,-3 v -3 l 5,-2 1,-4 5,-6 v -4 l 5,-2 v -8 l -4,1 -4,-7 h -2 v -3 l 3,-4 5,2 6,-8 -2,-5 4,-7 v -4 l -4,1 -3,4 v 2 l -7,4 -7,14 -3,3 -9,-1 -5,4 -10,4 -7,-3 v 3 z m 243,290 8,-5 1,-5 -4,-1 -2,1 -1,-2 -4,-1 -4,5 3,2 v 2 z m 71,-3 -2,1 -2,3 -3,1 -2,5 -6,3 -1,1 1,1 2,1 v 5 h 2 l 1,3 3,3 -1,5 -10,-1 -11,2 4,6 -2,7 1,2 10,-2 4,-3 12,-1 -1,4 h 3 l -1,3 4,7 4,2 3,-5 2,3 -2,4 2,-1 4,1 1,4 h 2 l 3,-1 -3,6 3,3 3,-1 2,1 5,-5 1,4 3,-1 1,1 v -6 l 1,-4 h 2 l 1,-9 -5,-1 1,-2 -1,-4 -3,1 -3,-2 1,-4 2,-2 4,1 10,-8 13,3 -5,-4 -2,1 h -2 l -1,-3 v -6 l -13,4 1,-4 -4,-2 v -2 l -6,1 -2,-6 1,-6 -2,-2 1,-5 -7,4 h -4 l -2,5 -4,1 -4,-2 v -3 z m -52,9 6,1 1,2 h 4 v -3 h 2 v -6 h -2 v -3 h 2 l -2,-7 -3,2 -3,-4 -2,4 -5,1 -3,2 -2,-2 1,1 1,3 1,2 v 1 l 3,1 1,3 z m 50,37 -5,-3 4,4 z m -32,33 v -3 l 5,-1 1,-2 -2,-1 1,-1 -1,1 h -5 v -2 l 4,-3 7,-1 1,-4 -3,-14 -5,1 -2,4 h -8 l -2,5 3,2 h -3 l -7,6 8,7 -1,4 z m 49,-14 1,3 -1,-3 2,1 v -1 1 l 1,-1 -1,3 2,-3 -4,-1 h 1 l -2,-1 3,-1 2,2 -3,-4 -2,2 z"
     id="path14"
     style="stroke:#000000;stroke-width:0.2;stroke-linejoin:round" />
  <path
     fill="#16a34a"
     d="m 464,463 -13,-3 -10,8 -4,-1 -2,2 -1,4 3,2 3,-1 1,4 -1,2 5,1 -1,9 h -2 l -1,4 v 6 h 3 l 3,3 1,9 h 2 v 1 l 7,-2 1,4 6,1 v -3 l 4,-4 1,-7 5,-1 -6,-5 v -4 h -4 l 2,-10 -5,-2 v -4 l -2,-3 -2,1 v -2 l 2,-5 4,-2 z"
     id="path16"
     style="stroke:#000000;stroke-width:0.2;stroke-linejoin:round" />
  <path
     fill="none"
     stroke-linecap="round"
     d="m 336,404 2,8 h 5 m -127,-47 2,1 h 2 l 2,2 11,-2 3,2 3,-6 h 3 l 7,-8 3,-8 3,1 h 8 v 3 l 7,1 1,2 5,-1 -1,-3 2,-1 4,3 2,-2 v -2 l -2,-7 3,-3 2,-4 2,-1 11,3 m -107,-83 -10,4 -8,-3 -9,3 h -4 l -6,-6 -7,-3 -2,-12 -5,-1 3,-5 -1,-8 -6,-3 6,-7 -6,-4 v -2 l 6,1 1,-2 4,2 2,-10 2,-1 5,2 1,-3 -2,-1 -3,-6 -5,-1 1,-5 -2,-1 -6,-2 -6,1 1,-4 -2,-2 3,-3 -5,-3 -5,-2 -1,-3 -8,-2 m 40,34 22,-1 3,1 1,3 5,4 7,-2 4,-3 3,3 1,-3 4,-2 3,2 4,-1 2,7 4,-2 3,-5 h 2 l 1,-3 -3,-5 2,-7 5,1 3,-4 2,2 4,-1 10,-11 m -98,-109 -2,1 -3,6 2,4 -2,1 -2,-3 -3,1 -2,-2 -2,8 h -5 l -1,5 v 5 l 5,5 v 2 l 4,2 -1,3 m 41,43 -2,12 -4,-1 -7,-9 -5,2 -3,-2 -5,5 -1,3 -7,2 1,4 -6,5 -1,3 -4,3 -5,1 m 225,274 1,9 4,6 7,2 4,4 m -15,-12 -5,-1 -2,-2 -5,7 v 2 l -1,2 m 2,2 h 2 l 1,2 m 11,-21 7,-1 4,2 5,-1 7,4 3,-1 m 33,45 h 2 v -3 l 3,-2 5,1 v -3 l 3,-5 1,-4 m -40,-12 2,-1 3,2 1,4 9,-3 h 1 l -1,-3 4,2 4,-2 -1,-2 3,-2 5,1 3,-6 5,-3 m -32,18 -1,1 3,-1 4,4 -2,-1 -2,4 2,-5 -3,-2 -1,1 2,2 v 2 m -15,-29 2,3"
     id="path18"
     style="stroke:#000000;stroke-width:0.2;stroke-linejoin:round" />
  <path
     fill="none"
     stroke-width="1.6"
     stroke-linecap="round"
     d="m 331,432 8,-5 3,2 2,5 6,4 v -2 l -1,-3 -3,-1 v -1 l -1,-2 -1,1 v -4 l -1,-1 2,2 3,-2 5,-1 2,-4 3,4 3,-2 6,-4 h 5 l 3,-10 v 2 l 5,-1 3,4 h 4 l 1,-4 h 5 l -2,3 3,-1 1,-4 -2,-4 2,-4 h 4 l 1,3 6,2 m -90,8 4,-2 2,1 6,-6 8,-1 -5,-10 2,1 5,-1 2,2 m 0,0 1,1 v 3 l 3,2 1,4 m 3,-152 -1,-2 2,-2 -1,-3 3,-2 12,-1 3,3 2,-2 -1,-8 4,-2 2,-6 m -192,70 -2,-12 h 4 l 2,-6 -3,-4 3,-1 -4,-6 h 4 l 1,-4 8,-5 -2,-9 5,1 2,-4 3,-1 3,-4 6,-1 4,-5 2,-6 7,-5 4,-1 1,-3 5,-3 h 5 l 5,-3 1,2 11,-1 4,2 1,-3 2,-1 -2,-5 6,-2 2,-2 h 4 l 1,-4"
     id="path20"
     style="stroke:#000000;stroke-linejoin:round;stroke-width:0.2;stroke-miterlimit:4;stroke-dasharray:none" />
  <g
     id="g32">
    <rect
       id="rect26"
       height="36"
       width="217"
       y="493"
       x="4"
       opacity="0.75"
       fill="white" />
    <rect
       id="rect28"
       height="8"
       width="209"
       y="497"
       x="8"
       fill="black" />
    <text
       id="text30"
       y="525"
       x="112"
       font-family="sans-serif"
       font-size="24"
       text-anchor="middle"
       fill="black">50km</text>
  </g>
</svg>
