<?xml version="1.0" encoding="utf-8"?>
<!-- Generator: Adobe Illustrator 16.0.0, SVG Export Plug-In . SVG Version: 6.00 Build 0)  -->
<!DOCTYPE svg PUBLIC "-//W3C//DTD SVG 1.1//EN" "http://www.w3.org/Graphics/SVG/1.1/DTD/svg11.dtd">
<svg version="1.1" id="レイヤー_1" xmlns="http://www.w3.org/2000/svg" xmlns:xlink="http://www.w3.org/1999/xlink" x="0px"
	 y="0px" width="498px" height="526px" viewBox="0 0 498 526" enable-background="new 0 0 498 526" xml:space="preserve">
<title>福岡県行政区画地図 (2010年2月1日)</title>
<desc>Author: Lincun</desc>
<rect y="0" fill="#EEEEEE" width="498" height="526"/>
<g>
	<path fill="#CCCCCC" stroke="#000000" stroke-width="0.2" stroke-linejoin="round" d="M369-1v2l1,5l-4,8h3l2,3v5l-2,3l-1,5l3,6v3
		l-1,5l-3,5l1-1l4,1l-2,6l4,2l2-1v-1l-2-1h1l-1-2h3l1-2v2l1-1l2-3l17-13l5-4l-2-3l2,1v-4l3,2l1-2l-2-1v-3l1-2l-1-1l11-11V4l3-5H369z
		 M420-1h2l1,3v3l8,3l6,2l1-2h4l2,2l8,13l5,5l1,2h2l-2-3v-4v2l7-1l-2,5l6,4l2,3l-2,1v2l1-1l2-1v1h2l-2,2l2,1h-5v2l2-2v2l1,1l-4,1v4
		l8,10h3v-3l5-2l5-1v-3l6,2l2-5l1,1l-3,5l-4,4l3,1l3-2l2-6V-1H420z M499,56l-1,1l-1,3l1,1l1-1V56z M369,49l-1,2l-3-1v3l-2,1l-6-5
		l-3,4l3,2l4,2l1-1l1,3h-1l2,2v3l4-2v3l-3,1l4,4l4-1l3-7l-3-3l1-2h-3l-2-3l2-3L369,49z M376,59l1,1v-2l-1-1V59z M355,52l1-3l-3,2
		L355,52z M348,40l1,1h2l1-4l-1-1h-2L348,40z M406,18l2,3l5-4l-4-3L406,18z M-1,488v4l2,5l3,2l3,2l5-1v3l6,4h1l3,6l4,3l6-1l4,7l12,2
		l9,1l2-2l2,4h31v-1l-2-5l-2-2l-2,1l-1-1l1-2l-2-3h-6l1-4h-2v-6l-4-3h2l-2-3h2l-5-6v-7l-5-3v-2l-5-6v-2l-2-2l2-2l-2-4l3-7l8-10l10-6
		l-1-2l6-4l7-5l4-9v-4l1-1l5,1v-5h3l2,2l-1,1l-2,3l4,5l7,5v2l3,2l-1,2l2,5l27,3l-1-14v-1v-4l-2-1l-2-3h-1v-7l1-3h5l3-3l6-3l1-4l-4-4
		l2-3l4,2l2-3v-6h4l1,5l3-1l4-5l-1-4l5-2v-6l-1-2l2-1l3,1l-2,8l3,4h3v-6l2-3h2h1l3-2l-5-3v-4l11-1l2-6l-5-5l2-2l2-1l5,4l3-3l1-6l7,2
		l3-3l1,1l3-11v-14l-1-13l-2-6l1-2l-10-5l-2,3l-2-2l-9,5l-2-1l-6,5l-1,4l-7,2l-1,7l-4,2l-4-2l-3,3l-2-3l4-4l-5-3l-2-4l-1-2l-7,2
		l-4-6l-4,1h-2l-4-5h-2h-1l-1-3l-5-4h-3l-4-2h-3l-2-3l-8-5l-6,2l-3,2l-5-1l-2-3l-2,1l-5-1l-7-1v2h-1l-3,1l-2,4h-6l-3-4l-5-1l-4,3
		l-4-2l-9-1l-2,3l-3,1h-8l-2-2l-6,2h-2l-4-1l-2,2l1,3l2,1l-2,3l-5,2l-7,1l-6-2V488z M-1,281h1l-1-3V281z M61,527l-2-4l-2,2l-9-1
		l-12-2l-4-7l-6,1l-4-3l-3-6h-1l-6-4v-3l-5,1l-3-2l-3-2l-2-5v35H61z M499,503l-2-2l1-1l-5-14l1-2l-8-9v-1l-2-2l-3,2l-3-3l-2-5v-7
		l-4-6l1-6l-2-6l-6-4l1-1v-1l-6-3l-1-3l-5-1l-1-4l-2-3l-4-2l-3,1l-5-2l-9-3l-7,1l-11,8h-4l-5-3v3l-2,1l-2,9l1,7l-2-1l-1,2l7,5l-1,3
		l2,3l5,4l3,7l3,3l-5,6l-1,3l3,3l-1,2v6l-4,3l-3,6l-3,2h-8l-4-6l-2-6l-4-2l-3,1l-1-2l-3,2l-5-1l-3-5l-5-1v-3l-2-2l-1-4l-2-2l-3-2
		l-4,1l-2-2l-7,1l-2-5l-7-1l-2-4l-4-1l-6-4h-9l-1-2l-2-2h-3l-2-3l-5-4l-2-3l-5,1l-4-2l-1,2l-3-1l-4,1v-6l-5-4v4l-5,4l1,8l-3,4l-1,7
		l-2,1l2,2l-1,1l-8-2l-9,2l-5-3l-9-1l-4,4l-3,2l-1,3l2,3v2l-6,1l-1,2h-2l-3,1l-2,7l-6-1l-9,8l9,18l-4,5l-3-2l-6,2l-2-1l-14,1l-7-2
		l-5,2l1,4h2l3-1l-2,1l1,3h1l1,11h323V503z M499,219l-8-2l1-2l-4-4h-3l-2,2l-1-3l-1,2l-1-1l-3,6v4l-2,4v5l5,5l2,4l-2,7l-8,8l2,3
		l-1,3l4,4l-3,1l-5-1l-14,3h-1l-5-3l-4,2l-2-2l-7,1l-4-1l-9-1l-3-4h-3l-1,3l-5,2l-5-2l-4,2h-1h-3l-4,1l-4,6l-5,3l-3,1l-6,14l-5,1
		l-2,2l-4,1l-1,1l-2,11l-1,5l1,3l-2,1l-1,8l1,4l-4,2h-6l-1,2v5l-7,6l-3,3l1,2l3,3v-2h2l3,5l-1,2l5,15l-6,7l3,5h2h1v2h-5l-4,3l-6-1
		l-2,2v9l14,3l-1,2l-5,1l-3,4v2l3,2l8,7h4l5,3v1v4l-4,1l-1,2l2,8l-3,3l-2,10l-3,2l1,2l-3,4l-6,3l2,5l7-1l2,2l4-1l3,2l2,2l1,4l2,2v3
		l5,1l3,5l5,1l3-2l1,2l3-1l4,2l2,6l4,6h8l3-2l3-6l4-3v-6l1-2l-3-3l1-3l5-6l-3-3l-3-7l-5-4l-2-3l1-3l-7-5l1-2l2,1l-1-7l2-9l2-1v-3
		l5,3h4l11-8l7-1l9,3l5,2l3-1l4,2l2,3l1,4l5,1l1,3l6,3v1l-1,1l6,4l2,6l-1,6l4,6v7l2,5l3,3l3-2l2,2v1l8,9l-1,2l5,14l-1,1l2,2V219z"/>
	<path fill="#DCB6F2" stroke="#000000" stroke-width="0.2" stroke-linejoin="round" d="M162,303v-6l3,2v-2l-2-1v-3l-5-3l1-6l-3-6
		l-1-8l-3-4l2-2l2,2l4-2l1,1l2-3h2l1-4l4-1l4-3l1,3h2l3-6l-1-2l1-3l4-1l5,6l2-1l1-6l-4-5l1-1l5,5l4-4l-1-3h-2v-3l-2-5l-4-5l-8-6
		l-1-3l13-12l5,5l3-2v-2v-2l1-3l-2-2l-1,1l-2-2l-2,1v-3l-4-5v-6v-1l-2-1l-3,2l-3-9l-12-7l-1,4l-6,7l-9,7l-13,6l-7,1l-5-1l-5-12h-6
		l-1,3l5,10h5v-1l6,1l3,5l2-1l7,4l2-1l-1-3l1-4l3-3l12-2l4-3l-2-1l1-2l8-2l3,1v3l-3,2l3,5v2h-3l-8,4l6,2v3l-4-1l2,1v1l-3-2l-2,4l2,1
		l-2,5l4,2l1-1l-1,2l-5-1l-1,2l4,2l-1,1l-3-2l-1,1l2,2h-2l1,3l-2,1l1-2l-3-4l-2,1l2,3l-2,1h3l1,1h-2l-1,2h-2l-1-2h2l-3-3l-8,3l-3,1
		l-2-1l-6-1l-2,3v-2h-2h-3v5l-4,2l-3,1l-3-1l-4,1l-5-4v-4l1,2l3-5v-4h-9l-8-2l-3-9l5-7l-5-4l-7-5v10l-3,1l-1,2l4,6l-1,7l2,4l-1,4
		l2,4l3,4h5h2l1,4l-1,3v7l3-3l8,1l2,4l8,5v8l1,4l-1,2l-2-2v3h-2l-3,5l1,3l-1,1v4l8,5l2,3h3l4,2h3l5,4l1,3h1h2l4,5h2l4-1l4,6L162,303
		z M121,212l1,4l2,1l5-5v-3l-4-7l-2,1v5L121,212z M164,190l2,2l3-2l2,2l4-3l-2-5h-3l-3,1l2,3L164,190z M98,177l-1-3l-4,1l4,5h1V177z
		 M333,161l8-2h2l3-4h6l5-5l1,1h2l2,4l3-7v-2l2,3l2-1v-7l3-3l-1-3l4-2l3,2l6-2l2-1l2-4l9-10l-6,1l-4-10l1-3l1-1l6,1l2-2h-1v-2l1,1
		l2-6l3,1l2-8h-4l-2,2l-1-1l2-3v-5l1,1l1-1l2-1l-1,5l2,1l2-9v1l-6-3l-1-2l4-4l1,2l2-1l-1-2l1-2l4-1l1-2l-3-1h-3v-2h1l-1,1l4-3l-1-2
		l1-3l4-1l-1-3l2-5h-3l1-1l-3-2l-2,2l-2-1l3-2l-3-1l-4,6h-2l2-2l-6,2l-2-2h-4l1,7l-7,4l-5,14l-8,7l-5,2v-1l-3,1l-1,2l-2-1l2-2l-3,1
		l-3,1l3-3h4l-3-3l-5,2v1l-3-1l-1,1l1-2h2l5-3h-3l1-2l-3-3l-3,3l-1-1l-3,2l1,1l-1,1l-1-1l-1-2l6-2l2-1l-1-2l-7,3l2-2l-2,1v-1l5-3
		l-3-2l-12,5l-1,7l-1-1l1,2l-2,2l-4,3v3l1,4l-4,2l2-4v-5l-4,3l-4,1l-1,3h-1l1-2h-2l-3,3l1-2l-12,3l3-2l-1-3l-1-2l3,4l5-1l8-2h-9l6-3
		l1,1l1-2v2h6l2-2l5-5l1-5l-4,1v-2l2-1l2,1l1-3l-5-4l-12-2l-1,4l-8,3l-1-2l7-2v-2h-4v-3l4-1v-3l-7,1v3h-5h5v4h-5l-1,2l-4-2l1-2l-9-1
		l-3-1l-5,2l-2-1l1,4l-5,5l2,1l-1,5l4,4l-1,4v1l2,5l3,2l-1,3l3,5h2v2l3,2l4,4l-1,3h3l1,4l6,4l-5,2l-3,5h-2l1-2l-4-2l2,2l-5,3l1,2
		l6,11l7,2l3-1l3,1l5-3v-2l1-3h5l3,3h2l2,2l1,2l-1,3l3,8l-1,3l1,4l6,4V161z M16,92l1,1l-1-2l3,1l-1-5L16,92z M315,54v1h3v3l11,2l1-2
		l3,2l9-4l-5-5l-7,3l-2-3l-4,2h-9V54z M343,41h1l3,2h2l-1-1L343,41z M328,27l3,4l2,2l-2-7L328,27z M287,25l4,1l-2-2L287,25z M293,18
		l2,5l3,1l1-5h-4l-1-2L293,18z"/>
	<path fill="#F6BAD3" stroke="#000000" stroke-width="0.2" stroke-linejoin="round" d="M195,508l2,1l6-2l3,2l4-5l-9-18l9-8l6,1l2-7
		l3-1h2l1-2l6-1v-2l-2-3l1-3l3-2l4-4l9,1l5,3l9-2l8,2l1-1l-2-2l2-1l1-7l3-4l-1-8l5-4v-4l5,4v6l4-1l3,1l1-2l4,2l5-1l2,3l5,4l2,3h3
		l2,2l1,2h9l6,4l4,1l2,4l7,1l6-3l3-4l-1-2l3-2l2-10l3-3l-2-8l1-2l4-1v-4v-1l-5-3h-4l-8-7l-3-2v-2l3-4l5-1l1-2l-14-3v-9l2-2l6,1l4-3
		h5v-2h-1h-2l-3-5l6-7l-5-15l1-2l-3-5h-2v2l-3-3l-1-2l3-3l7-6v-5v-4l-1-6l1-3h-2l-1-1h2l-1-1h1l-4-3l1-1v1l-1-4l-2,1l-2-3l-2-5l-2-4
		v-4l-2-2l-5-2l-2,1l-3-1l-5,1l-3,2l-6-2l5-1l2-6h4v-1h6l1-6l4-2l-3-10l-3-1l1-10l-1-8l-5-4v-2l-2-4l4-3l-1-2l2-2v-5l-1-2l2-7l-3-2
		l1-4l10,4l4,5l4-3l2-3l-4-8l3-2v-3l-5-3h-1v-3h3l-1-1l-4-2l2-16l-7,1l-1,3l-1-1v3l-1,3l1,4h-4l-1-1l-1,3h-1l1,7l-13,6l-4-1l1-4l2-1
		l2-1l-2-5l-1-3l-1-5l1-2l-4-8l2-8l10-2l3-3l3-6l6-1l1-3l-3-8l1-3l-1-2l-2-2h-2l-3-3h-5l-1,3v2l-5,3l-3-1l-3,1l-7-2l-6-11l-4,4l-1,2
		l2,5v3l-8,1l2,8l-2,3l-9,2l-1-4l-2-13l-4-8l-3-5l2-3l-1-3l-4-4l-5-1h-4l-4,3l-5-7l1-4l-6-5v-5l-4-2l-6-9v-3h-7l2,3l-1,2l-1,6l-6,5
		l-9,3l-3-4l-1,1l1,3l1,3l-3,11l-6,6l-4-1l-1-3l-2,1l1,1l2,5l-2,4l1,4h2l3-7v-2h3l-3,2v4l-1,3l1-1l3,2l1,9l-1,6l-3,6l-5,8l4,2l4,5v7
		l8,1h2l3-3l3,6l4-2l1-5l2-1l1-2l3-1h4l-2,5l2,3l-2,6l4,6l5,1l3,1l2,3l-4,5l4,5l4,2v7h3l3,3l-6,5l-1-3l-1,3l-5-2l-4,3l2,3l2,2v5l2,2
		l1,3l4,7l-2,1l-3,5l-9-7l-4,1v3l-5,3l1,3l-4,3l-3-4l-2-2v-3l-2-1l-1-5h-6l-4,4l-5-5l-1,1l4,5l-1,6l-2,1l-5-6l-4,1l-1,3l1,2l-3,6
		l3,5l3,2l-1,3l2,2l2,13l4,1v2l-3,4l1,6l-3,4l1,4h2l6-5l2,1l9-5l2,2l2-3l10,5l-1,2l2,6l1,13v14l-3,11l-1-1l-3,3l-7-2l-1,6l-3,3l-5-4
		l-2,1l-2,2l5,5l-2,6l-11,1v4l5,3l-3,2h-1h-2l-2,3v6h-3l-3-4l2-8l-3-1l-2,1l1,2v6l-5,2l1,4l-4,5l-3,1l-1-5h-4v6l-2,3l-4-2l-2,3l4,4
		l-1,4l-6,3l-3,3h-5l-1,3v7h1l2,3l2,1v4v1l1,14l5,1l4-2l-2,4l2,3l-2,4l10,6l-4,6l10,4l1,6l1,1l3,9l-2,9l1,3l-6,5v4l3-3l1,2l2-2v2
		l-1-1l-1,1l1,2l-4-1l-6,4l1,1l6-2l1,1l5-2l7,2L195,508z M186,420l-9,2l-3-7l-3,1v-5l-2-1h2l1-5l1-2l-5-2l3-1l1,2l3-4l3,1l-1-4h3v-1
		l1-3l6,4l2,7l-2,8l-3,1l1,5l2,2L186,420z M211,398l-2-3h-2l2-2h-2l1-2l1,1l1-1l-2-4l1-2l-1-1l2,2l2-2v2l1-3v2l3-2l-1,2l2-1v2l1-2
		v-1l1,1v-1l3,1l8-3l1-3l3-2l3,3v2l9-5l5-4l1,1l-1,6l1,2l-1,1l5,9v4h-9l-2-3h-1l-6,3l-7,2l-8,2l-6-2l-3,1v-1L211,398z M271,335h-7
		l-7,4l-2-4l2-1l-1-1l-6-1l-4,2l-1-1l1-1l-11,1l1-1l-1-3l4-6l2-7l2-1l1-3l4-1l-2-4l-10-8l2-2l-1-1l-4-2l-1-4l-3-2l-1-8l3-3l-1,3l6,2
		l4-7l8-3v-2l5-5l2,1l3-2v1l1,1h2l4-3l4,4l3,2l-2,2l1,3h-2l2,1l-1,3l-3,3l-4,9v3l3,1l2,5l-10,12h-4l-3,3l1,2l-2,1l4,4l8,2l1,2l-3,5
		l5-1v2L271,335z M81,279h1v-2l7,1l5,1l2-1l2,3l5,1l3-2l6-2v-4l1-1l-1-3l3-5h2v-3l2,2l1-2l-1-4v-8l-8-5l-2-4l-8-1l-3,3v-7l1-3l-1-4
		h-2h-5l-3-4l-2-4l1-4l-2-4l1-7l-4-6l-1,1l-8,4l-3-1l-3,1l-2,4v4v-2l3,2l-1,2l-5,7l-6,2h-4l-6-3v5h-2l-6,1l-1,2l4,2l1,3v3h1l8-5l4,4
		h2l-1,4l-3-2l-2,2l-2,5h2l2-5l4,1l3,4l5-6l3-1l1,3l-3,6h-2v3h-2l-10,6l4,1v2l-3,4l-3,1l-5-1l-2-3l-1,3l-3,2l-3-1l-9,5l-6,1h-1l2,3
		l-4,9l4,1h2l6-2l2,2h8l3-1l2-3l9,1l4,2l4-3l5,1l3,4h6l2-4L81,279z M432,264l7-6l4-3v-5l7-4l8-17l8-5l2-4l-1-2l2-2l3-5h-3l-7-5l-1,2
		l-3-1l-1-3l2,4l-3-1l-2,1v-3h-3l1,5l-1,1v-3h-3v3h-2l-6-8l-2,4l-13,14l-7,14l-6,4l-3,10l-6,6l-2,9h1l4-2l5,2l5-2l1-3h3l3,4L432,264
		z M269,232l2-5l-4,3l1-4l-4-1l2-3h5l3-2l2,1v-2l2,3h3l3-2l2,6l-2,9l-3,1v7l-3,1v4h-1l-2,5l-2,1l-1-2l3-5v-4l-2-1l-2,2l-3-9L269,232
		z M20,233l3,4l1-5l-2-1L20,233z M397,176l1-1l3,2l2-3l3,2h1l-2,1l2,1l-1,1l2-2l-1,3h1l-1,1l2,2l5-4l2,2h4l3-2v-2l-2-1l-3-5l1-1
		l-2-2l-3-10l-2-2h-3l3-3v-2l1-1l-2-3l-3-1l-7,5h-2l-3-1l-9,3l1,1h-4l-10-5l-5-1l-2,1l-2-3v2l-3,7l1,5l4,2l1,3l1,1l1-5l4,1v-1l3,1
		l3,4l-4,6l1,2l-2,1l3,2l-2,1v6l2,1l7-4l2,1l2-3l4-1v-2H397z M289,156h1l2,2l3-2v7v5l-1,4l-5-1l1,4l-1,4l-3,1l-3-1h-2l-3-1l-3,2
		l-2-4v-2l4-4l1,3l5-1l-1-10l3-3h4V156z M286,123l5-3l-2-2l4,2l-1,2h2l3-5l5-2l-6-4l-1-4h-3l-2-2l-2,1l-3-3v4l-2,2l-2-2l-6,2l-3,4v1
		l2-1l2,5l3-1l3,3h2L286,123z M191,94l2,1v-3h-2V94z M177,78l1-3l2,1l-1-3h2l2-3l-1-2l-6,1l-1,1l-5-1l-3,1l-1,6l1,1v1l7,3h2L177,78z
		 M204,72l-1-3l-3-1l-2,2l4,3v3l5,1L204,72z M188,303h-2l-1-4l3-4l-1-6l3-4v-2l-4-1l-2-13l-2-2l1-3l-3-2l-3-5h-2l-1-3l-4,3l-4,1
		l-1,4h-2l-2,3l-1-1l-4,2l-2-2l-2,2l3,4l1,8l3,6l-1,6l5,3v3l2,1v2l-3-2v6l1,2l2,4l5,3l-4,4l2,3l3-3l4,2l4-2l1-7l7-2L188,303z"/>
	<path fill="#ECE3B4" stroke="#000000" stroke-width="0.2" stroke-linejoin="round" d="M186,420l1-2l-2-2l-1-5l3-1l2-8l-2-7l-6-4
		l-1,3v1h-3l1,4l-3-1l-3,4l-1-2l-3,1l5,2l-1,2l-1,5h-2l2,1v5l3-1l3,7L186,420z M211,398l3-1v1l3-1l6,2l8-2l7-2l6-3h1l2,3h9v-4l-5-9
		l1-1l-1-2l1-6l-1-1l-5,4l-9,5v-2l-3-3l-3,2l-1,3l-8,3l-3-1v1l-1-1v1l-1,2v-2l-2,1l1-2l-3,2v-2l-1,3v-2l-2,2l-2-2l1,1l-1,2l2,4l-1,1
		l-1-1l-1,2h2l-2,2h2L211,398z M271,335l-6-4v-2l-5,1l3-5l-1-2l-8-2l-4-4l2-1l-1-2l3-3h4l10-12l-2-5l-3-1v-3l4-9l3-3l1-3l-2-1h2
		l-1-3l2-2l-3-2l-4-4l-4,3h-2l-1-1v-1l-3,2l-2-1l-5,5v2l-8,3l-4,7l-6-2l1-3l-3,3l1,8l3,2l1,4l4,2l1,1l-2,2l10,8l2,4l-4,1l-1,3l-2,1
		l-2,7l-4,6l1,3l-1,1l11-1l-1,1l1,1l4-2l6,1l1,1l-2,1l2,4l7-4H271z M364,292l1,1l4-1l2-2l5-1l6-14l3-1l5-3l4-6l4-1h3l2-9l6-6l3-10
		l6-4l7-14l13-14l2-4l-2-1l-1-6l-3-4l-4,1l2-1l-2-6l-5-8l2-2l-4,1v2l-3,2h-4l-2-2l-5,4l-2-2l1-1h-1l1-3l-2,2l1-1l-2-1l2-1h-1l-3-2
		l-2,3l-3-2l-1,1h-4v2l-4,1l-2,3l-2-1l-7,4l-2-1v-6l2-1l-3-2l2-1l-1-2l4-6l-3-4l-3-1v1l-4-1l-1,5l-1-1l-1-3l-4-2l-1-5l-2-4h-2l-1-1
		l-5,5h-6l-3,4h-2l-8,2v-2l-6-4l-1-4l-6,1l-3,6l-3,3l-10,2l-2,8l4,8l-1,2l1,5l1,3l2,5l-2,1l-2,1l-1,4l4,1l13-6l-1-7h1l1-3l1,1h4
		l-1-4l1-3v-3l1,1l1-3l7-1l-2,16l4,2l1,1h-3v3h1l5,3v3l-3,2l4,8l-2,3l-4,3l-4-5l-10-4l-1,4l3,2l-2,7l1,2v5l-2,2l1,2l-4,3l2,4v2l5,4
		l1,8l-1,10l3,1l3,10l9,1l3,4l-4,2l-1,2l3,3l4,8h3l2-2H364z M475,225l2-4v-4l3-6l-1-1l-2-1h2l-1-1l-4,2l-1,4l-1-3l-3,5l-2,2l1,2
		l-2,4l-8,5l-8,17l-7,4v5l-4,3l-7,6l4,1l7-1l2,2l4-2l5,3h1l14-3l5,1l3-1l-4-4l1-3l-2-3l8-8l2-7l-2-4l-5-5V225z M215,248l5-3v-3l4-1
		l9,7l3-5l2-1l-4-7l-1-3l-2-2v-5l-2-2l-2-3l4-3l5,2l1-3l1,3l6-5l-3-3h-3v-7l-4-2l-4-5l4-5l-2-3l-3-1l-5-1l-4-6l2-6l-2-3l2-5h-4l-3,1
		l-1,2l-2,1l-1,5l-4,2l-3-6l-3,3h-2l-8-1v-7l-4-5l-4-2l-8,4l-2-2l-2,3v1l12,7l3,9l3-2l2,1v1v6l4,5v3l2-1l2,2l1-1l2,2l-1,3v2v2l-3,2
		l-5-5l-13,12l1,3l8,6l4,5l2,5v3h2l1,3h6l1,5l2,1v3l2,2l3,4l4-3L215,248z M374,240h-1l-12-11l-7,5l-2-7l1-3l-3-6l-2-11l1-6l-2-3l1-1
		l4,4l5-2l4-3h1l-1,4l1,3l4-3v1l2,1v3l-4,8l2,2v4l4,3v3l2,2l1,8L374,240z M295,168v-5v-7l-3,2l-2-2h-1v3h-4l-3,3l1,10l-5,1l-1-3
		l-4,4v2l2,4l3-2l3,1h2l3,1l3-1l1-4l-1-4l5,1L295,168z M401,151l7-5l-3-2l7-6l-3-4l-5,4l1-3l-3,1l4-5l-1-2l-1,1l1-1v-2h-2l2-1l-1-1
		l-2,1l-2,4l-2,1l2-4v-2l5-2l-2-5l3,2l2-2l-2,1l-1-3l-7,3l-1-1l-9,10l-2,4l-2,1l-6,2l-3-2l-4,2l1,3l-3,3v7l5,1l10,5h4l-1-1l9-3l3,1
		H401z M278,148l-2-8l8-1v-3l-2-5l1-2l4-4l-1-2l-2-3h-2l-3-3l-3,1l-2-5l-2,1v-1l3-4l6-2l2,2l2-2v-4l3,3l2-1l2,2l1-3l-4-4l-3-2v-2h-2
		l-3-5l1-3l-3-2l-2-5v-1l1-4l-4-4l1-5l-2-1l-3,2v3l-3-1l3,5l2,2h2l-1,2l-5-4l-3,4l-7,3l-1,1l-12,3h-9l-5-2l-1-5l-9,1v3l6,9l4,2v5
		l6,5l-1,4l5,7l4-3h4l5,1l4,4l1,3l-2,3l3,5l4,8l2,13l1,4l9-2L278,148z M155,143h1l-7-4l-2,3l2,3l2-3L155,143z M281,222h-3l-2-3v2
		l-2-1l-3,2h-5l-2,3l4,1l-1,4l4-3l-2,5l-1,3l3,9l2-2l2,1v4l-3,5l1,2l2-1l2-5h1v-4l3-1v-7l3-1l2-9l-2-6L281,222z"/>
	<path fill="#B6F2DC" stroke="#000000" stroke-width="0.2" stroke-linejoin="round" d="M365,293l-1-1h-13l-2,2h-3l-4-8l-3-3l1-2l4-2
		l-3-4l-9-1l-4,2l-1,6h-6v1h-4l-2,6l-5,1l6,2l3-2l5-1l3,1l2-1l5,2l2,2v4l2,4l2,5l2,3l2-1l1,4v-1l-1,1l4,3h-1l1,1h-2l1,1h2l-1,3l1,6
		v4l1-2h6l4-2l-1-4l1-8l2-1l-1-3l1-5l2-11L365,293z M374,240l-1-5l-1-8l-2-2v-3l-4-3v-4l-2-2l4-8v-3l-2-1v-1l-4,3l-1-3l1-4h-1l-4,3
		l-5,2l-4-4l-1,1l2,3l-1,6l2,11l3,6l-1,3l2,7l7-5l12,11H374z"/>
	<path fill="none" stroke="#000000" stroke-width="0.2" stroke-linecap="round" stroke-linejoin="round" d="M260,128h-2l-1,5h-1
		l-4-1l-3,2h-3l-2,3l2,5l-5-1l-4,4l-8-1l-3,3l-5-6l-1-3l2-1l-2-2l-2-2h-3l-3,2l-1-3l-9-6l4-9l-3-4l1-5l-4-7h-2v3l-2-5 M226,147l-1,3
		v3l-2,4l5,5l-5,1l-1,4 M290,156v-1h-2l-1-4l-2-1l1-2l-7,3l-1-3 M223,157l-3-4l-12-1l-12-5l-5-1 M302,171l-2,1l-5-4 M273,176h-2
		l-3-1l-3,3h-4l-2,3v4l-4,3l-2-1l-1,4l-4,5l-3-2l-8,3l-3,5 M304,200l1,5l5,9h3l2,3l-2,3l2,2l-5,2l-1,3l-1-1l-3-1l-3-3l-2-4v-4l-7-3
		l-3,1l-3-4h-2l-2,3l1,9 M319,235l-3,1l-2-2l1-2l-1-1l-1,1l-4-5 M184,269l7-6l3,1l-1-2l2-7l-1-1v-3l-1-1h-2 M233,248l-6,9l-3,1l-1-1
		l-2,1l-1,4l4,3l-4,8l-2-2l-3-6h-3v2l-3-1v2h-2l-2-5l-1,5l-3,8l2,2l-3,5l-4,2h-6 M253,265v-3l-5-3l1-3l-7-6v-5l-4-3 M273,254h-2
		l-1,3v7l-1,3 M209,250l-5,3l-3-1l-2,2l3,5l-4,3l1,4l-2,3v5l3,9 M321,282l-1-3l-1-2l-8-3h-5l-2,2l-3-2l-6,2l-6-3h-6l-3-2l-3,1l-3-3
		h-2 M236,299l-6-6h-5l-1,4l-3,1l-1-1l-1,1 M339,344l-9-8l-12,5l-6-7l-2,2l-2-2h-4l-1,2l-1-1l-5-5h-2l-1,6h-7v-2l-16,1 M335,387
		l-2-2l-2,1l-5-3h-4v-3h-5l-3-3l-3-4l-8,2l-6-3l-3-8h2l-1-10l-1-1v-6l3-1v-4l-5-3l2-2l2,2h1v-3h-3 M235,333l-2,6l-4-1l-5,4v1h-3
		l-2,2l-1-1 M294,364l-2-1l-7-1l-14,2l-12,2l-4,3h-4v3 M208,387h-1l-1,5l-2-2l-2,2h-4v2l-3-1h-2v5l-1-1l-3,5 M211,399v-1 M168,401
		l1-3l-1-2v2l-4,1l-7-5 M229,460l-3-2l1-5l-3-5l1-5l-1-3l1-6h-3l-2,1l-1-3l2-9l1-1l-4-1l-3-2l-1-4l2-2l-5-1l2-2l-1-5h1l-1-3l2-1h-2
		l2-2 M171,416l-8,1l-3,6l-5-3l-1,1v-2l-4,2v5l-2,1h-4 M218,421l-4,1h-8l-5,5l-3-2l2-2h-2v-2h-4v6l-10-1l4-3l-2-3 M194,427l-1,3
		l-6-1v2h-2l3,3v4l-4,1l1,4l-3,2l-11,20l-3,3 M221,471l-2-5l-3,3l-3,1l-2-6l-4-1l-1,3l-8,3l-6-2h-9l-1,4l-3,2l-9,2 M277,80h-2l1,16
		l5,11 M275,80l-2,4l-2,4l-10,2l-2,10l6-2v3l-4,6v10h-3l3,2h2l4-5h5 M261,90l1-4l-4-4 M361,196l-3-4l3-6l-4-7l-2-3l1-4l-3-4l-1-11
		v-2 M333,161l4,7l-1,5 M207,178v1l-5,1l-3,4l-5-1l-3-1 M320,188l-4-4l-1,4l-8,1 M347,198h-5 M229,188l-5,5l-1,4l-4,2l-2,3l-7-1
		l-5,1l-2,1l-1,3l2,1v6l4,3l3,3l5,1l2,2l9-2 M203,203h-2 M409,183l-8,7v10l-4,5l-3,9l-1,7l-3,6l-1,6l1,4l4,2l-1,7l-2,2v7l3,6l4,3
		 M352,227l-2,2l-3-1v-4l-4,3l-4-3l2-4l-3-2l-1-1 M204,213l-5,2v4l2,3l-2,1h-4l-2-3l-3-2l-3-3l-6,2 M475,225h-4v-3l-3-2 M229,223
		l-6,3l-1,4l-5,2h-7l-4-3h-3l-3-2l1-1l-2-3 M203,229v4l-2-1l-2,2l-1,5 M339,224l-1,1l-1,3l3,2v4l-3,3v17l-1,4l-7,3v3 M385,274l-1-4
		l-4-1l1-5l-2-2l-2-6l1-4l-5-9l1-3 M251,314l-2-2v-2l-1,1"/>
	<path fill="#EEEEEE" stroke="#000000" stroke-width="0.2" stroke-linejoin="round" d="M295,70l2,1l2-5l-3,1L295,70z M297,70l-1,2
		l2,2l3-3l-1-2l-1,2v-2l-1,2v-2L297,70z M190,189l1,3l3,1L190,189z M101,298l-3,2l1,1h3l-3,1v2l1-2l4-1l-2,1l1,2l-2,1v3l2-2v2h4
		l-4-3l2-2l-1-2l3-1h-1l-1-1l3-3l-3,1l-1,3h-2l1-2H101z M399,432h-4l3,1l1,4l-2,2l1,1l-2,1l1,1l3-1l-1-3l2-2l-2-2V432z M399,432l3-7
		l2-1l-1-2h4l-4-4v-2h-2l1,1l-1,2l1,1v4l-2,1L399,432z"/>
</g>
<g>
	<rect x="269" y="486" opacity="0.75" fill="#FFFFFF" enable-background="new    " width="225" height="36"/>
	<rect x="273" y="490" width="217" height="8"/>
	<text transform="matrix(1 0 0 1 351.6563 517.9998)" font-family="'ArialMT'" font-size="24">50km</text>
</g>
</svg>
