<?xml version="1.0" encoding="UTF-8" standalone="no"?>
<svg
   xmlns:dc="http://purl.org/dc/elements/1.1/"
   xmlns:cc="http://creativecommons.org/ns#"
   xmlns:rdf="http://www.w3.org/1999/02/22-rdf-syntax-ns#"
   xmlns:svg="http://www.w3.org/2000/svg"
   xmlns="http://www.w3.org/2000/svg"
   xmlns:sodipodi="http://sodipodi.sourceforge.net/DTD/sodipodi-0.dtd"
   xmlns:inkscape="http://www.inkscape.org/namespaces/inkscape"
   inkscape:version="1.0 (4035a4fb49, 2020-05-01)"
   sodipodi:docname="Toyama.svg"
   id="svg32"
   version="1.1"
   height="482"
   width="540">
  <metadata
     id="metadata38">
    <rdf:RDF>
      <cc:Work
         rdf:about="">
        <dc:format>image/svg+xml</dc:format>
        <dc:type
           rdf:resource="http://purl.org/dc/dcmitype/StillImage" />
      </cc:Work>
    </rdf:RDF>
  </metadata>
  <defs
     id="defs36" />
  <sodipodi:namedview
     inkscape:current-layer="svg32"
     inkscape:window-maximized="1"
     inkscape:window-y="-8"
     inkscape:window-x="-8"
     inkscape:cy="186.19068"
     inkscape:cx="230.22476"
     inkscape:zoom="1.2587088"
     showgrid="false"
     id="namedview34"
     inkscape:window-height="1017"
     inkscape:window-width="1920"
     inkscape:pageshadow="2"
     inkscape:pageopacity="0"
     guidetolerance="10"
     gridtolerance="10"
     objecttolerance="10"
     borderopacity="1"
     bordercolor="#666666"
     pagecolor="#ffffff" />
  <title
     id="title2">衆議院小選挙区 富山県</title>
  <desc
     id="desc4">Author: Lincun</desc>
  <rect
     id="rect6"
     height="482"
     width="540"
     y="0"
     x="0"
     fill="#eeeeee" />
  <path
     fill="#cccccc"
     d="m 512,-1 -2,1 -3,3 -26,8 -13,5 -10,1 8,7 4,6 4,4 v 2 h 4 l 7,5 12,-1 1,7 4,4 -2,3 v 10 l -2,1 v 9 l 11,14 v 24 l -2,3 10,10 2,9 -2,10 6,6 v 3 l 2,-1 5,-4 h 5 l 3,-3 1,-5 2,-1 V -1 Z m -502,0 1,1 7,4 1,5 -3,4 3,2 -1,12 -3,7 -4,1 2,1 1,4 -6,9 2,4 5,1 2,4 v 7 l -5,24 -3,11 -10,27 v 356 h 59 v -3 l -3,-1 -1,-3 -4,-2 -1,-3 H 39 v -3 l -4,-3 v -5 l -6,-6 -1,-4 -2,-8 1,-7 -3,-4 1,-3 -1,-5 2,-4 h 3 l 6,-5 1,-2 -1,-3 -3,-4 v -7 l -2,-2 v -11 l -9,-8 h -4 v -6 h -1 l 1,-5 2,-1 2,1 5,-5 5,-3 -4,-2 -1,-4 5,-5 -1,-2 1,-3 -1,-4 4,-6 v -3 h -2 l -3,-5 2,-3 -1,-5 9,-18 2,-9 -7,-10 -6,-1 2,-10 v -3 l -3,-2 v -8 l -3,-6 2,-9 4,-1 3,-3 v -7 l 4,-1 1,-6 7,-8 -2,-3 1,-4 -1,-2 -5,-1 3,-9 -9,-6 -4,-6 2,-1 1,-6 6,1 6,-1 1,-6 6,-2 3,-2 3,-6 2,-2 2,-7 -5,-8 4,-3 2,-5 -2,-4 -1,-8 3,-3 3,-7 -2,-7 3,-1 v -4 l 3,-2 -3,-2 v -4 l 5,-1 1,-3 3,-3 2,-3 -1,-3 2,-2 -2,-3 -2,-6 1,-5 3,-5 4,-3 1,-3 11,-4 7,-13 3,1 9,-4 10,7 5,-5 1,-8 1,-1 h 5 l 5,4 7,-2 3,1 6,-3 7,5 2,-6 -3,-5 -1,-6 3,-6 -3,-5 -1,-4 z m 531,140 -2,1 -1,5 -3,3 h -5 l -5,4 -2,1 -4,8 -1,2 2,5 2,1 -3,5 1,3 -2,1 1,6 -2,8 4,6 -1,5 2,1 1,14 -4,4 2,7 -2,13 -3,1 -1,7 4,12 -1,4 -13,1 -6,6 -10,6 -3,4 1,5 -3,10 14,2 -4,5 1,6 -4,2 -1,3 -3,-2 -6,-1 -1,2 -4,2 v 9 l -5,1 -3,3 -1,6 3,5 v 8 l -5,2 -3,6 -2,11 -2,2 -5,1 -3,3 h -4 l -1,4 -2,1 1,6 -6,8 h -3 v 11 l 4,2 3,-1 9,3 9,15 5,1 v 7 l 4,5 -2,8 2,3 -3,5 v 5 l -9,6 -4,8 -4,1 -4,10 -1,1 h 97 z m -97,344 1,-1 4,-10 4,-1 4,-8 9,-6 v -5 l 3,-5 -2,-3 2,-8 -4,-5 v -7 l -5,-1 -9,-15 -9,-3 -3,1 -4,-2 v -11 l -5,-2 -3,2 -6,1 -10,-3 -5,-6 -5,-2 -3,-4 -2,-8 -19,-1 -3,5 -4,4 -6,-3 -2,2 -4,-4 h -5 l -5,-4 -4,1 -3,-2 -4,-6 v -9 l -3,-6 -1,2 -5,3 -4,-1 -5,3 -1,4 v 4 l -4,3 -6,-1 -2,2 h -2 l -6,4 h -3 l -4,-7 4,-4 -1,-2 1,-3 2,-1 v -6 l -6,-2 -4,4 -10,-5 -7,4 -4,5 -5,-7 -4,7 -4,4 -5,1 -1,3 h -3 v 5 l -3,-1 -1,3 -1,-6 -3,-6 -3,-1 1,-3 -1,-2 -5,2 -2,-1 -2,3 -2,-3 -6,-1 -3,5 -4,1 -1,5 -6,3 -5,10 h -2 l -3,2 -2,5 -3,5 h -3 l -2,2 1,3 v 5 h -9 l -10,7 v 3 l 2,1 -7,13 5,2 -3,3 v 6 l -7,7 -10,-1 v 5 l 1,1 -5,7 1,3 -5,4 -9,1 v 2 l -5,5 -3,-2 -1,2 -1,-2 h -4 l 2,-4 -1,-2 4,-6 v -5 l 3,-3 -2,-4 -4,-5 -4,-10 h -2 l -2,-4 -4,-3 -3,1 -4,-3 -9,-5 -9,10 -4,2 -2,-2 -2,2 1,-5 -3,1 v -2 l 3,-3 v -3 h -2 v -4 h -1 l -3,8 v 3 h -5 l -1,2 -4,-3 -4,3 3,9 -5,11 -2,5 h 1 l -3,3 h -8 l -3,-2 -6,4 1,4 6,6 v 5 l 4,3 v 3 h 10 l 1,3 4,2 1,3 3,1 v 3 z"
     id="path8"
     style="stroke:#000000;stroke-width:0.2;stroke-linejoin:round" />
  <path
     fill="#f6bad3"
     d="m 330,132 -19,13 -1,5 -6,6 -8,3 -6,-1 -4,2 -27,-5 h -7 l -1,2 h -2 -15 l -2,2 h -5 l -31,-11 h -1 l 1,2 -1,4 -3,3 -1,-1 1,-3 -4,-1 -5,-1 -1,-1 h 1 l 2,1 v -3 h 4 l 4,1 -2,-3 2,-2 -7,-2 -2,2 -4,-1 -3,-1 -2,-2 h 2 l -7,-4 -7,-6 -4,-6 -15,-11 -12,-12 -2,-5 2,-2 v -2 l -1,2 -1,-2 v 3 l -3,-9 1,-4 2,-1 2,1 1,-4 8,-9 3,-8 4,-2 v -3 l 4,-2 -3,-11 13,-12 -7,-5 -6,3 -3,-1 -7,2 -5,-4 h -5 l -1,1 -1,8 -5,5 -10,-7 -9,4 -3,-1 -7,13 -11,4 -1,3 -4,3 -3,5 -1,5 2,6 2,3 -2,2 1,3 -2,3 -3,3 -1,3 -5,1 v 4 l 3,2 -3,2 v 4 l -3,1 2,7 -3,7 -3,3 1,8 2,4 -2,5 -4,3 5,8 -2,7 -2,2 -3,6 -3,2 -6,2 -1,6 -6,1 -6,-1 -1,6 -2,1 4,6 9,6 -3,9 5,1 1,2 -1,4 2,3 -7,8 -1,6 -4,1 v 7 l -3,3 -4,1 -2,9 3,6 v 8 l 3,2 v 3 l -2,10 6,1 7,10 -2,9 -9,18 1,5 -2,3 3,5 h 2 v 3 l -4,6 1,4 -1,3 1,2 -5,5 1,4 4,2 -5,3 -5,5 -2,-1 -2,1 -1,5 h 1 v 6 h 4 l 9,8 v 11 l 2,2 v 7 l 3,4 1,3 -1,2 -6,5 h -3 l -2,4 1,5 -1,3 3,4 -1,7 2,8 6,-4 3,2 h 8 l 3,-3 h -1 l 2,-5 5,-11 -3,-9 4,-3 4,3 1,-2 h 5 v -3 l 3,-8 h 1 v 4 h 2 v 3 l -3,3 v 2 l 3,-1 -1,5 2,-2 2,2 4,-2 9,-10 9,5 4,3 3,-1 4,3 2,4 h 2 l 4,10 4,5 2,4 -3,3 v 5 l -4,6 1,2 -2,4 h 4 l 1,2 1,-2 3,2 5,-5 v -2 l 9,-1 5,-4 -1,-3 5,-7 -1,-1 v -5 l 10,1 7,-7 v -6 l 3,-3 -5,-2 7,-13 -2,-1 v -3 l 10,-7 h 9 v -5 l -1,-3 2,-2 h 3 l 3,-5 2,-5 3,-2 h 2 l 5,-10 6,-3 1,-5 4,-1 3,-5 6,1 2,3 2,-3 2,1 5,-2 1,2 -1,3 3,1 3,6 1,6 1,-3 3,1 v -5 h 3 l 1,-3 5,-1 4,-4 4,-7 5,7 4,-5 7,-4 10,5 4,-4 6,2 v 6 l -2,1 -1,3 1,2 -4,4 4,7 h 3 l 6,-4 h 2 l 2,-2 6,1 4,-3 v -4 l 1,-4 5,-3 4,1 5,-3 1,-2 3,6 v 9 l 4,6 3,2 4,-1 5,4 h 5 l 4,4 2,-2 6,3 4,-4 3,-5 19,1 2,8 3,4 5,2 5,6 10,3 6,-1 3,-2 5,2 h 3 l 6,-8 -1,-6 2,-1 1,-4 h 4 l 3,-3 5,-1 2,-2 2,-11 3,-6 5,-2 v -8 l -3,-5 1,-6 3,-3 5,-1 v -9 l 4,-2 1,-2 6,1 3,2 1,-3 4,-2 -1,-6 h -2 l -3,5 -11,-4 -9,4 -33,-22 -3,-1 h -7 l -14,7 -4,-2 -7,2 -6,-1 v -4 l -4,-4 -2,1 -5,-5 h -7 l -9,-4 -10,-8 -4,1 h -6 l -23,7 -6,1 -8,-2 -5,-3 -7,-7 -5,-12 -10,-13 -5,-11 1,-16 -4,-15 h 5 l 1,-2 v 1 l 2,-5 7,-6 1,4 2,-3 h 2 l 2,-2 3,-1 -2,-6 8,2 3,-2 -1,-3 -3,-2 2,-3 4,3 v 2 l 1,-1 6,3 v 5 l 3,-3 3,-1 5,3 -2,-3 7,6 7,-5 7,2 3,-4 3,5 3,1 -2,7 4,1 4,5 -1,-10 5,8 h 3 l 1,-4 3,3 3,-9 -1,-4 h 10 l 8,8 1,3 -3,10 5,7 5,-1 5,3 3,-1 6,2 5,-1 5,2 8,-2 1,-4 9,10 3,7 4,1 3,9 h 9 l 1,3 h 11 l 7,-3 1,-4 4,2 13,10 6,2 9,-1 3,-1 2,-13 -2,-7 4,-4 -1,-14 -2,-1 1,-5 -4,-6 2,-8 -1,-6 2,-1 -1,-3 3,-5 -2,-1 -2,-5 1,-2 -3,-9 -51,-43 v -9 l -6,-1 -2,1 -2,-5 h -2 l -3,-4 -4,-1 -8,9 h -3 l -2,-5 v -3 l -2,-2 -4,-1 -7,-5 -4,1 -2,-8 -3,-4 -2,1 3,8 1,8 -17,-9 -7,-6 -23,-7 -14,-13 -9,16 3,4 2,-1 v 1 l -2,1 2,6 -1,8 -3,4 v 9 l -6,8 -3,8 h 1 l -1,10 z m 4,50 -1,1 -1,-3 h 1 z"
     id="path10"
     style="stroke:#000000;stroke-width:0.2;stroke-linejoin:round" />
  <path
     fill="#ece3b4"
     d="m 516,243 -9,1 -6,-2 -13,-10 -4,-2 -1,4 -7,3 h -11 l -1,-3 h -9 l -3,-9 -4,-1 -3,-7 -9,-10 -1,4 -8,2 -5,-2 -5,1 -6,-2 -3,1 -5,-3 -5,1 -5,-7 3,-10 -1,-3 -8,-8 h -10 l 1,4 -3,9 -3,-3 -1,4 h -3 l -5,-8 1,10 -4,-5 -4,-1 2,-7 -3,-1 -3,-5 -3,4 -7,-2 -7,5 -7,-6 2,3 -5,-3 -3,1 -3,3 v -5 l -6,-3 -1,1 v -2 l -4,-3 -2,3 3,2 1,3 -3,2 -8,-2 2,6 -3,1 -2,2 v 5 l 2,2 -4,4 v -1 h -2 l 2,3 -3,3 -3,-1 -1,2 -1,-3 3,-7 h -2 v -2 h -3 l -2,5 v -1 l -1,2 h -5 l 4,15 -1,16 5,11 10,13 5,12 7,7 5,3 8,2 6,-1 23,-7 h 6 l 4,-1 10,8 9,4 h 7 l 5,5 2,-1 4,4 v 4 l 6,1 7,-2 4,2 14,-7 h 7 l 3,1 33,22 9,-4 11,4 3,-5 h 2 l 4,-5 -14,-2 3,-10 -1,-5 3,-4 10,-6 6,-6 13,-1 1,-4 -4,-12 z M 411,30 l -14,1 -12,3 -16,10 -12,5 -5,3 v 2 l 14,13 23,7 7,6 17,9 -1,-8 -3,-8 2,-1 3,4 2,8 4,-1 7,5 4,1 2,2 v 3 l 2,5 h 3 l 8,-9 4,1 3,4 h 2 l 2,5 2,-1 6,1 v 9 l 51,43 3,9 4,-8 v -3 l -6,-6 2,-10 -2,-9 -10,-10 2,-3 V 88 L 498,74 v -9 l 2,-1 V 54 l 2,-3 -4,-4 -1,-7 -12,1 -7,-5 h -4 v -2 l -4,-4 -4,-6 -8,-7 -25,4 -6,7 z m -77,152 -1,-2 h -1 l 1,3 z"
     id="path12"
     style="stroke:#000000;stroke-width:0.2;stroke-linejoin:round" />
  <path
     fill="#b6f2dc"
     d="m 296,193 v -5 h -2 l -2,3 -1,-4 -7,6 h 3 v 2 h 2 l -3,7 1,3 1,-2 3,1 3,-3 -2,-3 h 2 v 1 l 4,-4 z"
     id="path14"
     style="stroke:#000000;stroke-width:0.2;stroke-linejoin:round" />
  <path
     fill="none"
     stroke-linecap="round"
     d="m 330,132 7,9 7,15 8,10 11,21 m 73,20 -2,-5 v -6 l 11,-9 2,-8 -2,-3 h -5 l -4,-5 -3,-9 -10,-6 -2,-3 -9,-2 -5,-7 -7,2 -7,-6 v -5 l -4,-6 4,-7 v -5 l -13,-7 -11,-1 -11,-5 -1,-4 -3,1 -4,-4 -6,-4 m -285,47 12,3 2,-2 2,2 2,-1 1,4 4,2 h 2 l 3,-4 2,4 8,3 3,-3 h 3 l 3,-4 4,-1 -2,-3 4,-2 4,6 2,-4 5,-2 3,1 2,-3 h 2 l 1,-1 12,3 -1,-2 2,-2 -2,-3 -4,-1 -3,-4 2,-1 h -1 l 1,-2 2,2 v -3 l 2,1 v -5 h 1 l -1,-1 3,-4 m 44,39 -6,4 -2,-2 -3,2 -7,-4 h -4 l -1,-2 h -3 l -2,4 1,9 -3,7 -3,3 -1,1 2,1 -15,21 14,6 -2,8 1,-1 5,5 -2,3 2,1 v 3 l -2,2 -4,-1 -1,-1 v -2 l -6,-2 1,-4 h -6 l -2,9 -5,-1 -6,2 v -4 l 2,-2 -1,-3 h -5 l -2,4 h -4 l -1,3 h -3 l -1,-1 v -5 l -2,-1 -1,-6 -3,1 -1,-4 -1,2 v -2 l -2,2 -3,-3 -4,1 2,4 4,1 -1,2 2,2 -7,-2 -1,-2 -1,4 h -2 l 1,2 -2,2 2,1 -1,1 1,1 h -1 l 1,3 -3,3 3,6 h 2 l -4,5 -2,-1 -1,5 -1,3 h 1 2 l 6,3 1,2 -1,1 6,4 5,1 4,4 h 3 l 1,2 -1,2 6,5 v 2 l -1,2 2,1 -1,1 4,6 3,3 h 2 l 1,4 7,3 -1,4 17,2 m -57,-92 -2,-4 -5,2 -1,-4 v -4 l -2,-1 -7,2 v -3 l -2,-2 v -7 l -5,1 -6,-6 -2,1 -2,-6 h -2 l -1,-2 h -5 l -4,-4 m 132,-18 h -1 v -2 h -2 l -2,1 h -5 l 1,-5 -8,-3 1,-2 4,-3 m 15,12 h -2 v 2 m -22,80 2,-4 -3,-2 -1,-3 m -132,34 4,1 2,-3 -2,-3 2,-2 h 7 l -2,10 4,-1 1,2 5,1 5,6 4,2 5,-12 1,2 4,-2 1,2 9,-2 7,2 3,-9 2,1 -4,-7 3,-1 m -1,3 h 1 m 367,-11 -4,3 2,5 -4,3 -1,6 -3,4 1,6 -7,3 h -6 l -1,-3 -3,-1 -11,2 -7,-7 -5,-1 -7,5 h -8 v -6 l -7,-1 -3,3 -4,-1 -8,4 h -5 l -4,-2 v -4 l -7,-9 -11,-1 v -4 l -6,-3 -3,-7 -3,-1 -2,-4 h -5 l -4,-5 v -3 h -3 l 1,-2 -2,-6 -3,-1 h -2 v -2 l -3,-3 h -2 l -2,-3 2,-2 -1,-2 -2,-2 -6,1 M 411,30 410,41 h -2 v 2 l -1,-1 h -2 l -1,5 -1,8 2,2 1,6 2,-1 1,1 2,-2 8,1 1,6 -2,5 1,3 h 5 v 3 l 7,1 5,-4 8,9 2,5"
     id="path16"
     style="stroke:#000000;stroke-width:0.2;stroke-linejoin:round" />
  <path
     fill="none"
     stroke-width="1.6"
     stroke-linecap="round"
     d="m 284,241 -5,-11 1,-16 -4,-15 h 5 l 1,-2 v 1 l 2,-5 7,-6 1,4 2,-3 h 2 l 2,-2 3,-1 -2,-6 8,2 3,-2 -1,-3 -3,-2 2,-3 -1,-2 -3,-2 -2,-4 -2,1 -2,-3 h -2 v -2 m -117,64 7,-17 1,2 h 3 l 2,-3 h 5 l 1,-3 -1,-2 2,-2 -2,-3 1,-2 h -1 l -1,-4 4,-2 -1,-3 3,-1 v -3 h 5 2 l 1,-4 2,-3 -1,-1 1,-2 6,-3 4,1 4,-2 1,-7 m -63,245 -4,2 -2,-3 6,-15 -1,-9 3,-9 -3,-7 4,-10 -3,-8 1,-5 -2,-3 -1,-12 -4,-6 h -4 l -3,4 -2,-2 3,-7 -1,-12 2,-5 1,-16 2,-3 -1,-6 3,-3 -1,-3 3,-3 v -4 h 2 v -4 l 2,-15 4,-5 -3,-4 -4,-1 7,-7 2,2 h -3 l 2,1 h 2 l 3,3 2,-1 -5,-3 3,-1 2,-6 3,5"
     id="path18"
     style="stroke:#000000;stroke-linejoin:round;stroke-width:0.2;stroke-miterlimit:4;stroke-dasharray:none" />
  <g
     id="g30">
    <rect
       id="rect24"
       height="36"
       width="122"
       y="442"
       x="414"
       opacity="0.75"
       fill="white" />
    <rect
       id="rect26"
       height="8"
       width="114"
       y="446"
       x="418"
       fill="black" />
    <text
       id="text28"
       y="474"
       x="475"
       font-family="sans-serif"
       font-size="24"
       text-anchor="middle"
       fill="black">20km</text>
  </g>
</svg>
