<?xml version="1.0" encoding="UTF-8" standalone="no"?>
<svg
   xmlns:dc="http://purl.org/dc/elements/1.1/"
   xmlns:cc="http://creativecommons.org/ns#"
   xmlns:rdf="http://www.w3.org/1999/02/22-rdf-syntax-ns#"
   xmlns:svg="http://www.w3.org/2000/svg"
   xmlns="http://www.w3.org/2000/svg"
   xmlns:sodipodi="http://sodipodi.sourceforge.net/DTD/sodipodi-0.dtd"
   xmlns:inkscape="http://www.inkscape.org/namespaces/inkscape"
   inkscape:version="1.0 (4035a4fb49, 2020-05-01)"
   sodipodi:docname="Hiroshima.svg"
   id="svg32"
   version="1.1"
   height="489"
   width="534">
  <metadata
     id="metadata38">
    <rdf:RDF>
      <cc:Work
         rdf:about="">
        <dc:format>image/svg+xml</dc:format>
        <dc:type
           rdf:resource="http://purl.org/dc/dcmitype/StillImage" />
      </cc:Work>
    </rdf:RDF>
  </metadata>
  <defs
     id="defs36" />
  <sodipodi:namedview
     inkscape:current-layer="svg32"
     inkscape:window-maximized="1"
     inkscape:window-y="-8"
     inkscape:window-x="-8"
     inkscape:cy="251.12777"
     inkscape:cx="161.06108"
     inkscape:zoom="1.2406904"
     showgrid="false"
     id="namedview34"
     inkscape:window-height="1017"
     inkscape:window-width="1920"
     inkscape:pageshadow="2"
     inkscape:pageopacity="0"
     guidetolerance="10"
     gridtolerance="10"
     objecttolerance="10"
     borderopacity="1"
     bordercolor="#666666"
     pagecolor="#ffffff" />
  <title
     id="title2">衆議院小選挙区 広島県</title>
  <desc
     id="desc4">Author: Lincun</desc>
  <rect
     id="rect6"
     height="489"
     width="534"
     y="0"
     x="0"
     fill="#eeeeee" />
  <path
     fill="#aaaaaa"
     d="m 405,-1 -1,2 -1,7 -2,2 2,5 -3,7 1,6 -1,1 2,4 6,-4 3,2 14,-3 7,3 1,-1 v -3 l 6,-1 7,9 2,-3 h 3 l 2,-2 -1,-10 2,-3 2,-1 4,3 5,1 5,-6 5,3 8,-6 h 9 l 3,-3 V 3 l -2,-4 z m -266,0 2,2 -1,4 -6,3 v 2 l -2,-2 v 3 l -3,1 -1,3 -1,-1 -1,2 v -1 1 l -4,2 3,3 h -2 l -3,-2 -2,3 1,5 -3,2 -2,4 -4,5 h -3 l -6,4 -4,2 -3,-2 -7,3 -18,19 -11,5 -3,6 -8,5 h -3 l -3,2 1,4 -2,2 -3,-1 -3,2 v 2 l -5,5 2,3 v -2 h 2 l -2,1 1,2 -3,-2 -2,2 2,5 -1,1 -1,-2 v 3 l -3,4 h 1 l -1,2 h -4 l -1,-1 2,-1 -2,1 -1,-3 -3,2 v 1 l -3,2 v 3 -2 l -1,1 1,-3 -4,2 -1,2 3,2 -2,5 -5,2 -2,6 -2,1 v 201 l 3,-5 h 4 l 2,-3 v -5 l -9,-13 3,-6 5,-2 2,-2 v -6 l 2,-4 4,-1 2,-2 h 6 4 l -4,-6 1,-4 -2,-3 -6,-1 4,-6 2,-6 11,-3 5,-8 5,-3 2,-7 2,-2 v -2 l 2,-3 -4,-3 -1,-4 5,-7 -1,-5 5,-6 5,-10 2,-1 v -3 l -1,-2 h -5 l -2,-1 -3,-2 1,-4 h 3 l 1,-3 11,-6 1,-3 4,2 5,-7 2,2 4,-2 2,-9 6,-5 v -7 l -1,-2 4,-1 h 3 l 3,3 h 3 l -1,3 2,1 v 3 l 6,3 3,-7 3,-4 3,4 4,1 11,-5 6,3 -1,4 4,1 1,2 7,-8 3,-1 -1,-6 h 3 l 2,-3 7,6 -1,3 6,-1 5,2 4,-2 3,3 5,-4 7,4 5,-5 h 5 l 1,-2 4,-2 1,-3 2,1 3,-5 h 4 l 1,-4 h 6 l 2,1 3,1 2,-1 3,3 h 3 l 2,-5 2,-3 4,1 1,2 1,1 5,-3 -4,-14 -7,-1 -2,-4 -4,2 -4,-5 -5,1 -1,-2 h 3 l 3,-7 9,-5 3,-8 4,-1 2,1 2,-2 4,3 7,-6 1,3 2,-2 v -2 l 2,-1 -3,-4 h 4 l 4,-3 -1,-3 -1,-1 1,-1 8,-4 v -4 l 7,-6 2,-5 4,-3 h 4 v -2 l -3,-4 11,-13 4,-4 7,-1 h 2 l 4,8 h 5 l 1,2 2,-1 6,3 8,-3 2,-2 1,-4 3,-2 3,2 1,3 4,1 1,4 h 3 l 3,4 6,-1 3,-4 9,1 4,-3 2,1 6,-1 2,3 4,2 1,-1 -1,-6 3,-7 -2,-5 2,-2 1,-7 1,-2 z M 26,103 v -3 l -1,2 z m -3,-4 -3,2 h 3 z m 470,-100 2,4 v 5 l -3,3 h -9 l -8,6 -5,-3 -5,6 -5,-1 -4,-3 -2,1 -2,3 1,10 -2,2 h -3 l -2,3 v 4 l 7,5 5,9 4,1 2,3 v 10 l -6,5 v 3 l -2,3 4,8 -3,4 1,6 -3,5 1,5 3,6 9,9 -1,1 2,4 v 3 l 5,3 -1,-1 2,1 2,4 h 4 l 3,5 v 5 l -3,3 3,3 -3,3 -1,3 1,3 -2,2 2,2 v 3 l -4,5 5,4 v 5 l 1,7 5,4 -2,2 7,4 -2,8 -3,4 v 3 l 1,2 -2,4 3,4 1,7 6,4 h 3 l 2,7 7,6 1,5 v 2 l 2,3 -3,5 1,3 -2,3 h 3 l 1,3 -3,8 3,1 v 8 l 4,1 6,-4 2,2 -5,5 v 3 h 5 l 4,-4 6,1 1,-1 v -9 h -1 l -11,-18 5,6 1,-2 v 3 l 2,-1 3,4 v 5 l 1,1 V -1 Z m 42,336 -1,-1 1,2 v 1 z m 0,-17 -1,2 1,1 z m 0,-10 -1,2 v -1 l -2,2 h -2 l 2,7 3,-2 z m -4,33 v -3 l -4,-3 v 4 z m -2,-40 -1,2 2,1 3,-2 1,-3 h -2 z m -456,189 3,-7 3,-7 v -9 l -1,-2 1,1 v -3 l -3,-1 -1,-7 1,-6 -4,-11 v -3 h 2 v -2 h -2 l 1,-2 6,-1 1,-2 4,2 3,-9 h 2 l 1,-9 -1,2 -1,-2 h 1 -1 v -3 l -2,-1 v -2 l -2,1 -1,-2 h 2 l -2,-1 1,-3 h 2 l 3,-4 v -2 l -9,1 -4,2 -3,-2 -2,1 -1,-1 4,-9 -2,1 v -2 h -2 v 2 l -4,-2 -3,2 -2,-1 2,-2 h -2 -3 v 2 l -3,-4 h -2 l 1,-8 -5,-7 3,-5 -4,-4 -1,1 1,-2 h -2 l 2,-3 -1,-1 -1,-2 v -4 l 2,-1 -1,-5 -7,3 -2,-4 v -4 l -4,-3 -1,-2 h -6 l 1,-6 1,-1 -1,-1 2,-5 -3,-1 2,-5 -2,-6 3,-4 -1,-3 2,-4 -4,-11 h -4 -6 l -2,2 -4,1 -2,4 v 6 l -2,2 -5,2 -3,6 9,13 v 5 l -2,3 H 2 l -3,5 v 156 z m 45,-7 -1,4 1,1 2,-3 z m 35,0 v -3 3 h 2 z m -5,-12 -5,2 1,5 8,2 v -2 h 1 z m 2,-3 -2,2 h 4 z m -11,-2 -5,3 h 2 l 1,4 z m 2,-7 -2,1 3,1 1,-1 z m -44,24 -2,-3 -2,1 3,6 1,-1 v -2 h -1 z m 17,-50 -2,-1 v 2 z m 393,57 v -1 l -8,1 -1,-2 h -6 l -2,2 h -1 z m -31,0 -3,-3 h -1 v 3 z m -7,0 1,-1 -2,-3 h -2 l -3,4 z m -16,0 -1,-1 -1,1 z m -77,0 -10,-22 -4,-5 -1,-5 h -1 l -4,-4 v 2 l -1,-1 -9,-15 v -5 h -2 l -1,4 -1,-3 -1,-2 -4,-2 -4,-8 -2,7 -5,4 -3,-2 -8,1 3,4 2,-2 7,2 1,5 v 4 h -3 l 1,7 -2,1 2,2 -3,1 -5,-2 -4,3 -7,2 -2,-1 -2,1 -1,5 h -4 l -2,4 h -2 l -8,6 -3,4 -5,1 -5,4 h -2 l 3,3 -1,2 z m -191,0 1,-1 h -7 l -1,1 z m 15,0 1,-3 -11,2 v 1 z m 28,0 -1,-8 3,-1 1,-3 -3,-1 1,3 -5,2 -3,6 -5,-2 -1,4 z m 23,-37 -3,4 2,-2 h 2 z m -40,18 -3,3 3,-1 z m 146,-48 -1,-1 v 2 z m -5,-6 -3,3 7,2 1,-3 z m 28,7 4,-7 h 5 l 3,-5 v -4 l -2,2 -8,2 -2,-2 v -5 l -3,-2 -12,-1 -5,7 2,2 h 3 l 3,10 -3,1 -2,-5 -2,2 1,2 -4,3 2,2 -2,4 h 2 l 1,2 -3,5 7,2 4,-6 4,-1 2,-5 z m 7,52 2,-1 -1,-2 -3,2 z m 1,-16 h 2 l -3,-2 z m -37,-27 -2,1 1,3 2,-1 z m -4,-3 h -2 l -1,3 2,-1 z m -16,-33 -2,3 2,-1 z m 4,-19 -1,4 4,-1 z m 24,17 6,1 9,-5 -2,-3 -1,-6 2,-7 -4,-1 -4,-11 -3,-4 -5,-2 -5,4 h -5 l -1,3 3,4 -2,2 h -4 l -2,2 2,3 5,-2 2,1 -1,3 h 2 v 2 h -2 l 2,2 -2,9 -2,-1 -1,-2 -5,1 v 3 l -2,-1 h -2 l -4,8 h 3 l -1,5 h 5 l 11,-4 2,-4 z m -41,8 -1,2 1,1 3,-3 z m -10,-2 -3,1 6,8 1,-3 4,-1 v -2 z m 18,3 h -2 l 2,2 h 4 l -4,-7 -1,3 z m 93,36 1,-2 -4,-1 v 2 l 1,-1 v 2 z m -1,-8 -1,3 h 2 v -2 l 2,-1 z m -9,-1 -1,1 1,2 z m -23,-28 -2,-1 -2,5 h 2 z m 93,9 2,3 v -3 l -2,-2 z m -11,-3 -1,-2 -1,1 -5,-2 3,6 4,-1 z m -19,-9 -3,1 1,6 3,-1 z m -53,-1 -2,-2 5,-3 2,1 1,-4 -2,2 -9,-3 1,-2 -2,-2 2,-1 -1,-3 -2,2 -3,-1 -4,4 -3,-1 -1,-2 -3,2 -1,2 3,3 -1,1 -4,2 2,3 4,-2 3,7 7,-5 4,6 5,-2 z m 12,-12 -3,3 v 3 z m 5,-5 -1,-2 h -4 l -2,2 v 3 h 6 z m -3,-10 -4,-7 -2,1 -5,9 1,7 6,-2 5,-4 z m 36,13 -2,-1 -3,3 z m -24,-8 -2,-2 -2,2 -2,6 1,3 h -2 l 2,2 3,-3 v -4 l 2,-1 z m 4,0 v -3 l 6,-3 4,-4 -3,-7 -6,4 v 3 l -4,3 v 3 l 2,2 -2,7 2,1 5,-5 z m -14,-13 -1,1 1,4 h 2 l -2,3 1,3 h 5 l 1,-5 h -1 l -4,-7 z m 71,118 -1,-2 -2,2 -2,-1 -2,4 5,3 2,-2 z"
     id="path8"
     style="stroke:#000000;stroke-width:0.2;stroke-linejoin:round" />
  <path
     fill="#16a34a"
     d="m 165,350 -1,2 1,1 z m -7,-4 -4,3 1,2 -2,3 -5,3 h 2 l 1,-1 3,2 2,-1 2,1 -2,-4 h 2 l 2,-4 z m 15,-4 v -4 h -3 l 1,6 z m -9,-7 -1,2 2,3 z m 20,-5 h 1 l 9,-9 h 4 l 3,2 v 2 l 5,1 v -3 h 7 l 6,2 5,6 -1,4 h 4 l 2,-2 v -2 l 3,-3 -4,-9 1,-3 -2,-1 4,-10 5,-2 v -3 l -4,-4 -2,3 -3,-2 -2,-4 -4,2 h -3 l -1,-3 -4,-2 2,-8 2,-1 -4,-2 1,-1 6,-2 5,-7 4,1 1,-6 5,-3 1,-2 1,1 1,-2 5,4 3,-2 1,-3 h -3 l -1,-2 2,-2 -1,-5 1,-1 -3,-3 4,-10 -5,-6 -3,-1 1,-1 -5,4 h -3 l -2,-1 -4,3 -1,-1 -6,-2 -2,3 v 4 l -6,2 -1,4 -5,4 -2,-5 -8,-4 -5,-2 1,-3 -3,-5 h -2 l -3,4 -4,2 -1,-4 -6,-3 v -1 l -5,-1 -3,4 -6,5 -5,-5 -3,2 -4,-1 v 1 l -2,-2 -3,5 v 3 l -1,1 1,8 -1,4 -5,1 -2,5 -3,1 2,-3 -2,-6 v 3 l -10,-1 -13,2 -8,6 -7,2 -4,6 v 4 l -8,-3 -4,2 v 4 l -3,1 h -3 l 5,5 -3,7 v 8 l -4,1 1,1 -2,2 5,3 -1,4 2,4 7,-1 4,-6 h 3 l 3,3 h 2 l 1,4 10,2 v 9 l 6,2 1,-3 -1,-7 4,-5 1,6 h 4 l -3,6 1,2 -1,2 4,2 2,4 h 4 v 5 l 7,-2 v 1 l -2,1 2,4 -1,-4 4,-2 1,3 v -4 l 1,1 7,-2 4,3 v -2 l 3,2 6,3 4,2 3,-7 v 5 h 4 l 4,-3 v 2 l 1,-1 h 2 v 1 h -2 3 l 2,-1 h 3 z m -2,4 3,-1 v -1 z m 4,-2 -1,1 6,18 h 7 v -4 l -2,-5 1,-4 -4,-8 -2,2 h -4 z m 6,-25 -4,13 -3,2 -1,3 h -6 v -6 l -1,-2 2,-4 4,-1 1,-4 5,-2 z"
     id="path10"
     style="stroke:#000000;stroke-width:0.2;stroke-linejoin:round" />
  <path
     fill="#16a34a"
     d="m 478,328 3,-1 4,-3 v -2 h 2 l -1,-6 2,-11 8,-3 -2,-3 2,-1 8,6 3,-5 -3,-2 1,-1 -9,-6 1,-6 -1,-3 h 2 v 8 l 10,6 1,-10 -1,-6 v -1 l 1,2 3,-8 -1,-3 h -3 l 2,-3 -1,-3 3,-5 -2,-3 v -2 l -1,-5 -7,-6 -2,-7 h -3 l -6,-4 -1,-7 -3,-4 2,-4 -1,-2 v -3 l 3,-4 2,-8 -7,-4 2,-2 -5,-4 -1,-7 h -5 l 4,5 v 4 h -4 l -4,5 h -2 v 5 l -6,5 -2,8 -2,-1 -2,-4 -3,2 -2,-1 v -6 l -1,-4 -1,4 -1,-2 -4,-1 -2,2 -2,6 -1,-2 -1,3 -6,2 -2,-3 h -6 l -4,-4 -6,-2 3,-4 h -4 v -2 l 2,-3 3,-1 2,-3 -4,-7 h -3 l -2,-3 -2,1 -3,-6 -1,1 3,-6 -1,-6 1,-5 -6,-7 -4,-1 -1,-4 3,-6 -4,-6 3,-3 1,-4 4,-2 2,-4 5,2 6,-1 8,-4 6,11 v 3 l -1,2 3,1 2,4 v -4 l 11,-7 -2,-1 2,-4 -2,-1 2,-1 11,2 7,-2 1,-1 -9,-9 -3,-6 -1,-5 3,-5 -1,-6 3,-4 -4,-8 2,-3 v -3 l 6,-5 V 57 l -2,-3 -4,-1 -5,-9 -7,-5 v -4 l -7,-9 -6,1 v 3 l -1,1 -7,-3 -14,3 -3,-2 -6,4 -2,-4 -4,-2 -2,-3 -6,1 -2,-1 -4,3 -9,-1 -3,4 -6,1 -3,-4 h -3 l -1,-4 -4,-1 -1,-3 -3,-2 -3,2 -1,4 -2,2 -8,3 -6,-3 -2,1 -1,-2 h -5 l -4,-8 h -2 l -7,1 -4,4 -11,13 3,4 v 2 h -4 l -4,3 -2,5 -7,6 v 4 l -8,4 -1,1 1,1 1,3 -4,3 h -4 l 3,4 -2,1 v 2 l -2,2 -1,-3 -7,6 -4,-3 -2,2 -2,-1 -4,1 -3,8 -9,5 -3,7 h -3 l 1,2 5,-1 4,5 4,-2 2,4 7,1 4,14 -5,3 -1,-1 -1,-2 -4,-1 -2,3 -2,5 h -3 l -3,-3 -2,1 -3,-1 -2,-1 h -6 l -1,4 h -4 l -3,5 -2,-1 -1,3 -4,2 -1,2 h -5 l -5,5 -1,2 5,2 v 3 h 2 l 1,3 3,3 v 8 l 4,2 3,4 -4,5 1,5 -2,5 4,1 1,4 2,-2 h 3 l 1,2 -3,1 v 3 h -2 l -3,4 3,6 -6,9 1,4 -3,4 1,6 -1,2 -8,4 8,4 2,5 5,-4 1,-4 6,-2 v -4 l 2,-3 6,2 1,1 4,-3 2,1 h 3 l 5,-4 -1,1 3,1 5,6 -4,10 3,3 -1,1 1,5 -2,2 1,2 h 3 l -1,3 -3,2 -5,-4 -1,2 -1,-1 -1,2 -5,3 -1,6 -4,-1 -5,7 -6,2 -1,1 4,2 -2,1 -2,8 4,2 1,3 h 3 l 4,-2 2,4 3,2 2,-3 4,4 v 3 l -5,2 -4,10 2,1 -1,3 4,9 -3,3 v 2 l -2,2 h -4 l -2,-1 -5,5 2,6 -3,3 v 2 l -3,5 -3,-4 -7,-2 -1,-3 -3,1 v 4 h -7 l -3,2 2,3 -10,2 3,4 -1,1 2,2 -1,10 h 3 l 2,1 -2,4 3,2 3,-1 v -2 l 2,2 -2,1 h 2 4 l -2,6 -2,-1 1,2 -4,-2 -2,3 4,6 -2,6 11,-2 6,-6 3,-8 4,2 -1,2 5,-1 v 6 l 1,-1 2,1 v 2 h 2 l 1,2 9,-2 v -5 l 2,-1 3,2 3,2 v -5 l 5,-4 v -1 l 8,-3 3,1 4,-2 4,2 h 3 l -1,-3 5,-3 v -2 l -3,-2 -3,2 -1,-1 3,-3 -2,-6 11,2 5,-13 -1,-2 h 5 l 1,-2 h 7 v 5 l 3,3 1,-1 v 4 l 2,-1 v -2 l 1,1 1,-2 2,1 2,-3 2,1 1,-2 -2,1 -1,-3 3,-2 3,1 1,-4 9,-2 v -4 l 3,6 2,-1 8,-6 v 1 l 3,2 1,-2 7,3 4,-3 6,4 10,-3 v 2 l 5,-5 9,-1 2,-14 2,-5 -2,-3 14,6 10,-5 12,-3 7,-4 4,1 5,-2 -1,-2 4,-3 v -5 h 1 l 3,5 -1,-7 h 2 v 2 l 4,1 1,9 v 2 l -4,2 v 2 l -2,-1 -2,1 -2,-1 v 4 l 3,1 3,-2 4,1 3,-4 2,5 3,2 4,-1 1,1 5,3 1,-3 v 2 h 5 l 2,1 v 5 z m -306,142 5,-5 -4,1 z m -6,-12 -2,1 2,1 z m 25,-2 -2,-3 -4,10 4,2 z m -6,-38 3,-3 1,-1 1,2 2,-1 v -4 l 2,-1 4,2 v -4 h -2 v -3 l -2,-1 h -4 l 1,-4 -4,-1 -3,4 -4,1 -5,12 1,5 4,1 -1,6 -5,1 -4,3 -2,-1 v 3 l -2,-1 v 2 h -4 l -3,3 v 7 l 2,-1 1,4 2,1 6,-3 1,2 2,-2 h 4 l 1,-6 h 3 l 2,2 -1,4 1,-2 h 3 l 3,-4 1,4 2,-2 2,1 -1,2 2,2 v 4 l -3,4 3,-1 2,1 1,-2 h -1 l -2,1 -1,-3 h 3 l 4,-8 1,-7 2,-1 4,4 2,-3 -2,2 -1,-1 v -5 l -3,-2 -5,5 h -4 l -1,2 -3,2 1,-3 -1,-3 2,-1 2,-7 3,-4 h -2 l -1,4 v -5 l -6,2 -2,-1 1,-2 z m -71,15 v -2 l -2,1 z m -8,-34 -1,4 1,2 2,-1 v 2 l 5,-1 1,-1 -3,-4 -3,2 z m 8,1 v 1 l 1,-2 z m -28,-27 4,-1 4,-4 h 1 l 1,-3 1,2 1,-3 2,1 4,-8 4,-2 3,-5 3,-3 1,-6 h 1 l -1,-1 2,-2 h 3 l 1,3 4,-2 -1,-1 -2,1 -2,-2 6,-2 1,1 -2,-2 h -3 l 2,-1 v -5 h -4 l -2,-4 -4,-2 1,-2 -1,-2 3,-6 h -4 l -1,-6 -4,5 1,7 -1,3 -6,-2 v -9 l -10,-2 -1,-4 h -2 l -3,-3 h -3 l -4,6 -7,1 -2,-4 1,-4 -5,-3 2,-2 -1,-1 4,-1 v -8 l 3,-7 -5,-5 -7,-11 6,-7 -7,-1 -5,-10 -3,1 -6,-9 -2,2 -2,7 -5,3 -5,8 -11,3 -2,6 -4,6 6,1 2,3 -1,4 4,6 4,11 -2,4 1,3 -3,4 2,6 -2,5 3,1 -2,5 1,1 -1,1 -1,6 h 6 l 1,2 4,3 v 4 l 2,4 7,-3 1,5 -2,1 v 4 l 1,2 1,1 -2,3 h 2 l -1,2 1,-1 4,4 -3,5 5,7 -1,8 h 2 l 3,4 v -2 h 3 2 l -2,2 2,1 3,-2 4,2 v -2 h 2 v 2 l 2,-1 -4,9 1,1 2,-1 3,2 4,-2 9,-1 -3,-7 -6,-3 1,-1 -1,-3 z m 58,39 -1,-1 -1,1 -5,-3 -1,1 1,8 1,3 4,1 5,-1 2,-3 -3,-4 1,-2 z m 9,-1 2,-10 3,1 1,4 3,1 1,3 -3,-2 -1,1 -1,4 h 2 l -2,5 1,2 -6,10 6,-5 v 3 l 1,-2 4,1 7,-4 3,1 -1,-1 1,-4 -2,-6 h -1 l -1,-4 -3,-1 2,-7 2,2 3,-5 v -7 l 3,-9 h -1 l -2,-4 3,-7 -6,-12 v 4 l -2,1 -5,-2 -5,1 -2,-1 -2,1 v 5 l 4,3 -5,5 v 2 l 3,2 h 3 l 2,-5 6,6 3,7 -3,8 -4,-6 -1,-4 -3,3 h -4 v -4 l -5,-10 -11,-1 -4,1 -1,-3 -2,3 6,7 v 4 l -2,2 8,10 5,3 1,7 h 1 z m -20,-45 -4,1 6,1 v -2 z m 17,61 -2,2 h 1 z m 6,-11 -3,3 v 3 l 5,-3 z m 49,-3 -3,3 1,3 2,-2 z m 28,5 h -2 v 2 z m 6,-1 -3,2 1,1 h 2 z m -4,-5 4,-1 3,-6 -1,-4 h -2 l 1,-3 -7,3 -3,4 -2,7 h 2 l 3,-2 z m 45,21 h -1 v 3 l 4,-1 v -2 z m -7,-15 -4,1 v 3 l 5,-2 z m 19,1 7,-2 8,-6 v -3 l -5,-1 1,-2 -3,-2 v -2 l -6,3 -1,3 v -2 h -2 l -4,3 -3,3 1,5 -2,1 3,3 h 4 z m -10,-7 v -3 l -4,-5 -2,1 -3,5 v 5 l 4,1 z m 4,-7 4,-2 v -2 l -3,1 -2,3 z m -21,11 4,-3 2,-4 v -2 h -4 l 1,-4 h -4 l -7,-3 -2,1 -4,-3 h -4 l -4,3 v 6 l 6,1 h 3 l 4,5 1,-2 h 4 l 2,3 -3,3 2,1 1,-3 z m -153,-39 13,-13 v -4 l -3,-2 v -2 l -1,-1 h -1 l -1,-3 -4,4 v 3 h -5 l -6,4 -3,8 -3,4 h -3 v 2 l 2,2 2,7 10,-5 z m 136,14 -2,-1 -1,2 h 2 z m 54,12 -1,-1 -1,1 z m -25,-30 -1,2 2,1 1,-2 z m 75,-18 -1,-3 -2,-1 1,5 z m -19,-8 h -2 l 4,6 z m -48,18 -6,4 5,2 3,-3 z m 103,-24 1,5 -3,-2 1,3 h 3 v 2 l 2,1 3,-3 2,-6 -3,-9 -5,1 z m 3,-13 -3,2 v 2 l 2,-1 z m 5,38 8,-4 1,-4 -1,-4 -2,-3 -3,-1 -10,4 h -2 v -3 l -3,1 -2,2 -5,15 1,4 4,3 4,-1 6,-4 2,-3 z m -15,-10 2,-5 -2,-8 h -1 l -4,3 -1,5 1,4 z m 22,-23 h -2 l 1,2 z m 18,8 -5,2 2,-3 -3,-2 v -5 l -5,-1 h -6 l 1,6 -1,-1 h -3 l 2,3 -3,2 v 3 l 3,1 2,5 2,6 5,2 4,6 4,3 3,-2 -1,-3 5,-5 -3,1 -3,-2 2,-3 4,-3 v -2 h -3 z m -17,-14 -4,4 4,-1 z m 48,14 2,-8 h -3 l -6,5 1,2 -1,3 z m 15,-13 -3,-2 -7,3 -3,4 3,5 2,1 6,-5 6,-1 2,-6 -3,1 -1,-1 -2,4 z m 51,22 h -5 l 2,2 1,-1 2,1 z m -9,-9 1,-1 h 2 v -1 l -7,-4 -2,2 1,3 z m -19,-21 -1,1 3,3 2,-3 -1,-2 h -3 z m -52,3 -2,2 3,2 v -2 z m 13,1 -1,-2 -2,2 -4,-3 v 8 l 4,2 z m -27,-12 -3,1 v 3 l -8,2 1,11 3,1 v 2 l 9,-1 1,2 v -3 h 2 v -7 l 4,-2 1,-4 2,1 v -6 l -8,-2 z m -15,6 -3,4 1,3 h 3 l 3,1 -1,-7 z m -57,-66 -9,-10 -4,2 -1,-4 -5,-1 -3,-3 h -4 v -2 l -5,-1 -2,5 -3,-1 v -5 l -3,-3 -3,-1 3,-3 -3,-1 -4,-3 1,-1 1,1 v -2 l 2,-2 -2,-3 v -4 l 3,1 -1,-8 5,-6 -1,-1 2,-2 11,4 3,-3 h 1 l 2,5 -1,3 2,1 v 2 l 3,2 1,-4 5,3 -1,-5 5,-1 1,-4 10,-1 9,7 2,2 h 5 v 3 l 9,-5 7,3 4,5 h 2 v 3 l 6,-1 3,2 4,6 -1,3 -1,1 1,2 -1,3 -3,3 v 2 l -4,1 3,3 -1,2 v 3 l -2,1 -2,7 h -5 l -8,4 h -2 l -2,-5 -4,-1 -11,-5 -5,5 -4,-1 z"
     id="path12"
     style="stroke:#000000;stroke-width:0.2;stroke-linejoin:round" />
  <path
     fill="#16a34a"
     d="m 328,380 5,-13 -4,-3 -8,8 v 2 l -2,5 -3,-1 -1,1 1,-4 -2,-2 -4,5 2,2 -5,-1 -3,2 -2,-2 2,2 -1,2 -3,-2 -4,1 3,3 v 2 l -2,1 4,6 2,2 8,1 5,-3 4,-1 3,2 2,-1 -2,-9 z m -20,-5 h 2 l -1,-1 1,-3 -3,-2 -2,3 2,1 v 1 z m 7,-6 h -2 l 1,1 z m 6,-2 -1,3 2,-3 z m 12,-5 -2,2 h 3 z m -21,-1 1,7 1,-2 z m 8,1 v 2 l 1,-2 v 2 l 2,-1 -1,2 1,-1 1,2 3,-3 v -4 l -3,2 -1,-2 1,-1 -1,-1 z m -129,-11 -6,-18 -3,1 2,5 -5,-3 -2,1 -2,4 2,2 1,-2 1,1 1,3 -4,6 4,7 10,-2 -2,-3 z m -6,-18 1,-1 h -1 z m 2,-1 h 4 l 2,-2 4,8 -1,4 2,5 3,-1 1,3 7,2 3,4 3,-5 v -2 l 3,-3 -2,-6 5,-5 2,1 1,-4 -5,-6 -6,-2 h -7 v 3 l -5,-1 v -2 l -3,-2 h -4 l -9,9 -1,1 2,-1 z m 287,-200 -5,-3 v -3 l -2,-4 -7,2 -11,-2 -2,1 2,1 -2,4 2,1 -11,7 v 4 l -2,-4 -3,-1 1,-2 v -3 l -6,-11 -8,4 -6,1 -5,-2 -2,4 -4,2 -1,4 -3,3 4,6 -3,6 1,4 4,1 6,7 -1,5 1,6 -3,6 1,-1 3,6 2,-1 2,3 h 3 l 4,7 -2,3 -3,1 -2,3 v 2 h 4 l -3,4 6,2 4,4 h 6 l 2,3 6,-2 1,-3 1,2 2,-6 2,-2 4,1 1,2 1,-4 1,4 v 6 l 2,1 3,-2 2,4 2,1 2,-8 6,-5 v -5 h 2 l 4,-5 h 4 v -4 l -4,-5 h 5 v -5 l -5,-4 4,-5 v -3 l -2,-2 2,-2 -1,-3 1,-3 3,-3 -3,-3 3,-3 v -5 l -3,-5 h -4 l -2,-4 -2,-1 z m -332,22 -1,-2 -4,-1 1,-4 -6,-3 -11,5 -4,-1 -3,-4 -3,4 -3,7 -6,-3 v -3 l -2,-1 1,-3 h -3 l -3,-3 h -3 l -4,1 1,2 v 7 l -6,5 -2,9 -4,2 -2,-2 -5,7 -4,-2 -1,3 -11,6 -1,3 h -3 l -1,4 3,2 2,1 h 5 l 1,2 v 3 l -2,1 -5,10 -5,6 1,5 -5,7 1,4 4,3 -2,3 v 2 l 6,9 3,-1 5,10 7,1 -6,7 7,11 h 3 l 3,-1 v -4 l 4,-2 8,3 v -4 l 4,-6 7,-2 8,-6 13,-2 10,1 v -3 l 2,6 -2,3 3,-1 2,-5 5,-1 1,-4 -1,-8 1,-1 v -3 l 3,-5 2,2 v -1 l 4,1 3,-2 5,5 6,-5 3,-4 5,1 v 1 l 6,3 1,4 4,-2 3,-4 h 2 l 3,5 -1,3 5,2 8,-4 1,-2 -1,-6 3,-4 -1,-4 6,-9 -3,-6 3,-4 h 2 v -3 l 3,-1 -1,-2 h -3 l -2,2 -1,-4 -4,-1 2,-5 -1,-5 4,-5 -3,-4 -4,-2 v -8 l -3,-3 -1,-3 h -2 v -3 l -5,-2 1,-2 -7,-4 -5,4 -3,-3 -4,2 -5,-2 -6,1 1,-3 -7,-6 -2,3 h -3 l 1,6 -3,1 z m 50,153 -3,-1 -5,2 -1,4 -4,1 -2,4 1,2 v 6 h 6 l 1,-3 3,-2 z m 210,-66 1,-2 -3,-3 4,-1 v -2 l 3,-3 1,-3 -1,-2 1,-1 1,-3 -4,-6 -3,-2 -6,1 v -3 h -2 l -4,-5 -7,-3 -9,5 v -3 h -5 l -2,-2 -9,-7 -10,1 -1,4 -5,1 1,5 -5,-3 -1,4 -3,-2 v -2 l -2,-1 1,-3 -2,-5 h -1 l -3,3 -11,-4 -2,2 1,1 -5,6 1,8 -3,-1 v 4 l 2,3 -2,2 v 2 l -1,-1 -1,1 4,3 3,1 -3,3 3,1 3,3 v 5 l 3,1 2,-5 5,1 v 2 h 4 l 3,3 5,1 1,4 4,-2 9,10 5,-3 4,1 5,-5 11,5 4,1 2,5 h 2 l 8,-4 h 5 l 2,-7 2,-1 z"
     id="path14"
     style="stroke:#000000;stroke-width:0.2;stroke-linejoin:round" />
  <path
     fill="none"
     stroke-linecap="round"
     d="m 86,373 -2,-7 -4,-4 v 1 l -2,-3 -3,2 -2,-1 -3,4 h -1 l -8,-4 -1,-3 3,-4 -2,-3 1,-5 -2,-3 -5,1 -2,8 -2,-3 -3,1 -1,4 m 18,3 1,-2 -5,2 v 4 l 4,-4 m 5,-2 -1,4 1,-2 h 1 l -1,-2 m 10,4 1,3 -1,-4 2,1 v -2 h 1 l -1,-1 -2,1 v -3 2 l -2,1 h 1 l 1,2 m -13,-3 v 2 -2 m 4,-9 1,-4 -1,4 m 254,-62 -3,-2 v -4 h -2 l -7,-14 -10,-3 -2,-4 v -2 l -2,-1 2,-1 1,-3 2,1 7,-3 1,-2 -2,-7 3,1 3,-4 m 16,93 -2,-7 h -3 v -2 l -1,-1 h -4 l 1,-2 -4,-4 2,-2 -1,-8 -1,-2 -2,1 m -39,64 -2,-4 h -4 l -3,-4 1,-2 -3,-4 v -8 l -2,-2 m 13,-16 8,-1 1,2 6,3 h 3 l 4,3 2,-1 2,5 -3,13 1,8 m 81,-156 v -6 l 2,-1 v -4 l 3,-2 -2,-4 2,-3 -1,-8 2,-2 5,-1 v -2 l 6,-6 h 5 l 3,-1 2,1 m -8,77 4,2 v 1 h 3 l 2,6 2,2 2,-1 v 4 h 4 v 3 l 2,1 v -3 l 2,-1 3,3 3,-2 1,3 m -23,58 3,-4 -2,-1 -2,2 -3,-1 1,-3 -3,-1 2,-5 3,-1 -1,-2 4,-2 -4,-4 h -5 v -4 l -4,-2 -1,-4 -2,-1 v -6 l -4,-4 -2,-1 -1,3 -2,2 -1,-1 -2,3 -2,-3 -1,-2 h -5 l -2,-3 v -3 l 6,-7 v -2 h 4 v -3 l 2,-1 m 6,-83 v -3 l 2,-3 -1,-7 -8,-2 v -2 l -3,3 -5,-3 -2,1 2,3 -3,4 -6,2 -1,-4 -6,-1 v -3 h 3 l 1,-3 v -2 l 1,-1 -3,-2 -3,1 v -3 l -2,-1 v -2 l -5,-4 h -3 l -2,-6 -3,4 -1,3 -6,5 -1,-5 -3,-1 -2,-4 -5,-2 1,-1 -13,-13 v -1 l -1,-5 3,-3 1,-5 -6,-1 -1,-9 -3,-4 -4,1 -2,-2 2,-6 v -2 l -3,1 -4,-4 2,-3 -2,-1 -1,-7 4,-3 v -8 l -3,-1 -7,8 -6,-1 -4,-3 -4,2 h -2 m -218,142 2,6 10,-2 1,1 -1,-4 4,-4 1,-5 h 3 l 2,5 4,-1 4,-7 7,1 2,2 -1,1 h 3 v 2 l 3,2 4,-7 4,-3 4,4 1,-1 5,-13 h 2 l 1,-2 4,1 4,6 h 3 l -2,4 2,5 -1,6 -4,3 3,4 -1,2 3,3 -1,8 4,1 2,3 2,-2 h 8 l 1,4 m 52,109 2,1 5,-6 2,-7"
     id="path16"
     style="stroke:#000000;stroke-width:0.2;stroke-linejoin:round" />
  <path
     fill="none"
     stroke-width="1.6"
     stroke-linecap="round"
     d="m 438,304 -2,-7 -3,-1 -1,-2 v -2 l 4,2 1,-3 -2,-2 -2,2 -6,-7 6,-2 -1,-3 3,-4 -1,-3 3,-1 v -4 l -4,-1 -5,2 -1,-3 3,-6 4,1 6,-8 h 3 l 4,-4 -3,-5 2,-3 -10,-11 -2,-5 1,-4 -2,-4 2,-2 v -2 l 6,-2 1,-3 1,2 2,-6 2,-2 4,1 1,2 1,-4 1,4 v 6 l 2,1 3,-2 2,4 2,1 2,-8 6,-5 v -5 h 2 l 4,-5 h 4 v -4 l -4,-5 h 5 m -269,108 2,-8 2,-1 -4,-2 1,-1 6,-2 5,-7 4,1 1,-6 5,-3 1,-2 1,1 1,-2 5,4 3,-2 1,-3 2,-1 1,-3 -1,-2 2,-2 5,1 1,-2 h 4 l 6,-7 9,-2 1,-1 v -7 l 5,-10 4,-1 6,5 h 3 l 1,3 3,-1 1,-2 1,1 3,-2 1,2 5,-2 3,1 -3,3 3,1 3,3 v 5 l 3,1 2,-5 5,1 v 2 h 4 l 3,3 5,1 1,4 4,-2 9,10 m -223,4 2,-3 -2,-6 v 3 l -10,-1 -13,2 -8,6 -7,2 -4,6 v 4 l -8,-3 -4,2 v 4 l -3,1 h -3 l -7,-11 6,-7 -7,-1 -5,-10 -3,1 -6,-9 m 145,71 -3,-1 -5,2 -1,4 -4,1 -2,4 1,2 v 6 h 6 m 81,18 v 1 l -8,4 -4,6 -4,-2 -14,10 -5,-10 -1,1 -2,-2 -4,1 -8,-2 -3,5 -3,-4 -7,-2 -1,-3 -3,1 v 4 h -7 l -3,2 2,3 -10,2 m 72,-234 3,3 1,4 -1,2 h -7 l -1,5 h 6 l 20,4 3,1 -1,13 -2,2 -2,3 2,2 -2,1 1,3 h 5 l 2,3 -1,1 -1,4 -3,3 -2,9 11,3 2,1 v 4 l -2,2 1,2 -2,1 -4,6 -1,7 5,4 v 4 m 43,64 -1,6 -4,-2 -3,-2 h -3 l 5,7 v 3 h -1 l -2,2 1,4 -2,5 1,2 -4,2 -8,-4 -3,1 -1,-2 h -3 l -2,-2 -4,2 -4,-3 -2,2 -6,-1 -2,1 2,5 h 7 l 3,6 -6,1 -4,4 -1,5 m 170,-18 h 6 l 3,4 -4,6 m -96,26 v -6 l -2,-2 -5,-2 -2,2 -3,1 -6,-5 -3,2 -2,-2 h -2 v -3"
     id="path18"
     style="stroke:#000000;stroke-linejoin:round;stroke-width:0.2;stroke-miterlimit:4;stroke-dasharray:none" />
  <g
     id="g30">
    <rect
       id="rect24"
       height="36"
       width="198"
       y="4"
       x="4"
       opacity="0.75"
       fill="white" />
    <rect
       id="rect26"
       height="8"
       width="190"
       y="8"
       x="8"
       fill="black" />
    <text
       id="text28"
       y="36"
       x="103"
       font-family="sans-serif"
       font-size="24"
       text-anchor="middle"
       fill="black">50km</text>
  </g>
</svg>
