<?xml version="1.0" encoding="UTF-8" standalone="no"?>
<svg
   xmlns:dc="http://purl.org/dc/elements/1.1/"
   xmlns:cc="http://creativecommons.org/ns#"
   xmlns:rdf="http://www.w3.org/1999/02/22-rdf-syntax-ns#"
   xmlns:svg="http://www.w3.org/2000/svg"
   xmlns="http://www.w3.org/2000/svg"
   xmlns:sodipodi="http://sodipodi.sourceforge.net/DTD/sodipodi-0.dtd"
   xmlns:inkscape="http://www.inkscape.org/namespaces/inkscape"
   inkscape:version="1.0 (4035a4fb49, 2020-05-01)"
   sodipodi:docname="Map of Hokkaido Ja.svg"
   version="1.1"
   height="387"
   width="612"
   id="svg3025">
  <metadata
     id="metadata947">
    <rdf:RDF>
      <cc:Work
         rdf:about="">
        <dc:format>image/svg+xml</dc:format>
        <dc:type
           rdf:resource="http://purl.org/dc/dcmitype/StillImage" />
        <dc:title>衆議院小選挙区 北海道</dc:title>
      </cc:Work>
    </rdf:RDF>
  </metadata>
  <defs
     id="defs945" />
  <sodipodi:namedview
     inkscape:current-layer="svg3025"
     inkscape:window-maximized="1"
     inkscape:window-y="-8"
     inkscape:window-x="-8"
     inkscape:cy="279.26709"
     inkscape:cx="252.89286"
     inkscape:zoom="1.3611111"
     showgrid="false"
     id="namedview943"
     inkscape:window-height="1017"
     inkscape:window-width="1920"
     inkscape:pageshadow="2"
     inkscape:pageopacity="0"
     guidetolerance="10"
     gridtolerance="10"
     objecttolerance="10"
     borderopacity="1"
     bordercolor="#666666"
     pagecolor="#ffffff" />
  <title
     id="title3027">衆議院小選挙区 北海道</title>
  <desc
     id="desc3029">Author: Lincun</desc>
  <rect
     id="rect3031"
     height="387"
     width="612"
     y="0"
     x="0"
     fill="#eeeeee" />
  <path
     fill="#aaaaaa"
     d="m 116,388 2,-2 5,2 1,-2 5,-3 v -2 l -1,2 2,-3 h 1 l 4,5 1,3 h 9 l 4,-20 -8,6 -6,-1 -3,-2 -5,-6 -3,-2 -4,-1 -4,-3 -1,-2 v 4 l -2,3 -3,4 -5,17 v 3 z m -19,0 -3,-4 -3,-1 -4,3 h -2 l -3,-4 -4,-1 -1,7 z"
     id="path3035"
     style="stroke:#000000;stroke-width:0.2;stroke-linejoin:round" />
  <path
     fill="#16a34a"
     d="m 127,245 h 4 l -1,5 4,4 h 2 l 2,-1 1,-2 1,-4 2,-1 3,1 4,-2 h 1 l 4,-9 2,-1 -2,-7 h -1 v -5 h -1 l -2,-1 v -2 l -8,5 -2,-2 -3,1 v 1 l -3,3 -2,-2 h -2 l -2,4 -4,3 v 3 l 4,3 -2,4 z"
     id="path3037"
     style="stroke:none;stroke-width:0.2;stroke-linejoin:round" />
  <path
     fill="#16a34a"
     d="m 117,287 6,3 h -1 l -1,2 -1,-2 -2,1 4,3 4,-4 9,-8 -1,-6 h -3 l -2,-3 -1,2 -7,2 -1,-3 -7,-1 -4,2 1,2 5,3 z m 7,55 4,-5 5,-1 -3,-5 -11,-5 -6,-8 -4,7 -1,-1 -1,5 -4,2 h -1 l -1,-5 -3,-2 -1,-2 -1,-1 -3,-1 v -2 h -4 l -2,6 2,2 -3,8 7,5 v 2 l 3,-1 2,-6 5,1 1,2 -1,1 -1,-1 v 3 l 5,-2 8,2 4,3 z m -4,-118 5,1 v 2 l 3,3 2,-4 h 2 l 2,2 3,-3 v -1 l 3,-1 2,2 8,-5 1,-4 4,-1 2,-4 3,-13 -3,-9 h 4 l 1,-1 -6,-9 -4,-2 -1,-3 h -4 v 3 l 3,10 -2,6 2,3 2,8 -1,5 -3,4 -5,6 -8,5 -9,-5 v -4 l -8,3 -2,-1 v 1 l 1,3 3,1 z m 196,-79 -20,-6 11,5 h 2 l -2,-1 -1,4 v 4 l -2,2 -3,3 h -4 l -2,2 h -2 l 1,3 -3,4 -2,-3 1,-1 -6,-2 -1,9 -4,2 -7,1 -7,4 -3,5 -4,-1 -2,2 3,4 -2,3 h 1 l 4,-3 4,-1 3,1 3,-3 2,1 v -3 l 6,-1 v -3 l 8,-3 h 8 v 7 l 2,2 2,-3 h 2 l 1,-2 5,-5 4,-8 v -3 l 2,-2 2,1 4,-6 h 2 v 3 -2 h -1 v 3 l 4,8 2,-1 v -2 l 5,2 -1,4 1,4 v -6 l 3,-6 -4,-3 -4,-2 -1,-3 -2,-2 -1,-6 -3,1 v 4 l -1,2 -4,1 v -6 l 5,-1 z m 114,61 1,1 1,-2 z m -45,5 v 3 l -2,1 v 2 l -1,-1 2,5 2,-2 4,4 9,-1 1,2 h 2 l -1,-2 3,-3 v -5 h 2 l 2,-3 h 3 l 2,-2 h 3 l 4,-4 h -11 l -9,10 -5,-2 3,3 1,-1 -1,1 -9,-1 -1,-3 h 2 z m 47,-9 1,1 4,-3 -1,-1 v 2 z m -7,0 h 3 l -2,-2 1,-1 h -5 l 2,1 z m 11,-7 2,3 4,-2 -1,-2 2,-2 -5,-1 -4,2 z m 12,-11 h 4 l -3,-2 z m -132,14 v 3 l 1,1 -5,-2 z m -195,67 4,5 4,1 7,-9 4,-2 6,3 -1,4 4,5 18,-7 -5,3 h 7 l 4,2 2,-8 h -2 l -3,-2 v -5 l 2,-3 1,-5 5,-4 h -5 l -2,-2 -1,2 -3,2 -1,-1 -1,2 -1,-3 -1,-5 h -2 l -1,-2 v -2 l 1,-4 5,-3 2,3 h 3 l 7,-4 4,3 h -1 l -1,5 1,4 h 2 v 6 l 3,5 h 2 l 3,-1 4,-7 h 3 l 5,-2 3,-4 -1,-2 -2,-1 -2,-3 2,-10 1,-1 4,6 3,-4 5,3 3,-2 h 3 l 6,-4 v -4 l -3,-4 2,-5 -6,2 -2,1 h -5 l -1,1 -5,-2 v -2 l 1,-2 v -4 -1 l -2,-5 1,-6 3,-1 v -3 h 2 l 3,4 5,-1 v -1 h -4 l -5,-4 v -4 l 4,3 v -4 h 2 l 11,6 h 3 l -1,-6 -2,1 -7,-2 -7,-7 -1,-9 -1,1 -3,6 1,2 -6,5 v -13 l -2,-2 -6,4 -3,-5 v -6 l -2,-1 -2,4 -1,7 4,5 -5,5 -1,4 h -2 l 2,5 -2,2 h -3 v 3 h -1 l -1,2 v 6 l 1,2 h -2 2 l -2,4 5,1 1,-1 -1,-1 1,-1 3,1 3,4 -1,1 v 2 l -2,-2 -3,4 -9,-3 -4,4 -4,2 -1,-1 v 4 l -2,1 1,4 -3,6 h -3 v -1 l -7,1 v 5 h 1 l 2,7 -2,1 -4,9 h -1 l -4,2 -3,-1 -2,1 -1,4 -1,2 -2,1 h -2 l -4,-4 h -2 l 2,4 -1,3 -3,2 h -2 l -2,4 z M 224,118 v -1 h -4 l -7,-4 -6,4 1,3 v 4 l -3,3 2,4 -1,1 -4,-3 -3,3 h 2 l -2,5 1,6 -1,6 3,3 3,-2 v -8 l 2,-4 2,4 4,-1 v 2 l 2,1 2,5 -1,5 2,2 1,-2 h 1 l 5,-2 2,1 3,-1 5,8 2,1 4,-3 1,-3 -3,-14 -3,1 -3,-4 -3,2 v -2 l -5,1 2,-2 -3,-7 -4,-1 3,-3 -1,-6 z m -43,40 -3,-2 -6,3 -5,-6 v 4 h -1 l -2,4 3,2 2,7 h 3 l 1,3 2,-6 4,-1 3,-4 z m -34,100 -5,3 -3,-4 6,-4 4,2 v 3 z m 47,-222 -7,-11 -2,1 -2,6 -4,3 -6,1 -3,-5 v 8 l -5,10 v 5 l 2,1 -1,-3 5,-3 h 4 v -2 l 2,-1 v 5 l 1,1 2,-1 2,3 h 3 l 2,-4 h 3 v -5 h -2 v -5 l 5,-2 z m 145,208 -3,-5 -3,-1 2,-4 -2,-2 h -6 l -2,-3 -3,-9 -5,-7 6,-13 1,-4 -2,-1 -2,1 -3,-2 -1,2 -2,-1 -1,4 -4,1 1,3 -1,4 2,2 -5,9 2,5 3,2 3,6 2,3 2,-1 4,3 1,3 h 8 v 2 z m -70,-95 2,-4 2,1 v -4 l 9,-9 -9,-5 -3,-5 -5,-2 -2,4 -3,2 h -2 l -4,3 4,5 2,1 v 1 l -4,6 2,4 -2,2 v 5 l 2,1 6,-4 3,1 z m 40,96 -6,-6 1,-5 -1,-2 -5,-2 -1,-2 h -3 v 4 l -3,3 -1,3 4,4 1,5 6,5 z m -79,12 -2,2 v 1 l 4,1 v 4 l 7,-1 -1,4 3,2 8,-1 4,-8 h 6 v 3 l 3,-1 v -2 l 2,-3 h -3 l 1,-2 -2,-3 v -6 l 2,-3 -6,-2 -2,2 v 3 h 2 l -1,3 -12,11 -2,-2 z"
     id="path3039"
     style="stroke:#000000;stroke-width:0.2;stroke-linejoin:round" />
  <path
     fill="#16a34a"
     d="m 146,60 5,-4 -1,-4 -7,-6 -3,3 -1,3 v 2 z m -61,150 2,4 3,1 3,-2 1,3 h 2 l 1,5 v 3 l 3,2 -3,3 -1,3 -1,3 -9,7 -1,2 -4,4 -1,5 h -2 l -4,-5 -1,2 2,1 1,4 -2,2 2,7 -1,2 -2,1 -2,-2 v 3 l -2,3 -6,-1 -1,-2 -4,-1 v -2 h -7 v 16 l -5,9 2,7 4,1 3,7 6,2 3,5 4,9 -2,11 v 1 h -3 v 4 l -4,5 -1,6 -1,6 3,9 3,3 2,-1 5,2 4,-6 9,-3 2,-3 v -9 l 2,-3 h 4 l 2,-2 v -2 l -7,-5 3,-8 -2,-2 2,-6 h 4 v 2 l 3,1 1,1 1,2 3,2 1,5 h 1 l 4,-2 1,-5 1,1 4,-7 -6,-8 -3,-3 -5,1 -5,1 -6,-6 -4,-4 -6,-3 1,-10 8,-14 4,-3 h 4 l 3,2 4,-2 4,2 3,4 4,-2 7,1 1,3 7,-2 1,-2 2,3 h 3 l 1,6 14,-10 -4,-5 1,-4 -6,-3 -4,2 -7,9 -4,-1 -4,-5 1,-2 -7,-3 -5,3 h -1 v -4 l 1,-1 -3,-2 v -3 l 5,-4 6,5 6,5 h 2 l 3,-2 1,-3 -2,-4 h 2 l 1,-5 h -4 l -1,-2 2,-4 -4,-3 -5,3 -5,-4 -4,-8 4,-2 6,-1 v -2 l -3,-1 -1,-3 -4,1 v -3 l -5,-2 -4,-2 v -2 l -9,-7 -2,3 h -6 l 1,1 z m -61,98 1,3 3,-3 5,-14 -8,4 -2,3 z m -8,47 v 2 l 3,-1 -1,-2 z m 251,-46 v -4 l -1,-4 5,-13 8,-14 11,-11 11,-11 -6,-5 -1,-5 -4,-4 1,-3 3,-3 v -4 h 3 l 1,2 5,2 1,2 -1,5 6,6 14,-6 -1,-3 -4,-3 -2,1 -2,-3 -3,-6 -3,-2 -2,-5 5,-9 -2,-2 1,-4 -1,-3 4,-1 1,-4 2,1 1,-2 3,2 2,-1 2,1 -1,4 3,3 1,4 2,1 2,7 5,5 v 6 l -3,3 v 3 l 2,2 -2,4 3,1 3,5 8,-2 10,2 -4,-4 1,-2 3,-4 h 4 l 1,-3 5,4 -3,2 -4,-3 v 3 l 3,3 7,-1 2,-1 v -2 l 3,-2 3,-7 2,-2 3,1 7,-3 -4,-4 -2,2 -2,-5 1,1 v -2 l 2,-1 v -3 l -1,-2 3,-1 6,5 -6,-9 -5,-17 -1,-2 3,1 2,1 -2,1 3,-1 -1,1 h 4 l -1,2 1,-1 -1,2 h -2 v 1 l 4,-1 -1,-3 -6,-2 -6,-3 -5,-8 v -4 l 2,-5 3,-9 5,-7 1,-7 7,-11 -2,-7 -9,13 -10,8 -11,12 -5,3 h -12 l -11,-3 4,3 -3,6 v 6 l -1,-4 1,-4 -5,-2 v 2 l -2,1 -4,-8 -2,4 -3,-2 -2,-1 -2,2 v 3 l -4,8 -5,5 -1,2 h -2 l -2,3 -2,-2 v -7 h -8 l -8,3 v 3 l -6,1 v 3 l -2,-1 -3,3 -3,-1 -4,1 -4,3 h -1 l 2,-3 -3,-4 2,-2 4,1 3,-5 7,-4 7,-1 4,-2 1,-9 6,2 -1,1 2,3 3,-4 -1,-3 h 2 l 2,-2 h 4 l 3,-3 2,-2 v -4 h -2 l -1,-2 -9,1 -1,-1 h -1 l -3,-6 h 6 l -13,-6 -9,9 v 4 l -2,-1 -2,4 -2,3 -3,-1 -6,4 -2,-1 v -5 l 2,-2 -2,-4 4,-6 v -1 l -2,-1 -4,-5 4,-3 h 2 l 3,-2 2,-4 -10,-8 -7,-6 -8,-10 -11,-13 -9,-19 -9,-10 -2,1 -4,-2 -3,1 -2,3 2,5 -2,2 -4,-4 -3,3 -3,-2 -1,-3 2,-2 -2,-5 1,-2 h -3 l -2,4 h -3 l -2,-3 -2,1 -1,-1 v -5 l -2,1 v 2 h -4 l -5,3 1,3 -2,-1 5,12 4,13 1,6 2,14 2,3 6,1 v 6 l -2,2 2,4 -6,6 -3,-2 -2,-2 -4,7 -3,2 1,9 -1,18 5,6 6,-3 3,2 1,4 -3,4 -4,1 -2,6 -1,-3 h -3 l -2,-7 -3,-2 -3,3 -11,4 -3,6 h 4 l 1,3 4,2 6,9 -1,1 h -4 l 3,9 -3,13 -2,4 -4,1 -1,4 v 2 l 2,1 h 1 l 7,-1 v -6 l 3,-3 h 2 l 2,-1 v -4 l 1,1 4,-2 4,-4 9,3 3,-4 2,2 v -2 l 1,-1 -3,-4 -3,-1 -1,1 1,1 -1,1 -5,-1 2,-4 h -2 2 l -1,-2 v -6 l 1,-2 h 1 v -3 h 3 l 2,-2 -2,-5 h 2 l 1,-4 5,-5 -4,-5 1,-7 2,-4 2,1 v 6 l 3,5 6,-4 2,2 v 13 l 6,-5 -1,-2 3,-6 1,-1 1,9 7,7 7,2 2,-1 1,6 h -3 l -11,-6 h -2 v 4 l -4,-3 v 4 l 5,4 h 4 v 1 l -5,1 -3,-4 h -2 v 3 l -3,1 -1,6 2,5 v 1 4 l -1,2 v 2 l 5,2 1,-1 h 5 l 2,-1 6,-2 -2,5 3,4 v 4 l -6,4 h -3 l -3,2 -5,-3 -3,4 -4,-6 -1,1 -2,10 2,3 2,1 3,-4 6,2 4,-4 13,10 -9,4 -3,4 -1,-1 -5,1 -3,-2 -1,4 h -3 v -2 l -3,-3 v -3 l -5,2 h -3 l -4,7 -3,1 h -2 l -3,-5 v -6 h -2 l -1,-4 1,-5 h 1 l -4,-3 -7,4 h -3 l -2,-3 -5,3 -1,4 v 2 l 1,2 h 2 l 1,5 1,3 1,-2 1,1 3,-2 1,-2 2,2 h 5 l -5,4 -1,5 -2,3 v 5 l 3,2 h 2 l -2,8 5,2 5,5 4,3 8,3 4,3 6,7 11,6 9,5 13,7 6,1 7,5 11,12 v -7 l 4,-4 z M 148,117 v -2 l -2,2 z m 7,-2 -3,1 h 2 z M 135,40 V 30 l -1,-1 v 2 h -2 l -2,-2 2,15 h 2 z m 242,191 1,1 h 3 z m -262,37 h -2 l 1,1 h 1 z m -2,3 h -2 v -3 l 2,-3 5,2 1,2 -2,2 z m 95,-147 v -4 l -1,-3 6,-4 7,4 h 4 v 1 l -2,2 1,6 -3,3 4,1 3,7 -2,2 5,-1 v 2 l 3,-2 3,4 3,-1 3,14 -1,3 -4,3 -2,-1 -5,-8 -3,1 -2,-1 -5,2 h -1 l -1,2 -2,-2 1,-5 -2,-5 -2,-1 v -2 l -4,1 -2,-4 -2,4 v 8 l -3,2 -3,-3 1,-6 -1,-6 2,-5 h -2 l 3,-3 4,3 1,-1 -2,-4 z m -2,-68 5,2 -1,2 -2,-4 -1,3 z m 8,42 -8,1 -6,4 -2,-8 2,-8 3,-3 3,1 v 2 l 2,1 1,6 4,1 z m 26,19 2,4 3,1 4,-1 3,9 -4,2 -2,4 -5,-1 -3,-4 v -4 l -1,-1 1,-4 v -3 z m 22,144 3,1 -2,7 h 3 l -1,4 -4,1 -12,-1 -7,2 -6,-1 -4,-8 v -1 -4 l -4,-1 v -1 l 2,-2 11,2 2,2 12,-11 1,-3 h -2 v -3 l 2,-2 6,2 -2,3 v 6 l 2,3 -1,2 h 3 z m 65,-77 -1,1 1,2 1,-2 z m 3,5 -1,3 -1,-3 h -3 l 1,-5 2,-2 h 6 v 2 l -3,1 z m 10,0 1,-1 2,1 -3,3 z"
     id="path3041"
     style="stroke:#000000;stroke-width:0.2;stroke-linejoin:round;stroke-miterlimit:4;stroke-dasharray:none" />
  <path
     fill="#16a34a"
     d="m 85,210 -1,5 7,9 3,7 2,1 1,-3 3,-3 -3,-2 v -3 l -1,-5 h -2 l -1,-3 -3,2 -3,-1 z m -12,40 -2,4 -4,2 -2,3 h -9 l -5,6 h 7 v 2 l 4,1 1,2 6,1 2,-3 v -3 l 2,2 2,-1 1,-2 -2,-7 2,-2 -1,-4 z m 121,-214 -1,2 -5,2 v 5 h 2 v 5 l -1,2 2,5 -2,2 1,3 3,2 3,-3 4,4 2,-2 -2,-5 2,-3 3,-1 4,2 2,-1 -10,-14 z m 222,123 3,-8 3,1 -1,-3 3,-6 4,-4 4,-1 2,-6 13,-2 8,-9 3,2 3,-3 2,-6 -5,3 -10,1 -5,-3 -5,-5 h -2 l -7,11 -1,6 -6,5 -8,13 v 4 l -4,2 -17,17 3,9 6,-1 v 6 l 3,-17 3,-4 z m 177,-125 3,-5 -4,-4 4,-3 v -3 l -3,-3 -11,2 -1,3 -3,1 -5,6 -1,3 -3,5 -5,4 -7,2 h -10 l -5,-12 -3,-1 -4,6 3,9 -1,2 -8,4 -2,4 1,3 -3,2 -9,-2 2,2 -1,7 -8,8 -6,4 -1,5 -3,1 -4,-3 -1,1 v 4 l 5,1 -1,6 -5,5 -5,-2 2,3 -2,4 -2,-1 -1,-4 -1,5 1,2 -4,3 -1,6 5,2 8,-12 7,-1 7,-12 15,-12 3,-6 -2,-3 3,-4 4,-1 v 3 l 3,2 7,-1 5,-4 6,-9 12,-10 11,-4 v -2 l 7,-5 7,-1 2,1 z M 479,170 h 2 l -1,-1 v -1 h 4 l 1,-3 -6,-4 v 2 l -2,-1 1,2 -2,-2 -3,3 2,2 -3,-1 -7,2 2,4 -2,2 h 2 l 1,-2 1,5 h 2 l 1,-4 2,1 z m -360,69 5,-3 v -3 l 4,-3 -3,-3 v -2 l -5,-1 -6,1 -4,2 4,8 z m -9,24 5,-3 7,3 2,-4 -6,-5 -6,-5 -5,4 v 3 l 3,2 -1,1 v 4 z m 75,-148 -2,-4 2,-2 v -6 l -6,-1 -2,-3 -3,18 2,2 3,2 z m -25,107 v 1 h 3 l 3,-6 -1,-4 h -2 l -3,3 z m 45,11 1,2 -3,4 v 3 l 3,3 v 2 h 3 l 1,-4 3,2 5,-1 1,1 3,-4 9,-4 -13,-10 -4,4 -6,-2 z m 9,-135 -1,-3 -4,-1 -1,-6 -2,-1 v -2 l -3,-1 -3,3 -2,8 2,8 6,-4 z m 38,32 -3,-9 -4,1 -3,-1 -2,-4 -2,2 v 3 l -1,4 1,1 v 4 l 3,4 5,1 2,-4 z m 71,70 -6,13 5,7 3,9 2,3 h 6 v -3 l 3,-3 v -6 l -5,-5 -2,-7 -2,-1 -1,-4 z m -91,65 v 1 l 4,8 6,1 7,-2 12,1 4,-1 1,-4 h -3 l 2,-7 -3,-1 v 2 l -3,1 v -3 h -6 l -4,8 -8,1 -3,-2 1,-4 z"
     id="path3043"
     style="stroke:#000000;stroke-width:0.2;stroke-linejoin:round" />
  <path
     fill="none"
     stroke-linecap="round"
     d="m 139,251 2,2 3,-1 3,1 1,-1 12,-1 4,-8 m -14,2 9,-3 2,-4 m -5,-3 4,-1 m 47,-103 h 8 l 2,1 3,6 4,1 h 1 M 103,331 v 4 m 23,-45 -2,-7 h -2 v 2 l -5,2 m 5,-4 -1,-6 m 47,-68 5,3 2,3 -1,3 1,-1 1,3 4,1 1,-1 7,3 1,2 -1,4 h -6 m 7,-4 7,-4 v -2 l -3,-1 -4,-7 1,-3 -2,-1 -2,4 -11,4 m 21,4 2,1 5,-1 m -13,-15 v 4 m -5,-12 2,-3 3,-1 2,1 v 3 l 4,-4 h -3 l 2,-2 -1,-6 -2,-1 -5,4 -1,3 1,3 m 5,3 -1,2 v 3 m -11,-9 6,-2 m 8,-6 h 6 l 2,-1 m -17,-2 4,3 3,-1 m 124,-38 h -2 l -3,4 v 4 l 1,3 -2,2 1,3 h 1 m -200,88 11,2 4,-6 m -15,4 3,-2 1,-5 3,-1 v -2 m -7,10 -5,-1 -1,2 -4,-5 -1,1 v 5 h -2 l -2,7 m 5,-13 -1,-1 -5,-2 H 86 m 15,2 1,-2 5,-1 4,-7 -3,-1 -6,-5 -2,-2 m 11,8 3,1 m -12,-7 2,-6 v -3 l 3,-1 -2,-2 2,-2 m -3,8 3,1 5,-3 2,5 m -18,17 -1,-7 m 1,-19 7,-6 m -7,55 -2,-2 v -4 h -7 l -2,-5 1,-4 -1,-6 m -9,11 2,2 1,-1 2,1 -1,-4 5,1 m 146,-79 -2,-7 -2,-4 -2,1 -5,-2 -5,4 m 14,1 1,-1 v -6 l 5,-1 m 6,31 1,-9 -4,4 -1,-1 h -12 -4 m 21,-3 h -2 l 1,-2 -1,-1 -8,2 m -5,23 h 1 m -19,-6 h 1 l 1,-5 h 2 v -2 l 3,4 h 6 l 7,8 m -19,-5 5,4 -1,2 7,2 m -5,-27 9,6 m -20,-26 5,-2 3,2 m 7,-5 -1,4 2,3 -1,2 m -6,-5 1,-2 2,2 1,-2 m -13,-6 2,1 3,-3 h 3 l 2,-4 m -15,-29 2,-4 -2,-6 v -2 m 143,85 1,2 5,2 5,6 10,-1 2,2 h 2 l 4,-4 -2,-2 6,-2 -3,-4 1,-2 -3,1 -12,-7 -6,2 m -9,9 -2,2 3,4 h -2 l 1,4 -3,4 1,2 -6,-3 -4,2 -2,-2 -7,-3 m 10,29 6,-1 3,2 v 6 h 2 l 6,-6 -1,-4 1,1 2,-2 v 1 l 3,-3 4,1 -4,-4 -1,-4 -3,-2 -1,-5 -2,-7 6,-4 m -10,38 1,4 9,-2 m 28,-51 -6,4 m -14,-26 4,-3 5,4 h 4 m 9,20 m -2,30 -5,2 h -3 l -3,2 -6,-2 2,2 -2,6 5,2 -2,5 2,6 m -5,-21 -3,-3 -9,-3 -3,-3 m -254,112 1,-3 h 6 l -1,-5 5,-3 m -5,3 6,7 v 4 m -19,-6 -3,-2 -9,-3 -1,6 -3,4 h -4 v 2 l 4,2 -1,2 9,6 2,-1 h 3 m 0,-18 v -5 l -2,-4 4,-4 m -9,-17 h -4 v -2 l -8,4 -1,4 -5,2 2,4 h -2 l -5,3 -1,4 m 20,-21 -1,-6 4,-7 -4,-3 -1,-1 m -12,27 -3,-6 v -4 l -2,-2 3,-1 2,-4 -1,-3 3,-4 m 14,43 -5,-3 v 2 h -8 m 4,9 8,-2 m -4,10 v 4 l -6,-1 m 19,14 h -9 l -5,3 v 1 l 3,3 3,-1 1,5 4,-1 1,2 m -7,-12 1,-5 h 3 l 1,-6 m -10,14 -3,3 -6,-1 -2,-3 h -2 m 10,4 2,15 m 155,-63 5,-4 2,-4 2,-6 -1,-4 7,-3 m 14,17 -3,3 -9,2 -4,6 m -32,-64 -2,10 -5,2 -5,8 -1,4 -5,3 -5,3 m -5,-5 3,-5 4,-1 v -4 l 3,-2 4,-7 -1,-5 m -3,26 v 2 l 4,1 9,-9 h 3 l 2,2 h 9 l 4,-2 2,-7 2,-1 4,2 1,-2 m -13,10 1,1 -3,3 -4,2 h -3 l -3,7 -4,3 m 33,-20 -4,1 -5,4 h -3 l -1,9 -14,13 m -76,-20 v -2 m 54,-22 -6,7 -2,6 m 34,-15 1,4 -1,4 6,2 6,-4 4,5 3,1 m -122,12 3,-3 -2,-3 2,-2 m 12,2 h -2 l -1,2 m -3,1 h -1 v 1 m -1,2 v 2 m 1,-4 h -1 m 146,37 -2,2 2,7 -1,-1 -1,2 h -5 l -1,1 m -60,-240 -2,1 v -2 l -4,2 -3,-3 v -5 h -4 l -5,3 1,6 m 15,9 -6,1 -2,-7 v 2 l -6,1 m -4,156 1,-8 -1,-3 m 1,3 5,5 v 2 l 4,5 2,-1 m -23,-8 2,1 6,-7 m 2,-32 1,5 2,2 -1,2 m 4,-4 3,-3 v -2 l -2,-2 -2,1 -2,-2 -3,2 m 9,3 v -2 m 5,1 h 2 l -1,4 5,-1 m -34,-23 3,-2 6,-4 4,1 v -4 m -10,7 6,4 6,-3 3,3 h 4 l 2,5 m -21,-9 10,-3 7,3 h 6 v -3 l -1,-1 -1,-1 -1,-6 m 3,11 v 4 m 0,-7 h 3 m -4,-1 5,-4 2,1 m -7,-12 3,-2 1,-3 h 5 m -22,-18 h 1 l 3,2 v 1 l 2,3 v 3 l 3,1 2,-2 6,1 v -3 h 5 l 3,-1 1,-2 -3,-2 v -2 l -3,2 -5,-4 -8,-3 -5,-5 m 23,16 -2,5 1,4 m -1,-15 h 1 l -2,-3 2,-6 -1,-2 -4,-7 -2,-1 m 6,8 -1,-3 5,-3 1,-3 m 51,177 4,-5 4,1 10,-2 6,3 m -10,-14 v 2 l 4,2 3,-1 2,3 5,-2 -3,-5 -2,-1 v -4 l -2,-1 1,-10 3,-3 -1,-5 h 3 l -4,-6 -3,1 h -5 m 8,24 2,-2 h 2 l 5,6 v 2 m -5,-25 7,-2 2,-2 -1,-4 2,-5 -2,-4 -3,2 -6,-5 -2,2 -3,1 2,7 v 2 h -3 v 3 m 14,3 2,3 -1,1 2,4 v 9 l 6,-1 m -56,-14 9,3 1,-2 -2,-2 3,-2 -1,-1 3,-1 -2,-2 2,-1 v -4 h 2 v -2 l -6,-7 -1,2 -2,1 1,1 -2,1 v 2 l -7,2 m 17,-2 3,2 -1,-4 -1,-1 2,-8 5,2 -2,-3 -1,-6 2,-6 -2,-5 -4,-1 -4,9 1,5 -4,6 v 3 m 9,9 4,5 m 26,-10 8,-6 4,-1 m -37,1 3,1 v 4 h 2 l 1,-3 4,1 1,3 m 5,-3 -2,-2 v -4 l -17,-6 m 17,6 2,-5 v -4 l -6,-2 -2,-5 -3,-1 v -4 l -1,-1 1,-9 m 11,26 7,1 2,4 6,-5 3,4 5,-1 m 10,-23 -4,1 -4,-2 -2,9 -6,4 -2,-3 3,-2 2,-3 h -4 l -4,-3 -2,2 h -7 v -5 m -26,9 1,-6 -2,-5 m -9,-77 h 2 l 2,-2 v 2 h 7 l 4,-4 m -1,17 h -2 m -24,-25 3,-4 6,-1 3,-3 m 16,57 -2,1 1,3 -3,4 m 41,-17 -2,9 -2,-1 -2,3 -3,-1 -2,-1 2,-7 -11,-1 m 11,13 -1,-1 1,-3 m 48,18 -1,5 -2,1 -4,-1 -2,-5 -3,-6 -3,-2 -3,2 v -3 h -2 m 30,-3 v 4 l 4,-1 v 4 l 6,6 m -10,-9 1,3 -4,1 1,6 -2,7 m -9,-3 m -7,9 -5,-2 v -5 l -4,-6 -4,2 h -6 m -15,-4 1,9 -3,3 m 12,-3 v 2 l -3,1 v 1 M 208,88 v -3 l 3,-4 2,-1 2,-4 v -4 l -2,-3 -5,-1 -5,2 -1,2 h -2 m 15,0 1,-2 1,1 2,-3 -1,-2 2,-1 m -74,-5 -1,-7 -5,-4 m -30,214 6,-8 2,-1 m -27,-30 2,-2 2,1 2,-2 m 152,52 5,-1 5,-8"
     id="path3045"
     style="stroke:#000000;stroke-width:0.2;stroke-linejoin:round;stroke-miterlimit:4;stroke-dasharray:none" />
  <path
     sodipodi:nodetypes="ccccccccccccccccccccccccccccccccccccccccccccccccccccccccccccccccccccccccccccccccccccccccccccccccccccccccccccccccccccccccccccccccccccccccccccccccccccccccccccccccccccccccccccccccccccccccccccccccccccccccccccccccccccccccccccccccccccccccccccccccccccccccccccccccccccccccccccccccccccccccccccccccccccccccccccccccccccccccccccccccccccccccccccccccc"
     fill="none"
     stroke-linecap="round"
     d="m 301,252 -6,-5 -1,-5 -4,-4 1,-3 3,-3 v -4 -3 l 2,-4 2,-7 1,1 10,-8 1,-4 -1,-3 4,-1 1,-4 2,1 1,-2 3,2 2,-1 v -7 l 3,-7 4,-2 3,2 3,-1 3,2 3,5 2,1 10,-7 -1,-7 h 5 l 2,-3 2,1 2,-5 -1,-2 2,-4 5,-2 1,-5 6,-5 4,-6 5,-3 4,-15 M 267,309 h -4 l -4,-3 -3,-5 -2,-1 -7,-9 -4,-5 h -2 l -1,-3 -2,-6 -2,-1 v -2 l -4,-8 v -1 -4 l -4,-1 v -1 l 2,-2 1,-5 3,-3 -2,-2 2,-3 -3,-6 v -1 l -9,4 -3,4 -1,-1 -5,1 -3,-2 -1,4 h -3 v -2 l -3,-3 v -3 l -5,2 h -3 l -4,7 -3,1 -3,2 -2,-2 -5,-6 -5,4 -1,5 -2,3 -3,1 h -6 l -2,2 -10,-2 v 3 l -3,4 -6,-3 -4,2 -2,-5 2,-3 h -2 l -4,-4 h -2 l 2,4 -1,3 -3,2 h -2 l -2,4 -7,-3 -5,3 h -1 v -4 l -12,-1 1,4 -2,3 -1,3 v 1 m 136,-31 1,-1 -1,-5 3,-9 -3,-3 v -7 l 3,-4 -3,-1 -3,-4 1,-1 7,-8 v -1 h 2 l 1,-3 h 2 l 4,3 1,-1 3,1 1,-3 2,1 5,-4 2,-3 -3,-4 2,-2 v -5 l -5,2 -5,-1 1,-4 2,-1 -2,-1 v -3 l 3,-4 -5,-3 -5,2 -1,-3 1,-3 -3,-14 2,-1 v -5 l -3,-4 v -4 l -1,-1 1,-4 v -3 l 2,-2 v -1 l -8,-1 v -2 l -4,4 -4,1 v -1 l 4,-8 v -4 l -7,-3 -3,3 -1,-3 -3,-2 v -2 l -1,-3 -4,-1 -1,-6 -2,-1 v -2 l -3,-1 -3,3 -2,-9 -7,-1 -2,3 1,2 -1,6 -1,3 1,2 1,10 2,1 v 5 l 4,5 -1,3 -5,3 1,3 1,2 -2,6 2,3 h -1 v 2 l 3,2 -0.895,2.248 L 191,145 l 1.022,4 1.978,1 v 6 l 3,5 v 3 l 4,1 -1,2 2,3 -3,6 h -1 l 1,8 3,-1 1,-1 2,2 v 5 l 2,3 2,5 v 1 4 l -1,2 v 2 l -3,2 -2,4 1,6 -1,1 -2,10 2,3 2,1 1,2 -3,4 m 106,-39 -3,-2 -2,-3 h -3 l -2,-3 -4,-6 -2,1 -1,-2 -3,1 -3,-1 -1,3 h -4 l -2,5 -1,-1 -2,4 -5,-4 h -9 v -2 l -4,-2 h -1 m -66.579,-110 -1.369,0.016 -0.241,-1.947 -3.639,1.895 -2.88,-3.016 -0.233,-5.007 -4.045,0.157 -4.917,2.85 0.489,5.046 M 147,174 h 4 l 1,3 4,2 6,9 4,5 4,4 v 1 l -8,6 -1,3 2,6 h 2 l 1,4 -3,6 1,1 1,1 1,2 -5,3 -1,4 v 2 l 1,2 h 2 l 1,5 1,3 1,-2 1,1 3,-2 1,-2 2,2 h 5 m -42,11 2,-1 1,-2 1,-4 2,-1 3,1 4,-2 m 0,0 h 1 l 4,-9 m -1,-8 h 1 m -11,-9 v 2 l -3,2 2,2 8,-5 v 2 l 2,1 h 1 v 5 m -19,0 -2,-2 h -2 l -2,4 -4,3 v 3 l 4,3 -2,4 1,2 h 4 l -1,5 m -35,18 h -3 l -4,-1 -1,1 -6,-3 -2,2 -4,-1 -2,1 -2,-2 v 3 l -2,3 -6,-1 -1,-2 -4,-1 v -2 h -7"
     id="path3047"
     style="stroke:#000000;stroke-width:0.2;stroke-linecap:butt;stroke-linejoin:round;stroke-miterlimit:4;stroke-dasharray:none" />
  <path
     d="m 202.09,152.208 0.962,4.812"
     style="fill:none;stroke:#000000;stroke-width:0.2;stroke-linejoin:round"
     id="path902" />
  <path
     sodipodi:nodetypes="cccc"
     d="m 196,114 3.929,0.927 6.131,5.999 1.925,-0.722"
     style="fill:none;stroke:#000000;stroke-width:0.2;stroke-linejoin:round"
     id="path904" />
  <path
     d="m 169.846,65.943 4.09,-3.849 5.054,2.887 2.887,-3.008 6.256,1.203 1.925,-1.203"
     style="fill:none;stroke:#000000;stroke-width:0.2;stroke-linejoin:round"
     id="path906" />
  <path
     d="m 200.044,64.98 0.121,7.099 -2.166,5.775"
     style="fill:none;stroke:#000000;stroke-width:0.2;stroke-linejoin:round"
     id="path908" />
  <g
     id="g3051">
    <rect
       id="rect3053"
       height="36"
       width="158"
       y="347"
       x="450"
       opacity="0.75"
       fill="white" />
    <rect
       id="rect3055"
       height="8"
       width="150"
       y="351"
       x="454"
       fill="black" />
    <text
       style="white-space: pre;"
       id="text3057"
       y="379"
       x="529"
       font-family="sans-serif"
       font-size="24"
       text-anchor="middle"
       fill="black">200km</text>
  </g>
</svg>
