<?xml version="1.0" encoding="UTF-8" standalone="no"?>
<svg
   xmlns:dc="http://purl.org/dc/elements/1.1/"
   xmlns:cc="http://creativecommons.org/ns#"
   xmlns:rdf="http://www.w3.org/1999/02/22-rdf-syntax-ns#"
   xmlns:svg="http://www.w3.org/2000/svg"
   xmlns="http://www.w3.org/2000/svg"
   xmlns:sodipodi="http://sodipodi.sourceforge.net/DTD/sodipodi-0.dtd"
   xmlns:inkscape="http://www.inkscape.org/namespaces/inkscape"
   xml:space="preserve"
   enable-background="new 0 0 555 550"
   viewBox="0 0 351.58957 345.31119"
   height="345.31119"
   width="351.58957"
   y="0px"
   x="0px"
   inkscape:version="1.0 (4035a4fb49, 2020-05-01)"
   sodipodi:docname="Oita.svg"
   id="svg2"
   version="1.1"><metadata
   id="metadata85"><rdf:RDF><cc:Work
       rdf:about=""><dc:format>image/svg+xml</dc:format><dc:type
         rdf:resource="http://purl.org/dc/dcmitype/StillImage" /></cc:Work></rdf:RDF></metadata><defs
   id="defs83">
</defs>
<sodipodi:namedview
   inkscape:document-rotation="0"
   inkscape:pageopacity="0"
   inkscape:pageshadow="2"
   inkscape:window-width="1920"
   inkscape:window-height="1017"
   inkscape:window-x="-8"
   inkscape:window-y="-8"
   inkscape:window-maximized="1"
   inkscape:current-layer="svg2"
   id="namedview141"
   borderopacity="1"
   pagecolor="#ffffff"
   bordercolor="#666666"
   objecttolerance="10"
   gridtolerance="10"
   guidetolerance="10"
   showgrid="false"
   inkscape:zoom="1.4142136"
   inkscape:cx="256.53827"
   inkscape:cy="129.99768">
	</sodipodi:namedview>
<title
   id="title4">大分県区画図</title>
<rect
   style="stroke-width:0.627839"
   id="rect33"
   x="-6.2783852"
   y="-6.2783852"
   fill="#ffffff"
   width="364.14636"
   height="357.86795" /><rect
   style="stroke-width:0.627839"
   id="rect35"
   y="0"
   fill="#eeeeee"
   width="351.58957"
   height="345.31119"
   x="0" /><a
   style="stroke-width:0.31855324;stroke-miterlimit:4;stroke-dasharray:none"
   transform="scale(0.62783854)"
   id="a39">
			<g
   style="stroke-width:0.31855324;stroke-miterlimit:4;stroke-dasharray:none"
   id="use41">
				
					<path
   style="stroke-width:0.31855324;stroke-miterlimit:4;stroke-dasharray:none"
   d="m 559,24 2,-4 -3,-3 3,-4 -2,2 -4,6 3,8 -8,5 3,4 6,-4 2,-4 z M 518,7 h 3 l -1,-2 z m -31,2 9,-4 -8,-7 -4,1 -1,5 -6,1 2,5 z m 33,-13 -10,3 8,3 1,1 5,-7 z m -49,4 3,2 V 0 l -2,-1 z"
   stroke-linejoin="round"
   stroke-width="0.2"
   stroke="#000000"
   fill="#aaaaaa"
   inkscape:connector-curvature="0"
   id="_x33_5000" />
			</g>
		</a><a
   style="stroke-width:0.31855324;stroke-miterlimit:4;stroke-dasharray:none"
   transform="scale(0.62783854)"
   id="a43">
			<g
   style="stroke-width:0.31855324;stroke-miterlimit:4;stroke-dasharray:none"
   id="use45">
				
					<path
   style="stroke-width:0.31855324;stroke-miterlimit:4;stroke-dasharray:none"
   d="m 564,171 -3,2 -1,2 4,2 z m 0,15 -2,1 -6,-7 -1,9 -4,-7 -12,7 -11,10 -12,8 -5,9 -6,2 9,-3 7,-4 -2,-3 4,-2 11,-6 14,-5 1,5 -4,1 2,2 -5,1 -1,5 8,-1 h 4 l 6,-6 3,2 v -3 l 1,-6 1,-1 z"
   stroke-linejoin="round"
   stroke-width="0.2"
   stroke="#000000"
   fill="#aaaaaa"
   inkscape:connector-curvature="0"
   id="_x33_8000" />
			</g>
		</a><a
   style="stroke-width:0.31855324;stroke-miterlimit:4;stroke-dasharray:none"
   transform="scale(0.62783854)"
   id="a47">
			<g
   style="stroke-width:0.31855324;stroke-miterlimit:4;stroke-dasharray:none"
   id="use49">
				
					<path
   style="stroke-width:0.31855324;stroke-miterlimit:4;stroke-dasharray:none"
   d="m -4,-4 v 327 l 1,1 29,11 9,-6 3,-14 4,-4 -2,-7 5,-7 -5,-4 -12,-7 -3,-5 9,-7 -14,-4 v -8 l 13,-4 h 4 l -1,-3 -5,-4 6,-8 -4,-17 -5,-4 -3,-2 -1,-2 3,-3 8,-6 v -5 l 10,-3 3,-22 2,-11 1,-1 11,-4 6,-14 4,-1 13,-10 h 3 1 9 l 9,-5 3,4 10,1 21,3 h 1 l 22,-2 -4,-10 8,-8 2,-8 -7,-8 v -6 l 2,-8 3,-5 -2,-4 -5,6 -1,-3 -15,-7 1,4 -7,-3 1,5 -4,-2 v 3 h -3 l -5,-9 -6,-10 -4,1 v -8 l -5,-8 2,-2 -4,1 -7,-9 -2,-10 -5,-2 2,-6 v -3 l -3,-1 -3,-3 7,-5 -3,-4 -5,3 1,-2 h -3 l 4,-4 -2,-6 -4,4 -2,1 2,-3 5,-4 z"
   stroke-linejoin="round"
   stroke-width="0.2"
   stroke="#000000"
   fill="#aaaaaa"
   inkscape:connector-curvature="0"
   id="_x34_0000" />
			</g>
		</a><a
   style="stroke-width:0.31855324;stroke-miterlimit:4;stroke-dasharray:none"
   transform="scale(0.62783854)"
   id="a51">
			<g
   style="stroke-width:0.31855324;stroke-miterlimit:4;stroke-dasharray:none"
   id="use53">
				
					<path
   style="stroke-width:0.31855324;stroke-miterlimit:4;stroke-dasharray:none"
   d="m 144,554 5,-9 4,-2 9,4 v -8 l 3,-12 15,-10 7,-5 v -5 l 4,-6 v -1 l -4,-6 4,-3 8,-19 26,-3 h 1 v -1 l -6,-8 -17,-10 v -5 l -4,1 -4,-15 -3,-13 2,-5 -2,-3 3,-2 -3,-2 4,-1 3,-7 -7,-3 v -6 l -9,-11 -3,-17 -8,-9 v -1 l -2,-2 -3,2 -3,-3 -2,-12 -4,-6 -1,-12 -17,-14 -1,-4 -2,-3 -12,-3 -16,-3 -11,9 -9,-3 -5,19 -2,1 7,6 1,6 9,12 2,3 -5,5 1,8 v 6 l -7,10 -11,2 -6,-12 -16,-3 -4,-5 -4,-1 -5,-11 -9,-3 -7,1 -2,-6 -29,-11 -1,-1 v 231 z"
   stroke-linejoin="round"
   stroke-width="0.2"
   stroke="#000000"
   fill="#aaaaaa"
   inkscape:connector-curvature="0"
   id="_x34_3000" />
			</g>
		</a><a
   style="stroke-width:0.31855324;stroke-miterlimit:4;stroke-dasharray:none"
   transform="scale(0.62783854)"
   id="a55">
			<g
   style="stroke-width:0.31855324;stroke-miterlimit:4;stroke-dasharray:none"
   id="use57">
				
					<path
   style="stroke-width:0.31855324;stroke-miterlimit:4;stroke-dasharray:none"
   d="m 406,554 v -1 z m 1,0 3,-7 3,-1 v 5 h 3 l 1,-7 8,-4 h 1 l 1,-3 1,-6 h 4 l 4,6 4,-2 1,-2 -3,-5 2,-6 3,2 3,1 -2,-4 -1,-3 3,-2 5,1 3,-6 -7,2 -8,3 -2,-6 3,-4 -3,-10 6,-13 -1,-10 -9,2 -4,-5 -12,4 -3,-6 -9,-3 -12,3 -1,8 -9,22 -17,2 -32,-3 -12,9 -11,-1 -12,-8 4,-13 -13,-10 -4,-8 -16,5 -6,8 -9,-1 -17,5 -4,-4 -1,-8 -7,-3 v 1 h -1 l -26,3 -8,19 -4,3 4,6 v 1 l -4,6 v 5 l -7,5 -15,10 -3,12 v 8 l -9,-4 -4,2 -5,9 z m 24,0 4,-4 -8,-3 -5,3 3,3 3,1 z m -11,-6 v -1 z m 2,-5 h 1 z"
   stroke-linejoin="round"
   stroke-width="0.2"
   stroke="#000000"
   fill="#aaaaaa"
   inkscape:connector-curvature="0"
   id="_x34_5000" />
			</g>
		</a><a
   style="stroke-width:0.31855324;stroke-miterlimit:4;stroke-dasharray:none"
   transform="scale(0.62783854)"
   id="a59">
			<g
   style="stroke-width:0.31855324;stroke-miterlimit:4;stroke-dasharray:none"
   id="use61">
				
					<path
   style="stroke-width:0.31855324;stroke-miterlimit:4;stroke-dasharray:none"
   d="m 309,281 1,11 -6,2 -7,12 -5,-2 v 5 l -12,6 -1,4 -6,-2 -6,6 2,11 -6,6 v 2 l 2,6 13,-8 3,12 h 7 l 1,-4 1,3 3,-1 5,-12 7,-1 8,-7 5,-2 1,2 9,8 11,-1 13,6 3,4 8,-4 6,2 10,4 v -7 l 4,-5 1,-16 4,-7 -2,-2 7,-12 3,2 4,-4 21,-7 13,-6 5,10 6,-5 2,-2 -4,-1 5,-8 1,-9 1,-3 h 5 l 2,-3 4,-6 -2,-2 -12,3 2,6 -6,-2 -12,2 -18,2 -6,2 3,-6 -3,4 -2,-4 h -5 v 6 l -4,-5 -4,1 -7,-8 -2,3 1,-4 -10,-6 -21,6 -14,4 -2,2 h 2 l -7,5 -18,-6 -11,-4 v 5 l 1,3 9,3 z m 172,-28 1,-3 -7,1 3,4 z"
   stroke-linejoin="round"
   stroke-width="0.2"
   stroke="#000000"
   fill="#16a34a"
   inkscape:connector-curvature="0"
   id="_x34_4201" />
			</g>
		</a><a
   style="stroke-width:0.31855324;stroke-miterlimit:4;stroke-dasharray:none"
   transform="scale(0.62783854)"
   id="a63">
			<g
   style="stroke-width:0.31855324;stroke-miterlimit:4;stroke-dasharray:none"
   id="use65">
				
					<path
   style="stroke-width:0.31855324;stroke-miterlimit:4;stroke-dasharray:none"
   d="m 303,257 -4,-6 -2,-16 -2,-14 -1,-3 -4,-3 -2,1 -4,-2 -20,5 -2,-3 h -7 v 12 l 5,3 3,-3 6,1 -5,9 -1,7 -12,5 1,8 -6,8 v 6 l 11,4 12,-6 7,2 1,-2 3,-2 6,7 11,2 v -12 h 7 l -1,-3 z"
   stroke-linejoin="round"
   stroke-width="0.2"
   stroke="#000000"
   fill="#16a34a"
   inkscape:connector-curvature="0"
   id="_x34_4202" />
			</g>
		</a><a
   style="stroke-width:0.31855324;stroke-miterlimit:4;stroke-dasharray:none"
   transform="scale(0.62783854)"
   id="a67">
			<g
   style="stroke-width:0.31855324;stroke-miterlimit:4;stroke-dasharray:none"
   id="use69">
				
					<path
   style="stroke-width:0.31855324;stroke-miterlimit:4;stroke-dasharray:none"
   d="m 159,207 1,-1 5,8 4,-1 3,3 8,-6 3,-3 3,-5 -4,-4 4,-8 -2,-3 11,-2 -5,-31 8,-2 3,-4 2,-5 -8,-19 3,-8 h 5 l 2,-5 1,-8 -13,-15 -6,5 -8,-2 -3,-6 -8,1 -3,5 -2,8 v 6 l 7,8 -2,8 -8,8 4,10 -22,2 h -1 l -21,-3 -10,-1 -3,-4 -9,5 h -9 -1 -3 l -13,10 -4,1 -6,14 7,5 1,6 7,2 3,6 15,13 7,16 13,-1 5,-11 12,-2 13,11 2,-7 4,1 4,7 z"
   stroke-linejoin="round"
   stroke-width="0.2"
   stroke="#000000"
   fill="#16a34a"
   inkscape:connector-curvature="0"
   id="_x34_4203" />
			</g>
		</a><a
   style="stroke-width:0.31855324;stroke-miterlimit:4;stroke-dasharray:none"
   transform="scale(0.62783854)"
   id="a71">
			<g
   style="stroke-width:0.31855324;stroke-miterlimit:4;stroke-dasharray:none"
   id="use73">
				
					<path
   style="stroke-width:0.31855324;stroke-miterlimit:4;stroke-dasharray:none"
   d="m 127,282 2,-11 -8,-6 -1,-8 -11,3 -4,-5 4,-2 -1,-9 11,-17 3,1 -2,-2 1,-4 -7,1 4,-11 -3,-2 -13,1 -7,-16 -15,-13 -3,-6 -7,-2 -1,-6 -7,-5 -11,4 -1,1 -2,11 -3,22 -10,3 v 5 l -8,6 -3,3 1,2 3,2 5,4 4,17 -6,8 5,4 1,3 h -4 l -13,4 v 8 l 14,4 -9,7 3,5 12,7 5,4 -5,7 2,7 -4,4 -3,14 -9,6 2,6 7,-1 9,3 5,11 4,1 4,5 16,3 6,12 11,-2 7,-10 v -6 l -1,-8 5,-5 -2,-3 -9,-12 -1,-6 -7,-6 2,-1 5,-19 9,3 11,-9 16,3 z"
   stroke-linejoin="round"
   stroke-width="0.2"
   stroke="#000000"
   fill="#16a34a"
   inkscape:connector-curvature="0"
   id="_x34_4204" />
			</g>
		</a><a
   style="stroke-width:0.31855324;stroke-miterlimit:4;stroke-dasharray:none"
   transform="scale(0.62783854)"
   id="a75">
			<g
   style="stroke-width:0.31855324;stroke-miterlimit:4;stroke-dasharray:none"
   id="use77">
				
					<path
   style="stroke-width:0.31855324;stroke-miterlimit:4;stroke-dasharray:none"
   d="m 487,468 -1,7 -1,-3 -1,-6 -6,1 5,-3 -2,-7 4,4 2,-2 h 1 l 3,-8 4,2 2,-4 6,-9 h 4 l -8,-5 -1,5 h -3 l 1,-3 -5,-13 5,1 h 3 l 2,5 4,2 v -4 -5 l 3,1 3,-5 5,-1 1,3 2,1 2,-4 3,-2 3,2 2,-1 5,2 h 2 l -1,-4 -5,-4 -2,2 -6,-4 -2,3 -5,-3 -1,2 1,5 -8,2 -4,1 -3,-2 1,-7 1,-4 -3,3 -4,7 -4,-1 1,-2 h -1 v -8 l -3,4 -3,-3 1,6 -1,1 -5,-7 -4,4 -2,-5 -5,3 2,-9 -5,2 -5,-5 h -2 v -5 h -3 l 3,-8 1,3 2,4 1,-4 -3,-4 7,-8 3,-10 3,-4 2,3 2,-3 5,2 9,2 6,-4 10,-2 1,-2 -2,1 -4,-5 -13,8 -6,-4 h -10 l -11,4 -7,6 -22,1 -5,5 -13,-2 1,4 -5,7 -3,8 4,8 -10,6 -3,-2 -20,3 -9,7 -6,-1 -3,-4 -8,10 h -4 l -4,5 4,2 v 4 l -8,-2 1,5 -4,8 h -1 l -4,1 v 6 l -12,-1 -16,13 -12,3 -7,6 4,8 13,10 -4,13 12,8 11,1 12,-9 32,3 17,-2 9,-22 1,-8 12,-3 9,3 3,6 12,-4 4,5 9,-2 1,10 -6,13 3,10 -3,4 2,6 8,-3 7,-2 -1,-2 -4,-1 3,-5 -3,-7 2,-2 -2,-5 h 3 l 4,9 2,2 1,-6 -5,-5 2,-5 4,-1 v 4 l -1,4 2,1 2,-3 5,2 -1,-5 4,-2 -1,3 3,4 4,-1 3,-9 7,1 -1,5 h 5 v -7 l 7,-5 6,-3 2,-5 -3,-1 -8,-5 -4,1 2,2 3,5 -4,3 z m -22,-77 v 4 l 5,1 7,-7 -6,-1 3,-4 4,-4 -2,-2 -8,2 1,3 -2,2 3,-2 v 4 z m 63,15 3,3 1,-3 h 2 l -1,-3 -1,-6 -1,5 -5,2 z m -60,93 2,-2 -4,-2 -2,-1 v 3 z m 5,24 -2,-2 -1,5 z"
   stroke-linejoin="round"
   stroke-width="0.2"
   stroke="#000000"
   fill="#16a34a"
   inkscape:connector-curvature="0"
   id="_x34_4205" />
			</g>
		</a><a
   style="stroke-width:0.31855324;stroke-miterlimit:4;stroke-dasharray:none"
   transform="scale(0.62783854)"
   id="a79">
			<g
   style="stroke-width:0.31855324;stroke-miterlimit:4;stroke-dasharray:none"
   id="use81">
				
					<path
   style="stroke-width:0.31855324;stroke-miterlimit:4;stroke-dasharray:none"
   d="m 455,330 9,-5 -4,-3 -1,-2 -2,5 h -8 l 2,-2 -3,-1 -2,3 -2,-1 -4,5 -4,2 -4,-5 -10,1 1,-3 -4,1 7,-9 4,-3 v -4 l -3,1 2,-5 3,-7 7,-3 -5,-10 -13,6 -21,7 -4,4 -3,-2 -7,12 2,2 -4,7 -1,16 -4,5 v 7 l -10,-4 -7,3 -5,11 5,4 -1,6 -5,3 -5,-2 -2,10 12,17 v 9 l 3,4 6,1 9,-7 20,-3 3,2 10,-6 -4,-8 3,-8 5,-7 -1,-4 3,-9 4,-1 -8,-1 -2,-8 8,-6 11,-8 z"
   stroke-linejoin="round"
   stroke-width="0.2"
   stroke="#000000"
   fill="#16a34a"
   inkscape:connector-curvature="0"
   id="_x34_4206" />
			</g>
		</a><a
   style="stroke-width:0.31855324;stroke-miterlimit:4;stroke-dasharray:none"
   transform="scale(0.62783854)"
   id="a83">
			<g
   style="stroke-width:0.31855324;stroke-miterlimit:4;stroke-dasharray:none"
   id="use85">
				
					<path
   style="stroke-width:0.31855324;stroke-miterlimit:4;stroke-dasharray:none"
   d="m 493,307 4,-4 -4,1 z m -17,40 1,-8 -3,1 -3,2 2,8 h -2 l -1,4 -2,-2 -4,2 1,-3 -1,-5 -5,3 -5,-4 -2,4 3,1 -4,-1 h -8 l 4,-3 -7,-2 7,-3 5,-8 3,1 5,-1 -1,-3 3,-2 4,-2 -2,-1 -9,5 -24,7 -11,8 -8,6 2,8 8,1 -4,1 -3,9 13,2 5,-5 22,-1 7,-6 11,-4 h 10 l 6,4 13,-8 -2,-4 2,-9 -3,2 -4,2 v 6 l 1,4 -8,2 -1,-4 -5,3 h -1 l -4,-1 z m 27,-9 4,-4 -5,-1 1,4 z"
   stroke-linejoin="round"
   stroke-width="0.2"
   stroke="#000000"
   fill="#16a34a"
   inkscape:connector-curvature="0"
   id="_x34_4207" />
			</g>
		</a><a
   style="stroke-width:0.31855324;stroke-miterlimit:4;stroke-dasharray:none"
   transform="scale(0.62783854)"
   id="a87">
			<g
   style="stroke-width:0.31855324;stroke-miterlimit:4;stroke-dasharray:none"
   id="use89">
				
					<path
   style="stroke-width:0.31855324;stroke-miterlimit:4;stroke-dasharray:none"
   d="m 192,418 3,13 4,15 4,-1 v 5 l 17,10 6,8 7,3 3,-3 9,-3 8,-10 -3,-4 5,-6 -3,-13 3,-11 10,-18 -3,-18 -5,-2 -9,-4 -2,-5 6,-2 -2,-3 7,-6 1,-4 -4,-2 3,-2 -2,-3 2,-5 6,-5 v -2 l 6,-6 -2,-11 6,-6 6,2 -9,-6 h -19 l -8,13 -6,3 -2,6 -16,1 -9,-8 h -5 l -9,-1 -8,16 -4,2 -9,-2 -5,6 2,2 v 1 l 8,9 3,17 9,11 v 6 l 7,3 -3,7 -4,1 3,2 -3,2 2,3 z"
   stroke-linejoin="round"
   stroke-width="0.2"
   stroke="#000000"
   fill="#16a34a"
   inkscape:connector-curvature="0"
   id="_x34_4208" />
			</g>
		</a><a
   style="stroke-width:0.31855324;stroke-miterlimit:4;stroke-dasharray:none"
   transform="scale(0.62783854)"
   id="a91">
			<g
   style="stroke-width:0.31855324;stroke-miterlimit:4;stroke-dasharray:none"
   id="use93">
				
					<path
   style="stroke-width:0.31855324;stroke-miterlimit:4;stroke-dasharray:none"
   d="m 263,111 -3,5 6,4 -1,4 5,-1 5,6 3,9 14,8 7,6 11,2 -2,-10 4,-7 9,-16 11,-7 3,-11 -7,-1 -3,-10 3,-5 -9,-6 -3,-16 -2,-9 h -1 v -1 l -3,1 -5,-4 2,6 -2,-1 -3,3 -3,-3 -3,2 -1,4 4,3 -5,1 v 5 l -2,-1 -4,2 2,3 -7,11 -3,-3 -15,14 4,10 -2,1 z"
   stroke-linejoin="round"
   stroke-width="0.2"
   stroke="#000000"
   fill="#16a34a"
   inkscape:connector-curvature="0"
   id="_x34_4209" />
			</g>
		</a><a
   style="stroke-width:0.31855324;stroke-miterlimit:4;stroke-dasharray:none"
   transform="scale(0.62783854)"
   id="a95">
			<g
   style="stroke-width:0.31855324;stroke-miterlimit:4;stroke-dasharray:none"
   id="use97">
				
					<path
   style="stroke-width:0.31855324;stroke-miterlimit:4;stroke-dasharray:none"
   d="m 319,181 3,3 -3,1 v 7 h 5 l -1,5 9,-4 9,3 3,9 4,-1 7,-1 2,-4 -2,-4 -7,-9 3,-2 -1,-3 v -2 l 6,3 6,-1 4,3 -5,3 10,1 h 8 l 6,-20 -10,-1 -5,6 -10,1 -3,-1 3,-9 h -9 l -3,-5 -8,-2 -2,-11 -7,-20 1,-12 -11,7 -9,16 -4,7 2,10 -11,-2 -7,-6 -14,-8 -3,-9 -11,5 7,4 v 5 l -6,-4 -8,9 8,11 4,15 -7,11 1,6 -5,12 7,2 3,7 9,-8 -3,-3 3,-6 6,3 18,-2 v -3 h 5 l -1,-4 9,-7 v -3 l 4,-1 z"
   stroke-linejoin="round"
   stroke-width="0.2"
   stroke="#000000"
   fill="#16a34a"
   inkscape:connector-curvature="0"
   id="_x34_4210" />
			</g>
		</a><a
   style="stroke-width:0.31855324;stroke-miterlimit:4;stroke-dasharray:none"
   transform="scale(0.62783854)"
   id="a99">
			<g
   style="stroke-width:0.31855324;stroke-miterlimit:4;stroke-dasharray:none"
   id="use101">
				
					<path
   style="stroke-width:0.31855324;stroke-miterlimit:4;stroke-dasharray:none"
   d="m 258,203 5,-12 -1,-6 7,-11 -4,-15 -8,-11 8,-9 6,4 v -5 l -7,-4 11,-5 -5,-6 -5,1 1,-4 -6,-4 3,-5 4,-2 -22,-6 -7,2 -7,3 -3,-5 -4,-1 -18,1 -1,8 -2,5 h -5 l -3,8 8,19 -2,5 -3,4 -8,2 5,31 -11,2 2,3 -4,8 4,4 -3,5 -3,3 6,3 8,-2 11,12 10,-1 4,7 9,3 8,4 8,-8 h 11 v -12 h 7 l 6,-4 -3,-7 z"
   stroke-linejoin="round"
   stroke-width="0.2"
   stroke="#000000"
   fill="#16a34a"
   inkscape:connector-curvature="0"
   id="_x34_4211" />
			</g>
		</a><a
   style="stroke-width:0.31855324;stroke-miterlimit:4;stroke-dasharray:none"
   transform="scale(0.62783854)"
   id="a103">
			<g
   style="stroke-width:0.31855324;stroke-miterlimit:4;stroke-dasharray:none"
   id="use105">
				
					<path
   style="stroke-width:0.31855324;stroke-miterlimit:4;stroke-dasharray:none"
   d="m 338,438 4,-8 -1,-5 8,2 v -4 l -4,-2 4,-5 h 4 l 8,-10 v -9 l -12,-17 2,-10 5,2 5,-3 1,-6 -5,-4 5,-11 7,-3 -6,-2 -8,4 -3,-4 -13,-6 -11,1 -9,-8 -1,-2 -5,2 -8,7 -7,1 -5,12 -3,1 -1,-3 -1,4 h -7 l -3,-12 -13,8 -2,-6 -6,5 -2,5 2,3 -3,2 4,2 -1,4 -7,6 2,3 -6,2 2,5 9,4 5,2 3,18 -10,18 -3,11 3,13 -5,6 3,4 -8,10 -9,3 -3,3 1,8 4,4 17,-5 9,1 6,-8 16,-5 7,-6 12,-3 16,-13 12,1 v -6 l 4,-1 z"
   stroke-linejoin="round"
   stroke-width="0.2"
   stroke="#000000"
   fill="#16a34a"
   inkscape:connector-curvature="0"
   id="_x34_4212" />
			</g>
		</a><a
   style="stroke-width:0.31855324;stroke-miterlimit:4;stroke-dasharray:none"
   transform="scale(0.62783854)"
   id="a107">
			<g
   style="stroke-width:0.31855324;stroke-miterlimit:4;stroke-dasharray:none"
   id="use109">
				
					<path
   style="stroke-width:0.31855324;stroke-miterlimit:4;stroke-dasharray:none"
   d="m 292,309 v -5 l 5,2 7,-12 6,-2 -1,-11 4,-13 -9,-3 h -7 v 12 l -11,-2 -6,-7 -3,2 -1,2 -7,-2 -12,6 -11,-4 v -6 l 6,-8 -1,-8 12,-5 1,-7 5,-9 -6,-1 -3,3 -5,-3 h -11 l -8,8 -8,-4 -2,2 -5,3 7,7 -14,13 -2,8 -10,9 8,18 8,3 v 4 h -6 l 5,4 4,-3 3,2 -8,7 -12,5 -8,7 v 6 l 9,1 h 5 l 9,8 16,-1 2,-6 6,-3 8,-13 h 19 l 9,6 1,-4 z"
   stroke-linejoin="round"
   stroke-width="0.2"
   stroke="#000000"
   fill="#16a34a"
   inkscape:connector-curvature="0"
   id="_x34_4213" />
			</g>
		</a><a
   style="stroke-width:0.31855324;stroke-miterlimit:4;stroke-dasharray:none"
   transform="scale(0.62783854)"
   id="a111">
			<g
   style="stroke-width:0.31855324;stroke-miterlimit:4;stroke-dasharray:none"
   id="use113">
				
					<path
   style="stroke-width:0.31855324;stroke-miterlimit:4;stroke-dasharray:none"
   d="m 338,146 2,11 8,2 3,5 h 9 l -3,9 3,1 10,-1 5,-6 10,1 5,-9 1,-4 1,5 1,-15 -2,3 -2,-6 7,-20 -3,-6 h 1 l -5,-16 -4,-8 -6,-3 -7,-15 -5,-5 -4,-9 -7,3 1,-5 -7,-5 -3,7 2,-3 -4,-3 -2,3 -4,-3 v -3 l -4,1 -6,-3 -3,4 v 4 l -4,2 v -5 l -4,-2 -4,4 2,9 3,16 9,6 -3,5 3,10 7,1 -3,11 -1,12 z"
   stroke-linejoin="round"
   stroke-width="0.2"
   stroke="#000000"
   fill="#16a34a"
   inkscape:connector-curvature="0"
   id="_x34_4214" />
			</g>
		</a><a
   style="stroke-width:0.31855324;stroke-miterlimit:4;stroke-dasharray:none"
   transform="scale(0.62783854)"
   id="a115">
			<g
   style="stroke-width:0.31855324;stroke-miterlimit:4;stroke-dasharray:none"
   id="use117">
				
					<path
   style="stroke-width:0.31855324;stroke-miterlimit:4;stroke-dasharray:none"
   d="m 369,26 -5,-1 -8,7 -2,-3 -4,7 9,-2 4,2 10,-7 5,1 z"
   stroke-miterlimit="10"
   stroke-width="0.2"
   stroke="#000000"
   fill="#16a34a"
   inkscape:connector-curvature="0"
   id="_x34_4322" />
			</g>
		</a><a
   style="stroke-width:0.31855324;stroke-miterlimit:4;stroke-dasharray:none"
   transform="scale(0.62783854)"
   id="a119">
			<g
   style="stroke-width:0.31855324;stroke-miterlimit:4;stroke-dasharray:none"
   id="use121">
				
					<path
   style="stroke-width:0.31855324;stroke-miterlimit:4;stroke-dasharray:none"
   d="m 294,218 2,-7 14,-3 6,8 2,-2 13,4 -1,-4 4,3 1,-12 h 9 l -3,-9 -9,-3 -9,4 1,-5 h -5 v -7 l 3,-1 -3,-3 -1,-3 -4,1 v 3 l -9,7 1,4 h -5 v 3 l -18,2 -6,-3 -3,6 3,3 -9,8 -6,4 2,3 20,-5 4,2 2,-1 z"
   stroke-linejoin="round"
   stroke-width="0.2"
   stroke="#000000"
   fill="#16a34a"
   inkscape:connector-curvature="0"
   id="_x34_4341" />
			</g>
		</a><a
   style="stroke-width:0.31855324;stroke-miterlimit:4;stroke-dasharray:none"
   transform="scale(0.62783854)"
   id="a123">
			<g
   style="stroke-width:0.31855324;stroke-miterlimit:4;stroke-dasharray:none"
   id="use125">
				
					<path
   style="stroke-width:0.31855324;stroke-miterlimit:4;stroke-dasharray:none"
   d="m 164,348 3,3 3,-2 5,-6 9,2 4,-2 8,-16 v -6 l 8,-7 12,-5 8,-7 -3,-2 -4,3 -5,-4 h 6 v -4 l -8,-3 -8,-18 10,-9 -3,-6 -7,-1 1,-5 h -6 l 1,-3 -6,-12 -13,3 -4,2 -1,6 -11,5 -3,8 -9,4 -14,31 2,3 1,4 17,14 1,12 4,6 z"
   stroke-linejoin="round"
   stroke-width="0.2"
   stroke="#000000"
   fill="#16a34a"
   inkscape:connector-curvature="0"
   id="_x34_4461" />
			</g>
		</a><a
   style="stroke-width:0.31855324;stroke-miterlimit:4;stroke-dasharray:none"
   transform="scale(0.62783854)"
   id="a127">
			<g
   style="stroke-width:0.31855324;stroke-miterlimit:4;stroke-dasharray:none"
   id="use129">
				
					<path
   style="stroke-width:0.31855324;stroke-miterlimit:4;stroke-dasharray:none"
   d="m 212,265 2,-8 14,-13 -7,-7 5,-3 2,-2 -9,-3 -4,-7 -10,1 -11,-12 -8,2 -6,-3 -8,6 -3,-3 -4,1 -5,-8 -1,1 -4,2 -4,-7 -4,-1 -2,7 -13,-11 -12,2 -5,11 3,2 -4,11 7,-1 -1,4 2,2 -3,-1 -11,17 1,9 -4,2 4,5 11,-3 1,8 8,6 -2,11 -2,12 12,3 14,-31 9,-4 3,-8 11,-5 1,-6 4,-2 13,-3 6,12 -1,3 h 6 l -1,5 7,1 z"
   stroke-linejoin="round"
   stroke-width="0.2"
   stroke="#000000"
   fill="#16a34a"
   inkscape:connector-curvature="0"
   id="_x34_4462" />
			</g>
		</a><path
   style="stroke-width:0.2;stroke-miterlimit:4;stroke-dasharray:none"
   id="path131"
   inkscape:connector-curvature="0"
   fill="#eeeeee"
   stroke="#000000"
   stroke-width="0.125568"
   stroke-linejoin="round"
   d="m 53.366276,193.37426 0.627838,5.65055 -1.883515,0.62784 v -5.65055 l -1.255677,-1.25567 z m 0,0 1.883516,-5.65054 -1.255678,-4.39487 1.883516,-0.62784 2.511354,4.39487 H 55.87763 Z m 114.266604,8.78974 2.51136,-1.88351 -3.13919,0.62784 2.51135,-1.25568 1.25568,1.88352 -3.76703,2.51135 1.88351,1.88352 -0.62784,1.88351 -1.25567,-3.13919 -2.51136,2.51135 z" />


<g
   transform="matrix(0.7080402,0,0,0.7080402,-197.08956,311.33904)"
   id="g26"><rect
     id="rect28"
     height="36"
     width="246"
     y="4"
     x="289"
     opacity="0.75"
     fill="#ffffff" /><rect
     id="rect30"
     height="8"
     width="238"
     y="8"
     x="293"
     fill="#000000" /><text
     style="line-height:0%"
     id="text32"
     y="36"
     x="412"
     font-family="sans-serif"
     font-size="24px"
     text-anchor="middle"
     fill="#000000">50km</text></g></svg>
