<?xml version="1.0" encoding="utf-8"?>
<!DOCTYPE svg PUBLIC "-//W3C//DTD SVG 1.1//EN" "http://www.w3.org/Graphics/SVG/1.1/DTD/svg11.dtd">
<svg width="390" height="610" version="1.1" xmlns="http://www.w3.org/2000/svg">
	<title>滋賀県行政区画地図 (2010年3月21日)</title>
	<desc>Author: Lincun</desc>
	<rect fill="#eeeeee" x="0" y="0" width="390" height="610" />
	<g stroke="black" stroke-width="0.2" stroke-linejoin="round">
		<path fill="#aaaaaa" d="M189-1v3l-3 5v4l-7 5 1 2v7l3 3-2 2-3 1h-6l5 1v7l-3 2 2 2-4 1v-1h-3l2 2-4 1-6-1v-7l-4-5-5-2 3-8 3-1 1 1 2 1 1-3-3-2 2-4-3-3 1-3-2-4 1-3-2-3h-36l-4 4-1 2 3 3-1 7-1 1 2 2h3v-4l-3 1 2-3 3-2 4 16-3 7-3 1 1 1-1 8-1 2 1 2 2-1 2 1 6 8-1 4-3 5-6 4-2-1-4-5v-2h-2v5l-8 8-9 3-2-1-1-1-2-3v-5h-5l-2 2 1 4-1 2-4-4-4 1-1 4h-2l-3 1-4-2-1-3 1-2v-3l-3-1-2 2-3-3 1-5-3-2-3 1-3-1-3-4-4 2-1 4 1 2 2-1 2-2 5 3v2l-5-1 2 2-1 2 3 1h4l1 4-6 3-1 2 3 3 5-3 2 2v2l4-1 1 5-2 2 3 2-2 1 2 4-1 2h-2l-2 1 1 3-4 1-1 3-2 2h-4v-4l-5-3-2 1-2-3v2l-2 2-3-1 2 5h2l2 1v3l4 2v2h3v3l1 1-1 2h2l2 4-6 1-3-2h-2l2 3-2 3h-3v-1l-1-2-4 5-1-4-4-1v-3l3-2-3-1-3-2-1-3h-2l-3-2-3-3 1 4 3 3-1 2-3-1-2 1-3-2v-4l-2-1 1-2-1-5-3 1-3-4-5 1v29l3-2 1-6 4-1 2 3 1-3 6-1 1 4-2 2-3-3-1 1-1 10-5 7 1 2-3-1-1 2 3 1v1l-3 3-3-1v91h1l4-2v-3h3l7 4 2-2h3v-2l4-4 1-5 4-3 3-2-1-4 8 2 2-5-1-2 3-11 7-1 5 1 1-1 6 2h2l1 1-1 6 3 3h4l12-5 1-10 5-7 6-1v-8l-2-2 1-1 2-4v-10l3-4v-5l4-4 3-8 2-10h4l3 9h3l2 3 2-1 3 2 5 8 4-4 3 1 5 1 2-2 3-12h3l2-5 2-2-1-4 8-2 2 2 1-3 7 2 1 2 3 1 4-2v-3l3-4 5 2 7 6v-6l2-5-2-6 1-2 1-3-1-3 3-4v-6l4 5h9l3 3 3-1 6 1 2 3h1l1-6-2-4 2-3 4-5v-2l-6-13-3-5v-5l-5-9v-5l-1-4-7-3 2-6 6-9v-4l3-2 4 3 2-5 1 1 2-1 4 1 1-1 4 1 4 8 2 1h3l2 4 2-2 5 3 4-2 5 6 3-2 4 3 6 2 6 5v1l5-4-1-4 5-4-3-4v-4l3-1 3-6 3-2v-4l3-1 3-2 1-2-2-2 3-5zM53 94l1 2h1zM37 62l2-1v-5l-2 1zM306-1l-3 5 2 2-1 2-3 2-3 1v4l-3 2-3 6-3 1v4l3 4-5 4 1 4-5 4-2 4 3 6-2 3 2 4 3 7 2 2h3l4-3h5l4 4-2 4-2 3 2 3 3 10-4 19v4l2 3 3-4h5l2 8h2l1 1 5-3 3-11 6-1 5 15 1 2 7 1 1 3-1 3 2 2 1 1v3l-2-1-4 6-3 10 6 5 2 7 9 2 1 7 2 4-1 3-1 2-3 5 2 3-4 4v2l4 4 4 7 5 3 4 5-4 6-3 2-5 2h-3l-2 2 1 6-2 2v3l6-1v4l-5 12v8l-5 10-3 3-3 4 1 2 2 7-1 8 1 3-4 5-5 2-1 2 4 3 1 2 3 1v3l8 4 4 3 8-7 1 2 1 4 3 2 11-12 2-2 2 4 2-3 4 1 1-3 3 3v-313zM391 312l-3-3-1 3-4-1-2 3-2-4-2 2-11 12-3-2-1-4-1-2-8 7v5l1 4-4 11 5 3 3-2 7 8 3 1 1 3 4 1 1 8-6 2v6l-3 2-1 3 6 5-4 4 1 3-1 12-1 1 2 3-3 3 2 5 1 6h-2l-5 6-2-1-1 4-2 1v4l-1 1 1 7 3 1-3 7-1 4 3 8-4 2 1 4-1 3 1 3-7 7-4 10v1l-5-1-7 7 2 2-1 2-1 5 2 2-4 2-1 11h-3l-7 6-5 1-5 3-4-1-3 2v4l-5 4-3-1-3 4h-5l-3-2-4 4-10 6-12-2-4-3-11-3-4-2-1-2-5-2v-2l1-2-1-1h-7l-9 3-6-4-3 4-3-4-2 1-1-3-2-1v-3l-2-2-5 3-2 5-3 1-3-2-1 2 3 3-2 1-1 2 2 1 8 4 11-1-1 3 2 3-7 4-3 2-2 8h-5l-2 2-2-1 2 3-1 3 3 6-1 2-1 3h-2l-3 2h-3l-1 3-6 2-2-2-3 3-3-2-4 5-7 2h-2l-1 3 2 2 5 3-1 9h237zM154 611l1-9-5-3-2-2 1-3-3-2v-2l-2 1-1-3 3-4 2-4 4-1 1-3-2-2-5-4-2 2h-3l-2-5 1-7-9 2-9 2 1-5-4-3-1-2-8 1-3-7 1-9-1-2v-8l-9 6h-5l-3 6-5 2-7-3 2-2-1-3h-3l-7-5v-3l-2-4 4-5-1-6 1-4 5-5-2-6 1-2-2-5-6-2v-1l-6-7 3-6-1-3h-3v-4l-3 1-9-1 3-6 2 1v-1l-2-6-4 1-2-3v-2l2 3 5-1 1-1-1-5h-3v-5l-2-3-5-4v-2l6-5h3l1-2 1-4-2-6 3-5 1-4-2-3 4-8 4-18-1-7 4-9-6-5-1-9-2-2 1-5-2-4-1-6-2-3 1-2-2-4 4-4v-7l-1-2 2-2 3-8v-4l5-6v-2l3-5-2-4-2 2-2 4-7 4-3-2-5-9 1-4-3-2-1-4-2-1v-5l-8-3-4-6-3-6-9-3 3-7h-3l-2 2-7-4h-3v3l-4 2h-1v336l7 11-4 10-3 3v12zM-1 599l3-3 4-10-7-11z" />
		<path fill="#f6bad3" d="M186 578l1-2-3-6 1-3-2-3 2 1 2-2h5l2-8 3-2 7-4-2-3 1-3-11 1-8-4-2-1 1-2 2-1-3-3 1-2 3 2 3-1 2-5 5-3 2 2v3l2 1 1 3 2-1 3 4 3-4 6 4 9-3h7l1 1-1 2v2l5 2 1 2 4 2 11 3 4 3 12 2 10-6 4-4 3 2h5l3-4 3 1 5-4v-4l3-2 4 1 5-3 5-1 7-6h3l1-11 4-2-2-2 1-5 1-2-2-2 7-7 5 1v-1l4-10 7-7-1-3 1-3-1-4 4-2-3-8 1-4 3-7-3-1-1-7 1-1v-4l2-1 1-4 2 1 5-6h2l-1-6-2-5 3-3-2-3 1-1 1-12-1-3 4-4-6-5 1-3 3-2v-6l6-2-1-8-4-1-1-3-3-1-7-8-3 2-5-3-4-1-6-5-1 4h-4l-2 3v10l6 8 1 1 1 3-6 6-8 4-3-1-2 3-7-3-1-1-2-3h-2l-3 4-3-1 1-5-2-2-3-1-5-4-4 1-7 2-12-4-3 3-2-1-2 3-6-6-1 2-1-1-1 2 2 2-2 6-6-3-1 2-2-3-3 1v-6l-4-8v-9l-3-4 1-5 4 2 2-3 6 4-1-3 3-5h2l-1-1 1-3-1-1 2-3 6 4 2-3 2 1 1-1h2l1-2-1-4h1l1 1v-2h2l1-1 4 2h2l1-2-2-2 2-5 1 1 2-2 1 1h3l2-3h1l2-3 2-4h2l7-7 10 2 4-3 3 1v-4l13-9 2 2 6-1-1-2 3-4 3-3 5-10v-8l5-12v-4l-6 1v-3l2-2-1-6 2-2h3l5-2 3-2 4-6-4-5-5-3-4-7-4-4v-2l4-4-2-3 3-5 1-2 1-3-2-4-1-7-9-2-2-7-6-5 3-10 4-6 2 1v-3l-1-1-2-2 1-3-1-3-7-1-1-2-5-15-6 1-3 11-5 3-1-1h-2l-2-8h-5l-3 4-2-3v-4l4-19-3-10-2-3 2-3 2-4-4-4h-5l-4 3h-3l-2-2-3-7-2-4 2-3-3-6 2-4v-1l-6-5-6-2-4-3-3 2-5-6-4 2-5-3-2 2-2-4h-3l-2-1-4-8-4-1-1 1-4-1-2 1-1-1-2 5-4-3-3 2v4l-6 9-2 6 7 3 1 4v5l5 9v5l3 5 6 13v2l-4 5-2 3 2 4-1 6h-1l-2-3-6-1-3 1-3-3h-9l-4-5v6l-3 4 1 3-1 3-1 2 2 6-2 5v6l-7-6-5-2-3 4v3l-4 2-3-1-1-2-7-2-1 3-2-2-8 2 1 4-2 2-2 5h-3l-3 12-2 2-5-1-3-1-4 4-5-8-3-2-2 1-2-3h-3l-3-9h-4l-2 10-3 8-4 4v5l-3 4v10l-2 4-1 1 2 2v8l-6 1-5 7-1 10-12 5h-4l-3-3 1-6-1-1h-2l-6-2-1 1-5-1-7 1-3 11 1 2-2 5-8-2 1 4-3 2-4 3-1 5-4 4v2l-3 7 9 3 3 6 4 6 8 3v5l2 1 1 4 3 2-1 4 5 9 3 2 7-4 2-4 2-2 2 4-3 5v2l-5 6v4l-3 8-2 2 1 2v7l-4 4 2 4-1 2 2 3 1 6 2 4-1 5 2 2 1 9 6 5-4 9 1 7-4 18-4 8 2 3-1 4-3 5 2 6-1 4-1 2h-3l-6 5v2l5 4 2 3v5h3l1 5-1 1-5 1-2-3v2l2 3 4-1 2 6v1l-2-1-3 6 9 1 3-1v4h3l1 3-3 6 6 7v1l6 2 2 5-1 2 2 6-5 5-1 4 1 6-4 5 2 4v3l7 5h3l1 3-2 2 7 3 5-2 3-6h5l9-6v8l1 2-1 9 3 7 8-1 1 2 4 3-1 5 9-2 9-2-1 7 2 5h3l2-2 5 4 2 2-1 3-4 1-2 4-3 4 1 3 2-1v2l3 2h2l7-2 4-5 3 2 3-3 2 2 6-2 1-3h3l3-2h2zM240 447l2-1-1-1 4-3 7-4v-2l-2 1-1-1 2-10-2-2 5-4h5l1-2 10 2 5 5 3-1 2-2 1 3h10l6 7h2l3 2 1 3 3 1 5 4 1 3 4 6-1 1 2 4-1 6-2 9-5 2-3 2h-2l-2-3h-8l-4 5h-3l-2 2-3 5-4 2-2-2-7 5h-3l-8-4-2-5-4 1-1-2 1-3-2-4v-1h-2l-3-2h-3v-3l-10-6 1-4-1-4v-1l2-5zM212 446l-3-2v-2l-3-2-4-2-3 1 3 7-1 2h-1l-1-4h-2l-6 4-3-2-5-4-4-12-3-2 2-3 1-1 1-5-1-8-2-2 1-6h3l2-3h6l3 5 2-2 4 3 3-3 4 5h3l-1 4 2 2 5-1 3 7-4 3 4 4-2 3 3 12 2 2 3-2-2 5-3 2z" />
		<path fill="#f6bad3" d="M285 479l2-2h3l4-5h8l2 3h2l3-2 5-2 2-9 1-6-2-4 1-1-4-6-1-3-5-4-3-1-1-3-3-2h-2l-6-7h-10l-1-3-2 2-3 1-5-5-10-2-1 2h-5l-5 4 2 2-2 10 1 1 2-1v2l-7 4-4 3 1 1-2 1-6-1-2 5v1l1 4-1 4 10 6v3h3l3 2h2v1l2 4-1 3 1 2 4-1 2 5 8 4h3l7-5 2 2 4-2zM353 328v-5l-4-3-8-4v-3l-3-1-1-2-4-3 1-2 5-2 4-5-1-3 1-8-2-7-6 1-2-2-13 9v4l-3-1-4 3-10-2-7 7h-2l-2 4-2 3h-1l-2 3h-3l-1-1-2 2-1-1-2 5 2 2-1 2h-2l-4-2-1 1h-2v2l-1-1h-1l1 4-1 2h-2l-1 1-2-1-2 3-6-4-2 3 1 1-1 3 1 1h-2l-3 5 1 3-6-4-2 3-4-2-1 5 3 4v9l4 8v6l3-1 2 3 1-2 6 3 2-6-2-2 1-2 1 1 1-2 6 6 2-3 2 1 3-3 12 4 7-2 4-1 5 4 3 1 2 2-1 5 3 1 3-4h2l2 3 1 1 7 3 2-3 3 1 8-4 6-6-1-3-1-1-6-8v-10l2-3h4l1-4 6 5 4 1 4-11zM178 403l-1 6 2 2 1 8-1 5-1 1-2 3 3 2 4 12 5 4 3 2 6-4h2l1 4h1l1-2-3-7 3-1 4 2 3 2v2l3 2 6 3 3-2 2-5-3 2-2-2-3-12 2-3-4-4 4-3-3-7-5 1-2-2 1-4h-3l-4-5-3 3-4-3-2 2-3-5h-6l-2 3z" />
		<path fill="none" stroke-linecap="round" d="M320 288l-3-8-7-3-2-4-1-1 1 5-3 7h-2l-3-8-5-2-1-4-2 2-1-1-2 1-2-2-1 3-8 1-1 1h-3l-3-4-7 3-14-5-2-18-1-4 8-6 13-3 14 1 9-2 1 3 4-2 4 6 3-2h3l1-6 1-6 3-1 2-8-3-15 2-1 3 2 7 1 4-10-3-5v-7l-4-8v-2l-4-6 1-2-6-4 3-4-2-5 3-10 1-2v-8l3-5-1-8M247 247l-32-11-26-23-2-11 11-14 1-4-1-10-11-5-1-2 2-3-1-2 3-8-1-9 4-9v-9M215 236l-1 4v23l3 28-16 8-20-1-2-2-4 1-23 13-5 5-12-21-5-5-14-3-4 2-2 4h-3l-1 4h-3l-2 2-5-2-1-3-4 1-2-4v-3l-9-5-2-1-9 3-3-2M237 341l-1-1-6-2-6-6-13-1-4-4h-6l-5-3-14-22-1-4M147 315l-3 4-8 22 3 3 1 20 2 8 9 3v3l3 1-1 2 2 1-1 4 2 3 4 3h3l5 3 5-1 1 6 4 3M214 413l-3-4-1-2-7-6v-4l4-2h4l-1-3h3l1-1 4 2h1l4 2v-3l3-1v-4l7-5-1-2-5-3 1-3-3-4-8-5-7-2 1-3-5-7 2-1v-2l-2 1-1-6-2 1-1-3-3 1h-3v-3l-3 1-1-5h-3l2-1-1-7-5-8-3-19M136 341l-12 6-7 21 4 11 14 8-1 5h3l3 5-1 7 4 3v6l-1 4-3 1-3 4 4 2h2l4 5 7 12 5 4 1 1 6-5 2-8v-7l9 2M117 368l-10 6-2 14-7 18 11 6 2 9 7 3v2l2 1-1 2 6 4h1l5 4 1-1 3 2 2-1 3-6 2-1 2 1 2-2M232 451l-2-3-2 3-5-9M355 450l-7 3-9-6-3 3-4 2-5-1-1-3-4-1-6 4M212 446l-3 7 1 3v4l-8 4 2 3-2 5 4 13-3 1-1 4-4 2-1 3h-2l-9-6v1l-3 1-9-8-2 2-2-1-6 4-3 5 1 3h-3v2l-4 3 5 4-1 6-3-1-6 1-2 3-5-2-3 4-3 3h-3v5l-3 2v5l-6 1-2-3-2 1-2 8-4-1-7 2M159 496l1-10-1 2v6l-1 3-4 3-6-3-2 1-3-8-4-3 6-2v-3l-2-5-2-3-4 2-3-1 1-1h-2v-7l3 2 2-6-5-7-3-1-7-3 1-2-2-4 2-4-6-4 2-3-3-3 2-3M98 406l-4 5-2 6-10 16-2 8 5 13 3 12 6-2 10 1 4 2-1 2 5 10h5l2-3h3h-2l1-4 3-2 3 2-1 1 1 2h4l2-1M170 484v-1l-10-12 2-6-4-2-1-5 2-1-2-3 2-4-2-2 1-3M312 371l-1-3-3-4-7-1h-2l-2-5-6-3v-2l-2-7-2-4 2-2-3-4 2-1-5-3-3-7-8-8M289 346l-3 2h-6l1-2-10-4v-4l-4 1-3-3 1-7-4-2M271 342l-11-3-3-2 2 8 2 3-1 2-2-2-1 2-2-2-1-5-4-2v-2" />
		<path fill="#eeeeee" d="M391 207l-1 1-3-1 4 3v-1zM83 74l-4 1 1 6h3l2-3zM91 71l-3 3 2 5-3 5 2 3 1-3 3 2 1-4-2-1 1-3zM84 91l1-4-4-1v-3l-2 1-2-4-3 6 1 3h-2l-2-2-2 2 3 6h4v2l6-1zM84 91l-1 6 2 2 3-2-1-6zM76 97l-6 3 1 2 2 1v4l6 1 3-3 1 2 5-2v-2l-3-3-5-2-2 2zM384 311l2 1-1-3 3 1-3-2 3 1-3-2-2 2h1l-1 1zM376 79h-1l1 3-2 2-1 2 4-2zM277 583l-3 3h2zM330 582l-2-1h2v2h2l2 2 3-2-5-1-1 1zM221 150l1 3-7 8 1 7h4l-5 14-4-2 2-4-1-5-7 2v-2l-2-1-1-11 4 1 1-4-3-2-2 2-1-3-4 3-6 19-5 3-2-1-4-9h-2l-7 5-2 4-4 1-3 4-3 6 3 6v8l1 1-4 2-2 4v12l5 2 4 7 7 5 3 15 3 5-1 2v3l-1 2-2-3v3v-2v1l-1-1-4 1-8 9-6-1-5 2-5 5 2 9-22 14-3 7-3 2-2 2v3l1 4-12 9-2 5-4 1-5 10-1 6 4 9 6 6-5 6-1 5 4 8-1-1-1 6-3 1-4 8-2-1-1 1 1 1-3-1v2l3 2-3 3-4 3h-1l1 3-5 5 2 1-2 3v2l-4 1-1 6-2 2v3l-3 2-1 9 2 2-4 2-1 4 7 6 9 1 2 5v3l5 8h1l1-9-1-3 4-1 3-6-1-3-2-1 1-3v-3l-2-2v-3l-4-1 6-6v-3l6-5 1-5v2h3l2-1-4-8 5 1-2 2h4l1-3v-4l-3-3-3-4 4-14-1-2 2-1-2-1 2-2 4-1 5 3 4 1 5-6v-3l4-6 7 4-1 1 4 1 3-2 3-5 4-1 12 4 4-1 4-6v-3h-3l-1-3 1-6 2-2-1-4 3-1 1-4 3-2 7 1 2-2-2-3h-3l1-3 3-1 1 2h5l4-2 1-2-1-5 2-1 7-1 11-4 5-4 26-16 5-7 4-1 9-7 7-9-2-4 8-12 1-5-1-2 4-8v-13l-4-6h-1l-1 1v-1h-2l-3-5-6-4-3 1-7-2 1 1-4 1-1-1 1-1-2-1 2-3-2-6-10-12 1-5-4-6-1-4v-2l6-2-3-10v-4l-2-2 1-3v-8l-5-5-3 4-3-2-2-8 2-1-3 1v-2l-2 3 2 6-1 3-1 1zM211 196l2-4v4zM172 328h5l-1 2-3 3-3-1-3 3h2l-5 1 2-2 1-6zM91 457l1-4h3v3l-1 3-3 1zM200 364l5 2v-3h-3v-3l-2-3h1h-2l1 2-6-1 7-3-7 3h-4v3v-2l6 6zM96 431h3l-2-1zM167 264l-4-2v1v2zM239 125l-2-1-2 3 1 9 2 1 3-3 1-8z" />
	</g>
	<g>
		<rect fill="white" opacity="0.75" x="4" y="4" width="121" height="36" />
		<rect fill="black" x="8" y="8" width="113" height="8" />
		<text fill="black" text-anchor="middle" font-size="24" font-family="sans-serif" x="64" y="36">20km</text>
	</g>
</svg>