<?xml version="1.0" encoding="UTF-8"?>
<!DOCTYPE svg PUBLIC "-//W3C//DTD SVG 1.1//EN" "http://www.w3.org/Graphics/SVG/1.1/DTD/svg11.dtd">
<svg width="572" height="444" version="1.1" xmlns="http://www.w3.org/2000/svg">
	<title>山口県行政区画地図 (2010年1月16日)</title>
	<desc>Author: Lincun</desc>
	<rect fill="#eeeeee" x="0" y="0" width="572" height="444"/>
	<g stroke="black" stroke-width="0.2" stroke-linejoin="round">
		<path fill="#aaaaaa" d="M400-1l-2 1-1 4-5 4h-4l-2 2-1 2-2 7-4 1-2 3-1-3 2-2-4 4-1 4h-1l-4-1-1 3v2h-2v2h-3l-3 1v4l2 1-2 1 1 3-3 3h-2l-1 3-14 9-17 6-8 1-5-1-2 1-4-1v-2v2l-3 3 2 2v2l2 1v2h2l-1 6-1 3 1 4 6 1 1 11 2 3-1 2h-2l-1 3-4-1 1 2-1 4 1 2-1 3 1 2-11 8v2l3 4 1 6 3-1 2 2-1 4 1 5-1 3 1 3 5 3 5-2 1 1 3 1 4-5 2 3 3-1h7l-3 14h-2l-4 7h-1l2 5 1 4 2 3v6l5 2 1 4 3 1 3 2 1 3 1-1 3 1 1-4 8 3 6-2 2-1v-6l4 4 6-7h1l7 5 5 6 1-3-1-2 3-1 2-4-1-3 3-1 5-8 4-1 1-6-2-1v-1l-6-10 3-5 5-4 1-7 4-2h1l2-3 5 1 2-1 2 1-2-4-2-2 1-3-2-3-5-1 3-5 2-6 9-3 11-11v-4l2-2v-1l2-4-4-2-1-4 5-7-1-4 4-5 5-10 2-1-2-4-5 1-4-3 1-3 3-1 1-2 10-8 4 1 3-5 2-1 2 1 3-1 1-8 6-5v-6l-2-1 3-2h2l5 3h3l-2 3 2 3 6 2 2-6 2-1 1-2 6 4 11-4 4 2v4h3l2 2 5-7 3-1-1-5h3l2-3 6 5-1 3 6-1 4 2 3-2 3 2 2-1 3-2 5 4 5-5h1v-13zM573 289l-2 3h2zM573 274l-2 4-1-6 2-1 1-5v-3v-2l-3 1-2 1-2-2 1-1h-3l2-4 2 1 2-1 1-3 1-2 1 1v-5h-5l1-5h-3l-8 6-3 10 1 4h2l3 3-2 3-1-1-7 5-1-1v1l-9 5v6h2l2 4 5-2 2-1v2l2-3 3 1 1-5 4 2v3l1-2h3l2-3 1 1 1 2 1-2 1 1-1 2 2 1v1zM573 12h-1l-5 5-5-4-3 2-2 1-3-2-3 2-4-2-6 1 1-3-6-5-2 3h-3l1 5-3 1-5 7-2-2h-3v-4l-4-2-11 4-6-4-1 2-2 1-2 6-6-2-2-3 2-3h-3l-5-3h-2l-3 2 2 1v6l-6 5-1 8-3 1-2-1-2 1-3 5-4-1-10 8-1 2-3 1-1 3 4 3 5-1 2 4-2 1-5 10-4 5 1 4-5 7 1 4 4 2-2 4v1l-2 2v4l-11 11-9 3-2 6-3 5 5 1 2 3-1 3 2 2 2 4 4 9-2 7-2 3 2 4-2 6 3 1-3 12 5-1 1 3 4 2 1 5 2 2 5-2v10l1 1-2 3h2l-1 2 1-1 4 3-2 4v3l4 4-1 7h2l2 3 1-2h3l-1 3 2 1 2-2 4 1v-1l4 1-4 7v1l1 1 2-2 3 2 3-2 8-1-3-6-5-2 2-1v-4l4-6 2-1 6-4v-3l1 2 1-2 2-1 5-7 7-8 1-5h1l-1-1 4-2-1-1 2 4 3-2-4-2 6-1h1l-2-1-4-1h3v-1h5v-3l1 3-2 1 2 3 4-2v-3l6-2 5 3h1v1l1-2 5 3 4 2 1-2h2l6-2-1-4 3 5 7-1 4-3v1l2 1-2 1-3 1 2 4-3 2 2-2-3-2h-2l-2 4 1 2 3-2 1 2-3 7 4 7 3 5-1 10 3-1 1 2 1 1-2 2 2 2 3-1v-2l2 1-1 1h2zM573 231h-1l1 2-4-1-2 2 4 3-2 8 3-1h1zM554 304l2-3-3 3 1 1zM570 293l-2-3-2 6-2 3 5 2zM499 272l2 2v-2zM536 270l3-2 2-2v2l1-1 3 1 4-2 3-3 3 1h-2l2-3-2-6h-2v-4h-2v-6l2 1 1-4h2v-7l3-8-2-1 2-10-7-10 1 4-2 1-4-2-4 2-2-2-2 1v4l3 3-4 7 3 1h3l2-4 7 8-2 10-3-3-2-5-4 3-3-5-3-7-4-2h-7l-3 1-1-3-2 3 1 2h2l2 4 1 4-2 2 2 2 5 6 5 2v7h2v3l3-9h2l4 8-2-2-2 1v3l2 1-3 8zM531 269l1 1 1-3zM530 262l2-3-2-4v-1l-2 1-1-2-1 1-4-3-2 3 1 4 1 4 4 1zM536 263l4-3-1-2-4 3zM497 249l2-1 2-1-3-4-2 2-2-2-2 4 2 1 1-1v2zM500 243l1 1v-1zM487 231l5-3 6-5 3-4 6-4 3-5v-2h-2l-1-4h-1l-1-3-4 6h-4l-6 3-2 8-6 5 2 2 1 4zM511 228l2 1v-2zM518 215l1-2-5 1zM540 197v-2h-2l-2 2v3l-1 2-5 3h3l6 1-1-3 3-4zM545 199l1 2v-3zM550 187v1l1 5 2-3-1-3zM544 187l2 2-1-4h-1zM573 342l-3 2-5-2-2 2 1 2h3l5-2h1zM573 321h-1l-3 1 2 6-2 2 2 3 2-3zM553 419l4-1-3-1-3 2zM564 374h3l2 3-1-4zM565 325v-3h-6l-2 4 1 3-3 1 2 2 5-4 1-3zM106 445v-1l-4-6 1-2-3 1-5-7-2-8-1-2-2 1 1-5v-2l-2-1-3-2 6-4-2-4-4 3v-2l-2 1 3-4v-1h-2l2-1-2-1 1-2-4 4-1 1 1-3v-2l4-1-1-4 2 1 2-1-2 1-1-3-6 2h-4l-4-8 1-2 1-1 5 2v-4l1 1 2-5 2 1 2-6h-3l-2 1v-1l2-6h2l-1 3 2 1 2-7-5-1-1-2 3-3 1 2 2-1v-4l3-2h-4v-2v1l3-3v-4h3l-1-3 2-4-4-2-1 1h-2l2-2-2-1-5 5 2-2-5 2-4-2v6l-6 3-4 11-5 5-7 2-1 1h-1l1-2-2 1-2 1 2-3h3l-2-2-4 2-2-1-2 1 1-2 6-1-2-1v-1l-2-2-3 1-4 3v-2l5-2 1-1-1-1-5 2 1-1-1-1 4-2-2-2-10 5v5l-1-1-2 3-3 3v2l1 3-3 1 2-3-1-3-3 2-3 3v-2l-2 1-2 2 1-2-10 2 2-1-1-3v-1l2 3h4l6-2h-6l5-3 5 1 2-1 4-4 1-4-4 1 2-2h2v-2l-3-4-10-1v3l-7 3v-3l5-1v-2h-3v-2h3v-3l-5 1v2h-4h4v3h-5v2l-3-2v-1l-2-1v103zM16 340v1h3v2l8 2 1-2 2 2 8-3-4-4-6 2-2-2zM39 330l2 2 2-1h-1zM27 319l2 3 2 2-2-6zM-1 312l2 3 2 1 1-3zM295 445h-1zM291 445v-1h-2l-3-4h-1v5h-2l1-2h-1h2h-2l-1-2-2 2-3-2 1-3-4 1-4-3-3 4v3h-3v1v-4l-1-2-2 1v1h-1l-2 2h-1v-1l-3 1-3-3 1 5-1-1-2 2zM249 445l-3-2v1h-2l-1 1zM301 419l-5-1-3 3 1 1-3 1v-1v2l-2-3-1 3-3 1v2l7-2 4 2 8-6 3 1z"/>
		<path fill="#f6bad3" d="M475 395v-3h-3l-1-3-4-1-4 4-3-1-4 3v3l7-4 4 6 2 3h8l5 5 6-5-4 1-4-7-2 1zM480 390l1 2 2-4zM449 379l2-1v-6l-4-2 1-3-4-2-3-5 2-1-2-2 2-4-2-2-1-8-2-6 2 2 1-4 8 1 8-3 2 1 5-8 4-8 2-7-1-9 1-1-3-3-1-4v-2h1v-5l-1-3-2-6v-3h1v-2l-2 1 1-2 6-1 1-2 3 2 1-2h2h-2l4-11-3-1 3-1v-2l-1 2 1-2h-2l-1-5-2 1-1-1 3-1h-3l1-3h1v-3h-4v6l-2 2-8 1-3-7 3-3v-1l4-7-4-1v1l-4-1-2 2-2-1 1-3h-3l-1 2-2-3h-2l1-7-4-4v-3l2-4-4-3-1 1 1-2h-2l2-3-1-1v-10l-5 2-2-2-1-5-4-2-1-3-5 1 3-12-3-1 2-6-2-4 2-3 2-7-4-9-2-1-2 1-5-1-2 3h-1l-4 2-1 7-5 4-3 5 6 10v1l2 1-1 6-4 1-5 8-3 1 1 3-2 4-3 1 1 2-1 3-5-6-7-5h-1l-6 7-4-4v6l-2 1-6 2-8-3-1 4-3-1-1 1-1-3-3-2-3-1-1-4-5-2v-6l-2-3-1-4-2-5h1l4-7h2l3-14h-7l-3 1-2-3-4 5-3-1-1-1-5 2-5-3-1-3 1-3-1-5 1-4-2-2-3 1-1-6-3-4v-2l11-8-1-2 1-3-1-2 1-4-1-2 4 1 1-3h2l1-2-2-3-1-11-6-1-1-4 1-3 1-6h-2v-2l-2-1v-2l-2-2 3-3v-2l-3 2-2 1-3-1 3 4-2 2-3 2-1-1v1l-3 1-1 2h2v2l-1 1-3-3 1-3v-2l-4-2h-5l-4 4-1 3-2 1 1 3-1 1 1 2 1-1v-1l2 2v-2l2 2-2 1v1h-3l-1 2-2-1 1-1-2-1v2h-2h-3l-1 1-2 4 1 2 2-2 3 1 3 1 1 4 3 1 2 2-4 10h2l4 5 1-1 2 6h5l4 7-5 3-5 3-2-1-2 1-2 4-7 2h-2l-6-9v-4h-3l-3 4-1-1-4 3v4h-1l-1-1-1 3-6-2-2-1-5 2-3 2-2-2-1 1 2 3-2 2-3-1 1 3-3 4-3 1-1 1-4-4h-1l-1 1v3l4 2 2-1 2 1v2h-1h-1l1 1-2 1 2 3-2-1h-3l-3 4-4-2-2 3 3 1-1 2-2-3h-1l-4 2-2-2-4-1-3 3v5l-2 2-5 2v1l-4 1-1-2-1-1-2 2v-2l-3-1-2 2h-1l-1-2-2 4-8-5v2l-1 1 1 2-3 4-3-1 1-3-4-6-3 6-8 3-6-3-1-7-2-6-1-1v2h-4l-1 1-6-4-6-2-2 2-2-1-6 4-11-1-1-5-8-4-2-2v5l-3 1-2 2 1 4-4 3h-3v3l-2 1 7 2 1-4-1-1v-2l6-1 2 3 7 1 3-3 2 2 1 4 4 2 1 5-6-1-4 1-1-1-7 4h-4v2l-6 2h-4l-1 2v2h-2l-1-4h-3l-2-4h-2l1 4-4 3 1 8 1-1-2 3h2h-2l1 3-3-1v3l-1 4h-3l-1 2 1 2 6 4 3 7 5 5 2 4-1 5-1 1 1 1h3v5l1 4-2 4v2l-4 6-4 1-2 1 2 1 1 1v2l-3 2h-3v-2h-2v2h-4v4l-1 4-1 2v2l4 2-1 5 1-1 2 1-1 2 2 2 3 5 1-3 2 1v2h3v4l1 3-4 7h3l1 2-1 7-1 4 2 6-3 8h1l3 1-2 4 3 1 2-1h-2l2-1-1-1 4-1 14-13 4-2-1-3 2 1v-4l2 2 1-1-2-1v-5l9-8v-2l2-5 4 3-1 3 7 1 5 2v-1h3l2 2 11 15h1l-2-5 1 1h5l-1 3 4 3 2 3-2 2 1-1 2-1v2h1l-2 1 2 1h-4v2l2-2 1 2-4 1v3l7 8h2v-3l4-1 4-1v-2l5 1 1-4-1 5-4 3 2 1 3-1 2-5 3 2-1 2 2-1-5 2v4l6-4 1 2-1-1-2 1 1 2 6 2 7-5-3 1 2-2 4-1 5-5 4 1 3-2 2-3h2l2-1-2-1 1-1-1-2-1-2 2-2 2 1v-3l1-1 5-5 2-9-1-3 1-3 2-1 2 1-1 9 6 2-3 2-2 7-2-1 1 5h1v-3l3-1v-4l3-2v-1h3l1 3v3l1 1-1-1-1 2 1-1h-2v3l3-1 1 3 3-5 2 1 1 2 2-1v-1l-3-4 8-3v-2l-2-2-1 1-1-2v-3l3-2 3 4 1-2 1 2 6 2 2 3-1 1-1 3 2 1 2-2 1 3h6l12-9 1-4 5-2v2l2 5 4-7 4-3h3l1 2-1 1 8-3 1 1h2v-2v-2h4v1l-1 2h3l1-2v-2l2 1v-2l4 1 3-2h2l2-1v-3l1 3 2-2v2l3-1-6 4v2l2 2 3-1 2-4v2h2l1-2-1 2h3l1-3-1 3h2l3-2 1 2-2 1 2 1-6 8 3 1-1-1 5-6 8 6-2 3v-2l-2 1-1 2h-3l-1 3v-1l-5 6 1 3-2 1-3 3h2v1h5l2-1 3 4 3-2 1-1h-2v-3h-2l-2 1-3-3 8-2 4-5v-2l2 1h5v2l1-2 1 3 1-2v2l2 1-3 4 5-1 2 4 3 1 8 4 2 5 2-3v3l2 2h7l3 7-2 1v2l3 2h2v-2l-2 1-1-1 4-3 8 7 6 3 1-4h-4l-4-5-6-5-1-4 1-3h3l1-4 5-1-1-2 3-4h4l1 2 9-3v9l-2 2 1 2 9-1h2l4 3-1 3h2l-2 1 1 7-4 3 5 7 7 8v5l1 3zM408 372l-2-4v5h-6l3 2h6zM59 336l-5 4-5-4-2 3 2 2 4 1 1 6 4-1v2l-3 1 3 2h4l2-5-2-3 1-1-3-1-1-1 1-3zM347 345l4-2 4-4 1-2 2 1-1-3v-3l6-1h-2l-1-4-3-1-1-3-1 4-1 3-2 1-1 1h1l2 2-1 4-2-2h-2v3h-2l-2 1-2-3 2-2-1 1-3 2-1 4 2 1 2 1v2zM64 344v1l1-1zM307 342l-1-3-1 2h-2l2 3 2-1zM47 338l1-2-2 2zM42 329l3 1-1-4zM325 327l1 2 3-2zM313 327l4-1-2-2-5-4 1-6h-1v-3v-1l1-3-2-1-1 3v7h-4l4 3 3 4 2 1zM268 323l5-3 1-4 2-2-2-1-4-3-5 5v3l-3 2-1 3 3-1v2zM504 321l1 1 2-1-2-4zM418 317l1-2h-1l4-4 2 2-3 7-3-1zM536 317h2h-2v-2zM88 313l2 2 3-4-2-2zM527 310l2 3 4 1h2l1-1-5-6-3 1zM320 311l8-6 4-4h-6l-3 6-1-2h-5l-2 4 1 2zM523 306l-1-1 2-3-5 3 2 1 1 3zM532 305l3 1-2-2zM524 297l2 1 1-1-2-1zM23 279l-4-2-1-2-2 1v2l3 3 1-1 2 1 1 2h1zM499 273l2 1-2-2zM57 252h-1l-1 2h2zM55 251l1-1zM39 189l4-4 6-1 1-3-4-3 1 2-2 2-2 2h-6v1v2zM153 164l5-7h1l-2 4 3-2 5-1 2 1-1 2h3l-1-2 1-2-2-4-2 1-6 2-5 2h-3l-2-1-3 2-2-2h-2v-2l-2 2 1 1 1 7 5 3 2-1v1l6-1zM171 162v2l2-1-2-2zM186 157l2 1v-3zM205 143l2 1-2-2zM205 136h1l1-2zM217 125h-2l-2 6 2 3 3-2zM178 128l2-3h-2h-2l-1-2-3 4 2 4zM193 130h2l1-1-2-1zM208 124l2 1v-4h-2zM133 32l5-2 1-6h-2l-4-1 2-2v-1h-2l-4-4-1 2 2 12z"/>
		<path fill="#f6bad3" d="M448 425l2-3-2-5 1-3-2-2 2-3-1 2-3 4 2 6-4 2-2 3 3 2zM409 420l2-1v-1zM392 406l7-3-1-3-5-4-4 1v5l-4 1 1 3 4 1zM416 405l2 1 1-2-1-1zM417 401l2-2v-2l3-3h2l1-4 3-1 1-4h4l1 1 5-2-3-1-1-2-1 1v-3h-2l-2-2-3 1-3-5-1 4 2 2 2 2-1 3-5 4-3 7-8 2 3 3 1-1 2 1zM379 399l3 1v-2l-2-1zM525 392v2l2-1 1-4zM438 388v3l1-1v-4zM449 379l-5-4-1-3v-5l-7-8-5-7 4-3-1-7 2-1h-2l1-3-4-3h-2l-9 1-1-2 2-2v-9l-9 3-1-2h-4l-3 4 1 2-5 1-1 4h-3l-1 3 1 4 6 5 4 5h4l-1 4 5-3 4-2-1-2h2v3l-4 2 4-1 1 1v-1l3 2 2 1 1 4 13 6v3l-2 3 1 1v8v2l2-1 5 1zM457 377l2 1 1-1-2-1zM464 376l1 1v-1zM513 374l2 1 1 2 3-2h-3l-2-3zM472 367l10-2 2 4 2-2 2 1-2-2v-5l3-2v-2l3-1 1 1-1 3 3-2 8 2 1 4 1-2 3 2-3 3-1 6 7-5 4 4 3-1-2-9 1-2-2-3 3-2v-2l3-2 3 1v-1l3-1 3 3 4-6h3l1-3 2 2 3-2 2-3 4-2v-2l-1 2-7 2-2-2v-2l-6-1-5 5v1v3l-3 2-8-1-2 4h-3l2 3-3 2-6 1-2-2v2l-1-1-1-1 2-3-1-3-1 2-3 1-3-3 1-3-4-4-1-5-7 2-5-2-1-3-3-2-2 4-3-1-1-2-1 5-2 1-4-2h-3v3l2 3-3 4h-2l-1 2 2 2-1 6 2 2-1 1h1l2 1 1 2 4 3 1 3h-2l2 5 3-3v-2zM498 370l2 1v-2zM419 366l2 4 2-1-1-6zM418 362l1 1 1-1zM414 359l4 3-1-4-2-1zM524 355l1 1 1-1zM544 347v2l4 2-1-4zM449 341l2 2 3-3h-4zM507 338l4 1 1 2h1l-2-7-4 1zM554 335l1 1 1-1zM545 332h1l4 4 3-2-2-2-2-1-1 2zM509 330l2 3 2-2-2-2zM486 319l-2-4-2 2 2 2 1 2zM461 241l-3 3 3 7 8-1 2-2v-6h4v3l3-4v-2l-8 1-3 2-3-2-2 2zM232 135l5-2 2 1 6 2 1-3 1 1h1v-4l4-3 1 1 3-4h3v4l6 9h2l7-2 2-4 2-1 2 1 5-3 5-3-4-7h-5l-2-6-1 1-4-5h-2l4-10-2-2-3-1-1-4-3-1-3-1-2 2v1l-2 2 2 2-1 4-4 3-1 3-6 2 1 1-2 1-3 7-2 1-7-1h-2l-2-2-3 6-1 2 1 2-2 2 3 1 1 2 2-1v2zM418 315h1l-1 2v2l3 1 3-7-2-2z"/>
		<path fill="none" stroke-linecap="round" d="M297 128h-4l-3 2 1 3-1 2 2 3-1 4-4 1-1 8h-2l-7 10v3h-2l-7 1-2-2-9 1v-2l-2 2 1 4 3 4-4 3v5l6 2 2 7-1 4 3 2-6 11-2-2-3 4-3 2 1 3h-3v2l-4 6 1 2-2 5-4 1-2-2-5 2-1 2-2 1-2 3h-5l-2 2h-1l-2 3-2-1-3 4 1 2-2 3 1 3h-3l-2 4-2 1v4l-3 1 2 3-2 3 3 6-2 4h-2l1 2h-8l2 3 1 4-3 2 1 4-3 2-3 7-3 1-2 2 1 2-4 4v4l-3 1-1 4 2 2 3-1 1 2 12-4 2 2 3 1M216 239l-4-2 2-9-1-4 1-3-1-3-3 1-2-3-2-4 1-5-3-3-1-2-7 3-3-3 1-3 1-13 2-1-3-2-5-1-2-3-5 3-3-3v-4M194 199l-4-3-4 1v1l-3 4-4-7-4-3-4 4-1-1-2 5-2-1-2 6-5 5-3 3h-3l-3-2-5 1-4 7-2 1-3-4h-5l-5 3h-3l-3-1-1 2-5-2-1-7-2-3h-3l-3-5-7-2v-4l-4-1-3-6-3-2-3-5-4-2M329 184l-5 4v6l-3 1-1 5 2 6-2 2 3 4 2 4h-1l-1 4-3 2-1 3 2 2 2 11 4 8-4 2-5-1-1 5h2v2l-2 4h-3l1 8-4 3-5-3h-2l-2 3-4-1h-6l-2 1-2 3 2 4-3 4 2 5-3 1v3l3 2 6 1v4l-1 3 3 1 1 3M418 315h-7l-2-1-1-4 3-8-2-8-1-1-3 3-2-2-3 1-1-3h-1l1-2-4-4h-4l-1-10h-1l-1-4-2-1 2-2-2-5 2-1-1-1 1-3-1-2v-2l3-3-2-1v-6l-5-2-1-7 1-2-3-2-4 3-3-3-6-2-1-3 1-3-3-6-1-3 1-1-1-12M141 219l-4 13-3-1-2 3-7 3-4 4v3l-3 3 6 11-4 1-3-3h-2v5l-2 3 2 7 4 1-1 2 4 3v6l3 3 2 2 1-1 5-1v-1l5-1 3-7 4-3 8 2 1-1 7-4 2-5h1l3-2 2 2h4l3-8 3-2 5 2 2-2 3 2-2 4h1l5 2 3 3 5-1 2 1M292 268l2-6-1-2-6-1-2 2 1 2h-2v2l-3 2v-2l-9-3h-3l1 3-3 4 1 4h-4l-4 10-10 4-2-3-2-2h-2l-3 2-3 7-8 5 1 6h2l3 3M408 310l-10-2-2 2-6-3-1 2 1 2-1 3-7 2h-2v-6l-2-2 2-3-2-6 2-1 1-3h-3v-3l-4-3 2-3-6-1h-4l-1-2 2-1 2-5h-3l-2-1-5 5h-2l-3 4 4 4 3 9-3 4v2l-7 5-1 7M122 283l-2 1 1 5 1 2-3 1-4-1-5 1 3 3-4 3-1 6M149 341l-2-6h-2l1-10-1-2h1l1-3 3-1 2-4 3-1 3-5-6-5-3 1v-2h-2l-3-4 5-5 6-3-2-6 2-1v-6l-2-2M464 326l-2-1v-3l1-7-2-3h-9l-3-4-3-1-1-4h-4l-3-3-4-1-3 2-4 7-5 3M380 316l-1 2-10 5v2l-2 3M421 323v-3M420 336l1 10-2 3M443 372l-5 1"/>
		<path fill="#eeeeee" d="M413 42l-3 3 2 2zM443 229l-3 3 7-3 3 8 2-8-2 3-4-3v-9v7zM441 197l-1-3-1 8zM495 52l6 1h-3l2-3 6-4-5 4-1-3-2 6-5-3-1 2zM453 64l-3 8 5-4zM126 221l-1 9 4-3-2-1 2-2-4 1zM186 274l-5 14-1-3-5 7 7-4zM176 336l-2 1 3 3 1-6zM244 178l1 2-5 4 6 3v6l-2-13 4 4 7-3 4 1-4-2v2l-5 1-4-9zM362 292l-3 4 3 3zM415 243l6-1v-9l-1 9-2 1-1-3zM336 275l1-2h-2v4l-3-2v3zM364 266l-1 4h5l2 4 1-5 4 3-2-5 4 2-6-3-2 4h-5v-7l-3-3h-4l6 1zM330 250l-2 3 2 2zM299 207l-8 5 1 2zM2 353v2l3-2z"/>
	</g>
	<g>
		<rect fill="white" opacity="0.75" x="390" y="4" width="178" height="36"/>
		<rect fill="black" x="394" y="8" width="170" height="8"/>
		<text fill="black" text-anchor="middle" font-size="24" font-family="sans-serif" x="479" y="36">50km</text>
	</g>
</svg>