<?xml version="1.0" encoding="UTF-8" standalone="no"?>
<svg
   xmlns:dc="http://purl.org/dc/elements/1.1/"
   xmlns:cc="http://creativecommons.org/ns#"
   xmlns:rdf="http://www.w3.org/1999/02/22-rdf-syntax-ns#"
   xmlns:svg="http://www.w3.org/2000/svg"
   xmlns="http://www.w3.org/2000/svg"
   xmlns:sodipodi="http://sodipodi.sourceforge.net/DTD/sodipodi-0.dtd"
   xmlns:inkscape="http://www.inkscape.org/namespaces/inkscape"
   inkscape:version="1.0 (4035a4fb49, 2020-05-01)"
   sodipodi:docname="Okayama.svg"
   id="svg40"
   version="1.1"
   height="432.88971"
   width="388.10724">
  <metadata
     id="metadata46">
    <rdf:RDF>
      <cc:Work
         rdf:about="">
        <dc:format>image/svg+xml</dc:format>
        <dc:type
           rdf:resource="http://purl.org/dc/dcmitype/StillImage" />
      </cc:Work>
    </rdf:RDF>
  </metadata>
  <defs
     id="defs44" />
  <sodipodi:namedview
     inkscape:current-layer="svg40"
     inkscape:window-maximized="1"
     inkscape:window-y="-8"
     inkscape:window-x="-8"
     inkscape:cy="217.98762"
     inkscape:cx="340.70783"
     inkscape:zoom="1.5918367"
     showgrid="false"
     id="namedview42"
     inkscape:window-height="1017"
     inkscape:window-width="1920"
     inkscape:pageshadow="2"
     inkscape:pageopacity="0"
     guidetolerance="10"
     gridtolerance="10"
     objecttolerance="10"
     borderopacity="1"
     bordercolor="#666666"
     pagecolor="#ffffff" />
  <title
     id="title2">岡山県岡山市北区位置図 (2009年4月1日)</title>
  <desc
     id="desc4">Author: Lincun</desc>
  <rect
     style="stroke-width:0.799687"
     id="rect6"
     height="431.03134"
     width="386.24887"
     y="0.92918807"
     x="0.92918807"
     fill="#eeeeee" />
  <path
     d="m 207.24845,168.86347 -2.39906,3.19875 -2.39907,0.79968 0.7997,2.39907 -2.39907,-4.79813 h -3.19875 l -0.79968,3.99843 0.79968,2.39907 -1.59937,2.39906 0.79969,2.39907 4.79812,3.19875 h 3.19875 l 0.79968,1.59937 -3.99843,0.79968 -1.59937,2.39906 h -0.7997 l -1.59937,3.19875 h -0.79968 v 2.39906 l -2.39907,3.99843 1.59938,6.3975 -0.79969,3.19875 -4.79812,0.7997 -3.99843,3.19873 0.79968,10.39594 -3.99843,-0.79969 -3.19875,-3.99843 -0.79969,2.39906 -3.19875,0.79969 -3.19875,4.79812 v 4.79813 h -1.59938 l -0.79968,-1.59938 -3.19875,3.19875 -2.39905,-2.39907 v 2.39907 l -2.39907,5.59781 1.59938,7.19718 h 4.79812 l 1.59937,2.39907 3.99843,0.79968 3.99845,3.99844 1.59937,3.19875 0.79968,6.39748 -5.5978,2.39907 1.59937,1.59938 1.59938,-1.59938 3.99843,4.79813 -3.19875,5.5978 2.39907,3.99843 7.19718,-3.19874 3.19875,3.19874 0.79968,3.99844 h -1.59938 l 2.39907,6.3975 -3.19875,2.39906 2.39906,3.19875 -0.79968,3.19875 0.79968,4.79812 2.39906,3.19875 -0.79969,3.99843 -3.19875,4.79812 -2.39905,0.7997 3.19875,3.99843 -5.59781,3.19875 h 1.59938 l 2.39905,5.5978 2.39906,-0.79968 2.39906,2.39906 1.59938,-1.59938 0.79968,4.79813 4.79812,0.79969 2.39907,-2.39907 h 3.99843 v -3.99843 l -0.79968,-0.79969 2.39906,-2.39906 3.19875,2.39906 5.5978,-3.19874 3.19875,-6.3975 4.79812,-3.99844 3.19875,0.79969 3.19875,3.99843 1.59938,0.7997 3.19875,-2.39907 1.59937,-5.59781 7.99688,1.59938 1.59937,-1.59938 2.39906,1.59938 1.59937,-1.59938 1.59937,1.59938 3.99843,-0.79969 -2.39905,-1.59938 0.79968,-2.39906 -1.59936,-1.59937 h -0.7997 l -0.79968,-2.39907 h -6.39749 l -2.39907,1.59938 -9.59625,-0.79968 -3.19874,1.59937 0.79968,0.79968 h -0.79968 l -1.59937,2.39907 -3.99845,-6.3975 2.39907,-1.59937 1.59938,2.39905 3.99843,-1.59937 3.19875,0.79969 -0.7997,-1.59937 h 1.59938 l -0.79968,-1.59938 4.79812,-2.39905 7.19718,1.59937 3.19875,2.39906 1.59937,-3.19875 h 2.39906 l 1.59937,5.5978 1.59938,-3.19873 0.79969,0.79968 2.39906,-2.39906 0.79969,1.59938 -2.39907,0.79968 -0.79968,3.19875 v 3.19874 l 1.59938,0.79969 7.99687,-0.79969 0.79968,2.39906 3.19875,-0.79968 2.39907,-2.39907 h 2.39906 v -4.79812 l -1.59938,-4.79811 3.19875,-3.99845 -2.39907,-2.39905 v -1.59938 l -1.59936,0.79968 -1.59938,-2.39905 -3.19874,2.39905 h -3.19875 l -2.39907,-2.39905 0.79969,-2.39907 3.19875,-1.59937 h -6.3975 l -1.59937,-0.79969 v -3.19874 l -1.59938,0.79968 -0.79969,-0.79968 2.39907,-3.99844 5.5978,-3.99844 2.39907,-6.3975 -0.79969,-3.99843 6.3975,-7.19718 0.79969,-6.39749 h 1.59936 v -1.59938 l 3.19875,-0.79969 0.79969,-1.59938 -3.99844,-3.19875 -0.79968,1.59938 -2.39906,-1.59938 h -3.19874 l 0.79968,-3.19875 -1.59938,-4.79811 h -5.5978 l -3.19875,2.39906 -0.7997,3.19875 -1.59937,-0.7997 -0.79968,0.7997 0.79968,2.39905 -2.39906,4.79813 -10.39592,7.19719 -0.7997,1.59937 h -2.39905 l -2.39907,2.39906 v -2.39906 l -4.79813,-6.39749 1.59938,-0.7997 h -3.19875 l -0.79968,-1.59937 0.79968,-1.59938 3.19875,-1.59937 0.79969,-3.99843 -1.59937,0.79968 -1.59938,-1.59938 0.79968,-3.99843 -5.5978,-2.39905 v -0.7997 l 3.99843,-5.5978 3.99844,-1.59938 -0.79969,-5.59781 2.39907,-2.39906 -1.59938,-3.19875 2.39906,-5.5978 -3.99843,-1.59938 -0.7997,4.79813 -5.5978,-3.19875 2.39905,-1.59938 -3.99843,-7.19719 -3.19875,1.59937 -3.99843,-1.59937 -1.59937,0.79969 3.19875,-4.79812 -5.59782,-3.99844 0.7997,-2.39906 -4.79813,-2.39905 -1.59937,2.39905 -2.39907,-3.19875 v -1.59937 l 3.19875,-1.59938 -1.59938,-1.59937 2.39907,-2.39906 -0.79969,-3.99844 1.59937,-2.39906 0.7997,-0.79969 -1.59938,-0.79968 -3.19875,2.39905 -3.19875,-0.79968 z m 31.98748,131.14868 0.79969,0.7997 v -0.7997 z m 38.38499,15.19405 -2.39907,1.59938 v 1.59937 l 3.19875,-0.79968 z"
     style="fill:#dcb6f2;fill-opacity:1;stroke:#000000;stroke-width:0.2;stroke-linejoin:round;stroke-miterlimit:4;stroke-dasharray:none"
     id="path8" />
  <path
     fill="#f6bad3"
     d="m 108.08725,50.509788 8.79656,5.59781 -0.79968,2.399062 2.39906,3.998435 -1.59938,3.198748 3.19875,3.998436 0.79969,4.798122 -0.79969,3.198748 -3.99843,-0.799686 -1.59938,1.599374 v 3.198749 l -1.59937,0.799686 v 3.198749 l 0.79968,2.399061 -2.39906,3.198748 h -3.19875 l -9.596236,-0.799686 -0.799687,-2.399062 2.399063,-3.998435 -2.399063,-0.799688 v -2.39906 h -1.599374 l -0.799687,-2.399062 h -2.399061 l -0.799688,-3.198748 -1.599373,0.799687 -0.799687,-1.599375 h -2.399062 l -1.599374,2.399062 h -2.399062 l -1.599373,1.599374 h -3.198749 l -1.599374,3.198749 -2.399062,-1.599375 -1.599374,2.399061 -2.399061,0.799687 -6.397497,-2.39906 h -1.599374 l -2.399062,-3.19875 -2.39906,-0.799686 -3.998436,3.998436 0.799686,1.599373 -1.599373,1.599375 1.599373,1.599374 2.399062,7.996871 1.599375,1.599374 0.799686,7.197174 -3.198748,2.39907 h -9.596245 l -5.59781,4.79812 -4.798122,-2.39906 -3.998436,5.59781 -3.998436,-2.39906 -0.799687,0.79968 -3.998435,-2.39906 -1.599374,0.79969 -1.599374,2.39906 0.799687,8.79656 -2.399062,2.39906 h -2.399061 l -2.399061,3.19875 v 3.19875 l 7.197184,4.79811 3.998435,7.99687 3.998436,1.59938 1.599374,2.39905 -0.799687,8.79657 -1.599375,0.79968 -0.799687,2.39907 -3.198748,0.79968 0.799687,3.19875 -2.39906,3.19875 3.998435,7.19718 -2.399062,3.19875 v 5.59782 l -2.399061,3.99843 0.799688,5.5978 3.198748,4.79813 4.798122,4.79812 v 1.59937 l 2.399061,1.59938 -0.799687,0.79969 2.399062,2.39906 -0.799688,3.19875 0.799688,1.59937 3.998435,2.39906 -0.799687,-0.79968 h 2.399062 l 1.599373,3.99843 3.198749,0.79969 v 1.59938 h 1.599374 l 1.599374,2.39905 -0.799687,3.99844 -2.399061,3.19875 2.399061,3.19875 -3.198748,2.39906 -0.799687,3.19875 0.799687,2.39905 -1.599375,1.59938 1.599375,1.59937 0.799687,3.19875 -3.198749,3.99844 0.799687,2.39906 2.399062,1.59937 0.799686,3.99843 0.799688,7.1972 3.998435,3.19875 -1.599373,2.39905 6.397496,3.19875 -1.599374,7.19718 -3.198749,3.19875 v 3.19875 l 1.599375,1.59937 -2.399061,2.39907 v 3.19875 l 2.399061,2.39906 1.599374,6.3975 4.798123,3.19874 h 3.198748 l 0.799687,6.3975 6.397496,4.79813 0.799688,5.5978 1.599374,3.99843 -2.399062,4.79813 1.599375,3.19875 h -1.599375 v 2.39906 l 2.399062,-0.79969 0.799688,3.19875 -3.19875,7.19718 3.19875,0.79969 v 7.19718 l 3.998435,0.7997 4.798123,-3.19875 1.599373,2.39905 -4.798123,3.19875 v 3.99844 h 4.798123 l 3.998435,-3.99844 3.998437,0.7997 3.998435,-1.59938 v -7.19719 h -2.399062 l -3.198748,-7.19718 -6.397497,-6.3975 -0.799686,-2.39906 2.399061,3.19875 2.39906,1.59938 v -1.59938 l 0.799688,2.39906 h 1.599374 v 0.79969 l 2.399061,2.39906 0.799687,4.79812 1.599375,1.59938 v -1.59938 l 1.599374,0.79968 v 2.39907 l 3.198748,3.19875 6.397496,-2.39907 3.99843,0.7997 h 1.59938 l 0.79968,-1.59938 h 4.79813 l 2.39906,-0.79969 -3.99844,-3.99843 0.79969,-3.19875 3.19875,-1.59938 h 3.99843 l 0.79969,1.59938 3.19875,-3.99843 6.39749,-0.7997 v -3.19874 l 3.99844,-3.19875 1.59937,0.79969 -0.79969,-4.79812 2.39907,-3.99845 -1.59938,5.59782 1.59938,3.19875 h 2.39905 v 1.59937 l -2.39905,0.79969 v 1.59937 h 3.99843 v -1.59937 h 2.39905 v -3.19875 l -3.99843,-1.59938 h 3.99843 v 0.7997 -1.59938 h 4.79813 l -0.79968,14.39437 8.79655,1.59936 0.7997,3.99845 2.39905,1.59937 h 0.79969 l -2.39906,-7.99687 -5.59781,-1.59938 v -3.19875 l 5.59781,1.59938 0.79969,-9.59625 v 2.39907 l 2.39906,2.39906 -0.79969,3.99844 1.59938,4.79812 3.19874,0.79968 -0.79969,3.99843 h 1.59938 l -1.59938,1.59938 0.79969,1.59937 v -2.39905 2.39905 l 2.39906,-1.59937 v 3.99844 h 2.39906 v 1.59938 l -0.79968,0.79968 4.79812,7.99687 1.59938,-1.59937 9.59625,3.99844 -3.19875,-4.79813 -0.7997,-6.39749 h -0.79968 l 0.79968,-1.59938 1.59938,0.79968 -1.59938,-1.59937 5.59781,-2.39906 0.79969,-2.39907 0.79968,2.39907 1.59938,-1.59937 0.79969,2.39905 2.39906,-0.79968 3.99844,1.59938 2.39905,-0.7997 3.99845,4.79813 5.5978,-0.79968 7.19718,3.19875 2.39907,-0.7997 -0.79969,-0.79968 v -1.59937 l 3.19875,2.39905 2.39906,-1.59937 v -0.79968 l -1.59937,-0.7997 h 1.59937 v -1.59937 l -2.39906,-1.59938 v -2.39905 h 0.79969 v -2.39907 l 3.19875,-1.59938 -0.7997,-1.59936 1.59938,0.79968 -0.79968,-2.39905 2.39905,0.79968 v -0.79968 l 1.59938,0.79968 1.59937,-1.59938 -3.19875,-3.99843 1.59938,-3.19875 -1.59938,0.79969 2.39907,-2.39906 -0.79969,-2.39907 5.5978,-3.19875 2.39907,0.7997 2.39906,4.79812 3.19875,2.39906 0.79969,-1.59938 -1.59937,-0.79968 -1.59938,-3.19875 1.59938,-0.79969 -1.59938,-1.59938 1.59938,-4.79811 3.99843,-2.39907 1.59937,3.19875 1.59938,-3.99843 2.39906,0.79968 -0.79969,-1.59937 1.59937,-0.79968 h -1.59937 v -2.39907 l 1.59937,-3.99843 -1.59937,-1.59938 -1.59937,1.59938 -2.39906,-1.59938 -1.59937,1.59938 -7.99688,-1.59938 -1.59937,5.59781 -3.19875,2.39907 -1.59938,-0.7997 -3.19875,-3.99843 -3.19875,-0.79969 -4.79812,3.99844 -3.19875,6.3975 -5.5978,3.19874 -3.19875,-2.39906 -2.39906,2.39906 0.79968,0.79969 v 3.99843 h -3.99843 l -2.39907,2.39907 -4.79812,-0.79969 -0.79968,-4.79813 -1.59938,1.59938 -2.39906,-2.39906 -2.39906,0.79968 -2.39905,-5.5978 h -1.59938 l 5.59781,-3.19875 -3.19875,-3.99843 2.39905,-0.7997 3.19875,-4.79812 0.79969,-3.99843 -2.39906,-3.19875 -3.99843,3.19875 v -2.39907 l -3.19875,-0.79968 -2.39906,0.79968 -1.59937,-4.79811 3.99843,-0.79969 v -2.39906 l 4.79812,-3.99844 3.19875,-2.39906 -2.39907,-6.3975 h 1.59938 l -0.79968,-3.99844 -3.19875,-3.19874 -7.19718,3.19874 -2.39907,-3.99843 3.19875,-5.5978 -3.99843,-4.79813 -1.59938,1.59938 -1.59937,-1.59938 5.5978,-2.39907 -0.79968,-6.39748 -1.59937,-3.19875 -3.99845,-3.99844 -3.99843,-0.79968 -1.59937,-2.39907 h -4.79812 l -1.59938,-7.19718 -6.3975,-3.19875 -2.39905,4.79812 -6.3975,2.39906 -1.59938,5.59782 -7.99687,-15.19406 -0.79968,-7.19719 -3.99844,-4.79812 v -2.39906 h 1.59937 -1.59937 v -3.19875 l -2.39906,-0.79969 v -2.39906 l 7.99687,-11.19562 -0.79969,-3.19875 3.19875,-1.59937 h 3.19875 v -2.39906 h 0.79968 l 2.39907,-2.39907 3.99843,-0.79968 1.59937,-4.79812 2.39907,-1.59938 -1.59937,-3.99843 2.39905,-5.59782 -1.59937,-7.19718 0.79969,-0.79969 1.59938,2.39907 3.19875,-0.79969 4.79812,2.39906 2.39905,-3.19875 h 1.59938 l 3.19875,-3.19874 h 2.39905 l 2.39907,2.39905 3.99843,-1.59936 v 2.39905 l 3.19875,0.79969 -2.39905,-5.59781 0.79968,-1.59937 v -3.19875 l -5.59781,-3.99843 v -5.59782 l 0.79968,-2.39906 -1.59937,-3.19875 v -0.79968 l 4.79812,-0.79969 1.59938,-1.59938 2.39907,-0.79968 2.39905,-3.19875 -1.59937,-3.19874 2.39907,0.79968 1.59936,-0.79968 2.39907,-1.59938 2.39905,3.99843 10.39594,-1.59937 1.59938,11.19562 -2.39907,2.39905 2.39907,6.3975 1.59937,-1.59937 3.19874,3.99844 7.19719,-7.99687 v -2.39907 h 2.39906 l 1.59937,-1.59937 -0.79968,-1.59937 1.59937,-1.59937 1.59938,-3.99844 -3.19875,-2.39906 6.3975,-1.59937 v -3.19875 l 1.59937,0.79969 0.79968,2.39906 -2.39905,9.59624 0.79968,3.99843 3.19875,0.79968 v -1.59937 h 3.99843 l 0.79969,-3.19874 3.99843,-3.19875 2.39907,1.59938 2.39906,3.19874 2.39907,-1.59937 1.59937,4.79811 4.79812,1.59938 h 2.39906 l -3.19875,-5.59781 3.19875,-0.79968 1.59937,-2.39907 h 3.19875 l 2.39906,1.59938 3.99844,-1.59938 2.39906,2.39907 -0.79968,-5.59781 1.59937,-4.79813 -2.39907,-1.59936 3.99845,-1.59938 3.19874,1.59938 1.59938,-6.3975 -1.59938,-1.59937 0.79969,-4.79813 3.19875,-0.79968 5.5978,-7.19719 3.99844,-14.394361 -0.79969,-7.996872 7.99687,-3.998435 -0.79968,-5.597809 -3.99844,-3.198749 3.99844,-12.794993 -2.39907,-2.399061 -3.99843,1.599373 -2.39907,-3.198748 2.39907,-1.599374 -0.79969,-3.198748 2.39907,-2.399061 -3.99845,-4.798123 1.59938,-1.599374 -0.79968,-1.599375 -1.59938,-1.599373 -2.39906,0.799686 -3.99843,-0.799686 -5.59781,-8.796558 -3.19875,-0.799688 -0.79969,1.599374 -3.19875,0.799687 -0.79968,1.599375 -3.19875,-2.399062 -3.19875,2.399062 -2.39907,-2.399062 -3.99843,-0.799686 -3.99843,5.597808 v 2.399062 l 1.59937,3.198748 -0.79969,3.198748 -6.3975,4.798123 1.59938,3.998435 v 2.399062 l 2.39907,3.198748 -3.19875,2.399062 -1.59938,2.399061 0.79968,7.996871 -0.79968,7.996872 -3.19875,2.39906 v 3.198748 l -3.19875,1.599375 -0.79969,5.59781 -1.59938,2.399061 v 4.798117 l -1.59936,3.19875 v 3.19875 l -2.39907,2.39906 -0.79968,2.39906 -0.79969,0.79969 -0.79968,2.39906 -1.59938,1.59937 v 4.79813 l -1.59937,3.19874 h -6.3975 l -7.19719,-6.39749 -4.79811,-0.79969 -2.39907,-1.59937 0.79969,-1.59938 -2.39907,-4.79812 -3.19875,-0.79969 -3.99843,0.79969 v -5.59781 l -3.99844,-2.39906 0.7997,-1.59937 h -3.99843 l -1.59938,-1.599376 h -3.19875 l -3.99844,-1.599374 -3.99843,-6.397496 -4.79813,-2.399062 1.59938,-2.399061 v -2.399062 l 2.39905,-2.39906 v -3.19875 l 0.7997,-1.599373 -2.39907,-6.397497 2.39907,-2.399061 -0.7997,-3.998435 6.3975,3.198748 3.19875,-2.399062 2.39907,0.799687 -2.39907,-3.998435 3.99845,-4.798123 -0.7997,-3.998435 v -2.399061 l -3.99843,-4.798123 0.79968,-2.399062 -2.39905,-3.198748 -0.7997,-3.198748 h -3.19875 v -1.599374 l -1.59937,0.799687 -6.3975,-5.59781 -1.59937,0.799687 -3.99843,-4.798122 -0.79969,1.599373 -1.59937,-0.799686 -0.79969,0.799686 h -1.59938 l -10.39593,-3.998435 -1.59937,2.399062 -3.99844,0.799687 -1.59937,-1.599375 -3.19875,-0.799687 -4.79812,-4.798123 -4.79812,-0.799687 -3.19875,0.799687 -2.39906,-1.599373 -5.59781,-1.599375 -3.19875,3.198748 1.59938,2.399062 -4.79813,6.397496 v 6.397498 l -2.39906,3.998435 0.79969,2.399061 -0.79969,1.599374 0.79969,1.599375 -1.59938,2.399061 z m 203.92021,25.589988 2.39906,4.798123 -0.79969,4.798122 2.39907,3.198748 -1.59938,7.197184 2.39906,3.198749 -2.39906,3.198738 3.19875,2.39907 -4.79812,3.99843 v 1.59938 l -3.19875,1.59937 v -3.19875 l -3.19875,1.59938 v -1.59938 l -2.39907,2.39906 v 2.39906 l -2.39905,0.79969 -1.59938,-0.79969 -2.39905,5.59781 4.79811,4.79813 -2.39906,0.79968 0.7997,3.99844 -0.7997,2.39905 h -3.99843 l -1.59937,-1.59936 -3.19875,1.59936 -3.99845,-0.79968 0.7997,11.19562 h -5.59782 l -3.19875,1.59937 -3.19874,-0.79969 -3.99844,2.39906 0.7997,2.39907 -0.7997,6.3975 1.59938,0.79968 2.39906,-3.99843 1.59938,1.59937 h 1.59936 l -3.99843,2.39906 2.39907,1.59937 h -1.59938 v 2.39907 l 1.59938,-0.79969 v 1.59937 l -2.39907,2.39907 -3.19875,1.59937 h 1.59938 v 2.39906 l 3.19875,1.59937 2.39905,4.79813 3.19875,2.39905 v 0.7997 h -2.39905 l -1.59938,2.39905 -1.59937,0.7997 2.39905,4.79812 3.99844,-2.39907 1.59938,1.59938 -1.59938,8.79655 1.59938,0.7997 h 7.99687 l 2.39906,2.39905 h 1.59937 l 1.59938,-6.39748 h 4.79812 l 0.79968,2.39905 h 2.39907 l -0.79969,4.79812 -1.59938,1.59938 -1.59937,-0.79969 -1.59936,6.39749 h 3.19873 l 1.59938,1.59938 h 3.19875 l 2.39906,3.19875 -0.79969,1.59937 2.39907,1.59938 -3.99844,7.19718 -2.39906,1.59937 -1.59937,6.3975 0.79968,2.39907 1.59937,1.59937 -2.39905,3.99843 1.59937,1.59938 1.59937,3.19875 -2.39906,1.59937 -3.99843,-0.79969 -1.59938,1.59937 -2.39905,0.7997 h -3.99845 l -3.19875,-3.19875 2.39907,-1.59938 -0.79969,-4.79812 -5.59781,-3.19875 -4.79812,-0.79968 -3.19875,-3.19875 h -2.39906 l -3.19874,-3.99844 -1.59938,-3.99843 -6.3975,-1.59938 -1.59937,1.59938 -1.59938,-3.19875 h -1.59937 l -1.59938,1.59937 -1.59937,-1.59937 -0.79968,-4.79813 2.39905,-1.59937 -0.79969,-3.19875 5.59782,0.79969 1.59937,-2.39907 2.39906,0.7997 2.39907,-3.19875 v -3.99844 l 2.39905,1.59937 4.79813,-2.39906 v -0.79969 l -3.19875,-1.59937 1.59937,-4.79811 -3.19875,1.59936 -0.79968,-1.59936 3.99843,-5.59782 v -3.99843 l -3.19875,-2.39907 0.7997,-3.19875 -0.7997,-1.59938 h -4.79812 l -1.59938,2.39907 -2.39905,-1.59937 -3.19875,1.59937 -7.99687,-5.59781 -2.39906,4.79812 -1.59937,7.99687 -3.19875,2.39907 -0.7997,3.19875 1.59938,3.19874 -4.79813,3.19875 h -3.19875 l -2.39905,3.19875 -4.79813,1.59937 3.99843,7.19719 -2.39905,1.59938 5.5978,3.19875 0.7997,-4.79813 3.99843,1.59938 -2.39906,5.5978 1.59938,3.19875 -2.39907,2.39906 0.79969,5.59781 -3.99844,1.59938 -3.99843,5.5978 v 0.7997 l 5.5978,2.39905 -0.79968,3.99843 1.59938,1.59938 1.59937,-0.79968 -0.79969,3.99843 -3.19875,1.59937 -0.79968,1.59938 0.79968,1.59937 h 3.19875 l -1.59938,0.7997 4.79813,6.39749 v 2.39906 l 2.39907,-2.39906 h 2.39905 l 0.7997,-1.59937 10.39592,-7.19719 2.39906,-4.79813 -0.79968,-2.39905 0.79968,-0.7997 1.59937,0.7997 0.7997,-3.19875 3.19875,-2.39906 h 5.5978 l 1.59938,4.79811 -0.79968,3.19875 h 3.19874 l 2.39906,1.59938 0.79968,-1.59938 3.99844,3.19875 -0.79969,1.59938 -3.19875,0.79969 v 1.59938 h -1.59936 l -0.79969,6.39749 -6.3975,7.19718 0.79969,3.99843 -2.39907,6.3975 -5.5978,3.99844 -2.39907,3.99844 0.79969,0.79968 1.59938,-0.79968 v 3.19874 l 1.59937,0.79969 h 6.3975 l -3.19875,1.59937 -0.79969,2.39907 2.39907,2.39905 h 3.19875 l 3.19874,-2.39905 1.59938,2.39905 1.59936,-0.79968 v 1.59938 l 2.39907,2.39905 -3.19875,3.99845 1.59938,4.79811 v 4.79812 h 2.39905 l 2.39907,-3.99843 1.59937,0.79968 1.59938,-0.79968 -0.7997,-3.19875 0.7997,-1.59937 h -0.7997 v -2.39906 l 2.39907,3.99843 1.59938,-1.59937 v -3.19875 0.79969 h 3.99843 l 3.19875,1.59938 2.39907,-6.3975 h 3.19873 l -1.59937,-2.39907 -1.59936,1.59937 h -1.59938 l -0.79969,-7.99687 h 1.59937 l 0.7997,-1.59937 1.59936,2.39906 2.39907,-0.79969 2.39905,-2.39905 -2.39905,-3.19875 3.19874,1.59937 1.59938,-1.59937 h 1.59937 v -0.79969 h -1.59937 l -0.79969,-2.39906 3.19875,0.79969 2.39906,-1.59937 -0.79969,-0.7997 1.59937,-0.79968 -3.19874,-1.59937 1.59937,0.79968 3.19875,-1.59938 -0.79968,-1.59937 h 3.19875 v -3.19875 l 1.59937,2.39907 0.79968,-0.7997 v -2.39905 l -2.39905,-3.19875 v -1.59938 h -2.39907 l -3.19875,3.19875 -3.99843,-1.59937 -2.39907,1.59937 4.79813,-3.19875 -3.19875,-0.79969 -0.79969,0.79969 -2.39906,-0.79969 v -0.79968 l 3.19875,-1.59938 0.79969,-0.79968 -6.3975,-3.19875 h -2.39905 l 2.39905,-3.19874 v 1.59937 l 5.59781,3.19875 7.99687,-0.79969 0.79969,3.19874 -1.59937,1.59938 2.39905,-0.79968 3.19875,2.39905 7.99688,-1.59937 v -3.19875 l -1.59938,-1.59937 h 1.59938 l 0.79968,2.39906 1.59937,-0.79969 -0.79968,-2.39906 h 1.59938 l 0.79968,1.59938 0.79969,-1.59938 2.39906,-0.79969 v -0.79968 l 6.39749,1.59937 3.19875,4.79813 v -3.99844 l -3.19875,-2.39906 2.39907,-9.59625 4.79811,-2.39907 -5.5978,-3.19875 v -9.59623 h -2.39906 l -0.79969,-3.19875 -3.19875,-1.59937 -0.79968,-1.59938 -2.39907,-0.79969 v -3.19875 l -7.19718,0.79969 -0.79969,-3.19875 0.79969,-1.59937 -3.99843,-4.79813 2.39906,-7.19718 2.39905,-1.59937 -1.59937,-3.19875 h 2.39907 v -2.39907 l 2.39905,-2.39905 3.19875,-0.79968 2.39907,-3.99845 -3.99844,-3.19875 0.79969,-1.59937 -3.19875,-1.59938 -0.79969,-3.19875 -1.59938,-1.59937 h -1.59937 l -1.59938,1.59937 -1.59936,-1.59937 0.79968,-3.19875 6.3975,-6.39749 -0.79969,-1.59937 0.79969,-3.99844 -1.59937,-0.79968 v -1.59938 l 4.79812,-4.79812 -6.3975,-3.99845 -0.79969,-2.39905 h 1.59937 l -1.59937,-1.59938 1.59937,-0.79968 v -0.79969 l 2.39907,-0.79968 1.59938,-5.59782 h 3.19874 l 1.59938,-2.39905 2.39905,0.79968 0.7997,-1.59938 3.19875,0.7997 -0.7997,-7.19719 2.39907,-2.39906 -0.79969,-5.59781 3.99843,-1.59937 1.59937,-1.59938 0.7997,0.79969 3.19875,-0.79969 1.59937,-3.19874 -0.79969,-5.59781 2.39907,-2.39907 -1.59938,-1.59937 3.99843,-8.796553 4.79813,-2.39906 h 3.19874 l 4.79813,1.599373 1.59937,-3.998435 -2.39907,-2.399061 1.59938,-4.798123 v -3.198748 l -8.79655,-3.198749 -1.59938,3.198749 -5.5978,4.798123 -1.59938,3.198748 -3.19875,1.599373 -3.19875,6.397498 -12.79499,-4.798123 -2.39906,-5.59781 0.79968,-1.599373 -2.39905,-2.399062 v -5.59781 l -3.19875,-1.599374 -1.59938,-2.399062 -2.39907,-1.599373 -1.59936,1.599373 -1.59937,2.399062 -6.3975,1.599374 -0.7997,1.599374 z m 15.19405,184.727704 h 2.39907 l -1.59938,-1.59938 -5.5978,0.7997 z m 17.59312,2.39907 2.39905,-0.7997 -0.79968,-1.59937 1.59938,-1.59938 1.59937,1.59938 1.59938,-0.79968 1.59937,2.39905 1.59938,-1.59937 -3.99845,-5.59781 h -0.79968 l -3.19875,3.19875 -3.99843,-4.79812 -3.99844,-0.79968 -3.99843,2.39905 0.79968,1.59938 -3.19875,-0.79968 -0.79968,3.19873 0.79968,0.7997 3.19875,-0.7997 -1.59937,2.39907 6.39749,-0.79969 v -1.59938 l 0.7997,-0.79968 1.59937,1.59938 v 1.59937 z m -216.7152,23.19092 1.59938,13.59468 3.99843,3.99843 -4.79812,5.59782 -3.99844,0.79968 -3.99843,2.39907 -1.59938,-1.59938 -3.19874,0.79969 -3.19875,-2.39906 v -3.19875 l -3.19875,0.79968 -1.59938,1.59938 -1.59937,-0.79969 -6.39749,-6.39749 -4.798124,1.59937 -0.799687,-2.39905 1.599374,-0.7997 v -3.19875 l -3.998436,-5.5978 2.399062,-0.7997 2.399061,0.7997 0.799687,-0.7997 v -3.19875 l -0.799687,-0.79968 -2.399061,0.79968 v -2.39905 l -0.799687,0.79968 -0.799687,-2.39906 3.198748,2.39906 3.998437,-1.59937 3.19874,2.39906 2.39906,-1.59937 0.79969,-0.79969 -0.79969,-3.99843 2.39906,-3.99844 0.79969,-3.99844 4.79812,-0.79968 2.39907,-1.59937 -0.79969,-4.79813 5.59781,-2.39907 h 3.19875 v 1.59938 h 2.39906 l -1.59938,5.59782 -2.39906,1.59937 0.79969,2.39906 -1.59937,1.59937 3.19874,5.59781 -0.79968,4.79812 h 3.19874 z m 169.53367,15.19406 3.99843,-1.59938 3.19875,0.7997 3.19874,-3.99845 h -3.99844 l -3.19873,2.39907 -1.59938,-1.59937 -2.39907,3.19875 z m -2.39907,2.39905 0.79969,-0.79968 h -1.59937 z m 10.39593,0.7997 2.39906,-1.59938 v -0.79969 l -3.19874,-0.79968 v 2.39905 z m -58.37716,37.58529 2.39907,0.79968 2.39906,-4.79812 h -1.59938 z m -142.34429,1.59938 -3.99844,0.79968 -5.597804,-2.39906 2.399061,-3.99844 2.399063,-1.59937 v -2.39906 h 0.79968 l 0.79969,-3.99844 0.79968,-0.79968 h 2.39907 l 0.79968,-3.19875 3.19875,3.19875 3.19875,-1.59938 -0.79969,2.39906 2.39906,-0.79968 -3.99843,2.39905 0.79969,2.39907 -3.19875,2.39906 -1.59938,2.39906 1.59938,3.19875 z m 36.7856,0.79968 h -0.79969 l -1.59938,-3.99843 v 3.99843 z m 15.99374,7.19718 v -1.59938 l 2.39907,0.7997 -0.7997,-3.19875 -8.79655,-1.59938 v 3.19875 z m 13.59467,20.79187 2.39907,-1.59938 -0.79969,-1.59937 h -1.59938 l -3.19874,-1.59938 0.79969,3.19875 z m 47.98123,0 h 1.59938 l -0.79968,-0.7997 z m -27.98905,0.79968 1.59938,-3.19875 -3.19875,0.79969 z m -101.560243,10.39594 2.39906,-3.19875 1.599375,-0.79969 -0.799687,-3.19875 1.599374,-3.19875 -2.399062,0.79969 v 2.39906 l -0.799687,-1.59938 -1.599373,2.39907 -2.399062,-0.79969 z m 10.395933,8.79656 0.79968,-0.79969 3.19875,0.79969 0.79969,-1.59938 v -2.39905 l -1.59938,0.79968 -3.19874,-0.79968 1.59937,-5.59782 2.39906,-0.79968 v -0.7997 l -1.59938,0.7997 -2.39905,-3.19875 h -2.399063 v 2.39905 l -2.399061,0.7997 -0.799687,1.59937 -1.599374,-0.79969 -1.599375,2.39907 z m -11.995308,11.9953 0.799687,-3.19875 -3.998435,-3.19875 v 3.99844 z m 7.996871,14.39437 2.399061,-3.99844 -0.799687,-0.79968 -3.998435,1.59937 z m -3.198748,-17.59312 v -1.59938 l -1.599375,-1.59937 0.799687,3.19875 z m 15.993735,-1.59938 2.39906,-1.59937 1.59938,-2.39906 h 1.59937 v -2.39906 l -3.19875,0.79969 v 2.39906 l -2.39906,-1.59938 -0.79969,1.59938 -0.79968,1.59937 z m 3.99844,-11.1956 0.79968,-1.59938 h -1.59937 z m -27.189359,-18.39282 4.798123,-0.79968 0.799686,-3.19875 -4.798123,1.59937 z m 0,-2.39906 v -2.39905 l -0.799687,2.39905 z m 67.173699,-11.19562 1.59938,-0.79968 -1.59938,-1.59937 -0.79968,0.79968 z m 162.33648,-79.9687 2.39907,-1.59938 0.79968,0.79969 0.7997,-1.59937 2.39905,0.79968 v -3.19875 h -4.79812 l -0.79968,3.19875 -0.7997,-2.39905 -1.59937,0.79968 z m 11.99531,-3.19875 3.99844,-2.39906 h -3.19875 l -1.59937,-2.39907 h -1.59938 l -0.79968,2.39907 -1.59937,-0.79969 -1.59938,1.59937 3.19875,0.7997 1.59936,-0.7997 z m 11.19562,-1.59938 1.59937,-0.79968 v -1.59937 l -1.59937,0.79968 -2.39906,-1.59938 v 1.59938 z m -12.795,-3.99843 1.59938,-0.79969 -0.79968,-0.79968 0.79968,-1.59938 3.19875,0.79968 -0.79968,-1.59937 -2.39907,-0.79968 0.79969,-1.59938 h -1.59937 l -3.19875,0.79968 1.59937,0.7997 -1.59937,2.39905 1.59937,0.7997 -0.79968,0.79968 z m 20.79187,-0.79969 0.79968,-2.39906 h -1.59936 z m -11.19562,-1.59938 h 1.59938 l -0.79969,-2.39905 h -3.19874 z m -23.99061,-8.79655 2.39906,-1.59938 -2.39906,-0.79968 z"
     id="path12"
     style="stroke:#000000;stroke-width:0.2;stroke-linejoin:round;stroke-miterlimit:4;stroke-dasharray:none" />
  <path
     fill="#ece3b4"
     d="m 187.25627,52.109163 0.7997,3.998435 -3.99845,4.798123 2.39907,3.998435 -2.39907,-0.799687 -3.19875,2.399062 -6.3975,-3.198748 0.7997,3.998435 -2.39907,2.399061 2.39907,6.397497 -0.7997,1.599373 v 3.19875 l -2.39905,2.39906 v 2.399062 l -1.59938,2.399061 4.79813,2.399062 3.99843,6.397496 3.99844,1.599374 h 3.19875 l 1.59938,1.599376 h 3.99843 l -0.7997,1.59937 3.99844,2.39906 v 5.59781 l 3.99843,-0.79969 3.19875,0.79969 2.39907,4.79812 -0.79969,1.59938 2.39907,1.59937 4.79811,0.79969 7.19719,6.39749 h 6.3975 l 1.59937,-3.19874 v -4.79813 l 1.59938,-1.59937 0.79968,-2.39906 0.79969,-0.79969 0.79968,-2.39906 2.39907,-2.39906 v -3.19875 l 1.59936,-3.19875 v -4.798117 l 1.59938,-2.399061 0.79969,-5.59781 3.19875,-1.599375 v -3.198748 l 3.19875,-2.39906 0.79968,-7.996872 -0.79968,-7.996871 1.59938,-2.399061 3.19875,-2.399062 -2.39907,-3.198748 v -2.399062 l -1.59938,-3.998435 6.3975,-4.798123 0.79969,-3.198748 -1.59937,-3.198748 v -2.399062 l 3.99843,-5.597808 -0.79968,-0.799688 -4.79812,0.799688 -3.99845,-3.19875 1.59938,-3.998435 3.19875,-3.998435 -1.59938,-2.399061 1.59938,-1.599375 v -1.599374 l -5.59781,-1.599374 -5.59782,3.998436 -3.19875,-1.599375 -3.99843,2.399062 -3.99843,3.198748 -3.19875,-0.799687 -1.59937,3.998435 0.79968,3.198748 -1.59937,3.998437 -5.59781,-0.799688 -3.19875,1.599374 -3.99843,3.998436 -7.19719,0.799686 -0.79968,1.599375 2.39905,0.799687 -1.59937,3.198748 0.79969,1.599375 -3.99844,2.399061 -2.39906,4.798122 v 1.599375 h -5.59781 z m 109.55713,30.388109 -7.99687,3.998435 0.79969,7.996872 -3.99844,14.394361 -5.5978,7.19719 -3.19875,0.79968 -0.79969,4.79813 1.59938,1.59937 -1.59938,6.3975 -3.19874,-1.59938 -3.99845,1.59938 2.39907,1.59936 -1.59937,4.79813 0.79968,5.59781 -2.39906,-2.39907 -3.99844,1.59938 -2.39906,-1.59938 h -3.19875 l -1.59937,2.39907 -3.19875,0.79968 3.19875,5.59781 h -2.39906 l -4.79812,-1.59938 -1.59937,-4.79811 -2.39907,1.59937 -2.39906,-3.19874 -2.39907,-1.59938 -3.99843,3.19875 -0.79969,3.19874 h -3.99843 v 1.59937 l -3.19875,-0.79968 -0.79968,-3.99843 2.39905,-9.59624 -0.79968,-2.39906 -1.59937,-0.79969 v 3.19875 l -6.3975,1.59937 3.19875,2.39906 -1.59938,3.99844 -1.59937,1.59937 0.79968,1.59937 -1.59937,1.59937 h -2.39906 v 2.39907 l -7.19719,7.99687 -3.19874,-3.99844 -1.59937,1.59937 -2.39907,-6.3975 2.39907,-2.39905 -1.59938,-11.19562 -10.39594,1.59937 -2.39905,-3.99843 -2.39907,1.59938 -1.59936,0.79968 -2.39907,-0.79968 1.59937,3.19874 -2.39905,3.19875 -2.39907,0.79968 -1.59938,1.59938 -4.79812,0.79969 v 0.79968 l 1.59937,3.19875 -0.79968,2.39906 v 5.59782 l 5.59781,3.99843 v 3.19875 l -0.79968,1.59937 2.39905,5.59781 -3.19875,-0.79969 v -2.39905 l -3.99843,1.59936 -2.39907,-2.39905 h -2.39905 l -3.19875,3.19874 h -1.59938 l -2.39905,3.19875 -4.79812,-2.39906 -3.19875,0.79969 -1.59938,-2.39907 -0.79969,0.79969 1.59937,7.19718 -2.39905,5.59782 1.59937,3.99843 -2.39907,1.59938 -1.59937,4.79812 -3.99843,0.79968 -2.39907,2.39907 h -0.79968 v 2.39906 h -3.19875 l -3.19875,1.59937 0.79969,3.19875 -7.99687,11.19562 v 2.39906 l 2.39906,0.79969 v 3.19875 h 1.59937 -1.59937 v 2.39906 l 3.99844,4.79812 0.79968,7.19719 7.99687,15.19406 1.59938,-5.59782 6.3975,-2.39906 2.39905,-4.79812 6.3975,3.19875 2.39907,-5.59781 v -2.39907 l 2.39905,2.39907 3.19875,-3.19875 0.79968,1.59938 h 1.59938 v -4.79813 l 3.19875,-4.79812 3.19875,-0.79969 0.79969,-2.39906 3.19875,3.99843 3.99843,0.79969 -0.79968,-10.39594 3.99843,-3.19873 4.79812,-0.7997 0.79969,-3.19875 -1.59938,-6.3975 2.39907,-3.99843 v -2.39906 h 0.79968 l 1.59937,-3.19875 h 0.7997 l 1.59937,-2.39906 3.99843,-0.79968 -0.79968,-1.59937 h -3.19875 l -4.79812,-3.19875 -0.79969,-2.39907 1.59937,-2.39906 -0.79968,-2.39907 0.79968,-3.99843 h 3.19875 l 2.39907,4.79813 -0.7997,-2.39907 2.39907,-0.79968 2.39906,-3.19875 1.59937,1.59937 3.19875,0.79968 3.19875,-2.39905 1.59938,0.79968 -0.7997,0.79969 -1.59937,2.39906 0.79969,3.99844 -2.39907,2.39906 1.59938,1.59937 -3.19875,1.59938 v 1.59937 l 2.39907,3.19875 1.59937,-2.39905 4.79813,2.39905 -0.7997,2.39906 5.59782,3.99844 -3.19875,4.79812 1.59937,-0.79969 3.99843,1.59937 3.19875,-1.59937 4.79813,-1.59937 2.39905,-3.19875 h 3.19875 l 4.79813,-3.19875 -1.59938,-3.19874 0.7997,-3.19875 3.19875,-2.39907 1.59937,-7.99687 2.39906,-4.79812 7.99687,5.59781 3.19875,-1.59937 2.39905,1.59937 1.59938,-2.39907 h 4.79812 l 0.7997,1.59938 -0.7997,3.19875 3.19875,2.39907 v 3.99843 l -3.99843,5.59782 0.79968,1.59936 3.19875,-1.59936 -1.59937,4.79811 3.19875,1.59937 v 0.79969 l -4.79813,2.39906 -2.39905,-1.59937 v 3.99844 l -2.39907,3.19875 -2.39906,-0.7997 -1.59937,2.39907 -5.59782,-0.79969 0.79969,3.19875 -2.39905,1.59937 0.79968,4.79813 1.59937,1.59937 1.59938,-1.59937 h 1.59937 l 1.59938,3.19875 1.59937,-1.59938 6.3975,1.59938 1.59938,3.99843 3.19874,3.99844 h 2.39906 l 3.19875,3.19875 4.79812,0.79968 5.59781,3.19875 0.79969,4.79812 -2.39907,1.59938 3.19875,3.19875 h 3.99845 l 2.39905,-0.7997 1.59938,-1.59937 3.99843,0.79969 2.39906,-1.59937 -1.59937,-3.19875 -1.59937,-1.59938 2.39905,-3.99843 -1.59937,-1.59937 -0.79968,-2.39907 1.59937,-6.3975 2.39906,-1.59937 3.99844,-7.19718 -2.39907,-1.59938 0.79969,-1.59937 -2.39906,-3.19875 h -3.19875 l -1.59938,-1.59938 h -3.19873 l 1.59936,-6.39749 1.59937,0.79969 1.59938,-1.59938 0.79969,-4.79812 h -2.39907 l -0.79968,-2.39905 h -4.79812 l -1.59938,6.39748 h -1.59937 l -2.39906,-2.39905 h -7.99687 l -1.59938,-0.7997 1.59938,-8.79655 -1.59938,-1.59938 -3.99844,2.39907 -2.39905,-4.79812 1.59937,-0.7997 1.59938,-2.39905 h 2.39905 v -0.7997 l -3.19875,-2.39905 -2.39905,-4.79813 -3.19875,-1.59937 v -2.39906 h -1.59938 l 3.19875,-1.59937 2.39907,-2.39907 v -1.59937 l -1.59938,0.79969 v -2.39907 h 1.59938 l -2.39907,-1.59937 3.99843,-2.39906 h -1.59936 l -1.59938,-1.59937 -2.39906,3.99843 -1.59938,-0.79968 0.7997,-6.3975 -0.7997,-2.39907 3.99844,-2.39906 3.19874,0.79969 3.19875,-1.59937 h 5.59782 l -0.7997,-11.19562 3.99845,0.79968 3.19875,-1.59936 1.59937,1.59936 h 3.99843 l 0.7997,-2.39905 -0.7997,-3.99844 2.39906,-0.79968 -4.79811,-4.79813 2.39905,-5.59781 1.59938,0.79969 2.39905,-0.79969 V 111.286 l 2.39907,-2.39906 v 1.59938 l 3.19875,-1.59938 v 3.19875 l 3.19875,-1.59937 v -1.59938 l 4.79812,-3.99843 -3.19875,-2.39907 2.39906,-3.198738 -2.39906,-3.198749 1.59938,-7.197184 -2.39907,-3.198748 0.79969,-4.798122 -2.39906,-4.798123 h -7.19718 l -0.7997,4.798123 -3.99843,3.198748 z M 95.292266,303.2109 l 4.798124,-1.59937 6.39749,6.39749 1.59937,0.79969 1.59938,-1.59938 3.19875,-0.79968 v 3.19875 l 3.19875,2.39906 3.19874,-0.79969 1.59938,1.59938 3.99843,-2.39907 3.99844,-0.79968 4.79812,-5.59782 -3.99843,-3.99843 -1.59938,-13.59468 -0.79969,-0.79969 H 124.081 l 0.79968,-4.79812 -3.19874,-5.59781 1.59937,-1.59937 -0.79969,-2.39906 2.39906,-1.59937 1.59938,-5.59782 H 124.081 v -1.59938 h -3.19875 l -5.59781,2.39907 0.79969,4.79813 -2.39907,1.59937 -4.79812,0.79968 -0.79969,3.99844 -2.39906,3.99844 0.79969,3.99843 -0.79969,0.79969 -2.39906,1.59937 -3.19874,-2.39906 -3.998437,1.59937 -3.198748,-2.39906 0.799687,2.39906 0.799687,-0.79968 v 2.39905 l 2.399061,-0.79968 0.799687,0.79968 v 3.19875 l -0.799687,0.7997 -2.399061,-0.7997 -2.399062,0.7997 3.998436,5.5978 v 3.19875 l -1.599374,0.7997 z m 97.561814,0 -0.79968,-4.79812 0.79968,-3.19875 -2.39906,-3.19875 -4.79812,3.99844 v 2.39906 l -3.99843,0.79969 1.59937,4.79811 2.39906,-0.79968 3.19875,0.79968 v 2.39907 z m -87.96557,40.78405 2.39906,-1.59938 -1.59938,-3.19875 1.59938,-2.39906 3.19875,-2.39906 -0.79969,-2.39907 3.99843,-2.39905 -2.39906,0.79968 0.79969,-2.39906 -3.19875,1.59938 -3.19875,-3.19875 -0.79968,3.19875 h -2.39907 l -0.79968,0.79968 -0.79969,3.99844 h -0.79968 v 2.39906 l -2.399063,1.59937 -2.399061,3.99844 5.597804,2.39906 z"
     id="path14"
     style="stroke:#000000;stroke-width:0;stroke-linejoin:round;stroke-miterlimit:4;stroke-dasharray:none" />
  <path
     fill="#b6f2dc"
     d="m 89.694457,59.306346 -0.799688,2.399062 3.198748,2.399061 1.599375,4.798122 0.799687,4.798123 1.599374,3.198749 -0.799687,1.599374 0.799687,2.399062 h 1.599374 v 2.39906 l 2.399063,0.799688 -2.399063,3.998435 0.799687,2.399062 9.596236,0.799686 h 3.19875 l 2.39906,-3.198748 -0.79968,-2.399061 v -3.198749 l 1.59937,-0.799686 v -3.198749 l 1.59938,-1.599374 3.99843,0.799686 0.79969,-3.198748 -0.79969,-4.798122 -3.19875,-3.998436 1.59938,-3.198748 -2.39906,-3.998435 0.79968,-2.399062 -8.79656,-5.59781 -1.59937,0.799687 v 2.399062 l -2.39906,2.399061 -3.19875,-0.799687 -3.198743,2.399062 -5.59781,-1.599375 -0.799687,2.399062 z M 332.79933,72.901027 v 5.59781 l 2.39905,2.399062 -0.79968,1.599373 2.39906,5.59781 12.79499,4.798123 3.19875,-6.397498 3.19875,-1.599373 1.59938,-3.198748 5.5978,-4.798123 1.59938,-3.198749 -0.79969,-9.596245 1.59938,-1.599374 3.19875,-1.599374 1.59936,-4.798123 -2.39906,-4.798123 -3.99843,1.599375 -2.39906,0.799687 v 3.198748 l -1.59938,2.399061 -10.39593,4.798123 v 2.399062 l -4.79812,4.798122 h -6.3975 z"
     id="path16"
     style="stroke:#000000;stroke-width:0;stroke-linejoin:round;stroke-miterlimit:4;stroke-dasharray:none" />
  <path
     fill="#cccccc"
     d="M 0.129501,375.18273 H 1.7288751 L 0.92918808,372.78368 H 2.5285622 v -1.59938 l 2.3990613,-0.79969 -0.7996871,-4.79811 h 1.5993742 l 1.5993742,4.79811 H 8.1263719 L 7.3266848,363.18743 H 8.926059 l -0.7996871,1.59938 1.5993743,-1.59938 -0.7996872,2.39907 1.599374,-1.59938 v 1.59938 h 1.599374 v 0.79968 l 2.399062,2.39907 -1.599374,0.79968 0.799687,4.79812 v 2.39906 l -3.9984358,0.79969 v 2.39906 l 3.1987488,2.39907 3.198748,-3.19875 1.599375,5.5978 v -0.79968 l 1.599373,1.59938 2.399062,-0.7997 v 1.59938 l 2.399061,-2.39906 0.799687,2.39906 0.799688,-1.59938 3.998435,3.99845 v -1.59938 l 3.198748,0.79968 0.799687,-1.59937 2.399062,1.59937 1.599374,2.39907 -0.799688,2.39906 6.397498,-1.59938 3.998435,-3.19875 v -1.59937 h 1.599375 l -0.799688,-4.79813 1.599375,-10.39593 7.197183,-2.39905 -1.599374,-3.19875 -1.599374,-0.79969 1.599374,-1.59938 8.796558,7.19718 2.399062,-4.79811 -1.599375,-1.59938 v -0.79969 l -7.996871,-5.5978 -0.799687,-1.59938 1.599375,-3.19875 -0.799688,-3.19875 h -4.798122 l -4.798123,-1.59937 4.798123,1.59937 3.998435,-1.59937 2.399062,1.59937 h 6.397496 -5.59781 l -0.799686,7.19718 9.596244,5.59782 0.799687,-9.59625 -0.799687,-4.79812 v -2.39906 l 0.799687,3.19874 3.19875,-7.19718 -0.799688,-3.19875 -2.399062,0.79969 v -2.39906 h 1.599375 l -1.599375,-3.19875 2.399062,-4.79813 -1.599374,-3.99843 -0.799688,-5.5978 -6.397496,-4.79813 -0.799687,-6.3975 H 58.50666 l -4.798123,-3.19874 -1.599374,-6.3975 -2.399061,-2.39906 v -3.19875 l 2.399061,-2.39907 -1.599375,-1.59937 v -3.19875 l 3.198749,-3.19875 1.599374,-7.19718 -6.397496,-3.19875 1.599373,-2.39905 -3.998435,-3.19875 -0.799688,-7.1972 -0.799686,-3.99843 -2.399062,-1.59937 -0.799687,-2.39906 3.198749,-3.99844 -0.799687,-3.19875 -1.599375,-1.59937 1.599375,-1.59938 -0.799687,-2.39905 0.799687,-3.19875 3.198748,-2.39906 -2.399061,-3.19875 2.399061,-3.19875 0.799687,-3.99844 -1.599374,-2.39905 h -1.599374 v -1.59938 l -3.198749,-0.79969 -1.599373,-3.99843 h -2.399062 l 0.799687,0.79968 -3.998435,-2.39906 -0.799688,-1.59937 0.799688,-3.19875 -2.399062,-2.39906 0.799687,-0.79969 -2.399061,-1.59938 v -1.59937 l -4.798122,-4.79812 -3.198748,-4.79813 -0.799688,-5.5978 2.399061,-3.99843 v -5.59782 l 2.399062,-3.19875 -3.998435,-7.19718 2.39906,-3.19875 -0.799687,-3.19875 3.198748,-0.79968 0.799687,-2.39907 1.599375,-0.79968 0.799687,-8.79657 -1.599374,-2.39905 -3.998436,-1.59938 -3.998435,-7.99687 -7.197184,-4.79811 v -3.19875 l 2.399061,-3.19875 h 2.399061 l 2.399062,-2.39906 -0.799687,-8.79656 1.599374,-2.39906 1.599374,-0.79969 3.998435,2.39906 0.799687,-0.79968 3.998436,2.39906 3.998436,-5.59781 4.798122,2.39906 5.59781,-4.79812 h 9.596245 l 3.198748,-2.39907 -0.799686,-7.197174 -1.599375,-1.599374 -2.399062,-7.996871 -1.599373,-1.599374 1.599373,-1.599375 -0.799686,-1.599373 3.998436,-3.998436 2.39906,0.799686 2.399062,3.19875 h 1.599374 l 6.397497,2.39906 2.399061,-0.799687 1.599374,-2.399061 2.399062,1.599375 1.599374,-3.198749 h 3.198749 l 1.599373,-1.599374 h 2.399062 l 1.599374,-2.399062 h 2.399062 l 0.799687,1.599375 1.599373,-0.799687 0.799688,3.198748 h 2.399061 l 0.799687,-1.599374 -1.599374,-3.198749 -0.799687,-4.798123 -1.599375,-4.798122 -3.198748,-2.399061 0.799688,-2.399062 1.599373,-0.799686 0.799687,-2.399062 5.59781,1.599375 3.198743,-2.399062 3.19875,0.799687 2.39906,-2.399061 v -2.399062 l 1.59937,-0.799687 v -3.998435 l 1.59938,-2.399061 -0.79969,-1.599375 0.79969,-1.599374 -0.79969,-2.399061 2.39906,-3.998435 v -6.397498 l 4.79813,-6.397496 -1.59938,-2.399062 3.19875,-3.198748 5.59781,1.599375 2.39906,1.599373 3.19875,-0.799687 4.79812,0.799687 4.79812,4.798123 3.19875,0.799687 1.59937,1.599375 3.99844,-0.799687 1.59937,-2.399062 10.39593,3.998435 h 1.59938 l 0.79969,-0.799686 1.59937,0.799686 0.79969,-1.599373 3.99843,4.798122 1.59937,-0.799687 6.3975,5.59781 1.59937,-0.799687 v 1.599374 h 3.19875 l 0.7997,3.198748 2.39905,3.198748 -0.79968,2.399062 3.99843,4.798123 v 2.399061 l 2.39906,0.799687 h 5.59781 v -1.599375 l 2.39906,-4.798122 3.99844,-2.399061 -0.79969,-1.599375 1.59937,-3.198748 -2.39905,-0.799687 0.79968,-1.599375 7.19719,-0.799686 3.99843,-3.998436 3.19875,-1.599374 5.59781,0.799688 1.59937,-3.998437 -0.79968,-3.198748 1.59937,-3.998435 3.19875,0.799687 3.99843,-3.198748 3.99843,-2.399062 3.19875,1.599375 5.59782,-3.998436 5.59781,1.599374 v 1.599374 l -1.59938,1.599375 1.59938,2.399061 -3.19875,3.998435 -1.59938,3.998435 3.99845,3.19875 4.79812,-0.799688 0.79968,0.799688 3.99843,0.799686 2.39907,2.399062 3.19875,-2.399062 3.19875,2.399062 0.79968,-1.599375 3.19875,-0.799687 0.79969,-1.599374 3.19875,0.799688 5.59781,8.796558 3.99843,0.799686 2.39906,-0.799686 1.59938,1.599373 0.79968,1.599375 -1.59938,1.599374 3.99845,4.798123 -2.39907,2.399061 0.79969,3.198748 -2.39907,1.599374 2.39907,3.198748 3.99843,-1.599373 2.39907,2.399061 -3.99844,12.794993 3.99844,3.198749 0.79968,5.597809 3.19875,1.599375 3.99843,-3.198748 0.7997,-4.798123 h 7.19718 l 3.19874,-1.599375 0.7997,-1.599374 6.3975,-1.599374 1.59937,-2.399062 1.59936,-1.599373 2.39907,1.599373 1.59938,2.399062 3.19875,1.599374 5.5978,-1.599374 h 6.3975 l 4.79812,-4.798122 v -2.399062 l 10.39593,-4.798123 1.59938,-2.399061 v -3.198748 l 2.39906,-0.799687 3.99843,-1.599375 2.39906,4.798123 -1.59936,4.798123 -3.19875,1.599374 -1.59938,1.599374 0.79969,9.596245 8.79655,3.198749 v 3.198748 l -1.59938,4.798123 2.39907,2.399061 -1.59937,3.998435 -4.79813,-1.599373 h -3.19874 l -4.79813,2.39906 -3.99843,8.796553 1.59938,1.59937 -2.39907,2.39907 0.79969,5.59781 -1.59937,3.19874 -3.19875,0.79969 -0.7997,-0.79969 -1.59937,1.59938 -3.99843,1.59937 0.79969,5.59781 -2.39907,2.39906 0.7997,7.19719 -3.19875,-0.7997 -0.7997,1.59938 -2.39905,-0.79968 -1.59938,2.39905 h -3.19874 l -1.59938,5.59782 -2.39907,0.79968 v 0.79969 l -1.59937,0.79968 1.59937,1.59938 h -1.59937 l 0.79969,2.39905 6.3975,3.99845 -4.79812,4.79812 v 1.59938 l 1.59937,0.79968 -0.79969,3.99844 0.79969,1.59937 -6.3975,6.39749 -0.79968,3.19875 1.59936,1.59937 1.59938,-1.59937 h 1.59937 l 1.59938,1.59937 0.79969,3.19875 3.19875,1.59938 -0.79969,1.59937 3.99844,3.19875 -2.39907,3.99845 -3.19875,0.79968 -2.39905,2.39905 v 2.39907 h -2.39907 l 1.59937,3.19875 -2.39905,1.59937 -2.39906,7.19718 3.99843,4.79813 -0.79969,1.59937 0.79969,3.19875 7.19718,-0.79969 v 3.19875 l 2.39907,0.79969 0.79968,1.59938 3.19875,1.59937 0.79969,3.19875 h 2.39906 v 9.59623 l 5.5978,3.19875 -4.79811,2.39907 -2.39907,9.59625 3.19875,2.39906 v 3.99844 l 5.59781,-7.19719 0.79969,0.79969 0.79968,-0.79969 v 1.59937 l 5.59782,-2.39905 v -1.59938 h -3.19875 1.59938 l -0.7997,-1.59937 0.7997,0.79968 v -3.99843 2.39905 l 3.19875,2.39907 1.59937,4.79812 2.39906,-0.79969 -1.59938,1.59938 3.19875,2.39906 0.79969,-2.39906 h 5.59781 l 0.79968,1.59937 2.39907,-1.59937 3.19875,-4.79813 2.39905,-1.59937 -2.39905,-2.39906 0.79968,-1.59937 h 0.79969 l -0.79969,-1.59938 1.59937,-1.59937 6.3975,-0.7997 V 0.129501 H 0.129501 Z m 387.848229,-136.74648 -1.59937,3.19875 0.79969,1.59937 0.79968,-0.79969 z M 0.129501,382.37993 v -0.7997 l 1.5993741,1.59938 0.7996871,-0.79968 0.7996872,-2.39907 -1.5993743,-3.19875 H 0.129501 Z m 110.356819,50.38028 -1.59938,-1.59938 -4.79812,1.59938 z m 254.30049,0 z m -15.19406,0 -7.19718,-6.3975 -3.99844,1.59937 -2.39906,-0.79968 -3.19874,-1.59937 -0.7997,-2.39907 -0.79968,-1.59937 -1.59937,3.19875 -2.39907,-0.79969 -3.19874,-4.79812 h -0.79969 v -3.99844 l 5.5978,-4.79811 -0.79968,-3.99845 1.59938,-0.79968 -0.7997,-1.59937 h -2.39905 v -3.99845 l -2.39906,-1.59937 -2.39907,3.99844 -2.39905,1.59938 -3.19875,-3.99845 -1.59938,-0.79968 -0.79969,-4.79812 -2.39906,-3.19875 -1.59937,1.59938 2.39906,5.5978 v 1.59937 l -3.19875,1.59938 -0.79969,-1.59938 -2.39906,1.59938 -0.79968,-2.39906 -2.39907,-1.59937 v 2.39905 l 1.59937,0.7997 -0.79968,4.79812 1.59938,0.79968 -3.19875,-0.79968 v 3.19875 l -3.99843,-0.79969 -3.99845,-6.3975 0.7997,-0.79968 0.79968,-2.39907 -0.79968,-4.79812 2.39905,-3.99843 v -3.19875 l -1.59937,-2.39906 -7.19718,-3.99844 -3.19875,1.59937 -2.39907,-0.79968 0.79969,2.39906 h 1.59938 l 0.79968,1.59937 h -1.59937 v 3.19875 l -2.39906,0.7997 0.79968,5.5978 1.59938,0.79968 -2.39906,0.79969 -3.99843,-6.39749 -3.99844,-3.99843 v 7.99686 l -1.59938,4.79812 -2.39905,0.79969 v -3.99844 l -1.59938,-0.79968 v 3.99843 h -1.59937 v 1.59937 h -0.7997 l 1.59938,-5.5978 h -2.39906 v 1.59937 l -2.39907,0.79969 2.39907,0.79969 -1.59937,2.39905 v -1.59937 l -0.7997,1.59937 -0.79968,-2.39905 -0.79969,0.79968 -0.79968,-2.39906 -1.59938,2.39906 h -3.19875 l 1.59938,0.79969 -1.59938,0.79968 h -1.59937 l 1.59937,-2.39905 -3.19874,-0.79969 -2.39906,1.59937 -1.59937,-1.59937 h 1.59937 l -2.39907,-0.79969 -4.79812,1.59938 -5.59781,-7.19718 -3.19875,3.99843 -1.59937,-5.5978 -3.99843,-1.59938 -2.39907,3.19875 -0.79968,-3.19875 -3.19875,-3.19875 -2.39907,3.99843 1.59938,2.39907 -1.59938,0.79968 -3.19875,-3.99843 -0.79968,2.39906 h -1.59937 l -1.59938,-3.19875 h -1.59937 l -1.59938,3.19875 2.39906,7.99687 -3.99843,3.99843 0.79969,0.79969 -2.39907,-1.59937 -4.79812,5.5978 0.79969,1.59938 -2.39907,-1.59938 v 1.59938 l -0.79968,-0.79968 -0.79969,1.59937 v 1.59938 l -0.79968,-1.59938 h -1.59938 l -0.79969,-0.79969 -1.59937,1.59937 -0.79968,-3.19875 h -1.59938 l 3.99843,-1.59937 -2.39905,-0.79968 3.99843,-0.7997 3.19874,-2.39905 0.7997,-3.19875 -1.59938,-2.39907 h -1.59937 l -0.79969,3.19875 v -0.79968 l -5.59781,4.79812 v -2.39907 l 3.99843,-3.19874 v -1.59938 l -5.5978,3.19875 -0.79968,1.59937 -0.7997,-2.39905 0.7997,6.3975 v 4.79812 l 1.59936,-0.79969 0.79969,1.59937 -0.79969,1.59938 v -1.59938 l -2.39906,0.7997 v 0.79968 l -3.99843,3.19875 -3.19875,1.59937 -1.59937,-1.59937 -0.7997,0.79968 2.39907,2.39907 -1.59937,0.79968 0.79968,1.59937 -1.59938,0.7997 -0.79968,-3.19875 -3.99844,2.39905 0.79969,2.39907 -0.79969,-2.39907 -2.39906,0.7997 2.39906,-0.7997 -1.59938,-2.39905 -0.79968,0.79968 0.79968,-0.79968 -0.79968,0.79968 0.79968,-1.59938 -0.79968,0.7997 -1.59937,0.79968 2.39905,3.99844 -1.59937,2.39906 -0.79968,-1.59938 -3.19875,3.19875 -1.59937,-1.59937 h -0.79969 l 0.79969,-0.79969 -1.59938,1.59938 2.39907,1.59937 -2.39907,0.79968 0.79969,1.59938 -2.39906,-3.99843 -1.59938,0.79968 v 3.19875 l 2.39907,2.39907 -0.79969,0.79968 z m -223.91238,0 2.39906,-2.39906 2.39906,-1.59937 3.19875,2.39905 0.79968,-0.79968 v -2.39907 l 0.79969,-2.39905 h -3.19874 l -0.7997,2.39905 -2.39905,0.7997 -2.39906,-2.39907 0.79968,-2.39906 -2.39906,-0.79969 -0.79968,2.39907 2.39906,2.39905 -3.19875,3.19875 v 1.59938 z M 0.129501,428.76178 1.7288751,426.36271 0.129501,422.36428 Z m 382.250429,-144.74337 1.59937,-0.79969 v -1.59937 l -1.59937,0.79968 z m -86.36621,50.38029 0.79968,-1.59937 -3.19875,1.59937 z m -60.77622,5.5978 1.59937,-0.79968 -0.79969,-2.39906 -1.59938,0.79969 z m 0.79968,1.59938 1.59937,-0.79968 v -0.7997 l -1.59937,0.7997 z m 11.19562,0.79969 0.7997,3.99843 3.19874,3.19875 0.79969,-11.19562 -2.39906,4.79812 z m 60.77622,5.59781 0.79969,0.79968 1.59937,-0.79968 h 1.59938 l 0.79969,3.19875 3.99843,-2.39907 1.59937,1.59937 -0.79968,2.39907 h 1.59938 v 2.39906 l 1.59937,0.79969 -1.59937,6.3975 -3.99845,2.39906 4.79813,0.79969 v 2.39905 l -1.59938,-0.79968 v 1.59938 l -2.39905,0.79968 2.39905,4.79812 2.39907,-0.79969 3.19875,-3.19875 -0.79969,-2.39906 0.79969,-3.19874 3.99843,-3.99843 -0.79969,-2.39907 2.39907,-4.79813 4.79812,-1.59937 3.99843,-3.19875 5.59782,1.59937 1.59937,1.59938 -0.79969,4.79812 -2.39906,-1.59937 -2.39907,1.59937 -1.59937,-1.59937 -3.99843,0.79969 1.59937,4.79813 -1.59937,1.59937 -1.59937,-1.59937 0.79968,1.59937 0.79969,0.79968 4.79812,-3.19875 1.59938,-2.39905 3.19875,0.79968 1.59937,-0.79968 3.99843,3.99843 0.79968,3.99844 1.59938,0.79968 0.79969,-1.59937 -1.59937,-3.99843 3.99843,-3.99845 1.59937,-6.3975 -3.19875,-2.39905 v -2.39906 l 2.39907,-1.59937 -1.59937,-3.99845 3.19875,-3.19874 -0.7997,-4.79813 1.59938,-3.99843 -1.59938,-1.59937 2.39907,-1.59938 -3.19875,1.59938 -2.39907,-0.7997 v -1.59936 l 3.19875,-4.79812 h 2.39907 l 1.59938,-1.59938 h -3.19875 l -3.19875,1.59938 v -1.59938 l 1.59937,-0.79969 h -6.3975 l -5.5978,1.59937 -3.19875,3.99845 -2.39907,0.79968 h -7.99687 l -0.79968,-0.79968 v -1.59938 h -1.59938 l -7.99687,8.79656 -2.39906,1.59937 -2.39907,-1.59937 -4.79812,3.19875 h -4.79812 l -1.59938,2.39905 -3.19873,-0.79968 -1.59938,-3.99844 -2.39907,3.19875 0.7997,2.39906 -3.99845,3.19875 3.19875,-0.79969 v 3.19875 l 2.39907,2.39907 z m -67.17372,1.59937 1.59938,-1.59937 V 346.394 Z m 40.78405,2.39906 2.39906,-1.59938 0.79969,-2.39905 -5.59782,1.59937 v 1.59938 z m -51.17998,1.59937 0.7997,-0.79968 -1.59938,-3.19875 -0.79969,1.59938 z m 72.77153,0.7997 1.59938,-2.39907 -1.59938,0.79969 z m -32.78717,2.39905 6.3975,-7.19718 0.79969,-5.5978 -3.19875,0.79968 -3.99844,-3.19875 -1.59938,0.79969 h -2.39905 l -3.99845,3.99843 -3.99843,-0.79968 -0.79969,2.39906 h -1.59936 l 0.79968,1.59937 h 0.79968 l 0.79969,1.59938 2.39906,0.79968 4.79812,0.79969 z m -28.78873,6.3975 0.79968,-0.79968 2.39907,0.79968 3.99843,-3.99843 -3.99843,0.79968 -0.7997,-3.19875 -1.59937,-1.59937 v 0.79969 H 241.635 l -2.39907,-5.59782 -3.19875,1.59938 -1.59938,-2.39906 -0.79968,3.19875 0.79968,3.99843 2.39907,1.59938 -0.79969,1.59937 z m 5.5978,3.19875 1.59938,-2.39906 h -3.19875 z m -232.708931,3.19875 -0.799687,-1.59938 -0.799687,1.59938 z m 204.719881,3.19875 0.7997,0.79968 0.79968,-0.79968 z m 43.1831,0.79968 2.39907,-2.39906 0.79968,-2.39905 -1.59937,-2.39907 -2.39906,3.99843 z m 21.59156,0 h 0.79969 v -2.39906 z m 3.99844,2.39907 v -0.7997 l -0.7997,0.7997 z m -113.55558,3.19875 3.19875,-0.7997 -1.59937,-1.59937 z m 102.35996,0.79968 3.19875,-1.59938 -2.39906,-3.99843 v 3.19875 l -1.59938,1.59938 z m -85.56653,4.79812 v -2.39905 l -0.79968,-0.7997 z m -52.77934,1.59938 3.99843,-4.79813 v -1.59937 h -2.39905 l 1.59937,-3.99843 -5.59781,1.59937 -2.39906,-0.79969 3.19875,3.99844 v 2.39906 z m 118.35369,1.59937 5.5978,-5.5978 -0.79968,-6.3975 -5.5978,9.59625 z m -203.120513,0 1.599374,-2.39905 h -1.599374 v -1.59938 h -2.399062 l -0.799687,1.59938 z m 159.937413,1.59938 1.59937,-1.59938 -2.39907,0.7997 z m -79.96871,0.79969 0.79968,-1.59937 -1.59937,-2.39907 -1.59938,1.59937 z m 85.56651,0 h 1.59938 l -1.59938,-1.59937 h -0.79968 z m -206.319255,3.99843 3.198748,-7.19718 -3.198748,0.79968 -3.1987488,-2.39905 -0.7996872,3.19875 0.7996872,1.59937 -0.7996872,2.39906 z m 137.546175,3.99843 1.59937,-0.79968 0.79968,-3.19875 h 3.99845 l 2.39905,-3.19875 -3.99843,-8.79655 v -0.7997 l -1.59937,-1.59937 h -1.59938 v 4.79812 l -0.79969,0.7997 -2.39906,-0.7997 v 3.19875 h -2.39907 l -0.79968,4.79813 -1.59937,1.59937 z m -127.949929,3.19875 6.397496,-3.99843 5.59781,-1.59938 0.799687,-5.5978 -1.599375,1.59937 -1.599374,-0.79969 -1.599374,3.99843 v -2.39905 l -1.599374,-0.79969 -0.799688,-2.39906 -7.197183,3.19875 -2.399062,3.19874 2.399062,4.79813 z m 108.757429,3.99844 0.7997,-0.79969 -1.59938,-0.79968 -0.79968,0.79968 z m -120.752737,0 7.197185,-2.39907 0.799686,-7.19718 h -2.399061 l -5.59781,3.19875 v 1.59938 h 0.799687 v 2.39905 z m 115.154937,0.79968 2.39906,-3.19875 -3.99843,-5.5978 -0.79969,0.79968 0.79969,7.19719 z m 69.57277,2.39907 1.59938,-0.79969 v -1.59938 l -0.79969,0.7997 z m -121.552426,5.59781 0.799687,-0.79968 1.599375,0.79968 v -2.39906 h -3.998435 z m 68.773076,1.59937 1.59938,-1.59937 -0.79969,-2.39906 -5.59781,-3.19875 2.39907,6.39749 z m 31.98748,2.39906 2.39907,-0.79968 -1.59937,-3.19875 -3.19875,1.59937 z m -31.18779,12.79499 0.79969,-1.59937 -0.79969,-0.79968 -2.39906,-0.7997 -0.79968,0.7997 v 1.59937 z m -74.370889,-26.38967 0.799688,-1.59938 1.599374,0.7997 v -1.59938 h -1.599374 l -2.399061,-3.19875 -2.399062,-0.79969 -1.599373,2.39907 v 2.39905 z m 105.558679,-7.99687 2.39907,-1.59938 -0.79969,-1.59937 -1.59938,-0.79968 -1.59937,3.19874 z m -4.79812,-4.79812 2.39907,-3.19874 4.79812,-3.19875 -0.79969,-0.7997 1.59937,1.59938 v -1.59938 h 1.59938 l -1.59938,-3.19875 -3.99843,-2.39905 -4.79812,4.79812 -2.39907,-3.19875 v 3.99843 l 1.59938,3.19875 -1.59938,3.19875 z M 4.9276235,390.3768 v -1.59937 l -1.5993741,-1.59938 -0.7996872,2.39906 z m 182.3286465,-3.99844 1.59938,-2.39906 -1.59938,-2.39907 -2.39905,1.59938 0.79968,2.39907 z M 7.3266848,383.9793 l 2.3990614,-3.19875 -2.3990614,-1.59937 -1.5993742,0.79968 -1.5993742,-0.79968 0.7996871,3.99843 z m 176.7308352,-5.59782 0.7997,-1.59937 -1.59938,0.79969 z m -9.59625,-3.19875 h 1.59938 l -1.59938,-0.79968 h -1.59937 z m 8.79657,0 0.79968,-3.19875 -0.79968,-2.39905 h -3.19875 z m 49.5806,-15.99373 h 1.59936 l -0.79968,-3.19875 -1.59937,1.59938 -1.59938,-0.7997 0.7997,2.39907 z m 59.97653,-2.39907 4.79813,-1.59937 1.59937,-3.99843 h 3.19874 l 0.79969,-1.59938 h 1.59938 l -0.7997,-1.59937 0.7997,0.79968 v -0.79968 L 303.2109,346.394 h -2.39905 l -3.19875,-2.39905 h -3.19875 l -4.79813,8.79655 2.39906,0.79968 z m -47.98122,0 3.19875,-3.99843 -2.39907,0.79968 v -1.59937 l -1.59938,0.79969 z m -0.7997,-3.99843 0.7997,-2.39907 H 241.635 Z m -7.99687,-1.59937 1.59937,-1.59938 -1.59937,-0.79969 z m 2.39907,-4.79813 1.59937,-2.39905 -1.59937,0.79968 -0.7997,-1.59938 -0.79968,1.59938 z m 53.57903,-11.19562 0.79969,-1.59937 h -2.39907 z m 90.36465,-95.16276 0.79968,-1.59937 -0.79968,0.79968 z"
     id="path18"
     style="stroke:#000000;stroke-width:0.2;stroke-linejoin:round;stroke-miterlimit:4;stroke-dasharray:none" />
  <g
     transform="matrix(0.79968709,0,0,0.79968709,0.92918869,0.92917607)"
     fill="none"
     stroke-linecap="round"
     id="g26"
     style="stroke:#000000;stroke-width:0.250098;stroke-linejoin:round;stroke-miterlimit:4;stroke-dasharray:none">
    <path
       stroke-width="0.9"
       d="m 273,465 h 2 M -1,65 l 4,1 4,-2 4,-5 8,2 3,-3 h 8 l 3,-2 -1,-7 -3,-5 3,-5 -6,-8 3,-3 -2,-10 5,-9 h 4 l 1,-4 h 2 l -4,-6 m 50,436 4,-9 -1,-4 -3,1 v -3 h 2 l -2,-4 3,-6 -2,-5 -1,-7 -8,-6 -1,-8 h -4 l -6,-4 -2,-8 -3,-3 v -4 l 3,-3 -2,-2 v -4 l 4,-4 2,-9 -8,-4 2,-3 -5,-4 -1,-9 -1,-5 -3,-2 -1,-3 4,-5 -1,-4 -2,-2 2,-2 -1,-3 1,-4 4,-3 -3,-4 3,-4 1,-5 -2,-3 h -2 v -2 l -4,-1 -2,-5 h -3 l 1,1 -5,-3 -1,-2 1,-4 -3,-3 1,-1 -3,-2 v -2 l -6,-6 -4,-6 -1,-7 3,-5 v -7 l 3,-4 -5,-9 3,-4 -1,-4 4,-1 1,-3 2,-1 1,-11 -2,-3 -5,-2 -5,-10 -9,-6 v -4 L 9,147 H 2 v 4 l -1,1 -2,-1 m 309,276 3,1 3,-6 M 432,319 v -5 l -4,-3 3,-12 6,-3 -7,-4 v -12 h -3 l -1,-4 -4,-2 -1,-2 -3,-1 v -4 l -9,1 -1,-4 1,-2 -5,-6 3,-9 3,-2 -2,-4 h 3 v -3 l 3,-3 4,-1 3,-5 -5,-4 1,-2 -4,-2 -1,-4 -2,-2 h -2 l -2,2 -2,-2 1,-4 8,-8 -1,-2 1,-5 -2,-1 v -2 l 6,-6 -8,-5 -1,-3 h 2 l -2,-2 2,-1 v -1 l 3,-1 2,-7 h 4 l 2,-3 3,1 1,-2 4,1 -1,-9 3,-3 -1,-7 5,-2 2,-2 1,1 4,-1 2,-4 -1,-7 3,-3 -2,-2 5,-11 6,-3 h 4 l 6,2 2,-5 -3,-3 2,-6 v -4 l -11,-4 -1,-12 2,-2 4,-2 2,-6 -3,-6 -5,2 -3,1 v 4 l -2,3 -13,6 v 3 l -6,6 h -8 l -7,2 -4,-2 -2,-3 -3,-2 -2,2 -2,3 -8,2 -1,2 -4,2 h -9 l -1,6 -5,4 -4,-2 -1,-7 -5,-4 5,-16 -3,-3 -5,2 -3,-4 3,-2 -1,-4 3,-3 -5,-6 2,-2 -1,-2 -2,-2 -3,1 -5,-1 -7,-11 -4,-1 -1,2 -4,1 -1,2 -4,-3 -4,3 -3,-3 -5,-1 -1,-1 -6,1 -5,-4 2,-5 4,-5 -2,-3 2,-2 v -2 l -7,-2 -7,5 -4,-2 -5,3 -5,4 -4,-1 -2,5 1,4 -2,5 -7,-1 -4,2 -5,5 -9,1 -1,2 3,1 -2,4 1,2 -5,3 -3,6 v 2 h -7 l -3,-1 v -3 l -5,-6 1,-3 -3,-4 -1,-4 h -4 v -2 l -2,1 -8,-7 -2,1 -5,-6 -1,2 -2,-1 -1,1 h -2 l -13,-5 -2,3 -5,1 -2,-2 -4,-1 -6,-6 -6,-1 -4,1 -3,-2 -7,-2 -4,4 2,3 -6,8 v 8 l -3,5 1,3 -1,2 1,2 -2,3 v 5 l -2,1 v 3 l -3,3 -4,-1 -4,3 -7,-2 -1,3 -2,1 -1,3 4,3 2,6 1,6 2,4 -1,2 h -3 l -1,-4 -2,1 -1,-2 h -3 l -2,3 h -3 l -2,2 h -4 l -2,4 -3,-2 -2,3 -3,1 -8,-3 h -2 l -3,-4 -3,-1 -5,5 1,2 -2,2 2,2 3,10 2,2 1,9 -4,3 H 57 l -7,6 -6,-3 -5,7 -5,-3 -1,1 -5,-3 -2,1 -2,3 1,11 -3,3 h -3 l -3,4 m 446,-88 8,1 5,4 5,-4 h 4"
       id="path20"
       style="stroke-width:0.250098;stroke-miterlimit:4;stroke-dasharray:none" />
    <path
       stroke-width="0.5"
       d="m 257,447 1,-3 -2,-3 v -2 l -5,-2 -1,-3 -2,1 2,-3 v -3 h -1 l 3,1 1,-1 -1,-1 1,-2 -1,-9 -6,-1 -1,-6 -2,2 -3,-3 -3,1 -3,-7 h -2 l 7,-4 -4,-5 3,-1 4,-6 1,-5 -3,-4 -5,4 v -3 l -4,-1 -3,1 -2,-6 5,-1 v -3 l 6,-5 4,-3 -3,-8 h 2 l -1,-5 -4,-4 -9,4 -1,10 -2,1 -1,-2 -6,-1 -3,2 -2,-2 -5,5 2,2 -4,4 -3,-1 -3,1 -2,-4 1,-8 h -2 l -3,-6 -2,2 -4,-1 -3,-3 -4,3 -3,-1 -4,5 -1,-1 -12,4 2,17 5,5 -6,7 -5,1 6,5 v 5 l 4,1 -2,5 3,1 -5,5 -3,7 h -3 v 3 l -2,3 -6,2 v 4 m -12,14 -1,-9 -4,-2 v -2 l -5,1 -7,-3 3,-5 3,-2 v -3 h 1 l 1,-5 -3,-3 2,-5 -2,-3 4,1 3,-3 4,-14 -2,-1 -8,-8 -6,2 -2,3 -5,1 -1,4 -2,2 v 7 l -11,8 h -4 l -2,3 -3,-2 -2,1 m 44,24 3,-2 -2,-4 2,-3 4,-3 -1,-3 5,-3 -3,1 1,-3 -4,2 -4,-4 -1,4 h -3 l -1,1 m 126,5 3,-3 h 5 v -5 l -1,-1 3,-3 4,3 7,-4 4,-8 6,-5 4,1 4,5 2,1 4,-3 2,-7 10,2 2,-2 3,2 2,-2 2,2 m -163,-3 -5,3 -2,-2 -4,1 -4,-3 v -4 l -4,1 -2,2 m 215,-2 v -6 l -2,-6 4,-5 -3,-3 v -2 l -2,1 -2,-3 -4,3 h -4 l -3,-3 1,-3 4,-2 h -8 l -2,-1 v -4 l -2,1 -1,-1 3,-5 7,-5 3,-8 -1,-5 8,-9 1,-8 h 2 v -2 l 4,-1 1,-2 -5,-4 -1,2 -3,-2 h -4 l 1,-4 -2,-6 h -7 l -4,3 -1,4 -2,-1 -1,1 1,3 -3,6 -13,9 -1,2 h -3 l -3,3 v -3 l -6,-8 2,-1 h -4 l -1,-2 1,-2 4,-2 1,-5 -2,1 -2,-2 1,-5 -7,-3 v -1 l 5,-7 5,-2 -1,-7 3,-3 -2,-4 3,-7 -5,-2 -1,6 -7,-4 3,-2 -5,-9 -4,2 -5,-2 -2,1 4,-6 -7,-5 1,-3 -6,-3 -2,3 -3,-4 v -2 l 4,-2 -2,-2 3,-3 -1,-5 2,-3 1,-1 -2,-1 -4,3 -4,-1 -2,-2 -3,4 -3,1 1,3 -3,-6 h -4 l -1,5 1,3 -2,3 1,3 6,4 h 4 l 1,2 -5,1 -2,3 h -1 l -2,4 h -1 v 3 l -3,5 2,8 -1,4 -6,1 -5,4 1,13 -5,-1 -4,-5 -1,3 -4,1 -4,6 v 6 h -2 l -1,-2 -4,4 -3,-3 v 3 l -3,7 2,9 h 6 l 2,3 5,1 5,5 2,4 1,8 -7,3 2,2 2,-2 5,6 -4,7 3,5 m 14,30 -1,-6 1,-4 -3,-4 m -119,14 -1,-3 2,-1 v -4 l -5,-7 3,-1 3,1 1,-1 v -4 l -1,-1 -3,1 v -3 l -1,1 -1,-3 4,3 5,-2 4,3 3,-2 1,-1 -1,-5 3,-5 1,-5 6,-1 3,-2 -1,-6 7,-3 -5,-4 -5,1 -1,-4 -3,-1 -4,2 -4,-7 2,-4 -9,-1 -6,4 v 4 l 4,4 -3,3 -8,3 -1,5 -4,-1 -5,4 h -5 l -1,2 -3,-4 -1,4 -11,-7 -2,-5 -3,-3 -1,-5 -2,-2 v -3 h -5 l -3,-4 -5,1 -1,-1 m 104,49 -1,-1 h -4 l 1,-6 -4,-7 2,-2 -1,-3 3,-2 2,-7 h -3 v -2 h -4 m 245,-5 v 5 l -10,2 -8,6 -8,2 -1,-1 v -2 l 1,-1 -2,-4 3,-7 -5,-3 v -2 h -4 l -4,4 h -3 l -1,4 1,1 -1,2 -6,-5 1,-7 -3,1 m -206,3 1,-2 3,-1 12,-12 1,-4 2,-1 3,1 4,-3 2,-7 4,-1 -1,-9 -5,-6 v -3 h 2 -2 v -4 l -3,-1 v -3 l 10,-14 -1,-4 4,-2 h 4 v -3 h 1 l 3,-3 5,-1 2,-6 3,-2 -2,-5 3,-7 -2,-9 1,-1 -5,-3 -1,3 -3,3 h -3 l -3,-2 -2,1 -1,4 -6,2 -3,-2 -2,2 2,11 -6,3 -1,3 -5,1 1,-4 -1,-10 -5,-5 -1,-6 h -1 l -7,3 3,5 -2,3 h -7 v 4 l -3,3 4,8 -3,1 v 5 l -5,2 h -3 l -3,2 h -5 v 4 l -3,2 -9,-7 -4,4 -4,-7 -3,4 -5,2 -4,-5 -3,2 -4,-3 -3,4 -2,-1 -3,3 -2,-1 -3,3 -15,-4 -4,4 h -3 l 1,2 -3,4 m 313,50 v -2 l 9,-5 3,-2 -1,-6 -7,-4 -6,-1 -4,-4 h -3 l -4,-5 -2,-5 -8,-2 -2,2 -2,-4 h -2 l -2,2 -2,-2 -1,-6 3,-2 -1,-4 7,1 2,-3 3,1 3,-4 v -5 l 3,2 6,-3 v -1 l -4,-2 2,-6 -4,2 -1,-2 5,-7 v -5 l -4,-3 1,-4 -1,-2 h -6 l -2,3 -3,-2 -4,2 -10,-7 -3,6 -2,10 -4,3 -1,4 2,4 -6,4 h -4 l -3,4 -6,2 m 75,51 4,4 h 5 l 3,-1 2,-2 5,1 3,-2 -2,-4 -2,-2 3,-5 -2,-2 -1,-3 2,-8 3,-2 5,-9 -3,-2 1,-2 -3,-4 h -4 l -2,-2 h -4 l 2,-8 2,1 2,-2 1,-6 h -3 l -1,-3 h -6 l -2,8 h -2 l -3,-3 h -10 l -2,-1 2,-11 -2,-2 -5,3 -3,-6 h -2 m -141,75 -8,-4 -3,6 -8,3 -2,7 -10,-19 m 211,-53 1,-2 -2,-3 1,-6 11,4 1,-1 -1,-3 1,-4 3,-2 v -5 l 4,-2 v -3 l 4,1 m -60,11 2,-1 2,-3 h 3 v -1 l -4,-3 -3,-6 -4,-2 v -3 h -2 l 4,-2 3,-3 v -2 l -2,1 v -3 h 2 l -3,-2 5,-3 h -2 l -2,-2 -3,5 -2,-1 1,-8 -1,-3 -2,-4 -3,-3 -5,2 -3,-2 h -4 l -2,3 -4,1 4,7 h -3 l -6,-2 -2,-6 -3,2 -3,-4 -3,-2 -5,4 -1,4 h -5 v 2 l -4,-1 -1,-5 3,-12 -1,-3 -2,-1 v 4 l -8,2 4,3 -2,5 -2,2 1,2 -2,2 h -3 v 3 l -9,10 -4,-5 -2,2 -3,-8 3,-3 -2,-14 -13,2 -3,-5 -3,2 -2,1 -3,-1 2,4 -3,4 -3,1 -2,2 -6,1 v 1 l 2,4 -1,3 v 7 l 7,5 v 4 l -1,2 3,7 -4,-1 v -3 l -5,2 -3,-3 h -3 l -4,4 2,7 4,2 1,-1 1,3 h 4 l 3,-2 v -3 h 3 l 6,-6 4,1 1,3 h 4 l 2,5 m 66,-2 h -4 l -2,-2 -1,-6 2,-2 v -3 h -10 l -6,3 -6,-3 -4,-5 -1,1 v 3 l -4,2 -1,6 -5,3 m -59,-4 h -2 l -3,4 -6,-3 -4,1 -2,-3 m -46,1 -2,-3 3,2 2,-3 5,-1 -1,-5 -7,-6 v -2 h 3 l -1,-3 -3,-3 -4,5 -2,-3 6,-7 1,-4 -5,-1 v -3 l -2,-2 v -4 l 3,-2 -2,-4 1,-13 -5,-7 v -7 l 3,-2 3,-11 -9,-6 -12,-1 -1,-3 3,-5 -3,-1 v -3 h -2 l -1,-3 m 221,83 5,-3 4,1 4,-2 h 7 l -1,-14 5,1 4,-2 2,2 h 5 l 1,-3 -1,-5 3,-1 -6,-6 3,-7 -10,-2 -2,-4 h -3 l -1,3 -2,-3 -7,9 -4,1 -1,6 2,2 -2,8 -4,-2 -5,2 3,2 -2,6 1,7 m -101,-12 -2,-2 1,-6 -1,-3 5,-7 -1,-4 2,-4 3,-2 v -7 l -5,-3 1,-2 h -5 l -2,-2 h -4 l -5,-2 -5,-8 -6,-3 2,-3 v -3 l 3,-3 v -4 l 1,-2 -3,-8 3,-3 -1,-5 8,4 4,-3 3,1 -3,-5 5,-6 -1,-5 m 141,77 2,1 3,-1 v -3 l 3,-3 v 2 l 4,-2 v 4 l 4,-2 v -2 l 6,-5 -4,-3 3,-4 -3,-4 2,-9 -3,-4 1,-6 -3,-6 m -146,42 5,-1 4,1 3,6 -1,2 3,2 6,1 9,8 h 8 l 2,-4 v -6 l 2,-2 1,-3 1,-1 1,-3 3,-3 v -4 l 2,-4 v -6 l 2,-3 1,-7 4,-2 v -4 l 4,-3 1,-10 -1,-10 2,-3 4,-3 -3,-4 v -3 l -2,-5 8,-6 1,-4 -2,-4 v -3 l 5,-7 m 40,97 5,-18 -1,-10 10,-5 m -236,11 h 4 l 3,-4 -1,-3 v -4 l 2,-1 v -4 l 2,-2 5,1 1,-4 -1,-6 -4,-5 2,-4 -3,-5 1,-3 -11,-7 m 321,29 -2,4 -7,6 -2,4 -4,2 -4,8 -16,-6 -3,-7 1,-2 -3,-3 v -7"
       id="path22"
       style="stroke-width:0.250098;stroke-miterlimit:4;stroke-dasharray:none" />
  </g>
  <path
     fill="#eeeeee"
     d="m 216.045,305.60996 h -0.79968 l 1.59938,1.59937 3.19875,1.59938 2.39905,7.99687 2.39907,3.99844 h 0.79968 l 2.39907,-7.99687 3.19875,-3.99844 -3.19875,-3.19875 -3.19875,1.59937 h -4.79812 z m -55.97808,-244.704239 -2.39907,1.599374 -3.19875,-3.998435 -1.59938,2.399061 -3.99843,-1.599375 0.79968,-1.599373 -3.19875,0.799687 3.99845,2.399061 v 2.399062 l 2.39905,-0.799688 1.59938,1.599374 h -4.79813 v 1.599374 l -1.59937,0.799688 v -0.799688 l 1.59937,1.599375 1.59938,-2.399062 0.79969,0.799687 v 0.799688 l 3.19875,-0.799688 1.59938,1.599375 v 0.799686 l 0.79968,-0.799686 0.79969,1.599373 1.59938,-0.799687 v 0.799687 l 0.79968,-0.799687 -0.79968,-1.599373 -0.7997,0.799687 -0.79968,-1.599375 h -2.39907 l -2.39905,-3.198748 0.79968,-2.399062 3.19875,3.19875 3.19875,-2.399062 0.79969,0.799687 -0.79969,-0.799687 1.59937,-2.399061 -0.79968,-0.799687 3.19875,-3.19875 h -1.59938 l -0.79969,-0.799686 v 1.599374 l -1.59937,1.599374 0.79969,1.599375 z"
     id="path28"
     style="stroke:#000000;stroke-width:0.159937;stroke-linejoin:round;stroke-miterlimit:4;stroke-dasharray:none" />
  <g
     transform="matrix(0.79968709,0,0,0.79968709,0.92918808,0.92918808)"
     id="g38">
    <rect
       id="rect32"
       height="36"
       width="224"
       y="499"
       x="255"
       opacity="0.75"
       fill="#ffffff" />
    <rect
       id="rect34"
       height="8"
       width="216"
       y="503"
       x="259"
       fill="#000000" />
    <text
       id="text36"
       y="531"
       x="367"
       font-family="sans-serif"
       font-size="24px"
       text-anchor="middle"
       fill="#000000">50km</text>
  </g>
</svg>
