<?xml version="1.0" encoding="UTF-8"?>
<!DOCTYPE svg PUBLIC "-//W3C//DTD SVG 1.1//EN" "http://www.w3.org/Graphics/SVG/1.1/DTD/svg11.dtd">
<svg width="501" height="523" version="1.1" xmlns="http://www.w3.org/2000/svg">
	<title>群馬県行政区画地図 (2010年3月28日)</title>
	<desc>Author: Lincun</desc>
	<rect fill="#eeeeee" x="0" y="0" width="501" height="523"/>
	<g stroke="black" stroke-width="0.2" stroke-linejoin="round">
		<path fill="#aaaaaa" d="M325-1v2l3 4v5l3 8v1l1 3-2 2-4 11 3 5 1 9v1l-2 1 2 3-2 2 1 7-3 2v4l-4 1-1 1h2v1l3 3 5-2 4-4 5 5 2-2 4 1 3 3h2l8 1 3-2 3 5v2l9-2 4 3h3l5-7h9l1-7 5-3 3-3 1-7 3-1 6-2 4 4 4-1 7-6 4 1 4-6h3l8-4 2-6 5 1 3-1h1l5-1 2-7h5l6-5 3 1 3-8h3l4-2 3 1 3-3 4-2 2 1v-11zM502 402l-4 1v4l-5-2-2 2v1v1l3 3-2 7 3 11 2 3 3 4 2 5zM502 10l-2-1-4 2-3 3-3-1-4 2h-3l-3 8-3-1-6 5h-5l-2 7-5 1h-1l-3 1-5-1-2 6-8 4h-3l-4 6-4-1-7 6-4 1-4-4-6 2-3 1-1 7-3 3-5 3-1 7h-9l-5 7 1 3-7 4-2 3v4l-4 3-1-2v9l-3 3 6 2v3l7 2 7 2 1 2-5 6 1 2-2 2-4 1-1 8-4 2-2 3-2 1-1 4 2 2v4l6 2-3 9-3 9-7 7 1 6-5 13 2 4-1 4v3h4h2l3 5 12 2 4 4 4-1-1-2 6 2 5 1 3-2h3l1 1 4-1 2 2 1 5 4 4v2l-4 2v3l-1 1-3 4-4 3-3-1-1 1-2 7 3 1-2 4-3 5-3 2 1 1-2 5 2 1-1 1h3l-1 3 2 6 2-2-1 5-2 2 1 1-4 1-2-3-3 2 2 3-2 3-2 4-3 1-1 5-4 4-1 7-4 4-2 3 2 2 2 6 20 17v2l-2 1v-2l-2 1 1 2-1 2 5 5v1l3 5 1-2 2 4 5-1 2 2 2 3-4 1 4 3 2-3 3 2 2-2 2 1 3-1 1-2 3 1 5-3 2 2 2 1v-1l3 2 2-2 2 1-1 2 3 3 11-1 7 1 3-3 6 1 1 3h2l-4 5 4 6v2l1-2 2 1 2 3 3 1-1 4 2-1v2l1 3-2 2 4-1 1 4 3-1 1 2v-1l2-2 5 2v-4l4-1zM502 442l-2-5-3-4-2-3-3-11 2-7-3-3v-1l-1-2-3 1-1-4-4 1-1-3-4 1 1 7-9 1-1 4-6-5-3-4-5-2-21 9-13-1-1 1-11 1-7-3-5-6-4-1-1-3-10-5-2-4-3-3-9-5-4 5-5 2v1v3l-2 1-5-3-1-5-3 2-7-3h-2l-2-1v4l-5-2-4 1-7-6-5 1v-2l-5-1-10-5v-1l-2-2h-11l-2-2-8 10 1 2-5 9-6 11-6 8v5l-3 1 1 9 2 2-1 2v1h-5l-2 2-1 10h-3l-3-3-1 1-2-1h-4l1 2-2 2h-3l-3 4-3-1-3-3h-4l-1 6v3l-5 5-4 3-6-3-7 1-11 6-3 4-5 1-1 5-4 6-1 1v2l-12 2-2 1-7-4-6 2-5 11-6 7-4 1-1 3-1 7 3 3 1 2 2 2 1 4h365zM-1 76l3-4 3-5v-4l2-5 5-6-2-1 4-3 2-5h4l4-3 7-2 7-5h13l3-3 6-2 2 1 2-1 4 4 6-1 5 1 1 5 2 7 4 4v18l-1 9 3 1-1 5 3 4h7l2 1-2 5 3 5 4-1v2l8 5 9 2 3 3 1 2-1 4v6l-4 5 6 6-3 6-1 3-5 2-1 2 1 4 6 2 1 5 2 8 3 1 3-1 5-12 5 2 10 6h5l3 1 2-6 5-3 4 1 3-4 2-10-4-11 8 1 5 2 7-4 1-2 1-1 18-3-2-6-3-2 2-6-2-4 3-6 3-4h9l5 3 3-2v-6l-2-4 1-3-4-6-1-10 1-11 1-1 12 1 5-4 6 2 6-2 2-5 7-4 3-1 4-5-1-11 3-6 3 1h2l1 4h3l4 10 4 2 2 5 5 3h3l3 6-1 2-1 6 2 4 2 2 3-1 5 3 8-3 3 6v1l-2 3 4-1v-4l3-2-1-7 2-2-2-3 2-1v-1l-1-9-3-5 4-11 2-2-1-3v-1l-3-8v-5l-3-4v-2h-326zM33 524l-11-6-8-3-6-3h-4l-4 7v3h-1v2zM-1 522h1v-3l4-7h4l6 3 8 3 11 6h104l-1-4-2-2-1-2-3-3 1-7-9-3-3-9h-7v-2l-6-2v-1l-3-2h-2l5-10-1-9-3-5-1-5 5-4 1-3-3-5 2-1-3-2-1-5-4 1-8-1-4-10-1-2-3-1v-2h-1l2-5h2v3l2 3 6 2v-2l2-2 8-1-4-10-1-2 4-3h1l-1-5h-4l-3-6-1-6-4-3 2-9-2-5 3-1 1-2 12-4 3-4-2-5 2-5-1-12 3-8-3-5 1-7-1-6-2-2-2-2h-6l-3-3-8-1-1 2-7 1h-6l-5 7-8-2-3-2-1-1h-6l-1 6-11-2 1-2-1-1-1-4h-3l-17-7 1-8h-2l2-6-2-11 3-8-1-7 4-4-1-5 5-4 1-6-1-3-2-3 3-4v-4l2-2h3v-5l5-2 2-5v-4l7-4 4 1 7-3 1 1v-1l5-2 3-6-1-1-4-4v-6h-2l5-3h4l1-2 7-3h5l4 3 4-6 5 3 3-2 2-4 7-2 7-2 6-1 7-3-2-8-1-5-6-2-1-4 1-2 5-2 1-3 3-6-6-6 4-5v-6l1-4-1-2-3-3-9-2-8-5v-2l-4 1-3-5 2-5-2-1h-7l-3-4 1-5-3-1 1-9v-18l-4-4-2-7-1-5-5-1-6 1-4-4-2 1-2-1-6 2-3 3h-13l-7 5-7 2-4 3h-4l-2 5-4 3 2 1-5 6-2 5v4l-3 5-3 4z"/>
		<path fill="#16a34a" d="M261 427l-2-2-1-9 3-1v-5l6-8 6-11 5-9-1-2 8-10-7 1-5-3 1-5-4-6 2-5 5 3v-5h5h2l-3-3h6l1 7 2 5h-1l5 2 4 8 2 6 10 5 5 1v2l5-1 7 6 4-1 5 2v-4l2 1h2l7 3 3-2 1 5 5 3 2-1v-3v-1l5-2 4-5 9 5 3 3-1-7 3-5v-2l5 2-2-3 3-3 3 3 8 1-2-7 2-2h3l-2-4-1 2-3-5v-1l-5-5 1-2-1-2 2-1v2l2-1v-2l-20-17-2-6-2-2 2-3 4-4 1-7 4-4 1-5 3-1 2-4 2-3-2-3 3-2 2 3 4-1-1-1 2-2 1-5-2 2-2-6 1-3h-3l1-1-2-1 2-5-1-1 3-2 3-5 2-4-3-1 2-7 1-1 3 1 4-3 3-4 1-1v-3l4-2v-2l-4-4-1-5-2-2-4 1-1-1h-3l-3 2-5-1-6-2 1 2-4 1-4-4-12-2-3-5h-2h-4v-3l1-4-2-4 5-13-1-6 7-7 3-9 3-9-6-2v-4l-2-2 1-4-3-2-5 2v2l-11 3-11 10-7-2-3 1h-5l-8 11v4l-3-3h-1l-8 5-1 4h-5l-5 6-3-2-7 1-3-1-1 6-1 2-4 1-1-3-6 6 4-12-2-1v-5l1-1v-17l3-8 9-10 2-6-4-2-11 3-3-1-1 2-2-2h-2l-1 2-1-1-3 4h-3v4h-1l-4 1 2 7-1 4 2 3-3 3 2 3h-2l-2 3 3 4-1 3 2 6-1 2 1 2-2 2v4l-2 1-1 3-6 5-3-1-2 4 2 5-2 4 1 12 3 3-11 5-8-2-3 2-2-3-4 1-1 1-6-2-2 2 3 7-3 3 2 3h3l1 2h5l4 2 3-2 3 2-3 1-2 6-6 8-2-1-9 6-4 7-2 2-4 1-2 3-4-1-8 1-13-1-5 1 1 2-3 2 1-6-15 1-5-3-4 2-5 2h-4l-2 4-4 1-3 4-3 1-4 6 1 6-1 6 2 2 1 6-1 7 3 5-3 8 1 12-2 5 2 5 2 2-1 1 1 4 3 2 3-2 3 4 5-4 2 4 4-3 3 1 7-3 5 3v7l7 10 4 9h6l6-3 2-2 7-1v2l1 1-4 6v19l5-2 5-9 7-1 1-4-1-2 1-3 7-1 1-3 2-6 1 2 3-1 1-7h4l1-3 4-1 3 3-1 2 2-1 1 3-2 3 4 12-4 1-4 9-11 3-4 5-6 6-6-1-7 3-2 2-7 1-6 7 4-1 7 1 7-2 2-3 4 6 4-1 7-2 4-3 16 3 2 6-2 2v2h4l3 3 3 1 3-4h3l2-2-1-2h4l2 1 1-1 3 3h3l1-10 2-2h5v-1zM442 400h3l4-2 3 1-2-11 6-3v-2l1 1 2-2 1 3 2-1 5 1 1-1-13-8-11 1-3-3 1-2-2-1-2 2-3-2v1l-2-1-2-2-5 3-3-1-1 2-2 7h-3l3 2-2 1-4 6 8-1 1 3-2-2-2 1 1 5-5 1-2 3-1-2h-4v1l-1 3 7 2h8l2-3h10l2-2zM201 290l-1-2 4-4 4 3 3-2 7-1 5-1 12 6 5-1v1h3l2 5h3l-1-5 5 3v1l-2 9v4l-2-3v6h-2l-1-2-4-6h-2v2l-1 2v3l-7-3 2 1-1 3h-1v2l-2-1v1h-2l-2-3-2 3-2-3 1-3h-3l-9-10zM297 239l-2-3-9-1-4 2-5-3-5 1-6-3-1 3h-2l-2-3h-2l-3-3-3-11 1-3 6-3 1-6 3-3 8-4 8-1 4 3-1 4 3 6 4 4 1 9 5 6z"/>
		<path fill="#16a34a" d="M174 481l1-1 4-6 1-5 5-1 3-4 11-6 7-1 6 3 4-3 5-5v-3l1-6v-2l2-2-2-6-16-3-4 3-7 2-4 1-4-6-2 3-7 2-7-1-4 1 6-7 7-1 2-2 7-3 6 1 6-6 4-5 11-3 4-9 4-1-4-12 2-3-1-3-2 1 1-2-3-3-4 1-1 3h-4l-1 7-3 1-1-2-2 6-1 3-7 1-1 3 1 2-1 4-7 1-5 9-5 2v-19l4-6-1-1v-2l-7 1-2 2-6 3h-6l-4-9-7-10v-7l-5-3-7 3-3-1-4 3-2-4-5 4-3-4-3 2-3-2-1-4 1-1-2-2-3 4-12 4-1 2-3 1 2 5-2 9 4 3 1 6 3 6h4l1 5 2 3 7-2 1 2 4-1 3 2 3-3-1-3 7-3 4 2 7 5v4l5-1 1 2h3l-1 5 3 4-2 3 1 1v7l3 4v2v4h3v10l5 1 2 1 2 7 5 2-2 6zM483 399v-2l-2 1 1-4-3-1-2-3-2-1-1 2v-2l-4-6 4-5h-2l-1-3-6-1-3 3-7-1 13 8-1 1-5-1-2 1-1-3-2 2-1-1v2l-6 3 2 11-3-1-4 2h-3l-6-2-2 2h-10l-2 3h-8l-7-2 1-3v-1h4l1 2 2-3 5-1-1-5 2-1 2 2-1-3-8 1 4-6 2-1-3-2h3l2-7-3 1-2-1-2 2-3-2-2 3-4-3 4-1-2-3-2-2-5 1h-3l-2 2 2 7-8-1-3-3-3 3 2 3-5-2v2l-3 5 1 7 2 4 10 5 1 3 4 1 5 6 7 3 11-1 1-1 13 1 21-9 5 2 3 4 6 5 1-4 9-1-1-7 4-1 1 3 2-2zM300 375l-2-6-4-8-5-2h1l-2-5-1-7h-6l3 3h-2h-5v5l-5-3-2 5 4 6-1 5 5 3 7-1 2 2h11l2 2zM106 311l1-6-1-6 4-6 3-1 3-4 4-1 2-4h4l5-2 4-2 5 3 15-1-1 6 3-2-1-2 5-1 13 1 8-1 4 1 2-3 4-1 2-2 4-7 9-6 2 1 6-8 2-6 3-1-3-2-3 2-4-2h-5l-1-2h-3l-2-3 3-3-3-7 2-2 6 2 1-1-5-9-5-3-2-13 2-8 7-1 4 2 3-3 8 3h6v4l6 1 2-4 3 1 6-5 1-3 2-1v-4l2-2-1-2 1-2-2-6 1-3-3-4 2-3h2l-2-3 3-3-2-3 1-4-2-7 4-1h1v-4h3l3-4 1 1 1-2h2l2 2 1-2 3 1 11-3 4 2 4-5h2l7-4v-5l7-6 5 1 3-3-1-7-3-1-8-3-3 1-1-1-1-3 2-4 5-3v-7l2-6-1-6-3-3v-8l5-5-2-4 1-6 1-2-3-6h-3l-5-3-2-5-4-2-4-10h-3l-1-4h-2l-3-1-3 6 1 11-4 5-3 1-7 4-2 5-6 2-6-2-5 4-12-1-1 1-1 11 1 10 4 6-1 3 2 4v6l-3 2-5-3h-9l-3 4-3 6 2 4-2 6 3 2 2 6-18 3-1 1-1 2-7 4-5-2-8-1 4 11-2 10-3 4-4-1-5 3-2 6-3-1h-5l-10-6-5-2-5 12-3 1-3-1-7 3-6 1-7 2-7 2-2 4-3 2-5-3-4 6-4-3h-5l-7 3-1 2h-4l-5 3h2v6l4 4 1 1-3 6-5 2v1l6 13 4 4 1 5 6 2 1 3 2 4 7 5 4 8-2 3 2 7-4 3-4-6-1-2-3 4v10l4 9-2 5v9v1h4l-4 17 7-1 1-2 8 1 3 3h6zM238 305l1-2v-2h2l4 6 1 2h2v-6l2 3v-4l2-9v-1l-5-3 1 5h-3l-2-5h-3v-1l-5 1-12-6-5 1-7 1 3 3 8 3 4 1-1-2h4l6 4-1 7 3 1z"/>
		<path fill="#16a34a" d="M147 484l6-2 7 4 2-1 12-2v-2l-6-11 2-6-5-2-2-7-2-1-5-1v-10h-3v-4v-2l-3-4v-7l-1-1 2-3-3-4 1-5h-3l-1-2-5 1v-4l-7-5-4-2-7 3 1 3-3 3-3-2-4 1-1-2-7 2-2-3h-1l-4 3 1 2 4 10-8 1-2 2v2l-6-2-2-3v-3h-2l-2 5h1v2l3 1 1 2 4 10 8 1 4-1 1 5 3 2-2 1 3 5-1 3-5 4 1 5 3 5 1 9-5 10h2l3 2v1l6 2v2h7l3 9 9 3 1-3 4-1 6-7zM79 308l4-17h-4v-1v-9l2-5-4-9v-10l3-4 1 2 4 6 4-3-2-7 2-3-4-8-7-5-2-4-1-3-6-2-1-5-4-4-6-13-1-1-7 3-4-1-7 4v4l-2 5-5 2v5h-3l-2 2v4l-3 4 2 3 1 3-1 6-5 4 1 5-4 4 1 7-3 8 2 11-2 6h2l-1 8 17 7h3l1 4 1 1-1 2 11 2 1-6h6l1 1 3 2 8 2 5-7zM297 239l-1-9-5-6-1-9-4-4-3-6 1-4-4-3-8 1-8 4-3 3-1 6-6 3-1 3 3 11 3 3h2l2 3h2l1-3 6 3 5-1 5 3 4-2 9 1zM236 229l-3-3-1-12 2-4-2-5-6-1v-4h-6l-8-3-3 3-4-2-7 1-2 8 2 13 5 3 5 9 4-1 2 3 3-2 8 2zM281 186l7-1 3 2 5-6h5l1-4 8-5h1l3 3v-4l8-11h5l3-1 7 2 11-10 11-3v-2l5-2 3 2 2-1 2-3 4-2 1-8 4-1 2-2-1-2 5-6-1-2-7-2-7-2v-3l-6-2 3-3v-9l1 2 4-3v-4l2-3 7-4-1-3h-3l-4-3-9 2v-2l-3-5-3 2-8-1h-2l-3-3-4-1-2 2-5-5-4 4-5 2-3-3v-1h-2l1-1 2-3v-1l-3-6-8 3-5-3-3 1-2-2-5 5v8l3 3 1 6-2 6v7l-5 3-2 4 1 3 1 1 3-1 8 3 3 1 1 7-3 3-5-1-7 6v5l-7 4h-2l-4 5-2 6-9 10-3 8v17l-1 1v5l2 1-4 12 6-6 1 3 4-1 1-2 1-6zM204 284l-4 4 1 2 9 5 9 10h3l-1 3 2 3 2-3 2 3h2v-1l2 1v-2h1l1-3-2-1 7 3v-3l-1-3-3-1 1-7-6-4h-4l1 2-4-1-8-3-3-3-3 2z"/>
		<path fill="none" stroke-linecap="round" d="M358 210h-1l-7 8-3 9v6l8 10-2 8-7 4-2 7-3 1-1 1 6 4v1l3 1-2 5-6-1-7 7-4-1-1-2-4 1-2-2 2 6-1 1 1 2 6 3 4 4v5l-2 1 3 4 2 8-3-1-4 3-2 6 7 1-1 7 3 4h2v-2h8l5-2v-9l-10-6-1-2 1 1v-1l1 1v-2v1v-2l2 1-4-5 3-2 1-6 2-1v-3l2-3 4-1 2-2-1-2 4-3 1-6 9-4v-6h3l3-1 1-3 3 1v-3l6 1 2-1 3-6 7-8h3l3 3M347 227l-3 2-4 2-2-2h-5l-2 2h-5l-4 4-13 4-2 2 1 3v3l1 4-2 3 1 4-1 1 8 23 2 14-2 2 2-1 1 8h2l2 3v3l-2-1 1 5h2l1 5 4-6 3-1M259 232l-2 1-6-3-10 4-5-5M308 244l-8-1-3-4M300 243l-3 3h-4l-6 9-6 4-2 3-5 1-9 11-5 9-3 2-1 6-4 2M204 284l-1-1h-3l-1-4-5 1-2-1M217 377h-2v-3h-1l4-4 1-8 1-2-1-1-2-8-3-4 5 1v-1l-5-2-1-5-4-2-3 2-4-4h-1l-15-7-7 1-7-1-2-2-14-6-8-6-5-2-10-3-3 3h-2l-8-4-12 4M272 352l-6-4-3-9h-2l-1-2h-2v2h-4l1-3h-1l-1-3-3-3v-4l-1 3-3-1 1-2v-3l-2-2 1-2h2l1-1-2-2 1-2-3-2h-2v2h-2l-3-6M321 315l-4 1v3l-3 2-2 7-4 1-2 6-8 7 1 3-6-2-4 4h-2M374 332l-3 2-2-1-3 3-3-1-3-4h-1l-1-3-5-1M219 362l-4-2-4 1-1-1-2-1-4 2-3 3v4h-9l-7 5-8-1-9-7-17-5-6 2-4 5M338 331l-1 4h-1v3l-2 11 2 2v10h-4v4l6 5v4l-2 5 1 3h4l1 2-4 2M273 368l-8-1-7 2v6l-7 2-2 4-4 1 2 4-4 8 1 4h-8l-2 3h-3l-1 4-2 3-3-1-5 2h-4M278 371l-5 2 3 3-2 2v2h3M198 199l-7-2-1-3-4 2h-14l1-18-8-8-5-11M199 243l-5-2-1-2-6-5-3 1-6-2-1 1-6-3-2 2-3-1-1 3-3-2-6 3-10-6-5-4-8 4-6-3-4 2h-3l-1-3-1 2 3 6-1 3v1l-2 2-9-1-2 3-5 2-5-3-1-3-7-5-1-5 1-3h4l2-2 2 1 5-5-3-7-4-5-4-2-5 2-7-1-3-5-3-1-6-1-4 2M89 233l-4 2v5M110 293l-2-4v-3l-3-1 1-7-1-2v-7l3-8 4 2 2-3 6 2 7-7 3 1 2-1 3-4-3-11h-8l-4-3M408 397v-2h-3v-2h-2v2l-3-1v-2l-5-5v-1l3-7v-2M395 387l-2 4-5 2 3 2v5M454 403l2-3-4-1M414 403l5 3v6M175 418l-1 6-1 4M167 435l-2-1 1 1-1 2h-4l-7-1-3-4-1-6M310 172l-1-1-1-5 1-2h-5l-3-4-3-1-3 2-2-2v-4l3-2v-6l1-2-7-7-2-6M153 439l-6 2-5 4-2-2-6-1-5 2-7-3-4 2-4 3-8-1"/>
		<path fill="#eeeeee" d="M314-1l-2 2 2-2zM320-1v2l1-2zM323-1l1 2 4 5v4v-4h3l-6-5 2-1-1-1zM259 524l-3-3v3zM346 77l4 2 3-4-1-2-3 2v-2l-4-1zM383 159l-1 1 1 1 1-2zM392 160v1l4 2 2-2 4 3 3-2 1 1h1v2l1 1-2 3 5 1 1-2v2l2-1 5-8 2 1-9-2-5-3-1-2-6 1-6-1zM393 133v-1l-2 1 1 1 2 1zM422 95l-1 3-3-1-4 2-1-2 1 2 8-1-1 2 2-2h5l1-2-3 1-3-2 6-8-6 6-1-1zM489 72l-6-1 7 3-1 3 5 3 2 6-1-6-3-1 1-2h-3l3-1-2-5 3-5-2-1-2 3 1 6zM491 87v-2l-4-2v-1h-3l-2 2 3 3-2 3-5 1 6-1 1-3-2-3 2-1 5 3-1 3zM388 281l-1 3 2-2 3 1-3-1 1-4zM309 200l-5 1-3 7h1v-4h2l2-4zM260 142h-1l-1 2 3 1zM251 404v-2l-1 1zM190 279l-2 1-2 3 4 3zM375 248l-2 3 2 1 2-2-1-3h3l-2-2 1-7 4-3-5 3zM218 321h-2l1 1zM237 442l-3-1v3h5l1-4 5 1 1-1-2-1v-2h-2l-1 2-2-1v3zM44 272h-2v2l-1-1 1 3h3zM108 172l-2-1-2 2h2l-1 6 2-1 1 3 2 1zM251 132l1 1 4-4v-4l-2-2 2-6-3 6 2 2v3zM267 95v2l2-2 1 1-1-2 1-2 6 3-3-3 2-3 3-1h-1l-1-1-3 2-1 3-4-2zM257 92l1 6-1 1h2l1 4h3l3-5-3 2-2 3-1-2-2-5 1-2-2-2 1-1v-8v8zM275 61l-2 2 1 3-4 4-4 2-5-1-3 6-1-3 2-4-3 5-3-2 1-2h-2l-3-6v3l-3 1 5 1-1 2 2 2h1l5 5-1 2v-2l-3 1 3 3h2l1-2-1-4 3-4h3v2l1-2 6-5 1 1 2-3-1-2 2-3v-4zM193 169l2 1 3 4v-8l-1 4zM300 439l-1-2-1 4h2zM28 85h-1v2z"/>
	</g>
	<g>
		<rect fill="white" opacity="0.75" x="284" y="483" width="213" height="36"/>
		<rect fill="black" x="288" y="487" width="205" height="8"/>
		<text fill="black" text-anchor="middle" font-size="24" font-family="sans-serif" x="390" y="515">50km</text>
	</g>
</svg>