<?xml version="1.0" encoding="utf-8"?>
<!DOCTYPE svg PUBLIC "-//W3C//DTD SVG 1.1//EN" "http://www.w3.org/Graphics/SVG/1.1/DTD/svg11.dtd">
<svg width="395" height="777" version="1.1" xmlns="http://www.w3.org/2000/svg">
	<title>鹿児島県行政区画地図 (2010年3月23日)</title>
	<desc>Author: Lincun</desc>
	<rect fill="#eeeeee" x="0" y="0" width="395" height="777" />
	<g stroke="black" stroke-width="0.2" stroke-linejoin="round">
		<path fill="#aaaaaa" d="M212-1l-2 3 2-1 3 2-5 3-2 3 1 1-1 1-1-1-2 1v2l1 1v4h2h1l2 1-3 3-2-1-1-1-1 5-1-4-2 1v2h-1l1 2-4 2-1 1 2 3h-3l3 3-1 3-1-1-1-1-4 2-1-2-4 6-2 1 2 1-3 1v1l2 1-1 3 1 2h-3l1-1h-3l2 2v1l-1-1-1 2 5 5 6 8 11 2 3-1 2-1v-2l1-3 3 1 3-2 4 2h4l1-4 4-1 5-1 3-5-1-3h5l2 8 7 2 1 1v2l10 9 5 1 4-2 1 3 3-1 1 1 2-1 4 1 9 1 4-3 4 2 5-6 5-2v-1h3l1 2 4 2 3-1 2 1 4-1 1-5 4-3v-3l3-3 2-1 2 1h3l5 4 3-1 6 2 3-2-2-5 1-4-2-4h-3l-3-5v-3l-3-3-3 1-1-4 3-3-1-5 7 1 5-8 1-3 1-2-1-1-3-5-5-2 1-3zM93-1l-2 2v4v5l3 4v-1l2 3 1 1v-3l2 1 1-1 2 2v-2l2 4 2-3 4 2 3-1v3h-2l1 3-1 1v2l-3-1v-2l-1-1 1-3h-1v1l-1-1-2 1h-1v3l2 1-1 2-2-4v-3h-3l-3 4-2 1-1 3-3 5-1 3 1 1 5-3v-1l1 1-1 2-1 1 1 1h2v-1h2l1 5-3 3v-3l-1 1-2 5 3 3 2-4v2v2h2l2-2h1l-1-5 2 2v-1h1l1 3 2-3h3l4-2-3-2 3-1-1-2v-2h3h-2l1 2v3l2-1 1-2v-3h-1h-1v-2h3l1-2v-1l6-7 1 1 1 2 3-2 2-2-1-2-3 1-1-2v2l-1-2 1-3 1 1h2l-1-3 2 1-1-2v-2l2 1 3-2-2 4v3l2 1 3-4h3v-2l2-8v1l3-3-1-1zM177-1l-1 1 2 2 1-1-1-2zM150-1l1 1v-1zM194-1v1l1-1zM172-1zM106 53l-2-2 1 1v-2l-3-1-1 1 1 2-2-1 1 2-1 1v1l1 2 1-4 2 1 3 4-1-2 2-1zM108 55l1 1v-2zM89 50h-1v1l2 1zM114 47h1l-1-1-2 1zM127 27l2 2 2-3-2-1zM167 18l5-1h1l5-3 6-8-1-1h-3v-2l-6 5-1 7-2-1-1 1-4 2zM167 11v-2h-2l1 4zM171 7l4-1 1-3h-2l-1-2-1 1v1l-1-3h-2v2v1l-2-2-1 2 1 2h3l-1 3zM347-1l-1 3 5 2 3 5 1 1-1 2-1 3-5 8-7-1 1 5-3 3 1 4 3-1 3 3v3l3 5h3l2 4-1 4 2 5-3 2-6-2-3 1-5-4h-3l-2-1-2 1-3 3v3l-4 3-1 5-4 1-2-1-3 1-4-2-1-2h-3v1l-5 2-5 6-4-2-4 3-9-1-4-1-2 1-1-1-3 1-1-3-4 2-4 9v3l11 5v1l2 1 1 2 4 3 1 10 3 1 1 7 4 2 7 1 3 1 5 4 4 9h4v1l-5 2-1 8-3 1 1 3v5l1 3 6 1 2-1 3 5 13 2 1 2-3 3v2l5 2 4-1v7l-1 3 4 4-1 7h1l-1 2 5 3 2 6 2-3 4-4 8 8h2h7l3-3 1 2 5 3-1 5 3 3 2 3-1 3-3 4 2 2 1 9-8 5-2 10v1l4 2 1-1h5l2 3 3 2 1 3 2-1 2 1v2l-2 1 2 7 5 3 2-1h1v-272z" />
		<path fill="#f6bad3" d="M340 490l3-2 2-5-1-4 2-3-3-3 3-7 1-4 3-2v-2l-1-15v-3l2-4-3-5 1-3-2-1-1-4-1-2-2 1-1 3h-2l-2 3-3 4-3 4 2 5-4 7-1 1 1 1-1 1h1v2l-3-1-2 5-3 6-5 5h2v2l-1 5 2 2 7-2v4l2 2-1 1 2 2zM298 452l2-3-1-3v-1l-1-4-2 3-2 3-1 5h1zM235 332v1l-1-3 1-2 8-1 2-2 2-4-2-2v3l-1-1v-2l6-2-2-7 5-7-10-1-5-6h-2l-3-3-4-4-2-4-3-11 1-2-1 1-1-2 1 1 3-1-2-3-3 1-1-1-3-11-2-9 5 1v-3v1h-4l-1-2 1-3 1 1-2-2 2-4h3l2-7-2 1 3-2v-3h3l3-9h-2l2-1-2-2v1l1-1-1-2 5-6 4-3 1-5 3-2-1-2-1-3 2-9 6-3 4-3h2l4-2 4 3 3-1 4 6h8l3 1 1-1 2 1 1 2v2h2l2 3 1 8-4 5-4 8v4l-2 4-3 3-7 1h-7l4-1v-1h-1h-2l2-3-2-1 2-2-1-2-1-1 2-1-2-2-4-4-5-1-11 2-4 6-4 3 2 3 2 1 1 3h2l1 2 1-1 3 4 4-2h4l1 2 1-1 3-2h1l2 6-3 1 1 9-2 2 2 8 7 2 2 3 5 8 4 9 2 5 4 7-1 5-1 6 3-1 1-3 6 1 8 4-2 6h3l3 6 3-1 1 3 5 4 2-1 1-4-3-10 1-1-3-9v-11l-4-4-1-7 3 2v5l5 4 3-1 1-1 1 1 2-2 1 2v-1l1-1-1-2 2-1-2-1-1-7-2-3 1-5-2-7-7-1-2-2-2-3v-4l4-1 2-2-2-9 2-3 3 4 4 1 1 1h3l-1-2h1l1 8-5 2h3v4l-1 4 7 5 2 1 3-5 4 3h5l-1 1h1l-1 3 2-1 1 1 6-5 2 2 1-4 1 1 1-3 2 1 4 1 1 2 2-2 2 1 1 1 2-10 8-5-1-9-2-2 3-4 1-3-2-3-3-3 1-5-5-3-1-2-3 3h-7h-2l-8-8-4 4-2 3-2-6-5-3 1-2h-1l1-7-4-4 1-3v-7l-4 1-5-2v-2l3-3-1-2-13-2-3-5-2 1-6-1-1-3v-5l-1-3 3-1 1-8 5-2v-1h-4l-4-9-5-4-3-1-7-1-8 4-7 5-6 1-8-5-4-1-3 2-6-1-1 1h-2l-4 5 3 4-7 2-3-1-2-3h-10l-4-2v4l-8-1-2 6 1 4h-2l1 4-1 5-1 1-3-6-7-1-4-4 1-9v-3l-2-3-4-3-7-3-1-3 1-1-2-3 2-1-1-2 2-1 1-2 3 1v-3l10-1 1-4 4-1 3 2 3-1 1-6h4h1l4 8 1-2 6-1 2 2h-1v4l8 7 1 3h4l1 2 4-2 3 5 9-4 2-5 5-7 3-1v-6l-1-11v-3l4-9-5-1-10-9v-2l-1-1-7-2-2-8h-5l1 3-3 5-5 1-4 1-1 4h-4l-4-2-3 2-3-1-1 3v2l-2 1-3 1-11-2-6-8-5-5v2l1 2-6 7-8 6v2v-3l-6-1-2-4h-2l1 2h-1l-2-2h-4h-3l-7 4-3 1-1 2-1 6 1 1 2 1-1-2 3-1v2l2 1 1 4-1 6-3 2 1 3-3 2v-1v4l1 2h-3l4-1v2l3 1v3l2 3 2 10v1l1 4-1 4-2 7h-2v2l-2 1 3 3v2l-4-1-2 3 2-1-2 1 2 1-4 4v4l-1 2 2 4h1v1l1 1 1 7 2-2 3-1 4 4 5 3 2 3-1 1 3-2-3 4 1-2 1 2v-1v2l-2-1 1 1 5 1 4 7 1 5h4l1 4 3 18-2 15-3 10-7 13-3 4-4 2-1 2v-1l-4 2-2 3-7-3-1-4 1-2-2 2 1 4-2-2v-2l-2 1-3-5-6 6v1l-1-2-3-1-3 3 1 1 3-2 4 3 2 4 7 7 3-1 1 4 1-1 1 3h2l-1 3-3 2h-4l-1 2h1l3 2h4l-1-1 2-1 1 4h2l-1 3v-1l-4 1v3l-1 1h3l1-2v2h3l-2 2-1 1h1l2 1h-2v1l-1 1v2v1l1-1 2 1 2-3 1 2 4-1h1l4 3v-1l2-5v1l1 1-1-2h2l-1 3 4-3 2 3h4l4 2 2-1 2 1 4-1h4l2 1h1l3 1h2l1-2 7 2 9 9 2 4-2 2-1 4 5 4 4-1 2-2 1-1 3 1 4 5zM254 301l1 1 1-2zM134 280l1-4-2 3zM357 258l2 1-1-2zM327 247v-2l2-1v4zM216 241l4 2 2-3-4-2zM25 201h3l1 4-1-3h1l2-3 2-2 1-1-3-2v-2l2-3 3-2-2-4 3-4h2v2l3-3 2-7 2-1v-3h3l-2-5 3-1-4-1-1-2v2l-1 3 2 1-1 3h-2l1 2-1 3h-2l-3 2h-3l-8 3-2 2 1 2-2 1-1 1 1 2-2 4-2 4 1 1h-2l-4 1 1 2 1 3v2h3l2 3 3-1zM57 161l-2-2 4-3-2-2 2-2-3-1-2 1-1 3-1 1v4l2 3zM69 153l3-1 1-3 4 2 2-2 1-3-3-1v-2h2v-3l-1-1 2-1-6-1v1v3l3 1-1 1-2 1-3-3-3-1-4-6-6-1-5 6v2l1 3 3 2v-2l2-7v3l2 1 3-1-1 2h-4l1 4-3 3 1 1 5-4 1 1-2 2 2 2 2-1v6zM80 138l1-1-1 1zM135 95l1-1h-2zM313 236l2 2 1-3zM233 711l1-1h2h2l2-3 2-1 1 1h1v-2l-2-2-4-2v2l-6-4-5-3 6 1h3l1-2 3-3-1-4v-4l-1 1-1-1 5-1 5 2 3-2 5-1 5-2 1-1-1-2-2-2 4-1 3-1 2-3h-6l-5-2-1-1 2-3h2l1-3 3-2 1-6-4-1 2-8-2-6-1 2-3 2-2 4-1 3v4l3 2h-4l-1 3-2 2 1-5-2-4-2 3h-2h-2l1-2-2-1-2 1-1 8-5-1-1-2-3 1-4 1 6 3 1 8 5 2-1 3h-8l-1 1v5l-2-1-9 4v2l5 4-6 3v1l-3 5v1l5 5 6 1 3-1 1 1h2l2 4zM294 652l3-1 4-5-1 2 1 1 2-6-2 2 3-7-1-4-4-2-2-2v-6l-1-6-3 2-2 3-3 4-2-1-1 2 2 1 2 4 3 3v3l-2 2 2 2-1 1-3-7-2-1v2l2 9-1 2-2-3 1 6-4 1 5 2h3l1-3z" />
		<path fill="#f6bad3" d="M220 589l1-1 2 1h3l3-2 4-1 4-2 2-4 5-5 3-3 5-6h-2l2-1v-5l1-7 1-3-2-3-2-2-8-3-6-3-1-2-4-1v-2h-1l1-1h-2l-5-3-4-1v1l-5-3-2 1v-2v-3l-1 2v2l-3-1h-3l-1 2-1 5-3 1-1 2-4 5v2l-1-1-1 2-5-1-5 1v5v4l1 3 1 4 1 4 2 1 2 5 1 5 1 4 1-1 3 6 2 3 3 1 4 1h3l3 1 2-1h3zM304 558l4-5 9-4 7 1v-6l4-2-3-5 2-4-1-2v-2l-3-1-1-2 3-1-2-5 1-2 3-5 4-9 1-3h3l3-2 2-3v-6l-10-6-2-2 1-1-2-2v-4l-7 2v8l1 4-2 4-11 22-4 5-2 2-1 3-2-2-3 1 1 2v5l2 4 1 8-2 6 3 7 1 1zM146 535l3 1 2-4 6 1 1-3-2-1-3-3-3-3-4-1-4-2-2 2-4-3-2 1v-3l-3 2-3-1 1 1 5 5 1 3 3-1 3-1-2 3 1 3 2 2 2 3zM252 378l1-3 3 1 1-1 1-3-2-1 2-1 1 1 2-2 1-1 2 1v-3v-2h4l2-2 1-2 2 1 2 1 1-3h3l3-3v-1h4v-2l4-1 1-1 4 1 6-1 3-3 3-2h1h3l1-3 4-1 3-2 3-2 4-3v-1l-1-1v-2l3-1h2l-2-1-1-2 3-1 2-1v-2l1-5v-1l2-3h3l4 1 4-1 3-4 3-3 6-4 3-3v-2l-1-1-4 3h-4l-3 2 2-1-3-4 4-4 4-2-1-5 1-1-7-2-8-3-7-2 2-10 9-14-1-1-2 1 1-3h-1l1-1h-5l-4-3-3 5-2-1-7-5 1-4v-4h-3l5-2-1-8h-1l1 2h-3l-1-1-4-1-3-4-2 3 2 9-2 2-4 1v4l2 3 2 2 7 1 2 7-1 5 2 3 1 7 2 1-2 1 1 2-1 1v1l-1-2-2 2-1-1-1 1-3 1-5-4v-5l-3-2 1 7 4 4v11l3 9-1 1 3 10-1 4-2 1-5-4-1-3-3 1-3-6h-3l2-6-8-4-6-1-1 3-3 1v4l-1 9-4 3-1 4-1 3-1-1-1 1v4l3 3v3l-3 6-2 7-4 4h-3l-5 5-5 3-5 4 4 1 2 2-1 2v3l1 2-2 4-2 3-1 3 1 1zM337 276l2-1-1-3-2 1v3zM313 236l3-1-1 3zM205 137l2-6 8 1v-4l4 2h10l2 3 3 1 7-2-3-4 4-5h2l1-1 6 1 3-2 4 1 8 5 6-1 7-5 8-4-4-2-1-7-3-1-1-10-4-3-1-2-2-1v-1l-11-5 1 11v6l-3 1-5 7-2 5-9 4-3-5-4 2-1-2h-4l-1-3-8-7v-4h1l-2-2-6 1-1 2-4-8h-1h-4l-1 6-3 1-3-2-4 1-1 4-10 1v3l-3-1-1 2-2 1 1 2-2 1 2 3-1 1 1 3 7 3 4 3 2 3v3l-1 9 4 4 7 1 3 6 1-1 1-5-1-4h2zM133 76l3-1v-3l1-4v-4v2l3-5 5-2-1-4-2-1-1 2h-1l-1-3 1-4 3-2-3-1-3-8-3 2 1 3-1-2-1-2h-1v1v2h-1l2 3v2l-3-4-3-1h-1v1l-4-1-1 1 1 1-1 1 2 1h-2l2 2h-4l3 1h-4l-1 2h1l1 2 3 1v2l1 4v5l-1 1 5 5 4 3v1zM144 41l1-2-2-1v-3l-1-1-1 1 1 4-2 1 2 3v-2l3 2-1 2 2-3v-2zM137 36v-3l2-2 1-4-2 4-2-1-1 2v3l-2-1v1l1 1v2l1-1 1 2zM152 31l-1-2 2-1 4-2v-2h2l-1-4-3-2 1-2-3 2-3 1 1 1-1 2-2-2-1 2-1 3-1 6 1 1 4-3v1zM327 247l2 1v-4l-2 1zM192 763l2-3-1-3 1-2h-2l-2 2v-3h-2l-1 2-2-1-4-5-3 5 3 4 2-1 6 2zM165 760l3-1 2-5-1-2 3-1-2-3v-2h-1l-3 4-2 1 1 3-2 4 1 1v2zM194 758l2 1-1-2zM207 746l4-2 2-4 1-5-3-3-1 2h-3l-1 3-1-4-2 1-1-3-2 4-1-1-1-4-3 4v-2l-1-2-2 2 1-1-1-2 3-1v-2l-1 1-5 4-1-1 1-2-2-1 5-2h-4l3-1-3-1 2-1 5 1v-2l-2-3-1 2-1-3v4l-4 2-1-2-1 1-2-1v-2l-3 1 1-3-3-2 3-2 3-1 3 2v-3l-2-1-4 2-2-2-4 1v2h-4l1 3 2 4 3 3-1 2h1l2-1 3 2-1 3v5l2 2-1 4-3 1 2 3 3-3 3-4h2l-2-1 2-1 3 1v6l2 3 3 2 2-1-1-4 1-1 1-1 2 1 2-1 1-2 2 1v1l-1 2v3v3zM220 732l-1-3-1-3-1-3-2 1-2-3-3-3 4-1 1 1h2v2h5l3 1 1 1 1-2 1-4-2-3 1-2 3 2 3-1v-1l-2-1-2-4h-2l-1-1-3 1-6-1-5-5v-1h-1l-7 1-7-4-11 4-3-2-4 1-5-1-1-2-12-2v1h1l3 3 1 1 3-1 2 1 2 4 3-1 2 2h2l1-3 1 2 5 1 1 5 3-1-2-2 1-1v-5l1 2 1-1v2l1-2h1h2v2l-4 2 5-1 3-1v1l-5 4-1 2-2 4 2 1h1l2-5 1 3h1l-2 1v2l3-1-1 2h2l-1 2h-3l4 1-2 2 1 2 5 1 2 3 1-1 1 2 2-2 3 1 1-1 3 2-2 1 1 2 1 1-1 1 3 1zM171 734l-1-2-3-1zM168 711l2 1v-2zM358 689l3-1 2-2 4-3 2-4 3-4 1-1-1-2h2l-1-1 1 1 2-1 2-3 1-1-1-1h2l-1-4-4-2-3 3-3 2-1 2-2 2-3 2-2 2-2 1-3 1v1h-3l-3 3v1l2 4h2l1 2zM267 670l2-3 1-3h3v-3l4-5v-2l5-1 4-1-1-6-1 4h-5v-3l3-2-1-3-2-1h-1v5h-1v-2l-2 2v4l-2-1-1 2 1-6h2l1-5 3-4 1-2-8 1-7 5-1 1-2-3h-2l2 6-2 8 4 1-1 6-3 2-1 3h-2l-2 3 1 1 5 2zM105 646l8-2h1h3l3-6v-1l5-8v-5l3-1 1-4-1-4-4-2v-1l-5-6-2 1-4-5-1-2 2-1-2-3 1-2-1-2-3-2 5-2-1-5h-3l-8 1-4-2h-2l-2 3-1 5 1 3-2 5-1-3v5v1l3 2v2l-1 1v5l2 5 2 2v2l-1 1v1l-1 4-4 3 2 3 4 3 3 3 1 3 1 4 2 1zM100 704l4-1 2-3 3-3h1l2-1 4-5 2-4h2v-2l4-3 6-4 2-2-3-1-5 1-5 4-6 3-4 2-2-1-4 3-5-1-6 1-4-2-3 3-1 5 2 5 5 6 4 2zM114 757l3-2-1-4-1-5-4-3-4 1-1 4-2 1-1-1-1 1v3l2-1 4 4 2 1z" />
		<path fill="#f6bad3" d="M162 438l4-1h4v-4l-3-3-3 1-5 3h-1l-1 3 3 1v2v-3zM200 432v-3l-4-1v-1l-2 1-2-1-1 2-3 1h1h5zM86 424v-2l-3-2-3-2-4 1-4 2v2l2 2 3 3h3zM211 699h1l3-5v-1l6-3-5-4v-2l9-4 2 1v-5l1-1h8l1-3-5-2-1-8-6-3 2 3 1 3-1-1-1 3-2-4-1-1-3 2-2 3-5-4-3 1-2 3v1h-4v3l1 2-5 2-2-2-7 2 1 1-3 2-4 2-3 1-2-1v1l2 3 2-1v1l2 3 2-1 1 3 3 1 1-5 2 2 5-1v4l-2-1h-3v4l-2-2-1 2-1-1-1 3-2-2v-2l-2 1-1-3-4 1-1 5-4-3h-3l-1-2-3 3-8 1 12 2 1 2 5 1 4-1 3 2 11-4 7 4zM179 687l3-1-2-4h-2l-5-2-1 3 4 3zM31 520h5l4-1-6-6 1-4-2-2 1-1-6-2-1-2-5 1-2 6 1 2 4 7 3 2zM46 483v-4l-3-2-4-9-1 2 1 2-4 5 2 1v2l2 2 5 2zM33 575l3-4 4-3 1-4 1-8-4 1-6 2-4 2 1 2v6l2 6h1zM39 614l-2-5-4-1-2 4 2 1v3l1 1 4-1zM22 671v-8l-6-1-2 2 3 4zM48 643l-3 1 1 1 1 1zM31 705l2 3 1-1 4 1v-3l-2-1-2 2zM37 697l2 1-1-2zM53 753l1 2v-3zM35 750h3l-1-4-3-2-2 1 1 4z" />
		<path fill="none" stroke-linecap="round" d="M176 109l-4-1h-3l-3-4-1-3-6-5-5-2v-2l-1-2h1l1-5-5-3 1-4-2-5 1-2 1-5M208 93l6-10h2l-3-6-2-2v-3l-2-1v-2l-2-1M156 92l1 2-1-2M169 108l-4 6-2 1-3-4-1-1-1 1 1 4-2 6-5-1-3 1h-2M234 134l-2 4-2 3h-4l-5 4v2l-2 1-1 5-2 1 1 2-4 3 1 8-5 4-2 5 6 2 1-2-1-4 8-3 9 2 3 2v3h-3v2l-2 1 1 4 7 4v3l2 1h1M253 176l4-6h1l2 1 2-3 1 2 2-2-4-2-2 2-2-1 3-2v-2h-2l1-5-9-2-3-5-2-2-3-11h-2l-2-3-4-1M207 176l-5-2-6 2-3 3-1-4-1 1-2-1-5 1v-3l-3-1-2-4-7 3-2-3-3-2-5 3-7-6h-3l-1-3-9-1-4 3M303 155l-2 4 1 4-1 2 6 4-3 5 3 2-1 8 3 10-2 1-6-2h-2v4l3 2 1 6-5 1v-2l-2 3 9 5 5 8 4 2-1 2M184 176v6l-11 3v1v2l-3 7M233 293l-3 2-8 1-2-5v-3l-3-2h-2l-3-3-1-3 3-4 1-7v-3l-3-2-2-4-1-10-3 1-4-2-2-3-2-5 3-7v-3l-3-2-4-3-2-5h-2l-4-4 4-5 3 1 3-3-2-3 1-2 3-2h8l-2-6-4-2-1 1v-7h-1v-4l-4-1-1-5M370 202l-3 5-4 3-4-1v3l-3 2-16-4-1-2-2 1-3 4 6 6-3 4-2 1v2l2 1-4 3-2 1-1-2-3-2-3 1M296 207l-1 2-5 1h-1l1 2-2 4-1 5-1 2 1 3-3 2v2l1 1-3 5 4 3 2 4-3 9-3 6h-5l-3 3v2M289 210l-3-2 1-4-3-1M260 224l1-1M321 230l1-2-2 1M198 241l-10 5-5-1-4 1-2-3h-6l-2-1M200 246l-5 2-3 7-4 1-3 7h-5l-6 8 1 5-2 3-1 3-3 3 1 2 3 5 8-1 1-2 1 2 1 1-3 3v2l1 11M169 285l-4-1-7 6-5 1-1 2 6 3-4 5 3 5M222 296l1 8-3 11-5 3M242 123l-1-1 1-3M336 268l-9-1-5-3-2-8M339 275l-2 1M334 278h-6l-2 2-1-3-1 2v-2l1-2-1 2-1-2M313 314l1 2-4 6 7 3 1 1-2 2-5 3-2 3 1 2-7 5-4 2-3-1-5-3 4-5h-3l2-1h-2l-1-4-5-7v-2l4 2 1-4 2 1 2-3-2-6-3-1h-2l1 2-2 4-2-3-9 3M308 346l-4-4-1-1M323 528l-2 1-2-1-1 2h-6l-2-2-1-4-5-4M98 582v3v3l4 1 2 4-4 3 1 3 1 1-1 4 2-1 3 5 4 1 1 1 5 3-3 8-4 2v2l-1 4h5l4 5 3 3M109 625h-2l-6-1-5-3M110 697l-5-7-3 3-4-2 1-3-1-2M216 686l-1 1-3-4h-6l-4-4-4 2-5-1-1-1 1-2-1-1" />
		<path fill="#eeeeee" d="M396 39v1zM396 40l-1-1h-2v-2v2l-2 1-2-3v-3l-1 3 2 2h4l1 2-1 3h-5v2l-2-1-1 3 1-2 3 1v-2l2 1 2-1 2-4zM226 316h5l2-3-1-4-6-1-4 2z" />
	</g>
	<path fill="none" stroke="white" stroke-width="4" d="M0 450h70v327M0 540h70M0 590h70M0 635h70M0 680h70M0 725h70M70 560h80v217M70 660h80M70 720h80M150 607h245" />
	<g>
		<rect fill="white" opacity="0.75" x="260" y="4" width="131" height="36" />
		<rect fill="black" x="264" y="8" width="123" height="8" />
		<text fill="black" text-anchor="middle" font-size="24" font-family="sans-serif" x="325" y="36">50km</text>
	</g>
</svg>