<?xml version="1.0" encoding="utf-8"?>
<!DOCTYPE svg PUBLIC "-//W3C//DTD SVG 1.1//EN" "http://www.w3.org/Graphics/SVG/1.1/DTD/svg11.dtd">
<svg width="527" height="497" version="1.1" xmlns="http://www.w3.org/2000/svg">
	<title>熊本県行政区画地図 (2012年4月1日)</title>
	<desc>Author: Lincun / 更新：Knua</desc>
	<rect fill="#eeeeee" x="0" y="0" width="527" height="497" />
	<g stroke="black" stroke-width="0.2" stroke-linejoin="round">
		<path fill="#cccccc" d="M172-1l2 3v3l-8 5h-5l-1 3 1 6 1 2 3 1-1 4v1l2 12 7-1-1 3 1 3-1 4 8 5-3 5 8 4 2 5v1l3 8-2 7 1 3-5 5v3l2-3 1 2 2-2v2h-1v2l-4-1-5 3h7l5-1 18 1 2 1 5-2 3 1 3-4-7-15 7-7h6l1-6 2-1 9-2v-1l-1-1-1-2v-3v-1l4-1 3-4 8 1 4 3 8-2 7 2 1-1-2-2h2l1-7 2-3-1-7 5-4v-3l4 3v5l6 1 2-2 3 1 4-1 1 4 5 3 6 4 1 2h8l9 4 1 4h7l4-2 3-3v-2l2-2 1-9 4-2-3-7 2-2 3-1v-3v-2l-5-1-3-1-7-6-3-2 1-2 7-5-9-3zM-1 29l1 3 13-3 5-1h2l-1 3 3 10 2 3v4l-1 3h-3l-2-1-5 3-1 6 4 1 2 7 16 7 4 5-1 2 5 8 3 1 4-1v4l6 3 3 5 3 3 5-1 4 5 11 2 7 1 2-1 2 4h10l9 2h4l-2-3 3 2-1 2 1 2 1-2h2l-3-2 3-1v-2l-2-4-1-1h-3l1-3-2-2h-5l1-4h-2v-5l-3-3 1 1-1-3h1l-4-5v-7l-4-2v-2l-5-5v-1l-2-3 2-1-2-4 3-6 7-9 9-5-1-2 5-3 7-5 3-7v-4h5v-5l3 1 1 2-2 3 9 9v2l3 1 1 6 24 3-2-12v-1l1-4-3-1-1-2-1-6 1-3h5l8-5v-3l-2-3h-173zM-1 243l3-3-1-1 8-14v-3l-2 1v-1l1-1v-2l3 2 2-2 1-5 1 3 3-5v-2l4-1 1-3-3-7 4-2 6 1h2l2 1 2 3 1-3 11 1 14-12 7-2v-2l4 1 11 2 6-3 12 1 4 3 1 3-2 2 1 4-1 1 2 1 2 3 1-2 2 1 1 5-2 10-5 2-1 4-5 2-2 2 2 2-5-1v4l-5 1v2l-1-2h-3l-2-3-1 1 3 4-2 9v3l1 4 5 2 3 5 1-2 4 3 3 6-4 4 1 2 3-1 2 1 3-3 3-1-1-1-3-1v-2l5 1 1 2h5l5-3 1-3 2-4 4 1 3-3-2-3 4-3-3-2 5-1 11 1 6-3v-3h6l-1-1 4-1 4-5-1-1 2-3-4-7 9-12 2-4-2-5-1-2 4-7-3-3h1l2 1-4-6-1-4-2-1h1v-2h-2l-2-3-4-13-2-2-6-4-4-2 1-1-1-1-4-1-10 3-9-1-6 6-6 3-5 2-2-2 2 3-3 2h-10l-1-1-2-2-3-1-5 4-7-9-1 1-5-2-1 1v-2l7-4 1-4h2l2 1 4-2-1-3-2 1v-2l4-1 2 2 3-1 2 1v-5h3l2-3h6l1-4 1-2h4v-1l-1-3 1-1-1-1 1-6-9-2h-10l-2-4-2 1-7-1-11-2-4-5-5 1-3-3-3-5-6-3v-4l-4 1-3-1-5-8 1-2-4-5-16-7-2-7-4-1 1-6 5-3 2 1h3l1-3v-4l-2-3-3-10 1-3h-2l-5 1-13 3-1-3v43l3 2 3 5 1 2 4 3 3-1 5 7 2 1v7l1 4 1 1-2 2-1 4-1-1v1l-1-1v3l-2-2-1 2 1 1-1 8 1 10 3 3 3 4h3v1l-3 1 2 1-1 2 1-1 1 3h5v2l-3 1 1 3 9 7 1 4 3 3 1 2-1 1-3-1v-2l-3 1v2l-1-2-1 2-1-1 1-3-3-2-4 1-3-7-7 3-2-1 1-3-2 1-2-2-2 1v-2l-1 1-2-4-2-1-1 5-2-1v-2h-1zM26 198l3 5 4 2 2-2-4-1 1-3zM18 139v1l1-2zM4 128l1 2 5 8 3-1v-3l-8-7zM334-1l9 3-7 5-1 2 3 2 7 6 3 1 5 1v2v3l-3 1-2 2 3 7-4 2-1 9-2 2v2l-3 3-4 2 2 5 5-1 2 2 4-1 2 2 2 2 1 3 2 2v3h4l3 5h4l2-1 7 3 2 5 4 5h7l3-2 5-8v-5l2-2-3-2 1-3 4-5-2-3-4-6-4-3-1-3v-2l-5-5 1-1h1l-1-6 4-11 4 2h4l9-7h6l8 2 5 2 2-1 3 2 3 2v4l10 6v1l5 5 2 5-1 5 3 5v6l2 4 3 3 3-2 2 2-1 1 7 7 4 15-2 1 9 9v5l6 3-3 5h-3v1l2 2-2 2 2 2-2 3v2l2 5v6v5l4 8 3-1 1 4 4 2 3 4 7 2 5 8h4l3 2v7l4 3 7-2v-179zM528 178l-7 2-4-3v-7l-3-2h-4l-6 2h-7l-2-1-5 3-2-1-1 4-3 1v4l-3 3v5l-4 2 4 4v2l-4 6v4l-6 5-8 3-5 5-2 10v7h-4l-4-3-3 2-1 4-8 10-1 1 2 4-2 4 2 9-3 3-2 1 1 3-2 1-5 1-14-4-3 3-1 11-5 1-2 1 2 12-6 3v10l3 7-1 5 1 5 3 7 7 11h9l1 7-1 3 4 4-3 7 8 3 5 7 1 2-2 3-2 4-8 13-9-2 1 8-4 2-1 2 2 6 4-1 5 4-1 5 3 2 3 6 3 1 2 1 2 4-1 6 3 7-5 4-9-4-4 3-4-4-1 1-3-4-6 1-3-2-3 1-2 5-2 1h1v3l-7 5-1 7-7 3-3-2-4 1-2-3h-4l-1-3-5-1-1 3-7 2-7 9-7-3-4 2-2 3-4-2h-10h-6l-2 2-2-3h-3l-2 2-2-5-3 3-2 1-2 6-4 4v3v5l6 2h233zM295 498l-6-2v-5v-3l4-4 2-6-8-3-16-12v-1v-3l-1-2-10-2-3-5 1-3-2-5h-7l2 4-5 9h-8l-7 2-1 6h-7l-5-2-5 3-4-3-1 1-1 4v3l-3 2h-3l-2 2-1-2-7 1-8-2-2-1v-1l-7-11-8-8v4l1 3-3 3-1 5h-2l-1 3-2-2 1 1-4 1 1 2-1-1-2 1-7 6 2 2-2-2 1 2-1 1-1-3-5-1-4-2-2-1 1-4-1-1h-3l1 3h-1v-2l-4-1h-6h-4l-5 2-7 4-3 2-2 4v4l-2 1v3l1 2 3 2 1-1-1-3 3-1 1 3 3 1 2 6v3zM94 482l4-2v-4l3-6v-2l-3-4 1-2 2 4v-4l4-3 6-2 1-2-2-5 1-1-3 1-1-2-1 3h-1h-1v-6l-1 1 1-6 5-3-4-2-2-6-3-2v-4l-4 3 1 2-1 2h-1v-2l-1-4h-2l1 2v4l-3-2v2l1 2 3 2-1 3-4-5-5-3h-2l2 2-8-2-1 2 2 2-2 1 4 1h2l-5 1 2 2h-5l3 3-5-1 1 2-2 2h1h1v3l3-1 2 2-1 3v1l3 1v4l-2 3 2 2-1 2-1 3 7 6 3 3 1-2 1 1 2 3-1 2zM111 428l1-2-3-3v-4l-2-2v2l1 5-4 3 4 2v3h2l-2-4 4 2-1 4 2-5v-2zM101 424l1 1 1-1zM100 420v-5l4-2 1-3v-3v2l-4 3-2-1-2 4v4l-3-2v2l1 2v3l2-2 1 3v-2h1zM117 413l2 3h1zM123 412l1 1v-2l-3-2 4-2 3-3h3l-1-2h4l-2-6 1-1-5-2 2-3-4 3h-2l-5 1 2 2 1 1v1l-3-1v1l-2-2-1 2-2 4 1 2h-2l1 5-2 4 2 2 1-3 5-3v3z" />
		<path fill="#f6bad3" d="M351 469l-3-4-1-3-6 4-3-5-5 2-3-5 1-2-2-3 1-3-2-1 1-5h-4l-4-5h-3l-1-1v-4l-1-4h2v-1v-2l1-3-1-3-2-1-4 4-4-1-2-7h-4v-9l-1-4-2-1-1-4-5-2-2 4 4 4v5l3 1 2 2-1 3-3 4h-2l-2 5-4 1-8 10-1 5-4 3 1 6h-4v2l-2 6 1 2v3v1l16 12 8 3 2-1 3-3 2 5 2-2h3l2 3 2-2h6h10l4 2 2-3 4-2 7 3zM204 471l3-2v-3l1-4 1-1 4 3 5-3 5 2h7l1-6 7-2h8l5-9-2-4-5-4h-11l-12 5-2-1v-2l-2 1-1-3-8-3-3-3h-6l-5-2-2-7-1-1h-2l-1-2-5 3-2-2-6 9-3 1 3 2-4 1v2l2 1h-1l1 4h-2l2 4h-4l2-2h-1l-4 1 2 2 1 2-2-1-1 2 8 8 7 11v1l2 1 8 2 7-1 1 2 2-2zM27 458l1 1v-2zM52 454v1h2h-1v-2zM52 447l-3-3h2v-2h-2v-3l-3 1-2 1 2 3-2-1-1 3 2 1h-2v2l2 4 2-7h2l1 2 4 6-1-3 2-2zM56 450l1 1-1-3zM26 442l-1-1h-1l1 2 3 2zM49 430v-1l2 4v-3l2 1 1 5 4-5h3l4-1 3-3-5-2 4-2-1-3 1-3h3l-2 1 1 2h-1l2 4 2-1 2-2-1-4 1-2h-1v1h-2l-1-3h6l2-3-1-2h1l8-11 2 2 1 2 5-3 3-3-1-2-5-1v2l-1-2-1 3h-2l1-3v-4l1 1v-3l2 2h3l-2-4h3l-1-2v-4l2 3 4-4h1l-3 5v2l1 5h3l5-5 4-1-1-2 2-3v-5l2-4 2-3h2l-1-5h-2l1-2 1-1v-2l-2 1v-2l-1-2-2 1-3 4-2-2 3-1v-4l-2-1 5-4v-3h-2h4v-2l-3-1v-4l-3-5 1-2h-1v-2h2h-3l3-3 1-2h-2l2-1-2-1 1-3-4-6 2-6-2-2h-1l2-2-1-5 2-2-3-1-1 1 1-1-1-4-4-1-15 2-5-2-1 3 3 5-4 9 1 3v3l-4 4v3l-3-1-6 9 5 3v10l-6-5h-3l-12 2-1 2-6-4-4 8-2 3 2 1-3 2 2 2-2 3-3 5h1l1 1v2h-2l-4 6-1 3 1 3 1 2-1 6 4 5v-1l2-1-1 6h2l1 1 1-4 2 2 3-2v2h2v-2l1-1v4l2 2 2-1v-3h2l4 1 1 3 6-4 1 1-2 1-1 1 1 3-3 1 2 3-2 2v3l-1-1h-3l-1-4-1-1 2-5-1-1v1l-1 2-1-2-3 1-2 1h1l-1 5 2-1 1 2h-2l2 2-2 2v-5l-2-2v-4h-5l-5 6-2 1-2 5-5 8-2 4 2 1 4-2 1 2 3-3v-2l2 2-2 1-3 2 2 2 1-1 1 1h2v-2l3 1 1 7-4 4v-4v2l-1-2-1 2v5l-3 3 4 4 3-5 2 1-1 1v3h3l1-3 1 1v-2l2 1zM64 437l3-1-2-1-3 2zM166 437l1 1 3-2zM85 407l1 2h2l3-4-3-2zM145 392l2-1h6l2 1 3-3 4-2 9-12v-2l-3 1-2-1v-3l-1 2h-3l-4 6-1-1-2 3v2h2l-1 6-1 1v-3h-2l-2 3-1 1-2-1-3 3zM145 382l1-4-3 2 2 5zM285 376l3-2-2-3 3-2-1-2 3-2 4-8 6-2 1-4-6-2v-4l-1-2 3-3-3-9 1-2h6l-2-7 4 1 4-5 10-2 3-4 8 1 8-3 1 1 4 4 2-3h2l4 4 1 3h4l4 4-1 5 2 6 13 1 4-1 2-3 3-2 7 3 4-2 6-5 1-5-3-7v-10l6-3-2-12-4-6-13-7-5 2-3-1-9 2-4-5-2 1 1 3-4 2-13-1-7 2-8 4-2-3h-4l-4-5-1-6-2-1h-1l-2-3 2-4-2-17v-5l1-1-2-5-3-3v-3l-4-3v-4l3-1-1-4v-3l-4-3h-14h-4l1-3 1 1 4 1 2-3 2 1 2-4 4-1 2 1 3-5h2v1l2 1 2-2h2l6-2-1-4-2 1-2-4 1-5-2-3 1-1 2 3 7-3 1-2 2-2h5v-4v-2l-3-4h-5l-1-5-5-1-1-2-7 1-1 1-3 1 2-2-5-1 3-3v-2l2 3 2-1 1 2 4-2 3-4 5-1-5-1h10l6-5v-2l4 1-5-3 2-3 1-8 11 5-3-4v-3l9 1 7-3 6 1 5-7 4 1 2-2 3 3-3 3 4 6-2 2-2 3 4 4 4 1 3-1-1-2 1-1h4l7 3 1 3h5l11 7 11-2 4-1 12 1 7-2 6 6 10-4 9-8 7-3v-6l-2-5v-2l2-3-2-2 2-2-2-2h-10l-3-5-9 1v-8l-2-2 2-2-7-5h-3h-1l-1-5 4-1 1-6-13-2-12 6-2-5-7 1-3 4-19 5-3-4-3 2h-7l-4-5-2-5-7-3-2 1h-4l-3-5h-4v-3l-2-2-1-3-2-2-2-2-4 1-2-2-5 1-2-5h-7l-1-4-9-4h-8l-1-2-6-4-5-3-1-4-4 1-3-1-2 2-6-1v-5l-4-3v3l-5 4 1 7-2 3-1 7h-2l2 2-1 1-2 2 3 3-2 3-8 6 1 9h5l2 2-2 9-6 3 2 2v3l4 2-2 4 2 3-2 2h-1v2l5 2-1 4h-6l-2 7v1l6 3 2 2-3 1-1 2 1 1-3 2 5 6 1 7-2 1-4 10h-3l-7-7 2-2-2-2 1-2 3-2v-2l-1-6-3-2 6-8 1-1-3-3-2 1-1-1 1-3-2-2-5 1 2-6 2-2-4-5-4 1v-2l-4-1-4-1-11 3-2-3-2-7-3 4-3-1-5 2-2-1-18-1-5 1 1 4h2l3-1-2 1 1 3h1v9l2 10 3-2h3l2 3h2l1-3 3-3v2h5l2-2v3l-1 3 1 1v3l-7 10 17 10 1 2-2 3v7l2 2 15 3h5l-2 1 1 3h2l-2 2 4 1 1 3-1 2 3 1 1 4 3 2 1 2-3 1-1 5h-2l1 5 2 5v11l-1 5-1 2-4 1v2l-6 1-4 3-5 8-3 5h-5l-5 4h-4l-8 7-5 2-4 4 3 3 1 2-1 2 3 1 6-3h10l5-4 1 1v-1h3l1-1 1 1 4-1 1 1 1-1-1 1 2-1 5 2 5-3v2l8-4 8-1 1-2 4-2 1 3 2 1-2 3v6l-5-5-3 1 3 3 2-1 2 3 10 5v2l7 5 2-1 3 2-2 3 6 6h-4v3l-3 3h-3l2 3-5 4-4-5-4-3 2-2-2-2 4-3-3-5-13-12-6 6-2-2-9 10-8 13-2-2-2 1 1 1h-3l-3 5 10 6h1l2 1-2 1-12-6-1 1 5 3-1 8 1 6 7 1 2 5-2 4 4 7-2 1 2 1-2 1v-1l-3 3h1l-6 2-1 2-2 3 2 2-5 8 1 2h-2l1 6 5 1 5-7 7 5 1-1 3-2 2 2 5-1 4 1 2 4 2-2 4 1v-1l3-2 1-2 6 16 3-1 2 2zM151 375l1 2 2-3h5l1-4-3 1v-2h-2v-2l-1 1-1 2-1-3 1-1h-1h-2v-1v3l-1 1-3-2-2 2 1 3h6l2 1h-2l-3 4zM159 365l3 3 2-2v-1h-2l1-2zM122 365v-5l-2 1-1 3 1 2zM146 365l3-1v-2zM190 362h1l1-2 1-1-2 1-2-1v-4l-3-3-3 3 1 4 4 2-1 1v3zM153 361l2-1-1-1-3 2 1 3h1zM170 356h1l2 3 5-5h4l-1-3 3-6-3-4 5 1 3-4-3 1-2-3v-2l3 1-1-1 1-4 4-2 1-5 2-1v-7l5-8 2-9-1 2h-3l-1-3-4 3 1 2-2 1-3-4-1 1-1 1h-2l-2 2-1 2 1 1-1-1-2 3-2 1v-6h-1l-2 2-2-3 3-3h-2l-3 5-1-2 2-4-2 1v-2l-2 3v-3l-6 3-2 3-2-3-6 2-5 6-5 6v2l-1-1-6 3h-4l-3 4-5 4-10 3-1 2 2 4v3l3 3 1 4 2 1 2-1-2-2 4 3 1-1 1 2v4h1v2h-2l-1 2-2 3 7-1 3-8v-2l3-1 6 7 3-2 2 1 3 1-1 1 2-2h5v-1l1 1 5-3 2-6h1l1 6-1 1-1 2-1 1 2-1-1 2 2 4-1 1h2l-2 1 2 1 3-4zM161 355l-2 1-1 2zM154 354l1 2 1-2zM180 357h3l-2-3zM120 351h2l-1-1zM213 316h3l1-2h-2l1 1zM189 299v1l2 1 1-2-1-2zM191 296l3 1-2-2zM193 296h1l1-3zM178 292l3 2 2-1-1-2zM190 291l-2 1v-1l-4-2-2 1 3 1 2 2 4-1zM209 276l-2-4-2 3-2 1-1 3 2 3h-1l1 7-1 3v1l2-1 7-12-3-2zM107 292h2v-1zM176 291l3-1-2-1zM190 289h4l1-3 1 3 4-2-3-1 2-5-3-2h2v-2h1l2-2 1-3-3 1v-3l-1 1-1-2h-2l2-1-2-2 4 1v-2l2-4-3-2h-2l1-3-3 1-2 4-4-1v3h1l1 3-2-2h-2l1-4-3 2 1 3-7 7 2 3 3-1 4 1v1l-1 4-3 1-1 5v2l3-1 4 3 1-1-2-2zM76 288l6-1h-3zM199 280l1 1 1-3zM217 273l3-3v-5l-2-1-5-1-6 3 3 2h-1v3l4-1 1 3-3 1 1 3zM174 275l1 1 3-2-1-2zM198 268l1 2v-2zM156 265l4 3 1-2-3-2zM242 197v2l8-1v2l-1-4z" />
		<path fill="#dcb6f2" d="M315 239l-2-5-3-3v-3l-4-3v-4l3-1-1-4v-3l-4-3h-14h-4l1-3 1 1 4 1 2-3 2 1 2-4 4-1 2 1 3-5h2v1l2 1 2-2h2l6-2-1-4-2 1-2-4 1-5-2-3 1-1 2 3 7-3 1-2 2-2h5v-4v-2l-3-4h-5l-1-5-5-1-1-2-7 1-1 1-3 1 2-2-5-1-8 3 2-5 1-6-1-4h-2l-2-4 4-13v-2h1l-2-14 2-3-3-2-2 2-4-3v3l-4 7-2-2-6 3-2 7-6 2-3 1-1 2 1 1-3 2 5 6 1 7-2 1-4 10h-3l2 3-2 1-1 3h-4l-14-3-1 4h5l-2 1 1 3h2l-2 2 4 1 1 3-1 2 3 1 1 4 3 2 1 2-3 1-1 5h-2l1 5 2 5v11l-1 5 9 3 5-3 5 3v3l3-2 2 5h3h2l2 2 2-1 2 2h3l2 3 3 2 4 7 4-6 2 3zM242 197v2l8-1v2l-1-4z" />
		<path fill="#ece3b4" d="M392 454l2-1 2-5 3-1 3 2 6-1 3 4 1-1 4 4 4-3 9 4 5-4-3-7 1-6-2-4-2-1-3-1-3-6-3-2 1-5-5-4-4 1-2-6 1-2 4-2-1-8-5-6-4-2-3-1-3-5v3l-6 9-7 3 2-7-9-11-1-7-3-5-1 1-5-2-2 2h-6l-2 2-5 10-5 6 1 4-1 2 2 2-10 8 1 9-8 5h-5l-1 3-2 1h1v6l4 1-1 3-12 1v4l1 1h3l4 5h4l-1 5 2 1-1 3 2 3-1 2 3 5 5-2 3 5 6-4 1 3 3 4 7-2 1-3 5 1 1 3h4l2 3 4-1 3 2 7-3 1-7 7-5v-3zM233 438h11l3-5-2-2 2-9-1-4 3-5-1-3 9-6-4-3v-3l-2-2 5-7-4-7 1-6 2-2 10-4 2-4-4-1-2 2-2-4-4-1-5 1-2-2-3 2-1 1-7-5-5 7-5-1-1-6h2l-1-2 5-8-2-2-10 9-9 12 4-1 4 3-8 5-2 4 2 2-3 1h-1v-2l-1 2-2 1h1l-1 2 2 2v6l3 1 1-2v1l3 1-3 2-2 3-3-2-2-1 2 4-2 4-2-4v-2l-3 1v4l-1-2-1 2 2 2-5 2-1 1-2 1 3 5-4 1 4 4-1 4 2 7 5 2h6l3 3 8 3 1 3 2-1v2l2 1zM44 334l6 4 1-2 12-2h3l6 5v-10l-5-3 6-9 3 1v-3l4-4v-3l-1-3 4-9-3-5-20 11-6 2-3-3-1-5 2-1 1 2-1 1 1-1-1-3-5-1-4 3 1 2 6 3 4 8 1 4h-2l-1 3h-2h2l-1 3 1-3 1 2-1 1-3-1v-3l1 4h2v4zM296 285l-6-6 2-3-3-2-2 1-7-5v-2l-10-5-2-3-2 1-3-3-5 2 5 6 13 12 3 5-4 3 2 2-2 2 4 3 4 5 5-4-2-3h3l3-3v-3zM401 288l2-1 5-1 1-11 3-3 14 4 5-1 2-1-1-3 2-1 3-3-2-9 2-4-2-4 1-1 8-10 1-4 3-2 4 3h4v-7l2-10 5-5 8-3 6-5v-4l4-6v-2l-4-4 4-2v-5l3-3v-4l3-1 1-4 2 1 5-3 2 1h7l6-2-5-8-7-2-3-4-4-2-1-4-3 1-4-8v-5l-7 3-9 8-10 4-6-6-7 2-12-1-4 1 1 3-2 1 1 2 5 12v2l-2-3v4l4 2-2 8 2 6-6 2-2-2-3 2-2-2-15 5-3-2-5 2-6-3-1-5-12 8h-1l-4-3-5 5-7-2-6 1-2-1-4-6h-3v-2l3-6-2-8h3l4-5 1 2h2l-2-6h11v-2l4-1 8-1 6 2 3-5-3 1-2-1-6 1-3-1 7-12-4-4 2-3 2-2-4-6 3-3-3-3-2 2-4-1-5 7-6-1-7 3-9-1v3l3 4-11-5-1 8-2 3 5 3-4-1v2l-6 5h-10l5 1-5 1-3 4-4 2-1-2-2 1-2-3v2l-3 3 5 1-2 2 3-1 1-1 7-1 1 2 5 1 1 5h5l3 4v2v4h-5l-2 2-1 2-7 3-2-3-1 1 2 3-1 5 2 4 2-1 1 4-6 2h-2l-2 2-2-1v-1h-2l-3 5-2-1-4 1-2 4-2-1-2 3-4-1-1-1-1 3h4h14l4 3v3l1 4-3 1v4l4 3v3l3 3 2 5-1 1v5l2 17-2 4 2 3h1l2 1 1 6 4 5h4l2 3 8-4 7-2 13 1 4-2-1-3 2-1 4 5 9-2 3 1 5-2 13 7zM264 157l4-10 2-1-1-7-5-6 3-2-1-1 1-2 3-1-2-2-6-3v-1l2-7h6l1-4-5-2v-2h1l2-2-2-3 2-4-4-2v-3l-2-2 6-3 2-9-2-2h-5l-1-9 8-6 2-3-3-3 2-2-7-2-8 2-4-3-8-1-3 4-4 1v1v3l1 2 1 1v1l-9 2-2 1-1 6h-6l-7 7 7 15 2 7 2 3 11-3 4 1 4 1v2l4-1 4 5-2 2-2 6 5-1 2 2-1 3 1 1 2-1 3 3-1 1-6 8 3 2 1 6v2l-3 2-1 2 2 2-2 2 7 7zM208 138l7-10v-3l-1-1 1-3v-3l-2 2h-5v-2l-3 3-1 3h-2l-2-3h-3l-3 2 2 6-1 3 3 3h2l-1 1 2-1-2 2 4-5v4l-2 2 5 2zM439 79l13 2 2-5 9-8 1-1-2-2-3 2-3-3-2-4v-6l-3-5 1-5-2-5-5-5v-1l-10-6v-4l-3-2-3-2-2 1-5-2-8-2h-6l-9 7h-4l-4-2-4 11 1 6h-1l-1 1 5 5v2l1 3 4 3 4 6 2 3-4 5-1 3 3 2-2 2v5l-5 8 3 4 19-5 3-4 7-1 2 5z" />
		<path fill="#b6f2dc" d="M270 457l2-6v-2h4l-1-6 4-3 1-5 8-10 4-1 2-5h2l3-4 1-3-2-2-3-1v-5l-4-4 2-4 5 2 1 4 2 1 1 4v9h4l2 7 4 1 4-4 2 1 1 3-1 3v2v1h-2l1 4 12-1 1-3-4-1v-6h-1l2-1 1-3h5l8-5-1-9 10-8-2-2 1-2-1-4 5-6 5-10 2-2h6l2-2 5 2 1-1 3 5 1 7 9 11-2 7 7-3 6-9v-3l3 5 3 1 4 2 5 6 9 2 8-13 2-4 2-3-1-2-5-7-8-3 3-7-4-4 1-3-1-7h-9l-7-11-3-7-1-5-6 5-4 2-7-3-3 2-2 3-4 1-13-1-2-6 1-5-4-4h-4l-1-3-4-4h-2l-2 3-4-4-1-1-8 3-8-1-3 4-10 2-4 5-4-1 2 7h-6l-1 2 3 9-3 3 1 2v4l6 2-1 4-6 2-4 8-3 2 1 2-3 2 2 3-3 2-3 2-2-2-3 1-6-16-1 2-3 2v1l-2 4-10 4-2 2-1 6 4 7-5 7 2 2v3l4 3-9 6 1 3-3 5 1 4-2 9 2 2-3 5 5 4h7l2 5-1 3 3 5zM379 189h1l12-8 1 5 6 3 5-2 3 2 15-5 2 2 3-2 2 2 6-2-2-6 2-8-4-2v-4l2 3v-2l-5-12-1-2 2-1-1-3-11 2-11-7h-5l-1-3-7-3h-4l-1 1 1 2-3 1-4-1-7 12 3 1 6-1 2 1 3-1-3 5-6-2-8 1-4 1v2h-11l2 6h-2l-1-2-4 5h-3l2 8-3 6v2h3l4 6 2 1 6-1 7 2 5-5zM481 114v-1h3l3-5-6-3v-5l-9-9 2-1-4-15-7-7-9 8-2 5-1 6-4 1 1 5h1h3l7 5-2 2 2 2v8l9-1 3 5z" />
		<path fill="none" stroke-linecap="round" d="M339 59l-3 4v4l-1 2-2-1-5 3 3 5-3 2-3 6v9l-4 1v4l-4 2-1 1h-6l-5 6-6 3-2 3 2 14h-1v2l3 3 2-3 7 2 9 5 1-2 2 2 2-1 6 2 4 3M226 103l1 6-6 8-1 4-5 4M383 88l-5 8v10l-5 8 1 1 3 1 1 2M299 110l-3-2-2 2-4-3v3l-4 7-2-2-6 3-2 7-6 2M298 129l-4 13 2 4h2l1 4-1 6-2 5 8-3M261 157l2 3-2 1-1 3h-4l-14-3-1 4M315 239h-9l-2-3-4 6-4-7-3-2-2-3h-3l-2-2-2 1-2-2h-2h-3l-2-5-3 2v-3l-5-3-5 3-9-3M293 233l-2 3-5-1 1 3-2-3-3 3-3 5v-2h-4l-2-3-2 3-3-3-4 2-7-3-3 3v2l-3 2-8 1-4-2-19 5-3-1-1-3M317 269l-6 9-3 1-2 4-4 2-2-2-4 2M164 349l3 2 1-1v-3l4-3 3-11-1-1-6 3-4-2-4-3-2-4 2-4v-5l6 2 7-1 2-3-1-4 3-4v2M162 352l1-2M161 355l-2 1M454 54l-2 1-6-2-3 1-1 3-4-1-8 1-4-1-2 1-4-7-2-1-2 4-2 2-1-5h-2l-5 3 1 4-7 1M245 102l3-2-2-3 1-3v-2h3l2-7-3-9-3 1-1-1-1-5-2-1 1-5-3-3M262 122l-1 1M349 167v-1l-4-2 1-4h-4v-5h-2l2-8-2-2-1-2M349 166l-11 4-3 3-2-1M477 202l-7-1-4-5v-8l-1-4-9-5-2-3-8-2-4 9-3 2-4-1M376 276v-3l6-6v-2l-2-9-4-4h1l4-2 4 1 1-4h-10l-4-4-8-1-4-2-4-2-1-3 2-6h-1l-1-12-1-1 2-5-1-5 24-14 1-3M355 189l-2 4-6 3-2-1-7 2-1-1v4l-4 3 2 7-5 2-3-6-5-2-3 3h-5v5l-3-1-3 2M322 204l-3-3-2 1v-3l-2-1M360 240l-5 1-5-1-1-4-3-3h-4l2-1v-2l-5-1-2-3-1-1-4 3-5-2-2-2h-2l-1 4-2-1-1-6-3-2-8-3M350 240l-2 1 1 4-11 5-2 5-6 1-3-3-4-8v-2l-9-3M392 454l-3-2-1-3 1-7-3-2 1-4 2-6-5-5-7-3-5-8h-4v1l-4-2 2-6-5-5v-8l-1-4-7-7M385 400l-3 1 2 3-1 3 1 1h1l-2 2 4 6 9 3 2 4h3l-1-3 3-2 5 2 3-1v-2M205 432l2-2 5 1 2-4-1-1 1-8-2-3-6-3-2-1 1-4-2-3M364 465l-2-2h-3l-2-3 4-8-9-11-2-8-4 2-3-2 4-6-3-9-3-4M392 181l-2-4-5-1 1-3-1-2-1-4 3-2-1-3-2-3 2-3M373 335v6l2 2 1 4 4 3v5l-1 3-2 1-3 5v6M358 373l-4-1-2 1-2-1-4-1-5 5h-3l-2-6-5-4h-3l-3-6-5 4-3-1h-1l-2-5-3-1-9 1-1-3M316 363v4l5 6-2 4 2 7v5l4-2 3 2 1 3-1 3-3 3v8l-1 5-3 4h1l-3 9M293 396l-1-5 1-3-2-2-6-8v-2" />
		<path fill="#eeeeee" d="M34 107h-2l1 1zM305 194h-2l3 3 1-2zM361 255l1 1h2l-1-1 2-1 1-2 6 1-1-1 1-1 4 1-3-2-4 1-1-1zM388 31l-4-1 2 1 1 4-2 1 2 1-3 1 2 1 2-1-1-2 2-2zM388 31l2-7 2-1-1-2 3 1-3-4v-2l-2 1 1 6-2 1zM254 271l-2 2h4zM403 386l2-2 3 3-3-4-3 1-3-10-1 5 3 4-2 2zM485 419l1 3-2 1 3 1v2l2 2 4-2 2 2-2 2v4l-2-1v2l-6-2 1 4h-2l-1-2-3 2 1 2v-1l2-1 1 2 1-1h2l1-4 2 1v1l2-2 1 1 4-6 2 2-1 2 2 1-1 1 3-2 1-1h-4l-1-5-2-1 3-4-2 4h-1l1 2-2-3h-3v-3l-1 4-2 1-1-3-3-1 1-1zM425 490l2 2-1 3 5-2-1 4 3-3 5 1-2-2-2 1v-2l-2 1-1-2-3 2v-2zM512 368l1 1-2 3v1h-4v-2v2l-2 2h-2l1 1 4-3 2 3-1-2h3l-1-2 3-1v-1l3 2 1-2-1 1zM486 310v2l1-4 3 1 1-4 5 1 3 2v-2h2l-1-1-2 2-7-3-1 4-3-1zM439 323l1 2 3-1 3 2-2 1v4h-2l-5 6 4-2 1-3h2l2-5 2-1-3-3 1-1-4 1-3-1-2-2 1-2-1 2-3-1-4-5h-3l3 2 1 3h2l-1 1h4v2l2-1z" />
	</g>
	<g>
		<rect fill="white" opacity="0.75" x="4" y="4" width="197" height="36" />
		<rect fill="black" x="8" y="8" width="189" height="8" />
		<text fill="black" text-anchor="middle" font-size="24" font-family="sans-serif" x="102" y="36">50km</text>
	</g>
</svg>