<?xml version="1.0" encoding="UTF-8" standalone="no"?>
<svg
   xmlns:dc="http://purl.org/dc/elements/1.1/"
   xmlns:cc="http://creativecommons.org/ns#"
   xmlns:rdf="http://www.w3.org/1999/02/22-rdf-syntax-ns#"
   xmlns:svg="http://www.w3.org/2000/svg"
   xmlns="http://www.w3.org/2000/svg"
   xmlns:sodipodi="http://sodipodi.sourceforge.net/DTD/sodipodi-0.dtd"
   xmlns:inkscape="http://www.inkscape.org/namespaces/inkscape"
   sodipodi:docname="Tochigi.svg"
   inkscape:version="1.0 (4035a4fb49, 2020-05-01)"
   id="svg2"
   version="1.1"
   height="560"
   width="460">
  <metadata
     id="metadata34">
    <rdf:RDF>
      <cc:Work
         rdf:about="">
        <dc:format>image/svg+xml</dc:format>
        <dc:type
           rdf:resource="http://purl.org/dc/dcmitype/StillImage" />
        <dc:title>栃木県行政区画地図 (2014年4月5日)</dc:title>
      </cc:Work>
    </rdf:RDF>
  </metadata>
  <defs
     id="defs32" />
  <sodipodi:namedview
     inkscape:document-rotation="0"
     inkscape:current-layer="svg2"
     inkscape:window-maximized="1"
     inkscape:window-y="-8"
     inkscape:window-x="-8"
     inkscape:cy="322.41073"
     inkscape:cx="271.22694"
     inkscape:zoom="1.6970563"
     inkscape:object-nodes="true"
     showgrid="false"
     id="namedview30"
     inkscape:window-height="1017"
     inkscape:window-width="1920"
     inkscape:pageshadow="2"
     inkscape:pageopacity="0"
     guidetolerance="10"
     gridtolerance="10"
     objecttolerance="10"
     borderopacity="1"
     bordercolor="#666666"
     pagecolor="#ffffff" />
  <title
     id="title4">栃木県行政区画地図 (2014年4月5日)</title>
  <rect
     id="rect8"
     height="560"
     width="460"
     y="0"
     x="0"
     fill="#eeeeee" />
  <path
     fill="#cccccc"
     d="m -1,138 h 5 l 3,4 h 3 l 9,1 5,-2 3,5 v 3 l 3,-2 7,-1 5,4 4,1 7,-9 2,-1 3,2 5,-1 2,-8 5,-4 5,-3 1,-9 2,-1 9,-2 4,4 4,-1 9,-6 h 5 l 6,-7 h 3 l 9,-4 3,-8 6,2 3,-2 2,1 5,-1 v -2 l 3,-4 -1,-1 1,-3 6,1 6,-3 1,-2 4,1 3,-5 1,-5 4,-1 4,-2 4,2 4,-4 4,-1 v -1 l 6,1 2,-2 7,1 1,-2 4,-1 v -2 l 5,-7 1,2 6,-1 8,3 h 6 l -2,-6 1,-7 -2,-1 v -3 l 2,-4 3,-2 2,-4 h 3 l 4,-3 1,1 h 3 l 4,-5 h 5 l 11,-4 4,3 3,-1 7,-2 h 12 v 2 l 3,1 21,5 4,-2 2,2 7,1 2,3 4,3 3,-1 10,4 3,-2 2,1 8,6 5,4 h 2 l 2,-1 5,7 v 1 h 3 v 2 l -2,1 3,3 3,1 3,5 9,2 v 4 l -1,1 4,5 -2,6 2,3 2,4 4,3 h 4 l 1,-3 11,-1 1,9 h -3 l 1,3 -3,2 5,9 -3,3 v 3 l 4,6 -4,4 -2,3 1,4 9,3 1,2 4,2 4,-3 9,5 2,4 4,3 3,9 1,3 3,1 V -1 H -1 Z m 462,24 -3,-1 -1,-3 -3,-9 -4,-3 -2,-4 -9,-5 -4,3 -4,-2 -5,2 -2,5 3,25 -2,13 3,2 -1,4 3,4 2,6 v 6 l -1,1 1,7 -1,7 -4,1 1,3 -1,2 3,4 -3,2 1,3 5,9 7,4 1,9 3,3 -4,1 -6,2 -1,3 h -9 l -2,2 -5,-1 -5,9 h 1 l 1,4 h -1 v 1 l 4,3 1,2 -2,2 4,5 1,1 -1,3 2,5 -4,1 1,6 h 2 l 1,1 3,10 -3,16 2,4 -1,3 3,4 -2,4 1,7 1,3 2,4 2,3 -6,1 1,4 h -3 v 3 l -3,-1 -2,1 v 3 l -1,6 -5,4 -4,12 -2,2 1,4 -2,6 1,2 v 6 l -1,3 -7,10 -9,-1 -4,1 -5,-9 -1,1 -5,-1 -7,2 -3,2 1,5 -4,2 v -1 l -4,-3 -2,2 -3,-3 h -7 v 4 l 2,4 -4,5 -9,3 -3,-2 -8,2 v -1 l -2,2 -5,-2 1,5 -5,-1 -1,1 -6,-3 -1,-3 -3,7 -1,8 -8,1 -5,3 -6,1 -4,4 -1,14 2,1 -2,4 -3,1 -1,-1 -3,-1 2,-2 -1,-2 -8,-1 1,-6 h -3 l -2,5 -2,-1 -3,2 h -4 l -6,10 2,10 -4,6 -4,14 -16,6 -12,5 -13,9 -1,1 v -3 l -4,-1 -1,-2 -5,1 v 5 l -6,-3 -2,2 v 2 1 l 3,4 -2,9 1,3 h 283 z m -462,356 3,1 4,-1 1,6 5,3 4,-2 v -3 -1 l 5,-2 3,-6 h 2 l 1,2 3,-1 3,3 4,2 3,3 3,5 12,6 1,4 5,2 6,6 9,4 13,-1 1,-1 16,1 25,-10 6,2 4,5 7,6 2,-5 10,-1 -1,-8 5,-2 1,2 -1,2 1,1 3,-4 -2,-3 v -2 l -3,1 v -4 l 2,-1 -4,-1 -2,-4 -2,-1 -2,3 1,-3 -5,-8 5,-6 -3,1 -1,-4 -8,-1 -3,3 h -9 -12 l -4,-3 1,-3 -3,-1 -2,3 -3,-4 -1,2 -2,-1 -2,-2 -6,3 -4,-1 -2,2 -3,2 -2,-2 -3,3 -3,-3 -1,3 h -1 l -5,-3 4,-1 -2,-3 -3,-3 h -6 v -2 l -2,-2 -2,2 -2,-2 1,-3 -2,-1 1,-1 -3,-1 -3,-5 1,-3 -1,-2 1,-1 1,3 1,-2 2,1 -1,-3 -3,-4 -11,-6 -2,-4 -8,-7 -2,-2 v -5 l -2,-2 2,-4 2,-4 2,-1 2,-8 6,-6 1,-5 3,-2 2,-4 3,-3 -2,-4 3,-2 2,2 3,-1 2,1 -1,-2 3,-2 1,-6 -3,2 v -5 l -2,-2 1,-3 h -3 v -2 h -2 l 1,-5 2,-2 -1,-1 4,-3 3,-6 2,-4 -3,-1 1,-1 1,-8 2,-1 3,1 5,-3 3,-5 2,-1 v -4 l 4,-2 v -3 l -4,-4 -1,-7 -2,-2 -6,1 -1,-1 h -3 l -3,2 -7,-1 -4,-2 -4,-1 2,3 -4,1 -5,-5 -15,-2 -3,-6 h -3 l -4,-1 -1,-3 1,-5 -2,-5 v -3 l 4,-5 v -5 l 2,-2 -1,-8 9,-8 -1,-1 3,-2 -1,-2 2,-2 1,-4 1,-8 2,-3 -8,-2 v -5 l -2,-2 2,-3 -1,-3 h 3 l 2,-4 6,-3 v -9 l 5,-1 2,-2 -1,-3 7,-7 -2,-3 -2,-1 -3,1 -3,-2 -8,-3 -1,-3 -5,-1 -2,-2 4,-3 v -11 l 2,2 1,-2 h 3 v -2 -5 l 3,-3 8,-4 -1,-4 -4,-1 -5,-4 -7,1 -3,2 v -3 l -3,-5 -5,2 -9,-1 H 7 l -3,-4 h -5 z m 179,43 -1,-3 2,-9 -3,-4 v -1 l -1,-3 -2,2 h -2 l -1,-4 -5,1 -1,-1 1,-2 -1,-2 -5,2 1,8 -10,1 -2,5 -7,-6 -4,-5 -6,-2 -25,10 -16,-1 -1,1 -13,1 -9,-4 -6,-6 -5,-2 -1,-4 -12,-6 -3,-5 -3,-3 -4,-2 -3,-3 -3,1 -1,-2 h -2 l -3,6 -5,2 v 1 3 l -4,2 -5,-3 -1,-6 -4,1 -3,-1 v 43 z"
     id="path12"
     style="stroke:#000000;stroke-width:0.2;stroke-linejoin:round" />
  <path
     d="m 176,542 -2,-7 3,-1 3,2 1,-4 -2,-1 1,-5 h 2 l 1,3 h 1 l 2,-4 -1,-1 8,-5 -4,1 5,-3 v -3 l -1,-2 2,-3 2,1 -1,2 h 3 l 1,-2 h 1 v 1 l 1,2 -4,2 1,3 8,1 1,-2 5,4 h 1 l 2,-8 1,1 h 3 l -1,6 2,4 -1,4 16,-6 4,-14 4,-6 -2,-10 6,-10 h 4 l 3,-2 2,1 2,-5 h 3 l -1,6 8,1 1,2 -2,2 3,1 1,1 3,-1 2,-4 -2,-1 1,-14 4,-4 6,-1 5,-3 8,-1 1,-8 3,-7 1,3 6,3 1,-1 5,1 -1,-5 5,2 2,-2 v 1 l 8,-2 3,2 9,-3 4,-5 -2,-4 v -4 l -1,-5 3,-5 -2,-4 2,-5 -3,-1 3,-7 -1,-3 v -7 l 1,-2 1,-10 -4,-3 -3,1 v 5 l -5,-1 1,-4 2,-1 -1,-7 -2,7 -2,-1 -2,6 -15,-1 -1,-3 2,-2 -3,-4 3,2 1,1 -1,-7 2,-4 -2,-5 2,-2 -5,-9 -1,-4 3,-4 -4,-20 -2,-2 1,-2 h -9 l -1,-4 -3,-4 -3,-9 2,-1 v -3 h 4 l -1,-2 2,-2 -2,-4 4,-2 v -2 l 3,1 v -3 l 3,-1 7,6 h 5 l 2,-5 4,-3 7,6 1,4 h 2 l 1,-2 h 2 v 4 l 2,5 v 4 l -3,2 2,10 8,-2 2,11 1,-1 7,-6 1,-2 -2,-2 3,-2 7,1 1,1 2,-3 5,4 -1,4 2,2 2,-1 v -2 l 1,3 3,-1 6,-1 v 3 l 3,6 3,2 h 3 l 1,2 h 4 l -3,-5 4,-2 -1,-4 7,-3 h 4 l 1,-5 3,-1 -1,-6 4,-1 -2,-5 1,-3 -1,-1 -4,-5 2,-2 -1,-2 -4,-3 h -5 l -2,-5 -5,2 -4,-1 -2,2 -6,-3 1,-2 -4,-7 -1,-8 -5,-5 -1,1 -3,-1 -6,6 -4,-4 2,-2 -2,-2 -4,1 -1,-2 -5,-1 -5,-7 -2,-7 3,-3 -2,-3 -1,1 -5,-4 -3,2 -3,-2 -2,-1 h -1 v -7 l 5,2 h 1 l 9,-1 1,-1 -2,-3 1,-2 3,-1 10,4 2,4 h 10 l 5,-6 1,-3 h 4 l 2,-3 4,-12 4,1 v 3 l 3,2 1,-4 3,-1 3,-7 5,-3 3,3 h 3 l 1,5 -2,2 v 5 l 2,8 5,5 v 2 l 5,3 4,-1 1,-7 -1,-7 1,-1 v -6 l -2,-6 -3,-4 1,-4 -3,-2 2,-13 -3,-25 2,-5 5,-2 -1,-2 -9,-3 -6,3 -2,-2 -7,-2 h -8 l -3,-2 -9,2 -2,1 1,2 -1,3 -3,1 -3,-3 -4,1 v 4 l 1,1 -3,2 -2,4 -2,1 v -3 l -4,-3 -2,-5 1,-2 h 4 l -2,-2 3,-3 -3,-6 4,-5 3,3 3,-4 v -3 l -1,-4 2,-1 -4,-2 h -4 l -2,6 h -4 v -2 l -3,2 -6,-9 -3,4 3,6 -3,3 1,1 -5,-2 -1,-4 -1,1 -16,-9 1,-5 -4,-3 -2,-4 -9,-11 h -2 v -3 l -3,-1 -1,2 -3,-4 -4,1 -3,-2 -3,1 -2,-2 -2,-1 -2,-16 4,-6 1,-5 -4,-3 h -5 l -1,-3 v -8 l 3,-8 h 5 l 8,-5 -3,-1 v -2 h -12 l -7,2 -3,1 -4,-3 -11,4 h -5 l -4,5 h -3 l -1,-1 -4,3 h -3 l -2,4 -3,2 -2,4 v 3 l 2,1 -1,7 2,6 h -6 l -8,-3 -6,1 -1,-2 -5,7 v 2 l -4,1 -1,2 -7,-1 -2,2 -6,-1 v 1 l -4,1 -4,4 -4,-2 -4,2 -4,1 -1,5 -3,5 -4,-1 -1,2 -6,3 -6,-1 -1,3 1,1 -3,4 v 2 l -5,1 -2,-1 -3,2 -6,-2 -3,8 -9,4 h -3 l -6,7 h -5 l -9,6 -4,1 -4,-4 -9,2 -2,1 -1,9 -5,3 -5,4 -2,8 -5,1 -3,-2 -2,1 -7,9 1,4 -8,4 -3,3 v 5 2 h -3 l -1,2 -2,-2 v 11 l -4,3 2,2 5,1 1,3 8,3 3,2 3,-1 2,1 2,3 -7,7 1,3 -2,2 -5,1 v 9 l -6,3 -2,4 h -3 l 1,3 -2,3 2,2 v 5 l 8,2 -2,3 -1,8 -1,4 -2,2 1,2 -3,2 1,1 -9,8 1,8 -2,2 v 5 l -4,5 v 3 l 2,5 -1,5 1,3 4,1 h 3 l 3,6 15,2 5,5 4,-1 -2,-3 4,1 4,2 7,1 3,-2 h 3 l 1,1 6,-1 2,2 1,7 4,4 v 3 l -4,2 v 4 l -2,1 -3,5 -5,3 -3,-1 -2,1 -1,8 -1,1 3,1 -2,4 -3,6 -4,3 1,1 -2,2 -1,5 h 2 v 2 h 3 l -1,3 2,2 v 5 l 3,-2 -1,6 -3,2 1,2 -2,-1 -3,1 -2,-2 -3,2 2,4 -3,3 -2,4 -3,2 -1,5 -6,6 -2,8 -2,1 -2,4 -2,4 2,2 v 5 l 2,2 8,7 2,4 11,6 3,4 1,3 -2,-1 -1,2 -1,-3 -1,1 1,2 -1,3 3,5 3,1 -1,1 2,1 -1,3 2,2 2,-2 2,2 v 2 h 6 l 3,3 2,3 -4,1 5,3 h 1 l 1,-3 3,3 3,-3 2,2 3,-2 2,-2 4,1 6,-3 2,2 2,1 1,-2 3,4 2,-3 3,1 -1,3 4,3 h 12 9 l 3,-3 8,1 1,4 3,-1 -5,6 5,8 -1,3 2,-3 2,1 2,4 4,1 -2,1 v 4 l 3,-1 v 2 l 2,3 -3,4 5,-1 1,4 h 2 l 2,-2 1,3 z m -24,-67 v -2 l -6,2 -1,-2 v -8 l -3,-3 1,-7 -2,-4 4,-4 -1,-1 h 2 l 3,-1 2,-3 v 0 l -2,3 -3,1 h -2 l 1,1 -4,4 2,4 -1,7 3,3 v 8 l 1,2 6,-2 v 2 l -4,9 z m 132,-43 -1,-1 -3,5 1,-5 -2,2 -3,-1 v 3 h -1 v -4 h -6 v -2 l -2,-1 1,-4 -4,-1 -1,2 -1,2 -1,-1 -5,1 -2,-2 2,-13 v -4 -3 h 2 l -1,-3 -2,2 v -3 l 1,-2 3,-2 h 5 l 1,-1 8,-6 1,-7 1,2 v -2 l 8,4 h 3 v -1 l 3,1 h 2 l 1,3 6,3 -1,8 -3,2 h -2 l -6,13 z m -127,-48 -1,1 1,-1 h 3 l 4,-2 5,-1 9,5 3,-1 6,2 6,-2 9,3 5,8 h 2 l -1,-1 h 2 l 2,-3 v -7 l 3,-1 v -2 1 l 3,-2 3,4 2,-2 v -4 l 1,-2 -2,-3 4,1 1,2 7,-3 1,-2 h 2 v 3 l 1,-3 h 2 l -1,4 3,2 v 3 h 2 l -1,4 h 2 l -2,2 3,3 -1,3 2,1 v 6 h -1 l -2,1 -3,1 v 4 l 1,1 -3,1 -1,4 v -2 h -1 v 2 h 2 l 1,2 v 3 h -2 l 3,3 h -3 l 1,3 -2,3 2,4 h -1 v 3 l -4,2 -3,-3 -3,-2 v 3 l -2,-1 -1,1 -3,-10 -3,-2 -8,-11 v -4 l -1,-1 -2,-3 -1,-6 -5,-8 -9,-3 -6,2 -6,-2 -3,1 -9,-5 -5,1 -4,2 z m 40,-169 -4,-5 3,-10 -2,-6 h 4 l 3,-3 -1,-2 4,-1 10,-7 -1,-20 2,-5 3,-3 3,1 -1,2 3,5 4,3 2,7 4,5 5,6 2,5 h 4 l 1,3 3,-1 1,6 v 2 l 5,4 v 4 l 3,3 h 2 l 1,3 v 3 h -2 v 5 l -2,-1 v 1 l 4,6 h 4 l 1,3 6,3 1,6 4,2 2,4 v 6 l 9,4 -1,3 h -13 l -8,-2 -3,1 -9,-4 -4,3 -6,-6 -12,-2 -12,-6 -9,-5 -4,-5 h -8 z"
     id="path14"
     inkscape:connector-curvature="0"
     style="fill:#f6bad3;stroke:#000000;stroke-width:0.2;stroke-linejoin:round"
     sodipodi:nodetypes="ccccccccccccccccccccccccccccccccccccccccccccccccccccccccccccccccccccccccccccccccccccccccccccccccccccccccccccccccccccccccccccccccccccccccccccccccccccccccccccccccccccccccccccccccccccccccccccccccccccccccccccccccccccccccccccccccccccccccccccccccccccccccccccccccccccccccccccccccccccccccccccccccccccccccccccccccccccccccccccccccccccccccccccccccccccccccccccccccccccccccccccccccccccccccccccccccccccccccccccccccccccccccccccccccccccccccccccccccccccccccccccccccccccccccccccccccccccccccccccccccccccccccccccccccccccccccccccccccccccccccccccccccccccccccccccccccccccccccccccccccccccccccccccccccccccccccccccccccccccccccccccccccccccccccccccccccccccccccccccccccccccccccccccccccccccccccccccccccccccccccccccccccccccccccccccccccccccccccccccccccccccccccccccccccccccccccccccccccccccccccccccccccccccccccccccccccccccccc" />
  <path
     d="m 195,542 13,-9 12,-5 1,-4 -2,-4 1,-6 h -3 l -1,-1 -2,8 h -1 l -5,-4 -1,2 -8,-1 -1,-3 4,-2 -1,-2 v -1 h -1 l -1,2 h -3 l 1,-2 -2,-1 -2,3 1,2 v 3 l -5,3 4,-1 -8,5 1,1 -2,4 h -1 l -1,-3 h -2 l -1,5 2,1 -1,4 -3,-2 -3,1 2,7 2,-2 6,3 v -5 l 5,-1 1,2 4,1 v 3 z m 183,-116 1,-1 5,9 4,-1 9,1 7,-10 1,-3 v -6 l -1,-2 2,-6 -1,-4 2,-2 4,-12 5,-4 1,-6 v -3 l 2,-1 3,1 v -3 h 3 l -1,-4 6,-1 -2,-3 -2,-4 -1,-3 -1,-7 2,-4 -3,-4 1,-3 -2,-4 3,-16 -3,-10 -1,-1 h -2 l -3,1 -1,5 h -4 l -7,3 1,4 -4,2 3,5 h -4 l -1,-2 h -3 l -3,-2 -3,-6 v -3 l -6,1 -3,1 -1,-3 v 2 l -2,1 -2,-2 1,-4 -5,-4 -2,3 -1,-1 -7,-1 -3,2 2,2 -1,2 -7,6 -1,1 -2,-11 -8,2 -2,-10 3,-2 v -4 l -2,-5 v -4 h -2 l -1,2 h -2 l -1,-4 -7,-6 -4,3 -2,5 h -5 l -7,-6 -3,1 v 3 l -3,-1 v 2 l -4,2 2,4 -2,2 1,2 h -4 v 3 l -2,1 3,9 3,4 1,4 h 9 l -1,2 2,2 4,20 -3,4 1,4 5,9 -2,2 2,5 -2,4 1,7 -1,-1 -3,-2 3,4 -2,2 1,3 15,1 2,-6 2,1 2,-7 1,7 -2,1 -1,4 5,1 v -5 l 3,-1 4,3 -1,10 -1,2 v 7 l 1,3 -3,7 3,1 -2,5 2,4 -3,5 1,5 h 7 l 3,3 2,-2 4,3 v 1 l 4,-2 -1,-5 3,-2 7,-2 z m -98,10 3,-5 1,1 2,-16 6,-13 h 2 l 3,-2 1,-8 -6,-3 -1,-3 h -2 l -3,-1 v 1 h -3 l -8,-4 v 2 l -1,-2 -1,7 -8,6 -1,1 h -5 l -3,2 -1,2 v 3 l 2,-2 1,3 h -2 v 3 4 l -2,13 2,2 5,-1 1,1 1,-2 1,-2 4,1 -1,4 2,1 v 2 h 6 v 4 h 1 v -3 l 3,1 2,-2 z m -40,-22 -1,-2 h -2 v -2 h 1 v 2 l 1,-4 3,-1 -1,-1 v -4 l 3,-1 2,-1 h 1 v -6 l -2,-1 1,-3 -3,-3 2,-2 h -2 l 1,-4 h -2 v -3 l -3,-2 1,-4 h -2 l -1,3 v -3 h -2 l -1,2 -7,3 -1,-2 -4,-1 2,3 -1,2 v 4 l -2,2 -3,-4 -3,2 v -1 2 l -3,1 v 7 l -2,3 h -2 l 1,1 h -2 l 1,6 2,3 1,1 v 4 l 8,11 3,2 3,10 1,-1 2,1 v -3 l 3,2 3,3 4,-2 v -3 h 1 l -2,-4 2,-3 -1,-3 h 3 l -3,-3 h 2 z M 413,281 v -1 h 1 l -1,-4 h -1 l 5,-9 5,1 2,-2 h 9 l 1,-3 6,-2 4,-1 -3,-3 -1,-9 -7,-4 -5,-9 -1,-3 3,-2 -3,-4 1,-2 -1,-3 -5,-3 v -2 l -5,-5 -2,-8 v -5 l 2,-2 -1,-5 h -3 l -3,-3 -5,3 -3,7 -3,1 -1,4 -3,-2 v -3 l -4,-1 -4,12 -2,3 h -4 l -1,3 -5,6 h -10 l -2,-4 -10,-4 -3,1 -1,2 2,3 -1,1 -9,1 h -1 l -5,-2 v 7 h 1 l 2,1 3,2 3,-2 5,4 1,-1 2,3 -3,3 2,7 5,7 5,1 1,2 4,-1 2,2 -2,2 4,4 6,-6 3,1 1,-1 5,5 1,8 4,7 -1,2 6,3 2,-2 4,1 5,-2 2,5 z m -126,-28 -9,-4 v -6 l -2,-4 -4,-2 -1,-6 -6,-3 -1,-3 h -4 l -4,-6 v -1 l 2,1 v -5 h 2 v -3 l -1,-3 h -2 l -3,-3 v -4 l -5,-4 v -2 l -1,-6 -3,1 -1,-3 h -4 l -2,-5 -5,-6 -4,-5 -2,-7 -4,-3 -3,-5 1,-2 -3,-1 -3,3 -2,5 1,20 -10,7 -4,1 1,2 -3,3 h -4 l 2,6 -3,10 4,5 1,15 h 8 l 4,5 9,5 12,6 12,2 6,6 4,-3 9,4 3,-1 8,2 h 13 z m 97,-115 1,-3 -1,-2 2,-1 9,-2 3,2 h 8 l 7,2 2,2 6,-3 -1,-4 2,-3 4,-4 -4,-6 v -3 l 3,-3 -5,-9 3,-2 -1,-3 h 3 l -1,-9 -11,1 -1,3 h -4 l -4,-3 -2,-4 -2,-3 2,-6 -4,-5 1,-1 v -4 l -9,-2 -3,-5 -3,-1 -3,-3 2,-1 v -2 h -3 v -1 l -5,-7 -2,1 h -2 l -5,-4 -8,-6 -2,-1 -3,2 -10,-4 -3,1 -4,-3 -2,-3 -7,-1 -2,-2 -4,2 -21,-5 -8,5 h -5 l -3,8 v 8 l 1,3 h 5 l 4,3 -1,5 -4,6 2,16 2,1 2,2 3,-1 3,2 4,-1 3,4 1,-2 3,1 v 3 h 2 l 9,11 2,4 4,3 -1,5 16,9 1,-1 1,4 5,2 -1,-1 3,-3 -3,-6 3,-4 6,9 3,-2 v 2 h 4 l 2,-6 h 4 l 4,2 -2,1 1,4 v 3 l -3,4 -3,-3 -4,5 3,6 -3,3 2,2 h -4 l -1,2 2,5 4,3 v 3 l 2,-1 2,-4 3,-2 -1,-1 v -4 l 4,-1 3,3 z"
     id="path16"
     inkscape:connector-curvature="0"
     style="fill:#ece3b4;stroke:#000000;stroke-width:0.2;stroke-linejoin:round"
     sodipodi:nodetypes="ccccccccccccccccccccccccccccccccccccccccccccccccccccccccccccccccccccccccccccccccccccccccccccccccccccccccccccccccccccccccccccccccccccccccccccccccccccccccccccccccccccccccccccccccccccccccccccccccccccccccccccccccccccccccccccccccccccccccccccccccccccccccccccccccccccccccccccccccccccccccccccccccccccccccccccccccccccccccccccccccccccccccccccccccccccccccccccccccccccccccccccccccccccccccccccccccccccccccccccccccccccccccccccccccccccccccccccccccccccccccccccccccccccccccccccccccccccccccccccccccccccccccccccccccccccccccccccccccccccccccccccccccccccccccccccccccccccccccccc" />
  <path
     fill="none"
     stroke-linecap="round"
     d="m 215,156 h -3 l 1,-4 v -6 l -11,-10 -1,-3 1,-3 -6,-1 3,-1 3,-5 -1,-7 2,-3 -3,-5 4,-3 2,-4 v -7 l 2,-2 -2,-5 2,-6 6,-2 5,1 6,-3 7,-10 4,-10 v -2 m 126,83 -2,-2 v 4 l -3,3 -1,-1 -1,2 -4,-1 -1,2 h -5 l -1,-2 -4,-4 v 3 l -1,-1 -1,3 -5,-6 -5,7 3,2 -3,1 3,2 -3,1 v 2 l -1,1 -6,1 -5,4 7,8 -4,3 -2,-1 1,6 -5,1 -2,6 2,4 -6,6 -8,-1 -2,-3 2,-1 -10,-18 -9,4 v 1 l 2,7 6,9 3,1 10,10 7,2 3,8 v 2 l 4,5 4,3 h 4 l 1,4 6,4 1,1 1,-3 3,-1 m -55,-53 -1,-1 -3,-1 -2,-5 -7,-2 -6,-4 -13,-8 -2,-7 -4,-3 -4,1 -8,4 -3,5 -6,2 m 90,57 -4,1 -4,10 4,7 -4,3 -2,3 2,2 -5,4 3,3 -2,7 -12,2 m 64,-10 -3,1 h -4 l 3,6 -2,6 -7,4 2,3 -11,13 -1,4 m -79,-26 -5,3 v 7 l -1,1 -4,-1 1,-4 -2,4 h -2 v -3 l -2,1 v -3 l -3,2 -2,-1 -1,2 -4,3 -2,1 -2,-2 -1,14 2,5 3,12 -1,5 -4,-1 -2,3 -4,1 v 4 l -7,1 -4,5 -1,1 2,5 2,2 h 2 l 2,4 h 3 v -1 l 2,-1 9,5 2,-3 1,3 3,2 -1,3 -1,-1 -4,1 1,4 1,2 h 3 l -1,4 3,4 h 4 l 3,-2 v 1 2 l -3,4 1,4 5,5 -2,7 -3,-1 v 2 h -1 l 1,3 m -34,-58 -3,-2 -5,2 -4,-1 -2,-3 1,-5 3,-3 v -2 l -6,-3 v -9 h -6 l -6,3 -2,-3 -6,1 -6,-4 -3,7 h 4 l 2,3 -6,8 -10,-5 -3,-3 h -4 l -7,-8 -4,-2 -2,-6 -1,-10 1,-4 -6,-6 -2,2 -4,-2 -3,3 -8,1 1,4 -1,3 2,4 -1,3 -4,1 -4,7 -4,4 -1,6 6,9 -3,3 -5,2 h -2 l -1,4 -3,-1 v 3 l -2,-1 -4,1 1,4 m 217,-18 -1,-6 v -11 l -3,-6 -10,-15 -8,-7 m -117,129 -5,-1 -4,9 1,4 -2,2 -1,-2 -1,-1 -4,-2 -9,-12 -5,-2 h -5 l -6,-4 -2,-3 -4,-5 -3,-11 -2,-2 -2,-8 h -4 l 1,-5 -3,-2 -11,-5 m 36,45 5,9 3,5 2,-1 1,3 5,1 4,6 h 1 l 1,3 3,-2 -1,2 2,2 2,1 h 2 l 3,8 v 5 l 4,2 -6,11 -1,7 m 164,-62 -2,-4 -7,-1 -6,3 v 1 h -2 l 2,4 -2,10 m -39,4 v -2 l -3,-1 1,-2 -5,-1 -7,-6 m -105,9 -3,3 4,5 h 2 v -3 l 1,-3 m -35,102 -9,-7 3,-2 v -4 l 4,-2 5,2 -1,-6 3,-11 h -5 l -2,-1 -2,2 h -3 -3 l -2,-4 h -2 v -8 l 3,-6 -2,-1 -2,-12 -6,-4 -5,-8 v -5 l -6,-7 -1,1 -5,-7 -5,4 h -2 -4 l -2,-4 h -7 m 180,24 -4,3 -2,4 2,1 1,4 3,1 -1,5 2,-3 h 2 l 10,4 2,9 5,-5 2,3 4,-3 1,6 h 6 l 1,-4 h 3 v -2 h -3 l 1,-2 h 4 l 2,1 1,4 3,-4 2,-2 1,-6 h -2 l 3,-7 v -3 m -4,33 -1,-1 2,-6 -3,-5 2,-3 m -97,77 -3,-5 2,-5 h 1 l 2,-2 -1,-4 1,-4 4,1 1,-4 2,1 1,2 4,-4 -2,-6 3,-5 v -1 l 2,-3 -3,-2 -1,-7 4,-1 -1,-7 1,-3 2,2 h 4 l -2,-5 2,-4 -1,-3 4,1 1,-4 1,-1 4,1 1,-8 h 2 l 3,-5 h 7 l 1,-7 m -77,45 -2,8 -5,4 2,1 v 4 l 1,2 M 352,322 v 1 l 2,1 v 7 l -4,5 3,15 h -5 l 2,4 -2,4 2,4 v 3 l -6,-2 1,-7 -2,-3 -4,16 -2,2 m 15,-49 -5,-2 2,-3 h -2 v -1 l -3,-3 -2,1 1,5 -9,-1 -3,1 3,2 2,3 -1,5 1,5 -2,1 -2,-5 h -4 l -1,2 -7,1 -6,-14 -2,2 m 64,-6 -3,1 v 3 h 3 l 1,4 3,2 1,2 -3,3 -3,2 -2,-1 -1,1 3,4 -1,4 -2,1 1,2 -1,1 v 6 l 12,8 v 2 l -3,1 -2,-3 -2,5 -1,1 3,1 v -1 h 3 v 4 l -3,1 -2,-2 1,4 -2,1 1,3 h 5 l -1,4 -2,1 2,2 v 7 l 2,2 3,6 v 6 l -5,10 -2,11 m -2,-61 h -2 l -4,3 -8,-1 v 3 l -3,-2 -5,4 h -5 l -2,5 1,3 -2,3 m -137,23 -2,-3 -1,-6"
     id="path18"
     style="stroke:#000000;stroke-width:0.2;stroke-linejoin:round" />
  <path
     fill="#eeeeee"
     d="m 411,41 -3,-1 1,2 z M 4,143 l 5,2 3,-4 -1,-2 -3,1 v -2 l -5,-1 v 4 z m 436,276 1,-2 -1,1 v -2 l -1,2 -1,-2 -3,3 3,-2 1,2 z M 48,242 l -1,2 1,1 1,-2 z m 10,1 v 2 l 5,2 3,-1 2,2 2,-1 1,1 3,-2 2,2 1,-1 -1,2 2,2 -2,4 5,1 2,-3 v 3 l 2,-1 7,-9 h 2 l -12,-2 -5,-4 -1,-2 -8,1 -3,-1 -2,1 -2,-1 z m 2,-31 v -3 l -2,2 1,1 3,2 z M 273,43 v -4 h -2 l 1,3 -2,4 1,7 2,-2 -1,-5 1,-1 h -2 z m -178,123 -1,3 -3,-1 -5,3 -1,-3 1,3 9,-1 -1,2 2,-3 2,1 5,-1 1,-2 -3,1 -4,-2 1,-3 4,-3 2,-4 -7,7 -2,-1 z m 81,-28 -3,-2 -4,1 9,4 -2,4 7,3 v 6 l 2,1 -1,-6 -3,-2 1,-2 -2,1 -3,-1 4,-1 -2,-7 3,-6 -2,-1 -2,4 1,7 z m 3,19 -1,-3 -4,-2 v -2 h -4 l -2,2 3,5 -2,4 h -5 6 l 2,-5 -2,-3 2,-1 5,4 -1,3 h 2 z m 41,44 4,3 3,-2 3,1 -3,-2 -3,3 z M 336,77 335,76 v 3 z m -283,312 -1,4 1,-1 4,1 -3,-2 1,-5 h -1 l 1,1 z m -16,-39 -2,4 h 2 l 2,-2 v -3 h 3 l -2,-3 1,-8 5,-4 -6,3 z"
     id="path20"
     style="stroke:#000000;stroke-width:0.2;stroke-linejoin:round" />
  <g
     id="g22">
    <rect
       id="rect24"
       height="36"
       width="107"
       y="520"
       x="349"
       opacity="0.75"
       fill="white" />
    <rect
       id="rect26"
       height="8"
       width="99"
       y="524"
       x="353"
       fill="black" />
    <text
       style="line-height:0%"
       id="text28"
       y="552"
       x="402"
       font-family="sans-serif"
       font-size="24px"
       text-anchor="middle"
       fill="#000000">20km</text>
  </g>
  <path
     id="rect3793"
     d="m 148.20987,483.85782 2.78468,0 0,0.48049 -2.78468,0 z"
     style="fill:#f6bad3;fill-opacity:1;fill-rule:nonzero;stroke:#000000;stroke-width:0;stroke-linejoin:miter;stroke-miterlimit:4;stroke-dashoffset:0.35;stroke-opacity:1" />
  <path
     id="rect3797"
     d="m 277.30685,423.28683 1.20124,0 0,0.36038 -1.20124,0 z"
     style="fill:#f6bad3;fill-opacity:1;fill-rule:nonzero;stroke:#000000;stroke-width:0;stroke-linejoin:miter;stroke-miterlimit:4;stroke-dashoffset:0.35;stroke-opacity:1"
     transform="matrix(0.96027107,0.27906893,-0.27906893,0.96027107,0,0)" />
</svg>
